<?xml version="1.0" encoding="utf-8"?>
<svg xmlns="http://www.w3.org/2000/svg" xmlns:xlink="http://www.w3.org/1999/xlink" width="480" height="380" viewBox="0 0 1920 1520">
<defs>
  <clipPath id="clip460">
    <rect x="0" y="0" width="1920" height="1520"/>
  </clipPath>
</defs>
<path clip-path="url(#clip460)" d="M0 1520 L1920 1520 L1920 0 L0 0  Z" fill="#ffffff" fill-rule="evenodd" fill-opacity="1"/>
<defs>
  <clipPath id="clip461">
    <rect x="246" y="134" width="1628" height="1195"/>
  </clipPath>
</defs>
<path clip-path="url(#clip460)" d="M246.245 1328.59 L1872.76 1328.59 L1872.76 134.812 L246.245 134.812  Z" fill="#ffffff" fill-rule="evenodd" fill-opacity="1"/>
<polyline clip-path="url(#clip461)" style="stroke:#000000; stroke-linecap:round; stroke-linejoin:round; stroke-width:2; stroke-opacity:0.1; fill:none" points="598.635,1328.59 598.635,134.812 "/>
<polyline clip-path="url(#clip461)" style="stroke:#000000; stroke-linecap:round; stroke-linejoin:round; stroke-width:2; stroke-opacity:0.1; fill:none" points="972.47,1328.59 972.47,134.812 "/>
<polyline clip-path="url(#clip461)" style="stroke:#000000; stroke-linecap:round; stroke-linejoin:round; stroke-width:2; stroke-opacity:0.1; fill:none" points="1346.31,1328.59 1346.31,134.812 "/>
<polyline clip-path="url(#clip461)" style="stroke:#000000; stroke-linecap:round; stroke-linejoin:round; stroke-width:2; stroke-opacity:0.1; fill:none" points="1720.14,1328.59 1720.14,134.812 "/>
<polyline clip-path="url(#clip461)" style="stroke:#000000; stroke-linecap:round; stroke-linejoin:round; stroke-width:2; stroke-opacity:0.1; fill:none" points="246.245,1247.55 1872.76,1247.55 "/>
<polyline clip-path="url(#clip461)" style="stroke:#000000; stroke-linecap:round; stroke-linejoin:round; stroke-width:2; stroke-opacity:0.1; fill:none" points="246.245,945.041 1872.76,945.041 "/>
<polyline clip-path="url(#clip461)" style="stroke:#000000; stroke-linecap:round; stroke-linejoin:round; stroke-width:2; stroke-opacity:0.1; fill:none" points="246.245,642.531 1872.76,642.531 "/>
<polyline clip-path="url(#clip461)" style="stroke:#000000; stroke-linecap:round; stroke-linejoin:round; stroke-width:2; stroke-opacity:0.1; fill:none" points="246.245,340.022 1872.76,340.022 "/>
<polyline clip-path="url(#clip460)" style="stroke:#000000; stroke-linecap:round; stroke-linejoin:round; stroke-width:4; stroke-opacity:1; fill:none" points="246.245,1328.59 1872.76,1328.59 "/>
<polyline clip-path="url(#clip460)" style="stroke:#000000; stroke-linecap:round; stroke-linejoin:round; stroke-width:4; stroke-opacity:1; fill:none" points="598.635,1328.59 598.635,1309.69 "/>
<polyline clip-path="url(#clip460)" style="stroke:#000000; stroke-linecap:round; stroke-linejoin:round; stroke-width:4; stroke-opacity:1; fill:none" points="972.47,1328.59 972.47,1309.69 "/>
<polyline clip-path="url(#clip460)" style="stroke:#000000; stroke-linecap:round; stroke-linejoin:round; stroke-width:4; stroke-opacity:1; fill:none" points="1346.31,1328.59 1346.31,1309.69 "/>
<polyline clip-path="url(#clip460)" style="stroke:#000000; stroke-linecap:round; stroke-linejoin:round; stroke-width:4; stroke-opacity:1; fill:none" points="1720.14,1328.59 1720.14,1309.69 "/>
<path clip-path="url(#clip460)" d="M568.276 1370.32 L597.952 1370.32 L597.952 1374.26 L568.276 1374.26 L568.276 1370.32 Z" fill="#000000" fill-rule="nonzero" fill-opacity="1" /><path clip-path="url(#clip460)" d="M608.091 1352.59 L626.447 1352.59 L626.447 1356.53 L612.373 1356.53 L612.373 1365 Q613.392 1364.65 614.41 1364.49 Q615.429 1364.3 616.447 1364.3 Q622.234 1364.3 625.614 1367.47 Q628.994 1370.65 628.994 1376.06 Q628.994 1381.64 625.522 1384.74 Q622.049 1387.82 615.73 1387.82 Q613.554 1387.82 611.285 1387.45 Q609.04 1387.08 606.633 1386.34 L606.633 1381.64 Q608.716 1382.77 610.938 1383.33 Q613.16 1383.89 615.637 1383.89 Q619.642 1383.89 621.98 1381.78 Q624.318 1379.67 624.318 1376.06 Q624.318 1372.45 621.98 1370.34 Q619.642 1368.24 615.637 1368.24 Q613.762 1368.24 611.887 1368.65 Q610.035 1369.07 608.091 1369.95 L608.091 1352.59 Z" fill="#000000" fill-rule="nonzero" fill-opacity="1" /><path clip-path="url(#clip460)" d="M972.47 1355.67 Q968.859 1355.67 967.03 1359.23 Q965.225 1362.77 965.225 1369.9 Q965.225 1377.01 967.03 1380.58 Q968.859 1384.12 972.47 1384.12 Q976.104 1384.12 977.91 1380.58 Q979.739 1377.01 979.739 1369.9 Q979.739 1362.77 977.91 1359.23 Q976.104 1355.67 972.47 1355.67 M972.47 1351.96 Q978.28 1351.96 981.336 1356.57 Q984.415 1361.15 984.415 1369.9 Q984.415 1378.63 981.336 1383.24 Q978.28 1387.82 972.47 1387.82 Q966.66 1387.82 963.581 1383.24 Q960.526 1378.63 960.526 1369.9 Q960.526 1361.15 963.581 1356.57 Q966.66 1351.96 972.47 1351.96 Z" fill="#000000" fill-rule="nonzero" fill-opacity="1" /><path clip-path="url(#clip460)" d="M1336.58 1352.59 L1354.94 1352.59 L1354.94 1356.53 L1340.87 1356.53 L1340.87 1365 Q1341.88 1364.65 1342.9 1364.49 Q1343.92 1364.3 1344.94 1364.3 Q1350.73 1364.3 1354.11 1367.47 Q1357.49 1370.65 1357.49 1376.06 Q1357.49 1381.64 1354.01 1384.74 Q1350.54 1387.82 1344.22 1387.82 Q1342.05 1387.82 1339.78 1387.45 Q1337.53 1387.08 1335.12 1386.34 L1335.12 1381.64 Q1337.21 1382.77 1339.43 1383.33 Q1341.65 1383.89 1344.13 1383.89 Q1348.13 1383.89 1350.47 1381.78 Q1352.81 1379.67 1352.81 1376.06 Q1352.81 1372.45 1350.47 1370.34 Q1348.13 1368.24 1344.13 1368.24 Q1342.25 1368.24 1340.38 1368.65 Q1338.53 1369.07 1336.58 1369.95 L1336.58 1352.59 Z" fill="#000000" fill-rule="nonzero" fill-opacity="1" /><path clip-path="url(#clip460)" d="M1694.83 1383.21 L1702.47 1383.21 L1702.47 1356.85 L1694.16 1358.52 L1694.16 1354.26 L1702.42 1352.59 L1707.1 1352.59 L1707.1 1383.21 L1714.74 1383.21 L1714.74 1387.15 L1694.83 1387.15 L1694.83 1383.21 Z" fill="#000000" fill-rule="nonzero" fill-opacity="1" /><path clip-path="url(#clip460)" d="M1734.18 1355.67 Q1730.57 1355.67 1728.74 1359.23 Q1726.93 1362.77 1726.93 1369.9 Q1726.93 1377.01 1728.74 1380.58 Q1730.57 1384.12 1734.18 1384.12 Q1737.81 1384.12 1739.62 1380.58 Q1741.45 1377.01 1741.45 1369.9 Q1741.45 1362.77 1739.62 1359.23 Q1737.81 1355.67 1734.18 1355.67 M1734.18 1351.96 Q1739.99 1351.96 1743.05 1356.57 Q1746.12 1361.15 1746.12 1369.9 Q1746.12 1378.63 1743.05 1383.24 Q1739.99 1387.82 1734.18 1387.82 Q1728.37 1387.82 1725.29 1383.24 Q1722.24 1378.63 1722.24 1369.9 Q1722.24 1361.15 1725.29 1356.57 Q1728.37 1351.96 1734.18 1351.96 Z" fill="#000000" fill-rule="nonzero" fill-opacity="1" /><path clip-path="url(#clip460)" d="M1076.11 1430.61 L1063.22 1447.95 L1076.78 1466.25 L1069.88 1466.25 L1059.5 1452.25 L1049.12 1466.25 L1042.22 1466.25 L1056.06 1447.6 L1043.4 1430.61 L1050.3 1430.61 L1059.75 1443.31 L1069.21 1430.61 L1076.11 1430.61 Z" fill="#000000" fill-rule="nonzero" fill-opacity="1" /><polyline clip-path="url(#clip460)" style="stroke:#000000; stroke-linecap:round; stroke-linejoin:round; stroke-width:4; stroke-opacity:1; fill:none" points="246.245,1328.59 246.245,134.812 "/>
<polyline clip-path="url(#clip460)" style="stroke:#000000; stroke-linecap:round; stroke-linejoin:round; stroke-width:4; stroke-opacity:1; fill:none" points="246.245,1247.55 265.142,1247.55 "/>
<polyline clip-path="url(#clip460)" style="stroke:#000000; stroke-linecap:round; stroke-linejoin:round; stroke-width:4; stroke-opacity:1; fill:none" points="246.245,945.041 265.142,945.041 "/>
<polyline clip-path="url(#clip460)" style="stroke:#000000; stroke-linecap:round; stroke-linejoin:round; stroke-width:4; stroke-opacity:1; fill:none" points="246.245,642.531 265.142,642.531 "/>
<polyline clip-path="url(#clip460)" style="stroke:#000000; stroke-linecap:round; stroke-linejoin:round; stroke-width:4; stroke-opacity:1; fill:none" points="246.245,340.022 265.142,340.022 "/>
<path clip-path="url(#clip460)" d="M125.57 1248 L155.246 1248 L155.246 1251.94 L125.57 1251.94 L125.57 1248 Z" fill="#000000" fill-rule="nonzero" fill-opacity="1" /><path clip-path="url(#clip460)" d="M166.149 1260.89 L173.787 1260.89 L173.787 1234.53 L165.477 1236.2 L165.477 1231.94 L173.741 1230.27 L178.417 1230.27 L178.417 1260.89 L186.056 1260.89 L186.056 1264.83 L166.149 1264.83 L166.149 1260.89 Z" fill="#000000" fill-rule="nonzero" fill-opacity="1" /><path clip-path="url(#clip460)" d="M205.5 1233.35 Q201.889 1233.35 200.06 1236.91 Q198.255 1240.46 198.255 1247.58 Q198.255 1254.69 200.06 1258.26 Q201.889 1261.8 205.5 1261.8 Q209.135 1261.8 210.94 1258.26 Q212.769 1254.69 212.769 1247.58 Q212.769 1240.46 210.94 1236.91 Q209.135 1233.35 205.5 1233.35 M205.5 1229.64 Q211.31 1229.64 214.366 1234.25 Q217.445 1238.83 217.445 1247.58 Q217.445 1256.31 214.366 1260.92 Q211.31 1265.5 205.5 1265.5 Q199.69 1265.5 196.611 1260.92 Q193.556 1256.31 193.556 1247.58 Q193.556 1238.83 196.611 1234.25 Q199.69 1229.64 205.5 1229.64 Z" fill="#000000" fill-rule="nonzero" fill-opacity="1" /><path clip-path="url(#clip460)" d="M156.727 945.492 L186.403 945.492 L186.403 949.427 L156.727 949.427 L156.727 945.492 Z" fill="#000000" fill-rule="nonzero" fill-opacity="1" /><path clip-path="url(#clip460)" d="M196.542 927.761 L214.898 927.761 L214.898 931.696 L200.824 931.696 L200.824 940.168 Q201.843 939.821 202.861 939.659 Q203.88 939.473 204.898 939.473 Q210.685 939.473 214.065 942.645 Q217.445 945.816 217.445 951.233 Q217.445 956.811 213.972 959.913 Q210.5 962.992 204.181 962.992 Q202.005 962.992 199.736 962.622 Q197.491 962.251 195.084 961.51 L195.084 956.811 Q197.167 957.946 199.389 958.501 Q201.611 959.057 204.088 959.057 Q208.093 959.057 210.431 956.95 Q212.769 954.844 212.769 951.233 Q212.769 947.622 210.431 945.515 Q208.093 943.409 204.088 943.409 Q202.213 943.409 200.338 943.825 Q198.486 944.242 196.542 945.122 L196.542 927.761 Z" fill="#000000" fill-rule="nonzero" fill-opacity="1" /><path clip-path="url(#clip460)" d="M205.5 628.33 Q201.889 628.33 200.06 631.895 Q198.255 635.436 198.255 642.566 Q198.255 649.672 200.06 653.237 Q201.889 656.779 205.5 656.779 Q209.135 656.779 210.94 653.237 Q212.769 649.672 212.769 642.566 Q212.769 635.436 210.94 631.895 Q209.135 628.33 205.5 628.33 M205.5 624.626 Q211.31 624.626 214.366 629.233 Q217.445 633.816 217.445 642.566 Q217.445 651.293 214.366 655.899 Q211.31 660.483 205.5 660.483 Q199.69 660.483 196.611 655.899 Q193.556 651.293 193.556 642.566 Q193.556 633.816 196.611 629.233 Q199.69 624.626 205.5 624.626 Z" fill="#000000" fill-rule="nonzero" fill-opacity="1" /><path clip-path="url(#clip460)" d="M196.542 322.742 L214.898 322.742 L214.898 326.677 L200.824 326.677 L200.824 335.149 Q201.843 334.802 202.861 334.64 Q203.88 334.455 204.898 334.455 Q210.685 334.455 214.065 337.626 Q217.445 340.797 217.445 346.214 Q217.445 351.793 213.972 354.895 Q210.5 357.973 204.181 357.973 Q202.005 357.973 199.736 357.603 Q197.491 357.233 195.084 356.492 L195.084 351.793 Q197.167 352.927 199.389 353.483 Q201.611 354.038 204.088 354.038 Q208.093 354.038 210.431 351.932 Q212.769 349.825 212.769 346.214 Q212.769 342.603 210.431 340.497 Q208.093 338.39 204.088 338.39 Q202.213 338.39 200.338 338.807 Q198.486 339.223 196.542 340.103 L196.542 322.742 Z" fill="#000000" fill-rule="nonzero" fill-opacity="1" /><path clip-path="url(#clip460)" d="M85.8243 730.014 Q92.19 732.497 94.1316 734.852 Q96.0731 737.207 96.0731 741.154 L96.0731 745.833 L91.1715 745.833 L91.1715 742.395 Q91.1715 739.976 90.0257 738.64 Q88.8799 737.303 84.6148 735.68 L81.9412 734.629 L46.8662 749.048 L46.8662 742.841 L74.748 731.701 L46.8662 720.561 L46.8662 714.354 L85.8243 730.014 Z" fill="#000000" fill-rule="nonzero" fill-opacity="1" /><path clip-path="url(#clip460)" d="M860.803 44.2197 Q863.437 45.1109 865.908 48.0275 Q868.419 50.9442 870.931 56.0483 L879.235 72.576 L870.445 72.576 L862.707 57.061 Q859.71 50.9847 856.874 48.9997 Q854.079 47.0148 849.218 47.0148 L840.306 47.0148 L840.306 72.576 L832.123 72.576 L832.123 12.096 L850.595 12.096 Q860.965 12.096 866.07 16.4305 Q871.174 20.7649 871.174 29.5149 Q871.174 35.2267 868.5 38.994 Q865.867 42.7613 860.803 44.2197 M840.306 18.8205 L840.306 40.2903 L850.595 40.2903 Q856.509 40.2903 859.507 37.5762 Q862.545 34.8216 862.545 29.5149 Q862.545 24.2082 859.507 21.5346 Q856.509 18.8205 850.595 18.8205 L840.306 18.8205 Z" fill="#000000" fill-rule="nonzero" fill-opacity="1" /><path clip-path="url(#clip460)" d="M903.297 32.4315 Q897.302 32.4315 893.818 37.1306 Q890.335 41.7891 890.335 49.9314 Q890.335 58.0738 893.778 62.7728 Q897.262 67.4314 903.297 67.4314 Q909.252 67.4314 912.736 62.7323 Q916.22 58.0333 916.22 49.9314 Q916.22 41.8701 912.736 37.1711 Q909.252 32.4315 903.297 32.4315 M903.297 26.1121 Q913.02 26.1121 918.569 32.4315 Q924.119 38.7509 924.119 49.9314 Q924.119 61.0714 918.569 67.4314 Q913.02 73.7508 903.297 73.7508 Q893.535 73.7508 887.985 67.4314 Q882.476 61.0714 882.476 49.9314 Q882.476 38.7509 887.985 32.4315 Q893.535 26.1121 903.297 26.1121 M907.105 9.70597 L915.329 9.70597 L915.329 17.8888 L907.105 17.8888 L907.105 9.70597 M891.266 9.70597 L899.49 9.70597 L899.49 17.8888 L891.266 17.8888 L891.266 9.70597 Z" fill="#000000" fill-rule="nonzero" fill-opacity="1" /><path clip-path="url(#clip460)" d="M965.398 28.5427 L965.398 35.5912 Q962.238 33.9709 958.835 33.1607 Q955.433 32.3505 951.787 32.3505 Q946.237 32.3505 943.442 34.0519 Q940.687 35.7533 940.687 39.156 Q940.687 41.7486 942.672 43.2475 Q944.657 44.7058 950.652 46.0426 L953.205 46.6097 Q961.144 48.3111 964.466 51.4303 Q967.828 54.509 967.828 60.0587 Q967.828 66.3781 962.805 70.0644 Q957.823 73.7508 949.073 73.7508 Q945.427 73.7508 941.457 73.0216 Q937.528 72.3329 933.153 70.9151 L933.153 63.2184 Q937.285 65.3654 941.295 66.4591 Q945.305 67.5124 949.235 67.5124 Q954.501 67.5124 957.336 65.73 Q960.172 63.9071 960.172 60.6258 Q960.172 57.5877 958.106 55.9673 Q956.081 54.3469 949.154 52.8481 L946.561 52.2405 Q939.634 50.7821 936.555 47.7845 Q933.477 44.7463 933.477 39.4801 Q933.477 33.0797 938.014 29.5959 Q942.551 26.1121 950.896 26.1121 Q955.027 26.1121 958.673 26.7198 Q962.319 27.3274 965.398 28.5427 Z" fill="#000000" fill-rule="nonzero" fill-opacity="1" /><path clip-path="url(#clip460)" d="M1008.62 28.5427 L1008.62 35.5912 Q1005.46 33.9709 1002.06 33.1607 Q998.656 32.3505 995.01 32.3505 Q989.46 32.3505 986.665 34.0519 Q983.91 35.7533 983.91 39.156 Q983.91 41.7486 985.895 43.2475 Q987.88 44.7058 993.876 46.0426 L996.428 46.6097 Q1004.37 48.3111 1007.69 51.4303 Q1011.05 54.509 1011.05 60.0587 Q1011.05 66.3781 1006.03 70.0644 Q1001.05 73.7508 992.296 73.7508 Q988.65 73.7508 984.68 73.0216 Q980.751 72.3329 976.376 70.9151 L976.376 63.2184 Q980.508 65.3654 984.518 66.4591 Q988.528 67.5124 992.458 67.5124 Q997.724 67.5124 1000.56 65.73 Q1003.4 63.9071 1003.4 60.6258 Q1003.4 57.5877 1001.33 55.9673 Q999.304 54.3469 992.377 52.8481 L989.784 52.2405 Q982.857 50.7821 979.778 47.7845 Q976.7 44.7463 976.7 39.4801 Q976.7 33.0797 981.237 29.5959 Q985.774 26.1121 994.119 26.1121 Q998.251 26.1121 1001.9 26.7198 Q1005.54 27.3274 1008.62 28.5427 Z" fill="#000000" fill-rule="nonzero" fill-opacity="1" /><path clip-path="url(#clip460)" d="M1022.92 9.54393 L1030.37 9.54393 L1030.37 72.576 L1022.92 72.576 L1022.92 9.54393 Z" fill="#000000" fill-rule="nonzero" fill-opacity="1" /><path clip-path="url(#clip460)" d="M1084.78 48.0275 L1084.78 51.6733 L1050.51 51.6733 Q1050.99 59.3701 1055.13 63.421 Q1059.3 67.4314 1066.71 67.4314 Q1071 67.4314 1075.02 66.3781 Q1079.07 65.3249 1083.04 63.2184 L1083.04 70.267 Q1079.03 71.9684 1074.81 72.8596 Q1070.6 73.7508 1066.27 73.7508 Q1055.41 73.7508 1049.05 67.4314 Q1042.73 61.1119 1042.73 50.3365 Q1042.73 39.1965 1048.72 32.6746 Q1054.76 26.1121 1064.97 26.1121 Q1074.12 26.1121 1079.43 32.0264 Q1084.78 37.9003 1084.78 48.0275 M1077.32 45.84 Q1077.24 39.7232 1073.88 36.0774 Q1070.56 32.4315 1065.05 32.4315 Q1058.81 32.4315 1055.04 35.9558 Q1051.32 39.4801 1050.75 45.8805 L1077.32 45.84 Z" fill="#000000" fill-rule="nonzero" fill-opacity="1" /><path clip-path="url(#clip460)" d="M1123.3 34.1734 Q1122.05 33.4443 1120.55 33.1202 Q1119.09 32.7556 1117.31 32.7556 Q1110.99 32.7556 1107.58 36.8875 Q1104.22 40.9789 1104.22 48.6757 L1104.22 72.576 L1096.73 72.576 L1096.73 27.2059 L1104.22 27.2059 L1104.22 34.2544 Q1106.57 30.1225 1110.34 28.1376 Q1114.11 26.1121 1119.49 26.1121 Q1120.26 26.1121 1121.2 26.2337 Q1122.13 26.3147 1123.26 26.5172 L1123.3 34.1734 Z" fill="#000000" fill-rule="nonzero" fill-opacity="1" /><path clip-path="url(#clip460)" d="M1195.21 27.2059 L1178.8 49.2833 L1196.06 72.576 L1187.27 72.576 L1174.06 54.752 L1160.85 72.576 L1152.06 72.576 L1169.68 48.8377 L1153.56 27.2059 L1162.35 27.2059 L1174.38 43.369 L1186.42 27.2059 L1195.21 27.2059 Z" fill="#000000" fill-rule="nonzero" fill-opacity="1" /><path clip-path="url(#clip460)" d="M1202.82 46.9338 L1236.2 46.9338 L1236.2 52.7671 L1202.82 52.7671 L1202.82 46.9338 Z" fill="#000000" fill-rule="nonzero" fill-opacity="1" /><path clip-path="url(#clip460)" d="M1266.95 76.7889 Q1263.79 84.8907 1260.79 87.3618 Q1257.79 89.8329 1252.77 89.8329 L1246.81 89.8329 L1246.81 83.5945 L1251.19 83.5945 Q1254.27 83.5945 1255.97 82.1361 Q1257.67 80.6778 1259.74 75.2496 L1261.07 71.8468 L1242.72 27.2059 L1250.62 27.2059 L1264.8 62.6918 L1278.98 27.2059 L1286.88 27.2059 L1266.95 76.7889 Z" fill="#000000" fill-rule="nonzero" fill-opacity="1" /><polyline clip-path="url(#clip461)" style="stroke:#009af9; stroke-linecap:round; stroke-linejoin:round; stroke-width:1.6; stroke-opacity:1; fill:none" points="1047.24,582.029 1044.29,580.598 1041.44,579.209 1038.67,577.859 1035.96,576.548 1033.32,575.276 1030.74,574.04 1028.2,572.842 1025.71,571.679 1023.25,570.552 1020.83,569.459 1018.44,568.402 1016.07,567.378 1013.72,566.389 1011.39,565.434 1009.07,564.513 1006.76,563.625 1004.47,562.771 1002.18,561.951 999.893,561.165 997.612,560.413 995.335,559.694 993.059,559.01 990.783,558.36 988.507,557.744 986.23,557.163 983.952,556.616 981.672,556.104 979.39,555.627 977.106,555.185 974.819,554.778 972.531,554.407 970.24,554.071 967.948,553.771 965.654,553.507 963.359,553.28 961.063,553.088 958.767,552.933 956.471,552.815 954.176,552.734 951.883,552.689 949.591,552.681 947.302,552.711 945.016,552.777 942.735,552.881 940.458,553.023 938.187,553.201 935.922,553.418 933.664,553.671 931.415,553.963 929.174,554.292 926.942,554.658 924.721,555.063 922.511,555.504 920.314,555.983 918.129,556.5 915.958,557.054 913.802,557.645 911.662,558.274 909.538,558.939 907.432,559.642 905.343,560.381 903.274,561.158 901.225,561.97 899.197,562.819 897.191,563.704 895.207,564.625 893.246,565.582 891.311,566.574 889.4,567.601 887.515,568.663 885.658,569.76 883.828,570.891 882.026,572.056 880.255,573.254 878.513,574.486 876.802,575.751 875.124,577.048 873.478,578.378 871.865,579.739 870.287,581.132 868.743,582.555 867.236,584.009 865.764,585.493 864.33,587.007 862.934,588.549 861.577,590.12 860.258,591.719 858.98,593.346 857.743,594.999 856.546,596.679 855.392,598.384 854.28,600.115 853.212,601.87 852.187,603.65 851.207,605.452 850.272,607.278 849.382,609.126 848.538,610.995 847.74,612.885 846.99,614.795 846.287,616.724 845.633,618.672 845.026,620.638 844.469,622.622 843.961,624.622 843.502,626.638 843.094,628.669 842.736,630.715 842.429,632.774 842.173,634.845 841.968,636.929 841.815,639.024 841.714,641.13 841.665,643.245 841.669,645.369 841.725,647.502 841.834,649.641 841.996,651.787 842.211,653.938 842.479,656.094 842.801,658.254 843.176,660.417 843.604,662.581 844.087,664.748 844.622,666.914 845.211,669.081 845.854,671.246 846.55,673.409 847.3,675.568 848.102,677.724 848.958,679.875 849.867,682.02 850.829,684.159 851.844,686.29 852.911,688.413 854.031,690.527 855.202,692.631 856.426,694.723 857.701,696.804 859.027,698.872 860.404,700.926 861.831,702.966 863.309,704.991 864.836,706.999 866.413,708.99 868.038,710.963 869.713,712.918 871.434,714.852 873.204,716.766 875.02,718.659 876.883,720.529 878.792,722.377 880.746,724.2 882.744,725.999 884.786,727.772 886.872,729.518 889.001,731.238 891.171,732.93 893.383,734.592 895.636,736.226 897.928,737.829 900.259,739.401 902.629,740.941 905.036,742.448 907.48,743.923 909.959,745.363 912.474,746.768 915.023,748.139 917.604,749.473 920.219,750.77 922.864,752.029 925.54,753.251 928.246,754.434 930.98,755.578 933.742,756.681 936.53,757.744 939.344,758.766 942.182,759.746 945.043,760.684 947.927,761.579 950.833,762.431 953.758,763.238 956.703,764.002 959.666,764.72 962.646,765.394 965.641,766.021 968.651,766.602 971.675,767.137 974.711,767.625 977.758,768.065 980.815,768.458 983.881,768.802 986.955,769.099 990.034,769.346 993.119,769.544 996.208,769.694 999.3,769.793 1002.39,769.843 1005.49,769.843 1008.58,769.793 1011.67,769.692 1014.76,769.541 1017.84,769.34 1020.91,769.087 1023.98,768.784 1027.04,768.43 1030.09,768.025 1033.13,767.569 1036.16,767.062 1039.17,766.503 1042.17,765.894 1045.16,765.234 1048.12,764.523 1051.07,763.761 1053.99,762.949 1056.9,762.086 1059.78,761.173 1062.64,760.209 1065.48,759.196 1068.28,758.132 1071.07,757.019 1073.82,755.857 1076.54,754.645 1079.23,753.385 1081.89,752.077 1084.52,750.72 1087.11,749.316 1089.66,747.864 1092.18,746.365 1094.66,744.82 1097.1,743.228 1099.5,741.591 1101.86,739.909 1104.18,738.182 1106.45,736.411 1108.68,734.597 1110.86,732.739 1113,730.839 1115.08,728.897 1117.12,726.914 1119.11,724.89 1121.05,722.827 1122.93,720.724 1124.76,718.582 1126.54,716.403 1128.26,714.187 1129.93,711.934 1131.54,709.645 1133.1,707.322 1134.59,704.965 1136.03,702.574 1137.4,700.151 1138.72,697.697 1139.97,695.212 1141.16,692.697 1142.29,690.153 1143.35,687.581 1144.35,684.983 1145.29,682.358 1146.16,679.708 1146.96,677.034 1147.7,674.336 1148.37,671.616 1148.97,668.876 1149.5,666.115 1149.97,663.334 1150.36,660.536 1150.69,657.721 1150.94,654.889 1151.13,652.043 1151.24,649.183 1151.28,646.31 1151.25,643.426 1151.15,640.531 1150.98,637.627 1150.74,634.714 1150.42,631.794 1150.03,628.868 1149.57,625.938 1149.03,623.004 1148.43,620.067 1147.75,617.129 1147,614.191 1146.17,611.254 1145.27,608.319 1144.3,605.387 1143.26,602.46 1142.15,599.539 1140.96,596.624 1139.7,593.718 1138.37,590.821 1136.97,587.935 1135.5,585.06 1133.95,582.199 1132.34,579.351 1130.66,576.519 1128.9,573.703 1127.08,570.905 1125.19,568.126 1123.23,565.367 1121.2,562.629 1119.11,559.914 1116.95,557.222 1114.73,554.555 1112.43,551.914 1110.08,549.3 1107.66,546.715 1105.18,544.158 1102.63,541.633 1100.03,539.138 1097.36,536.677 1094.63,534.25 1091.85,531.857 1089,529.501 1086.1,527.181 1083.14,524.9 1080.13,522.658 1077.06,520.457 1073.94,518.296 1070.77,516.179 1067.55,514.104 1064.27,512.074 1060.95,510.089 1057.58,508.151 1054.16,506.26 1050.7,504.417 1047.19,502.623 1043.64,500.879 1040.05,499.187 1036.42,497.546 1032.75,495.957 1029.04,494.422 1025.29,492.942 1021.51,491.516 1017.69,490.146 1013.85,488.834 1009.97,487.578 1006.06,486.38 1002.12,485.242 998.158,484.163 994.17,483.144 990.157,482.185 986.123,481.288 982.067,480.454 977.993,479.681 973.9,478.972 969.792,478.327 965.669,477.745 961.533,477.229 957.386,476.777 953.229,476.391 949.064,476.071 944.892,475.817 940.715,475.63 936.536,475.51 932.354,475.457 928.173,475.472 923.993,475.555 919.817,475.705 915.646,475.924 911.482,476.212 907.326,476.568 903.18,476.993 899.046,477.486 894.926,478.049 890.821,478.681 886.732,479.381 882.663,480.151 878.613,480.989 874.586,481.896 870.582,482.872 866.604,483.917 862.653,485.03 858.73,486.211 854.838,487.461 850.978,488.778 847.152,490.163 843.361,491.615 839.607,493.135 835.892,494.721 832.218,496.373 828.585,498.091 824.996,499.875 821.452,501.723 817.955,503.636 814.506,505.613 811.107,507.654 807.759,509.757 804.465,511.923 801.225,514.15 798.041,516.438 794.915,518.787 791.848,521.195 788.841,523.662 785.897,526.188 783.015,528.77 780.199,531.41 777.448,534.105 774.765,536.854 772.151,539.658 769.607,542.515 767.134,545.424 764.734,548.384 762.408,551.395 760.157,554.454 757.983,557.562 755.886,560.717 753.868,563.917 751.929,567.163 750.072,570.453 748.296,573.785 746.604,577.158 744.995,580.572 743.472,584.025 742.034,587.516 740.683,591.044 739.42,594.606 738.245,598.203 737.16,601.833 736.165,605.494 735.261,609.185 734.449,612.904 733.729,616.652 733.102,620.425 732.569,624.222 732.129,628.043 731.785,631.885 731.536,635.748 731.382,639.629 731.325,643.528 731.364,647.442 731.501,651.371 731.734,655.312 732.065,659.264 732.494,663.227 733.021,667.197 733.646,671.174 734.37,675.156 735.192,679.141 736.112,683.129 737.131,687.116 738.249,691.102 739.465,695.085 740.779,699.064 742.192,703.037 743.703,707.001 745.311,710.957 747.017,714.901 748.82,718.833 750.72,722.75 752.717,726.651 754.81,730.535 756.999,734.4 759.282,738.244 761.661,742.066 764.133,745.863 766.699,749.635 769.358,753.38 772.109,757.096 774.951,760.782 777.884,764.435 780.906,768.055 784.017,771.639 787.217,775.187 790.503,778.696 793.876,782.166 797.333,785.594 800.875,788.978 804.499,792.319 808.205,795.613 811.992,798.86 815.859,802.058 819.803,805.205 823.825,808.3 827.922,811.342 832.094,814.329 836.338,817.26 840.654,820.133 845.04,822.947 849.494,825.7 854.016,828.392 858.603,831.021 863.254,833.585 867.967,836.084 872.74,838.516 877.573,840.88 882.463,843.174 887.409,845.398 892.408,847.55 897.459,849.629 902.56,851.634 907.71,853.564 912.906,855.418 918.146,857.195 923.429,858.894 928.753,860.513 934.115,862.052 939.514,863.51 944.948,864.886 950.414,866.18 955.91,867.389 961.435,868.514 966.986,869.554 972.561,870.508 978.158,871.375 983.775,872.154 989.41,872.845 995.06,873.448 1000.72,873.961 1006.4,874.385 1012.08,874.718 1017.77,874.96 1023.46,875.111 1029.16,875.17 1034.86,875.137 1040.55,875.011 1046.24,874.793 1051.92,874.482 1057.59,874.077 1063.25,873.579 1068.89,872.987 1074.52,872.302 1080.13,871.522 1085.72,870.649 1091.28,869.681 1096.82,868.62 1102.33,867.465 1107.81,866.216 1113.26,864.874 1118.67,863.438 1124.04,861.909 1129.38,860.287 1134.67,858.572 1139.92,856.765 1145.12,854.867 1150.27,852.876 1155.37,850.794 1160.41,848.622 1165.4,846.36 1170.33,844.008 1175.21,841.568 1180.01,839.039 1184.76,836.422 1189.43,833.719 1194.04,830.929 1198.58,828.054 1203.04,825.095 1207.43,822.052 1211.74,818.926 1215.97,815.719 1220.11,812.431 1224.18,809.063 1228.16,805.616 1232.05,802.092 1235.85,798.491 1239.56,794.815 1243.17,791.064 1246.69,787.241 1250.11,783.346 1253.44,779.381 1256.66,775.347 1259.78,771.245 1262.8,767.078 1265.71,762.845 1268.52,758.549 1271.21,754.191 1273.8,749.773 1276.27,745.296 1278.63,740.762 1280.88,736.172 1283.01,731.529 1285.02,726.833 1286.91,722.087 1288.68,717.293 1290.34,712.451 1291.87,707.564 1293.27,702.633 1294.55,697.661 1295.71,692.65 1296.74,687.6 1297.64,682.515 1298.42,677.396 1299.07,672.244 1299.58,667.063 1299.97,661.853 1300.22,656.617 1300.35,651.358 1300.34,646.076 1300.2,640.774 1299.93,635.454 1299.52,630.119 1298.98,624.77 1298.3,619.409 1297.5,614.039 1296.55,608.661 1295.48,603.279 1294.27,597.893 1292.92,592.506 1291.44,587.121 1289.83,581.739 1288.08,576.363 1286.2,570.995 1284.19,565.637 1282.04,560.291 1279.76,554.959 1277.35,549.645 1274.81,544.349 1272.14,539.074 1269.33,533.822 1266.4,528.596 1263.34,523.397 1260.15,518.228 1256.84,513.092 1253.4,507.989 1249.83,502.923 1246.14,497.895 1242.33,492.908 1238.4,487.964 1234.35,483.065 1230.18,478.212 1225.89,473.409 1221.48,468.658 1216.96,463.959 1212.33,459.316 1207.58,454.73 1202.72,450.204 1197.76,445.74 1192.68,441.338 1187.51,437.003 1182.22,432.734 1176.84,428.536 1171.36,424.408 1165.77,420.354 1160.09,416.374 1154.32,412.472 1148.45,408.648 1142.5,404.905 1136.45,401.244 1130.32,397.668 1124.1,394.177 1117.8,390.773 1111.42,387.459 1104.97,384.236 1098.43,381.105 1091.83,378.067 1085.15,375.126 1078.4,372.282 1071.59,369.536 1064.71,366.89 1057.77,364.345 1050.78,361.904 1043.72,359.566 1036.61,357.334 1029.45,355.209 1022.24,353.192 1014.99,351.283 1007.69,349.486 1000.35,347.799 992.972,346.226 985.558,344.766 978.111,343.42 970.635,342.191 963.131,341.077 955.603,340.081 948.054,339.204 940.485,338.445 932.901,337.807 925.304,337.289 917.697,336.892 910.084,336.617 902.466,336.464 894.847,336.434 887.23,336.528 879.618,336.745 872.014,337.087 864.421,337.554 856.842,338.145 849.28,338.861 841.738,339.703 834.22,340.67 826.728,341.763 819.265,342.981 811.835,344.326 804.44,345.795 797.084,347.39 789.769,349.111 782.499,350.957 775.277,352.927 768.106,355.023 760.988,357.242 753.928,359.585 746.927,362.052 739.99,364.642 733.119,367.354 726.316,370.188 719.586,373.142 712.93,376.218 706.353,379.412 699.856,382.726 693.443,386.158 687.117,389.706 680.88,393.371 674.735,397.151 668.686,401.045 662.735,405.052 656.884,409.17 651.137,413.399 645.496,417.738 639.964,422.184 634.543,426.737 629.237,431.396 624.047,436.158 618.976,441.022 614.027,445.987 609.202,451.051 604.504,456.213 599.935,461.47 595.497,466.822 591.193,472.266 587.024,477.801 582.994,483.424 579.104,489.134 575.356,494.929 571.752,500.806 568.295,506.765 564.987,512.802 561.828,518.916 558.822,525.104 555.97,531.364 553.274,537.695 550.735,544.094 548.355,550.558 546.135,557.085 544.078,563.673 542.185,570.32 540.456,577.022 538.894,583.778 537.5,590.585 536.274,597.441 535.219,604.343 534.335,611.288 533.623,618.273 533.084,625.297 532.719,632.357 532.529,639.449 532.515,646.571 532.677,653.721 533.017,660.895 533.533,668.091 534.228,675.306 535.102,682.538 536.154,689.782 537.386,697.038 538.797,704.3 540.388,711.568 542.158,718.837 544.108,726.106 546.237,733.37 548.546,740.628 551.034,747.876 553.701,755.111 556.546,762.33 559.57,769.531 562.771,776.71 566.149,783.865 569.704,790.992 573.435,798.088 577.34,805.151 581.419,812.178 585.672,819.165 590.096,826.11 594.692,833.009 599.457,839.861 604.391,846.661 609.492,853.407 614.759,860.096 620.19,866.725 625.785,873.291 631.54,879.792 637.455,886.224 643.529,892.584 649.758,898.87 656.141,905.079 662.677,911.209 669.363,917.255 676.198,923.217 683.178,929.09 690.302,934.872 697.567,940.561 704.972,946.154 712.513,951.648 720.189,957.04 727.996,962.329 735.933,967.511 743.996,972.584 752.182,977.546 760.49,982.394 768.915,987.125 777.456,991.738 786.109,996.23 794.871,1000.6 803.738,1004.84 812.709,1008.96 821.78,1012.94 830.946,1016.8 840.206,1020.52 849.556,1024.1 858.992,1027.55 868.511,1030.86 878.11,1034.02 887.784,1037.04 897.531,1039.92 907.346,1042.65 917.227,1045.23 927.168,1047.65 937.167,1049.93 947.22,1052.06 957.322,1054.03 967.471,1055.84 977.661,1057.49 987.89,1058.99 998.153,1060.33 1008.45,1061.5 1018.76,1062.51 1029.11,1063.36 1039.46,1064.05 1049.84,1064.56 1060.22,1064.92 1070.61,1065.1 1081,1065.12 1091.38,1064.97 1101.76,1064.65 1112.13,1064.16 1122.48,1063.5 1132.82,1062.67 1143.13,1061.67 1153.41,1060.5 1163.65,1059.16 1173.86,1057.65 1184.03,1055.96 1194.16,1054.11 1204.23,1052.08 1214.25,1049.88 1224.21,1047.51 1234.11,1044.97 1243.94,1042.26 1253.7,1039.39 1263.38,1036.34 1272.98,1033.12 1282.5,1029.73 1291.93,1026.18 1301.27,1022.46 1310.51,1018.58 1319.64,1014.53 1328.68,1010.32 1337.6,1005.94 1346.41,1001.41 1355.09,996.712 1363.66,991.857 1372.1,986.845 1380.41,981.677 1388.59,976.354 1396.62,970.879 1404.51,965.252 1412.26,959.477 1419.85,953.553 1427.29,947.485 1434.57,941.272 1441.69,934.918 1448.64,928.424 1455.41,921.793 1462.02,915.027 1468.44,908.128 1474.69,901.099 1480.74,893.942 1486.61,886.659 1492.28,879.254 1497.76,871.728 1503.03,864.085 1508.1,856.328 1512.97,848.459 1517.62,840.482 1522.05,832.399 1526.26,824.213 1530.26,815.928 1534.02,807.547 1537.56,799.073 1540.86,790.509 1543.93,781.86 1546.75,773.128 1549.33,764.317 1551.67,755.431 1553.76,746.474 1555.59,737.449 1557.16,728.36 1558.48,719.212 1559.53,710.007 1560.31,700.751 1560.83,691.447 1561.07,682.099 1561.04,672.713 1560.73,663.291 1560.14,653.839 1559.27,644.361 1558.11,634.862 1556.66,625.345 1554.92,615.817 1552.88,606.28 1550.56,596.741 1547.93,587.204 1545.01,577.674 1541.79,568.155 1538.27,558.652 1534.45,549.171 1530.33,539.717 1525.91,530.294 1521.19,520.907 1516.17,511.561 1510.85,502.262 1505.24,493.014 1499.34,483.823 1493.14,474.693 1486.66,465.629 1479.9,456.635 1472.86,447.718 1465.55,438.882 1457.97,430.131 1450.13,421.469 1442.04,412.902 1433.71,404.434 1425.13,396.07 1416.32,387.812 1407.3,379.667 1398.06,371.636 1388.62,363.725 1378.98,355.937 1369.17,348.275 1359.18,340.744 1349.03,333.345 1338.72,326.083 1328.27,318.96 1317.69,311.978 1306.99,305.142 1296.17,298.452 1285.24,291.912 1274.23,285.524 1263.12,279.29 1251.93,273.211 1240.68,267.29 1229.35,261.528 1217.97,255.928 1206.54,250.49 1195.06,245.216 1183.53,240.107 1171.97,235.165 1160.37,230.391 1148.74,225.786 1137.09,221.352 1125.4,217.089 1113.7,212.998 1101.97,209.082 1090.23,205.339 1078.47,201.773 1066.69,198.383 1054.89,195.17 1043.08,192.136 1031.26,189.282 1019.42,186.608 1007.57,184.115 995.713,181.805 983.845,179.677 971.968,177.734 960.085,175.975 948.196,174.403 936.304,173.016 924.409,171.817 912.514,170.807 900.621,169.985 888.733,169.352 876.851,168.91 864.978,168.658 853.118,168.598 841.273,168.73 829.447,169.055 817.642,169.572 805.863,170.283 794.112,171.187 782.394,172.285 770.713,173.577 759.071,175.064 747.475,176.745 735.926,178.62 724.431,180.69 712.993,182.954 701.616,185.412 690.305,188.064 679.065,190.91 667.899,193.948 656.812,197.179 645.81,200.602 634.895,204.217 624.074,208.022 613.35,212.018 602.728,216.202 592.213,220.575 581.809,225.134 571.521,229.88 561.353,234.811 551.31,239.925 541.396,245.222 531.615,250.699 521.973,256.356 512.473,262.191 503.12,268.202 493.918,274.388 484.871,280.746 475.984,287.276 467.261,293.974 458.705,300.839 450.322,307.869 442.115,315.062 434.087,322.415 426.244,329.927 418.588,337.594 411.124,345.415 403.856,353.386 396.786,361.506 389.92,369.771 383.259,378.179 376.808,386.727 370.57,395.412 364.549,404.231 358.748,413.182 353.169,422.261 347.817,431.464 342.693,440.79 337.802,450.234 333.146,459.793 328.727,469.465 324.549,479.245 320.614,489.129 316.925,499.116 313.484,509.2 310.293,519.378 307.355,529.647 304.673,540.002 302.247,550.441 300.08,560.958 298.174,571.551 296.531,582.215 295.152,592.946 294.039,603.74 293.194,614.594 292.618,625.502 292.312,636.462 292.278,647.468 292.516,658.516 293.028,669.603 293.814,680.724 294.876,691.874 296.213,703.05 297.827,714.246 299.718,725.459 301.886,736.684 304.331,747.916 307.054,759.152 310.055,770.386 313.333,781.614 316.889,792.832 320.722,804.035 324.831,815.219 329.217,826.378 333.877,837.509 338.813,848.606 344.022,859.666 349.504,870.684 355.257,881.654 361.281,892.573 367.575,903.436 374.135,914.238 380.962,924.975 388.053,935.643 395.407,946.235 403.021,956.749 410.895,967.18 419.024,977.522 427.408,987.772 436.044,997.925 444.93,1007.98 454.062,1017.92 463.439,1027.76 473.058,1037.48 482.914,1047.08 493.007,1056.56 503.332,1065.91 513.886,1075.13 524.666,1084.21 535.669,1093.16 546.891,1101.96 558.328,1110.61 569.976,1119.11 581.833,1127.45 593.893,1135.63 606.153,1143.64 618.609,1151.49 631.256,1159.17 644.091,1166.67 657.108,1173.99 670.304,1181.13 683.673,1188.08 697.211,1194.84 710.914,1201.4 724.776,1207.77 738.792,1213.94 752.958,1219.91 767.268,1225.67 781.717,1231.21 796.3,1236.55 811.012,1241.67 825.847,1246.57 840.799,1251.24 855.864,1255.7 871.035,1259.92 886.307,1263.92 901.674,1267.68 917.13,1271.21 932.67,1274.5 948.287,1277.55 963.975,1280.36 979.729,1282.93 995.542,1285.25 1011.41,1287.33 1027.32,1289.15 1043.28,1290.72 1059.26,1292.04 1075.28,1293.11 1091.32,1293.92 1107.37,1294.47 1123.43,1294.77 1139.5,1294.8 1155.56,1294.58 1171.61,1294.09 1187.64,1293.35 1203.64,1292.34 1219.62,1291.06 1235.56,1289.52 1251.46,1287.72 1267.3,1285.65 1283.09,1283.32 1298.81,1280.73 1314.46,1277.87 1330.04,1274.74 1345.52,1271.35 1360.92,1267.7 1376.22,1263.78 1391.41,1259.6 1406.49,1255.15 1421.45,1250.45 1436.29,1245.49 1450.99,1240.26 1465.55,1234.78 1479.97,1229.04 1494.23,1223.04 1508.33,1216.8 1522.26,1210.29 1536.01,1203.54 1549.58,1196.54 1562.96,1189.3 1576.14,1181.8 1589.11,1174.07 1601.88,1166.1 1614.42,1157.89 1626.72,1149.44 1638.8,1140.77 1650.62,1131.86 1662.19,1122.73 1673.5,1113.38 1684.53,1103.81 1695.27,1094.02 1705.72,1084.03 1715.87,1073.82 1725.7,1063.42 1735.19,1052.81 1744.35,1042.01 1753.14,1031.02 1761.56,1019.85 1769.59,1008.5 1777.22,996.98 1784.41,985.292 1791.15,973.444 1797.41,961.443 1803.17,949.296 1808.39,937.011 1813.05,924.597 1817.1,912.063 1820.51,899.417 1823.23,886.672 1825.21,873.837 1826.4,860.925 1826.72,847.948 1826.13,834.922 1824.53,821.862 1821.87,808.783 1818.04,795.704 1812.96,782.646 1806.53,769.628 1798.65,756.673 1789.22,743.807 1778.13,731.056 1765.3,718.447 1750.61,706.011 1734,693.779 1715.39,681.783 1694.74,670.057 1672.02,658.636 1647.26,647.554 1620.51,636.846 1591.86,626.544 1561.45,616.68 1529.47,607.282 1496.14,598.376 1461.74,589.985 1426.57,582.124 1390.95,574.806 1355.23,568.038 1319.73,561.821 1284.77,556.15 1250.67,551.017 1217.67,546.408 1186.01,542.305 1155.86,538.687 1127.35,535.53 1100.58,532.809 1075.59,530.497 1052.37,528.566 1030.92,526.99 1011.16,525.741 993.037,524.794 976.45,524.125 961.303,523.711 947.491,523.529 934.907,523.561 923.445,523.788 913.002,524.193 903.48,524.761 894.788,525.479 886.84,526.335 879.556,527.318 872.866,528.418 866.705,529.626 861.015,530.936 855.743,532.339 850.843,533.831 846.275,535.405 842.002,537.057 837.992,538.783 834.219,540.579 830.659,542.441 827.289,544.367 824.093,546.354 821.054,548.4 818.159,550.501 815.396,552.657 812.757,554.866 810.231,557.125 807.813,559.434 805.496,561.79 803.275,564.192 801.146,566.639 799.106,569.13 797.151,571.663 795.279,574.237 793.488,576.852 791.778,579.505 790.145,582.196 788.591,584.923 787.113,587.686 785.712,590.484 784.387,593.315 783.138,596.178 781.964,599.072 780.867,601.996 779.846,604.949 778.902,607.93 778.033,610.937 777.242,613.97 776.528,617.027 775.891,620.108 775.332,623.211 774.851,626.334 774.448,629.477 774.124,632.639 773.879,635.818 773.714,639.013 773.628,642.223 773.622,645.446 773.696,648.682 773.851,651.929 774.086,655.186 774.402,658.451 774.799,661.724 775.278,665.002 775.837,668.286 776.478,671.573 777.2,674.862 778.003,678.151 778.888,681.441 779.854,684.728 780.901,688.012 782.03,691.292 783.239,694.566 784.529,697.833 785.9,701.092 787.351,704.34 788.883,707.578 790.494,710.802 792.185,714.013 793.954,717.209 795.803,720.389 797.729,723.55 799.734,726.692 801.816,729.814 803.975,732.914 806.209,735.991 808.52,739.043 810.906,742.069 813.365,745.068 815.899,748.039 818.506,750.98 821.184,753.89 823.934,756.767 826.755,759.611 829.645,762.42 832.604,765.193 835.631,767.928 838.725,770.625 841.885,773.281 845.11,775.897 848.399,778.47 851.751,781 855.164,783.485 858.638,785.924 862.172,788.316 865.764,790.66 869.413,792.955 873.118,795.199 876.878,797.392 880.69,799.532 884.555,801.618 888.471,803.65 892.435,805.626 896.448,807.545 900.507,809.406 904.611,811.209 908.758,812.952 912.948,814.634 917.178,816.255 921.447,817.813 925.753,819.308 930.095,820.739 934.472,822.105 938.881,823.406 943.321,824.639 947.79,825.806 952.287,826.904 956.81,827.934 961.357,828.894 965.926,829.784 970.516,830.604 975.125,831.352 979.752,832.028 984.393,832.632 989.048,833.163 993.715,833.62 998.392,834.004 1003.08,834.313 1007.77,834.547 1012.46,834.706 1017.16,834.79 1021.86,834.798 1026.56,834.729 1031.25,834.585 1035.94,834.363 1040.62,834.065 1045.29,833.689 1049.96,833.237 1054.61,832.707 1059.24,832.1 1063.86,831.415 1068.46,830.653 1073.04,829.813 1077.59,828.896 1082.13,827.901 1086.63,826.829 1091.11,825.68 1095.56,824.455 1099.97,823.152 1104.35,821.773 1108.7,820.317 1113.01,818.785 1117.28,817.178 1121.5,815.496 1125.69,813.738 1129.83,811.906 1133.92,810 1137.96,808.02 1141.95,805.967 1145.89,803.842 1149.78,801.645 1153.6,799.376 1157.38,797.037 1161.09,794.627 1164.74,792.148 1168.32,789.601 1171.84,786.986 1175.3,784.304 1178.69,781.555 1182,778.741 1185.25,775.863 1188.42,772.921 1191.52,769.916 1194.54,766.85 1197.49,763.723 1200.35,760.536 1203.14,757.291 1205.84,753.989 1208.46,750.63 1210.99,747.215 1213.44,743.747 1215.8,740.225 1218.07,736.653 1220.26,733.029 1222.35,729.357 1224.34,725.636 1226.25,721.869 1228.06,718.057 1229.77,714.201 1231.39,710.302 1232.9,706.363 1234.32,702.384 1235.64,698.366 1236.86,694.313 1237.98,690.223 1238.99,686.101 1239.9,681.946 1240.71,677.76 1241.41,673.546 1242.01,669.304 1242.5,665.036 1242.88,660.744 1243.15,656.43 1243.32,652.094 1243.38,647.74 1243.33,643.367 1243.17,638.98 1242.91,634.577 1242.53,630.163 1242.04,625.738 1241.45,621.304 1240.74,616.862 1239.92,612.415 1238.99,607.965 1237.95,603.513 1236.8,599.06 1235.54,594.61 1234.17,590.162 1232.69,585.72 1231.1,581.285 1229.4,576.859 1227.59,572.444 1225.68,568.041 1223.65,563.653 1221.52,559.281 1219.27,554.927 1216.92,550.592 1214.47,546.279 1211.91,541.99 1209.24,537.725 1206.47,533.488 1203.59,529.279 1200.62,525.101 1197.54,520.956 1194.35,516.844 1191.07,512.769 1187.69,508.731 1184.21,504.733 1180.63,500.776 1176.96,496.861 1173.19,492.992 1169.33,489.169 1165.38,485.393 1161.33,481.668 1157.2,477.994 1152.97,474.373 1148.66,470.807 1144.26,467.297 1139.78,463.845 1135.21,460.452 1130.56,457.121 1125.84,453.852 1121.03,450.648 1116.15,447.509 1111.19,444.438 1106.16,441.435 1101.06,438.502 1095.88,435.641 1090.64,432.853 1085.34,430.139 1079.96,427.501 1074.53,424.94 1069.03,422.457 1063.48,420.054 1057.87,417.732 1052.2,415.492 1046.48,413.335 1040.71,411.263 1034.9,409.276 1029.03,407.377 1023.12,405.565 1017.17,403.842 1011.18,402.209 1005.15,400.666 999.086,399.216 992.988,397.859 986.859,396.595 980.701,395.426 974.516,394.352 968.307,393.374 962.077,392.494 955.826,391.711 949.559,391.026 943.278,390.44 936.984,389.955 930.68,389.569 924.369,389.284 918.053,389.1 911.735,389.018 905.417,389.038 899.102,389.16 892.791,389.386 886.489,389.714 880.196,390.146 873.916,390.682 867.652,391.322 861.405,392.065 855.179,392.913 848.976,393.865 842.798,394.921 836.648,396.081 830.529,397.346 824.442,398.714 818.392,400.186 812.38,401.762 806.408,403.442 800.48,405.225 794.598,407.11 788.764,409.099 782.98,411.189 777.251,413.381 771.577,415.675 765.961,418.069 760.407,420.563 754.915,423.157 749.49,425.85 744.132,428.641 738.845,431.529 733.631,434.514 728.492,437.596 723.431,440.772 718.45,444.042 713.551,447.406 708.737,450.862 704.009,454.409 699.371,458.046 694.824,461.772 690.37,465.586 686.012,469.487 681.752,473.474 677.592,477.544 673.533,481.698 669.578,485.933 665.729,490.249 661.988,494.643 658.357,499.115 654.837,503.663 651.431,508.285 648.14,512.98 644.967,517.746 641.912,522.581 638.977,527.485 636.165,532.455 633.477,537.49 630.913,542.587 628.477,547.745 626.169,552.962 623.991,558.237 621.944,563.567 620.03,568.95 618.249,574.386 616.603,579.87 615.094,585.402 613.722,590.98 612.488,596.601 611.394,602.264 610.441,607.966 609.629,613.705 608.959,619.479 608.432,625.286 608.05,631.124 607.812,636.99 607.719,642.882 607.773,648.798 607.973,654.736 608.319,660.693 608.814,666.667 609.456,672.656 610.246,678.658 611.185,684.669 612.273,690.688 613.509,696.712 614.894,702.74 616.428,708.767 618.111,714.793 619.943,720.815 621.924,726.829 624.053,732.835 626.33,738.828 628.756,744.808 631.328,750.771 634.048,756.715 636.915,762.638 639.927,768.537 643.085,774.409 646.388,780.253 649.834,786.065 653.424,791.843 657.156,797.585 661.029,803.289 665.042,808.951 669.195,814.57 673.486,820.143 677.914,825.668 682.478,831.142 687.176,836.563 692.008,841.928 696.971,847.235 702.064,852.482 707.286,857.667 712.635,862.786 718.11,867.838 723.709,872.821 729.429,877.732 735.27,882.569 741.229,887.329 747.305,892.011 753.495,896.612 759.797,901.131 766.21,905.564 772.731,909.911 779.359,914.168 786.089,918.334 792.922,922.406 799.853,926.384 806.882,930.264 814.004,934.045 821.219,937.725 828.523,941.301 835.913,944.773 843.388,948.139 850.944,951.396 858.579,954.543 866.29,957.578 874.073,960.499 881.928,963.306 889.849,965.996 897.835,968.567 905.883,971.019 913.989,973.35 922.151,975.558 930.366,977.643 938.629,979.602 946.939,981.434 955.292,983.139 963.685,984.715 972.115,986.16 980.577,987.475 989.07,988.657 997.59,989.706 1006.13,990.621 1014.7,991.401 1023.28,992.045 1031.87,992.552 1040.47,992.922 1049.08,993.154 1057.7,993.247 1066.31,993.201 1074.92,993.015 1083.52,992.689 1092.11,992.222 1100.69,991.613 1109.25,990.864 1117.78,989.973 1126.29,988.94 1134.78,987.765 1143.23,986.448 1151.64,984.989 1160.02,983.388 1168.35,981.646 1176.64,979.761 1184.87,977.735 1193.06,975.568 1201.18,973.259 1209.25,970.811 1217.25,968.222 1225.18,965.493 1233.04,962.626 1240.83,959.62 1248.54,956.476 1256.17,953.196 1263.71,949.779 1271.16,946.227 1278.52,942.541 1285.79,938.721 1292.96,934.769 1300.02,930.686 1306.98,926.473 1313.83,922.13 1320.57,917.661 1327.19,913.065 1333.69,908.344 1340.08,903.499 1346.33,898.533 1352.46,893.447 1358.46,888.241 1364.32,882.919 1370.04,877.482 1375.63,871.931 1381.07,866.268 1386.36,860.496 1391.51,854.615 1396.5,848.63 1401.33,842.54 1406.01,836.349 1410.53,830.058 1414.89,823.67 1419.08,817.188 1423.1,810.613 1426.95,803.947 1430.62,797.194 1434.12,790.356 1437.44,783.435 1440.59,776.434 1443.54,769.355 1446.32,762.201 1448.9,754.975 1451.3,747.68 1453.51,740.319 1455.52,732.893 1457.33,725.407 1458.95,717.863 1460.38,710.264 1461.6,702.613 1462.62,694.914 1463.43,687.168 1464.04,679.38 1464.45,671.553 1464.65,663.689 1464.64,655.792 1464.42,647.866 1463.99,639.913 1463.35,631.936 1462.5,623.94 1461.43,615.927 1460.15,607.902 1458.66,599.866 1456.96,591.824 1455.04,583.78 1452.91,575.735 1450.56,567.695 1448.01,559.663 1445.24,551.641 1442.26,543.634 1439.06,535.645 1435.66,527.678 1432.05,519.735 1428.23,511.821 1424.2,503.938 1419.97,496.091 1415.53,488.283 1410.89,480.518 1406.06,472.797 1401.02,465.126 1395.79,457.508 1390.37,449.945 1384.75,442.442 1378.95,435.001 1372.97,427.625 1366.8,420.319 1360.45,413.085 1353.92,405.927 1347.23,398.846 1340.36,391.848 1333.33,384.934 1326.13,378.108 1318.78,371.372 1311.27,364.73 1303.61,358.184 1295.8,351.738 1287.84,345.393 1279.74,339.154 1271.51,333.022 1263.14,326.999 1254.64,321.09 1246.01,315.295 1237.27,309.618 1228.4,304.062 1219.41,298.628 1210.31,293.318 1201.11,288.136 1191.79,283.083 1182.38,278.162 1172.86,273.375 1163.25,268.723 1153.55,264.21 1143.75,259.836 1133.87,255.605 1123.91,251.517 1113.87,247.575 1103.75,243.781 1093.55,240.137 1083.28,236.644 1072.95,233.303 1062.55,230.118 1052.09,227.089 1041.57,224.218 1031,221.506 1020.38,218.955 1009.7,216.567 998.983,214.343 988.222,212.284 977.422,210.392 966.587,208.667 955.72,207.112 944.825,205.726 933.906,204.512 922.965,203.471 912.008,202.603 901.037,201.909 890.057,201.39 879.071,201.047 868.083,200.882 857.098,200.893 846.119,201.083 835.15,201.452 824.196,201.999 813.26,202.727 802.347,203.634 791.461,204.722 780.607,205.991 769.788,207.44 759.009,209.071 748.274,210.882 737.588,212.874 726.954,215.047 716.378,217.401 705.863,219.936 695.414,222.65 685.035,225.544 674.731,228.618 664.506,231.87 654.364,235.3 644.31,238.908 634.348,242.693 624.483,246.654 614.718,250.79 605.058,255.099 595.507,259.582 586.069,264.237 576.749,269.063 567.551,274.058 558.479,279.221 549.537,284.551 540.729,290.046 532.059,295.705 523.532,301.526 515.15,307.508 506.919,313.648 498.842,319.945 490.923,326.397 483.165,333.002 475.573,339.758 468.149,346.663 460.899,353.715 453.824,360.91 446.93,368.248 440.219,375.726 433.694,383.341 427.36,391.091 421.219,398.973 415.275,406.985 409.53,415.123 403.988,423.386 398.652,431.77 393.525,440.272 388.61,448.89 383.909,457.621 379.425,466.461 375.162,475.407 371.12,484.456 367.304,493.606 363.715,502.852 360.357,512.192 357.23,521.621 354.337,531.137 351.681,540.737 349.263,550.416 347.085,560.171 345.149,569.998 343.457,579.894 342.011,589.856 340.811,599.879 339.86,609.959 339.159,620.093 338.709,630.277 338.511,640.508 338.567,650.78 338.877,661.091 339.442,671.435 340.264,681.81 341.342,692.212 342.678,702.635 344.271,713.076 346.122,723.532 348.233,733.997 350.601,744.468 353.229,754.94 356.115,765.409 359.26,775.872 362.664,786.323 366.325,796.759 370.244,807.175 374.421,817.568 378.853,827.932 383.542,838.264 388.485,848.559 393.682,858.813 399.132,869.022 404.833,879.181 410.785,889.287 416.986,899.335 423.434,909.32 430.128,919.239 437.066,929.087 444.247,938.86 451.668,948.554 459.327,958.164 467.223,967.687 475.352,977.118 483.714,986.453 492.305,995.688 501.122,1004.82 510.164,1013.84 519.427,1022.75 528.909,1031.55 538.606,1040.22 548.516,1048.77 558.636,1057.19 568.961,1065.48 579.49,1073.63 590.218,1081.65 601.142,1089.52 612.259,1097.24 623.564,1104.82 635.054,1112.23 646.726,1119.49 658.574,1126.59 670.595,1133.52 682.786,1140.29 695.141,1146.88 707.656,1153.3 720.327,1159.54 733.15,1165.6 746.12,1171.47 759.232,1177.15 772.481,1182.65 785.864,1187.95 799.374,1193.05 813.008,1197.95 826.759,1202.65 840.624,1207.15 854.596,1211.44 868.672,1215.51 882.844,1219.38 897.109,1223.03 911.46,1226.46 925.893,1229.68 940.401,1232.67 954.98,1235.43 969.623,1237.98 984.325,1240.29 999.081,1242.37 1013.88,1244.23 1028.73,1245.85 1043.61,1247.23 1058.52,1248.38 1073.45,1249.29 1088.41,1249.97 1103.37,1250.4 1118.34,1250.59 1133.31,1250.54 1148.28,1250.25 1163.23,1249.71 1178.17,1248.93 1193.08,1247.9 1207.95,1246.63 1222.8,1245.12 1237.6,1243.35 1252.35,1241.34 1267.04,1239.08 1281.67,1236.58 1296.23,1233.83 1310.72,1230.83 1325.13,1227.58 1339.45,1224.09 1353.68,1220.36 1367.81,1216.38 1381.83,1212.15 1395.73,1207.69 1409.52,1202.97 1423.18,1198.02 1436.71,1192.83 1450.11,1187.4 1463.35,1181.73 1476.45,1175.82 1489.38,1169.68 1502.15,1163.31 1514.75,1156.71 1527.17,1149.87 1539.41,1142.81 1551.46,1135.52 1563.3,1128.01 1574.94,1120.28 1586.37,1112.34 1597.58,1104.17 1608.56,1095.8 1619.31,1087.21 1629.81,1078.42 1640.07,1069.42 1650.07,1060.22 1659.8,1050.83 1669.25,1041.24 1678.42,1031.47 1687.3,1021.51 1695.87,1011.36 1704.13,1001.04 1712.06,990.552 1719.65,979.891 1726.9,969.067 1733.78,958.086 1740.28,946.951 1746.39,935.67 1752.08,924.248 1757.35,912.691 1762.17,901.007 1766.51,889.201 1770.36,877.281 1773.68,865.255 1776.46,853.131 1778.66,840.919 1780.24,828.627 1781.16,816.265 1781.4,803.845 1780.9,791.376 1779.62,778.872 1777.51,766.345 1774.52,753.809 1770.58,741.28 1765.65,728.771 1759.66,716.301 1752.55,703.888 1744.25,691.549 1734.71,679.306 1723.86,667.178 1711.65,655.189 1698.04,643.361 1682.99,631.718 1666.46,620.285 1648.45,609.086 1628.97,598.145 1608.04,587.489 1585.7,577.141 1562.04,567.124 1537.16,557.461 1511.17,548.172 1484.22,539.275 1456.49,530.786 1428.15,522.718 1399.42,515.081 1370.49,507.881 1341.57,501.121 1312.87,494.802 1284.59,488.92 1256.89,483.468 1229.95,478.437 1203.89,473.817 1178.83,469.592 1154.85,465.748 1132.02,462.269 1110.37,459.136 1089.91,456.332 1070.63,453.839 1052.53,451.639 1035.55,449.715 1019.65,448.05 1004.78,446.627 990.879,445.431 977.877,444.449 965.711,443.668 954.317,443.073 943.629,442.656 933.586,442.405 924.13,442.311 915.205,442.365 906.76,442.56 898.747,442.89 891.123,443.348 883.848,443.928 876.887,444.626 870.208,445.437 863.781,446.358 857.581,447.385 851.587,448.514 845.777,449.744 840.135,451.072 834.645,452.496 829.294,454.012 824.072,455.621 818.968,457.32 813.974,459.108 809.083,460.982 804.29,462.943 799.589,464.989 794.977,467.119 790.45,469.331 786.006,471.624 781.643,473.999 777.36,476.452 773.156,478.985 769.03,481.595 764.982,484.282 761.011,487.045 757.119,489.882 753.306,492.794 749.573,495.778 745.919,498.834 742.347,501.961 738.857,505.158 735.45,508.424 732.128,511.757 728.891,515.156 725.742,518.622 722.68,522.151 719.708,525.743 716.827,529.398 714.039,533.113 711.343,536.887 708.743,540.719 706.238,544.608 703.832,548.553 701.523,552.551 699.315,556.603 697.208,560.705 695.203,564.857 693.302,569.058 691.506,573.305 689.815,577.598 688.231,581.934 686.755,586.313 685.388,590.732 684.13,595.19 682.984,599.686 681.949,604.217 681.027,608.782 680.218,613.38 679.523,618.008 678.943,622.665 678.478,627.35 678.13,632.059 677.898,636.793 677.784,641.548 677.787,646.323 677.909,651.116 678.15,655.925 678.509,660.749 678.988,665.585 679.587,670.432 680.305,675.288 681.144,680.15 682.102,685.018 683.182,689.888 684.381,694.76 685.701,699.63 687.141,704.498 688.702,709.361 690.382,714.217 692.182,719.065 694.102,723.901 696.142,728.725 698.3,733.534 700.577,738.327 702.972,743.101 705.484,747.854 708.114,752.585 710.861,757.291 713.723,761.97 716.7,766.621 719.792,771.241 722.998,775.828 726.316,780.381 729.746,784.898 733.288,789.376 736.939,793.814 740.699,798.21 744.568,802.561 748.543,806.866 752.624,811.123 756.809,815.33 761.098,819.485 765.488,823.587 769.979,827.633 774.568,831.621 779.256,835.551 784.039,839.419 788.918,843.224 793.889,846.965 798.952,850.64 804.104,854.246 809.344,857.782 814.671,861.247 820.082,864.639 825.576,867.956 831.15,871.197 836.804,874.359 842.534,877.442 848.339,880.444 854.217,883.363 860.165,886.198 866.183,888.947 872.267,891.609 878.415,894.182 884.625,896.666 890.895,899.058 897.223,901.358 903.606,903.564 910.041,905.675 916.528,907.69 923.062,909.607 929.642,911.425 936.266,913.144 942.93,914.762 949.632,916.278 956.37,917.691 963.141,919 969.943,920.204 976.772,921.303 983.626,922.295 990.504,923.179 997.401,923.956 1004.31,924.623 1011.24,925.182 1018.18,925.629 1025.13,925.966 1032.09,926.192 1039.05,926.306 1046.01,926.307 1052.96,926.196 1059.92,925.971 1066.86,925.633 1073.8,925.18 1080.72,924.614 1087.62,923.933 1094.51,923.138 1101.37,922.228 1108.21,921.203 1115.02,920.064 1121.8,918.81 1128.54,917.441 1135.25,915.957 1141.92,914.359 1148.55,912.647 1155.13,910.821 1161.67,908.881 1168.15,906.828 1174.58,904.662 1180.96,902.383 1187.27,899.992 1193.52,897.49 1199.71,894.877 1205.83,892.154 1211.88,889.321 1217.86,886.379 1223.76,883.329 1229.59,880.172 1235.33,876.908 1240.99,873.539 1246.56,870.065 1252.04,866.488 1257.43,862.808 1262.72,859.027 1267.92,855.145 1273.02,851.165 1278.02,847.087 1282.91,842.912 1287.7,838.642 1292.38,834.278 1296.94,829.821 1301.39,825.274 1305.73,820.637 1309.95,815.912 1314.04,811.101 1318.01,806.205 1321.86,801.226 1325.58,796.166 1329.17,791.026 1332.63,785.809 1335.96,780.515 1339.15,775.148 1342.21,769.708 1345.12,764.198 1347.9,758.62 1350.53,752.976 1353.02,747.267 1355.36,741.497 1357.55,735.666 1359.6,729.778 1361.5,723.834 1363.24,717.837 1364.83,711.789 1366.27,705.692 1367.55,699.548 1368.68,693.361 1369.64,687.131 1370.45,680.863 1371.1,674.557 1371.59,668.217 1371.92,661.844 1372.08,655.443 1372.08,649.014 1371.92,642.561 1371.59,636.085 1371.1,629.591 1370.45,623.08 1369.63,616.554 1368.64,610.017 1367.49,603.472 1366.17,596.92 1364.69,590.364 1363.04,583.808 1361.23,577.253 1359.25,570.703 1357.11,564.16 1354.8,557.627 1352.33,551.106 1349.7,544.601 1346.9,538.114 1343.94,531.647 1340.82,525.204 1337.54,518.787 1334.1,512.398 1330.5,506.041 1326.74,499.718 1322.83,493.432 1318.77,487.186 1314.55,480.981 1310.17,474.822 1305.65,468.71 1300.98,462.648 1296.16,456.638 1291.2,450.684 1286.09,444.788 1280.84,438.952 1275.45,433.178 1269.92,427.471 1264.26,421.831 1258.46,416.261 1252.52,410.765 1246.46,405.343 1240.27,399.999 1233.95,394.735 1227.51,389.554 1220.95,384.457 1214.27,379.447 1207.47,374.527 1200.56,369.698 1193.53,364.962 1186.4,360.322 1179.15,355.781 1171.81,351.339 1164.36,347 1156.81,342.765 1149.16,338.636 1141.42,334.615 1133.59,330.704 1125.67,326.906 1117.66,323.221 1109.56,319.652 1101.39,316.201 1093.14,312.869 1084.81,309.659 1076.42,306.571 1067.95,303.607 1059.41,300.769 1050.81,298.059 1042.16,295.478 1033.44,293.028 1024.67,290.709 1015.84,288.524 1006.97,286.474 998.058,284.559 989.1,282.782 980.103,281.143 971.071,279.644 962.006,278.286 952.913,277.069 943.794,275.996 934.654,275.066 925.494,274.28 916.32,273.64 907.133,273.147 897.938,272.8 888.739,272.602 879.538,272.551 870.34,272.65 861.148,272.898 851.965,273.296 842.795,273.845 833.642,274.544 824.51,275.395 815.402,276.397 806.321,277.55 797.272,278.855 788.258,280.311 779.283,281.919 770.351,283.679 761.465,285.591 752.628,287.654 743.846,289.868 735.12,292.232 726.456,294.748 717.856,297.413 709.325,300.228 700.866,303.192 692.482,306.304 684.178,309.565 675.956,312.972 667.821,316.526 659.777,320.225 651.825,324.068 643.972,328.055 636.218,332.185 628.569,336.456 621.028,340.867 613.598,345.418 606.282,350.106 599.084,354.931 592.008,359.891 585.056,364.984 578.232,370.21 571.539,375.566 564.98,381.051 558.558,386.663 552.277,392.401 546.14,398.262 540.149,404.246 534.308,410.349 528.62,416.57 523.086,422.907 517.712,429.358 512.498,435.921 507.447,442.593 502.564,449.372 497.849,456.257 493.306,463.244 488.937,470.331 484.744,477.517 480.73,484.797 476.898,492.171 473.249,499.634 469.786,507.186 466.51,514.822 463.425,522.54 460.531,530.338 457.831,538.212 455.327,546.16 453.02,554.179 450.912,562.266 449.005,570.418 447.3,578.632 445.799,586.904 444.504,595.233 443.415,603.614 442.533,612.045 441.861,620.522 441.399,629.043 441.148,637.603 441.109,646.2 441.282,654.831 441.67,663.491 442.272,672.178 443.089,680.889 444.121,689.619 445.37,698.366 446.835,707.126 448.516,715.896 450.414,724.671 452.529,733.45 454.861,742.227 457.41,751 460.176,759.765 463.158,768.519 466.356,777.257 469.77,785.977 473.399,794.675 477.243,803.347 481.3,811.99 485.571,820.6 490.054,829.174 494.748,837.707 499.653,846.197 504.766,854.639 510.088,863.031 515.616,871.369 521.35,879.648 527.287,887.866 533.426,896.02 539.766,904.104 546.305,912.117 553.041,920.054 559.971,927.912 567.095,935.688 574.409,943.377 581.913,950.978 589.603,958.486 597.477,965.897 605.533,973.209 613.768,980.419 622.179,987.522 630.765,994.516 639.522,1001.4 648.447,1008.16 657.537,1014.81 666.791,1021.33 676.203,1027.73 685.772,1034 695.494,1040.14 705.365,1046.15 715.383,1052.02 725.544,1057.75 735.844,1063.33 746.281,1068.77 756.849,1074.06 767.546,1079.2 778.367,1084.19 789.31,1089.02 800.369,1093.69 811.541,1098.19 822.822,1102.54 834.208,1106.72 845.694,1110.73 857.277,1114.57 868.952,1118.23 880.715,1121.72 892.561,1125.03 904.486,1128.17 916.486,1131.12 928.555,1133.89 940.69,1136.47 952.886,1138.87 965.137,1141.08 977.44,1143.09 989.79,1144.92 1002.18,1146.55 1014.61,1147.99 1027.07,1149.23 1039.56,1150.27 1052.07,1151.12 1064.59,1151.77 1077.13,1152.21 1089.68,1152.46 1102.23,1152.5 1114.77,1152.34 1127.31,1151.97 1139.83,1151.4 1152.34,1150.62 1164.82,1149.64 1177.27,1148.45 1189.69,1147.06 1202.07,1145.46 1214.41,1143.65 1226.69,1141.64 1238.93,1139.42 1251.1,1136.99 1263.2,1134.35 1275.24,1131.51 1287.2,1128.46 1299.08,1125.21 1310.87,1121.75 1322.57,1118.09 1334.17,1114.23 1345.67,1110.16 1357.07,1105.89 1368.35,1101.42 1379.51,1096.75 1390.55,1091.88 1401.46,1086.81 1412.24,1081.55 1422.88,1076.09 1433.37,1070.44 1443.71,1064.59 1453.9,1058.56 1463.93,1052.34 1473.8,1045.93 1483.49,1039.34 1493.01,1032.56 1502.35,1025.61 1511.5,1018.48 1520.46,1011.17 1529.22,1003.69 1537.79,996.04 1546.14,988.222 1554.28,980.238 1562.2,972.092 1569.9,963.787 1577.37,955.326 1584.6,946.711 1591.59,937.947 1598.34,929.036 1604.83,919.982 1611.07,910.788 1617.04,901.459 1622.73,891.997 1628.15,882.408 1633.29,872.694 1638.14,862.861 1642.68,852.912 1646.92,842.852 1650.85,832.685 1654.46,822.417 1657.73,812.051 1660.67,801.594 1663.26,791.05 1665.49,780.424 1667.36,769.723 1668.85,758.951 1669.96,748.116 1670.66,737.222 1670.96,726.276 1670.83,715.285 1670.27,704.256 1669.27,693.195 1667.8,682.109 1665.86,671.007 1663.44,659.896 1660.51,648.784 1657.07,637.678 1653.1,626.588 1648.59,615.523 1643.53,604.49 1637.9,593.5 1631.69,582.563 1624.9,571.686 1617.5,560.881 1609.5,550.158 1600.9,539.526 1591.68,528.996 1581.85,518.579 1571.41,508.284 1560.37,498.121 1548.74,488.102 1536.53,478.237 1523.76,468.534 1510.46,459.003 1496.65,449.655 1482.36,440.497 1467.62,431.537 1452.49,422.784 1436.99,414.244 1421.17,405.924 1405.09,397.829 1388.78,389.965 1372.31,382.335 1355.71,374.942 1339.04,367.79 1322.35,360.879 1305.69,354.212 1289.09,347.787 1272.6,341.605 1256.26,335.664 1240.1,329.963 1224.15,324.5 1208.43,319.272 1192.97,314.275 1177.78,309.507 1162.87,304.965 1148.24,300.643 1133.91,296.539 1119.88,292.648 1106.14,288.967 1092.68,285.492 1079.5,282.218 1066.59,279.144 1053.93,276.264 1041.52,273.576 1029.35,271.076 1017.39,268.762 1005.64,266.631 994.085,264.68 982.705,262.908 971.49,261.311 960.428,259.889 949.507,258.639 938.715,257.561 928.042,256.652 917.479,255.911 907.017,255.339 896.648,254.932 886.365,254.692 876.162,254.616 866.034,254.706 855.976,254.959 845.986,255.376 836.059,255.956 826.194,256.698 816.389,257.603 806.644,258.671 796.957,259.9 787.329,261.291 777.76,262.843 768.251,264.555 758.803,266.429 749.419,268.463 740.099,270.656 730.846,273.009 721.663,275.521 712.552,278.191 703.516,281.019 694.557,284.004 685.678,287.146 676.884,290.444 668.176,293.897 659.559,297.504 651.036,301.264 642.609,305.178 634.283,309.242 626.061,313.457 617.947,317.822 609.943,322.335 602.054,326.994 594.282,331.8 586.632,336.749 579.107,341.842 571.709,347.076 564.444,352.449 557.314,357.962 550.321,363.61 543.471,369.394 536.766,375.31 530.208,381.358 523.802,387.536 517.551,393.84 511.457,400.27 505.524,406.824 499.755,413.498 494.152,420.292 488.719,427.202 483.459,434.226 478.373,441.363 473.465,448.609 468.738,455.963 464.195,463.421 459.837,470.981 455.667,478.64 451.688,486.397 447.901,494.247 444.311,502.189 440.917,510.219 437.723,518.335 434.731,526.533 431.943,534.812 429.36,543.167 426.985,551.595 424.819,560.094 422.864,568.661 421.122,577.292 419.594,585.984 418.281,594.734 417.185,603.539 416.308,612.395 415.65,621.299 415.213,630.247 414.998,639.237 415.005,648.264 415.236,657.326 415.691,666.418 416.371,675.537 417.277,684.681 418.409,693.844 419.768,703.024 421.354,712.217 423.167,721.419 425.208,730.627 427.476,739.836 429.972,749.044 432.695,758.247 435.646,767.44 438.824,776.621 442.228,785.785 445.858,794.929 449.715,804.048 453.796,813.14 458.101,822.2 462.63,831.225 467.381,840.211 472.354,849.154 477.547,858.051 482.959,866.897 488.589,875.689 494.436,884.424 500.497,893.096 506.772,901.704 513.259,910.242 519.956,918.708 526.861,927.098 533.972,935.407 541.287,943.633 548.804,951.771 556.521,959.819 564.436,967.772 572.546,975.627 580.848,983.38 589.341,991.029 598.021,998.568 606.886,1006 615.933,1013.31 625.158,1020.5 634.56,1027.57 644.135,1034.52 653.879,1041.34 663.79,1048.02 673.864,1054.57 684.098,1060.98 694.488,1067.25 705.032,1073.37 715.724,1079.35 726.562,1085.18 737.541,1090.85 748.659,1096.37 759.91,1101.73 771.291,1106.92 782.799,1111.95 794.428,1116.82 806.174,1121.51 818.034,1126.03 830.003,1130.37 842.076,1134.54 854.25,1138.53 866.519,1142.34 878.88,1145.96 891.327,1149.39 903.856,1152.64 916.461,1155.69 929.14,1158.56 941.885,1161.22 954.694,1163.69 967.56,1165.97 980.479,1168.04 993.446,1169.91 1006.46,1171.58 1019.5,1173.04 1032.58,1174.3 1045.69,1175.35 1058.82,1176.19 1071.96,1176.83 1085.12,1177.25 1098.28,1177.46 1111.45,1177.45 1124.61,1177.24 1137.76,1176.81 1150.9,1176.16 1164.01,1175.3 1177.1,1174.22 1190.16,1172.93 1203.18,1171.42 1216.16,1169.69 1229.09,1167.75 1241.97,1165.59 1254.79,1163.21 1267.55,1160.62 1280.23,1157.8 1292.84,1154.78 1305.37,1151.53 1317.81,1148.07 1330.16,1144.4 1342.41,1140.51 1354.56,1136.41 1366.6,1132.09 1378.53,1127.57 1390.34,1122.83 1402.02,1117.89 1413.57,1112.73 1424.98,1107.37 1436.26,1101.8 1447.38,1096.03 1458.35,1090.06 1469.16,1083.89 1479.81,1077.51 1490.29,1070.95 1500.59,1064.18 1510.71,1057.23 1520.65,1050.08 1530.39,1042.74 1539.93,1035.22 1549.27,1027.52 1558.4,1019.63 1567.32,1011.57 1576.01,1003.33 1584.47,994.922 1592.7,986.342 1600.69,977.597 1608.43,968.69 1615.93,959.623 1623.16,950.4 1630.12,941.025 1636.81,931.502 1643.22,921.835 1649.34,912.027 1655.17,902.083 1660.69,892.007 1665.9,881.804 1670.79,871.478 1675.34,861.034 1679.56,850.477 1683.42,839.812 1686.93,829.045 1690.06,818.181 1692.8,807.225 1695.15,796.184 1697.09,785.065 1698.6,773.872 1699.67,762.614 1700.29,751.297 1700.43,739.929 1700.08,728.516 1699.23,717.068 1697.85,705.591 1695.92,694.096 1693.42,682.59 1690.34,671.084 1686.64,659.586 1682.32,648.107 1677.34,636.658 1671.69,625.248 1665.35,613.891 1658.29,602.596 1650.5,591.377 1641.96,580.244 1632.67,569.212 1622.6,558.293 1611.76,547.499 1600.15,536.844 1587.75,526.341 1574.6,516.003 1560.7,505.843 1546.07,495.874 1530.74,486.108 1514.75,476.556 1498.15,467.231 1480.98,458.142 1463.29,449.299 1445.16,440.712 1426.65,432.387 1407.83,424.332 1388.77,416.551 1369.55,409.05 1350.26,401.832 1330.95,394.897 1311.71,388.247 1292.6,381.882 1273.68,375.799 1255.02,369.997 1236.67,364.472 1218.67,359.219 1201.05,354.235 1183.86,349.512 1167.1,345.046 1150.8,340.831 1134.96,336.858 1119.58,333.124 1104.67,329.619 1090.22,326.339 1076.21,323.276 1062.63,320.425 1049.46,317.779 1036.69,315.333 1024.28,313.081 1012.23,311.019 1000.5,309.141 989.079,307.443 977.94,305.921 967.061,304.572 956.422,303.392 946.004,302.377 935.788,301.526 925.756,300.836 915.894,300.304 906.185,299.929 896.617,299.708 887.178,299.641 877.856,299.725 868.644,299.961 859.531,300.345 850.512,300.878 841.579,301.559 832.728,302.387 823.955,303.361 815.256,304.481 806.629,305.745 798.071,307.154 789.582,308.707 781.16,310.403 772.805,312.242 764.519,314.223 756.3,316.347 748.151,318.611 740.072,321.016 732.066,323.561 724.133,326.245 716.277,329.069 708.499,332.03 700.801,335.129 693.187,338.364 685.659,341.735 678.219,345.241 670.871,348.881 663.617,352.653 656.46,356.558 649.403,360.594 642.449,364.759 635.6,369.054 628.861,373.475 622.234,378.023 615.721,382.695 609.326,387.491 603.052,392.409 596.902,397.447 590.878,402.604 584.983,407.878 579.221,413.268 573.593,418.772 568.103,424.389 562.754,430.115 557.548,435.95 552.488,441.892 547.576,447.939 542.816,454.088 538.208,460.338 533.757,466.686 529.463,473.131 525.331,479.669 521.361,486.3 517.557,493.02 513.919,499.828 510.451,506.72 507.155,513.695 504.032,520.75 501.085,527.883 498.315,535.09 495.724,542.37 493.314,549.719 491.087,557.136 489.044,564.617 487.186,572.159 485.516,579.761 484.034,587.418 482.743,595.129 481.642,602.889 480.734,610.698 480.02,618.55 479.5,626.445 479.176,634.377 479.049,642.345 479.118,650.346 479.386,658.376 479.853,666.432 480.519,674.511 481.385,682.61 482.452,690.726 483.719,698.856 485.187,706.996 486.857,715.143 488.728,723.294 490.8,731.446 493.074,739.595 495.549,747.738 498.225,755.873 501.102,763.994 504.18,772.101 507.457,780.188 510.935,788.252 514.611,796.291 518.485,804.301 522.557,812.279 526.825,820.221 531.289,828.124 535.948,835.985 540.801,843.8 545.846,851.566 551.082,859.28 556.508,866.939 562.122,874.539 567.924,882.076 573.91,889.548 580.081,896.952 586.433,904.283 592.965,911.54 599.676,918.718 606.563,925.815 613.624,932.827 620.857,939.752 628.26,946.585 635.83,953.325 643.565,959.967 651.463,966.509 659.522,972.948 667.738,979.281 676.108,985.505 684.631,991.617 693.304,997.613 702.122,1003.49 711.085,1009.25 720.187,1014.89 729.428,1020.39 738.802,1025.77 748.307,1031.02 757.94,1036.14 767.697,1041.12 777.575,1045.95 787.571,1050.65 797.68,1055.2 807.9,1059.61 818.226,1063.87 828.655,1067.97 839.183,1071.92 849.807,1075.72 860.521,1079.36 871.323,1082.84 882.209,1086.15 893.174,1089.31 904.213,1092.29 915.324,1095.11 926.502,1097.76 937.743,1100.24 949.042,1102.55 960.395,1104.68 971.797,1106.64 983.245,1108.42 994.734,1110.01 1006.26,1111.43 1017.82,1112.67 1029.4,1113.73 1041.01,1114.6 1052.63,1115.28 1064.27,1115.79 1075.92,1116.1 1087.57,1116.23 1099.22,1116.16 1110.87,1115.91 1122.5,1115.47 1134.12,1114.84 1145.72,1114.02 1157.3,1113 1168.85,1111.8 1180.36,1110.4 1191.84,1108.81 1203.27,1107.03 1214.65,1105.06 1225.98,1102.89 1237.25,1100.53 1248.46,1097.98 1259.6,1095.24 1270.66,1092.31 1281.65,1089.19 1292.56,1085.88 1303.38,1082.38 1314.1,1078.69 1324.73,1074.81 1335.26,1070.74 1345.68,1066.49 1355.99,1062.06 1366.18,1057.43 1376.25,1052.63 1386.19,1047.65 1396.01,1042.48 1405.68,1037.14 1415.22,1031.62 1424.61,1025.92 1433.85,1020.05 1442.94,1014.01 1451.87,1007.79 1460.63,1001.41 1469.23,994.864 1477.65,988.152 1485.89,981.278 1493.95,974.244 1501.82,967.053 1509.5,959.707 1516.98,952.209 1524.26,944.56 1531.33,936.765 1538.2,928.826 1544.84,920.745 1551.27,912.526 1557.47,904.171 1563.44,895.685 1569.18,887.069 1574.67,878.328 1579.92,869.464 1584.92,860.482 1589.67,851.385 1594.15,842.177 1598.37,832.861 1602.32,823.441 1605.99,813.922 1609.39,804.308 1612.49,794.602 1615.3,784.81 1617.82,774.935 1620.03,764.982 1621.92,754.956 1623.51,744.861 1624.77,734.703 1625.7,724.486 1626.29,714.217 1626.54,703.899 1626.44,693.538 1625.99,683.141 1625.17,672.712 1623.99,662.257 1622.42,651.783 1620.48,641.295 1618.14,630.8 1615.41,620.305 1612.27,609.814 1608.72,599.336 1604.75,588.877 1600.37,578.443 1595.56,568.042 1590.32,557.681 1584.64,547.367 1578.53,537.108 1571.98,526.909 1564.99,516.78 1557.57,506.727 1549.7,496.758 1541.41,486.879 1532.69,477.099 1523.55,467.425 1514,457.863 1504.05,448.422 1493.71,439.107 1482.99,429.925 1471.92,420.883 1460.5,411.988 1448.77,403.244 1436.73,394.658 1424.42,386.235 1411.85,377.981 1399.05,369.899 1386.05,361.993 1372.87,354.269 1359.54,346.728 1346.08,339.374 1332.52,332.21 1318.89,325.238 1305.2,318.46 1291.49,311.876 1277.76,305.489 1264.05,299.298 1250.37,293.305 1236.74,287.509 1223.17,281.911 1209.68,276.509 1196.27,271.304 1182.95,266.295 1169.74,261.481 1156.63,256.861 1143.64,252.434 1130.75,248.2 1117.98,244.156 1105.32,240.302 1092.77,236.638 1080.32,233.161 1067.99,229.871 1055.75,226.768 1043.6,223.849 1031.55,221.116 1019.58,218.566 1007.69,216.199 995.877,214.015 984.134,212.013 972.457,210.193 960.84,208.555 949.279,207.098 937.772,205.822 926.315,204.727 914.904,203.813 903.537,203.081 892.213,202.529 880.929,202.158 869.685,201.969 858.48,201.961 847.315,202.134 836.188,202.489 825.101,203.025 814.055,203.743 803.051,204.642 792.091,205.724 781.177,206.986 770.311,208.431 759.496,210.057 748.735,211.865 738.03,213.854 727.385,216.024 716.803,218.374 706.287,220.906 695.841,223.617 685.469,226.508 675.175,229.579 664.962,232.827 654.834,236.254 644.796,239.858 634.851,243.639 625.003,247.595 615.257,251.726 605.616,256.031 596.086,260.508 586.669,265.157 577.369,269.976 568.192,274.965 559.141,280.121 550.221,285.444 541.434,290.931 532.785,296.582 524.279,302.395 515.918,308.368 507.708,314.499 499.652,320.786 491.753,327.228 484.015,333.823 476.443,340.569 469.039,347.462 461.808,354.502 454.753,361.687 447.878,369.012 441.185,376.478 434.679,384.08 428.363,391.817 422.239,399.685 416.312,407.683 410.585,415.807 405.06,424.055 399.74,432.425 394.629,440.912 389.729,449.514 385.044,458.229 380.575,467.053 376.326,475.983 372.298,485.015 368.496,494.148 364.92,503.377 361.574,512.699 358.459,522.111 355.579,531.609 352.934,541.19 350.527,550.85 348.359,560.586 346.433,570.395 344.751,580.272 343.314,590.214 342.123,600.217 341.18,610.277 340.486,620.391 340.043,630.555 339.852,640.765 339.914,651.016 340.23,661.306 340.8,671.629 341.626,681.983 342.708,692.363 344.047,702.765 345.643,713.184 347.497,723.618 349.609,734.061 351.979,744.51 354.608,754.96 357.494,765.407 360.639,775.847 364.041,786.276 367.701,796.689 371.618,807.083 375.792,817.453 380.222,827.794 384.906,838.103 389.845,848.376 395.037,858.607 400.482,868.794 406.177,878.93 412.123,889.013 418.316,899.038 424.757,909.001 431.443,918.897 438.372,928.722 445.543,938.473 452.954,948.144 460.603,957.732 468.488,967.233 476.606,976.641 484.956,985.954 493.534,995.167 502.338,1004.28 511.366,1013.28 520.615,1022.17 530.082,1030.94 539.764,1039.59 549.658,1048.12 559.761,1056.52 570.07,1064.79 580.581,1072.92 591.292,1080.92 602.197,1088.77 613.295,1096.47 624.581,1104.02 636.051,1111.42 647.702,1118.66 659.53,1125.74 671.53,1132.66 683.698,1139.4 696.031,1145.98 708.524,1152.38 721.172,1158.6 733.971,1164.64 746.917,1170.49 760.005,1176.16 773.229,1181.64 786.587,1186.92 800.072,1192.01 813.679,1196.9 827.404,1201.58 841.242,1206.06 855.188,1210.34 869.236,1214.4 883.38,1218.25 897.617,1221.89 911.94,1225.31 926.344,1228.51 940.823,1231.49 955.373,1234.25 969.986,1236.78 984.659,1239.08 999.384,1241.15 1014.16,1243 1028.97,1244.61 1043.82,1245.98 1058.7,1247.13 1073.6,1248.03 1088.53,1248.7 1103.46,1249.12 1118.4,1249.31 1133.34,1249.25 1148.27,1248.95 1163.19,1248.41 1178.09,1247.63 1192.97,1246.6 1207.82,1245.32 1222.63,1243.8 1237.39,1242.04 1252.11,1240.02 1266.77,1237.77 1281.37,1235.26 1295.9,1232.51 1310.36,1229.51 1324.73,1226.27 1339.02,1222.78 1353.22,1219.04 1367.31,1215.07 1381.3,1210.85 1395.17,1206.38 1408.93,1201.67 1422.56,1196.73 1436.06,1191.54 1449.42,1186.11 1462.63,1180.45 1475.7,1174.55 1488.6,1168.42 1501.34,1162.05 1513.91,1155.46 1526.3,1148.63 1538.51,1141.58 1550.52,1134.3 1562.34,1126.8 1573.95,1119.09 1585.35,1111.15 1596.53,1103 1607.49,1094.63 1618.21,1086.06 1628.69,1077.28 1638.91,1068.3 1648.89,1059.12 1658.59,1049.74 1668.02,1040.17 1677.17,1030.41 1686.02,1020.46 1694.57,1010.34 1702.81,1000.03 1710.72,989.557 1718.3,978.915 1725.52,968.109 1732.39,957.146 1738.88,946.031 1744.97,934.769 1750.66,923.366 1755.91,911.829 1760.73,900.164 1765.07,888.378 1768.92,876.478 1772.25,864.473 1775.03,852.369 1777.24,840.177 1778.83,827.905 1779.78,815.563 1780.05,803.161 1779.59,790.712 1778.35,778.226 1776.29,765.717 1773.36,753.198 1769.5,740.684 1764.65,728.19 1758.76,715.733 1751.75,703.331 1743.58,691.002 1734.18,678.766 1723.49,666.644 1711.46,654.657 1698.04,642.829 1683.19,631.182 1666.89,619.742 1649.12,608.531 1629.89,597.576 1609.22,586.9 1587.16,576.528 1563.78,566.483 1539.18,556.787 1513.47,547.461 1486.79,538.522 1459.32,529.986 1431.23,521.867 1402.72,514.174 1373.99,506.915 1345.25,500.093 1316.69,493.709 1288.52,487.759 1260.91,482.238 1234.02,477.137 1207.99,472.445 1182.93,468.148 1158.92,464.233 1136.04,460.681 1114.31,457.478 1093.77,454.604 1074.4,452.042 1056.18,449.775 1039.08,447.785 1023.06,446.055 1008.06,444.57 994.032,443.315 980.901,442.274 968.606,441.435 957.085,440.786 946.272,440.316 936.108,440.013 926.533,439.87 917.493,439.876 908.935,440.026 900.813,440.311 893.083,440.725 885.706,441.264 878.645,441.922 871.867,442.695 865.345,443.578 859.053,444.57 852.967,445.665 847.068,446.862 841.337,448.158 835.761,449.551 830.325,451.038 825.017,452.619 819.829,454.291 814.752,456.054 809.778,457.904 804.902,459.842 800.119,461.866 795.425,463.975 790.816,466.168 786.291,468.444 781.846,470.801 777.481,473.24 773.195,475.758 768.988,478.355 764.858,481.031 760.806,483.783 756.832,486.612 752.937,489.515 749.122,492.493 745.386,495.544 741.732,498.667 738.16,501.861 734.672,505.126 731.268,508.459 727.949,511.86 724.718,515.328 721.575,518.861 718.522,522.459 715.56,526.12 712.69,529.843 709.914,533.627 707.233,537.47 704.649,541.371 702.162,545.329 699.774,549.342 697.487,553.41 695.301,557.53 693.218,561.701 691.239,565.921 689.366,570.19 687.598,574.506 685.938,578.866 684.387,583.27 682.945,587.716 681.614,592.203 680.394,596.728 679.286,601.29 678.292,605.887 677.412,610.518 676.647,615.181 675.998,619.874 675.465,624.595 675.049,629.343 674.751,634.116 674.571,638.912 674.51,643.729 674.568,648.565 674.746,653.419 675.044,658.289 675.463,663.172 676.003,668.067 676.664,672.972 677.446,677.884 678.349,682.803 679.374,687.726 680.521,692.651 681.79,697.576 683.18,702.5 684.692,707.419 686.325,712.333 688.08,717.239 689.956,722.135 691.952,727.02 694.069,731.89 696.307,736.745 698.663,741.582 701.14,746.399 703.734,751.195 706.447,755.967 709.278,760.712 712.225,765.43 715.289,770.119 718.468,774.775 721.761,779.398 725.168,783.984 728.688,788.533 732.32,793.042 736.062,797.51 739.914,801.934 743.875,806.312 747.943,810.643 752.118,814.924 756.397,819.153 760.78,823.33 765.266,827.451 769.853,831.516 774.539,835.521 779.323,839.466 784.203,843.348 789.179,847.165 794.248,850.917 799.408,854.601 804.658,858.215 809.997,861.757 815.422,865.227 820.931,868.622 826.524,871.94 832.197,875.18 837.948,878.341 843.777,881.421 849.68,884.417 855.656,887.33 861.703,890.156 867.817,892.895 873.999,895.546 880.244,898.106 886.551,900.575 892.917,902.951 899.341,905.233 905.819,907.42 912.35,909.509 918.93,911.501 925.559,913.394 932.232,915.186 938.948,916.877 945.704,918.466 952.497,919.951 959.325,921.331 966.185,922.606 973.075,923.775 979.992,924.836 986.933,925.789 993.896,926.634 1000.88,927.369 1007.88,927.993 1014.89,928.506 1021.91,928.907 1028.94,929.197 1035.97,929.373 1043.01,929.436 1050.04,929.385 1057.08,929.219 1064.1,928.94 1071.12,928.545 1078.12,928.034 1085.11,927.409 1092.09,926.667 1099.04,925.81 1105.96,924.837 1112.87,923.747 1119.74,922.542 1126.58,921.221 1133.38,919.784 1140.15,918.23 1146.87,916.562 1153.55,914.778 1160.18,912.879 1166.77,910.865 1173.3,908.736 1179.78,906.494 1186.19,904.138 1192.55,901.669 1198.84,899.088 1205.07,896.395 1211.22,893.59 1217.31,890.675 1223.32,887.651 1229.25,884.517 1235.1,881.275 1240.86,877.927 1246.54,874.471 1252.14,870.911 1257.64,867.247 1263.04,863.479 1268.35,859.609 1273.56,855.639 1278.67,851.569 1283.67,847.4 1288.57,843.135 1293.36,838.774 1298.04,834.319 1302.6,829.771 1307.05,825.132 1311.37,820.403 1315.58,815.585 1319.66,810.682 1323.62,805.693 1327.45,800.621 1331.15,795.468 1334.72,790.236 1338.16,784.925 1341.46,779.539 1344.62,774.078 1347.64,768.546 1350.52,762.944 1353.26,757.273 1355.85,751.537 1358.3,745.736 1360.6,739.874 1362.75,733.953 1364.74,727.974 1366.59,721.94 1368.28,715.853 1369.82,709.716 1371.19,703.53 1372.41,697.298 1373.48,691.023 1374.38,684.707 1375.12,678.353 1375.69,671.962 1376.11,665.537 1376.36,659.082 1376.45,652.597 1376.37,646.087 1376.13,639.553 1375.72,632.998 1375.14,626.425 1374.4,619.837 1373.49,613.235 1372.41,606.623 1371.16,600.003 1369.75,593.379 1368.17,586.752 1366.42,580.125 1364.5,573.502 1362.42,566.885 1360.17,560.276 1357.75,553.679 1355.17,547.095 1352.43,540.529 1349.52,533.982 1346.44,527.457 1343.21,520.957 1339.81,514.485 1336.25,508.043 1332.53,501.635 1328.66,495.263 1324.62,488.929 1320.43,482.636 1316.09,476.387 1311.59,470.185 1306.95,464.033 1302.15,457.932 1297.2,451.886 1292.11,445.897 1286.87,439.967 1281.49,434.1 1275.97,428.298 1270.31,422.564 1264.52,416.899 1258.59,411.306 1252.52,405.789 1246.33,400.348 1240.01,394.988 1233.56,389.709 1226.99,384.515 1220.29,379.408 1213.48,374.389 1206.55,369.462 1199.5,364.629 1192.35,359.891 1185.08,355.251 1177.71,350.712 1170.23,346.274 1162.65,341.941 1154.98,337.714 1147.2,333.596 1139.33,329.587 1131.38,325.692 1123.33,321.91 1115.19,318.244 1106.98,314.697 1098.68,311.268 1090.31,307.962 1081.86,304.778 1073.34,301.72 1064.75,298.787 1056.1,295.983 1047.38,293.309 1038.6,290.765 1029.77,288.355 1020.88,286.078 1011.95,283.936 1002.96,281.932 993.935,280.065 984.867,278.338 975.761,276.751 966.621,275.305 957.451,274.002 948.253,272.843 939.031,271.829 929.788,270.961 920.529,270.238 911.256,269.664 901.972,269.237 892.682,268.959 883.39,268.831 874.097,268.853 864.809,269.026 855.529,269.35 846.26,269.826 837.006,270.454 827.771,271.234 818.558,272.167 809.372,273.253 800.215,274.492 791.092,275.885 782.007,277.43 772.962,279.129 763.962,280.981 755.011,282.985 746.112,285.143 737.269,287.453 728.485,289.915 719.765,292.529 711.112,295.295 702.53,298.211 694.023,301.277 685.594,304.494 677.246,307.859 668.984,311.372 660.811,315.032 652.731,318.839 644.748,322.792 636.864,326.889 629.084,331.129 621.41,335.512 613.847,340.036 606.398,344.7 599.067,349.502 591.856,354.441 584.769,359.516 577.809,364.726 570.98,370.068 564.285,375.541 557.728,381.144 551.31,386.874 545.036,392.73 538.909,398.71 532.931,404.812 527.105,411.035 521.436,417.375 515.924,423.832 510.574,430.403 505.387,437.085 500.367,443.877 495.517,450.776 490.839,457.78 486.335,464.887 482.008,472.094 477.861,479.398 473.895,486.797 470.114,494.289 466.519,501.871 463.113,509.54 459.897,517.293 456.874,525.128 454.046,533.042 451.415,541.032 448.982,549.094 446.749,557.227 444.718,565.428 442.891,573.692 441.268,582.017 439.853,590.401 438.645,598.839 437.646,607.329 436.858,615.868 436.282,624.452 435.918,633.078 435.768,641.742 435.833,650.442 436.113,659.174 436.609,667.935 437.322,676.721 438.253,685.529 439.402,694.356 440.768,703.197 442.354,712.05 444.158,720.911 446.182,729.777 448.424,738.643 450.886,747.507 453.566,756.364 456.466,765.212 459.583,774.047 462.919,782.864 466.473,791.661 470.243,800.434 474.23,809.18 478.433,817.893 482.851,826.572 487.482,835.213 492.326,843.811 497.383,852.363 502.65,860.866 "/>
</svg>
