<?xml version="1.0" encoding="utf-8"?>
<svg xmlns="http://www.w3.org/2000/svg" xmlns:xlink="http://www.w3.org/1999/xlink" width="420" height="360" viewBox="0 0 1680 1440">
<defs>
  <clipPath id="clip150">
    <rect x="0" y="0" width="1680" height="1440"/>
  </clipPath>
</defs>
<path clip-path="url(#clip150)" d="M0 1440 L1680 1440 L1680 0 L0 0  Z" fill="#ffffff" fill-rule="evenodd" fill-opacity="1"/>
<defs>
  <clipPath id="clip151">
    <rect x="336" y="0" width="1177" height="1177"/>
  </clipPath>
</defs>
<defs>
  <clipPath id="clip152">
    <rect x="134" y="140" width="1499" height="1178"/>
  </clipPath>
</defs>
<path clip-path="url(#clip152)" d="M827.532 780.695 L827.532 758.865 L844.744 747.951 L874.556 754.252 L874.556 776.082 L857.344 786.997 L827.532 780.695  Z" fill="#ffffff" fill-rule="evenodd" fill-opacity="1"/>
<polyline clip-path="url(#clip152)" style="stroke:#000000; stroke-linecap:round; stroke-linejoin:round; stroke-width:2; stroke-opacity:0.1; fill:none" points="551.865,1124.26 891.757,829.906 891.757,241.195 "/>
<polyline clip-path="url(#clip152)" style="stroke:#000000; stroke-linecap:round; stroke-linejoin:round; stroke-width:2; stroke-opacity:0.1; fill:none" points="700.924,1167.29 1040.82,872.936 1040.82,284.225 "/>
<polyline clip-path="url(#clip152)" style="stroke:#000000; stroke-linecap:round; stroke-linejoin:round; stroke-width:2; stroke-opacity:0.1; fill:none" points="849.983,1210.32 1189.88,915.965 1189.88,327.254 "/>
<polyline clip-path="url(#clip152)" style="stroke:#000000; stroke-linecap:round; stroke-linejoin:round; stroke-width:2; stroke-opacity:0.1; fill:none" points="999.042,1253.35 1338.93,958.995 1338.93,370.284 "/>
<polyline clip-path="url(#clip152)" style="stroke:#000000; stroke-linecap:round; stroke-linejoin:round; stroke-width:2; stroke-opacity:0.1; fill:none" points="1041.05,1227.44 452.342,1057.5 452.342,468.786 "/>
<polyline clip-path="url(#clip152)" style="stroke:#000000; stroke-linecap:round; stroke-linejoin:round; stroke-width:2; stroke-opacity:0.1; fill:none" points="1104.07,1172.87 515.359,1002.92 515.359,414.212 "/>
<polyline clip-path="url(#clip152)" style="stroke:#000000; stroke-linecap:round; stroke-linejoin:round; stroke-width:2; stroke-opacity:0.1; fill:none" points="1167.09,1118.29 578.376,948.348 578.376,359.637 "/>
<polyline clip-path="url(#clip152)" style="stroke:#000000; stroke-linecap:round; stroke-linejoin:round; stroke-width:2; stroke-opacity:0.1; fill:none" points="1230.1,1063.72 641.393,893.773 641.393,305.063 "/>
<polyline clip-path="url(#clip152)" style="stroke:#000000; stroke-linecap:round; stroke-linejoin:round; stroke-width:2; stroke-opacity:0.1; fill:none" points="1293.12,1009.14 704.411,839.199 704.411,250.488 "/>
<polyline clip-path="url(#clip152)" style="stroke:#000000; stroke-linecap:round; stroke-linejoin:round; stroke-width:2; stroke-opacity:0.1; fill:none" points="419.403,1080.76 759.295,786.402 1348.01,956.348 "/>
<polyline clip-path="url(#clip152)" style="stroke:#000000; stroke-linecap:round; stroke-linejoin:round; stroke-width:2; stroke-opacity:0.1; fill:none" points="419.403,962.261 759.295,667.906 1348.01,837.852 "/>
<polyline clip-path="url(#clip152)" style="stroke:#000000; stroke-linecap:round; stroke-linejoin:round; stroke-width:2; stroke-opacity:0.1; fill:none" points="419.403,843.765 759.295,549.41 1348.01,719.356 "/>
<polyline clip-path="url(#clip152)" style="stroke:#000000; stroke-linecap:round; stroke-linejoin:round; stroke-width:2; stroke-opacity:0.1; fill:none" points="419.403,725.269 759.295,430.913 1348.01,600.859 "/>
<polyline clip-path="url(#clip152)" style="stroke:#000000; stroke-linecap:round; stroke-linejoin:round; stroke-width:2; stroke-opacity:0.1; fill:none" points="419.403,606.772 759.295,312.417 1348.01,482.363 "/>
<polyline clip-path="url(#clip150)" style="stroke:#000000; stroke-linecap:round; stroke-linejoin:round; stroke-width:4; stroke-opacity:1; fill:none" points="419.403,1086.02 1008.11,1255.97 "/>
<polyline clip-path="url(#clip150)" style="stroke:#000000; stroke-linecap:round; stroke-linejoin:round; stroke-width:4; stroke-opacity:1; fill:none" points="551.865,1124.26 555.943,1120.73 "/>
<polyline clip-path="url(#clip150)" style="stroke:#000000; stroke-linecap:round; stroke-linejoin:round; stroke-width:4; stroke-opacity:1; fill:none" points="700.924,1167.29 705.003,1163.76 "/>
<polyline clip-path="url(#clip150)" style="stroke:#000000; stroke-linecap:round; stroke-linejoin:round; stroke-width:4; stroke-opacity:1; fill:none" points="849.983,1210.32 854.062,1206.79 "/>
<polyline clip-path="url(#clip150)" style="stroke:#000000; stroke-linecap:round; stroke-linejoin:round; stroke-width:4; stroke-opacity:1; fill:none" points="999.042,1253.35 1003.12,1249.82 "/>
<path clip-path="url(#clip150)" d="M455.821 1144.44 L485.497 1144.44 L485.497 1148.37 L455.821 1148.37 L455.821 1144.44 Z" fill="#000000" fill-rule="nonzero" fill-opacity="1" /><path clip-path="url(#clip150)" d="M496.399 1157.33 L504.038 1157.33 L504.038 1130.96 L495.728 1132.63 L495.728 1128.37 L503.992 1126.71 L508.668 1126.71 L508.668 1157.33 L516.307 1157.33 L516.307 1161.27 L496.399 1161.27 L496.399 1157.33 Z" fill="#000000" fill-rule="nonzero" fill-opacity="1" /><path clip-path="url(#clip150)" d="M535.751 1129.78 Q532.14 1129.78 530.311 1133.35 Q528.506 1136.89 528.506 1144.02 Q528.506 1151.13 530.311 1154.69 Q532.14 1158.23 535.751 1158.23 Q539.385 1158.23 541.191 1154.69 Q543.019 1151.13 543.019 1144.02 Q543.019 1136.89 541.191 1133.35 Q539.385 1129.78 535.751 1129.78 M535.751 1126.08 Q541.561 1126.08 544.617 1130.69 Q547.695 1135.27 547.695 1144.02 Q547.695 1152.75 544.617 1157.35 Q541.561 1161.94 535.751 1161.94 Q529.941 1161.94 526.862 1157.35 Q523.807 1152.75 523.807 1144.02 Q523.807 1135.27 526.862 1130.69 Q529.941 1126.08 535.751 1126.08 Z" fill="#000000" fill-rule="nonzero" fill-opacity="1" /><path clip-path="url(#clip150)" d="M684.81 1172.81 Q681.199 1172.81 679.37 1176.38 Q677.565 1179.92 677.565 1187.05 Q677.565 1194.16 679.37 1197.72 Q681.199 1201.26 684.81 1201.26 Q688.444 1201.26 690.25 1197.72 Q692.079 1194.16 692.079 1187.05 Q692.079 1179.92 690.25 1176.38 Q688.444 1172.81 684.81 1172.81 M684.81 1169.11 Q690.62 1169.11 693.676 1173.72 Q696.754 1178.3 696.754 1187.05 Q696.754 1195.78 693.676 1200.38 Q690.62 1204.97 684.81 1204.97 Q679 1204.97 675.921 1200.38 Q672.866 1195.78 672.866 1187.05 Q672.866 1178.3 675.921 1173.72 Q679 1169.11 684.81 1169.11 Z" fill="#000000" fill-rule="nonzero" fill-opacity="1" /><path clip-path="url(#clip150)" d="M794.518 1243.39 L802.156 1243.39 L802.156 1217.02 L793.846 1218.69 L793.846 1214.43 L802.11 1212.76 L806.786 1212.76 L806.786 1243.39 L814.425 1243.39 L814.425 1247.32 L794.518 1247.32 L794.518 1243.39 Z" fill="#000000" fill-rule="nonzero" fill-opacity="1" /><path clip-path="url(#clip150)" d="M833.869 1215.84 Q830.258 1215.84 828.429 1219.41 Q826.624 1222.95 826.624 1230.08 Q826.624 1237.19 828.429 1240.75 Q830.258 1244.29 833.869 1244.29 Q837.503 1244.29 839.309 1240.75 Q841.138 1237.19 841.138 1230.08 Q841.138 1222.95 839.309 1219.41 Q837.503 1215.84 833.869 1215.84 M833.869 1212.14 Q839.679 1212.14 842.735 1216.75 Q845.814 1221.33 845.814 1230.08 Q845.814 1238.81 842.735 1243.41 Q839.679 1248 833.869 1248 Q828.059 1248 824.98 1243.41 Q821.925 1238.81 821.925 1230.08 Q821.925 1221.33 824.98 1216.75 Q828.059 1212.14 833.869 1212.14 Z" fill="#000000" fill-rule="nonzero" fill-opacity="1" /><path clip-path="url(#clip150)" d="M946.794 1286.42 L963.114 1286.42 L963.114 1290.35 L941.169 1290.35 L941.169 1286.42 Q943.831 1283.66 948.415 1279.04 Q953.021 1274.38 954.202 1273.04 Q956.447 1270.52 957.327 1268.78 Q958.229 1267.02 958.229 1265.33 Q958.229 1262.58 956.285 1260.84 Q954.364 1259.1 951.262 1259.1 Q949.063 1259.1 946.609 1259.87 Q944.179 1260.63 941.401 1262.18 L941.401 1257.46 Q944.225 1256.33 946.679 1255.75 Q949.132 1255.17 951.169 1255.17 Q956.54 1255.17 959.734 1257.85 Q962.928 1260.54 962.928 1265.03 Q962.928 1267.16 962.118 1269.08 Q961.331 1270.98 959.225 1273.57 Q958.646 1274.24 955.544 1277.46 Q952.442 1280.66 946.794 1286.42 Z" fill="#000000" fill-rule="nonzero" fill-opacity="1" /><path clip-path="url(#clip150)" d="M982.928 1258.87 Q979.317 1258.87 977.489 1262.44 Q975.683 1265.98 975.683 1273.11 Q975.683 1280.22 977.489 1283.78 Q979.317 1287.32 982.928 1287.32 Q986.563 1287.32 988.368 1283.78 Q990.197 1280.22 990.197 1273.11 Q990.197 1265.98 988.368 1262.44 Q986.563 1258.87 982.928 1258.87 M982.928 1255.17 Q988.739 1255.17 991.794 1259.78 Q994.873 1264.36 994.873 1273.11 Q994.873 1281.84 991.794 1286.44 Q988.739 1291.03 982.928 1291.03 Q977.118 1291.03 974.04 1286.44 Q970.984 1281.84 970.984 1273.11 Q970.984 1264.36 974.04 1259.78 Q977.118 1255.17 982.928 1255.17 Z" fill="#000000" fill-rule="nonzero" fill-opacity="1" /><polyline clip-path="url(#clip150)" style="stroke:#000000; stroke-linecap:round; stroke-linejoin:round; stroke-width:4; stroke-opacity:1; fill:none" points="1008.11,1255.97 1348.01,961.614 "/>
<polyline clip-path="url(#clip150)" style="stroke:#000000; stroke-linecap:round; stroke-linejoin:round; stroke-width:4; stroke-opacity:1; fill:none" points="1041.05,1227.44 1033.99,1225.4 "/>
<polyline clip-path="url(#clip150)" style="stroke:#000000; stroke-linecap:round; stroke-linejoin:round; stroke-width:4; stroke-opacity:1; fill:none" points="1104.07,1172.87 1097.01,1170.83 "/>
<polyline clip-path="url(#clip150)" style="stroke:#000000; stroke-linecap:round; stroke-linejoin:round; stroke-width:4; stroke-opacity:1; fill:none" points="1167.09,1118.29 1160.02,1116.25 "/>
<polyline clip-path="url(#clip150)" style="stroke:#000000; stroke-linecap:round; stroke-linejoin:round; stroke-width:4; stroke-opacity:1; fill:none" points="1230.1,1063.72 1223.04,1061.68 "/>
<polyline clip-path="url(#clip150)" style="stroke:#000000; stroke-linecap:round; stroke-linejoin:round; stroke-width:4; stroke-opacity:1; fill:none" points="1293.12,1009.14 1286.06,1007.11 "/>
<path clip-path="url(#clip150)" d="M1051.85 1244.92 L1081.52 1244.92 L1081.52 1248.85 L1051.85 1248.85 L1051.85 1244.92 Z" fill="#000000" fill-rule="nonzero" fill-opacity="1" /><path clip-path="url(#clip150)" d="M1095.65 1257.81 L1111.96 1257.81 L1111.96 1261.75 L1090.02 1261.75 L1090.02 1257.81 Q1092.68 1255.06 1097.27 1250.43 Q1101.87 1245.78 1103.05 1244.43 Q1105.3 1241.91 1106.18 1240.17 Q1107.08 1238.42 1107.08 1236.73 Q1107.08 1233.97 1105.14 1232.23 Q1103.21 1230.5 1100.11 1230.5 Q1097.91 1230.5 1095.46 1231.26 Q1093.03 1232.03 1090.25 1233.58 L1090.25 1228.85 Q1093.08 1227.72 1095.53 1227.14 Q1097.98 1226.56 1100.02 1226.56 Q1105.39 1226.56 1108.58 1229.25 Q1111.78 1231.93 1111.78 1236.42 Q1111.78 1238.55 1110.97 1240.48 Q1110.18 1242.37 1108.08 1244.97 Q1107.5 1245.64 1104.4 1248.85 Q1101.29 1252.05 1095.65 1257.81 Z" fill="#000000" fill-rule="nonzero" fill-opacity="1" /><path clip-path="url(#clip150)" d="M1131.78 1230.27 Q1128.17 1230.27 1126.34 1233.83 Q1124.53 1237.37 1124.53 1244.5 Q1124.53 1251.61 1126.34 1255.17 Q1128.17 1258.72 1131.78 1258.72 Q1135.41 1258.72 1137.22 1255.17 Q1139.05 1251.61 1139.05 1244.5 Q1139.05 1237.37 1137.22 1233.83 Q1135.41 1230.27 1131.78 1230.27 M1131.78 1226.56 Q1137.59 1226.56 1140.64 1231.17 Q1143.72 1235.75 1143.72 1244.5 Q1143.72 1253.23 1140.64 1257.84 Q1137.59 1262.42 1131.78 1262.42 Q1125.97 1262.42 1122.89 1257.84 Q1119.83 1253.23 1119.83 1244.5 Q1119.83 1235.75 1122.89 1231.17 Q1125.97 1226.56 1131.78 1226.56 Z" fill="#000000" fill-rule="nonzero" fill-opacity="1" /><path clip-path="url(#clip150)" d="M1114.87 1190.35 L1144.54 1190.35 L1144.54 1194.28 L1114.87 1194.28 L1114.87 1190.35 Z" fill="#000000" fill-rule="nonzero" fill-opacity="1" /><path clip-path="url(#clip150)" d="M1155.44 1203.24 L1163.08 1203.24 L1163.08 1176.87 L1154.77 1178.54 L1154.77 1174.28 L1163.04 1172.61 L1167.71 1172.61 L1167.71 1203.24 L1175.35 1203.24 L1175.35 1207.17 L1155.44 1207.17 L1155.44 1203.24 Z" fill="#000000" fill-rule="nonzero" fill-opacity="1" /><path clip-path="url(#clip150)" d="M1194.8 1175.69 Q1191.19 1175.69 1189.36 1179.26 Q1187.55 1182.8 1187.55 1189.93 Q1187.55 1197.03 1189.36 1200.6 Q1191.19 1204.14 1194.8 1204.14 Q1198.43 1204.14 1200.24 1200.6 Q1202.06 1197.03 1202.06 1189.93 Q1202.06 1182.8 1200.24 1179.26 Q1198.43 1175.69 1194.8 1175.69 M1194.8 1171.99 Q1200.61 1171.99 1203.66 1176.6 Q1206.74 1181.18 1206.74 1189.93 Q1206.74 1198.66 1203.66 1203.26 Q1200.61 1207.85 1194.8 1207.85 Q1188.99 1207.85 1185.91 1203.26 Q1182.85 1198.66 1182.85 1189.93 Q1182.85 1181.18 1185.91 1176.6 Q1188.99 1171.99 1194.8 1171.99 Z" fill="#000000" fill-rule="nonzero" fill-opacity="1" /><path clip-path="url(#clip150)" d="M1189.83 1121.12 Q1186.22 1121.12 1184.39 1124.68 Q1182.58 1128.22 1182.58 1135.35 Q1182.58 1142.46 1184.39 1146.03 Q1186.22 1149.57 1189.83 1149.57 Q1193.46 1149.57 1195.27 1146.03 Q1197.1 1142.46 1197.1 1135.35 Q1197.1 1128.22 1195.27 1124.68 Q1193.46 1121.12 1189.83 1121.12 M1189.83 1117.41 Q1195.64 1117.41 1198.69 1122.02 Q1201.77 1126.6 1201.77 1135.35 Q1201.77 1144.08 1198.69 1148.69 Q1195.64 1153.27 1189.83 1153.27 Q1184.02 1153.27 1180.94 1148.69 Q1177.88 1144.08 1177.88 1135.35 Q1177.88 1126.6 1180.94 1122.02 Q1184.02 1117.41 1189.83 1117.41 Z" fill="#000000" fill-rule="nonzero" fill-opacity="1" /><path clip-path="url(#clip150)" d="M1241.57 1094.09 L1249.21 1094.09 L1249.21 1067.72 L1240.9 1069.39 L1240.9 1065.13 L1249.16 1063.46 L1253.84 1063.46 L1253.84 1094.09 L1261.48 1094.09 L1261.48 1098.02 L1241.57 1098.02 L1241.57 1094.09 Z" fill="#000000" fill-rule="nonzero" fill-opacity="1" /><path clip-path="url(#clip150)" d="M1280.92 1066.54 Q1277.31 1066.54 1275.48 1070.11 Q1273.68 1073.65 1273.68 1080.78 Q1273.68 1087.89 1275.48 1091.45 Q1277.31 1094.99 1280.92 1094.99 Q1284.56 1094.99 1286.36 1091.45 Q1288.19 1087.89 1288.19 1080.78 Q1288.19 1073.65 1286.36 1070.11 Q1284.56 1066.54 1280.92 1066.54 M1280.92 1062.84 Q1286.73 1062.84 1289.79 1067.45 Q1292.87 1072.03 1292.87 1080.78 Q1292.87 1089.51 1289.79 1094.11 Q1286.73 1098.7 1280.92 1098.7 Q1275.11 1098.7 1272.03 1094.11 Q1268.98 1089.51 1268.98 1080.78 Q1268.98 1072.03 1272.03 1067.45 Q1275.11 1062.84 1280.92 1062.84 Z" fill="#000000" fill-rule="nonzero" fill-opacity="1" /><path clip-path="url(#clip150)" d="M1309.54 1039.52 L1325.86 1039.52 L1325.86 1043.45 L1303.92 1043.45 L1303.92 1039.52 Q1306.58 1036.76 1311.16 1032.13 Q1315.77 1027.48 1316.95 1026.14 Q1319.2 1023.61 1320.08 1021.88 Q1320.98 1020.12 1320.98 1018.43 Q1320.98 1015.67 1319.03 1013.94 Q1317.11 1012.2 1314.01 1012.2 Q1311.81 1012.2 1309.36 1012.96 Q1306.93 1013.73 1304.15 1015.28 L1304.15 1010.56 Q1306.97 1009.42 1309.43 1008.84 Q1311.88 1008.27 1313.92 1008.27 Q1319.29 1008.27 1322.48 1010.95 Q1325.68 1013.64 1325.68 1018.13 Q1325.68 1020.26 1324.87 1022.18 Q1324.08 1024.08 1321.97 1026.67 Q1321.39 1027.34 1318.29 1030.56 Q1315.19 1033.75 1309.54 1039.52 Z" fill="#000000" fill-rule="nonzero" fill-opacity="1" /><path clip-path="url(#clip150)" d="M1345.68 1011.97 Q1342.07 1011.97 1340.24 1015.53 Q1338.43 1019.08 1338.43 1026.2 Q1338.43 1033.31 1340.24 1036.88 Q1342.07 1040.42 1345.68 1040.42 Q1349.31 1040.42 1351.12 1036.88 Q1352.95 1033.31 1352.95 1026.2 Q1352.95 1019.08 1351.12 1015.53 Q1349.31 1011.97 1345.68 1011.97 M1345.68 1008.27 Q1351.49 1008.27 1354.54 1012.87 Q1357.62 1017.46 1357.62 1026.2 Q1357.62 1034.93 1354.54 1039.54 Q1351.49 1044.12 1345.68 1044.12 Q1339.87 1044.12 1336.79 1039.54 Q1333.73 1034.93 1333.73 1026.2 Q1333.73 1017.46 1336.79 1012.87 Q1339.87 1008.27 1345.68 1008.27 Z" fill="#000000" fill-rule="nonzero" fill-opacity="1" /><polyline clip-path="url(#clip150)" style="stroke:#000000; stroke-linecap:round; stroke-linejoin:round; stroke-width:4; stroke-opacity:1; fill:none" points="419.403,1086.02 419.403,497.312 "/>
<polyline clip-path="url(#clip150)" style="stroke:#000000; stroke-linecap:round; stroke-linejoin:round; stroke-width:4; stroke-opacity:1; fill:none" points="419.403,1080.76 423.482,1077.23 "/>
<polyline clip-path="url(#clip150)" style="stroke:#000000; stroke-linecap:round; stroke-linejoin:round; stroke-width:4; stroke-opacity:1; fill:none" points="419.403,962.261 423.482,958.729 "/>
<polyline clip-path="url(#clip150)" style="stroke:#000000; stroke-linecap:round; stroke-linejoin:round; stroke-width:4; stroke-opacity:1; fill:none" points="419.403,843.765 423.482,840.233 "/>
<polyline clip-path="url(#clip150)" style="stroke:#000000; stroke-linecap:round; stroke-linejoin:round; stroke-width:4; stroke-opacity:1; fill:none" points="419.403,725.269 423.482,721.736 "/>
<polyline clip-path="url(#clip150)" style="stroke:#000000; stroke-linecap:round; stroke-linejoin:round; stroke-width:4; stroke-opacity:1; fill:none" points="419.403,606.772 423.482,603.24 "/>
<path clip-path="url(#clip150)" d="M387.299 1066.56 Q383.687 1066.56 381.859 1070.12 Q380.053 1073.66 380.053 1080.79 Q380.053 1087.9 381.859 1091.46 Q383.687 1095.01 387.299 1095.01 Q390.933 1095.01 392.738 1091.46 Q394.567 1087.9 394.567 1080.79 Q394.567 1073.66 392.738 1070.12 Q390.933 1066.56 387.299 1066.56 M387.299 1062.85 Q393.109 1062.85 396.164 1067.46 Q399.243 1072.04 399.243 1080.79 Q399.243 1089.52 396.164 1094.13 Q393.109 1098.71 387.299 1098.71 Q381.488 1098.71 378.41 1094.13 Q375.354 1089.52 375.354 1080.79 Q375.354 1072.04 378.41 1067.46 Q381.488 1062.85 387.299 1062.85 Z" fill="#000000" fill-rule="nonzero" fill-opacity="1" /><path clip-path="url(#clip150)" d="M347.947 975.606 L355.586 975.606 L355.586 949.24 L347.276 950.907 L347.276 946.648 L355.539 944.981 L360.215 944.981 L360.215 975.606 L367.854 975.606 L367.854 979.541 L347.947 979.541 L347.947 975.606 Z" fill="#000000" fill-rule="nonzero" fill-opacity="1" /><path clip-path="url(#clip150)" d="M387.299 948.06 Q383.687 948.06 381.859 951.625 Q380.053 955.166 380.053 962.296 Q380.053 969.402 381.859 972.967 Q383.687 976.509 387.299 976.509 Q390.933 976.509 392.738 972.967 Q394.567 969.402 394.567 962.296 Q394.567 955.166 392.738 951.625 Q390.933 948.06 387.299 948.06 M387.299 944.356 Q393.109 944.356 396.164 948.963 Q399.243 953.546 399.243 962.296 Q399.243 971.023 396.164 975.629 Q393.109 980.212 387.299 980.212 Q381.488 980.212 378.41 975.629 Q375.354 971.023 375.354 962.296 Q375.354 953.546 378.41 948.963 Q381.488 944.356 387.299 944.356 Z" fill="#000000" fill-rule="nonzero" fill-opacity="1" /><path clip-path="url(#clip150)" d="M351.164 857.11 L367.484 857.11 L367.484 861.045 L345.539 861.045 L345.539 857.11 Q348.202 854.355 352.785 849.726 Q357.391 845.073 358.572 843.73 Q360.817 841.207 361.697 839.471 Q362.6 837.712 362.6 836.022 Q362.6 833.267 360.655 831.531 Q358.734 829.795 355.632 829.795 Q353.433 829.795 350.979 830.559 Q348.549 831.323 345.771 832.874 L345.771 828.152 Q348.595 827.017 351.049 826.439 Q353.502 825.86 355.539 825.86 Q360.91 825.86 364.104 828.545 Q367.299 831.23 367.299 835.721 Q367.299 837.851 366.488 839.772 Q365.701 841.67 363.595 844.263 Q363.016 844.934 359.914 848.151 Q356.813 851.346 351.164 857.11 Z" fill="#000000" fill-rule="nonzero" fill-opacity="1" /><path clip-path="url(#clip150)" d="M387.299 829.564 Q383.687 829.564 381.859 833.128 Q380.053 836.67 380.053 843.8 Q380.053 850.906 381.859 854.471 Q383.687 858.013 387.299 858.013 Q390.933 858.013 392.738 854.471 Q394.567 850.906 394.567 843.8 Q394.567 836.67 392.738 833.128 Q390.933 829.564 387.299 829.564 M387.299 825.86 Q393.109 825.86 396.164 830.466 Q399.243 835.05 399.243 843.8 Q399.243 852.526 396.164 857.133 Q393.109 861.716 387.299 861.716 Q381.488 861.716 378.41 857.133 Q375.354 852.526 375.354 843.8 Q375.354 835.05 378.41 830.466 Q381.488 825.86 387.299 825.86 Z" fill="#000000" fill-rule="nonzero" fill-opacity="1" /><path clip-path="url(#clip150)" d="M361.303 723.914 Q364.66 724.632 366.535 726.901 Q368.433 729.169 368.433 732.502 Q368.433 737.618 364.914 740.419 Q361.396 743.22 354.914 743.22 Q352.739 743.22 350.424 742.78 Q348.132 742.363 345.678 741.507 L345.678 736.993 Q347.623 738.127 349.938 738.706 Q352.252 739.285 354.776 739.285 Q359.174 739.285 361.465 737.549 Q363.78 735.813 363.78 732.502 Q363.78 729.447 361.627 727.734 Q359.498 725.998 355.678 725.998 L351.651 725.998 L351.651 722.155 L355.864 722.155 Q359.313 722.155 361.141 720.79 Q362.97 719.401 362.97 716.808 Q362.97 714.146 361.072 712.734 Q359.197 711.299 355.678 711.299 Q353.757 711.299 351.558 711.715 Q349.359 712.132 346.72 713.012 L346.72 708.845 Q349.382 708.104 351.697 707.734 Q354.035 707.364 356.095 707.364 Q361.419 707.364 364.521 709.794 Q367.623 712.202 367.623 716.322 Q367.623 719.192 365.979 721.183 Q364.336 723.151 361.303 723.914 Z" fill="#000000" fill-rule="nonzero" fill-opacity="1" /><path clip-path="url(#clip150)" d="M387.299 711.067 Q383.687 711.067 381.859 714.632 Q380.053 718.174 380.053 725.303 Q380.053 732.41 381.859 735.975 Q383.687 739.516 387.299 739.516 Q390.933 739.516 392.738 735.975 Q394.567 732.41 394.567 725.303 Q394.567 718.174 392.738 714.632 Q390.933 711.067 387.299 711.067 M387.299 707.364 Q393.109 707.364 396.164 711.97 Q399.243 716.553 399.243 725.303 Q399.243 734.03 396.164 738.637 Q393.109 743.22 387.299 743.22 Q381.488 743.22 378.41 738.637 Q375.354 734.03 375.354 725.303 Q375.354 716.553 378.41 711.97 Q381.488 707.364 387.299 707.364 Z" fill="#000000" fill-rule="nonzero" fill-opacity="1" /><path clip-path="url(#clip150)" d="M359.984 593.566 L348.178 612.015 L359.984 612.015 L359.984 593.566 M358.757 589.492 L364.637 589.492 L364.637 612.015 L369.567 612.015 L369.567 615.904 L364.637 615.904 L364.637 624.052 L359.984 624.052 L359.984 615.904 L344.382 615.904 L344.382 611.39 L358.757 589.492 Z" fill="#000000" fill-rule="nonzero" fill-opacity="1" /><path clip-path="url(#clip150)" d="M387.299 592.571 Q383.687 592.571 381.859 596.136 Q380.053 599.678 380.053 606.807 Q380.053 613.914 381.859 617.478 Q383.687 621.02 387.299 621.02 Q390.933 621.02 392.738 617.478 Q394.567 613.914 394.567 606.807 Q394.567 599.678 392.738 596.136 Q390.933 592.571 387.299 592.571 M387.299 588.867 Q393.109 588.867 396.164 593.474 Q399.243 598.057 399.243 606.807 Q399.243 615.534 396.164 620.14 Q393.109 624.724 387.299 624.724 Q381.488 624.724 378.41 620.14 Q375.354 615.534 375.354 606.807 Q375.354 598.057 378.41 593.474 Q381.488 588.867 387.299 588.867 Z" fill="#000000" fill-rule="nonzero" fill-opacity="1" /><path clip-path="url(#clip150)" d="M666.252 12.096 L674.435 12.096 L674.435 65.6895 L703.885 65.6895 L703.885 72.576 L666.252 72.576 L666.252 12.096 Z" fill="#000000" fill-rule="nonzero" fill-opacity="1" /><path clip-path="url(#clip150)" d="M728.271 32.4315 Q722.276 32.4315 718.792 37.1306 Q715.308 41.7891 715.308 49.9314 Q715.308 58.0738 718.752 62.7728 Q722.235 67.4314 728.271 67.4314 Q734.226 67.4314 737.71 62.7323 Q741.194 58.0333 741.194 49.9314 Q741.194 41.8701 737.71 37.1711 Q734.226 32.4315 728.271 32.4315 M728.271 26.1121 Q737.993 26.1121 743.543 32.4315 Q749.093 38.7509 749.093 49.9314 Q749.093 61.0714 743.543 67.4314 Q737.993 73.7508 728.271 73.7508 Q718.509 73.7508 712.959 67.4314 Q707.45 61.0714 707.45 49.9314 Q707.45 38.7509 712.959 32.4315 Q718.509 26.1121 728.271 26.1121 Z" fill="#000000" fill-rule="nonzero" fill-opacity="1" /><path clip-path="url(#clip150)" d="M787.739 34.1734 Q786.483 33.4443 784.984 33.1202 Q783.526 32.7556 781.743 32.7556 Q775.424 32.7556 772.021 36.8875 Q768.659 40.9789 768.659 48.6757 L768.659 72.576 L761.165 72.576 L761.165 27.2059 L768.659 27.2059 L768.659 34.2544 Q771.008 30.1225 774.776 28.1376 Q778.543 26.1121 783.931 26.1121 Q784.7 26.1121 785.632 26.2337 Q786.564 26.3147 787.698 26.5172 L787.739 34.1734 Z" fill="#000000" fill-rule="nonzero" fill-opacity="1" /><path clip-path="url(#clip150)" d="M832.542 48.0275 L832.542 51.6733 L798.271 51.6733 Q798.757 59.3701 802.889 63.421 Q807.061 67.4314 814.474 67.4314 Q818.768 67.4314 822.779 66.3781 Q826.83 65.3249 830.8 63.2184 L830.8 70.267 Q826.789 71.9684 822.576 72.8596 Q818.363 73.7508 814.029 73.7508 Q803.172 73.7508 796.813 67.4314 Q790.493 61.1119 790.493 50.3365 Q790.493 39.1965 796.488 32.6746 Q802.524 26.1121 812.733 26.1121 Q821.888 26.1121 827.194 32.0264 Q832.542 37.9003 832.542 48.0275 M825.088 45.84 Q825.007 39.7232 821.645 36.0774 Q818.323 32.4315 812.814 32.4315 Q806.575 32.4315 802.808 35.9558 Q799.081 39.4801 798.514 45.8805 L825.088 45.84 Z" fill="#000000" fill-rule="nonzero" fill-opacity="1" /><path clip-path="url(#clip150)" d="M882.489 45.1919 L882.489 72.576 L875.035 72.576 L875.035 45.4349 Q875.035 38.994 872.524 35.7938 Q870.012 32.5936 864.989 32.5936 Q858.953 32.5936 855.47 36.4419 Q851.986 40.2903 851.986 46.9338 L851.986 72.576 L844.492 72.576 L844.492 27.2059 L851.986 27.2059 L851.986 34.2544 Q854.659 30.163 858.265 28.1376 Q861.911 26.1121 866.65 26.1121 Q874.468 26.1121 878.479 30.9732 Q882.489 35.7938 882.489 45.1919 Z" fill="#000000" fill-rule="nonzero" fill-opacity="1" /><path clip-path="url(#clip150)" d="M894.115 27.2059 L929.52 27.2059 L929.52 34.0114 L901.488 66.6212 L929.52 66.6212 L929.52 72.576 L893.103 72.576 L893.103 65.7705 L921.135 33.1607 L894.115 33.1607 L894.115 27.2059 Z" fill="#000000" fill-rule="nonzero" fill-opacity="1" /><path clip-path="url(#clip150)" d="M993.119 39.9662 Q998.993 41.222 1002.27 45.1919 Q1005.6 49.1618 1005.6 54.9951 Q1005.6 63.9476 999.439 68.8492 Q993.281 73.7508 981.939 73.7508 Q978.131 73.7508 974.08 72.9811 Q970.07 72.2519 965.776 70.7531 L965.776 62.8538 Q969.179 64.8388 973.229 65.8515 Q977.28 66.8642 981.696 66.8642 Q989.393 66.8642 993.403 63.826 Q997.454 60.7879 997.454 54.9951 Q997.454 49.6479 993.686 46.6502 Q989.96 43.612 983.276 43.612 L976.227 43.612 L976.227 36.8875 L983.6 36.8875 Q989.636 36.8875 992.836 34.4975 Q996.036 32.067 996.036 27.5299 Q996.036 22.8714 992.714 20.4004 Q989.433 17.8888 983.276 17.8888 Q979.913 17.8888 976.065 18.618 Q972.217 19.3471 967.599 20.8865 L967.599 13.5948 Q972.257 12.2985 976.308 11.6504 Q980.4 11.0023 984.005 11.0023 Q993.322 11.0023 998.75 15.2557 Q1004.18 19.4686 1004.18 26.6793 Q1004.18 31.7024 1001.3 35.1862 Q998.426 38.6294 993.119 39.9662 Z" fill="#000000" fill-rule="nonzero" fill-opacity="1" /><path clip-path="url(#clip150)" d="M1016.29 46.5287 L1038.12 46.5287 L1038.12 53.1722 L1016.29 53.1722 L1016.29 46.5287 Z" fill="#000000" fill-rule="nonzero" fill-opacity="1" /><path clip-path="url(#clip150)" d="M1058.5 18.8205 L1058.5 65.8515 L1068.39 65.8515 Q1080.9 65.8515 1086.7 60.1802 Q1092.53 54.509 1092.53 42.2752 Q1092.53 30.1225 1086.7 24.4918 Q1080.9 18.8205 1068.39 18.8205 L1058.5 18.8205 M1050.32 12.096 L1067.13 12.096 Q1084.71 12.096 1092.93 19.4281 Q1101.16 26.7198 1101.16 42.2752 Q1101.16 57.9117 1092.89 65.2439 Q1084.63 72.576 1067.13 72.576 L1050.32 72.576 L1050.32 12.096 Z" fill="#000000" fill-rule="nonzero" fill-opacity="1" /><polyline clip-path="url(#clip152)" style="stroke:#009af9; stroke-linecap:round; stroke-linejoin:round; stroke-width:1.6; stroke-opacity:1; fill:none" points="881.105,1011.35 885.135,1009.02 890.75,1006.66 898.166,1003.95 907.719,1000.51 919.87,995.928 935.206,989.667 954.444,980.984 978.409,968.851 1007.98,951.84 1043.94,928.035 1086.68,895.017 1135.59,850.118 1188.26,791.235 1239.32,718.578 1279.89,637.283 1298.83,559.4 1286.98,501.953 1242.78,478.965 1174.51,492.247 1096.1,530.271 1020.04,576.62 953.566,619.058 898.979,652.392 855.69,676.474 821.977,693.303 795.911,705.174 775.733,713.923 759.963,720.792 747.404,726.523 737.11,731.503 728.351,735.889 720.574,739.699 713.378,742.869 706.486,745.297 699.725,746.864 693.013,747.451 686.347,746.957 679.79,745.304 673.466,742.456 667.547,738.428 662.238,733.298 657.764,727.219 654.343,720.419 652.166,713.203 651.373,705.931 652.029,698.995 654.112,692.785 657.511,687.653 662.031,683.873 667.414,681.625 673.361,680.979 679.562,681.9 685.714,684.267 691.548,687.889 696.834,692.539 701.392,697.968 705.087,703.927 707.828,710.179 709.563,716.504 710.268,722.702 709.946,728.592 708.622,734.008 706.339,738.799 703.156,742.826 699.155,745.957 694.435,748.07 689.124,749.054 683.378,748.818 677.382,747.292 671.358,744.447 665.554,740.303 660.24,734.944 655.695,728.533 652.186,721.314 649.944,713.612 649.142,705.818 649.866,698.36 652.107,691.665 655.752,686.117 660.598,682.022 666.366,679.574 672.736,678.85 679.372,679.809 685.951,682.315 692.182,686.162 697.825,691.099 702.689,696.858 706.634,703.173 709.569,709.793 711.441,716.487 712.229,723.046 711.937,729.284 710.592,735.03 708.237,740.131 704.934,744.439 700.762,747.821 695.822,750.145 690.243,751.295 684.181,751.165 677.829,749.679 671.415,746.792 665.2,742.513 659.472,736.921 654.532,730.174 650.673,722.524 648.152,714.312 647.164,705.956 647.816,697.919 650.104,690.669 653.916,684.632 659.035,680.145 665.162,677.427 671.949,676.564 679.031,677.514 686.06,680.127 692.722,684.177 698.759,689.392 703.97,695.483 708.208,702.165 711.378,709.17 713.428,716.256 714.337,723.205 714.112,729.823 712.781,735.937 710.386,741.388 706.989,746.025 702.669,749.707 697.527,752.299 691.687,753.672 685.31,753.712 678.588,752.327 671.758,749.457 665.092,745.098 658.895,739.313 653.492,732.255 649.204,724.177 646.318,715.434 645.061,706.468 645.561,697.782 647.833,689.889 651.766,683.262 657.133,678.281 663.615,675.196 670.834,674.109 678.395,674.981 685.918,677.65 693.064,681.871 699.553,687.349 705.169,693.769 709.759,700.826 713.223,708.234 715.507,715.737 716.59,723.107 716.483,730.144 715.211,736.669 712.819,742.518 709.368,747.538 704.935,751.582 699.616,754.507 693.535,756.177 686.849,756.463 679.752,755.258 672.483,752.486 665.324,748.119 658.598,742.205 652.653,734.881 647.84,726.396 644.483,717.11 642.846,707.492 643.09,698.079 645.255,689.438 649.239,682.098 654.809,676.491 661.629,672.911 669.29,671.486 677.362,672.184 685.429,674.836 693.121,679.178 700.132,684.889 706.228,691.628 711.244,699.065 715.074,706.893 717.661,714.84 718.987,722.666 719.059,730.164 717.908,737.148 715.576,743.452 712.124,748.917 707.623,753.393 702.168,756.731 695.877,758.783 688.902,759.411 681.433,758.487 673.71,755.914 666.021,751.642 658.703,745.69 652.126,738.174 646.676,729.326 642.718,719.508 640.559,709.201 640.408,698.985 642.337,689.477 646.267,681.273 651.968,674.875 659.088,670.632 667.189,668.713 675.801,669.104 684.466,671.634 692.776,676.022 700.393,681.919 707.06,688.954 712.593,696.768 716.88,705.03 719.86,713.448 721.512,721.768 721.846,729.773 720.893,737.271 718.695,744.092 715.31,750.074 710.807,755.063 705.274,758.904 698.821,761.443 691.592,762.525 683.771,762.007 675.592,759.767 667.345,755.724 659.374,749.864 652.071,742.268 645.855,733.142 641.137,722.832 638.28,711.827 637.547,700.734 639.063,690.231 642.787,680.989 648.503,673.591 655.852,668.467 664.368,665.844 673.539,665.742 682.857,667.999 691.868,672.319 700.191,678.327 707.538,685.616 713.705,693.793 718.563,702.497 722.047,711.411 724.133,720.265 724.832,728.827 724.175,736.9 722.205,744.307 718.978,750.886 714.559,756.479 709.028,760.929 702.486,764.072 695.064,765.744 686.934,765.783 678.319,764.041 669.502,760.402 660.83,754.81 652.709,747.302 645.589,738.038 639.928,727.33 636.151,715.657 634.596,703.645 635.459,692.021 638.755,681.541 644.307,672.892 651.76,666.605 660.627,662.995 670.352,662.141 680.373,663.907 690.173,667.99 699.32,673.988 707.483,681.459 714.424,689.964 719.998,699.107 724.127,708.538 726.783,717.963 727.978,727.137 727.743,735.849 726.122,743.92 723.171,751.184 718.949,757.483 713.529,762.656 707,766.538 699.478,768.955 691.116,769.729 682.118,768.685 672.753,765.671 663.357,760.583 654.343,753.398 646.182,744.213 639.377,733.284 634.422,721.049 631.742,708.128 631.627,695.289 634.181,683.368 639.294,673.173 646.64,665.368 655.727,660.395 665.957,658.428 676.705,659.385 687.382,662.976 697.487,668.776 706.626,676.302 714.519,685.066 720.991,694.622 725.944,704.58 729.345,714.612 731.203,724.451 731.549,733.873 730.433,742.689 727.906,750.733 724.029,757.846 718.864,763.87 712.49,768.638 705.002,771.971 696.531,773.681 687.254,773.57 677.412,771.451 667.321,767.167 657.378,760.626 648.064,751.841 639.916,740.981 633.496,728.409 629.324,714.701 627.812,700.63 629.188,687.099 633.45,675.043 640.346,665.294 649.405,658.466 660.003,654.886 671.449,654.573 683.069,657.281 694.269,662.583 704.573,669.952 713.637,678.844 721.235,688.748 727.243,699.218 731.614,709.881 734.349,720.436 735.484,730.638 735.068,740.288 733.16,749.212 729.816,757.255 725.095,764.261 719.063,770.069 711.797,774.502 703.4,777.366 694.015,778.451 683.843,777.539 673.16,774.424 662.331,768.937 651.819,760.997 642.174,750.654 634.007,738.15 627.937,723.96 624.511,708.805 624.124,693.611 626.938,679.423 632.836,667.259 641.425,657.966 652.091,652.093 664.09,649.84 676.652,651.071 689.066,655.388 700.741,662.239 711.235,671.014 720.249,681.124 727.611,692.044 733.243,703.335 737.138,714.646 739.329,725.697 739.87,736.268 738.825,746.177 736.256,755.269 732.221,763.393 726.777,770.397 719.983,776.113 711.915,780.355 702.678,782.91 692.422,783.543 681.367,782.009 669.818,778.074 658.19,771.553 647.007,762.359 636.894,750.567 628.539,736.483 622.628,720.687 619.748,704.04 620.288,687.631 624.353,672.647 631.72,660.201 641.864,651.161 654.034,646.021 667.372,644.862 681.029,647.404 694.261,653.112 706.478,661.32 717.266,671.343 726.366,682.55 733.649,694.407 739.079,706.481 742.682,718.436 744.517,730.015 744.657,741.017 743.173,751.278 740.13,760.655 735.584,769.006 729.586,776.182 722.186,782.011 713.453,786.296 703.482,788.806 692.423,789.279 680.502,787.438 668.044,783.01 655.496,775.771 643.44,765.608 632.573,752.59 623.671,737.052 617.507,719.653 614.737,701.382 615.781,683.486 620.723,667.319 629.264,654.128 640.766,644.842 654.346,639.943 669.026,639.431 683.869,642.903 698.078,649.697 711.049,659.035 722.376,670.154 731.827,682.374 739.307,695.14 744.815,708.015 748.405,720.674 750.16,732.873 750.167,744.428 748.51,755.192 745.254,765.035 740.453,773.827 734.149,781.425 726.38,787.66 717.195,792.328 706.674,795.185 694.946,795.946 682.221,794.295 668.819,789.91 655.199,782.504 641.972,771.893 629.9,758.085 619.851,741.381 612.715,722.449 609.272,702.36 610.048,682.512 615.183,664.457 624.371,649.651 636.899,639.19 651.765,633.638 667.853,632.992 684.099,636.77 699.613,644.193 713.733,654.363 726.029,666.411 736.273,679.584 744.386,693.276 750.392,707.032 754.373,720.516 756.436,733.492 756.689,745.785 755.227,757.265 752.124,767.817 747.432,777.329 741.186,785.672 733.407,792.69 724.121,798.188 713.373,801.921 701.251,803.592 687.92,802.855 673.652,799.331 658.867,792.648 644.162,782.504 630.317,768.762 618.278,751.571 609.074,731.483 603.682,709.528 602.851,687.184 606.926,666.221 615.738,648.411 628.598,635.194 644.427,627.421 661.949,625.247 679.913,628.218 697.247,635.468 713.153,645.96 727.111,658.669 738.844,672.709 748.264,687.375 755.405,702.143 760.373,716.643 763.303,730.622 764.332,743.906 763.579,756.377 761.137,767.938 757.068,778.501 751.404,787.965 744.157,796.204 735.325,803.05 724.91,808.286 712.94,811.633 699.496,812.742 684.752,811.202 669.016,806.561 652.773,798.37 636.73,786.269 621.82,770.111 609.165,750.112 599.972,727.003 595.349,702.107 596.078,677.275 602.402,654.638 613.924,636.215 629.652,623.498 648.202,617.179 668.062,617.115 687.847,622.503 706.461,632.177 723.15,644.893 737.484,659.519 749.291,675.14 758.578,691.075 765.461,706.846 770.107,722.139 772.695,736.754 773.387,750.567 772.316,763.497 769.577,775.483 765.225,786.462 759.277,796.356 751.723,805.056 742.53,812.405 731.663,818.188 719.106,822.117 704.891,823.82 689.138,822.837 672.109,818.635 654.262,810.65 636.308,798.368 619.247,781.465 604.341,759.994 593.02,734.593 586.671,706.632 586.355,678.195 592.52,651.822 604.822,630.021 622.157,614.715 642.894,606.841 665.226,606.267 687.497,612.022 708.414,622.674 727.117,636.714 743.142,652.797 756.335,669.867 766.751,687.163 774.562,704.18 779.997,720.602 783.286,736.249 784.639,751.024 784.224,764.88 782.163,777.791 778.525,789.736 773.335,800.679 766.574,810.557 758.188,819.265 748.101,826.645 736.23,832.466 722.508,836.406 706.92,838.037 689.551,836.816 670.645,832.093 650.684,823.15 630.464,809.301 611.146,790.06 594.251,765.392 581.532,736.001 574.708,703.545 575.082,670.63 583.145,640.447 598.358,616.094 619.221,599.812 643.637,592.492 669.39,593.652 694.559,601.827 717.75,615.128 738.122,631.71 755.307,650.045 769.274,669.008 780.2,687.85 788.369,706.112 794.095,723.544 797.679,740.028 799.379,755.527 799.401,770.047 797.891,783.612 794.933,796.249 790.559,807.97 784.746,818.767 777.424,828.597 768.488,837.371 757.799,844.937 745.204,851.065 730.559,855.417 713.761,857.525 694.798,856.766 673.831,852.356 651.281,843.37 627.95,828.834 605.118,807.918 584.579,780.254 568.539,746.355 559.293,708.003 558.701,668.364 567.597,631.58 585.409,601.819 610.221,582.125 639.288,573.64 669.743,575.579 699.19,585.85 725.983,601.889 749.23,621.321 768.637,642.295 784.307,663.537 796.569,684.268 805.847,704.063 812.58,722.732 817.172,740.226 819.968,756.573 821.245,771.841 821.209,786.111 819.998,799.468 817.691,811.987 814.309,823.728 809.823,834.737 804.155,845.036 797.182,854.615 788.737,863.431 778.616,871.382 766.577,878.301 752.36,883.916 735.701,887.824 716.375,889.441 694.262,887.957 669.446,882.3 642.363,871.139 613.987,852.988 586.011,826.479 560.949,790.869 541.988,746.77 532.458,696.847 534.916,646.012 550.151,600.584 576.673,566.472 611.084,547.221 649.172,543.087 687.093,551.591 722.097,568.945 752.662,591.402 778.273,616.027 799.072,640.867 815.56,664.796 828.387,687.268 838.224,708.092 845.691,727.27 851.33,744.899 855.594,761.115 858.851,776.059 861.394,789.865 863.456,802.655 865.218,814.531 866.826,825.579 868.398,835.869 870.033,845.458 871.821,854.388 873.849,862.688 876.206,870.375 878.986,877.453 882.3,883.912 886.276,889.725 891.064,894.843 896.849,899.193 903.849,902.664 912.329,905.1 922.605,906.278 935.048,905.892 950.086,903.515 968.191,898.572 989.852,890.288 1015.5,877.666 1045.41,859.478 1079.42,834.349 1116.69,801.009 1155.19,758.828 1191.34,708.697 1219.95,654.074 1235,601.537 1231.46,559.78 1207.68,536.513 1166.67,534.716 1115.07,551.138 1060.4,578.446 1008.63,609.088 963.162,637.956 925.185,662.847 894.483,683.583 870.147,700.936 851.023,715.886 835.958,729.27 823.905,741.672 813.963,753.441 805.377,764.746 797.524,775.632 789.892,786.063 782.055,795.953 773.657,805.177 764.394,813.574 754.005,820.946 742.27,827.039 729.016,831.533 714.136,834.025 697.62,834.012 679.602,830.897 660.426,824.006 640.707,812.66 621.399,796.304 603.803,774.709 589.505,748.227 580.177,718.034 577.266,686.227 581.61,655.633 593.153,629.3 610.872,609.793 633.002,598.591 657.446,595.849 682.209,600.596 705.696,611.2 726.838,625.86 745.055,642.957 760.152,661.219 772.197,679.744 781.404,697.947 788.056,715.48 792.44,732.157 794.822,747.895 795.418,762.67 794.391,776.487 791.846,789.36 787.834,801.297 782.351,812.284 775.348,822.279 766.738,831.195 756.402,838.887 744.208,845.132 730.031,849.609 713.786,851.876 695.476,851.349 675.264,847.293 653.557,838.854 631.113,825.136 609.13,805.38 589.276,779.25 573.597,747.212 564.232,710.877 562.949,673.12 570.605,637.741 586.786,608.638 609.821,588.772 637.216,579.421 666.282,580.076 694.696,588.937 720.802,603.663 743.643,621.998 762.847,642.12 778.439,662.74 790.686,683.036 799.963,702.539 806.673,721.019 811.197,738.394 813.86,754.667 814.926,769.886 814.589,784.118 812.979,797.431 810.163,809.887 806.152,821.533 800.905,832.393 794.333,842.466 786.302,851.711 776.637,860.038 765.132,867.29 751.558,873.217 735.688,877.446 717.332,879.446 696.391,878.484 672.957,873.598 647.429,863.608 620.679,847.202 594.206,823.168 570.224,790.823 551.553,750.618 541.192,704.745 541.565,657.353 553.658,613.964 576.493,580.015 607.305,559.162 642.393,552.275 678.151,557.657 711.813,572.139 741.694,592.306 767.067,615.295 787.883,639.078 804.495,662.402 817.446,684.598 827.334,705.372 834.73,724.656 840.144,742.497 844.002,759 846.652,774.29 848.365,788.493 849.344,801.727 849.74,814.1 849.657,825.706 849.158,836.627 848.278,846.936 847.024,856.696 845.38,865.961 843.307,874.781 840.745,883.198 837.612,891.251 833.798,898.971 829.168,906.381 823.55,913.496 816.738,920.31 808.475,926.795 798.457,932.879 786.322,938.428 771.652,943.207 753.982,946.833 732.826,948.697 707.739,947.87 678.433,942.985 644.984,932.129 608.138,912.823 569.739,882.239 533.139,837.884 503.32,778.963 486.258,708.196 487.202,633.089 508.341,564.971 547.281,515.084 597.763,489.793 652.243,488.433 704.494,505.116 750.784,532.366 789.672,563.901 821.227,595.61 846.293,625.319 866.003,652.148 881.512,675.932 893.883,696.831 904.032,715.117 912.732,731.064 920.621,744.907 928.223,756.818 935.975,766.907 944.24,775.216 953.33,781.726 963.512,786.35 975.013,788.938 988.018,789.274 1002.65,787.087 1018.94,782.062 1036.78,773.879 1055.89,762.264 1075.68,747.088 1095.27,728.498 1113.42,707.066 1128.55,683.926 1138.97,660.807 1143.16,639.878 1140.12,623.359 1129.73,612.986 1112.86,609.538 1091.19,612.661 1066.82,621.088 1041.81,633.118 1017.85,647.105 996.11,661.778 977.252,676.324 961.525,690.329 948.894,703.642 939.159,716.258 932.04,728.22 927.24,739.573 924.488,750.333 923.553,760.486 924.26,769.986 926.493,778.757 930.191,786.697 935.346,793.679 942,799.545 950.236,804.103 960.167,807.117 971.928,808.303 985.654,807.316 1001.45,803.756 1019.34,797.169 1039.21,787.086 1060.74,773.087 1083.25,754.92 1105.67,732.68 1126.42,707.027 1143.52,679.39 1154.77,652.024 1158.24,627.781 1152.77,609.518 1138.45,599.297 1116.68,597.746 1089.85,603.93 1060.69,615.834 1031.69,631.12 1004.7,647.783 980.833,664.462 960.598,680.44 944.04,695.466 930.93,709.554 920.901,722.826 913.543,735.415 908.463,747.422 905.312,758.901 903.809,769.865 903.737,780.29 904.95,790.13 907.36,799.317 910.942,807.767 915.72,815.379 921.77,822.027 929.214,827.557 938.213,831.773 948.968,834.429 961.705,835.209 976.662,833.717 994.059,829.461 1014.05,821.855 1036.64,810.24 1061.59,793.953 1088.24,772.47 1115.36,745.649 1141.02,714.077 1162.56,679.441 1176.93,644.728 1181.29,613.972 1173.93,591.333 1154.99,579.758 1126.62,579.875 1092.34,589.886 1055.99,606.497 1020.79,626.262 988.89,646.551 961.384,665.855 938.543,683.605 920.133,699.808 905.65,714.727 894.491,728.673 886.055,741.907 879.793,754.611 875.236,766.887 871.997,778.783 869.769,790.31 868.313,801.455 867.453,812.201 867.059,822.528 867.041,832.417 867.34,841.854 867.927,850.83 868.79,859.338 869.937,867.372 871.394,874.927 873.203,881.995 875.423,888.565 878.131,894.619 881.428,900.128 885.436,905.052 890.313,909.328 896.246,912.87 903.471,915.554 912.27,917.205 922.984,917.58 936.014,916.338 951.826,913.012 970.935,906.96 993.868,897.324 1021.09,882.991 1052.85,862.595 1088.93,834.624 1128.24,797.738 1168.36,751.429 1205.07,697.071 1232.43,639.096 1243.92,585.374 1234.69,545.562 1204.17,527.171 1156.93,531.616 1100.81,553.606 1043.73,584.506 991.269,616.632 946.207,645.482 909.163,669.583 879.533,689.283 856.184,705.626 837.852,719.686 823.341,732.298 811.596,744.007 801.729,755.116 793,765.748 784.808,775.911 776.662,785.532 768.159,794.489 758.969,802.619 748.821,809.717 737.501,815.531 724.853,819.752 710.795,822.003 695.348,821.83 678.671,818.713 661.113,812.092 643.263,801.431 625.985,786.335 610.421,766.717 597.916,742.994 589.851,716.253 587.392,688.301 591.198,661.491 601.207,638.327 616.59,620.926 635.911,610.565 657.435,607.482 679.469,611.002 700.608,619.861 719.852,632.59 736.607,647.804 750.613,664.362 761.851,681.412 770.448,698.368 776.607,714.851 780.552,730.633 782.495,745.587 782.614,759.645 781.041,772.77 777.864,784.934 773.119,796.102 766.805,806.213 758.879,815.174 749.278,822.836 737.925,828.987 724.759,833.33 709.759,835.467 692.991,834.892 674.669,830.994 655.218,823.088 635.356,810.501 616.144,792.722 598.994,769.625 585.573,741.742 577.576,710.49 576.37,678.217 582.618,647.928 596.018,622.689 615.309,604.899 638.556,595.731 663.607,595.016 688.509,601.529 711.774,613.508 732.452,629.133 750.075,646.834 764.535,665.421 775.953,684.071 784.579,702.269 790.71,719.716 794.639,736.261 796.627,751.845 796.882,766.458 795.556,780.115 792.744,792.833 788.485,804.622 782.763,815.468 775.521,825.326 766.66,834.104 756.054,841.65 743.562,847.73 729.053,852.01 712.44,854.026 693.732,853.169 673.105,848.676 650.997,839.657 628.213,825.193 606.017,804.518 586.158,777.336 570.762,744.207 562.014,706.906 561.662,668.503 570.463,632.966 587.843,604.252 611.959,585.24 640.186,577.014 669.785,578.844 698.45,588.756 724.583,604.315 747.302,623.247 766.3,643.76 781.654,664.61 793.666,685.02 802.733,704.561 809.272,723.031 813.667,740.369 816.248,756.59 817.276,771.754 816.947,785.933 815.387,799.2 812.663,811.623 808.786,823.251 803.715,834.117 797.359,844.224 789.585,853.541 780.218,861.991 769.045,869.432 755.832,875.637 740.335,880.26 722.336,882.799 701.696,882.555 678.438,878.595 652.872,869.744 625.754,854.651 598.456,831.983 573.095,800.827 552.478,761.289 539.742,715.173 537.63,666.357 547.565,620.392 568.968,583.13 599.28,558.886 634.745,549.152 671.521,552.575 706.545,566.01 737.883,585.853 764.644,608.987 786.696,633.165 804.365,656.98 818.203,679.672 828.832,700.9 836.856,720.578 842.819,738.749 847.18,755.521 850.314,771.024 852.521,785.39 854.032,798.741 855.02,811.188 855.613,822.829 855.905,833.747 855.958,844.014 855.812,853.692 855.492,862.836 855.007,871.493 854.352,879.703 853.515,887.507 852.471,894.937 851.185,902.028 849.612,908.811 847.691,915.316 845.347,921.573 842.488,927.609 838.995,933.453 834.725,939.125 829.499,944.643 823.097,950.011 815.251,955.211 805.633,960.194 793.848,964.848 779.432,968.974 761.846,972.222 740.505,974.014 714.823,973.431 684.329,969.06 648.876,958.834 608.992,939.923 566.404,908.86 524.622,862.211 489.295,798.133 467.667,718.798 466.574,632.496 489.301,553.008 533.287,494.693 590.847,465.806 652.657,465.336 711.247,485.531 762.44,516.946 804.889,552.045 838.969,586.239 865.843,617.345 886.901,644.667 903.488,668.251 916.797,688.436 927.833,705.618 937.428,720.153 946.251,732.32 954.843,742.313 963.63,750.246 972.948,756.159 983.054,760.03 994.131,761.779 1006.28,761.285 1019.52,758.402 1033.73,752.992 1048.69,744.958 1063.96,734.311 1078.94,721.235 1092.8,706.165 1104.57,689.841 1113.2,673.32 1117.72,657.897 1117.46,644.925 1112.18,635.572 1102.18,630.574 1088.27,630.087 1071.64,633.704 1053.61,640.62 1035.42,649.865 1018.1,660.515 1002.4,671.826 988.781,683.273 977.457,694.524 968.479,705.389 961.785,715.764 957.251,725.581 954.734,734.783 954.095,743.303 955.217,751.055 958.014,757.93 962.429,763.796 968.438,768.493 976.036,771.832 985.23,773.6 996.02,773.555 1008.38,771.435 1022.22,766.973 1037.35,759.924 1053.44,750.114 1069.96,737.501 1086.17,722.268 1101.07,704.916 1113.5,686.33 1122.21,667.788 1126.1,650.841 1124.44,637.075 1117.06,627.779 1104.51,623.648 1087.87,624.644 1068.61,630.074 1048.3,638.847 1028.29,649.785 1009.65,661.857 993.092,674.304 978.983,686.64 967.455,698.596 958.469,710.045 951.887,720.931 947.528,731.224 945.209,740.89 944.763,749.876 946.061,758.104 949.013,765.471 953.569,771.846 959.719,777.07 967.479,780.951 976.89,783.266 987.993,783.753 1000.81,782.122 1015.31,778.055 1031.38,771.238 1048.74,761.398 1066.92,748.375 1085.2,732.225 1102.52,713.337 1117.58,692.557 1128.9,671.234 1135.05,651.15 1134.97,634.263 1128.23,622.293 1115.24,616.298 1097.2,616.411 1075.81,621.884 1052.94,631.398 1030.28,643.48 1009.11,656.84 990.267,670.546 974.193,684.03 961.012,697.008 950.644,709.378 942.895,721.125 937.526,732.259 934.294,742.785 932.985,752.681 933.427,761.896 935.499,770.352 939.13,777.941 944.299,784.529 951.029,789.95 959.378,794.003 969.43,796.449 981.277,797.002 995,795.329 1010.63,791.056 1028.11,783.786 1047.22,773.143 1067.5,758.851 1088.18,740.854 1108.11,719.475 1125.76,695.594 1139.33,670.755 1146.99,647.116 1147.34,627.142 1139.75,613.054 1124.7,606.219 1103.66,606.771 1078.8,613.664 1052.41,625.13 1026.53,639.274 1002.63,654.52 981.607,669.808 963.844,684.567 949.382,698.575 938.034,711.814 929.503,724.344 923.459,736.241 919.583,747.551 917.601,758.29 917.294,768.435 918.504,777.933 921.133,786.706 925.144,794.651 930.55,801.641 937.415,807.52 945.845,812.096 955.98,815.13 967.981,816.331 982.017,815.342 998.227,811.735 1016.68,805.021 1037.32,794.672 1059.83,780.195 1083.59,761.246 1107.48,737.834 1129.84,710.568 1148.53,680.91 1161.09,651.284 1165.32,624.851 1159.84,604.854 1144.66,593.677 1121.32,592.056 1092.49,598.919 1061.21,611.941 1030.22,628.461 1001.53,646.241 976.309,663.818 955.022,680.468 937.661,695.988 923.928,710.453 913.389,724.04 905.575,736.924 900.042,749.236 896.401,761.05 894.336,772.394 893.599,783.259 894.014,793.613 895.47,803.408 897.909,812.585 901.33,821.071 905.778,828.784 911.341,835.622 918.154,841.456 926.393,846.123 936.275,849.411 948.055,851.041 962.016,850.653 978.452,847.781 997.633,841.843 1019.75,832.134 1044.79,817.86 1072.45,798.226 1101.87,772.636 1131.46,741.022 1158.73,704.32 1180.36,664.929 1192.69,626.868 1192.65,595.214 1178.92,574.655 1152.67,567.719 1117.33,573.759 1077.45,589.461 1037.31,610.468 1000.06,632.999 967.437,654.654 940.069,674.388 917.819,692.07 900.148,708.016 886.345,722.662 875.679,736.398 867.471,749.505 861.125,762.16 856.142,774.452 852.11,786.419 848.697,798.063 845.632,809.372 842.692,820.333 839.69,830.929 836.459,841.152 832.844,850.997 828.689,860.459 823.832,869.534 818.092,878.212 811.266,886.47 803.119,894.261 793.38,901.502 781.739,908.052 767.845,913.683 751.322,918.037 731.792,920.571 708.929,920.485 682.555,916.639 652.8,907.498 620.334,891.129 586.665,865.396 554.421,828.455 527.424,779.695 510.279,720.968 507.247,657.528 520.633,597.624 549.528,550.181 589.859,521.458 635.892,512.854 682.179,521.272 724.844,541.328 761.851,567.655 792.615,596.177 817.454,624.345 837.13,650.83 852.56,675.093 864.654,697.034 874.238,716.761 882.027,734.463 888.622,750.336 894.52,764.559 900.137,777.272 905.823,788.577 911.881,798.531 918.585,807.144 926.195,814.38 934.965,820.145 945.151,824.286 957.015,826.577 970.813,826.713 986.784,824.296 1005.11,818.838 1025.88,809.769 1048.95,796.489 1073.89,778.462 1099.81,755.402 1125.18,727.543 1147.86,695.968 1165.16,662.878 1174.29,631.575 1173.09,605.928 1160.78,589.326 1138.4,583.52 1108.62,588.026 1074.9,600.491 1040.61,617.757 1008.33,636.946 979.636,656.073 955.238,674.113 935.201,690.755 919.211,706.087 906.77,720.354 897.324,733.807 890.34,746.643 885.342,758.989 881.933,770.907 879.793,782.42 878.675,793.519 878.401,804.18 878.848,814.372 879.941,824.063 881.65,833.217 883.981,841.798 886.975,849.765 890.706,857.069 895.28,863.649 900.84,869.423 907.565,874.282 915.676,878.079 925.44,880.61 937.171,881.602 951.226,880.682 967.996,877.355 987.878,870.97 1011.22,860.698 1038.22,845.54 1068.75,824.39 1102.12,796.226 1136.76,760.503 1169.89,717.777 1197.45,670.48 1214.58,623.424 1216.82,583.34 1201.87,556.942 1170.92,548.129 1128.47,556.144 1080.63,576.227 1033.03,602.187 989.549,628.918 952.11,653.488 921.163,674.907 896.275,693.355 876.601,709.487 861.169,724.003 849.031,737.463 839.339,750.244 831.364,762.562 824.493,774.515 818.219,786.126 812.12,797.371 805.837,808.198 799.057,818.534 791.498,828.293 782.893,837.362 772.983,845.594 761.515,852.789 748.245,858.676 732.954,862.877 715.475,864.885 695.747,864.028 673.891,859.453 650.308,850.146 625.815,835.022 601.752,813.126 580.043,783.986 563.08,748.089 553.378,707.333 552.98,665.177 562.785,626.183 582.115,594.927 608.807,574.673 639.817,566.521 672.036,569.435 702.928,580.996 730.814,598.363 754.84,618.986 774.78,640.937 790.815,662.934 803.343,684.222 812.846,704.416 819.808,723.363 824.669,741.046 827.802,757.52 829.508,772.874 830.013,787.208 829.477,800.621 827.999,813.202 825.623,825.032 822.346,836.176 818.117,846.682 812.846,856.581 806.396,865.878 798.593,874.55 789.218,882.527 778.012,889.684 764.681,895.805 748.912,900.559 730.393,903.445 708.872,903.737 684.236,900.427 656.654,892.179 626.762,877.356 595.906,854.187 566.358,821.182 541.357,777.883 524.787,725.81 520.307,669.203 530.094,614.786 553.787,570.094 588.36,540.899 629.129,529.26 671.294,533.394 711.128,549.164 746.408,571.96 776.233,597.958 800.612,624.545 820.063,650.205 835.326,674.201 847.19,696.271 856.396,716.412 863.602,734.742 869.362,751.419 874.138,766.61 878.309,780.461 882.185,793.098 886.027,804.618 890.059,815.089 894.484,824.552 899.499,833.014 905.3,840.451 912.098,846.8 920.12,851.953 929.625,855.748 940.896,857.952 954.246,858.247 970.005,856.207 988.496,851.283 1009.98,842.785 1034.6,829.898 1062.18,811.745 1092.13,787.541 1123.11,756.892 1152.89,720.261 1178.22,679.521 1195.22,638.337 1200.17,601.909 1190.79,575.718 1167.37,563.542 1132.88,565.862 1092.02,579.825 1049.64,600.788 1009.52,624.287 973.961,647.256 943.874,668.215 919.269,686.851 899.63,703.456 884.213,718.526 872.224,732.525 862.912,745.801 855.617,758.579 849.774,770.981 844.918,783.059 840.667,794.821 836.703,806.257 832.764,817.345 828.622,828.062 824.067,838.385 818.902,848.289 812.924,857.747 805.921,866.716 797.657,875.133 787.874,882.898 776.283,889.855 762.57,895.763 746.409,900.261 727.491,902.814 705.572,902.659 680.571,898.747 652.708,889.703 622.703,873.869 592.014,849.498 563.033,815.213 539.097,770.784 524.084,718.073 521.495,661.671 533.185,608.477 558.419,565.869 593.898,539.15 634.878,529.817 676.689,535.696 715.821,552.534 750.251,575.816 779.224,601.895 802.827,628.332 821.613,653.734 836.329,677.439 847.753,699.227 856.613,719.112 863.547,737.219 869.095,753.707 873.703,768.737 877.735,782.457 881.494,794.987 885.228,806.422 889.157,816.829 893.478,826.246 898.381,834.683 904.06,842.117 910.719,848.485 918.586,853.684 927.915,857.556 938.988,859.874 952.121,860.329 967.646,858.504 985.896,853.857 1007.15,845.706 1031.58,833.233 1059.06,815.545 1089.06,791.811 1120.34,761.552 1150.73,725.095 1177.06,684.143 1195.4,642.218 1201.87,604.495 1193.94,576.636 1171.57,562.783 1137.55,563.803 1096.57,577.056 1053.64,597.871 1012.73,621.59 976.301,644.932 945.396,666.266 920.072,685.203 899.829,702.02 883.917,717.226 871.526,731.306 861.885,744.631 854.314,757.44 848.231,769.865 843.154,781.965 838.686,793.75 834.5,805.208 830.319,816.317 825.906,827.05 821.042,837.38 815.52,847.276 809.128,856.702 801.642,865.603 792.819,873.902 782.391,881.474 770.067,888.133 755.535,893.594 738.482,897.438 718.634,899.056 695.814,897.598 670.057,891.918 641.761,880.572 611.899,861.904 582.237,834.332 555.466,796.9 535.071,750.115 524.759,696.783 527.41,642.288 543.919,593.673 572.599,557.521 609.621,537.673 650.306,534.207 690.48,544.154 727.25,563.205 759.109,587.245 785.628,613.156 807.064,638.94 824.022,663.504 837.237,686.358 847.449,707.366 855.332,726.575 861.469,744.115 866.349,760.143 870.373,774.812 873.866,788.259 877.093,800.601 880.277,811.928 883.608,822.308 887.258,831.785 891.393,840.377 896.182,848.075 901.805,854.842 908.462,860.604 916.383,865.246 925.827,868.595 937.094,870.412 950.518,870.366 966.459,868.013 985.283,862.771 1007.31,853.901 1032.73,840.511 1061.46,821.609 1092.94,796.259 1125.83,763.902 1157.78,724.874 1185.27,681.067 1203.97,636.439 1209.63,596.801 1199.61,568.405 1174.18,555.581 1136.73,558.807 1092.59,574.671 1047.15,597.781 1004.54,623.104 967.085,647.336 935.647,669.019 910.09,687.977 889.761,704.656 873.802,719.666 861.326,733.546 851.513,746.688 843.646,759.332 837.12,771.603 831.43,783.549 826.159,795.169 820.957,806.436 815.525,817.31 809.594,827.74 802.914,837.668 795.24,847.019 786.324,855.69 775.906,863.539 763.717,870.362 749.486,875.865 732.957,879.627 713.927,881.066 692.31,879.389 668.229,873.573 642.155,862.377 615.068,844.459 588.618,818.637 565.18,784.371 547.698,742.399 539.177,695.327 541.868,647.721 556.405,605.321 581.391,573.434 613.737,555.251 649.614,551.063 685.492,558.715 718.787,574.83 748.021,596 772.633,619.488 792.692,643.42 808.614,666.679 820.978,688.688 830.39,709.219 837.422,728.238 842.574,745.816 846.262,762.065 848.823,777.115 850.519,791.093 851.549,804.117 852.059,816.29 852.15,827.706 851.89,838.444 851.318,848.573 850.448,858.156 849.276,867.244 847.777,875.886 845.911,884.125 843.618,892 840.819,899.545 837.413,906.793 833.272,913.77 828.239,920.493 822.119,926.97 814.674,933.186 805.616,939.098 794.6,944.611 781.218,949.549 765.005,953.614 745.45,956.322 722.038,956.907 694.34,954.206 662.165,946.529 625.841,931.557 586.606,906.403 547.1,868.035 511.732,814.352 486.501,745.999 477.738,668.319 489.735,591.793 522.369,529.265 570.596,490.624 626.54,478.592 682.643,488.82 733.744,513.474 777.404,544.991 813.184,577.992 841.755,609.43 864.256,637.951 881.93,663.188 895.942,685.252 907.315,704.426 916.914,721.025 925.451,735.322 933.512,747.526 941.576,757.776 950.035,766.14 959.215,772.62 969.386,777.15 980.765,779.604 993.515,779.794 1007.72,777.489 1023.38,772.428 1040.34,764.36 1058.26,753.106 1076.55,738.639 1094.34,721.209 1110.46,701.455 1123.5,680.502 1132.03,659.941 1134.8,641.668 1131.08,627.531 1120.93,618.906 1105.17,616.348 1085.31,619.493 1063.15,627.256 1040.47,638.215 1018.72,650.995 998.95,664.506 981.754,678.03 967.39,691.166 955.866,703.738 947.037,715.697 940.685,727.041 936.57,737.779 934.467,747.896 934.189,757.353 935.594,766.083 938.589,773.988 943.135,780.946 949.233,786.801 956.927,791.369 966.288,794.424 977.404,795.701 990.356,794.887 1005.19,791.627 1021.89,785.535 1040.28,776.231 1060.01,763.402 1080.43,746.906 1100.55,726.919 1118.97,704.1 1134,679.732 1143.84,655.74 1146.89,634.478 1142.25,618.276 1129.98,608.834 1111.18,606.742 1087.79,611.373 1062.07,621.201 1036.14,634.361 1011.67,649.157 989.752,664.354 970.955,679.215 955.433,693.406 943.079,706.838 933.636,719.546 926.789,731.599 922.22,743.051 919.642,753.925 918.82,764.209 919.579,773.859 921.802,782.801 925.433,790.939 930.469,798.152 936.959,804.288 944.993,809.163 954.698,812.553 966.226,814.178 979.738,813.698 995.373,810.708 1013.21,804.737 1033.21,795.277 1055.13,781.837 1078.39,764.049 1102.01,741.849 1124.47,715.711 1143.73,686.894 1157.47,657.585 1163.42,630.754 1160.04,609.601 1147.06,596.684 1125.66,593.093 1098.26,598.146 1067.8,609.789 1037.08,625.446 1008.21,642.809 982.541,660.274 960.672,676.976 942.695,692.611 928.376,707.195 917.32,720.878 909.073,733.831 903.197,746.188 899.3,758.028 897.058,769.385 896.218,780.253 896.596,790.601 898.075,800.381 900.593,809.527 904.146,817.966 908.776,825.606 914.575,832.337 921.675,838.021 930.254,842.484 940.529,845.497 952.751,846.766 967.194,845.912 984.133,842.451 1003.81,835.785 1026.34,825.208 1051.66,809.952 1079.31,789.293 1108.28,762.783 1136.79,730.598 1162.22,693.997 1181.25,655.708 1190.42,619.92 1187.14,591.526 1170.71,574.619 1142.81,570.919 1107.1,579.14 1067.97,595.782 1029.32,616.729 993.885,638.635 963.118,659.489 937.453,678.488 916.679,695.597 900.243,711.139 887.46,725.515 877.634,739.07 870.129,752.047 864.392,764.592 859.963,776.78 856.466,788.635 853.598,800.158 851.118,811.336 848.832,822.154 846.577,832.602 844.218,842.674 841.628,852.372 838.687,861.699 835.272,870.667 831.247,879.282 826.46,887.552 820.735,895.477 813.864,903.039 805.603,910.2 795.661,916.881 783.702,922.939 769.343,928.141 752.164,932.11 731.736,934.265 707.679,933.733 679.772,929.255 648.132,919.101 613.488,901.074 577.538,872.713 543.282,831.896 515.117,777.979 498.292,713.301 497.507,644.241 514.962,580.528 548.993,532.169 594.448,505.43 644.702,500.681 693.927,513.437 738.323,537.268 776.164,566.345 807.204,596.574 832.037,625.598 851.619,652.324 866.992,676.406 879.145,697.881 888.953,716.945 897.159,733.831 904.386,748.758 911.148,761.9 917.874,773.385 924.93,783.283 932.632,791.61 941.268,798.323 951.102,803.316 962.382,806.418 975.337,807.384 990.157,805.896 1006.97,801.567 1025.81,793.956 1046.5,782.618 1068.63,767.187 1091.41,747.517 1113.58,723.885 1133.39,697.214 1148.74,669.251 1157.46,642.53 1157.8,620.019 1149.02,604.406 1131.7,597.307 1107.66,598.763 1079.52,607.356 1050.02,620.839 1021.43,636.914 995.365,653.782 972.698,670.322 953.74,686.012 938.416,700.723 926.428,714.527 917.38,727.562 910.859,739.955 906.482,751.792 903.922,763.112 902.916,773.917 903.274,784.173 904.867,793.828 907.631,802.809 911.555,811.029 916.683,818.38 923.104,824.731 930.955,829.917 940.41,833.733 951.681,835.914 965.003,836.125 980.616,833.941 998.734,828.844 1019.48,820.219 1042.83,807.388 1068.44,789.697 1095.52,766.682 1122.66,738.342 1147.72,705.515 1167.87,670.233 1179.99,635.84 1181.42,606.569 1170.85,586.458 1148.96,577.952 1118.4,581.001 1082.93,593.248 1046.33,611.181 1011.61,631.455 980.616,651.712 954.2,670.717 932.462,688.096 915.066,703.963 901.458,718.616 891.021,732.368 883.155,745.464 877.326,758.064 873.082,770.258 870.054,782.081 867.948,793.537 866.542,804.614 865.664,815.293 865.193,825.556 865.042,835.386 865.153,844.775 865.491,853.716 866.04,862.206 866.8,870.245 867.783,877.835 869.017,884.976 870.539,891.665 872.402,897.899 874.676,903.665 877.446,908.945 880.822,913.709 884.938,917.912 889.96,921.487 896.093,924.339 903.587,926.334 912.749,927.282 923.944,926.916 937.608,924.864 954.241,920.612 974.398,913.452 998.641,902.435 1027.45,886.331 1061.05,863.64 1099.09,832.73 1140.22,792.241 1181.53,741.882 1218.11,683.671 1243.33,623.164 1250.33,569.527 1234.79,533.075 1197.53,520.566 1144.7,531.421 1085.1,558.368 1026.63,591.902 974.306,624.638 930.198,652.88 894.406,675.88 866.009,694.423 843.715,709.734 826.197,722.921 812.246,734.785 800.822,745.818 791.056,756.27 782.241,766.223 773.801,775.647 765.275,784.438 756.29,792.444 746.552,799.469 735.833,805.274 723.975,809.573 710.895,812.024 696.609,812.229 681.261,809.737 665.157,804.078 648.811,794.807 632.962,781.608 618.581,764.417 606.806,743.578 598.816,719.978 595.632,695.087 597.892,670.846 605.66,649.372 618.364,632.553 634.89,621.663 653.804,617.153 673.625,618.677 693.046,625.317 711.07,635.875 727.041,649.134 740.607,664.028 751.65,679.711 760.211,695.565 766.421,711.162 770.45,726.223 772.472,740.571 772.641,754.095 771.078,766.721 767.865,778.385 763.046,789.02 756.631,798.54 748.602,806.82 738.927,813.687 727.577,818.906 714.549,822.163 699.902,823.063 683.795,821.123 666.548,815.803 648.693,806.549 631.026,792.9 614.625,774.637 600.81,751.983 591.006,725.793 586.514,697.66 588.216,669.828 596.316,644.853 610.226,625.088 628.66,612.156 649.912,606.648 672.214,608.146 694.022,615.511 714.185,627.273 731.975,641.968 747.035,658.349 759.283,675.46 768.813,692.626 775.817,709.409 780.523,725.538 783.156,740.862 783.909,755.301 782.935,768.814 780.338,781.376 776.173,792.96 770.449,803.519 763.137,812.976 754.175,821.209 743.486,828.034 730.993,833.188 716.649,836.316 700.472,836.95 682.601,834.513 663.362,828.329 643.343,817.691 623.467,801.976 605.023,780.847 589.619,754.518 579.01,724.025 574.785,691.373 577.967,659.408 588.675,631.328 606.004,609.954 628.209,597.041 653.124,592.953 678.63,596.811 703.005,606.962 725.066,621.518 744.161,638.751 760.057,657.29 772.807,676.163 782.628,694.735 789.816,712.634 794.679,729.659 797.499,745.726 798.513,760.812 797.903,774.931 795.788,788.105 792.232,800.353 787.243,811.679 780.783,822.057 772.765,831.424 763.073,839.665 751.563,846.592 738.09,851.93 722.527,855.284 704.814,856.123 685.016,853.755 663.406,847.336 640.571,835.92 617.52,818.593 595.762,794.719 577.279,764.306 564.331,728.425 559.041,689.486 562.824,651.137 575.872,617.59 596.972,592.55 623.784,578.189 653.472,574.721 683.378,580.696 711.463,593.758 736.452,611.419 757.75,631.554 775.262,652.6 789.201,673.534 799.943,693.753 807.917,712.953 813.54,731.011 817.184,747.915 819.158,763.711 819.7,778.472 818.979,792.279 817.102,805.207 814.114,817.323 810.01,828.676 804.731,839.295 798.174,849.182 790.19,858.301 780.591,866.57 769.152,873.84 755.625,879.873 739.753,884.306 721.308,886.615 700.143,886.065 676.288,881.675 650.076,872.207 622.313,856.244 594.467,832.397 568.784,799.747 548.228,758.489 536.071,710.658 535.093,660.475 546.603,613.843 569.768,576.804 601.73,553.589 638.499,545.373 676.137,550.417 711.61,565.279 743.081,586.214 769.774,610.089 791.654,634.711 809.12,658.75 822.771,681.513 833.26,702.714 841.209,722.301 847.172,740.342 851.615,756.958 854.918,772.287 857.386,786.464 859.257,799.613 860.714,811.842 861.9,823.246 862.924,833.903 863.872,843.879 864.813,853.227 865.808,861.992 866.91,870.207 868.173,877.9 869.652,885.088 871.409,891.782 873.514,897.984 876.052,903.689 879.123,908.876 882.853,913.513 887.39,917.549 892.919,920.907 899.666,923.476 907.904,925.1 917.965,925.557 930.245,924.537 945.206,921.609 963.373,916.179 985.305,907.438 1011.53,894.318 1042.44,875.47 1078.02,849.321 1117.52,814.318 1158.96,769.492 1198.53,715.46 1230.52,655.732 1247.98,597.569 1244.93,551.016 1219.21,525.257 1174.21,523.898 1117.64,542.996 1058.16,573.752 1002.42,607.354 953.983,638.128 913.915,663.882 881.765,684.711 856.404,701.675 836.51,715.968 820.811,728.556 808.176,740.086 797.65,750.93 788.443,761.253 779.91,771.082 771.531,780.351 762.886,788.935 753.637,796.666 743.516,803.332 732.319,808.675 719.913,812.388 706.245,814.103 691.371,813.394 675.489,809.785 658.978,802.79 642.439,791.982 626.715,777.1 612.873,758.197 602.117,735.803 595.633,711.04 594.359,685.616 598.757,661.64 608.655,641.262 623.237,626.235 641.199,617.565 661.015,615.385 681.206,619.074 700.546,627.531 718.151,639.484 733.482,653.726 746.291,669.249 756.535,685.284 764.307,701.285 769.766,716.888 773.097,731.86 774.474,746.058 774.046,759.393 771.922,771.802 768.171,783.231 762.826,793.61 755.881,802.848 747.308,810.81 737.067,817.307 725.125,822.081 711.485,824.794 696.219,825.015 679.519,822.231 661.751,815.869 643.519,805.365 625.708,790.277 609.494,770.459 596.283,746.272 587.544,718.779 584.543,689.812 588.036,661.82 598.023,637.453 613.682,618.994 633.527,607.849 655.74,604.316 678.534,607.703 700.424,616.682 720.358,629.699 737.715,645.29 752.231,662.256 763.892,679.708 772.843,697.041 779.303,713.869 783.515,729.967 785.705,745.212 786.065,759.546 784.74,772.942 781.824,785.383 777.36,796.846 771.346,807.287 763.742,816.625 754.475,824.735 743.457,831.423 730.602,836.416 715.856,839.339 699.238,839.703 680.892,836.899 661.164,830.22 640.677,818.923 620.408,802.364 601.722,780.213 586.309,752.736 575.998,721.085 572.407,687.434 576.527,654.814 588.371,626.561 606.882,605.527 630.161,593.376 655.935,590.302 682.039,595.234 706.758,606.377 728.958,621.757 748.044,639.624 763.838,658.622 776.44,677.809 786.1,696.587 793.139,714.614 797.877,731.715 800.608,747.826 801.57,762.94 800.948,777.081 798.86,790.281 795.37,802.569 790.484,813.955 784.157,824.423 776.302,833.92 766.793,842.343 755.478,849.517 742.193,855.184 726.792,858.966 709.178,860.345 689.371,858.64 667.583,852.997 644.331,842.433 620.552,825.947 597.701,802.756 577.76,772.659 563.076,736.493 555.965,696.491 558.117,656.28 570.007,620.283 590.609,592.603 617.611,575.864 648.055,570.607 679.076,575.499 708.429,588.118 734.682,605.804 757.144,626.254 775.677,647.755 790.492,669.185 801.979,689.886 810.592,709.524 816.782,727.97 820.95,745.212 823.433,761.303 824.496,776.324 824.334,790.365 823.075,803.514 820.789,815.85 817.492,827.437 813.149,838.323 807.679,848.534 800.956,858.072 792.813,866.898 783.04,874.93 771.392,882.016 757.593,887.915 741.36,892.253 722.433,894.486 700.632,893.844 675.957,889.285 648.726,879.481 619.761,862.881 590.604,837.944 563.658,803.603 542.128,760.005 529.579,709.327 529.031,656.194 541.854,607.095 567.03,568.609 601.324,545.195 640.345,537.847 679.875,544.389 716.771,560.915 749.224,583.356 776.551,608.426 798.827,633.907 816.549,658.509 830.397,681.6 841.083,702.952 849.274,722.558 855.557,740.518 860.425,756.977 864.283,772.084 867.46,785.98 870.218,798.787 872.771,810.608 875.297,821.526 877.947,831.603 880.86,840.882 884.169,849.386 888.013,857.117 892.541,864.055 897.92,870.154 904.346,875.335 912.045,879.48 921.284,882.416 932.373,883.901 945.666,883.602 961.556,881.069 980.454,875.7 1002.74,866.721 1028.7,853.17 1058.34,833.942 1091.21,807.927 1126.05,774.332 1160.48,733.244 1190.79,686.403 1212.19,637.895 1219.8,594.096 1210.34,562.19 1183.79,547.406 1143.8,550.556 1096.35,567.822 1047.53,592.985 1001.93,620.265 962.062,645.96 928.778,668.535 901.837,687.916 880.458,704.697 863.663,719.62 850.47,733.314 839.982,746.221 831.42,758.608 824.129,770.605 817.563,782.254 811.269,793.539 804.868,804.409 798.028,814.794 790.457,824.601 781.881,833.717 772.041,841.991 760.684,849.223 747.572,855.144 732.492,859.383 715.287,861.443 695.903,860.671 674.465,856.245 651.372,847.192 627.417,832.477 603.897,811.198 582.66,782.915 565.999,748.103 556.327,708.57 555.613,667.602 564.756,629.546 583.165,598.791 608.824,578.538 638.842,569.958 670.223,572.179 700.479,582.96 727.926,599.593 751.674,619.602 771.453,641.077 787.4,662.729 799.876,683.78 809.335,703.818 816.239,722.668 821.014,740.296 824.02,756.744 825.548,772.089 825.816,786.424 824.975,799.841 823.116,812.422 820.273,824.242 816.428,835.355 811.52,845.8 805.44,855.59 798.038,864.709 789.121,873.101 778.455,880.653 765.775,887.174 750.79,892.363 733.214,895.77 712.807,896.745 689.45,894.383 663.264,887.485 634.776,874.572 605.131,854.016 576.295,824.377 551.13,785.02 533.172,736.96 525.945,683.592 531.874,630.709 551.239,585.291 581.812,553.29 619.532,537.616 659.841,537.548 698.898,549.752 734.181,569.967 764.473,594.352 789.523,620.101 809.67,645.466 825.545,669.517 837.875,691.856 847.373,712.392 854.679,731.19 860.345,748.383 864.83,764.126 868.507,778.565 871.678,791.835 874.589,804.046 877.444,815.29 880.416,825.633 883.662,835.121 887.334,843.778 891.583,851.603 896.573,858.571 902.488,864.627 909.536,869.677 917.96,873.583 928.038,876.146 940.093,877.089 954.485,876.035 971.596,872.48 991.809,865.763 1015.44,855.056 1042.62,839.37 1073.16,817.642 1106.24,788.948 1140.16,752.91 1172.02,710.329 1197.74,663.908 1212.61,618.621 1212.54,581.07 1195.75,557.471 1163.85,551.021 1121.47,560.439 1074.54,580.878 1028.31,606.445 986.345,632.455 950.331,656.299 920.619,677.15 896.753,695.224 877.904,711.148 863.132,725.575 851.528,739.022 842.279,751.832 834.687,764.201 828.168,776.218 822.235,787.903 816.486,799.234 810.577,810.165 804.209,820.636 797.106,830.572 789.01,839.88 779.664,848.435 768.811,856.069 756.192,862.546 741.563,867.537 724.71,870.586 705.498,871.072 683.934,868.187 660.271,860.92 635.13,848.115 609.649,828.619 585.588,801.587 565.309,766.96 551.53,726.01 546.779,681.722 552.647,638.624 569.14,601.849 594.518,575.672 625.759,562.249 659.436,561.247 692.543,570.441 722.957,586.784 749.496,607.344 771.747,629.808 789.809,652.599 804.07,674.771 815.041,695.828 823.258,715.564 829.217,733.943 833.35,751.019 836.011,766.887 837.479,781.66 837.96,795.449 837.599,808.359 836.487,820.484 834.667,831.906 832.138,842.697 828.862,852.914 824.764,862.601 819.732,871.79 813.618,880.49 806.23,888.688 797.339,896.332 786.667,903.322 773.895,909.48 758.668,914.517 740.613,917.988 719.382,919.222 694.726,917.253 666.621,910.742 635.467,897.95 602.353,876.827 569.358,845.35 539.74,802.249 517.782,748.125 508.008,686.597 513.753,624.62 535.648,571.053 571.002,533.63 614.687,516.047 660.995,517.116 705.296,532.287 744.749,556.054 778.165,583.728 805.494,612.101 827.319,639.341 844.496,664.588 857.939,687.564 868.507,708.294 876.959,726.934 883.942,743.679 889.993,758.715 895.56,772.201 901.015,784.26 906.677,794.971 912.827,804.372 919.727,812.455 927.628,819.162 936.784,824.379 947.453,827.927 959.899,829.555 974.383,828.923 991.14,825.6 1010.34,819.055 1032.02,808.688 1056,793.879 1081.71,774.114 1108.09,749.2 1133.41,719.564 1155.27,686.61 1170.82,652.939 1177.27,622.205 1172.73,598.4 1156.92,584.648 1131.45,582.093 1099.44,589.557 1064.53,604.2 1029.99,622.73 998.137,642.42 970.289,661.557 946.911,679.367 927.907,695.714 912.867,710.777 901.242,724.833 892.458,738.136 885.98,750.869 881.344,763.143 878.164,775.013 876.132,786.489 875.014,797.562 874.638,808.208 874.885,818.401 875.682,828.112 876.995,837.315 878.82,845.984 881.187,854.088 884.153,861.597 887.803,868.468 892.252,874.647 897.649,880.06 904.18,884.605 912.072,888.141 921.597,890.474 933.08,891.337 946.894,890.367 963.454,887.071 983.194,880.796 1006.52,870.7 1033.69,855.739 1064.71,834.721 1098.99,806.477 1135.08,770.236 1170.25,726.281 1200.34,676.816 1220.15,626.648 1224.64,582.919 1210.88,553.156 1179.72,542.126 1135.75,549.494 1085.59,570.256 1035.43,597.574 989.568,625.721 950.117,651.402 917.562,673.525 891.42,692.322 870.766,708.548 854.549,722.997 841.754,736.298 831.473,748.869 822.931,760.948 815.478,772.64 808.577,783.961 801.78,794.874 794.709,805.309 787.038,815.166 778.473,824.323 768.746,832.622 757.61,839.86 744.837,845.764 730.236,849.976 713.676,852.023 695.131,851.296 674.748,847.042 652.93,838.394 630.438,824.451 608.477,804.461 588.726,778.109 573.235,745.893 564.135,709.471 563.164,671.758 571.136,636.569 587.588,607.781 610.811,588.302 638.292,579.339 667.352,580.327 695.689,589.437 721.673,604.322 744.375,622.74 763.435,642.891 778.894,663.503 791.02,683.77 800.193,703.234 806.814,721.67 811.261,739.001 813.858,755.233 814.866,770.413 814.476,784.608 812.815,797.888 809.948,810.311 805.886,821.926 800.583,832.755 793.949,842.794 785.849,852.002 776.106,860.286 764.513,867.484 750.841,873.343 734.865,877.483 716.396,879.363 695.345,878.242 671.814,873.148 646.22,862.894 619.461,846.167 593.068,821.771 569.286,789.062 550.949,748.562 541.048,702.55 541.953,655.257 554.566,612.227 577.818,578.847 608.884,558.652 644.047,552.38 679.735,558.242 713.23,573.041 742.896,593.377 768.044,616.425 788.648,640.196 805.072,663.47 817.864,685.598 827.62,706.3 834.91,725.512 840.238,743.288 844.027,759.733 846.62,774.971 848.284,789.128 849.221,802.323 849.578,814.661 849.455,826.237 848.915,837.133 847.991,847.42 846.686,857.16 844.984,866.409 842.842,875.216 840.198,883.622 836.966,891.665 833.034,899.376 828.262,906.778 822.473,913.881 815.453,920.678 806.941,927.134 796.625,933.17 784.133,938.638 769.043,943.285 750.885,946.697 729.176,948.227 703.49,946.886 673.581,941.233 639.606,929.275 602.451,908.465 564.164,875.982 528.337,829.505 500.149,768.663 485.574,696.849 489.523,622.253 513.534,556.442 554.543,510.148 605.94,488.692 660.274,490.449 711.678,509.099 756.807,537.25 794.497,568.943 824.966,600.398 849.12,629.679 868.101,656.04 883.054,679.38 895.016,699.883 904.881,717.823 913.399,733.471 921.187,747.05 928.756,758.724 936.53,768.593 944.862,776.691 954.059,782.988 964.382,787.39 976.056,789.737 989.26,789.804 1004.11,787.312 1020.63,781.941 1038.7,773.364 1057.99,761.316 1077.92,745.683 1097.54,726.645 1115.55,704.831 1130.37,681.444 1140.28,658.286 1143.76,637.575 1139.9,621.53 1128.68,611.823 1111.07,609.117 1088.86,612.936 1064.16,621.92 1039.03,634.332 1015.13,648.539 993.563,663.308 974.951,677.874 959.498,691.858 947.143,705.137 937.666,717.716 930.779,729.644 926.184,740.967 923.608,751.699 922.825,761.824 923.664,771.294 926.012,780.031 929.815,787.932 935.07,794.869 941.822,800.681 950.159,805.176 960.199,808.115 972.08,809.209 985.939,808.112 1001.88,804.414 1019.94,797.657 1039.99,787.365 1061.69,773.116 1084.38,754.659 1106.92,732.101 1127.73,706.129 1144.78,678.218 1155.85,650.679 1158.99,626.414 1153.08,608.305 1138.27,598.391 1116.02,597.234 1088.79,603.817 1059.35,616.059 1030.19,631.588 1003.13,648.402 979.279,665.162 959.101,681.175 942.622,696.213 929.596,710.304 919.645,723.579 912.352,736.175 907.319,748.194 904.197,759.69 902.703,770.675 902.621,781.128 903.804,791.001 906.165,800.229 909.677,808.73 914.366,816.404 920.306,823.131 927.617,828.759 936.463,833.1 947.045,835.912 959.591,836.888 974.345,835.637 991.538,831.675 1011.34,824.417 1033.79,813.201 1058.69,797.342 1085.43,776.272 1112.86,749.776 1139.1,718.327 1161.53,683.485 1177.07,648.135 1182.75,616.3 1176.63,592.282 1158.64,579.291 1130.76,578.251 1096.49,587.544 1059.75,603.893 1023.92,623.732 991.287,644.271 963.049,663.874 939.541,681.894 920.551,698.311 905.578,713.387 894.011,727.448 885.232,740.771 878.677,753.549 873.859,765.896 870.377,777.866 867.909,789.473 866.204,800.71 865.071,811.558 864.368,822.001 863.995,832.022 863.878,841.61 863.97,850.759 864.245,859.467 864.688,867.735 865.3,875.568 866.091,882.969 867.083,889.943 868.308,896.493 869.81,902.617 871.643,908.313 873.88,913.568 876.61,918.364 879.942,922.671 884.014,926.442 888.997,929.611 895.098,932.081 902.574,933.717 911.737,934.325 922.965,933.635 936.706,931.269 953.48,926.7 973.864,919.203 998.448,907.799 1027.75,891.211 1062.01,867.871 1100.9,836.063 1143.04,794.335 1185.4,742.352 1222.84,682.219 1248.4,619.81 1254.88,564.831 1237.89,528.129 1198.51,516.581 1143.42,529.164 1081.92,557.881 1022.12,592.7 968.991,626.09 924.467,654.475 888.492,677.303 860.03,695.516 837.715,710.434 820.18,723.21 806.191,734.657 794.698,745.267 784.831,755.284 775.882,764.777 767.284,773.704 758.584,781.951 749.424,789.35 739.529,795.692 728.698,800.728 716.807,804.16 703.818,805.648 689.802,804.803 674.964,801.21 659.677,794.463 644.508,784.224 630.226,770.327 617.78,752.894 608.218,732.465 602.544,710.074 601.538,687.228 605.567,665.748 614.466,647.464 627.535,633.875 643.661,625.866 661.532,623.602 679.855,626.611 697.533,633.996 713.744,644.683 727.961,657.618 739.909,671.891 749.503,686.783 756.784,701.764 761.865,716.46 764.891,730.621 766.002,744.077 765.325,756.713 762.953,768.437 758.952,779.168 753.352,788.808 746.163,797.237 737.378,804.295 726.992,809.767 715.021,813.377 701.533,814.778 686.685,813.552 670.764,809.236 654.238,801.355 637.797,789.513 622.371,773.509 609.098,753.502 599.222,730.164 593.918,704.784 594.046,679.223 599.932,655.676 611.234,636.269 626.983,622.623 645.768,615.537 666.029,614.928 686.315,620.006 705.469,629.578 722.691,642.347 737.523,657.132 749.778,672.975 759.46,689.161 766.69,705.194 771.642,720.747 774.504,735.617 775.45,749.68 774.621,762.859 772.119,775.099 768.004,786.344 762.297,796.526 754.987,805.546 746.037,813.261 735.404,819.469 723.055,823.897 708.999,826.184 693.323,825.88 676.245,822.447 658.171,815.297 639.76,803.865 621.962,787.736 606.023,766.831 593.398,741.632 585.567,713.359 583.748,684.013 588.581,656.167 599.903,632.497 616.725,615.188 637.438,605.456 660.168,603.378 683.144,608.08 704.942,618.126 724.589,631.928 741.544,648.044 755.604,665.323 766.803,682.93 775.311,700.308 781.364,717.108 785.21,733.134 787.074,748.283 787.144,762.508 785.555,775.789 782.396,788.115 777.7,799.462 771.458,809.784 763.619,819.001 754.106,826.978 742.823,833.515 729.682,838.327 714.627,841.024 697.681,841.098 679.001,837.917 658.956,830.753 638.205,818.845 617.775,801.549 599.091,778.561 583.902,750.219 574.071,717.79 571.211,683.593 576.246,650.789 589.075,622.78 608.505,602.379 632.528,591.125 658.807,589.039 685.175,594.902 709.956,606.82 732.07,622.788 750.978,641.061 766.55,660.316 778.917,679.648 788.355,698.494 795.196,716.537 799.767,733.624 802.363,749.703 803.223,764.778 802.528,778.88 800.394,792.047 796.882,804.308 791.992,815.68 785.679,826.15 777.849,835.666 768.372,844.13 757.09,851.374 743.831,857.14 728.437,861.058 710.799,862.612 690.917,861.118 668.981,855.716 645.483,845.4 621.337,829.13 597.989,806.06 577.433,775.909 562.066,739.431 554.29,698.811 555.91,657.698 567.504,620.628 588.1,591.885 615.371,574.271 646.286,568.435 677.882,573.061 707.83,585.667 734.637,603.508 757.585,624.195 776.529,645.958 791.685,667.64 803.457,688.565 812.316,708.395 818.726,727.001 823.105,744.376 825.802,760.576 827.094,775.69 827.187,789.811 826.22,803.033 824.274,815.44 821.374,827.104 817.497,838.08 812.575,848.406 806.496,858.096 799.104,867.134 790.201,875.465 779.551,882.977 766.88,889.484 751.892,894.686 734.29,898.136 713.821,899.183 690.351,896.918 663.98,890.131 635.218,877.316 605.195,856.801 575.879,827.077 550.166,787.432 531.665,738.814 524.009,684.612 529.737,630.717 549.197,584.294 580.144,551.505 618.429,535.389 659.371,535.231 699.032,547.6 734.835,568.11 765.545,592.819 790.92,618.86 811.319,644.459 827.394,668.682 839.892,691.137 849.542,711.741 857.001,730.568 862.832,747.758 867.503,763.468 871.399,777.85 874.831,791.036 878.054,803.136 881.282,814.236 884.703,824.399 888.486,833.661 892.799,842.034 897.813,849.502 903.714,856.019 910.711,861.5 919.039,865.814 928.971,868.774 940.815,870.116 954.912,869.479 971.628,866.384 991.318,860.208 1014.28,850.168 1040.63,835.338 1070.17,814.725 1102.16,787.466 1135,753.2 1166,712.642 1191.37,668.234 1206.7,624.512 1208.06,587.585 1193.54,563.383 1164.33,555.26 1124.53,562.5 1079.63,580.909 1034.77,605.014 993.548,630.21 957.835,653.757 928.156,674.626 904.196,692.871 885.223,709.015 870.36,723.661 858.738,737.306 849.565,750.296 842.159,762.833 835.945,775.017 830.447,786.881 825.27,798.413 820.082,809.585 814.593,820.353 808.546,830.667 801.692,840.465 793.788,849.669 784.583,858.171 773.816,865.818 761.216,872.392 746.509,877.574 729.446,880.914 709.838,881.787 687.629,879.351 662.999,872.527 636.509,860.03 609.269,840.508 583.085,812.85 560.49,776.711 544.52,733.171 538.128,685.277 543.313,637.977 560.306,597.125 587.286,567.757 620.889,552.505 657.236,551.061 692.932,560.871 725.615,578.43 754.018,600.402 777.742,624.212 796.956,648.156 812.133,671.246 823.87,692.998 832.778,713.237 839.418,731.962 844.277,749.256 847.759,765.242 850.186,780.05 851.809,793.806 852.818,806.626 853.353,818.611 853.511,829.851 853.359,840.423 852.935,850.395 852.257,859.825 851.325,868.764 850.122,877.258 848.617,885.349 846.761,893.076 844.492,900.474 841.726,907.574 838.359,914.409 834.263,921.001 829.274,927.37 823.197,933.524 815.788,939.449 806.753,945.104 795.74,950.396 782.329,955.153 766.042,959.08 746.347,961.689 722.705,962.208 694.657,959.455 661.981,951.696 624.982,936.537 584.902,910.967 544.443,871.791 508.168,816.751 482.331,746.45 473.556,666.449 486.308,587.752 520.37,523.834 570.353,484.926 627.971,473.597 685.405,485.021 737.432,510.884 781.678,543.35 817.806,576.961 846.583,608.703 869.216,637.297 886.993,662.441 901.107,684.297 912.598,703.182 922.341,719.431 931.054,733.325 939.322,745.079 947.622,754.829 956.341,762.642 965.793,768.514 976.232,772.376 987.851,774.102 1000.78,773.513 1015.05,770.395 1030.61,764.524 1047.22,755.711 1064.47,743.869 1081.68,729.098 1097.92,711.796 1112.03,692.751 1122.69,673.183 1128.65,654.678 1128.94,638.969 1123.18,627.596 1111.68,621.546 1095.44,621.026 1075.95,625.474 1054.88,633.797 1033.75,644.714 1013.81,657.053 995.895,669.921 980.472,682.738 967.727,695.181 957.643,707.101 950.082,718.446 944.849,729.195 941.737,739.33 940.559,748.815 941.16,757.588 943.429,765.56 947.301,772.616 952.753,778.61 959.8,783.367 968.484,786.677 978.865,788.293 990.997,787.93 1004.91,785.266 1020.55,779.956 1037.77,771.667 1056.24,760.125 1075.36,745.209 1094.26,727.07 1111.71,706.274 1126.21,683.917 1136.17,661.647 1140.13,641.516 1137.17,625.61 1127.18,615.559 1110.99,612.105 1090.17,614.936 1066.71,622.888 1042.55,634.373 1019.33,647.839 998.191,662.063 979.799,676.245 964.421,689.96 952.049,703.038 942.51,715.451 935.551,727.223 930.896,738.386 928.289,748.946 927.515,758.882 928.407,768.141 930.857,776.639 934.809,784.27 940.26,790.895 947.249,796.347 955.857,800.423 966.188,802.876 978.362,803.41 992.485,801.674 1008.62,797.267 1026.73,789.754 1046.63,778.71 1067.88,763.8 1089.68,744.909 1110.83,722.326 1129.7,696.942 1144.31,670.395 1152.66,645.036 1153.14,623.593 1145.05,608.546 1128.89,601.414 1106.32,602.308 1079.73,610.008 1051.65,622.499 1024.26,637.665 999.118,653.798 977.126,669.792 958.64,685.091 943.642,699.515 931.888,713.092 923.028,725.925 916.688,738.117 912.512,749.739 910.197,760.818 909.499,771.345 910.242,781.281 912.312,790.561 915.657,799.098 920.279,806.788 926.233,813.5 933.62,819.074 942.582,823.311 953.297,825.961 965.966,826.711 980.794,825.173 997.961,820.872 1017.57,813.258 1039.57,801.729 1063.67,785.706 1089.14,764.78 1114.76,738.94 1138.63,708.884 1158.27,676.328 1170.89,644.127 1174.03,615.971 1166.28,595.537 1147.93,585.324 1121.02,585.768 1088.75,595.211 1054.61,610.726 1021.5,629.258 991.408,648.449 965.368,666.904 943.682,684.056 926.173,699.855 912.412,714.494 901.864,728.228 893.987,741.275 888.285,753.785 884.335,765.845 881.787,777.49 880.371,788.721 879.886,799.517 880.19,809.849 881.196,819.682 882.861,828.978 885.183,837.697 888.196,845.796 891.971,853.223 896.612,859.912 902.257,865.78 909.086,870.712 917.319,874.558 927.221,877.109 939.101,878.085 953.312,877.11 970.237,873.68 990.258,867.143 1013.7,856.673 1040.71,841.283 1071.14,819.899 1104.21,791.567 1138.29,755.845 1170.54,713.43 1196.94,666.893 1212.72,621.1 1213.7,582.648 1197.86,557.912 1166.62,550.376 1124.5,559.018 1077.45,579.096 1030.85,604.65 988.389,630.845 951.865,654.934 921.685,676.004 897.419,694.243 878.241,710.274 863.207,724.763 851.398,738.242 841.988,751.066 834.27,763.44 827.65,775.458 821.634,787.141 815.813,798.47 809.838,809.397 803.406,819.862 796.239,829.786 788.077,839.073 778.661,847.596 767.735,855.182 755.044,861.591 740.345,866.488 723.433,869.41 704.183,869.732 682.616,866.64 659.005,859.128 633.997,846.052 608.754,826.288 585.052,799.044 565.251,764.334 552.036,723.512 547.862,679.618 554.223,637.172 571.034,601.218 596.503,575.88 627.618,563.17 661.006,562.661 693.734,572.115 723.742,588.529 749.895,609.032 771.802,631.371 789.569,654.012 803.58,676.033 814.341,696.953 822.378,716.569 828.176,734.848 832.157,751.841 834.668,767.642 835.978,782.36 836.286,796.105 835.731,808.98 834.394,821.075 832.31,832.472 829.471,843.238 825.827,853.427 821.293,863.078 815.743,872.213 809.015,880.833 800.903,888.905 791.158,896.355 779.489,903.046 765.565,908.748 749.031,913.101 729.533,915.556 706.778,915.311 680.628,911.238 651.262,901.827 619.4,885.21 586.583,859.366 555.431,822.623 529.674,774.574 513.717,717.22 511.542,655.78 525.195,598.198 553.663,552.89 592.99,525.649 637.704,517.684 682.63,526.019 724.078,545.559 760.085,571.216 790.068,599.102 814.307,626.756 833.517,652.874 848.571,676.905 860.34,698.73 869.619,718.436 877.096,736.195 883.351,752.196 888.864,766.61 894.034,779.581 899.196,791.214 904.639,801.576 910.625,810.695 917.398,818.554 925.204,825.086 934.291,830.174 944.92,833.632 957.363,835.203 971.893,834.54 988.765,831.194 1008.17,824.618 1030.19,814.173 1054.67,799.19 1081.08,779.087 1108.36,753.587 1134.77,723.044 1157.82,688.826 1174.5,653.592 1181.8,621.19 1177.59,595.907 1161.49,581.175 1135.16,578.304 1101.88,586.066 1065.54,601.399 1029.62,620.746 996.574,641.182 967.753,660.902 943.614,679.122 924.023,695.74 908.519,710.982 896.509,725.168 887.379,738.579 880.558,751.419 875.553,763.814 871.952,775.822 869.424,787.464 867.714,798.732 866.624,809.61 866.011,820.078 865.771,830.119 865.835,839.719 866.16,848.869 866.724,857.563 867.523,865.799 868.567,873.575 869.883,880.891 871.511,887.741 873.506,894.118 875.939,900.01 878.903,905.394 882.512,910.235 886.907,914.484 892.265,918.066 898.8,920.876 906.776,922.765 916.511,923.524 928.387,922.861 942.85,920.368 960.41,915.484 981.617,907.446 1007,895.24 1036.98,877.575 1071.61,852.928 1110.31,819.741 1151.33,776.916 1191.24,724.735 1224.69,666.112 1244.93,607.588 1245.7,558.773 1224.06,529.192 1182.38,523.614 1127.72,539.405 1068.71,568.434 1012.39,601.725 962.859,633.028 921.547,659.608 888.229,681.231 861.875,698.832 841.194,713.594 824.906,726.52 811.862,738.305 801.08,749.362 791.746,759.886 783.193,769.927 774.882,779.435 766.373,788.299 757.314,796.36 747.419,803.419 736.468,809.231 724.303,813.501 710.843,815.874 696.107,815.93 680.246,813.195 663.582,807.161 646.658,797.353 630.261,783.425 615.426,765.304 603.369,743.364 595.344,718.564 592.429,692.5 595.269,667.268 603.884,645.129 617.609,628.063 635.208,617.349 655.134,613.366 675.82,615.644 695.92,623.137 714.431,634.539 730.718,648.567 744.464,664.122 755.587,680.353 764.162,696.652 770.348,712.609 774.337,727.965 776.316,742.56 776.449,756.302 774.862,769.13 771.638,780.995 766.82,791.84 760.41,801.59 752.382,810.13 742.691,817.296 731.289,822.859 718.151,826.508 703.306,827.842 686.883,826.367 669.164,821.508 650.648,812.659 632.113,799.275 614.646,781.034 599.615,758.039 588.545,731.052 582.886,701.634 583.687,672.101 591.299,645.195 605.206,623.53 624.104,608.985 646.19,602.328 669.553,603.196 692.507,610.398 713.79,622.349 732.606,637.46 748.566,654.374 761.584,672.056 771.767,689.787 779.332,707.103 784.53,723.728 787.612,739.513 788.795,754.387 788.249,768.322 786.096,781.308 782.401,793.336 777.183,804.381 770.414,814.39 762.028,823.269 751.935,830.868 740.034,836.963 726.232,841.238 710.485,843.266 692.839,842.493 673.499,838.241 652.903,829.743 631.815,816.227 611.392,797.088 593.193,772.149 579.075,741.981 570.923,708.171 570.245,673.381 577.72,641.009 592.914,614.471 614.314,596.337 639.7,587.726 666.675,588.221 693.148,596.282 717.588,609.865 739.08,626.962 757.227,645.912 772.002,665.503 783.606,684.935 792.351,703.731 798.585,721.637 802.639,738.54 804.801,754.417 805.301,769.288 804.304,783.193 801.917,796.175 798.184,808.269 793.097,819.489 786.595,829.823 778.575,839.217 768.897,847.57 757.389,854.706 743.872,860.362 728.177,864.152 710.186,865.544 689.898,863.825 667.508,858.1 643.529,847.321 618.916,830.406 595.18,806.479 574.405,775.27 559.087,737.61 551.703,695.839 554.065,653.821 566.677,616.293 588.412,587.636 616.769,570.599 648.58,565.654 680.819,571.272 711.159,584.799 738.155,603.393 761.149,624.64 780.054,646.788 795.132,668.714 806.821,689.779 815.615,709.677 821.994,728.302 826.385,745.665 829.143,761.836 830.552,776.909 830.82,790.988 830.094,804.169 828.459,816.542 825.948,828.184 822.548,839.158 818.201,849.511 812.806,859.269 806.224,868.436 798.269,876.985 788.718,884.841 777.303,891.871 763.726,897.853 747.664,902.438 728.805,905.105 706.897,905.102 681.84,901.379 653.831,892.557 623.562,876.95 592.466,852.76 562.929,818.523 "/>
</svg>
