<?xml version="1.0" encoding="utf-8"?>
<svg xmlns="http://www.w3.org/2000/svg" xmlns:xlink="http://www.w3.org/1999/xlink" width="420" height="360" viewBox="0 0 1680 1440">
<defs>
  <clipPath id="clip210">
    <rect x="0" y="0" width="1680" height="1440"/>
  </clipPath>
</defs>
<path clip-path="url(#clip210)" d="M0 1440 L1680 1440 L1680 0 L0 0  Z" fill="#ffffff" fill-rule="evenodd" fill-opacity="1"/>
<defs>
  <clipPath id="clip211">
    <rect x="134" y="140" width="1499" height="1178"/>
  </clipPath>
</defs>
<path clip-path="url(#clip210)" d="M171.667 1318.17 L1632.76 1318.17 L1632.76 140.752 L171.667 140.752  Z" fill="#ffffff" fill-rule="evenodd" fill-opacity="1"/>
<defs>
  <clipPath id="clip212">
    <rect x="171" y="140" width="1462" height="1178"/>
  </clipPath>
</defs>
<polyline clip-path="url(#clip212)" style="stroke:#000000; stroke-linecap:round; stroke-linejoin:round; stroke-width:2; stroke-opacity:0.1; fill:none" points="500.416,1318.17 500.416,140.752 "/>
<polyline clip-path="url(#clip212)" style="stroke:#000000; stroke-linecap:round; stroke-linejoin:round; stroke-width:2; stroke-opacity:0.1; fill:none" points="870.358,1318.17 870.358,140.752 "/>
<polyline clip-path="url(#clip212)" style="stroke:#000000; stroke-linecap:round; stroke-linejoin:round; stroke-width:2; stroke-opacity:0.1; fill:none" points="1240.3,1318.17 1240.3,140.752 "/>
<polyline clip-path="url(#clip212)" style="stroke:#000000; stroke-linecap:round; stroke-linejoin:round; stroke-width:2; stroke-opacity:0.1; fill:none" points="1610.24,1318.17 1610.24,140.752 "/>
<polyline clip-path="url(#clip212)" style="stroke:#000000; stroke-linecap:round; stroke-linejoin:round; stroke-width:2; stroke-opacity:0.1; fill:none" points="171.667,1204.07 1632.76,1204.07 "/>
<polyline clip-path="url(#clip212)" style="stroke:#000000; stroke-linecap:round; stroke-linejoin:round; stroke-width:2; stroke-opacity:0.1; fill:none" points="171.667,985.772 1632.76,985.772 "/>
<polyline clip-path="url(#clip212)" style="stroke:#000000; stroke-linecap:round; stroke-linejoin:round; stroke-width:2; stroke-opacity:0.1; fill:none" points="171.667,767.474 1632.76,767.474 "/>
<polyline clip-path="url(#clip212)" style="stroke:#000000; stroke-linecap:round; stroke-linejoin:round; stroke-width:2; stroke-opacity:0.1; fill:none" points="171.667,549.176 1632.76,549.176 "/>
<polyline clip-path="url(#clip212)" style="stroke:#000000; stroke-linecap:round; stroke-linejoin:round; stroke-width:2; stroke-opacity:0.1; fill:none" points="171.667,330.878 1632.76,330.878 "/>
<polyline clip-path="url(#clip210)" style="stroke:#000000; stroke-linecap:round; stroke-linejoin:round; stroke-width:4; stroke-opacity:1; fill:none" points="171.667,1318.17 1632.76,1318.17 "/>
<polyline clip-path="url(#clip210)" style="stroke:#000000; stroke-linecap:round; stroke-linejoin:round; stroke-width:4; stroke-opacity:1; fill:none" points="500.416,1318.17 500.416,1299.28 "/>
<polyline clip-path="url(#clip210)" style="stroke:#000000; stroke-linecap:round; stroke-linejoin:round; stroke-width:4; stroke-opacity:1; fill:none" points="870.358,1318.17 870.358,1299.28 "/>
<polyline clip-path="url(#clip210)" style="stroke:#000000; stroke-linecap:round; stroke-linejoin:round; stroke-width:4; stroke-opacity:1; fill:none" points="1240.3,1318.17 1240.3,1299.28 "/>
<polyline clip-path="url(#clip210)" style="stroke:#000000; stroke-linecap:round; stroke-linejoin:round; stroke-width:4; stroke-opacity:1; fill:none" points="1610.24,1318.17 1610.24,1299.28 "/>
<path clip-path="url(#clip210)" d="M454.479 1357.98 L484.155 1357.98 L484.155 1361.92 L454.479 1361.92 L454.479 1357.98 Z" fill="#000000" fill-rule="nonzero" fill-opacity="1" /><path clip-path="url(#clip210)" d="M495.058 1370.88 L502.696 1370.88 L502.696 1344.51 L494.386 1346.18 L494.386 1341.92 L502.65 1340.25 L507.326 1340.25 L507.326 1370.88 L514.965 1370.88 L514.965 1374.81 L495.058 1374.81 L495.058 1370.88 Z" fill="#000000" fill-rule="nonzero" fill-opacity="1" /><path clip-path="url(#clip210)" d="M534.409 1343.33 Q530.798 1343.33 528.969 1346.9 Q527.164 1350.44 527.164 1357.57 Q527.164 1364.67 528.969 1368.24 Q530.798 1371.78 534.409 1371.78 Q538.043 1371.78 539.849 1368.24 Q541.678 1364.67 541.678 1357.57 Q541.678 1350.44 539.849 1346.9 Q538.043 1343.33 534.409 1343.33 M534.409 1339.63 Q540.219 1339.63 543.275 1344.24 Q546.354 1348.82 546.354 1357.57 Q546.354 1366.3 543.275 1370.9 Q540.219 1375.48 534.409 1375.48 Q528.599 1375.48 525.52 1370.9 Q522.465 1366.3 522.465 1357.57 Q522.465 1348.82 525.52 1344.24 Q528.599 1339.63 534.409 1339.63 Z" fill="#000000" fill-rule="nonzero" fill-opacity="1" /><path clip-path="url(#clip210)" d="M870.358 1343.33 Q866.747 1343.33 864.918 1346.9 Q863.113 1350.44 863.113 1357.57 Q863.113 1364.67 864.918 1368.24 Q866.747 1371.78 870.358 1371.78 Q873.992 1371.78 875.798 1368.24 Q877.627 1364.67 877.627 1357.57 Q877.627 1350.44 875.798 1346.9 Q873.992 1343.33 870.358 1343.33 M870.358 1339.63 Q876.168 1339.63 879.224 1344.24 Q882.303 1348.82 882.303 1357.57 Q882.303 1366.3 879.224 1370.9 Q876.168 1375.48 870.358 1375.48 Q864.548 1375.48 861.469 1370.9 Q858.414 1366.3 858.414 1357.57 Q858.414 1348.82 861.469 1344.24 Q864.548 1339.63 870.358 1339.63 Z" fill="#000000" fill-rule="nonzero" fill-opacity="1" /><path clip-path="url(#clip210)" d="M1214.99 1370.88 L1222.63 1370.88 L1222.63 1344.51 L1214.32 1346.18 L1214.32 1341.92 L1222.58 1340.25 L1227.26 1340.25 L1227.26 1370.88 L1234.89 1370.88 L1234.89 1374.81 L1214.99 1374.81 L1214.99 1370.88 Z" fill="#000000" fill-rule="nonzero" fill-opacity="1" /><path clip-path="url(#clip210)" d="M1254.34 1343.33 Q1250.73 1343.33 1248.9 1346.9 Q1247.09 1350.44 1247.09 1357.57 Q1247.09 1364.67 1248.9 1368.24 Q1250.73 1371.78 1254.34 1371.78 Q1257.97 1371.78 1259.78 1368.24 Q1261.61 1364.67 1261.61 1357.57 Q1261.61 1350.44 1259.78 1346.9 Q1257.97 1343.33 1254.34 1343.33 M1254.34 1339.63 Q1260.15 1339.63 1263.2 1344.24 Q1266.28 1348.82 1266.28 1357.57 Q1266.28 1366.3 1263.2 1370.9 Q1260.15 1375.48 1254.34 1375.48 Q1248.53 1375.48 1245.45 1370.9 Q1242.39 1366.3 1242.39 1357.57 Q1242.39 1348.82 1245.45 1344.24 Q1248.53 1339.63 1254.34 1339.63 Z" fill="#000000" fill-rule="nonzero" fill-opacity="1" /><path clip-path="url(#clip210)" d="M1589.02 1370.88 L1605.33 1370.88 L1605.33 1374.81 L1583.39 1374.81 L1583.39 1370.88 Q1586.05 1368.12 1590.64 1363.49 Q1595.24 1358.84 1596.42 1357.5 Q1598.67 1354.98 1599.55 1353.24 Q1600.45 1351.48 1600.45 1349.79 Q1600.45 1347.04 1598.51 1345.3 Q1596.58 1343.56 1593.48 1343.56 Q1591.28 1343.56 1588.83 1344.33 Q1586.4 1345.09 1583.62 1346.64 L1583.62 1341.92 Q1586.45 1340.79 1588.9 1340.21 Q1591.35 1339.63 1593.39 1339.63 Q1598.76 1339.63 1601.95 1342.31 Q1605.15 1345 1605.15 1349.49 Q1605.15 1351.62 1604.34 1353.54 Q1603.55 1355.44 1601.45 1358.03 Q1600.87 1358.7 1597.77 1361.92 Q1594.66 1365.11 1589.02 1370.88 Z" fill="#000000" fill-rule="nonzero" fill-opacity="1" /><path clip-path="url(#clip210)" d="M1625.15 1343.33 Q1621.54 1343.33 1619.71 1346.9 Q1617.9 1350.44 1617.9 1357.57 Q1617.9 1364.67 1619.71 1368.24 Q1621.54 1371.78 1625.15 1371.78 Q1628.78 1371.78 1630.59 1368.24 Q1632.42 1364.67 1632.42 1357.57 Q1632.42 1350.44 1630.59 1346.9 Q1628.78 1343.33 1625.15 1343.33 M1625.15 1339.63 Q1630.96 1339.63 1634.01 1344.24 Q1637.09 1348.82 1637.09 1357.57 Q1637.09 1366.3 1634.01 1370.9 Q1630.96 1375.48 1625.15 1375.48 Q1619.34 1375.48 1616.26 1370.9 Q1613.2 1366.3 1613.2 1357.57 Q1613.2 1348.82 1616.26 1344.24 Q1619.34 1339.63 1625.15 1339.63 Z" fill="#000000" fill-rule="nonzero" fill-opacity="1" /><polyline clip-path="url(#clip210)" style="stroke:#000000; stroke-linecap:round; stroke-linejoin:round; stroke-width:4; stroke-opacity:1; fill:none" points="171.667,1318.17 171.667,140.752 "/>
<polyline clip-path="url(#clip210)" style="stroke:#000000; stroke-linecap:round; stroke-linejoin:round; stroke-width:4; stroke-opacity:1; fill:none" points="171.667,1204.07 190.564,1204.07 "/>
<polyline clip-path="url(#clip210)" style="stroke:#000000; stroke-linecap:round; stroke-linejoin:round; stroke-width:4; stroke-opacity:1; fill:none" points="171.667,985.772 190.564,985.772 "/>
<polyline clip-path="url(#clip210)" style="stroke:#000000; stroke-linecap:round; stroke-linejoin:round; stroke-width:4; stroke-opacity:1; fill:none" points="171.667,767.474 190.564,767.474 "/>
<polyline clip-path="url(#clip210)" style="stroke:#000000; stroke-linecap:round; stroke-linejoin:round; stroke-width:4; stroke-opacity:1; fill:none" points="171.667,549.176 190.564,549.176 "/>
<polyline clip-path="url(#clip210)" style="stroke:#000000; stroke-linecap:round; stroke-linejoin:round; stroke-width:4; stroke-opacity:1; fill:none" points="171.667,330.878 190.564,330.878 "/>
<path clip-path="url(#clip210)" d="M54.5921 1204.52 L84.2679 1204.52 L84.2679 1208.46 L54.5921 1208.46 L54.5921 1204.52 Z" fill="#000000" fill-rule="nonzero" fill-opacity="1" /><path clip-path="url(#clip210)" d="M98.3882 1217.41 L114.708 1217.41 L114.708 1221.35 L92.7632 1221.35 L92.7632 1217.41 Q95.4252 1214.66 100.009 1210.03 Q104.615 1205.38 105.796 1204.04 Q108.041 1201.51 108.921 1199.78 Q109.823 1198.02 109.823 1196.33 Q109.823 1193.57 107.879 1191.84 Q105.958 1190.1 102.856 1190.1 Q100.657 1190.1 98.203 1190.86 Q95.7725 1191.63 92.9947 1193.18 L92.9947 1188.46 Q95.8188 1187.32 98.2724 1186.74 Q100.726 1186.16 102.763 1186.16 Q108.134 1186.16 111.328 1188.85 Q114.522 1191.54 114.522 1196.03 Q114.522 1198.16 113.712 1200.08 Q112.925 1201.98 110.819 1204.57 Q110.24 1205.24 107.138 1208.46 Q104.036 1211.65 98.3882 1217.41 Z" fill="#000000" fill-rule="nonzero" fill-opacity="1" /><path clip-path="url(#clip210)" d="M134.522 1189.87 Q130.911 1189.87 129.082 1193.43 Q127.277 1196.98 127.277 1204.1 Q127.277 1211.21 129.082 1214.78 Q130.911 1218.32 134.522 1218.32 Q138.156 1218.32 139.962 1214.78 Q141.791 1211.21 141.791 1204.1 Q141.791 1196.98 139.962 1193.43 Q138.156 1189.87 134.522 1189.87 M134.522 1186.16 Q140.332 1186.16 143.388 1190.77 Q146.467 1195.35 146.467 1204.1 Q146.467 1212.83 143.388 1217.44 Q140.332 1222.02 134.522 1222.02 Q128.712 1222.02 125.633 1217.44 Q122.578 1212.83 122.578 1204.1 Q122.578 1195.35 125.633 1190.77 Q128.712 1186.16 134.522 1186.16 Z" fill="#000000" fill-rule="nonzero" fill-opacity="1" /><path clip-path="url(#clip210)" d="M54.5921 986.223 L84.2679 986.223 L84.2679 990.158 L54.5921 990.158 L54.5921 986.223 Z" fill="#000000" fill-rule="nonzero" fill-opacity="1" /><path clip-path="url(#clip210)" d="M95.1706 999.117 L102.809 999.117 L102.809 972.751 L94.4993 974.418 L94.4993 970.159 L102.763 968.492 L107.439 968.492 L107.439 999.117 L115.078 999.117 L115.078 1003.05 L95.1706 1003.05 L95.1706 999.117 Z" fill="#000000" fill-rule="nonzero" fill-opacity="1" /><path clip-path="url(#clip210)" d="M134.522 971.571 Q130.911 971.571 129.082 975.135 Q127.277 978.677 127.277 985.807 Q127.277 992.913 129.082 996.478 Q130.911 1000.02 134.522 1000.02 Q138.156 1000.02 139.962 996.478 Q141.791 992.913 141.791 985.807 Q141.791 978.677 139.962 975.135 Q138.156 971.571 134.522 971.571 M134.522 967.867 Q140.332 967.867 143.388 972.473 Q146.467 977.057 146.467 985.807 Q146.467 994.533 143.388 999.14 Q140.332 1003.72 134.522 1003.72 Q128.712 1003.72 125.633 999.14 Q122.578 994.533 122.578 985.807 Q122.578 977.057 125.633 972.473 Q128.712 967.867 134.522 967.867 Z" fill="#000000" fill-rule="nonzero" fill-opacity="1" /><path clip-path="url(#clip210)" d="M134.522 753.272 Q130.911 753.272 129.082 756.837 Q127.277 760.379 127.277 767.509 Q127.277 774.615 129.082 778.18 Q130.911 781.721 134.522 781.721 Q138.156 781.721 139.962 778.18 Q141.791 774.615 141.791 767.509 Q141.791 760.379 139.962 756.837 Q138.156 753.272 134.522 753.272 M134.522 749.569 Q140.332 749.569 143.388 754.175 Q146.467 758.759 146.467 767.509 Q146.467 776.235 143.388 780.842 Q140.332 785.425 134.522 785.425 Q128.712 785.425 125.633 780.842 Q122.578 776.235 122.578 767.509 Q122.578 758.759 125.633 754.175 Q128.712 749.569 134.522 749.569 Z" fill="#000000" fill-rule="nonzero" fill-opacity="1" /><path clip-path="url(#clip210)" d="M95.1706 562.521 L102.809 562.521 L102.809 536.155 L94.4993 537.822 L94.4993 533.562 L102.763 531.896 L107.439 531.896 L107.439 562.521 L115.078 562.521 L115.078 566.456 L95.1706 566.456 L95.1706 562.521 Z" fill="#000000" fill-rule="nonzero" fill-opacity="1" /><path clip-path="url(#clip210)" d="M134.522 534.974 Q130.911 534.974 129.082 538.539 Q127.277 542.081 127.277 549.21 Q127.277 556.317 129.082 559.882 Q130.911 563.423 134.522 563.423 Q138.156 563.423 139.962 559.882 Q141.791 556.317 141.791 549.21 Q141.791 542.081 139.962 538.539 Q138.156 534.974 134.522 534.974 M134.522 531.271 Q140.332 531.271 143.388 535.877 Q146.467 540.46 146.467 549.21 Q146.467 557.937 143.388 562.544 Q140.332 567.127 134.522 567.127 Q128.712 567.127 125.633 562.544 Q122.578 557.937 122.578 549.21 Q122.578 540.46 125.633 535.877 Q128.712 531.271 134.522 531.271 Z" fill="#000000" fill-rule="nonzero" fill-opacity="1" /><path clip-path="url(#clip210)" d="M98.3882 344.222 L114.708 344.222 L114.708 348.158 L92.7632 348.158 L92.7632 344.222 Q95.4252 341.468 100.009 336.838 Q104.615 332.185 105.796 330.843 Q108.041 328.32 108.921 326.584 Q109.823 324.824 109.823 323.135 Q109.823 320.38 107.879 318.644 Q105.958 316.908 102.856 316.908 Q100.657 316.908 98.203 317.672 Q95.7725 318.436 92.9947 319.986 L92.9947 315.264 Q95.8188 314.13 98.2724 313.551 Q100.726 312.973 102.763 312.973 Q108.134 312.973 111.328 315.658 Q114.522 318.343 114.522 322.834 Q114.522 324.963 113.712 326.885 Q112.925 328.783 110.819 331.375 Q110.24 332.047 107.138 335.264 Q104.036 338.459 98.3882 344.222 Z" fill="#000000" fill-rule="nonzero" fill-opacity="1" /><path clip-path="url(#clip210)" d="M134.522 316.676 Q130.911 316.676 129.082 320.241 Q127.277 323.783 127.277 330.912 Q127.277 338.019 129.082 341.584 Q130.911 345.125 134.522 345.125 Q138.156 345.125 139.962 341.584 Q141.791 338.019 141.791 330.912 Q141.791 323.783 139.962 320.241 Q138.156 316.676 134.522 316.676 M134.522 312.973 Q140.332 312.973 143.388 317.579 Q146.467 322.162 146.467 330.912 Q146.467 339.639 143.388 344.246 Q140.332 348.829 134.522 348.829 Q128.712 348.829 125.633 344.246 Q122.578 339.639 122.578 330.912 Q122.578 322.162 125.633 317.579 Q128.712 312.973 134.522 312.973 Z" fill="#000000" fill-rule="nonzero" fill-opacity="1" /><path clip-path="url(#clip210)" d="M877.946 27.2059 L861.54 49.2833 L878.797 72.576 L870.007 72.576 L856.801 54.752 L843.595 72.576 L834.804 72.576 L852.426 48.8377 L836.303 27.2059 L845.094 27.2059 L857.125 43.369 L869.156 27.2059 L877.946 27.2059 Z" fill="#000000" fill-rule="nonzero" fill-opacity="1" /><path clip-path="url(#clip210)" d="M885.562 46.9338 L918.942 46.9338 L918.942 52.7671 L885.562 52.7671 L885.562 46.9338 Z" fill="#000000" fill-rule="nonzero" fill-opacity="1" /><path clip-path="url(#clip210)" d="M949.688 76.7889 Q946.528 84.8907 943.53 87.3618 Q940.533 89.8329 935.51 89.8329 L929.555 89.8329 L929.555 83.5945 L933.93 83.5945 Q937.009 83.5945 938.71 82.1361 Q940.411 80.6778 942.477 75.2496 L943.814 71.8468 L925.463 27.2059 L933.363 27.2059 L947.541 62.6918 L961.719 27.2059 L969.618 27.2059 L949.688 76.7889 Z" fill="#000000" fill-rule="nonzero" fill-opacity="1" /><polyline clip-path="url(#clip212)" style="stroke:#009af9; stroke-linecap:round; stroke-linejoin:round; stroke-width:1.6; stroke-opacity:1; fill:none" points="907.352,745.644 909.16,734.207 914.267,721.883 922.506,707.694 934.031,690.689 949.27,669.867 968.894,644.13 993.807,612.262 1025.14,572.974 1064.2,525.056 1112.39,467.737 1170.91,401.395 1240.31,328.808 1319.56,256.979 1404.74,198.996 1487.57,174.075 1555.01,202.565 1591.4,294.427 1584.23,437.549 1530.52,599.049 1438.97,742.91 1325.66,848.235 1207.1,913.007 1095.42,946.228 997.266,959.184 914.888,960.987 847.821,957.671 794.245,952.79 751.86,948.257 718.361,945.007 691.675,943.418 670.038,943.562 652.015,945.345 636.475,948.582 622.558,953.033 609.64,958.423 597.299,964.447 585.287,970.775 573.508,977.048 561.996,982.886 550.898,987.901 540.453,991.711 530.969,993.973 522.793,994.411 516.277,992.857 511.743,989.276 509.439,983.788 509.506,976.666 511.956,968.312 516.659,959.218 523.35,949.91 531.653,940.897 541.113,932.622 551.235,925.437 561.522,919.587 571.509,915.215 580.787,912.376 589.012,911.057 595.918,911.199 601.308,912.714 605.051,915.497 607.075,919.435 607.354,924.411 605.906,930.3 602.784,936.967 598.077,944.259 591.907,951.997 584.436,959.966 575.868,967.913 566.454,975.541 556.498,982.514 546.358,988.467 536.438,993.029 527.182,995.855 519.051,996.661 512.491,995.27 507.904,991.647 505.6,985.922 505.768,978.394 508.447,969.505 513.515,959.795 520.702,949.842 529.606,940.204 539.742,931.363 550.577,923.699 561.58,917.47 572.254,912.821 582.162,909.803 590.945,908.394 598.322,908.524 604.091,910.092 608.119,912.986 610.334,917.086 610.712,922.273 609.272,928.421 606.07,935.395 601.195,943.043 594.77,951.187 586.958,959.611 577.964,968.055 568.043,976.212 557.507,983.726 546.727,990.208 536.127,995.254 526.178,998.479 517.375,999.561 510.205,998.287 505.111,994.598 502.442,988.618 502.419,980.658 505.098,971.191 510.362,960.805 517.923,950.134 527.354,939.788 538.131,930.296 549.678,922.067 561.421,915.379 572.824,910.381 583.42,907.121 592.824,905.566 600.741,905.634 606.959,907.213 611.342,910.18 613.815,914.41 614.356,919.779 612.986,926.162 609.76,933.426 604.767,941.421 598.13,949.973 590.009,958.865 580.608,967.837 570.185,976.571 559.054,984.696 547.597,991.797 536.256,997.433 525.529,1001.18 515.948,1002.66 508.043,1001.62 502.305,997.969 499.133,991.808 498.787,983.454 501.352,973.411 506.723,962.315 514.603,950.861 524.539,939.722 535.967,929.48 548.265,920.587 560.81,913.343 573.022,907.908 584.395,904.326 594.518,902.555 603.075,902.5 609.842,904.035 614.676,907.027 617.501,911.344 618.294,916.858 617.077,923.443 613.905,930.969 608.865,939.293 602.077,948.245 593.698,957.613 583.927,967.138 573.019,976.497 561.29,985.307 549.126,993.126 536.985,999.48 525.39,1003.89 514.908,1005.93 506.118,1005.29 499.567,1001.82 495.712,995.592 494.868,986.916 497.163,976.32 502.512,964.488 510.621,952.183 521.015,940.151 533.089,929.041 546.172,919.358 559.585,911.434 572.696,905.447 584.955,901.44 595.915,899.362 605.234,899.103 612.673,900.524 618.08,903.479 621.375,907.826 622.534,913.432 621.577,920.173 618.56,927.922 613.567,936.543 606.714,945.874 598.15,955.713 588.069,965.807 576.715,975.833 564.402,985.4 551.516,994.047 538.522,1001.26 525.966,1006.52 514.448,1009.32 504.599,1009.29 497.028,1006.2 492.265,1000.07 490.693,991.198 492.501,980.108 497.644,967.535 505.841,954.313 516.605,941.275 529.295,929.154 543.183,918.523 557.531,909.762 571.643,903.072 584.915,898.504 596.855,895.999 607.088,895.433 615.354,896.648 621.486,899.485 625.399,903.788 627.067,909.419 626.508,916.253 623.777,924.168 618.955,933.035 612.151,942.706 603.507,952.992 593.203,963.653 581.474,974.374 568.619,984.765 555.017,994.35 541.135,1002.59 527.531,1008.89 514.837,1012.71 503.734,1013.55 494.898,1011.12 488.944,1005.35 486.345,996.468 487.372,985.004 492.045,971.723 500.119,957.535 511.106,943.371 524.336,930.069 539.026,918.293 554.366,908.491 569.589,900.904 584.021,895.597 597.112,892.508 608.445,891.497 617.728,892.387 624.777,894.999 629.496,899.163 631.853,904.731 631.868,911.574 629.591,919.575 625.101,928.615 618.5,938.562 609.918,949.246 599.522,960.445 587.526,971.865 574.211,983.124 559.939,993.747 545.165,1003.17 530.45,1010.76 516.447,1015.88 503.88,1017.95 493.499,1016.54 486.012,1011.48 482.004,1002.89 481.857,991.272 485.689,977.389 493.322,962.224 504.293,946.82 517.915,932.143 533.353,918.98 549.72,907.877 566.161,899.136 581.917,892.853 596.363,888.97 609.022,887.331 619.56,887.739 627.765,889.988 633.526,893.889 636.803,899.279 637.613,906.023 636.005,914.004 632.055,923.115 625.857,933.241 617.531,944.235 607.223,955.906 595.126,967.988 581.491,980.124 566.651,991.854 551.037,1002.61 535.193,1011.72 519.777,1018.47 505.547,1022.19 493.318,1022.28 483.9,1018.42 478.009,1010.59 476.173,999.182 478.65,984.93 485.372,968.864 495.945,952.143 509.691,935.889 525.734,921.051 543.107,908.314 560.854,898.082 578.106,890.504 594.142,885.541 608.401,883.027 620.488,882.74 630.151,884.444 637.252,887.921 641.741,892.986 643.629,899.489 642.965,907.314 639.821,916.358 634.288,926.525 626.472,937.698 616.501,949.719 604.539,962.367 590.801,975.326 575.578,988.172 559.258,1000.35 542.349,1011.19 525.489,1019.93 509.443,1025.75 495.077,1027.94 483.296,1025.95 474.96,1019.55 470.779,1008.95 471.202,994.776 476.336,978.055 485.914,960.043 499.319,942.041 515.666,925.206 533.914,910.423 552.991,898.253 571.897,888.946 589.777,882.506 605.96,878.773 619.959,877.498 631.458,878.409 640.28,881.248 646.355,885.797 649.684,891.882 650.314,899.373 648.319,908.173 643.786,918.197 636.812,929.359 627.508,941.542 616.007,954.578 602.483,968.213 587.175,982.083 570.408,995.688 552.627,1008.38 534.417,1019.38 516.515,1027.8 499.799,1032.76 485.246,1033.48 473.856,1029.45 466.541,1020.58 463.997,1007.28 466.587,990.463 474.261,971.423 486.551,951.628 502.623,932.492 521.396,915.18 541.683,900.494 562.326,888.862 582.298,880.387 600.767,874.939 617.116,872.257 630.928,872.024 641.961,873.932 650.104,877.711 655.343,883.147 657.72,890.085 657.313,898.415 654.209,908.061 648.505,918.959 640.297,931.037 629.694,944.184 616.827,958.223 601.873,972.879 585.083,987.741 566.811,1002.24 547.551,1015.64 527.959,1027.03 508.87,1035.42 491.275,1039.81 476.274,1039.35 464.975,1033.55 458.355,1022.44 457.118,1006.63 461.555,987.303 471.479,966.016 486.23,944.446 504.77,924.121 525.835,906.212 548.096,891.449 570.312,880.135 591.431,872.242 610.634,867.523 627.348,865.624 641.218,866.173 652.064,868.828 659.831,873.312 664.551,879.417 666.302,887.002 665.183,895.981 661.295,906.301 654.733,917.922 645.591,930.794 633.966,944.821 619.976,959.834 603.79,975.551 585.655,991.535 565.934,1007.17 545.149,1021.62 524.012,1033.88 503.439,1042.81 484.535,1047.26 468.533,1046.28 456.675,1039.32 450.051,1026.46 449.422,1008.47 455.067,986.756 466.707,963.16 483.527,939.595 504.303,917.74 527.586,898.82 551.896,883.529 575.886,872.082 598.45,864.339 618.76,859.946 636.264,858.465 650.646,859.461 661.774,862.557 669.64,867.459 674.317,873.959 675.913,881.93 674.548,891.302 670.333,902.049 663.364,914.16 653.723,927.617 641.49,942.358 626.759,958.245 609.669,975.019 590.437,992.256 569.404,1009.32 547.081,1025.35 524.192,1039.22 501.703,1049.65 480.813,1055.3 462.891,1055.01 449.357,1048.04 441.489,1034.37 440.214,1014.8 445.913,990.929 458.32,964.848 476.542,938.785 499.199,914.68 524.65,893.924 551.224,877.273 577.413,864.916 601.995,856.632 624.079,851.97 643.087,850.396 658.712,851.399 670.847,854.545 679.52,859.506 684.841,866.057 686.95,874.067 685.994,883.481 682.097,894.293 675.36,906.528 665.857,920.209 653.644,935.331 638.78,951.818 621.352,969.483 601.514,987.975 579.533,1006.72 555.847,1024.87 531.119,1041.3 506.286,1054.6 482.573,1063.2 461.463,1065.62 444.575,1060.73 433.478,1048.12 429.43,1028.35 433.127,1002.99 444.529,974.355 462.831,945.068 486.588,917.529 513.974,893.527 543.063,874.078 572.083,859.483 599.581,849.515 624.491,843.639 646.128,841.207 664.127,841.593 678.37,844.264 688.904,848.816 695.869,854.974 699.448,862.577 699.823,871.56 697.152,881.928 691.554,893.733 683.106,907.047 671.852,921.934 657.811,938.414 641.007,956.425 621.498,975.764 599.424,996.029 575.065,1016.54 548.91,1036.3 521.724,1053.93 494.611,1067.74 469.026,1075.87 446.719,1076.58 429.585,1068.67 419.397,1051.93 417.484,1027.35 424.431,997.137 439.905,964.25 462.684,931.787 490.883,902.348 522.292,877.649 554.731,858.447 586.312,844.716 615.585,835.921 641.572,831.292 663.716,830.029 681.797,831.421 695.827,834.91 705.965,840.096 712.437,846.732 715.485,854.695 715.328,863.964 712.139,874.589 706.035,886.673 697.078,900.34 685.278,915.716 670.61,932.886 653.039,951.859 632.554,972.509 609.213,994.5 583.214,1017.2 554.97,1039.61 525.201,1060.25 495.016,1077.22 465.965,1088.3 440.007,1091.29 419.362,1084.47 406.214,1067.21 402.309,1040.4 408.552,1006.5 424.739,969.046 449.551,931.842 480.811,898.115 515.918,869.966 552.292,848.275 587.716,832.931 620.517,823.203 649.602,818.096 674.384,816.607 694.676,817.869 710.557,821.21 722.267,826.161 730.119,832.433 734.431,839.889 735.488,848.506 733.514,858.351 728.661,869.557 721.007,882.295 710.559,896.761 697.261,913.142 681.017,931.592 661.71,952.178 639.248,974.823 613.613,999.211 584.939,1024.68 553.61,1050.1 520.38,1073.76 486.482,1093.37 453.715,1106.16 424.418,1109.33 401.292,1100.69 387.015,1079.46 383.703,1046.91 392.372,1006.31 412.61,962.285 442.607,919.575 479.557,881.941 520.255,851.555 561.663,829.017 601.306,813.779 637.436,804.679 669.017,800.377 695.602,799.631 717.169,801.436 733.97,805.05 746.396,809.981 754.887,815.941 759.862,822.809 761.683,830.584 760.63,839.359 756.893,849.296 750.568,860.607 741.665,873.541 730.109,888.369 715.756,905.363 698.406,924.775 677.829,946.786 653.799,971.438 626.155,998.54 594.878,1027.52 560.212,1057.25 522.815,1085.87 483.928,1110.69 445.525,1128.23 410.357,1134.71 381.782,1126.85 363.312,1103.13 357.878,1064.72 367.032,1015.8 390.419,962.489 425.779,911.154 469.505,866.686 517.501,831.67 565.977,806.518 611.957,790.166 653.459,780.865 689.422,776.779 719.512,776.302 743.892,778.19 763.018,781.563 777.485,785.848 787.915,790.719 794.886,796.026 798.898,801.752 800.348,807.971 799.53,814.82 796.631,822.488 791.742,831.204 784.861,841.234 775.898,852.88 764.681,866.477 750.963,882.392 734.423,901.009 714.683,922.707 691.323,947.81 663.917,976.504 632.102,1008.7 595.676,1043.82 554.764,1080.53 510.044,1116.41 463.025,1147.7 416.311,1169.31 373.723,1175.55 340.054,1161.57 320.299,1125.48 318.412,1070.07 336.009,1002.76 371.678,933.344 421.321,870.693 479.351,820.325 540.124,783.895 598.998,760.188 652.806,746.574 699.83,740.159 739.501,738.414 772.041,739.399 798.136,741.746 818.687,744.564 834.648,747.308 846.928,749.677 856.334,751.524 863.558,752.797 869.174,753.493 873.647,753.631 877.352,753.233 880.592,752.311 883.611,750.861 886.615,748.858 889.783,746.255 893.282,742.976 897.275,738.917 901.932,733.938 907.445,727.861 914.028,720.461 921.937,711.463 931.474,700.526 943.004,687.242 956.96,671.125 973.861,651.611 994.316,628.068 1019.02,599.834 1048.75,566.295 1084.3,527.044 1126.36,482.171 1175.35,432.722 1231.05,381.375 1292.09,333.212 1355.32,296.242 1415.31,280.84 1464.33,297.144 1493.63,350.3 1495.9,435.825 1468.19,539.208 1413.45,641.567 1339.48,727.686 1256.07,790.608 1172.12,830.944 1093.97,853.426 1025.15,863.725 966.915,866.738 918.968,866.061 880.173,864.1 849.008,862.355 823.871,861.709 803.244,862.662 785.773,865.478 770.287,870.303 755.796,877.224 741.463,886.31 726.584,897.63 710.561,911.253 692.885,927.232 673.129,945.57 650.957,966.17 626.15,988.76 598.653,1012.79 568.646,1037.34 536.64,1060.97 503.577,1081.71 470.922,1097.08 440.674,1104.4 415.272,1101.25 397.305,1086.26 389.066,1059.71 392.033,1023.87 406.445,982.603 431.174,940.458 463.948,901.526 501.836,868.629 541.812,843.064 581.22,824.831 618.025,813.1 650.889,806.671 679.095,804.315 702.41,804.962 720.937,807.782 734.976,812.188 744.916,817.812 751.16,824.464 754.075,832.089 753.958,840.741 751.026,850.548 745.405,861.697 737.136,874.412 726.178,888.944 712.42,905.546 695.697,924.444 675.813,945.8 652.576,969.642 625.855,995.773 595.656,1023.64 562.228,1052.18 526.208,1079.65 488.772,1103.55 451.767,1120.67 417.754,1127.51 389.86,1121.02 371.366,1099.65 365.062,1064.33 372.513,1018.68 393.549,968.242 426.225,918.953 467.279,875.568 512.892,840.804 559.437,815.338 603.984,798.39 644.509,788.432 679.865,783.767 709.613,782.865 733.815,784.508 752.841,787.819 767.218,792.215 777.513,797.359 784.266,803.094 787.945,809.395 788.922,816.337 787.469,824.065 783.756,832.775 777.852,842.709 769.736,854.147 759.298,867.4 746.348,882.805 730.625,900.715 711.807,921.469 689.534,945.355 663.44,972.525 633.218,1002.88 598.707,1035.89 560.039,1070.35 517.837,1104.11 473.45,1133.86 429.187,1155.15 388.424,1162.94 355.419,1152.76 334.696,1122.54 330.006,1074.11 343.186,1013.4 373.45,948.905 417.517,888.867 470.53,838.99 527.292,801.609 583.3,776.273 635.288,760.943 681.313,753.073 720.549,750.293 752.98,750.695 779.094,752.894 799.644,755.954 815.472,759.294 827.407,762.586 836.198,765.675 842.484,768.518 846.795,771.141 849.545,773.607 851.053,776.002 851.55,778.424 851.195,780.976 850.085,783.77 848.264,786.924 845.73,790.568 842.439,794.849 838.306,799.936 833.206,806.028 826.968,813.362 819.374,822.221 810.149,832.945 798.953,845.94 785.37,861.686 768.904,880.739 748.962,903.722 724.863,931.296 695.848,964.086 661.13,1002.53 619.99,1046.62 571.968,1095.47 517.188,1146.65 456.84,1195.43 393.799,1234.23 333.185,1252.92 282.419,1241.17 250.205,1192.93 244.168,1111.28 267.931,1009.55 319.328,906.418 391.093,817.861 473.555,751.957 557.617,708.934 636.579,684.437 706.569,672.817 766.081,669.052 815.233,669.381 855.075,671.264 887.092,673.101 912.881,673.939 933.972,673.24 951.74,670.712 967.375,666.199 981.891,659.607 996.14,650.864 1010.84,639.899 1026.61,626.639 1043.97,611.022 1063.35,593.029 1085.12,572.729 1109.52,550.352 1136.64,526.385 1166.34,501.682 1198.2,477.579 1231.35,455.97 1264.41,439.272 1295.47,430.203 1322.13,431.297 1341.77,444.208 1351.97,468.99 1351.06,503.709 1338.55,544.679 1315.34,587.335 1283.55,627.381 1246.06,661.706 1205.97,688.744 1166.03,708.306 1128.41,721.132 1094.59,728.406 1065.38,731.385 1041.08,731.188 1021.62,728.697 1006.74,724.546 996.034,719.139 989.098,712.698 985.551,705.297 985.076,696.9 987.44,687.39 992.496,676.589 1000.19,664.274 1010.54,650.197 1023.66,634.1 1039.69,615.74 1058.85,594.929 1081.32,571.593 1107.28,545.856 1136.77,518.165 1169.61,489.44 1205.29,461.245 1242.78,435.913 1280.39,416.528 1315.73,406.633 1345.74,409.546 1367.09,427.324 1376.74,459.731 1372.73,503.744 1354.78,554.086 1324.42,604.666 1284.72,650.248 1239.46,687.549 1192.44,715.434 1146.82,734.422 1104.86,745.95 1067.92,751.747 1036.59,753.426 1010.89,752.302 990.51,749.342 974.933,745.201 963.584,740.275 955.902,734.76 951.391,728.711 949.647,722.077 950.366,714.729 953.348,706.485 958.495,697.116 965.8,686.354 975.348,673.897 987.305,659.412 1001.91,642.546 1019.48,622.942 1040.36,600.276 1064.94,574.318 1093.57,545.031 1126.5,512.73 1163.75,478.304 1204.94,443.485 1249.07,411.116 1294.22,385.267 1337.43,370.95 1374.69,373.179 1401.4,395.341 1413.25,437.38 1407.42,494.861 1383.57,559.862 1344.08,623.496 1293.41,678.681 1236.85,721.669 1179.37,751.939 1124.83,771.104 1075.72,781.681 1033.29,786.224 997.814,786.88 968.963,785.266 946.044,782.501 928.212,779.303 914.604,776.096 904.418,773.099 896.953,770.399 891.622,767.999 887.953,765.856 885.574,763.903 884.208,762.059 883.649,760.24 883.758,758.36 884.445,756.332 885.667,754.063 887.416,751.455 889.716,748.4 892.626,744.772 896.233,740.424 900.658,735.183 906.061,728.837 912.643,721.131 920.654,711.758 930.406,700.342 942.28,686.436 956.739,669.505 974.339,648.932 995.738,624.024 1021.69,594.059 1053.04,558.372 1090.64,516.552 1135.23,468.772 1187.21,416.344 1246.21,362.504 1310.52,313.292 1376.35,278.024 1437.32,268.33 1484.7,294.674 1509.06,360.652 1503.35,458.391 1465.94,569.835 1401.69,674.537 1320.01,758.275 1231.46,816.408 1144.87,851.64 1066,869.887 997.705,877.2 940.616,878.402 894.012,876.857 856.467,874.721 826.297,873.293 801.819,873.31 781.487,875.168 763.95,879.067 748.056,885.103 732.843,893.325 717.512,903.76 701.4,916.424 683.966,931.303 664.777,948.335 643.513,967.353 619.987,988.027 594.185,1009.78 566.321,1031.71 536.913,1052.5 506.857,1070.4 477.486,1083.32 450.556,1089.05 428.148,1085.71 412.42,1072.28 405.246,1049.08 407.817,1018 420.316,982.156 441.823,945.247 470.475,910.676 503.838,880.915 539.347,857.25 574.681,839.905 607.997,828.366 638.014,821.743 663.975,819.051 685.555,819.391 702.737,822.037 715.698,826.462 724.717,832.319 730.1,839.423 732.137,847.713 731.066,857.226 727.059,868.067 720.217,880.393 710.57,894.382 698.086,910.217 682.687,928.049 664.272,947.956 642.756,969.887 618.113,993.575 590.454,1018.44 560.113,1043.47 527.755,1067.11 494.497,1087.24 461.982,1101.27 432.389,1106.45 408.287,1100.52 392.307,1082.39 386.649,1052.85 392.555,1014.67 409.933,972.103 437.311,929.784 472.149,891.63 511.379,860.125 551.98,836.204 591.392,819.583 627.736,809.262 659.831,803.971 687.101,802.479 709.424,803.755 726.976,807.016 740.104,811.728 749.22,817.567 754.733,824.379 757.004,832.141 756.32,840.926 752.88,850.881 746.794,862.205 738.084,875.135 726.692,889.929 712.489,906.848 695.295,926.123 674.9,947.917 651.102,972.248 623.766,998.898 592.903,1027.27 558.787,1056.24 522.097,1083.96 484.084,1107.79 446.696,1124.39 412.615,1130.16 385.085,1122.04 367.458,1098.66 362.502,1061.25 371.658,1013.82 394.543,962.225 428.974,912.501 471.494,869.316 518.173,835.172 565.364,810.514 610.188,794.376 650.707,785.121 685.866,781.005 715.308,780.492 739.164,782.38 757.853,785.814 771.93,790.237 781.985,795.331 788.567,800.954 792.147,807.094 793.101,813.829 791.7,821.308 788.111,829.728 782.406,839.332 774.559,850.397 764.464,863.236 751.927,878.189 736.686,895.619 718.413,915.884 696.732,939.306 671.256,966.097 641.63,996.246 607.626,1029.35 569.274,1064.38 527.052,1099.39 482.133,1131.26 436.635,1155.6 393.79,1167.22 357.839,1161.16 333.505,1134.51 324.972,1088.19 334.67,1027.58 362.371,961.243 405.132,898.072 458.125,844.643 515.93,803.999 573.694,776.068 627.799,758.883 676.021,749.8 717.35,746.278 751.67,746.245 779.433,748.178 801.402,751.042 818.451,754.184 831.454,757.227 841.207,759.982 848.402,762.379 853.614,764.421 857.305,766.151 859.837,767.628 861.487,768.922 862.461,770.099 862.907,771.224 862.926,772.359 862.584,773.564 861.915,774.897 860.929,776.421 859.615,778.203 857.94,780.319 855.854,782.859 853.285,785.928 850.139,789.653 846.293,794.193 841.596,799.736 835.858,806.519 828.842,814.83 820.256,825.022 809.741,837.525 796.856,852.859 781.067,871.642 761.727,894.591 738.078,922.5 709.245,956.184 674.279,996.342 632.236,1043.29 582.368,1096.5 524.456,1153.83 459.369,1210.52 389.833,1258.19 321.253,1284.85 262.058,1277.15 222.737,1226.05 213.018,1133.76 237.963,1016.2 295.365,896.928 376.474,796.024 469.554,722.98 563.777,677.156 651.457,652.493 728.422,641.861 793.288,639.306 846.482,640.605 889.399,643.047 923.832,645.006 951.626,645.568 974.498,644.257 993.957,640.85 1011.28,635.267 1027.52,627.502 1043.55,617.592 1060.05,605.609 1077.55,591.668 1096.45,575.959 1116.99,558.785 1139.26,540.613 1163.14,522.14 1188.29,504.332 1214.08,488.451 1239.57,476.011 1263.5,468.643 1284.34,467.848 1300.46,474.663 1310.31,489.313 1312.73,510.989 1307.17,537.875 1293.86,567.467 1273.8,597.08 1248.59,624.377 1220.17,647.716 1190.48,666.256 1161.26,679.855 1133.91,688.861 1109.39,693.874 1088.33,695.57 1071,694.576 1057.48,691.406 1047.67,686.44 1041.42,679.927 1038.53,672.002 1038.81,662.711 1042.12,652.029 1048.33,639.892 1057.39,626.218 1069.27,610.94 1083.94,594.038 1101.39,575.588 1121.57,555.813 1144.31,535.153 1169.33,514.339 1196.1,494.45 1223.78,476.944 1251.21,463.599 1276.85,456.337 1298.88,456.898 1315.33,466.396 1324.44,484.886 1324.95,511.123 1316.38,542.674 1299.25,576.403 1274.94,609.165 1245.48,638.423 1213.14,662.6 1180.14,681.092 1148.33,694.061 1119.1,702.135 1093.35,706.133 1071.58,706.876 1053.95,705.068 1040.4,701.254 1030.75,695.812 1024.74,688.97 1022.13,680.83 1022.7,671.398 1026.27,660.606 1032.75,648.34 1042.07,634.465 1054.23,618.846 1069.28,601.391 1087.26,582.087 1108.19,561.061 1132.01,538.66 1158.53,515.534 1187.33,492.736 1217.67,471.783 1248.39,454.66 1277.89,443.668 1304.13,441.093 1324.84,448.67 1337.75,466.981 1341.1,495.011 1334.03,530.126 1316.82,568.605 1290.91,606.519 1258.58,640.609 1222.54,668.815 1185.42,690.347 1149.45,705.411 1116.3,714.82 1087.03,719.622 1062.18,720.853 1041.9,719.393 1026.08,715.915 1014.46,710.884 1006.69,704.58 1002.45,697.132 1001.45,688.553 1003.45,678.768 1008.3,667.637 1015.93,654.976 1026.34,640.581 1039.59,624.249 1055.78,605.808 1075.05,585.166 1097.51,562.371 1123.22,537.7 1152.06,511.772 1183.7,485.683 1217.43,461.115 1252.05,440.384 1285.78,426.319 1316.26,421.877 1340.72,429.463 1356.35,450.08 1360.85,482.65 1353.05,523.915 1333.23,569.126 1303.17,613.293 1265.7,652.392 1224.16,684.059 1181.71,707.598 1140.95,723.551 1103.73,733.127 1071.14,737.734 1043.65,738.677 1021.29,737.02 1003.8,733.544 990.763,728.773 981.718,723.013 976.218,716.402 973.879,708.947 974.398,700.563 977.566,691.092 983.269,680.324 991.485,668.01 1002.28,653.87 1015.78,637.616 1032.21,618.966 1051.8,597.688 1074.81,573.652 1101.46,546.925 1131.88,517.897 1165.95,487.457 1203.23,457.188 1242.7,429.535 1282.66,407.836 1320.58,396.041 1353.15,397.978 1376.68,416.175 1387.73,450.598 1384.03,498.002 1365.14,552.48 1332.75,607.148 1290.21,656.125 1241.75,695.817 1191.53,725.107 1142.98,744.733 1098.52,756.412 1059.52,762.124 1026.54,763.667 999.537,762.477 978.08,759.597 961.57,755.72 949.343,751.265 940.762,746.444 935.266,741.324 932.389,735.87 931.776,729.973 933.177,723.476 936.44,716.18 941.511,707.852 948.419,698.223 957.28,686.99 968.285,673.81 981.702,658.305 997.874,640.069 1017.2,618.688 1040.15,593.778 1067.19,565.07 1098.75,532.53 1135.15,496.572 1176.41,458.34 1222,420.076 1270.63,385.45 1319.82,359.653 1365.8,348.884 1403.57,358.89 1427.67,392.668 1433.44,448.285 1418.53,518.414 1383.88,592.473 1333.53,660.342 1273.37,715.405 1209.58,755.424 1147.32,781.528 1090.17,796.564 1040.09,803.734 997.75,805.853 962.939,805.079 934.927,802.926 912.735,800.386 895.323,798.066 881.697,796.309 870.965,795.296 862.361,795.109 855.237,795.784 849.057,797.342 843.375,799.812 837.814,803.241 832.044,807.712 825.767,813.342 818.693,820.295 810.527,828.782 800.957,839.07 789.633,851.485 776.159,866.414 760.083,884.304 740.891,905.646 718.007,930.942 690.812,960.638 658.687,994.999 621.099,1033.9 577.756,1076.47 528.859,1120.69 475.457,1162.78 419.892,1196.92 366.178,1215.47 320.057,1210.49 288.329,1176.71 277.291,1114.93 290.648,1033.48 327.951,945.834 384.567,865.394 453.243,800.908 526.318,755.108 597.454,726.203 662.404,710.288 718.969,703.196 766.537,701.429 805.533,702.409 836.966,704.387 862.088,706.252 882.196,707.335 898.503,707.253 912.094,705.791 923.908,702.822 934.744,698.251 945.287,691.981 956.131,683.891 967.803,673.822 980.793,661.574 995.568,646.91 1012.59,629.569 1032.31,609.296 1055.17,585.888 1081.6,559.274 1111.89,529.64 1146.21,497.606 1184.36,464.451 1225.69,432.363 1268.78,404.608 1311.35,385.453 1350.09,379.606 1380.94,391.036 1399.68,421.362 1402.93,468.548 1389.16,526.828 1359.26,588.279 1316.45,645.312 1265.3,692.717 1210.72,728.361 1156.91,752.649 1106.96,767.445 1062.71,775.098 1024.97,777.81 993.778,777.367 968.696,775.079 949.034,771.83 934.009,768.172 922.854,764.411 914.872,760.685 909.472,757.018 906.174,753.364 904.605,749.629 904.497,745.691 905.67,741.407 908.022,736.614 911.524,731.131 916.213,724.752 922.185,717.241 929.596,708.327 938.666,697.692 949.681,684.968 962.996,669.727 979.042,651.487 998.328,629.719 1021.44,603.882 1049.01,573.489 1081.68,538.239 1120.03,498.24 1164.36,454.359 1214.49,408.722 1269.34,365.284 1326.44,330.228 1381.56,311.676 1428.63,318.026 1460.46,354.707 1470.5,420.505 1455.04,506.139 1414.84,597.096 1355.06,679.389 1283.46,744.325 1208.01,789.639 1135.16,817.647 1069.1,832.637 1011.87,838.983 963.961,840.257 924.79,839.043 893.249,837.065 868.004,835.403 847.706,834.7 831.1,835.323 817.074,837.477 804.668,841.289 793.063,846.857 781.559,854.286 769.546,863.704 756.48,875.277 741.86,889.2 725.212,905.688 706.081,924.953 684.036,947.155 658.693,972.331 629.761,1000.29 597.116,1030.43 560.924,1061.61 521.802,1091.85 481.004,1118.26 440.592,1137.06 403.5,1144.05 373.362,1135.59 354.005,1109.95 348.625,1068.48 358.885,1015.84 384.326,958.885 422.389,904.59 469.084,858.156 519.957,822.149 570.968,796.747 619.021,780.593 662.124,771.68 699.274,767.986 730.23,767.796 755.256,769.808 774.903,773.114 789.848,777.135 800.781,781.541 808.34,786.183 813.07,791.035 815.412,796.16 815.696,801.677 814.15,807.749 810.906,814.573 806.004,822.378 799.402,831.426 790.982,842.015 780.546,854.481 767.825,869.202 752.475,886.595 734.082,907.099 712.172,931.146 686.236,959.095 655.768,991.121 620.357,1027.03 579.816,1066 534.4,1106.16 485.106,1144.24 434.017,1175.29 384.606,1192.93 341.761,1190.53 311.265,1163.48 298.582,1111.87 307.203,1041.83 337.301,964.079 385.492,890.115 445.888,828.349 511.833,782.402 577.457,751.787 638.517,733.696 692.542,724.652 738.547,721.484 776.593,721.714 807.374,723.582 831.903,725.926 851.29,728.027 866.615,729.463 878.859,730.006 888.874,729.537 897.388,727.993 905.01,725.324 912.256,721.472 919.571,716.351 927.351,709.838 935.964,701.763 945.772,691.907 957.149,679.995 970.493,665.696 986.239,648.631 1004.87,628.385 1026.9,604.544 1052.88,576.753 1083.34,544.835 1118.72,508.967 1159.24,469.962 1204.67,429.637 1254.05,391.231 1305.34,359.668 1355.1,341.347 1398.45,342.978 1429.6,369.324 1442.99,420.497 1435.02,490.511 1405.4,568.638 1357.44,643.242 1297.02,705.721 1230.84,752.301 1164.86,783.398 1103.38,801.813 1048.93,811.053 1002.54,814.329 964.15,814.154 933.076,812.314 908.301,809.989 888.706,807.912 873.202,806.511 860.799,806.019 850.633,806.559 841.971,808.198 834.195,810.988 826.78,814.99 819.276,820.294 811.28,827.026 802.416,835.361 792.315,845.523 780.597,857.793 766.855,872.503 750.648,890.035 731.491,910.798 708.862,935.194 682.219,963.543 651.049,995.966 614.952,1032.19 573.785,1071.25 527.883,1111.12 478.368,1148.32 427.491,1177.7 378.905,1192.8 337.629,1187.19 309.441,1156.82 299.583,1102.56 311.124,1031.26 343.739,953.88 393.655,881.592 454.829,822.139 520.688,778.507 585.585,749.818 645.539,733.138 698.305,725.023 743.056,722.407 779.949,722.926 809.727,724.916 833.414,727.285 852.112,729.364 866.883,730.762 878.685,731.272 888.346,730.787 896.571,729.249 903.951,726.612 910.985,722.819 918.103,717.787 925.69,711.391 934.104,703.465 943.699,693.789 954.841,682.088 967.922,668.032 983.374,651.239 1001.67,631.289 1023.34,607.754 1048.93,580.256 1079,548.575 1114,512.825 1154.19,473.723 1199.44,432.958 1248.88,393.621 1300.6,360.52 1351.28,340.044 1396.13,339.115 1429.29,362.975 1445,412.386 1439.27,481.889 1411.42,560.86 1364.49,637.294 1304.27,701.983 1237.59,750.624 1170.63,783.346 1107.93,802.89 1052.2,812.838 1004.6,816.515 965.13,816.545 933.126,814.802 907.57,812.526 887.321,810.492 871.266,809.155 858.387,808.765 847.792,809.455 838.725,811.301 830.542,814.361 822.701,818.705 814.731,824.428 806.211,831.666 796.748,840.601 785.956,851.47 773.436,864.559 758.768,880.207 741.496,898.792 721.128,920.704 697.144,946.299 669.027,975.811 636.318,1009.21 598.724,1045.96 556.285,1084.74 509.618,1123.05 460.232,1156.87 410.842,1180.67 365.535,1188.08 329.536,1173.56 308.371,1134.83 306.446,1074.96 325.555,1002.28 364.089,927.818 417.448,861.356 479.446,808.726 543.94,771.37 605.993,747.621 662.338,734.399 711.295,728.476 752.41,727.122 786.045,728.287 813.019,730.562 834.355,733.036 851.109,735.16 864.272,736.627 874.725,737.279 883.222,737.042 890.399,735.878 896.783,733.759 902.818,730.644 908.883,726.464 915.314,721.116 922.427,714.455 930.53,706.288 939.944,696.366 951.018,684.386 964.139,669.983 979.746,652.737 998.335,632.182 1020.46,607.838 1046.71,579.27 1077.69,546.203 1113.92,508.713 1155.72,467.522 1202.96,424.427 1254.76,382.783 1309.04,347.891 1362.21,326.85 1408.96,327.346 1442.86,355.049 1457.64,410.377 1449.17,486.64 1417.08,571.588 1365.13,652.011 1299.95,718.414 1228.98,766.984 1158.71,798.634 1093.69,816.793 1036.49,825.478 988.003,828.227 948.038,827.73 915.728,825.852 889.904,823.801 869.316,822.315 852.766,821.823 839.176,822.565 827.607,824.676 817.256,828.248 807.442,833.368 797.574,840.14 787.134,848.707 775.646,859.254 762.656,872.01 747.716,887.246 730.37,905.259 710.156,926.342 686.608,950.734 659.296,978.532 627.873,1009.56 592.181,1043.16 552.4,1077.96 509.254,1111.56 464.257,1140.38 419.939,1159.72 379.913,1164.41 348.615,1150.24 330.581,1115.75 329.332,1063.65 346.244,1000.7 379.974,935.733 426.768,876.763 481.518,828.898 539.023,793.824 594.95,770.617 646.28,757.001 691.314,750.376 729.427,748.414 760.742,749.295 785.838,751.718 805.515,754.823 820.637,758.084 832.031,761.212 840.44,764.076 846.491,766.647 850.699,768.952 853.47,771.055 855.115,773.034 855.862,774.977 855.87,776.971 855.244,779.11 854.039,781.489 852.27,784.211 849.916,787.39 846.923,791.155 843.202,795.659 838.633,801.079 833.052,807.634 826.256,815.583 817.987,825.242 807.928,836.993 795.692,851.292 780.806,868.677 762.707,889.769 740.729,915.257 714.113,945.849 682.03,982.166 643.646,1024.54 598.27,1072.66 545.607,1124.99 486.189,1177.97 421.975,1225.19 357.049,1257.09 298.062,1262.16 253.825,1230.77 233.462,1160.79 243.317,1061.5 284.124,951.389 350.393,850.09 432.542,770.408 520.28,715.851 605.263,683.224 682.164,666.617 748.474,660.199 803.746,659.398 848.791,661.047 885.056,663.125 914.21,664.419 937.902,664.239 957.641,662.216 974.743,658.161 990.326,651.979 1005.33,643.617 1020.53,633.036 1036.59,620.21 1054.03,605.134 1073.29,587.855 1094.7,568.518 1118.46,547.434 1144.59,525.162 1172.91,502.606 1202.89,481.092 1233.65,462.407 1263.84,448.723 1291.66,442.358 1314.95,445.33 1331.45,458.779 1339.19,482.433 1336.87,514.386 1324.26,551.373 1302.29,589.519 1272.89,625.24 1238.6,655.941 1202.07,680.288 1165.74,698.071 1131.51,709.854 1100.68,716.59 1074.04,719.323 1051.89,718.997 1034.25,716.367 1020.89,711.986 1011.54,706.208 1005.84,699.227 1003.51,691.103 1004.28,681.799 1007.97,671.204 1014.47,659.153 1023.75,645.455 1035.85,629.909 1050.84,612.335 1068.86,592.613 1090.01,570.739 1114.37,546.902 1141.88,521.589 1172.31,495.704 1205.07,470.695 1239.18,448.623 1273.07,432.113 1304.62,424.073 1331.21,427.131 1350.06,442.842 1358.66,470.923 1355.42,508.92 1340.07,552.601 1313.84,597.025 1279.2,637.794 1239.32,671.949 1197.41,698.216 1156.27,716.718 1118.02,728.44 1084,734.723 1054.9,736.902 1030.9,736.115 1011.84,733.236 997.375,728.87 987.054,723.394 980.434,717.001 977.116,709.741 976.772,701.561 979.167,692.325 984.157,681.843 991.692,669.879 1001.81,656.166 1014.61,640.423 1030.3,622.375 1049.08,601.785 1071.2,578.507 1096.9,552.572 1126.28,524.302 1159.3,494.473 1195.56,464.5 1234.2,436.612 1273.67,413.908 1311.63,400.154 1345.01,399.164 1370.21,413.728 1383.8,444.378 1383.25,488.595 1367.74,541.08 1338.5,595.192 1298.5,644.872 1251.77,686.079 1202.44,717.203 1154.06,738.602 1109.22,751.781 1069.52,758.639 1035.66,760.986 1007.74,760.309 985.411,757.712 968.129,753.947 955.257,749.48 946.167,744.558 940.295,739.272 937.171,733.6 936.429,727.443 937.809,720.646 941.156,713.009 946.405,704.296 953.587,694.233 962.812,682.513 974.274,668.792 988.24,652.693 1005.05,633.82 1025.1,611.779 1048.84,586.232 1076.71,556.98 1109.1,524.112 1146.21,488.215 1187.94,450.678 1233.57,414.029 1281.54,382.21 1329.13,360.525 1372.35,354.932 1406.2,370.416 1425.52,408.754 1426.29,466.762 1407,536.454 1369.32,607.556 1317.65,671.009 1257.84,721.414 1195.68,757.401 1135.84,780.468 1081.45,793.45 1034.12,799.354 994.335,800.754 961.777,799.595 935.696,797.23 915.139,794.536 899.115,792.041 886.689,790.039 877.031,788.675 869.434,788.005 863.307,788.043 858.166,788.789 853.616,790.247 849.327,792.434 845.022,795.397 840.455,799.21 835.396,803.98 829.617,809.857 822.88,817.035 814.92,825.757 805.44,836.325 794.091,849.103 780.467,864.526 764.089,883.092 744.404,905.358 720.783,931.9 692.54,963.245 658.976,999.732 619.476,1041.27 573.679,1086.95 521.772,1134.51 464.905,1179.67 405.717,1215.72 348.792,1233.84 300.697,1224.99 269.138,1183.66 261.002,1111.84 279.894,1020.32 324.478,925.09 388.804,840.788 464.42,775.813 542.956,731.638 617.907,705.168 685.228,691.607 743.089,686.344 791.258,685.746 830.492,687.253 862.048,689.198 887.359,690.553 907.844,690.716 924.802,689.351 939.375,686.267 952.542,681.345 965.139,674.488 977.881,665.591 991.386,654.526 1006.21,641.144 1022.84,625.284 1041.74,606.796 1063.33,585.589 1087.95,561.698 1115.84,535.385 1147.06,507.277 1181.4,478.533 1218.21,451.007 1256.26,427.342 1293.64,410.873 1327.68,405.202 1355.15,413.359 1372.73,436.705 1377.67,474.007 1368.54,521.28 1345.73,572.705 1311.41,622.271 1269.02,665.333 1222.49,699.396 1175.43,724.011 1130.72,740.134 1090.3,749.389 1055.23,753.512 1025.85,754.032 1002.04,752.147 983.394,748.708 969.352,744.272 959.332,739.157 952.787,733.504 949.248,727.325 948.341,720.539 949.798,713 953.453,704.506 959.237,694.817 967.176,683.653 977.38,670.702 990.042,655.621 1005.43,638.051 1023.86,617.636 1045.72,594.062 1071.39,567.13 1101.22,536.872 1135.4,503.722 1173.91,468.758 1216.2,433.985 1261.08,402.588 1306.35,378.977 1348.75,368.349 1384,375.549 1407.41,403.282 1414.9,450.373 1404.19,511.236 1375.67,577.291 1332.39,639.771 1279.23,692.325 1221.55,732.113 1164.13,759.331 1110.5,775.985 1062.8,784.709 1021.99,788.006 988.146,787.907 960.803,785.899 939.197,782.99 922.455,779.814 909.716,776.734 900.191,773.93 893.2,771.466 888.18,769.332 884.679,767.484 882.343,765.855 880.906,764.373 880.171,762.964 880.001,761.555 880.303,760.075 881.026,758.452 882.149,756.613 883.679,754.476 885.647,751.95 888.109,748.931 891.147,745.295 894.869,740.893 899.413,735.542 904.957,729.023 911.719,721.065 919.972,711.338 930.049,699.441 942.362,684.891 957.409,667.112 975.791,645.436 998.216,619.117 1025.5,587.377 1058.55,549.52 1098.26,505.154 1145.41,454.586 1200.34,399.47 1262.48,343.711 1329.69,294.423 1397.44,262.274 1458.37,259.958 1502.78,297.702 1520.85,376.757 1506.22,485.406 1458.95,602.44 1385.86,706.879 1297.72,786.384 1205.46,838.883 1117.52,868.933 1038.96,883.264 971.895,888.024 916.41,887.809 871.413,885.688 835.263,883.558 806.168,882.523 782.406,883.184 762.436,885.848 744.93,890.649 728.775,897.638 713.054,906.819 697.018,918.168 680.063,931.634 661.723,947.114 641.656,964.415 619.664,983.207 595.718,1002.95 569.999,1022.84 542.959,1041.72 515.372,1058.12 488.378,1070.26 463.472,1076.29 442.421,1074.58 427.076,1064.19 419.086,1045.21 419.574,1018.98 428.867,987.946 446.37,955.13 470.662,923.513 499.747,895.45 531.414,872.374 563.559,854.804 594.419,842.553 622.683,835.009 647.497,831.389 668.407,830.918 685.262,832.931 698.118,836.919 707.155,842.527 712.603,849.546 714.697,857.885 713.642,867.542 709.594,878.585 702.653,891.12 692.867,905.273 680.235,921.155 664.729,938.831 646.323,958.269 625.024,979.283 600.933,1001.45 574.309,1024.04 545.654,1045.89 515.802,1065.43 485.992,1080.63 457.899,1089.28 433.567,1089.28 415.219,1079.23 404.921,1058.96 404.174,1029.86 413.541,994.745 432.464,957.302 459.334,921.185 491.82,889.272 527.312,863.265 563.337,843.703 597.855,830.255 629.383,822.092 656.999,818.211 680.251,817.653 699.041,819.617 713.504,823.501 723.904,828.898 730.555,835.57 733.762,843.42 733.79,852.455 730.838,862.763 725.034,874.49 716.431,887.813 705.016,902.925 690.72,919.999 673.442,939.159 653.075,960.422 629.553,983.629 602.909,1008.35 573.366,1033.76 541.432,1058.53 508.024,1080.75 474.574,1097.96 443.071,1107.35 415.992,1106.3 396.046,1093.1 385.735,1067.68 386.795,1032.07 399.728,990.092 423.592,946.481 456.183,905.663 494.519,870.814 535.437,843.491 576.105,823.831 614.323,811.028 648.623,803.837 678.199,800.953 702.771,801.228 722.426,803.763 737.47,807.916 748.311,813.278 755.38,819.629 759.07,826.896 759.71,835.116 757.543,844.409 752.72,854.956 745.302,866.984 735.265,880.749 722.509,896.519 706.866,914.556 688.129,935.076 666.072,958.201 640.502,983.868 611.321,1011.72 578.627,1040.95 542.846,1070.11 504.889,1096.98 466.317,1118.51 429.45,1131.08 397.316,1131.08 373.364,1115.98 360.872,1085.44 362.167,1042.04 377.933,990.958 406.908,938.522 446.168,890.475 491.837,850.622 539.942,820.478 587.076,799.702 630.742,786.872 669.413,780.186 702.386,777.92 729.571,778.652 751.272,781.322 768.012,785.208 780.393,789.864 789.01,795.055 794.399,800.7 797.001,806.829 797.159,813.552 795.107,821.036 790.979,829.493 784.815,839.175 776.561,850.371 766.082,863.401 753.161,878.619 737.511,896.399 718.78,917.113 696.57,941.095 670.469,968.561 640.106,999.498 605.243,1033.47 565.917,1069.38 522.641,1105.15 476.671,1137.45 430.265,1161.65 386.853,1172.26 350.906,1164.2 327.332,1134.68 320.38,1085.11 332.339,1021.56 362.667,953.169 408.025,889.106 463.249,835.806 522.728,795.943 581.571,769.055 636.238,752.89 684.633,744.644 725.884,741.717 759.995,742.041 787.513,744.116 809.267,746.94 826.178,749.888 839.148,752.603 848.996,754.905 856.427,756.727 862.028,758.065 866.277,758.947 869.552,759.41 872.153,759.493 874.312,759.225 876.217,758.622 878.014,757.684 879.828,756.398 881.768,754.731 883.936,752.633 886.432,750.033 889.367,746.836 892.861,742.923 897.059,738.14 902.127,732.296 908.271,725.155 915.739,716.425 924.834,705.748 935.926,692.691 949.464,676.734 965.99,657.263 986.152,633.577 1010.71,604.916 1040.5,570.532 1076.45,529.848 1119.41,482.745 1169.97,430.067 1228.12,374.382 1292.66,320.942 1360.44,278.454 1425.7,258.735 1479.91,273.91 1513.07,330.756 1516.57,424.733 1486.81,539.074 1427.06,651.652 1346.29,744.958 1255.68,811.584 1165.13,852.987 1081.52,875.08 1008.45,884.462 947.013,886.568 896.693,885.245 856.101,882.973 823.507,881.247 797.146,880.916 775.38,882.432 756.769,886.015 740.09,891.759 724.321,899.697 708.625,909.827 692.316,922.125 674.849,936.531 655.803,952.924 634.887,971.076 611.957,990.594 587.05,1010.85 560.44,1030.9 532.692,1049.47 504.723,1064.9 477.831,1075.31 453.663,1078.84 434.093,1073.98 420.991,1060.11 415.901,1037.77 419.71,1008.8 432.412,976.015 453.061,942.612 479.933,911.475 510.85,884.683 543.546,863.326 575.977,847.608 606.513,837.118 634.002,831.117 657.75,828.777 677.435,829.331 693.008,832.154 704.593,836.787 712.41,842.927 716.708,850.411 717.723,859.186 715.65,869.283 710.63,880.794 702.743,893.843 692.014,908.566 678.427,925.077 661.938,943.429 642.514,963.569 620.168,985.262 595.024,1008.02 567.386,1030.99 537.832,1052.9 507.302,1071.98 477.173,1086.1 449.271,1092.92 425.771,1090.39 408.965,1077.33 400.882,1053.95 402.857,1022.1 415.176,985.056 436.95,946.703 466.271,910.679 500.604,879.64 537.258,854.97 573.791,836.909 608.268,824.906 639.347,818.002 666.244,815.148 688.629,815.386 706.498,817.947 720.049,822.272 729.586,827.996 735.441,834.921 737.928,842.982 737.304,852.214 733.757,862.727 727.399,874.684 718.266,888.279 706.326,903.714 691.49,921.176 673.641,940.792 652.654,962.58 628.454,986.369 601.071,1011.7 570.736,1037.7 537.986,1062.96 503.794,1085.45 469.674,1102.55 437.727,1111.35 410.555,1109.15 390.977,1094.26 381.544,1066.82 383.958,1029.16 398.584,985.455 424.281,940.678 458.629,899.337 498.472,864.524 540.546,837.621 581.996,818.573 620.659,806.421 655.129,799.82 684.68,797.414 709.106,798.041 728.553,800.803 743.374,805.075 754.011,810.464 760.916,816.767 764.498,823.924 765.092,831.983 762.942,841.073 758.202,851.384 750.929,863.149 741.095,876.633 728.591,892.12 713.24,909.891 694.817,930.195 673.07,953.195 647.769,978.896 618.762,1007.02 586.074,1036.87 550.036,1067.12 511.448,1095.63 471.762,1119.4 433.216,1134.67 398.838,1137.55 372.2,1125.01 356.851,1096.13 355.503,1053.06 369.235,1000.86 397.078,946.186 436.204,895.335 482.636,852.684 532.17,820.139 581.123,797.524 626.755,783.406 667.357,775.876 702.118,773.074 730.899,773.455 753.999,775.859 771.963,779.49 785.43,783.848 795.04,788.661 801.374,793.819 804.92,799.332 806.063,805.288 805.08,811.833 802.146,819.16 797.339,827.496 790.648,837.106 781.976,848.29 771.147,861.383 757.906,876.756 741.929,894.807 722.824,915.94 700.15,940.525 673.45,968.824 642.298,1000.86 606.404,1036.24 565.756,1073.84 520.846,1111.49 472.955,1145.65 424.458,1171.3 379.017,1182.46 341.458,1173.5 317.106,1141.41 310.548,1087.84 324.183,1019.66 357.266,947.037 406.01,879.898 464.728,824.921 527.386,784.564 588.853,757.938 645.523,742.375 695.361,734.772 737.614,732.354 772.423,732.968 800.462,735.088 822.668,737.707 840.051,740.206 853.583,742.233 864.142,743.604 872.48,744.239 879.234,744.11 884.925,743.208 889.985,741.522 894.774,739.026 899.597,735.667 904.725,731.361 910.413,725.984 916.912,719.372 924.489,711.312 933.432,701.536 944.073,689.717 956.791,675.464 972.028,658.319 990.297,637.769 1012.18,613.268 1038.32,584.291 1069.39,550.443 1106.02,511.647 1148.64,468.461 1197.31,422.531 1251.28,377.178 1308.6,337.918 1365.62,312.489 1416.73,309.695 1454.86,336.56 1472.83,394.428 1465.66,476.393 1432.58,568.736 1377.53,656.294 1307.87,728.157 1231.89,780.087 1156.77,813.332 1087.5,831.941 1026.77,840.508 975.478,842.974 933.29,842.268 899.196,840.38 871.873,838.576 849.938,837.619 832.077,837.947 817.114,839.808 804.029,843.345 791.949,848.661 780.131,855.857 767.929,865.054 754.777,876.403 740.157,890.085 723.588,906.299 704.614,925.237 682.809,947.042 657.798,971.733 629.301,999.104 597.208,1028.57 561.69,1058.99 523.356,1088.47 483.425,1114.21 443.892,1132.6 407.58,1139.63 377.975,1131.82 358.753,1107.46 353.004,1067.76 362.38,1017.08 386.518,961.885 423.044,908.879 468.174,863.165 517.627,827.381 567.464,801.864 614.624,785.423 657.092,776.181 693.819,772.201 724.503,771.812 749.351,773.729 768.864,777.048 783.68,781.187 794.454,785.812 801.8,790.772 806.242,796.043 808.203,801.691 807.997,807.844 805.835,814.677 801.83,822.404 796.003,831.273 788.289,841.567 778.543,853.606 766.542,867.746 751.987,884.378 734.512,903.913 713.688,926.756 689.049,953.251 660.131,983.579 626.542,1017.61 588.084,1054.64 544.939,1093.1 497.928,1130.18 448.828,1161.54 400.651,1181.47 357.733,1183.77 325.365,1163.63 308.82,1120 311.897,1057.21 335.57,984.346 377.486,912.182 432.638,849.529 494.851,801.068 558.3,767.403 618.496,746.489 672.591,735.22 719.227,730.521 758.155,729.862 789.844,731.379 815.152,733.805 835.096,736.332 850.699,738.481 862.91,739.989 872.565,740.728 880.372,740.641 886.926,739.704 892.717,737.899 898.154,735.193 903.588,731.53 909.325,726.82 915.652,720.931 922.851,713.691 931.213,704.873 941.055,694.195 952.733,681.316 966.653,665.832 983.28,647.28 1003.15,625.156 1026.84,598.953 1055,568.236 1088.24,532.781 1127.08,492.817 1171.74,449.379 1221.92,404.807 1276.34,363.277 1332.35,331.096 1385.56,316.252 1429.86,326.578 1458.3,366.512 1464.82,433.775 1446.38,518.553 1404.35,606.688 1344.12,685.209 1273.31,746.484 1199.52,788.886 1128.78,814.902 1064.92,828.694 1009.78,834.404 963.705,835.388 926.096,834.066 895.854,832.051 871.683,830.352 852.281,829.571 836.442,830.049 823.101,831.978 811.339,835.476 800.373,840.638 789.531,847.568 778.228,856.395 765.94,867.288 752.177,880.455 736.473,896.133 718.367,914.572 697.41,935.998 673.175,960.551 645.296,988.191 613.533,1018.56 577.876,1050.76 538.703,1083.18 496.973,1113.2 454.439,1137.18 413.792,1150.69 378.622,1149.33 353.038,1130.08 340.908,1092.83 344.842,1041.18 365.338,981.879 400.501,922.739 446.527,870.319 498.698,828.45 552.44,798.106 604.058,778.219 651.04,766.715 692.012,761.334 726.509,760.084 754.693,761.417 777.1,764.229 794.448,767.798 807.494,771.691 816.961,775.686 823.48,779.702 827.579,783.757 829.673,787.929 830.072,792.337 828.988,797.13 826.544,802.48 822.786,808.583 817.686,815.66 811.148,823.965 803.011,833.79 793.046,845.47 780.954,859.393 766.363,875.996 748.827,895.764 727.828,919.203 702.787,946.796 673.099,978.904 638.197,1015.6 597.676,1056.4 551.491,1099.85 500.27,1143.07 445.712,1181.22 391.017,1207.48 341.12,1213.9 302.392,1193.7 281.499,1144.64 283.492,1071.57 309.902,985.965 357.946,901.694 421.409,829.858 492.668,775.857 564.712,739.744 632.349,718.393 692.491,707.67 743.857,703.761 786.438,703.691 821.002,705.368 848.698,707.417 870.803,708.99 888.562,709.59 903.113,708.935 915.447,706.868 926.42,703.286 936.755,698.1 947.079,691.204 957.939,682.461 969.833,671.691 983.23,658.674 998.588,643.152 1016.36,624.849 1037.02,603.503 1060.99,578.921 1088.7,551.076 1120.42,520.239 1156.24,487.188 1195.89,453.448 1238.5,421.545 1282.42,395.143 1325.01,378.857 1362.62,377.5 1390.96,394.682 1405.79,431.115 1404.07,483.508 1384.92,544.992 1350.04,607.188 1303.26,662.825 1249.54,707.512 1193.76,739.997 1139.94,761.334 1090.79,773.725 1047.84,779.608 1011.61,781.139 981.94,779.995 958.258,777.37 939.802,774.047 925.756,770.502 915.345,766.988 907.88,763.607 902.785,760.367 899.592,757.213 897.944,754.058 897.58,750.788 898.321,747.276 900.063,743.384 902.765,738.956 906.446,733.82 911.175,727.778 917.077,720.603 924.328,712.026 933.163,701.734 943.879,689.355 956.843,674.453 972.501,656.53 991.38,635.028 1014.09,609.359 1041.3,578.963 1073.73,543.434 1112.02,502.732 1156.61,457.541 1207.49,409.788 1263.73,363.286 1323.07,324.279 1381.33,301.331 1432.26,303.8 1468.2,338.419 1481.79,405.035 1468.49,494.449 1428.58,591.044 1367.23,679.185 1292.69,748.89 1213.62,797.402 1137.06,827.192 1067.57,842.977 1007.4,849.556 957.048,850.821 915.893,849.557 882.735,847.6 856.139,846.092 834.663,845.707 816.966,846.823 801.867,849.653 788.345,854.325 775.534,860.937 762.692,869.589 749.181,880.401 734.437,893.514 717.951,909.081 699.263,927.243 677.959,948.087 653.69,971.579 626.213,997.467 595.458,1025.15 561.63,1053.51 525.34,1080.78 487.757,1104.39 450.734,1121.14 416.841,1127.49 389.205,1120.44 371.095,1098.53 365.26,1062.77 373.201,1016.86 394.681,966.396 427.696,917.279 468.952,874.198 514.627,839.787 561.115,814.661 605.518,797.999 645.849,788.263 680.987,783.758 710.516,782.966 734.51,784.682 753.349,788.041 767.56,792.471 777.71,797.642 784.337,803.401 787.904,809.731 788.78,816.707 787.233,824.477 783.427,833.24 777.431,843.238 769.217,854.753 758.672,868.097 745.605,883.609 729.751,901.639 710.786,922.528 688.35,946.555 662.08,973.866 631.672,1004.34 596.977,1037.43 558.145,1071.89 515.829,1105.52 471.416,1134.96 427.263,1155.72 386.79,1162.75 354.28,1151.67 334.242,1120.57 330.357,1071.45 344.349,1010.43 375.308,946.032 419.862,886.408 473.115,837.112 529.89,800.328 585.735,775.509 637.451,760.577 683.149,752.986 722.049,750.385 754.161,750.895 779.99,753.151 800.293,756.237 815.915,759.586 827.68,762.88 836.33,765.971 842.501,768.82 846.714,771.454 849.38,773.939 850.811,776.363 851.235,778.824 850.806,781.428 849.618,784.288 847.71,787.524 845.077,791.268 841.67,795.672 837.401,800.909 832.138,807.183 825.705,814.737 817.877,823.863 808.369,834.909 796.832,848.292 782.84,864.501 765.883,884.102 745.356,907.725 720.567,936.028 690.753,969.615 655.13,1008.87 613.009,1053.69 564.001,1102.98 508.36,1154.02 447.492,1201.7 384.579,1237.99 325.089,1252.6 276.708,1235.56 248.118,1181.98 246.486,1096.52 274.607,993.716 329.457,892.229 403.241,807 486.248,744.788 569.69,704.922 647.312,682.705 715.64,672.527 773.457,669.556 821.052,670.234 859.561,672.185 890.494,673.924 915.442,674.572 935.911,673.637 953.246,670.852 968.608,666.072 982.982,659.209 997.199,650.189 1011.96,638.938 1027.87,625.38 1045.43,609.455 1065.09,591.143 1087.17,570.524 1111.92,547.848 1139.41,523.631 1169.49,498.774 1201.68,474.676 1235.06,453.303 1268.19,437.14 1299.09,428.94 1325.3,431.212 1344.17,445.496 1353.33,471.648 1351.17,507.503 1337.35,549.186 1312.92,592.057 1280.14,631.868 1241.98,665.643 1201.52,691.98 1161.51,710.825 1124.05,723.008 1090.53,729.752 1061.71,732.324 1037.83,731.829 1018.8,729.129 1004.32,724.832 993.984,719.326 987.374,712.814 984.113,705.357 983.889,696.908 986.474,687.342 991.73,676.475 999.608,664.08 1010.14,649.903 1023.44,633.683 1039.66,615.175 1059.03,594.188 1081.73,570.65 1107.94,544.69 1137.7,516.769 1170.84,487.829 1206.82,459.474 1244.58,434.085 1282.42,414.811 1317.87,405.247 1347.84,408.733 1368.93,427.291 1378.12,460.573 1373.47,505.403 1354.77,556.356 1323.66,607.26 1283.28,652.884 1237.5,690.016 1190.12,717.615 1144.3,736.286 1102.27,747.522 1065.36,753.082 1034.11,754.587 1008.52,753.35 988.261,750.331 972.791,746.175 961.529,741.269 953.907,735.806 949.425,729.833 947.678,723.297 948.36,716.071 951.272,707.969 956.314,698.764 963.479,688.189 972.851,675.943 984.596,661.691 998.955,645.078 1016.24,625.74 1036.81,603.339 1061.05,577.62 1089.34,548.506 1121.96,516.255 1158.97,481.672 1200.06,446.384 1244.31,413.126 1289.91,385.89 1334,369.706 1372.6,369.772 1401.08,389.851 1414.93,430.373 1411.07,487.306 1388.82,552.837 1350.34,617.848 1299.98,674.824 1243.13,719.592 1184.9,751.36 1129.35,771.643 1079.13,782.979 1035.6,787.999 999.109,788.938 969.363,787.49 945.671,784.831 927.176,781.724 912.996,778.62 902.306,775.761 894.378,773.246 888.602,771.092 884.482,769.265 881.624,767.71 879.729,766.359 878.568,765.144 877.978,764 877.844,762.862 878.091,761.671 878.675,760.368 879.58,758.89 880.811,757.171 882.395,755.137 884.377,752.704 886.825,749.768 889.826,746.208 893.496,741.875 897.977,736.587 903.452,730.121 910.143,722.201 918.329,712.492 928.351,700.583 940.628,685.977 955.673,668.08 974.101,646.201 996.645,619.561 1024.15,587.342 1057.55,548.803 1097.81,503.503 1145.74,451.718 1201.72,395.12 1265.2,337.743 1333.98,287.019 1403.37,254.164 1465.65,252.561 1510.64,292.899 1528.13,376.17 1511.6,489.528 1461.46,610.351 1385.11,716.839 1293.94,796.751 1199.27,848.646 1109.6,877.728 1029.92,891.137 962.195,895.197 906.342,894.539 861.143,892.197 824.866,890.022 795.66,889.068 771.767,889.9 751.628,892.788 733.909,897.842 717.503,905.081 701.503,914.479 685.181,925.975 667.966,939.467 649.432,954.789 629.293,971.675 607.423,989.703 583.88,1008.24 558.944,1026.39 533.169,1042.96 507.417,1056.49 482.877,1065.35 461.017,1067.97 443.476,1063.14 431.853,1050.4 427.447,1030.3 430.986,1004.41 442.442,975.125 460.994,945.156 485.161,916.982 513.061,892.449 542.712,872.601 572.296,857.735 600.321,847.601 625.701,841.637 647.74,839.166 666.077,839.538 680.599,842.204 691.362,846.748 698.52,852.887 702.264,860.46 702.785,869.403 700.247,879.723 694.773,891.48 686.441,904.754 675.29,919.622 661.334,936.122 644.585,954.211 625.084,973.714 602.949,994.255 578.434,1015.19 551.995,1035.53 524.369,1053.93 496.635,1068.65 470.242,1077.8 446.961,1079.51 428.742,1072.46 417.45,1056.25 414.533,1031.79 420.694,1001.24 435.694,967.619 458.353,934.171 486.775,903.656 518.692,877.933 551.841,857.85 584.245,843.42 614.378,834.1 641.206,829.094 664.138,827.56 682.934,828.751 697.605,832.075 708.315,837.109 715.304,843.587 718.826,851.374 719.114,860.444 716.354,870.846 710.675,882.687 702.141,896.1 690.766,911.226 676.519,928.174 659.351,946.99 639.228,967.595 616.172,989.717 590.327,1012.8 562.04,1035.93 531.949,1057.71 501.079,1076.27 470.908,1089.38 443.364,1094.67 420.701,1090.16 405.235,1074.87 398.931,1049.33 402.968,1015.75 417.409,977.631 441.125,938.983 472.013,903.355 507.426,873.192 544.65,849.639 581.297,832.729 615.528,821.774 646.108,815.752 672.355,813.594 694.022,814.362 711.162,817.316 724.013,821.932 732.899,827.877 738.161,834.982 740.11,843.204 738.997,852.596 734.999,863.282 728.215,875.437 718.667,889.263 706.309,904.97 691.042,922.746 672.736,942.717 651.261,964.895 626.538,989.09 598.604,1014.81 567.708,1041.12 534.424,1066.55 499.779,1088.96 465.363,1105.65 433.368,1113.61 406.484,1110.14 387.585,1093.67 379.217,1064.55 382.998,1025.38 399.142,980.609 426.321,935.328 461.949,894.023 502.761,859.645 545.457,833.395 587.202,815.058 625.894,803.563 660.203,797.509 689.474,795.523 713.561,796.448 732.657,799.406 747.143,803.791 757.482,809.23 764.136,815.536 767.516,822.663 767.958,830.669 765.703,839.691 760.899,849.923 753.599,861.604 743.769,875.007 731.291,890.42 715.983,908.136 697.606,928.415 675.898,951.442 650.609,977.244 621.565,1005.58 588.761,1035.78 552.492,1066.56 513.52,1095.8 473.263,1120.49 433.943,1136.82 398.607,1140.73 370.898,1128.99 354.49,1100.48 352.252,1057.19 365.414,1004.22 393.096,948.386 432.471,896.253 479.49,852.426 529.828,818.946 579.684,795.671 626.219,781.13 667.66,773.351 703.167,770.407 732.591,770.698 756.244,773.024 774.687,776.558 788.581,780.781 798.59,785.409 805.316,790.322 809.27,795.52 810.856,801.082 810.37,807.147 808.006,813.893 803.861,821.537 797.945,830.328 790.181,840.551 780.415,852.527 768.414,866.617 753.873,883.215 736.415,902.741 715.603,925.612 690.957,952.187 661.998,982.67 628.311,1016.96 589.674,1054.38 546.239,1093.39 498.797,1131.17 449.104,1163.36 400.179,1184.15 356.406,1187.14 323.184,1167.29 305.939,1123.38 308.624,1059.72 332.316,985.581 374.66,912.061 430.553,848.247 493.677,798.965 558.07,764.818 619.142,743.679 673.997,732.343 721.262,727.65 760.7,727.01 792.803,728.525 818.458,730.904 838.708,733.33 854.602,735.316 867.113,736.595 877.094,737.032 885.275,736.562 892.265,735.154 898.574,732.776 904.63,729.38 910.803,724.89 917.424,719.192 924.807,712.129 933.266,703.493 943.128,693.021 954.752,680.395 968.54,665.234 984.945,647.104 1004.48,625.535 1027.71,600.053 1055.23,570.258 1087.63,535.955 1125.39,497.372 1168.72,455.491 1217.31,412.501 1269.98,372.278 1324.27,340.665 1376.08,325.08 1419.74,332.913 1448.69,368.627 1457.12,430.686 1441.84,510.537 1403.69,595.187 1347.41,672.146 1280.03,733.504 1208.86,776.971 1139.87,804.382 1077.02,819.469 1022.35,826.168 976.42,827.78 938.79,826.744 908.491,824.715 884.319,822.751 865.032,821.487 849.468,821.289 836.589,822.357 825.498,824.811 815.433,828.736 805.741,834.22 795.86,841.378 785.285,850.361 773.553,861.365 760.214,874.633 744.821,890.445 726.917,909.105 706.035,930.903 681.713,956.063 653.525,984.645 621.153,1016.39 584.487,1050.54 543.795,1085.5 499.942,1118.66 454.642,1146.13 410.661,1163.02 371.843,1164.16 342.756,1145.7 327.868,1106.96 330.367,1051.58 351.098,987.055 388.141,922.355 437.322,865.09 493.368,819.663 551.157,787.108 606.589,766.088 656.92,754.155 700.701,748.704 737.497,747.489 767.56,748.792 791.54,751.406 810.27,754.548 824.622,757.747 835.416,760.752 843.377,763.456 849.115,765.842 853.127,767.944 855.802,769.826 857.439,771.563 858.259,773.235 858.416,774.922 858.013,776.707 857.108,778.673 855.723,780.907 853.848,783.505 851.442,786.576 848.438,790.244 844.737,794.66 840.209,800.001 834.685,806.483 827.956,814.371 819.759,823.983 809.771,835.708 797.596,850.01 782.752,867.444 764.663,888.649 742.645,914.34 715.916,945.257 683.614,982.067 644.867,1025.15 598.937,1074.23 545.483,1127.79 485.001,1182.21 419.464,1230.89 353.056,1263.86 292.661,1269.06 247.451,1236.36 226.941,1163.56 237.702,1060.58 280.377,947.003 349.085,843.31 433.758,762.537 523.728,707.887 610.472,675.691 688.652,659.661 755.839,653.753 811.695,653.311 857.134,655.154 893.685,657.279 923.079,658.499 947.008,658.147 967.005,655.877 984.403,651.519 1000.33,644.996 1015.72,636.277 1031.35,625.349 1047.85,612.222 1065.74,596.94 1085.41,579.614 1107.13,560.477 1131.03,539.945 1157.04,518.7 1184.84,497.766 1213.8,478.566 1242.89,462.902 1270.69,452.831 1295.39,450.367 1314.94,457.033 1327.37,473.361 1331.08,498.513 1325.28,530.261 1310.15,565.395 1286.9,600.447 1257.52,632.441 1224.4,659.38 1189.94,680.361 1156.24,695.392 1124.9,705.074 1097,710.28 1073.15,711.916 1053.57,710.787 1038.24,707.523 1026.97,702.573 1019.5,696.218 1015.53,688.599 1014.82,679.744 1017.16,669.597 1022.41,658.042 1030.5,644.928 1041.43,630.092 1055.22,613.387 1071.96,594.719 1091.71,574.1 1114.5,551.715 1140.26,528.011 1168.74,503.801 1199.41,480.364 1231.36,459.509 1263.22,443.529 1293.1,434.977 1318.69,436.209 1337.49,448.736 1347.21,472.566 1346.29,505.856 1334.25,545.139 1311.94,586.125 1281.37,624.752 1245.26,658.04 1206.55,684.436 1167.88,703.689 1131.37,716.435 1098.45,723.758 1069.95,726.837 1046.2,726.731 1027.18,724.288 1012.64,720.122 1002.24,714.63 995.586,708.03 992.332,700.396 992.18,691.697 994.911,681.818 1000.39,670.587 1008.57,657.792 1019.48,643.198 1033.21,626.572 1049.91,607.708 1069.75,586.477 1092.89,562.887 1119.43,537.182 1149.32,509.963 1182.25,482.339 1217.54,456.068 1253.96,433.626 1289.66,418.102 1322.12,412.797 1348.32,420.459 1365.17,442.312 1370.12,477.234 1361.82,521.619 1340.59,570.168 1308.37,617.335 1268.34,658.732 1224.12,691.881 1179.14,716.183 1136.16,732.379 1097.1,741.895 1063.04,746.317 1034.41,747.078 1011.17,745.32 992.962,741.872 979.307,737.279 969.676,731.857 963.567,725.747 960.549,718.961 960.28,711.414 962.518,702.952 967.122,693.367 974.048,682.408 983.34,669.789 995.129,655.197 1009.62,638.305 1027.08,618.791 1047.83,596.381 1072.18,570.904 1100.43,542.405 1132.74,511.285 1169.06,478.513 1208.89,445.863 1251.16,416.126 1293.94,393.152 1334.34,381.514 1368.6,385.586 1392.5,408.082 1402.25,448.539 1395.48,502.662 1372.09,563.238 1334.37,622.35 1286.44,673.724 1233.12,714.001 1178.96,742.645 1127.49,761.017 1081.06,771.322 1040.84,775.843 1007.18,776.531 979.815,774.876 958.147,771.918 941.428,768.332 928.886,764.512 919.8,760.654 913.541,756.823 909.593,752.993 907.547,749.083 907.1,744.977 908.046,740.53 910.262,735.579 913.701,729.939 918.386,723.402 924.404,715.727 931.906,706.641 941.104,695.823 952.282,682.905 965.791,667.461 982.059,649.014 1001.59,627.045 1024.96,601.033 1052.79,570.521 1085.69,535.258 1124.21,495.421 1168.59,451.976 1218.57,407.162 1272.96,365.036 1329.2,331.809 1382.99,315.457 1428.28,323.984 1458.08,362.208 1466.16,428.34 1449.21,512.903 1408.31,601.729 1348.69,681.516 1277.96,744.195 1203.84,787.826 1132.48,814.757 1067.89,829.15 1012.01,835.213 965.252,836.378 927.045,835.13 896.301,833.127 871.72,831.414 851.989,830.61 835.887,831.069 822.335,832.991 810.399,836.498 799.286,841.684 788.315,848.652 776.891,857.533 764.485,868.493 750.605,881.735 734.779,897.494 716.549,916.013 695.468,937.506 671.114,962.099 643.133,989.73 611.301,1020.01 575.631,1052.01 536.533,1084.07 495.003,1113.55 452.83,1136.79 412.733,1149.41 378.295,1147.13 353.58,1127.09 342.353,1089.38 347.092,1037.76 368.164,978.946 403.594,920.614 449.565,869.121 501.413,828.116 554.649,798.47 605.67,779.087 652.037,767.916 692.424,762.742 726.392,761.617 754.112,763.03 776.119,765.909 793.117,769.549 805.853,773.534 815.033,777.649 821.274,781.824 825.091,786.081 826.883,790.507 826.948,795.228 825.483,800.403 822.599,806.213 818.324,812.869 812.614,820.606 805.355,829.698 796.363,840.455 785.386,853.235 772.098,868.445 756.1,886.538 736.923,908.002 714.027,933.322 686.836,962.911 654.773,996.986 617.361,1035.35 574.374,1077.08 526.09,1120.06 473.633,1160.52 419.395,1192.73 367.372,1209.34 323.165,1202.92 293.292,1168.76 283.667,1108.03 297.643,1028.92 334.609,944.282 390.024,866.735 456.924,804.483 527.989,760.096 597.161,731.912 660.36,716.26 715.454,709.192 761.825,707.369 799.859,708.308 830.505,710.315 854.961,712.307 874.465,713.629 890.187,713.905 903.169,712.927 914.314,710.573 924.392,706.758 934.058,701.394 943.881,694.37 954.363,685.536 965.972,674.699 979.154,661.62 994.357,646.019 1012.04,627.594 1032.66,606.048 1056.69,581.146 1084.56,552.811 1116.61,521.26 1152.96,487.214 1193.39,452.164 1237.1,418.654 1282.44,390.46 1326.74,372.443 1366.24,369.8 1396.37,386.58 1412.62,423.81 1411.62,478.189 1392.31,542.457 1356.39,607.612 1307.91,665.818 1252.11,712.37 1194.18,745.991 1138.33,767.882 1087.43,780.456 1043.02,786.337 1005.61,787.818 974.974,786.666 950.495,784.128 931.34,781.019 916.633,777.831 905.547,774.832 897.345,772.137 891.404,769.772 887.219,767.705 884.387,765.877 882.602,764.215 881.634,762.642 881.322,761.08 881.554,759.452 882.266,757.679 883.427,755.681 885.038,753.371 887.129,750.651 889.756,747.408 893.004,743.511 896.985,738.8 901.845,733.083 907.771,726.128 914.993,717.648 923.797,707.299 934.537,694.659 947.641,679.227 963.632,660.409 983.132,637.524 1006.87,609.828 1035.68,576.575 1070.45,537.159 1112.03,491.372 1161.09,439.863 1217.72,384.845 1280.95,331.02 1348.05,286.403 1413.75,262.241 1470.07,270.738 1507.2,319.899 1516.19,407.423 1492.41,518.609 1437.91,631.888 1360.75,728.614 1271.85,799.601 1181.41,844.954 1096.81,869.993 1022.21,881.276 959.07,884.444 907.13,883.589 865.134,881.396 831.408,879.508 804.195,878.873 781.839,880.002 762.871,883.155 746.035,888.449 730.278,895.93 714.73,905.611 698.679,917.482 681.546,931.507 662.881,947.595 642.351,965.566 619.766,985.087 595.101,1005.61 568.554,1026.28 540.601,1045.89 512.066,1062.86 484.158,1075.3 458.474,1081.22 436.899,1078.9 421.397,1067.36 413.706,1046.79 414.974,1018.72 425.479,985.833 444.508,951.427 470.471,918.642 501.209,889.886 534.372,866.547 567.768,849.036 599.599,837.045 628.561,829.853 653.836,826.597 675.015,826.453 692,828.731 704.893,832.911 713.911,838.643 719.316,845.727 721.363,854.081 720.27,863.722 716.199,874.732 709.25,887.237 699.462,901.385 686.823,917.315 671.285,935.124 652.791,954.822 631.315,976.27 606.911,999.099 579.785,1022.62 550.384,1045.72 519.488,1066.8 488.308,1083.79 458.528,1094.3 432.265,1095.98 411.885,1087.14 399.668,1067.31 397.359,1037.72 405.742,1001.25 424.385,961.807 451.694,923.415 485.235,889.3 522.22,861.409 559.982,840.388 596.301,825.9 629.567,817.045 658.775,812.72 683.441,811.87 703.465,813.615 719.002,817.293 730.349,822.455 737.855,828.835 741.863,836.32 742.672,844.909 740.51,854.689 735.528,865.81 727.794,878.466 717.302,892.87 703.981,909.238 687.709,927.756 668.341,948.533 645.744,971.542 619.851,996.527 590.737,1022.89 558.721,1049.55 524.488,1074.82 489.224,1096.34 454.716,1111.22 423.362,1116.37 398.011,1109.22 381.58,1088.63 376.479,1055.62 384.002,1013.49 403.907,967.136 434.409,921.774 472.58,881.605 514.995,849.103 558.374,824.987 600.032,808.682 638.073,798.916 671.378,794.218 699.467,793.23 722.331,794.848 740.25,798.265 753.661,802.939 763.05,808.554 768.884,814.966 771.567,822.162 771.419,830.225 768.664,839.31 763.427,849.626 755.743,861.423 745.556,874.984 732.729,890.61 717.06,908.601 698.292,929.23 676.143,952.686 650.348,979.002 620.719,1007.93 587.246,1038.77 550.233,1070.17 510.473,1099.94 469.447,1124.9 429.476,1141.07 393.743,1144.26 366.032,1131.16 350.126,1100.78 348.918,1055.41 363.545,1000.53 392.934,943.317 434.025,890.474 482.567,846.548 534.111,813.39 584.815,790.646 631.872,776.675 673.576,769.396 709.161,766.832 738.555,767.368 762.129,769.807 780.49,773.338 794.336,777.454 804.353,781.88 811.163,786.505 815.286,791.33 817.139,796.432 817.028,801.942 815.158,808.029 811.638,814.896 806.494,822.774 799.666,831.93 791.02,842.667 780.348,855.326 767.366,870.293 751.717,887.991 732.976,908.865 710.656,933.352 684.238,961.808 653.211,994.395 617.166,1030.88 575.936,1070.36 529.824,1110.85 479.91,1148.9 428.41,1179.34 "/>
</svg>
