<?xml version="1.0" encoding="utf-8"?>
<svg xmlns="http://www.w3.org/2000/svg" xmlns:xlink="http://www.w3.org/1999/xlink" width="420" height="360" viewBox="0 0 1680 1440">
<defs>
  <clipPath id="clip180">
    <rect x="0" y="0" width="1680" height="1440"/>
  </clipPath>
</defs>
<path clip-path="url(#clip180)" d="M0 1440 L1680 1440 L1680 0 L0 0  Z" fill="#ffffff" fill-rule="evenodd" fill-opacity="1"/>
<defs>
  <clipPath id="clip181">
    <rect x="134" y="140" width="1499" height="1178"/>
  </clipPath>
</defs>
<path clip-path="url(#clip180)" d="M134.653 1318.17 L1632.76 1318.17 L1632.76 140.752 L134.653 140.752  Z" fill="#ffffff" fill-rule="evenodd" fill-opacity="1"/>
<polyline clip-path="url(#clip181)" style="stroke:#000000; stroke-linecap:round; stroke-linejoin:round; stroke-width:2; stroke-opacity:0.1; fill:none" points="471.731,1318.17 471.731,140.752 "/>
<polyline clip-path="url(#clip181)" style="stroke:#000000; stroke-linecap:round; stroke-linejoin:round; stroke-width:2; stroke-opacity:0.1; fill:none" points="851.044,1318.17 851.044,140.752 "/>
<polyline clip-path="url(#clip181)" style="stroke:#000000; stroke-linecap:round; stroke-linejoin:round; stroke-width:2; stroke-opacity:0.1; fill:none" points="1230.36,1318.17 1230.36,140.752 "/>
<polyline clip-path="url(#clip181)" style="stroke:#000000; stroke-linecap:round; stroke-linejoin:round; stroke-width:2; stroke-opacity:0.1; fill:none" points="1609.67,1318.17 1609.67,140.752 "/>
<polyline clip-path="url(#clip181)" style="stroke:#000000; stroke-linecap:round; stroke-linejoin:round; stroke-width:2; stroke-opacity:0.1; fill:none" points="134.653,1307.64 1632.76,1307.64 "/>
<polyline clip-path="url(#clip181)" style="stroke:#000000; stroke-linecap:round; stroke-linejoin:round; stroke-width:2; stroke-opacity:0.1; fill:none" points="134.653,1070.65 1632.76,1070.65 "/>
<polyline clip-path="url(#clip181)" style="stroke:#000000; stroke-linecap:round; stroke-linejoin:round; stroke-width:2; stroke-opacity:0.1; fill:none" points="134.653,833.658 1632.76,833.658 "/>
<polyline clip-path="url(#clip181)" style="stroke:#000000; stroke-linecap:round; stroke-linejoin:round; stroke-width:2; stroke-opacity:0.1; fill:none" points="134.653,596.665 1632.76,596.665 "/>
<polyline clip-path="url(#clip181)" style="stroke:#000000; stroke-linecap:round; stroke-linejoin:round; stroke-width:2; stroke-opacity:0.1; fill:none" points="134.653,359.673 1632.76,359.673 "/>
<polyline clip-path="url(#clip180)" style="stroke:#000000; stroke-linecap:round; stroke-linejoin:round; stroke-width:4; stroke-opacity:1; fill:none" points="134.653,1318.17 1632.76,1318.17 "/>
<polyline clip-path="url(#clip180)" style="stroke:#000000; stroke-linecap:round; stroke-linejoin:round; stroke-width:4; stroke-opacity:1; fill:none" points="471.731,1318.17 471.731,1299.28 "/>
<polyline clip-path="url(#clip180)" style="stroke:#000000; stroke-linecap:round; stroke-linejoin:round; stroke-width:4; stroke-opacity:1; fill:none" points="851.044,1318.17 851.044,1299.28 "/>
<polyline clip-path="url(#clip180)" style="stroke:#000000; stroke-linecap:round; stroke-linejoin:round; stroke-width:4; stroke-opacity:1; fill:none" points="1230.36,1318.17 1230.36,1299.28 "/>
<polyline clip-path="url(#clip180)" style="stroke:#000000; stroke-linecap:round; stroke-linejoin:round; stroke-width:4; stroke-opacity:1; fill:none" points="1609.67,1318.17 1609.67,1299.28 "/>
<path clip-path="url(#clip180)" d="M425.794 1357.98 L455.469 1357.98 L455.469 1361.92 L425.794 1361.92 L425.794 1357.98 Z" fill="#000000" fill-rule="nonzero" fill-opacity="1" /><path clip-path="url(#clip180)" d="M466.372 1370.88 L474.011 1370.88 L474.011 1344.51 L465.701 1346.18 L465.701 1341.92 L473.965 1340.25 L478.64 1340.25 L478.64 1370.88 L486.279 1370.88 L486.279 1374.81 L466.372 1374.81 L466.372 1370.88 Z" fill="#000000" fill-rule="nonzero" fill-opacity="1" /><path clip-path="url(#clip180)" d="M505.724 1343.33 Q502.113 1343.33 500.284 1346.9 Q498.478 1350.44 498.478 1357.57 Q498.478 1364.67 500.284 1368.24 Q502.113 1371.78 505.724 1371.78 Q509.358 1371.78 511.163 1368.24 Q512.992 1364.67 512.992 1357.57 Q512.992 1350.44 511.163 1346.9 Q509.358 1343.33 505.724 1343.33 M505.724 1339.63 Q511.534 1339.63 514.589 1344.24 Q517.668 1348.82 517.668 1357.57 Q517.668 1366.3 514.589 1370.9 Q511.534 1375.48 505.724 1375.48 Q499.914 1375.48 496.835 1370.9 Q493.779 1366.3 493.779 1357.57 Q493.779 1348.82 496.835 1344.24 Q499.914 1339.63 505.724 1339.63 Z" fill="#000000" fill-rule="nonzero" fill-opacity="1" /><path clip-path="url(#clip180)" d="M851.044 1343.33 Q847.433 1343.33 845.605 1346.9 Q843.799 1350.44 843.799 1357.57 Q843.799 1364.67 845.605 1368.24 Q847.433 1371.78 851.044 1371.78 Q854.679 1371.78 856.484 1368.24 Q858.313 1364.67 858.313 1357.57 Q858.313 1350.44 856.484 1346.9 Q854.679 1343.33 851.044 1343.33 M851.044 1339.63 Q856.854 1339.63 859.91 1344.24 Q862.989 1348.82 862.989 1357.57 Q862.989 1366.3 859.91 1370.9 Q856.854 1375.48 851.044 1375.48 Q845.234 1375.48 842.155 1370.9 Q839.1 1366.3 839.1 1357.57 Q839.1 1348.82 842.155 1344.24 Q845.234 1339.63 851.044 1339.63 Z" fill="#000000" fill-rule="nonzero" fill-opacity="1" /><path clip-path="url(#clip180)" d="M1205.05 1370.88 L1212.68 1370.88 L1212.68 1344.51 L1204.37 1346.18 L1204.37 1341.92 L1212.64 1340.25 L1217.31 1340.25 L1217.31 1370.88 L1224.95 1370.88 L1224.95 1374.81 L1205.05 1374.81 L1205.05 1370.88 Z" fill="#000000" fill-rule="nonzero" fill-opacity="1" /><path clip-path="url(#clip180)" d="M1244.4 1343.33 Q1240.79 1343.33 1238.96 1346.9 Q1237.15 1350.44 1237.15 1357.57 Q1237.15 1364.67 1238.96 1368.24 Q1240.79 1371.78 1244.4 1371.78 Q1248.03 1371.78 1249.84 1368.24 Q1251.67 1364.67 1251.67 1357.57 Q1251.67 1350.44 1249.84 1346.9 Q1248.03 1343.33 1244.4 1343.33 M1244.4 1339.63 Q1250.21 1339.63 1253.26 1344.24 Q1256.34 1348.82 1256.34 1357.57 Q1256.34 1366.3 1253.26 1370.9 Q1250.21 1375.48 1244.4 1375.48 Q1238.59 1375.48 1235.51 1370.9 Q1232.45 1366.3 1232.45 1357.57 Q1232.45 1348.82 1235.51 1344.24 Q1238.59 1339.63 1244.4 1339.63 Z" fill="#000000" fill-rule="nonzero" fill-opacity="1" /><path clip-path="url(#clip180)" d="M1588.44 1370.88 L1604.76 1370.88 L1604.76 1374.81 L1582.82 1374.81 L1582.82 1370.88 Q1585.48 1368.12 1590.07 1363.49 Q1594.67 1358.84 1595.85 1357.5 Q1598.1 1354.98 1598.98 1353.24 Q1599.88 1351.48 1599.88 1349.79 Q1599.88 1347.04 1597.94 1345.3 Q1596.01 1343.56 1592.91 1343.56 Q1590.71 1343.56 1588.26 1344.33 Q1585.83 1345.09 1583.05 1346.64 L1583.05 1341.92 Q1585.88 1340.79 1588.33 1340.21 Q1590.78 1339.63 1592.82 1339.63 Q1598.19 1339.63 1601.38 1342.31 Q1604.58 1345 1604.58 1349.49 Q1604.58 1351.62 1603.77 1353.54 Q1602.98 1355.44 1600.88 1358.03 Q1600.3 1358.7 1597.19 1361.92 Q1594.09 1365.11 1588.44 1370.88 Z" fill="#000000" fill-rule="nonzero" fill-opacity="1" /><path clip-path="url(#clip180)" d="M1624.58 1343.33 Q1620.97 1343.33 1619.14 1346.9 Q1617.33 1350.44 1617.33 1357.57 Q1617.33 1364.67 1619.14 1368.24 Q1620.97 1371.78 1624.58 1371.78 Q1628.21 1371.78 1630.02 1368.24 Q1631.85 1364.67 1631.85 1357.57 Q1631.85 1350.44 1630.02 1346.9 Q1628.21 1343.33 1624.58 1343.33 M1624.58 1339.63 Q1630.39 1339.63 1633.44 1344.24 Q1636.52 1348.82 1636.52 1357.57 Q1636.52 1366.3 1633.44 1370.9 Q1630.39 1375.48 1624.58 1375.48 Q1618.77 1375.48 1615.69 1370.9 Q1612.63 1366.3 1612.63 1357.57 Q1612.63 1348.82 1615.69 1344.24 Q1618.77 1339.63 1624.58 1339.63 Z" fill="#000000" fill-rule="nonzero" fill-opacity="1" /><polyline clip-path="url(#clip180)" style="stroke:#000000; stroke-linecap:round; stroke-linejoin:round; stroke-width:4; stroke-opacity:1; fill:none" points="134.653,1318.17 134.653,140.752 "/>
<polyline clip-path="url(#clip180)" style="stroke:#000000; stroke-linecap:round; stroke-linejoin:round; stroke-width:4; stroke-opacity:1; fill:none" points="134.653,1307.64 153.551,1307.64 "/>
<polyline clip-path="url(#clip180)" style="stroke:#000000; stroke-linecap:round; stroke-linejoin:round; stroke-width:4; stroke-opacity:1; fill:none" points="134.653,1070.65 153.551,1070.65 "/>
<polyline clip-path="url(#clip180)" style="stroke:#000000; stroke-linecap:round; stroke-linejoin:round; stroke-width:4; stroke-opacity:1; fill:none" points="134.653,833.658 153.551,833.658 "/>
<polyline clip-path="url(#clip180)" style="stroke:#000000; stroke-linecap:round; stroke-linejoin:round; stroke-width:4; stroke-opacity:1; fill:none" points="134.653,596.665 153.551,596.665 "/>
<polyline clip-path="url(#clip180)" style="stroke:#000000; stroke-linecap:round; stroke-linejoin:round; stroke-width:4; stroke-opacity:1; fill:none" points="134.653,359.673 153.551,359.673 "/>
<path clip-path="url(#clip180)" d="M97.5086 1293.44 Q93.8975 1293.44 92.0688 1297.01 Q90.2632 1300.55 90.2632 1307.68 Q90.2632 1314.78 92.0688 1318.35 Q93.8975 1321.89 97.5086 1321.89 Q101.143 1321.89 102.948 1318.35 Q104.777 1314.78 104.777 1307.68 Q104.777 1300.55 102.948 1297.01 Q101.143 1293.44 97.5086 1293.44 M97.5086 1289.74 Q103.319 1289.74 106.374 1294.34 Q109.453 1298.93 109.453 1307.68 Q109.453 1316.4 106.374 1321.01 Q103.319 1325.59 97.5086 1325.59 Q91.6984 1325.59 88.6197 1321.01 Q85.5642 1316.4 85.5642 1307.68 Q85.5642 1298.93 88.6197 1294.34 Q91.6984 1289.74 97.5086 1289.74 Z" fill="#000000" fill-rule="nonzero" fill-opacity="1" /><path clip-path="url(#clip180)" d="M58.1569 1084 L65.7958 1084 L65.7958 1057.63 L57.4856 1059.3 L57.4856 1055.04 L65.7495 1053.37 L70.4254 1053.37 L70.4254 1084 L78.0642 1084 L78.0642 1087.93 L58.1569 1087.93 L58.1569 1084 Z" fill="#000000" fill-rule="nonzero" fill-opacity="1" /><path clip-path="url(#clip180)" d="M97.5086 1056.45 Q93.8975 1056.45 92.0688 1060.01 Q90.2632 1063.56 90.2632 1070.68 Q90.2632 1077.79 92.0688 1081.36 Q93.8975 1084.9 97.5086 1084.9 Q101.143 1084.9 102.948 1081.36 Q104.777 1077.79 104.777 1070.68 Q104.777 1063.56 102.948 1060.01 Q101.143 1056.45 97.5086 1056.45 M97.5086 1052.75 Q103.319 1052.75 106.374 1057.35 Q109.453 1061.93 109.453 1070.68 Q109.453 1079.41 106.374 1084.02 Q103.319 1088.6 97.5086 1088.6 Q91.6984 1088.6 88.6197 1084.02 Q85.5642 1079.41 85.5642 1070.68 Q85.5642 1061.93 88.6197 1057.35 Q91.6984 1052.75 97.5086 1052.75 Z" fill="#000000" fill-rule="nonzero" fill-opacity="1" /><path clip-path="url(#clip180)" d="M61.3745 847.003 L77.6939 847.003 L77.6939 850.938 L55.7495 850.938 L55.7495 847.003 Q58.4115 844.248 62.9949 839.618 Q67.6013 834.966 68.7819 833.623 Q71.0272 831.1 71.9068 829.364 Q72.8096 827.605 72.8096 825.915 Q72.8096 823.16 70.8652 821.424 Q68.9439 819.688 65.8421 819.688 Q63.643 819.688 61.1893 820.452 Q58.7588 821.216 55.981 822.767 L55.981 818.044 Q58.8051 816.91 61.2588 816.331 Q63.7124 815.753 65.7495 815.753 Q71.1198 815.753 74.3142 818.438 Q77.5087 821.123 77.5087 825.614 Q77.5087 827.743 76.6985 829.665 Q75.9115 831.563 73.805 834.155 Q73.2263 834.827 70.1245 838.044 Q67.0226 841.239 61.3745 847.003 Z" fill="#000000" fill-rule="nonzero" fill-opacity="1" /><path clip-path="url(#clip180)" d="M97.5086 819.456 Q93.8975 819.456 92.0688 823.021 Q90.2632 826.563 90.2632 833.692 Q90.2632 840.799 92.0688 844.364 Q93.8975 847.905 97.5086 847.905 Q101.143 847.905 102.948 844.364 Q104.777 840.799 104.777 833.692 Q104.777 826.563 102.948 823.021 Q101.143 819.456 97.5086 819.456 M97.5086 815.753 Q103.319 815.753 106.374 820.359 Q109.453 824.942 109.453 833.692 Q109.453 842.419 106.374 847.026 Q103.319 851.609 97.5086 851.609 Q91.6984 851.609 88.6197 847.026 Q85.5642 842.419 85.5642 833.692 Q85.5642 824.942 88.6197 820.359 Q91.6984 815.753 97.5086 815.753 Z" fill="#000000" fill-rule="nonzero" fill-opacity="1" /><path clip-path="url(#clip180)" d="M71.5133 595.311 Q74.8698 596.029 76.7448 598.297 Q78.6429 600.566 78.6429 603.899 Q78.6429 609.015 75.1244 611.816 Q71.6059 614.617 65.1245 614.617 Q62.9486 614.617 60.6338 614.177 Q58.3421 613.76 55.8884 612.904 L55.8884 608.39 Q57.8328 609.524 60.1477 610.103 Q62.4625 610.681 64.9856 610.681 Q69.3837 610.681 71.6754 608.945 Q73.9902 607.209 73.9902 603.899 Q73.9902 600.843 71.8374 599.131 Q69.7078 597.394 65.8884 597.394 L61.8606 597.394 L61.8606 593.552 L66.0735 593.552 Q69.5226 593.552 71.3513 592.186 Q73.18 590.797 73.18 588.205 Q73.18 585.543 71.2819 584.131 Q69.4069 582.695 65.8884 582.695 Q63.9671 582.695 61.768 583.112 Q59.569 583.529 56.9301 584.408 L56.9301 580.242 Q59.5921 579.501 61.9069 579.131 Q64.2449 578.76 66.305 578.76 Q71.6291 578.76 74.7309 581.191 Q77.8327 583.598 77.8327 587.719 Q77.8327 590.589 76.1892 592.58 Q74.5457 594.547 71.5133 595.311 Z" fill="#000000" fill-rule="nonzero" fill-opacity="1" /><path clip-path="url(#clip180)" d="M97.5086 582.464 Q93.8975 582.464 92.0688 586.029 Q90.2632 589.57 90.2632 596.7 Q90.2632 603.806 92.0688 607.371 Q93.8975 610.913 97.5086 610.913 Q101.143 610.913 102.948 607.371 Q104.777 603.806 104.777 596.7 Q104.777 589.57 102.948 586.029 Q101.143 582.464 97.5086 582.464 M97.5086 578.76 Q103.319 578.76 106.374 583.367 Q109.453 587.95 109.453 596.7 Q109.453 605.427 106.374 610.033 Q103.319 614.617 97.5086 614.617 Q91.6984 614.617 88.6197 610.033 Q85.5642 605.427 85.5642 596.7 Q85.5642 587.95 88.6197 583.367 Q91.6984 578.76 97.5086 578.76 Z" fill="#000000" fill-rule="nonzero" fill-opacity="1" /><path clip-path="url(#clip180)" d="M70.1939 346.467 L58.3884 364.916 L70.1939 364.916 L70.1939 346.467 M68.967 342.393 L74.8466 342.393 L74.8466 364.916 L79.7772 364.916 L79.7772 368.805 L74.8466 368.805 L74.8466 376.953 L70.1939 376.953 L70.1939 368.805 L54.5921 368.805 L54.5921 364.291 L68.967 342.393 Z" fill="#000000" fill-rule="nonzero" fill-opacity="1" /><path clip-path="url(#clip180)" d="M97.5086 345.471 Q93.8975 345.471 92.0688 349.036 Q90.2632 352.578 90.2632 359.707 Q90.2632 366.814 92.0688 370.379 Q93.8975 373.92 97.5086 373.92 Q101.143 373.92 102.948 370.379 Q104.777 366.814 104.777 359.707 Q104.777 352.578 102.948 349.036 Q101.143 345.471 97.5086 345.471 M97.5086 341.768 Q103.319 341.768 106.374 346.374 Q109.453 350.958 109.453 359.707 Q109.453 368.434 106.374 373.041 Q103.319 377.624 97.5086 377.624 Q91.6984 377.624 88.6197 373.041 Q85.5642 368.434 85.5642 359.707 Q85.5642 350.958 88.6197 346.374 Q91.6984 341.768 97.5086 341.768 Z" fill="#000000" fill-rule="nonzero" fill-opacity="1" /><path clip-path="url(#clip180)" d="M862.761 27.2059 L846.355 49.2833 L863.612 72.576 L854.821 72.576 L841.616 54.752 L828.41 72.576 L819.619 72.576 L837.241 48.8377 L821.118 27.2059 L829.908 27.2059 L841.94 43.369 L853.971 27.2059 L862.761 27.2059 Z" fill="#000000" fill-rule="nonzero" fill-opacity="1" /><path clip-path="url(#clip180)" d="M870.377 46.9338 L903.756 46.9338 L903.756 52.7671 L870.377 52.7671 L870.377 46.9338 Z" fill="#000000" fill-rule="nonzero" fill-opacity="1" /><path clip-path="url(#clip180)" d="M912.385 27.2059 L947.79 27.2059 L947.79 34.0114 L919.757 66.6212 L947.79 66.6212 L947.79 72.576 L911.372 72.576 L911.372 65.7705 L939.404 33.1607 L912.385 33.1607 L912.385 27.2059 Z" fill="#000000" fill-rule="nonzero" fill-opacity="1" /><polyline clip-path="url(#clip181)" style="stroke:#009af9; stroke-linecap:round; stroke-linejoin:round; stroke-width:1.6; stroke-opacity:1; fill:none" points="888.976,1283.94 890.829,1284.58 896.066,1284.85 904.513,1284.59 916.331,1283.54 931.956,1281.24 952.076,1277.03 977.62,1269.8 1009.75,1257.89 1049.8,1238.74 1099.2,1208.58 1159.21,1162.1 1230.37,1092.45 1311.63,992.159 1398.96,856.024 1483.89,686.624 1553.04,500.928 1590.36,331.635 1583,215.766 1527.93,174.075 1434.06,199.489 1317.88,265.884 1196.31,345.957 1081.81,421.993 981.168,486.512 896.703,538.432 827.937,579.433 773.003,611.835 729.544,637.7 695.197,658.579 667.835,675.542 645.65,689.276 627.17,700.197 611.236,708.534 596.967,714.402 583.721,717.846 571.068,718.879 558.751,717.52 546.674,713.819 534.871,707.882 523.492,699.9 512.782,690.164 503.058,679.081 494.674,667.165 487.994,655.026 483.345,643.327 480.982,632.735 481.051,623.861 483.563,617.203 488.385,613.097 495.245,611.698 503.759,612.981 513.459,616.76 523.837,622.73 534.385,630.507 544.625,639.669 554.137,649.789 562.571,660.453 569.652,671.28 575.178,681.919 579.016,692.053 581.091,701.391 581.378,709.671 579.893,716.646 576.692,722.093 571.866,725.803 565.54,727.596 557.879,727.318 549.094,724.864 539.441,720.189 529.233,713.329 518.836,704.423 508.665,693.732 499.175,681.649 490.837,668.7 484.112,655.518 479.408,642.809 477.046,631.291 477.218,621.625 479.965,614.352 485.162,609.837 492.53,608.247 501.66,609.545 512.052,613.526 523.162,619.85 534.444,628.098 545.388,637.813 555.548,648.535 564.553,659.827 572.117,671.287 578.032,682.548 582.162,693.283 584.433,703.193 584.82,712.004 583.344,719.466 580.061,725.341 575.062,729.413 568.475,731.485 560.465,731.389 551.243,729.001 541.071,724.257 530.268,717.177 519.214,707.887 508.346,696.645 498.145,683.853 489.119,670.059 481.768,655.941 476.544,642.258 473.808,629.795 473.784,619.282 476.531,611.317 481.928,606.312 489.681,604.453 499.351,605.705 510.401,609.843 522.241,616.498 534.281,625.21 545.973,635.487 556.837,646.834 566.479,658.788 574.597,670.923 580.973,682.858 585.467,694.253 588.002,704.8 588.557,714.217 587.152,722.245 583.845,728.638 578.725,733.166 571.92,735.618 563.593,735.808 553.954,733.589 543.267,728.875 531.854,721.663 520.106,712.059 508.478,700.309 497.48,686.817 487.656,672.149 479.551,657.02 473.667,642.251 470.415,628.697 470.06,617.169 472.691,608.339 478.197,602.675 486.277,600.399 496.465,601.484 508.182,605.689 520.792,612.613 533.655,621.759 546.176,632.591 557.837,644.577 568.216,657.221 576.99,670.075 583.928,682.739 588.885,694.859 591.781,706.117 592.595,716.226 591.347,724.914 588.094,731.929 582.927,737.027 575.967,739.981 567.375,740.585 557.357,738.669 546.173,734.116 534.146,726.895 521.674,717.082 509.226,704.901 497.337,690.745 486.589,675.191 477.577,658.986 470.86,643.009 466.907,628.195 466.042,615.447 468.395,605.53 473.88,598.988 482.194,596.094 492.851,596.842 505.231,600.984 518.645,608.088 532.398,617.613 545.842,628.978 558.411,641.609 569.649,654.972 579.204,668.589 586.832,682.041 592.376,694.959 595.754,707.015 596.942,717.91 595.961,727.369 592.868,735.127 587.748,740.93 580.721,744.534 571.941,745.712 561.603,744.266 549.963,740.046 537.338,732.982 524.125,723.112 510.802,710.623 497.927,695.884 486.118,679.465 476.019,662.136 468.257,644.83 463.373,628.566 461.761,614.354 463.615,603.071 468.888,595.365 477.293,591.583 488.33,591.76 501.341,595.65 515.581,602.796 530.292,612.615 544.762,624.47 558.37,637.737 570.612,651.84 581.105,666.267 589.58,680.571 595.868,694.367 599.88,707.315 601.59,719.108 601.017,729.462 598.217,738.104 593.272,744.77 586.296,749.2 577.433,751.145 566.868,750.377 554.842,746.709 541.661,740.024 527.714,730.309 513.481,717.7 499.533,702.519 486.517,685.313 475.132,666.853 466.073,648.114 459.968,630.201 457.303,614.24 458.356,601.247 463.148,592.006 471.426,586.973 482.692,586.253 496.257,589.622 511.319,596.608 527.047,606.581 542.656,618.847 557.453,632.723 570.876,647.576 582.496,662.853 592.014,678.076 599.242,692.838 604.08,706.783 606.498,719.596 606.512,730.985 604.178,740.673 599.574,748.384 592.806,753.844 584.006,756.785 573.347,756.949 561.047,754.108 547.395,748.091 532.761,738.822 517.614,726.365 502.526,710.976 488.167,693.145 475.282,673.619 464.638,653.391 456.961,633.64 452.852,615.617 452.702,600.502 456.631,589.254 464.456,582.486 475.706,580.416 489.672,582.878 505.501,589.4 522.283,599.311 539.141,611.853 555.296,626.269 570.108,641.862 583.088,658.021 593.893,674.228 602.306,690.045 608.212,705.101 611.573,719.069 612.403,731.651 610.754,742.562 606.704,751.522 600.35,758.248 591.812,762.452 581.244,763.849 568.84,762.169 554.859,757.185 539.643,748.745 523.633,736.826 507.388,721.586 491.582,703.424 476.992,683.02 464.453,661.346 454.796,639.626 448.756,619.231 446.874,601.523 449.413,587.682 456.306,578.541 467.146,574.497 481.24,575.493 497.69,581.093 515.503,590.601 533.699,603.19 551.389,618.016 567.831,634.297 582.451,651.348 594.845,668.595 604.752,685.56 612.033,701.847 616.636,717.114 618.572,731.057 617.891,743.387 614.667,753.822 608.994,762.073 600.98,767.84 590.757,770.816 578.491,770.694 564.405,767.189 548.796,760.07 532.063,749.209 514.726,734.639 497.439,716.624 480.987,695.723 466.256,672.827 454.176,649.149 445.63,626.142 441.343,605.356 441.776,588.232 447.04,575.899 456.861,569.023 470.606,567.746 487.367,571.733 506.077,580.297 525.637,592.547 545.022,607.541 563.356,624.385 579.948,642.295 594.302,660.615 606.092,678.811 615.138,696.449 621.367,713.166 624.78,728.648 625.426,742.605 623.38,754.755 618.732,764.81 611.582,772.467 602.042,777.405 590.25,779.291 576.384,777.789 560.687,772.592 543.495,763.459 525.264,750.276 506.593,733.132 488.238,712.399 471.098,688.801 456.176,663.448 444.498,637.802 436.998,613.552 434.389,592.417 437.044,575.895 444.913,565.043 457.515,560.336 473.994,561.659 493.242,568.409 514.043,579.667 535.208,594.383 555.687,611.525 574.624,630.171 591.387,649.549 605.549,669.035 616.861,688.136 625.211,706.454 630.582,723.659 633.02,739.457 632.602,753.569 629.42,765.716 623.571,775.602 615.155,782.906 604.283,787.283 591.09,788.365 575.758,785.782 558.542,779.189 539.807,768.32 520.059,753.06 499.972,733.531 480.399,710.194 462.358,683.927 446.977,656.054 435.391,628.288 428.604,602.565 427.335,580.788 431.885,564.529 442.06,554.784 457.185,551.856 476.195,555.388 497.793,564.527 520.618,578.146 543.398,595.05 565.051,614.129 584.74,634.437 601.878,655.211 616.1,675.858 627.22,695.919 635.184,715.028 640.023,732.881 641.819,749.203 640.671,763.727 636.685,776.174 629.957,786.241 620.583,793.592 608.663,797.852 594.32,798.619 577.724,795.473 559.128,788.017 538.908,775.933 517.597,759.064 495.924,737.523 474.83,711.809 455.447,682.906 439.04,652.322 426.881,622.015 420.089,594.196 419.444,571.006 425.233,554.165 437.167,544.684 454.413,542.755 475.716,547.825 499.589,558.814 524.514,574.392 549.113,593.211 572.248,614.071 593.072,635.983 611.02,658.182 625.767,680.09 637.176,701.271 645.242,721.388 650.037,740.16 651.674,757.331 650.274,772.649 645.952,785.84 638.806,796.601 628.921,804.586 616.378,809.397 601.274,810.594 583.751,807.705 564.032,800.259 542.466,787.848 519.577,770.216 496.109,747.382 473.051,719.785 451.631,688.41 433.255,654.863 419.378,621.316 411.311,590.284 410.003,564.255 415.847,545.254 428.568,534.486 447.251,532.176 470.483,537.665 496.579,549.679 523.826,566.668 550.678,587.094 575.883,609.614 598.526,633.153 618.016,656.903 634.037,680.278 646.479,702.851 655.372,724.304 660.827,744.378 662.99,762.841 662.009,779.461 658.014,793.985 651.106,806.121 641.362,815.528 628.84,821.804 613.6,824.484 595.73,823.048 575.39,816.943 552.852,805.636 528.566,788.703 503.212,765.952 477.749,737.597 453.436,704.428 431.79,667.955 414.475,630.418 403.097,594.618 398.946,563.518 402.737,539.718 414.428,524.95 433.193,519.788 457.553,523.683 485.632,535.256 515.458,552.715 545.213,574.244 573.407,598.25 598.949,623.474 621.133,648.988 639.589,674.144 654.193,698.495 664.993,721.725 672.135,743.596 675.805,763.903 676.19,782.447 673.45,799.01 667.71,813.337 659.049,825.122 647.509,833.99 633.113,839.489 615.883,841.086 595.879,838.172 573.246,830.096 548.271,816.222 521.453,796.046 493.579,769.354 465.779,736.44 439.545,698.331 416.674,656.947 399.106,615.092 388.659,576.169 386.698,543.629 393.821,520.275 409.687,507.685 433.043,505.981 461.956,514.011 494.161,529.83 527.421,551.234 559.802,576.183 589.817,603.023 616.463,630.536 639.168,657.885 657.706,684.525 672.092,710.103 682.487,734.381 689.123,757.183 692.248,778.353 692.087,797.727 688.817,815.115 682.559,830.281 673.375,842.93 661.275,852.685 646.236,859.079 628.22,861.538 607.216,859.384 583.284,851.852 556.626,838.146 527.667,817.545 497.143,789.586 466.193,754.315 436.406,712.588 409.791,666.332 388.623,618.623 375.142,573.437 371.138,535.002 377.539,506.9 394.137,491.25 419.577,488.331 451.629,496.776 487.625,514.192 524.92,537.881 561.242,565.391 594.874,594.791 624.696,624.718 650.106,654.291 670.911,682.973 687.195,710.452 699.202,736.546 707.253,761.133 711.674,784.114 712.757,805.383 710.733,824.81 705.758,842.221 697.91,857.387 687.197,870.002 673.562,879.666 656.906,885.861 637.111,887.939 614.08,885.103 587.795,876.431 558.395,860.921 526.272,837.614 492.2,805.814 457.443,765.415 423.846,717.307 393.807,663.756 370.096,608.545 355.456,556.647 352.06,513.329 360.95,482.905 381.7,467.647 412.457,467.384 450.343,479.923 492.072,502 534.529,530.239 575.176,561.799 612.222,594.612 644.603,627.344 671.861,659.216 693.975,689.821 711.201,718.97 723.942,746.582 732.648,772.623 737.749,797.072 739.616,819.892 738.536,841.022 734.705,860.366 728.22,877.775 719.091,893.039 707.242,905.861 692.525,915.837 674.736,922.423 653.637,924.908 628.999,922.387 600.655,913.75 568.585,897.717 533.041,872.944 494.697,838.261 454.825,793.067 415.449,737.899 379.39,675.044 350.091,608.915 331.153,545.797 325.581,492.694 334.968,455.506 358.947,437.332 395.202,437.803 440.036,453.743 489.249,480.627 538.952,514.005 586.097,550.35 628.65,587.293 665.525,623.455 696.377,658.155 721.374,691.129 740.985,722.332 755.819,751.811 766.512,779.644 773.66,805.904 777.774,830.649 779.261,853.916 778.422,875.719 775.45,896.042 770.437,914.84 763.381,932.022 754.191,947.444 742.69,960.885 728.624,972.022 711.666,980.398 691.426,985.372 667.473,986.071 639.373,981.333 606.752,969.669 569.403,949.266 527.455,918.105 481.602,874.267 433.392,816.547 385.495,745.386 341.828,663.974 307.306,578.953 287.051,499.921 285.116,437.208 303.159,398.548 339.731,386.456 390.632,397.965 450.132,426.658 512.444,465.442 572.809,508.516 627.981,552.056 676.196,594.003 716.872,633.504 750.237,670.387 776.993,704.791 798.064,736.957 814.43,767.131 827.02,795.52 836.665,822.296 844.072,847.593 849.83,871.518 854.417,894.159 858.216,915.592 861.537,935.881 864.633,955.082 867.713,973.244 870.962,990.409 874.549,1006.61 878.643,1021.87 883.419,1036.19 889.07,1049.57 895.82,1061.98 903.93,1073.33 913.709,1083.53 925.53,1092.36 939.84,1099.53 957.17,1104.58 978.143,1106.84 1003.48,1105.32 1033.96,1098.61 1070.4,1084.72 1113.53,1061 1163.77,1024.06 1220.88,970.1 1283.46,895.621 1348.3,799.135 1409.8,683.635 1460.06,559.007 1490.1,442.098 1492.43,352.274 1464.02,303.433 1407.89,297.833 1332.05,326.597 1246.53,375.822 1160.45,432.92 1080.32,489.641 1009.76,541.972 950.047,588.72 900.885,630.112 861.108,666.885 829.153,699.812 803.379,729.521 782.23,756.453 764.316,780.88 748.438,802.932 733.58,822.623 718.884,839.862 703.628,854.458 687.199,866.118 669.075,874.426 648.819,878.841 626.085,878.682 600.65,873.132 572.456,861.281 541.689,842.206 508.872,815.145 474.972,779.756 441.489,736.475 410.475,686.89 384.43,633.987 366.007,582.049 357.56,536.051 360.602,500.617 375.379,478.884 400.735,471.798 434.339,478.156 473.186,495.285 514.175,519.976 554.581,549.246 592.319,580.743 626.016,612.835 654.935,644.502 678.841,675.161 697.838,704.507 712.232,732.392 722.424,758.744 728.827,783.515 731.815,806.658 731.696,828.106 728.689,847.758 722.926,865.466 714.447,881.022 703.212,894.137 689.105,904.42 671.959,911.352 651.57,914.254 627.745,912.273 600.348,904.368 569.383,889.35 535.108,865.979 498.176,833.186 459.792,790.432 421.85,738.219 386.975,678.634 358.373,615.702 339.412,555.174 332.948,503.542 340.587,466.429 362.156,447.022 395.66,445.363 437.754,458.814 484.523,483.308 532.247,514.665 577.922,549.445 619.474,585.242 655.726,620.589 686.227,654.712 711.042,687.267 730.55,718.145 745.291,747.351 755.847,774.931 762.772,800.932 766.543,825.389 767.545,848.317 766.055,869.704 762.248,889.503 756.195,907.63 747.873,923.945 737.171,938.236 723.893,950.2 707.771,959.407 688.477,965.261 665.639,966.959 638.885,963.444 607.897,953.372 572.511,935.123 532.864,906.909 489.592,867.034 444.081,814.417 398.697,749.377 356.901,674.559 323.06,595.578 301.812,520.723 297.003,459.255 310.517,418.644 341.548,402.146 386.732,408.14 441.087,431.508 499.287,465.959 556.714,505.933 610.019,547.482 657.21,588.275 697.441,627.187 730.693,663.832 757.469,698.207 778.538,730.463 794.768,760.793 807.005,789.377 816.018,816.367 822.465,841.889 826.884,866.044 829.704,888.917 831.25,910.581 831.76,931.097 831.396,950.521 830.258,968.901 828.39,986.278 825.792,1002.69 822.418,1018.15 818.18,1032.67 812.951,1046.25 806.555,1058.85 798.769,1070.42 789.31,1080.83 777.83,1089.91 763.904,1097.37 747.02,1102.77 726.573,1105.47 701.863,1104.54 672.114,1098.62 636.516,1085.82 594.333,1063.58 545.095,1028.62 488.927,977.159 427.05,905.636 362.413,812.195 300.263,699.108 248.211,575.258 215.181,456.658 208.991,362.65 233.356,308.212 286.055,297.241 359.638,322.105 444.189,369.239 530.38,425.697 611.343,482.647 683.106,535.592 744.126,583.048 794.522,625.108 835.374,662.466 868.202,695.897 894.644,726.05 916.27,753.389 934.487,778.205 950.519,800.646 965.403,820.742 980.013,838.418 995.088,853.501 1011.26,865.711 1029.05,874.656 1048.93,879.816 1071.25,880.527 1096.26,875.991 1124.07,865.299 1154.53,847.51 1187.19,821.8 1221.18,787.712 1255.08,745.505 1286.93,696.535 1314.26,643.549 1334.4,590.667 1344.86,542.864 1343.93,504.97 1331.1,480.499 1307.3,470.818 1274.7,475.044 1236.27,490.66 1195.16,514.445 1154.2,543.3 1115.64,574.729 1080.96,606.969 1051.01,638.903 1026.09,669.886 1006.14,699.582 990.879,727.825 979.904,754.539 972.792,779.68 969.155,803.205 968.669,825.055 971.092,845.141 976.277,863.329 984.163,879.429 994.779,893.174 1008.23,904.201 1024.67,912.022 1044.31,915.999 1067.35,915.317 1093.97,908.973 1124.2,895.793 1157.88,874.517 1194.46,843.982 1232.9,803.447 1271.47,753.083 1307.7,694.535 1338.47,631.366 1360.36,569.025 1370.25,514.05 1366.15,472.534 1347.74,448.436 1316.61,442.577 1275.9,452.831 1229.5,475.28 1181.29,505.6 1134.51,540.079 1091.49,576.032 1053.61,611.778 1021.48,646.404 995.137,679.487 974.24,710.887 958.268,740.595 946.632,768.656 938.756,795.127 934.13,820.052 932.342,843.454 933.079,865.335 936.137,885.665 941.414,904.376 948.904,921.353 958.694,936.42 970.954,949.314 985.932,959.66 1003.94,966.936 1025.36,970.427 1050.56,969.177 1079.91,961.948 1113.67,947.208 1151.87,923.181 1194.11,888.042 1239.35,840.32 1285.64,779.597 1329.95,707.431 1368.16,628.223 1395.54,549.414 1407.69,480.363 1401.71,429.827 1377.26,403.109 1336.77,400.499 1284.81,417.919 1226.82,449.113 1167.88,487.926 1111.97,529.639 1061.61,571.274 1018.1,611.281 981.729,649.042 952.147,684.452 928.648,717.636 910.364,748.79 896.411,778.112 885.967,805.773 878.313,831.912 872.847,856.643 869.085,880.06 866.646,902.243 865.245,923.261 864.672,943.175 864.783,962.042 865.488,979.912 866.741,996.83 868.534,1012.84 870.893,1027.97 873.876,1042.24 877.575,1055.68 882.112,1068.29 887.652,1080.06 894.4,1090.93 902.614,1100.84 912.614,1109.65 924.789,1117.14 939.614,1122.99 957.66,1126.7 979.601,1127.52 1006.21,1124.36 1038.36,1115.64 1076.91,1099.14 1122.63,1071.86 1175.92,1030.05 1236.42,969.469 1302.35,886.496 1369.85,780.101 1432.37,654.814 1480.95,523.175 1505.93,404.895 1500.07,320.573 1461.72,282.442 1395.84,289.019 1312.08,327.952 1221.29,383.736 1132.51,443.965 1051.64,501.39 981.617,553.021 923.082,598.385 875.298,638.119 836.802,673.144 805.867,704.296 780.769,732.199 759.922,757.265 741.941,779.72 725.644,799.642 710.046,816.985 694.326,831.593 677.806,843.205 659.93,851.449 640.255,855.839 618.453,855.778 594.331,850.569 567.875,839.46 539.305,821.734 509.152,796.858 478.335,764.707 448.219,725.846 420.608,681.798 397.632,635.199 381.505,589.67 374.15,549.317 376.786,517.933 389.602,498.145 411.653,490.874 441.031,495.33 475.24,509.489 511.648,530.779 547.877,556.689 582.037,585.136 612.814,614.581 639.433,643.989 661.56,672.71 679.177,700.355 692.466,726.692 701.713,751.573 707.233,774.884 709.321,796.516 708.223,816.338 704.115,834.184 697.1,849.836 687.209,863.006 674.408,873.318 658.619,880.286 639.738,883.302 617.676,881.616 592.409,874.355 564.05,860.56 532.939,839.292 499.762,809.824 465.661,771.937 432.323,726.294 401.98,674.82 377.267,620.892 360.882,569.127 355.082,524.635 361.137,491.873 378.956,473.533 407.027,469.989 442.747,479.53 482.972,499.183 524.601,525.657 565.012,556.048 602.276,588.157 635.184,620.509 663.145,652.213 686.033,682.777 704.03,711.957 717.491,739.638 726.837,765.765 732.49,790.303 734.819,813.207 734.117,834.41 730.59,853.811 724.35,871.257 715.419,886.534 703.738,899.343 689.176,909.279 671.547,915.802 650.635,918.209 626.234,915.612 598.205,906.933 566.56,890.937 531.58,866.354 493.961,832.101 454.984,787.679 416.649,733.71 381.705,672.498 353.478,608.361 335.404,547.347 330.323,496.128 339.71,460.283 363.175,442.734 398.479,443.136 442.075,458.496 489.937,484.533 538.324,517.001 584.284,552.507 625.829,588.735 661.878,624.314 692.067,658.543 716.527,691.131 735.689,722.007 750.123,751.194 760.433,778.752 767.181,804.737 770.852,829.191 771.831,852.137 770.394,873.568 766.714,893.45 760.864,911.706 752.819,928.213 742.467,942.776 729.613,955.116 713.986,964.83 695.25,971.358 673.02,973.936 646.898,971.546 616.522,962.875 581.657,946.312 542.333,920.016 499.042,882.147 452.984,831.331 406.334,767.428 362.403,692.508 325.542,611.669 300.591,533.024 291.842,466.241 301.786,419.763 330.188,398.001 374.033,400.172 428.368,421.404 487.638,455.148 546.865,495.363 602.341,537.638 651.785,579.317 694.16,619.094 729.349,656.51 757.816,691.542 780.341,724.355 797.823,755.161 811.154,784.158 821.155,811.518 828.532,837.376 833.876,861.844 837.66,885.016 840.257,906.969 841.949,927.774 842.948,947.494 843.405,966.184 843.424,983.9 843.073,1000.69 842.387,1016.6 841.376,1031.67 840.029,1045.95 838.312,1059.46 836.173,1072.25 833.539,1084.32 830.313,1095.7 826.37,1106.4 821.554,1116.41 815.67,1125.7 808.476,1134.21 799.673,1141.84 788.892,1148.44 775.681,1153.73 759.491,1157.33 739.662,1158.6 715.413,1156.64 685.85,1150.09 649.998,1136.98 606.89,1114.55 555.758,1079.09 496.38,1026.08 429.643,950.75 358.346,849.789 288.029,724.258 227.334,583.209 187.017,445.301 177.052,334.733 202.629,271.077 261.485,259.587 344.648,290.232 440.087,345.49 536.696,409.311 626.598,471.446 705.512,527.245 772.022,575.645 826.563,617.264 870.568,653.228 905.873,684.608 934.371,712.225 957.823,736.63 977.774,758.141 995.535,776.889 1012.19,792.858 1028.62,805.912 1045.54,815.807 1063.49,822.203 1082.86,824.673 1103.92,822.717 1126.76,815.801 1151.24,803.415 1177.03,785.175 1203.47,760.964 1229.61,731.113 1254.14,696.584 1275.51,659.091 1292.04,621.086 1302.14,585.525 1304.62,555.42 1298.92,533.274 1285.27,520.601 1264.7,517.695 1238.86,523.742 1209.72,537.174 1179.28,556.112 1149.32,578.731 1121.27,603.485 1096.14,629.182 1074.54,654.966 1056.77,680.243 1042.9,704.608 1032.85,727.777 1026.44,749.527 1023.47,769.666 1023.76,787.997 1027.15,804.3 1033.53,818.315 1042.82,829.724 1054.99,838.138 1070.03,843.085 1087.93,844.009 1108.62,840.279 1131.94,831.22 1157.59,816.186 1185.03,794.679 1213.42,766.527 1241.55,732.113 1267.84,692.608 1290.42,650.12 1307.29,607.649 1316.63,568.752 1317.15,536.924 1308.37,514.88 1290.8,503.993 1265.88,504.126 1235.66,513.898 1202.51,531.206 1168.68,553.782 1136.06,579.592 1106.09,607.027 1079.69,634.93 1057.37,662.52 1039.29,689.298 1025.4,714.943 1015.5,739.242 1009.34,762.031 1006.66,783.164 1007.24,802.483 1010.91,819.798 1017.55,834.872 1027.1,847.404 1039.58,857.012 1055.01,863.214 1073.44,865.421 1094.9,862.932 1119.33,854.956 1146.52,840.669 1176.05,819.323 1207.15,790.441 1238.65,754.082 1268.9,711.154 1295.81,663.691 1317.03,614.92 1330.27,568.986 1333.72,530.251 1326.47,502.347 1308.82,487.338 1282.25,485.356 1249.1,494.859 1212.14,513.303 1174.08,537.894 1137.21,566.141 1103.22,596.115 1073.2,626.48 1047.72,656.385 1026.93,685.325 1010.71,713.014 998.792,739.286 990.829,764.036 986.483,787.176 985.454,808.61 987.507,828.216 992.484,845.828 1000.31,861.224 1010.98,874.108 1024.56,884.084 1041.16,890.643 1060.92,893.135 1083.95,890.761 1110.31,882.578 1139.88,867.546 1172.32,844.647 1206.91,813.09 1242.4,772.644 1276.99,724.068 1308.24,669.52 1333.32,612.76 1349.34,558.867 1353.97,513.357 1345.97,480.871 1325.65,463.979 1294.82,462.675 1256.4,474.774 1213.81,496.893 1170.29,525.49 1128.5,557.571 1090.33,590.959 1056.91,624.255 1028.73,656.654 1005.8,687.746 987.867,717.345 974.5,745.385 965.225,771.847 959.586,796.721 957.187,819.989 957.72,841.606 960.968,861.495 966.816,879.533 975.24,895.537 986.304,909.247 1000.15,920.3 1016.99,928.206 1037.08,932.31 1060.67,931.762 1088.01,925.496 1119.19,912.237 1154.13,890.575 1192.34,859.143 1232.82,816.963 1273.79,763.983 1312.67,701.744 1346.07,633.946 1370.19,566.507 1381.53,506.73 1377.73,461.535 1358.36,435.448 1325.15,429.378 1281.53,440.83 1231.84,465.295 1180.35,497.893 1130.57,534.528 1084.98,572.333 1045,609.588 1011.19,645.418 983.495,679.47 961.495,711.67 944.567,742.073 932.03,770.773 923.232,797.866 917.596,823.435 914.647,847.54 914.019,870.221 915.454,891.496 918.8,911.358 923.999,929.769 931.083,946.652 940.168,961.876 951.452,975.24 965.209,986.446 981.79,995.062 1001.61,1000.48 1025.14,1001.85 1052.86,998.041 1085.23,987.55 1122.55,968.513 1164.85,938.765 1211.6,896.108 1261.45,838.884 1311.89,766.934 1359.04,682.84 1397.77,592.929 1422.48,507.125 1428.39,436.857 1413.11,391.387 1377.58,374.499 1325.94,383.684 1264.26,412.161 1198.86,452.053 1135.03,496.793 1076.43,542.038 1025.08,585.467 981.663,626.148 945.971,663.926 917.249,698.99 894.495,731.638 876.642,762.157 862.67,790.791 851.667,817.727 842.844,843.11 835.54,867.049 829.204,889.628 823.378,910.908 817.676,930.933 811.76,949.729 805.323,967.298 798.07,983.619 789.698,998.631 779.885,1012.23 768.274,1024.24 754.459,1034.39 737.976,1042.28 718.298,1047.34 694.834,1048.72 666.95,1045.27 634.011,1035.39 595.471,1016.99 551.03,987.505 500.894,944.035 446.139,883.944 389.166,805.919 334.092,711.619 286.802,607.388 254.271,504.778 242.953,418.428 256.649,361.159 294.897,338.857 352.947,348.699 423.363,381.801 498.289,427.814 571.226,478.373 637.822,528.265 695.82,574.987 744.593,617.775 784.577,656.74 816.806,692.321 842.565,724.999 863.182,755.183 879.902,783.177 893.838,809.191 905.951,833.354 917.062,855.729 927.872,876.318 938.99,895.068 950.958,911.859 964.277,926.491 979.426,938.668 996.877,947.961 1017.1,953.781 1040.54,955.333 1067.63,951.576 1098.7,941.208 1133.88,922.682 1173,894.33 1215.37,854.642 1259.56,802.775 1303.21,739.3 1342.93,667.032 1374.56,591.534 1393.78,520.716 1397.11,463.163 1382.99,425.616 1352.34,410.856 1308.43,417.232 1255.99,439.958 1200.02,473.213 1144.86,511.84 1093.64,552.141 1048.27,591.892 1009.57,629.98 977.59,665.992 951.873,699.877 931.713,731.748 916.308,761.762 904.87,790.076 896.686,816.821 891.149,842.108 887.767,866.025 886.159,888.642 886.048,910.017 887.25,930.195 889.662,949.206 893.254,967.066 898.061,983.773 904.184,999.299 911.783,1013.58 921.083,1026.51 932.377,1037.9 946.029,1047.49 962.481,1054.86 982.256,1059.41 1005.95,1060.3 1034.22,1056.31 1067.72,1045.79 1107.04,1026.56 1152.5,995.884 1203.9,950.714 1260.13,888.228 1318.68,807.02 1375.2,708.88 1423.46,600.644 1456.1,494.729 1466.39,406.7 1450.54,349.852 1409.32,329.756 1348.03,342.681 1274.61,378.79 1197.25,427.146 1122.56,479.231 1054.82,529.942 996.146,576.976 947.018,619.749 906.855,658.5 874.515,693.747 848.631,726.013 827.819,755.722 810.792,783.18 796.41,808.588 783.69,832.058 771.791,853.626 759.996,873.262 747.679,890.865 734.282,906.256 719.291,919.159 702.221,929.179 682.605,935.769 660.002,938.199 634.018,935.523 604.352,926.561 570.88,909.931 533.772,884.149 493.659,847.881 451.827,800.375 410.391,742.097 372.36,675.436 341.458,605.164 321.61,538.175 316.094,482.178 326.615,443.597 352.699,425.647 391.727,427.636 439.605,445.819 491.767,475.111 544.069,510.679 593.34,548.824 637.535,587.154 675.626,624.352 707.367,659.823 733.026,693.383 753.171,725.054 768.494,754.932 779.705,783.134 787.455,809.763 792.305,834.904 794.706,858.622 794.997,880.961 793.412,901.945 790.086,921.574 785.059,939.824 778.291,956.633 769.657,971.893 758.957,985.431 745.914,996.985 730.175,1006.17 711.316,1012.44 688.851,1015.02 662.258,1012.85 631.019,1004.51 594.71,988.172 553.142,961.627 506.576,922.466 456.032,868.553 403.649,798.904 352.987,714.98 309.056,622.003 277.787,529.407 264.783,449.327 273.623,392.957 304.484,366.441 353.896,368.935 415.821,394.036 483.437,433.209 550.723,478.843 613.33,525.679 668.724,570.808 715.894,613.011 754.904,652.036 786.465,688.082 811.615,721.486 831.493,752.584 847.206,781.657 859.76,808.918 870.03,834.525 878.759,858.59 886.574,881.191 894.004,902.375 901.504,922.158 909.481,940.529 918.312,957.437 928.369,972.781 940.034,986.398 953.716,998.033 969.861,1007.31 988.961,1013.69 1011.55,1016.41 1038.19,1014.41 1069.42,1006.28 1105.7,990.214 1147.25,963.985 1193.83,925.17 1244.46,871.589 1297.04,802.177 1348.06,718.282 1392.52,625.013 1424.45,531.739 1438.19,450.655 1430.01,393.15 1399.64,365.617 1350.46,367.398 1288.51,392.14 1220.66,431.243 1153,476.982 1089.97,523.996 1034.14,569.311 986.573,611.678 947.213,650.835 915.351,686.981 889.949,720.46 869.857,751.613 853.961,780.724 841.243,808.01 830.82,833.63 821.938,857.697 813.965,880.287 806.362,901.444 798.668,921.184 790.47,939.487 781.381,956.297 771.024,971.503 759.009,984.928 744.92,996.3 728.302,1005.22 708.66,1011.11 685.457,1013.17 658.139,1010.3 626.18,1001.03 589.168,983.493 546.958,955.452 499.893,914.526 449.123,858.704 396.958,787.281 347.141,702.173 304.82,609.157 275.917,518.096 265.81,441.13 277.643,388.882 311.085,366.546 362.265,372.411 424.989,399.665 492.516,439.837 559.057,485.647 620.53,532.2 674.632,576.857 720.517,618.557 758.345,657.125 788.877,692.779 813.164,725.855 832.336,756.679 847.482,785.519 859.582,812.58 869.488,838.014 877.921,861.929 885.488,884.401 892.7,905.475 899.999,925.171 907.778,943.478 916.405,960.35 926.243,975.693 937.667,989.349 951.08,1001.08 966.923,1010.52 985.687,1017.14 1007.9,1020.22 1034.14,1018.72 1064.97,1011.27 1100.85,996.054 1142.07,970.878 1188.46,933.267 1239.16,880.916 1292.19,812.521 1344.15,729.066 1390.14,635.247 1424.14,540.157 1440.24,456.079 1434.37,394.954 1405.82,363.986 1357.69,363.196 1295.94,386.489 1227.58,425.118 1158.92,471.018 1094.63,518.5 1037.5,564.362 988.686,607.233 948.217,646.811 915.403,683.288 889.198,717.021 868.437,748.366 851.975,777.621 838.77,805.01 827.907,830.7 818.61,854.803 810.22,877.394 802.18,898.513 794.008,918.165 785.273,936.321 775.57,952.905 764.504,967.785 751.667,980.749 736.628,991.482 718.918,999.525 698.034,1004.23 673.442,1004.7 644.613,999.721 611.075,987.716 572.529,966.725 529.015,934.513 481.166,888.88 430.529,828.313 379.888,753.039 333.432,666.304 296.522,575.276 274.82,490.572 272.846,423.729 292.44,383.316 331.95,371.889 386.661,385.774 450.229,417.561 516.357,459.337 579.982,504.857 637.754,550.182 687.952,593.324 730.109,633.565 764.595,670.865 792.253,705.468 814.13,737.685 831.308,767.807 844.804,796.067 855.522,822.647 864.235,847.684 871.593,871.279 878.139,893.507 884.326,914.422 890.545,934.055 897.139,952.416 904.432,969.488 912.74,985.221 922.393,999.516 933.748,1012.21 947.201,1023.06 963.204,1031.69 982.263,1037.55 1004.95,1039.87 1031.86,1037.56 1063.63,1029.15 1100.78,1012.68 1143.63,985.751 1192.07,945.611 1245.18,889.67 1300.84,816.43 1355.35,726.969 1403.29,626.588 1438.05,525.575 1453.21,437.68 1444.52,375.873 1411.62,347.314 1358.35,350.917 1291.52,379.098 1218.75,421.968 1146.7,470.954 1080.04,520.367 1021.38,567.248 971.67,610.509 930.692,650.074 897.564,686.291 871.085,719.607 849.975,750.427 833.006,779.066 819.072,805.748 807.21,830.623 796.597,853.779 786.534,875.25 776.416,895.021 765.712,913.022 753.933,929.122 740.614,943.107 725.295,954.664 707.51,963.338 686.784,968.505 662.64,969.312 634.635,964.644 602.416,953.087 565.82,932.956 525.031,902.42 480.792,859.818 434.655,804.232 389.215,736.342 348.175,659.363 316.084,579.584 297.593,505.812 296.312,447.353 313.653,411.119 348.237,399.393 396.217,409.615 452.354,436.115 511.316,472.505 568.659,513.439 621.29,555.282 667.465,595.982 706.543,634.614 738.651,670.907 764.383,704.919 784.559,736.828 800.063,766.834 811.747,795.118 820.368,821.83 826.572,847.094 830.887,871.009 833.729,893.66 835.415,915.119 836.181,935.45 836.19,954.71 835.548,972.951 834.312,990.218 832.498,1006.55 830.084,1021.99 827.015,1036.55 823.201,1050.26 818.515,1063.11 812.793,1075.08 805.825,1086.13 797.346,1096.18 787.033,1105.08 774.487,1112.6 759.224,1118.39 740.666,1121.93 718.131,1122.43 690.842,1118.75 657.945,1109.22 618.589,1091.56 572.063,1062.7 518.067,1018.84 457.143,955.87 391.302,870.459 324.732,762.248 264.25,636.728 218.893,507.355 198.014,394.03 208.118,316.329 249.959,284.608 317.907,295.776 402.137,336.964 492.097,393.139 579.233,452.717 658.083,509.134 726.073,559.792 782.745,604.377 828.931,643.549 866.114,678.2 896.007,709.12 920.299,736.897 940.538,761.91 958.073,784.367 974.051,804.332 989.434,821.753 1005.02,836.466 1021.48,848.205 1039.37,856.592 1059.12,861.131 1081.07,861.208 1105.43,856.101 1132.23,845.023 1161.26,827.205 1192,802.054 1223.54,769.38 1254.49,729.692 1283.01,684.497 1306.89,636.472 1323.82,589.361 1331.75,547.461 1329.37,514.775 1316.44,494.098 1293.92,486.424 1263.78,490.928 1228.61,505.475 1191.16,527.357 1153.91,553.941 1118.81,583.061 1087.2,613.134 1059.89,643.111 1037.18,672.343 1019.08,700.453 1005.39,727.224 995.799,752.523 989.962,776.253 987.569,798.317 988.358,818.601 992.141,836.956 998.807,853.18 1008.32,867.005 1020.73,878.075 1036.1,885.928 1054.57,889.969 1076.26,889.465 1101.23,883.533 1129.45,871.181 1160.64,851.388 1194.24,823.279 1229.21,786.407 1263.96,741.139 1296.3,689.085 1323.57,633.384 1342.9,578.621 1351.72,530.175 1348.39,493.047 1332.65,470.594 1305.76,463.746 1270.25,471.075 1229.35,489.595 1186.38,515.804 1144.2,546.515 1104.98,579.276 1070.1,612.429 1040.26,644.974 1015.65,676.367 996.114,706.345 981.279,734.798 970.697,761.686 963.909,786.99 960.506,810.69 960.154,832.745 962.61,853.082 967.727,871.587 975.452,888.089 985.822,902.344 998.955,914.014 1015.03,922.64 1034.29,927.607 1056.98,928.118 1083.32,923.167 1113.45,911.547 1147.31,891.899 1184.49,862.874 1224.1,823.431 1264.57,773.325 1303.5,713.737 1337.72,647.85 1363.56,581.041 1377.49,520.25 1376.93,472.436 1361.03,442.619 1331.04,432.471 1290.04,440.222 1242.12,461.803 1191.54,492.443 1141.93,527.928 1095.96,565.174 1055.25,602.251 1020.54,638.12 991.905,672.322 969.012,704.721 951.292,735.336 938.094,764.244 928.774,791.533 922.753,817.279 919.549,841.539 918.789,864.348 920.204,885.719 923.635,905.636 929.018,924.051 936.381,940.874 945.84,955.957 957.592,969.077 971.913,979.903 989.149,987.968 1009.71,992.614 1034.05,992.943 1062.63,987.754 1095.83,975.502 1133.89,954.302 1176.67,922.048 1223.46,876.737 1272.64,817.117 1321.44,743.685 1365.75,659.85 1400.46,572.658 1420.27,492.207 1421.06,429.21 1401.28,391.45 1362.64,381.108 1309.66,394.686 1248.34,425.291 1184.61,465.569 1123.26,509.663 1067.48,553.823 1018.96,596.098 978.162,635.738 944.779,672.644 918.038,707.004 896.96,739.086 880.53,769.153 867.789,797.419 857.887,824.059 850.097,849.207 843.815,872.968 838.544,895.427 833.878,916.653 829.481,936.702 825.067,955.617 820.384,973.429 815.197,990.155 809.271,1005.79 802.363,1020.31 794.202,1033.65 784.482,1045.7 772.845,1056.27 758.876,1065.09 742.083,1071.73 721.899,1075.58 697.68,1075.75 668.722,1070.95 634.308,1059.45 593.806,1038.92 546.85,1006.42 493.628,958.663 435.32,892.587 374.632,806.697 316.265,703.051 266.952,589.305 234.593,479.192 226.252,389.569 245.622,334.215 291.335,317.982 357.291,335.67 434.823,376.078 515.348,427.56 592.198,481.513 661.225,533.089 720.551,580.31 769.94,622.855 810.168,661.138 842.523,695.776 868.476,727.337 889.48,756.262 906.868,782.853 921.809,807.29 935.31,829.657 948.227,849.952 961.291,868.091 975.138,883.907 990.334,897.137 1007.39,907.401 1026.77,914.179 1048.91,916.786 1074.15,914.346 1102.74,905.792 1134.76,889.907 1169.97,865.428 1207.71,831.289 1246.73,787.004 1285.05,733.203 1319.95,672.194 1348.12,608.283 1366.14,547.497 1371.21,496.473 1361.85,460.761 1338.46,443.267 1303.27,443.654 1259.81,458.948 1212.09,484.894 1163.84,517.268 1118.01,552.687 1076.56,588.843 1040.6,624.363 1010.47,658.545 986.063,691.095 966.943,721.938 952.546,751.097 942.273,778.627 935.562,804.584 931.932,829.01 931.003,851.923 932.497,873.317 936.244,893.153 942.175,911.354 950.315,927.79 960.777,942.266 973.76,954.493 989.535,964.061 1008.44,970.4 1030.85,972.735 1057.17,970.035 1087.75,960.975 1122.81,943.936 1162.28,917.08 1205.65,878.596 1251.66,827.176 1298.08,762.795 1341.55,687.682 1377.69,607.096 1401.7,529.243 1409.38,463.731 1398.4,418.779 1369.16,398.485 1324.78,401.807 1270.27,423.763 1211.13,457.836 1152.26,498.096 1097.27,540.255 1048.36,581.749 1006.52,621.327 971.816,658.557 943.78,693.425 921.627,726.097 904.461,756.78 891.399,785.671 881.633,812.935 874.465,838.706 869.318,863.095 865.728,886.191 863.333,908.074 861.86,928.811 861.106,948.464 860.931,967.089 861.241,984.739 861.983,1001.46 863.134,1017.3 864.702,1032.29 866.72,1046.48 869.245,1059.88 872.36,1072.52 876.176,1084.42 880.836,1095.57 886.52,1105.94 893.453,1115.5 901.915,1124.15 912.248,1131.74 924.872,1138.05 940.301,1142.7 959.148,1145.16 982.141,1144.6 1010.12,1139.8 1044,1129.01 1084.72,1109.75 1133.07,1078.68 1189.39,1031.64 1253.1,964.086 1322.01,872.378 1391.48,756.269 1453.95,622.239 1499.48,485.761 1518.02,369.127 1503.01,293.187 1454.55,267.377 1379.61,286.053 1289.23,333.874 1194.64,394.558 1104.47,456.474 1023.92,513.585 955.153,563.891 898.262,607.529 852.126,645.432 815.06,678.634 785.228,707.986 760.864,734.087 740.388,757.307 722.439,777.826 705.875,795.672 689.756,810.752 673.313,822.857 655.929,831.678 637.124,836.803 616.548,837.722 593.999,833.851 569.446,824.567 543.077,809.287 515.352,787.594 487.066,759.415 459.387,725.242 433.85,686.346 412.266,644.895 396.533,603.878 388.34,566.744 388.841,536.795 398.369,516.514 416.316,507.071 441.222,508.208 471.045,518.523 503.514,535.974 536.473,558.397 568.115,583.862 597.094,610.847 622.537,638.251 643.977,665.329 661.259,691.596 674.441,716.733 683.707,740.523 689.293,762.794 691.44,783.388 690.358,802.133 686.207,818.826 679.091,833.211 669.057,844.971 656.104,853.704 640.206,858.91 621.333,859.988 599.495,856.234 574.794,846.876 547.496,831.136 518.115,808.366 487.506,778.245 456.941,741.052 428.136,697.956 403.189,651.236 384.376,604.263 373.816,561.128 373.05,525.906 382.655,501.751 402.057,490.206 429.608,490.998 462.917,502.394 499.307,521.871 536.245,546.795 571.638,574.88 603.965,604.389 632.28,634.126 656.121,663.329 675.387,691.541 690.217,718.493 700.88,744.024 707.699,768.019 710.988,790.374 711.016,810.974 707.99,829.673 702.039,846.278 693.218,860.532 681.514,872.097 666.856,880.535 649.14,885.284 628.257,885.645 604.138,880.783 576.82,869.746 546.528,851.547 513.785,825.314 479.532,790.544 445.234,747.465 412.933,697.44 385.167,643.277 364.717,589.214 354.144,540.39 355.232,501.79 368.491,477.024 392.96,467.451 426.377,472.103 465.684,488.325 507.639,512.77 549.337,542.251 588.524,574.227 623.692,606.922 654.017,639.229 679.212,670.521 699.365,700.478 714.79,728.953 725.906,755.883 733.153,781.236 736.937,804.982 737.593,827.071 735.371,847.425 730.426,865.924 722.82,882.391 712.529,896.579 699.449,908.143 683.411,916.618 664.199,921.392 641.584,921.67 615.365,916.462 585.445,904.587 551.923,884.741 515.235,855.654 476.317,816.395 436.768,766.851 398.966,708.318 366.018,644.03 341.46,579.278 328.651,520.755 329.98,475.057 346.144,446.852 375.854,437.608 416.108,445.562 462.934,466.814 512.258,496.821 560.585,531.565 605.358,568.092 645.009,604.532 678.817,639.861 706.69,673.611 728.942,705.626 746.105,735.904 758.8,764.504 767.636,791.497 773.161,816.944 775.829,840.886 775.991,863.345 773.887,884.312 769.655,903.75 763.334,921.581 754.871,937.677 744.126,951.837 730.879,963.772 714.832,973.063 695.626,979.129 672.853,981.172 646.091,978.129 614.959,968.624 579.213,950.965 538.89,923.223 494.519,883.479 447.384,830.331 399.803,763.726 355.291,686.004 318.432,602.734 294.262,522.609 287.134,455.75 299.396,410.667 330.492,391.377 376.999,396.424 433.622,420.315 494.608,456.135 554.942,497.759 610.993,540.874 660.614,582.983 702.91,622.929 737.885,660.358 766.101,695.321 788.405,728.022 805.745,758.696 819.044,787.553 829.141,814.769 836.76,840.483 842.504,864.809 846.86,887.839 850.218,909.653 852.884,930.321 855.099,949.904 857.051,968.459 858.894,986.039 860.754,1002.69 862.744,1018.46 864.966,1033.38 867.526,1047.49 870.534,1060.81 874.118,1073.36 878.421,1085.15 883.618,1096.17 889.918,1106.38 897.575,1115.72 906.901,1124.08 918.273,1131.28 932.154,1137.02 949.099,1140.87 969.772,1142.17 994.947,1139.93 1025.5,1132.71 1062.36,1118.45 1106.4,1094.31 1158.24,1056.59 1217.87,1000.9 1284.04,922.952 1353.54,820.363 1420.45,695.587 1476.04,559.06 1510.04,429.818 1513.63,330.497 1483.11,277.533 1421.85,273.338 1339.04,306.988 1246.12,361.96 1153.28,423.867 1067.55,483.782 992.63,537.747 929.641,584.912 878.046,625.867 836.426,661.621 803.006,693.127 775.977,721.113 753.66,746.064 734.578,768.259 717.476,787.804 701.308,804.673 685.214,818.721 668.492,829.697 650.582,837.245 631.054,840.905 609.608,840.125 586.097,834.28 560.559,822.729 533.275,804.904 504.824,780.462 476.147,749.488 448.573,712.73 423.793,671.802 403.728,629.255 390.294,588.391 385.074,552.793 388.98,525.637 402.004,509.02 423.176,503.578 450.729,508.536 482.429,522.117 515.953,542.103 549.206,566.323 580.515,592.95 608.701,620.602 633.051,648.317 653.234,675.463 669.201,701.635 681.08,726.567 689.095,750.075 693.502,772.002 694.542,792.198 692.417,810.488 687.269,826.66 679.183,840.445 668.183,851.503 654.251,859.403 637.345,863.611 617.428,863.485 594.517,858.278 568.735,847.181 540.397,829.402 510.094,804.317 478.791,771.699 447.899,732.014 419.29,686.722 395.195,638.466 377.963,590.972 369.675,548.559 371.7,515.287 384.331,494.027 406.657,485.848 436.721,489.974 471.924,504.281 509.506,526.047 546.965,552.612 582.315,581.776 614.181,611.929 641.759,642.004 664.712,671.343 683.033,699.562 696.927,726.442 706.706,751.852 712.71,775.696 715.259,797.879 714.619,818.291 710.983,836.785 704.464,853.166 695.1,867.171 682.856,878.45 667.645,886.546 649.343,890.876 627.826,890.711 603.012,885.174 574.936,873.271 543.832,853.969 510.253,826.365 475.194,789.958 440.209,745.038 407.453,693.117 379.593,637.239 359.519,581.936 349.848,532.609 352.322,494.371 367.319,470.754 393.667,462.863 428.885,469.393 469.737,487.397 512.877,513.345 555.378,543.987 595.019,576.804 630.363,610.082 660.662,642.784 685.707,674.345 705.647,704.492 720.843,733.112 731.75,760.164 738.83,785.634 742.503,809.504 743.111,831.738 740.907,852.268 736.047,870.987 728.59,887.733 718.507,902.273 705.686,914.283 689.946,923.318 671.056,928.785 648.759,929.907 622.816,925.702 593.075,914.975 559.559,896.369 522.607,868.502 483.042,830.25 442.351,781.217 402.828,722.353 367.579,656.577 340.267,589.043 324.529,526.63 323.146,476.485 337.226,444.03 365.775,431.413 405.891,437.221 453.5,457.53 504.289,487.517 554.482,522.81 601.27,560.152 642.901,597.474 678.542,633.648 708.052,668.165 731.738,700.865 750.156,731.762 763.964,760.935 773.818,788.475 780.312,814.464 783.948,838.965 785.12,862.02 784.112,883.647 781.104,903.84 776.175,922.562 769.315,939.737 760.423,955.237 749.319,968.863 735.744,980.32 719.362,989.185 699.772,994.859 676.525,996.517 649.148,993.045 617.207,982.988 580.403,964.532 538.726,935.581 492.678,894.004 443.574,838.191 393.848,767.963 347.256,685.761 308.746,597.618 283.777,513.062 277.053,443.177 291.033,397.125 324.954,378.909 374.933,386.445 435.139,413.357 499.384,452.013 562.408,495.907 620.514,540.646 671.614,583.816 714.938,624.4 750.628,662.178 779.377,697.298 802.146,730.034 819.969,760.663 833.845,789.419 844.67,816.492 853.22,842.025 860.145,866.133 865.98,888.902 871.169,910.404 876.079,930.692 881.024,949.808 886.282,967.775 892.114,984.602 898.778,1000.27 906.546,1014.74 915.716,1027.91 926.627,1039.63 939.667,1049.67 955.29,1057.67 974.022,1063.1 996.459,1065.19 1023.26,1062.86 1055.12,1054.6 1092.67,1038.37 1136.38,1011.6 1186.27,971.21 1241.61,914.141 1300.39,838.259 1358.85,744.029 1411.26,636.519 1450.35,526.62 1468.77,429.693 1461.43,360.81 1427.5,328.634 1371.07,332.192 1299.64,362.793 1221.73,409.064 1144.71,461.304 1073.69,513.265 1011.42,561.869 958.827,606.132 915.571,646.144 880.612,682.408 852.598,715.48 830.107,745.835 811.793,773.821 796.452,799.669 783.035,823.514 770.649,845.407 758.531,865.327 746.021,883.182 732.535,898.798 717.545,911.906 700.556,922.119 681.101,928.905 658.744,931.553 633.099,929.146 603.881,920.546 570.975,904.425 534.557,879.371 495.251,844.121 454.309,797.98 413.775,741.416 376.542,676.725 346.187,608.454 326.478,543.168 320.584,488.241 330.198,449.893 354.947,431.368 392.398,432.214 438.672,449.014 489.377,476.963 540.477,511.394 588.832,548.662 632.376,586.355 670.033,623.105 701.495,658.263 726.972,691.6 746.98,723.101 762.17,752.842 773.218,780.917 780.75,807.419 785.304,832.421 787.314,855.973 787.103,878.109 784.886,898.834 780.78,918.128 774.805,935.938 766.896,952.166 756.903,966.653 744.598,979.159 729.675,989.332 711.757,996.671 690.405,1000.47 665.142,999.772 635.492,993.285 601.051,979.36 561.619,955.993 517.381,920.973 469.18,872.259 418.835,808.724 369.438,731.253 325.432,643.964 292.245,554.828 275.281,474.729 278.435,414.571 302.708,381.494 345.686,376.475 402.236,394.836 466.024,429.003 531.081,471.505 592.801,516.729 648.267,561.277 696.084,603.507 735.999,642.884 768.49,679.432 794.44,713.403 814.889,745.096 830.887,774.778 843.408,802.668 853.307,828.931 861.312,853.698 868.032,877.065 873.969,899.108 879.545,919.882 885.116,939.426 890.998,957.76 897.486,974.882 904.867,990.764 913.44,1005.34 923.532,1018.49 935.506,1030.02 949.778,1039.65 966.827,1046.95 987.197,1051.28 1011.49,1051.76 1040.36,1047.13 1074.45,1035.71 1114.27,1015.29 1160.06,983.163 1211.51,936.389 1267.31,872.417 1324.74,790.315 1379.3,692.517 1424.72,586.474 1453.88,484.791 1460.56,402.445 1441.66,351.444 1398.57,335.99 1336.81,351.619 1264.2,388.589 1188.55,436.572 1116.01,487.71 1050.54,537.37 993.998,583.49 946.756,625.565 908.195,663.829 877.186,698.766 852.402,730.858 832.509,760.5 816.269,787.98 802.59,813.489 790.53,837.137 779.286,858.969 768.17,878.969 756.581,897.058 743.981,913.085 729.87,926.814 713.767,937.896 695.203,945.843 673.714,949.987 648.866,949.445 620.281,943.084 587.713,929.519 551.153,907.178 510.987,874.474 468.201,830.178 424.589,774.019 382.912,707.462 346.851,634.423 320.619,561.424 308.181,496.68 312.215,448.036 333.23,420.565 369.285,415.11 416.477,428.609 469.969,455.794 525.072,491.15 577.998,530.205 626.17,569.956 668.18,608.699 703.551,645.643 732.449,680.534 755.424,713.387 773.211,744.325 786.588,773.494 796.294,801.032 802.978,827.053 807.181,851.649 809.329,874.896 809.738,896.849 808.626,917.549 806.121,937.024 802.267,955.281 797.038,972.304 790.334,988.05 781.991,1002.43 771.774,1015.3 759.375,1026.44 744.415,1035.52 726.435,1042.03 704.904,1045.27 679.228,1044.24 648.788,1037.56 613.002,1023.39 571.454,999.398 524.1,962.829 471.581,910.89 415.641,841.553 359.56,754.945 308.399,655.096 268.69,551.149 247.267,456.587 249.311,385.52 276.39,347.335 325.651,343.128 390.722,366.42 463.787,407.185 537.656,456.016 607.005,506.305 668.672,554.423 721.339,598.908 764.999,639.531 800.437,676.605 828.835,710.598 851.5,741.949 869.71,771.007 884.629,798.021 897.276,823.158 908.526,846.514 919.124,868.124 929.709,887.973 940.844,905.985 953.039,922.017 966.776,935.842 982.522,947.127 1000.75,955.399 1021.93,960.004 1046.51,960.069 1074.91,954.46 1107.44,941.764 1144.17,920.337 1184.82,888.456 1228.51,844.665 1273.54,788.379 1317.21,720.707 1355.78,645.291 1384.83,568.642 1400.04,499.364 1398.28,446.063 1378.65,414.665 1342.88,406.61 1294.91,418.961 1239.83,446.175 1182.64,482.287 1127.45,522.414 1077.06,563.272 1033.03,603.014 995.877,640.803 965.453,676.391 941.171,709.818 922.247,741.238 907.846,770.827 897.171,798.745 889.517,825.124 884.292,850.076 881.019,873.688 879.329,896.034 878.956,917.177 879.715,937.166 881.501,956.043 884.272,973.838 888.046,990.567 892.896,1006.23 898.947,1020.8 906.382,1034.23 915.44,1046.41 926.428,1057.18 939.721,1066.28 955.775,1073.33 975.132,1077.74 998.416,1078.7 1026.32,1075.02 1059.57,1065.05 1098.83,1046.57 1144.55,1016.76 1196.71,972.313 1254.39,909.997 1315.23,827.787 1374.96,726.778 1427.18,613.361 1464.03,500.232 1477.96,404.237 1464.33,340.563 1423.41,316.285 1360.5,328.01 1284.08,365.135 1203,415.566 1124.5,469.844 1053.25,522.363 991.558,570.664 939.93,614.197 897.733,653.301 863.735,688.595 836.465,720.679 814.445,750.026 796.3,776.967 780.818,801.707 766.954,824.344 753.818,844.887 740.651,863.263 726.798,879.314 711.68,892.786 694.776,903.311 675.615,910.387 653.771,913.345 628.887,911.339 600.714,903.332 569.18,888.138 534.495,864.53 497.286,831.454 458.751,788.407 420.79,735.943 386.038,676.22 357.702,613.33 339.134,553.073 333.15,501.934 341.293,465.465 363.317,446.741 397.168,445.694 439.469,459.613 486.302,484.413 533.967,515.932 579.496,550.769 620.848,586.556 656.876,621.859 687.153,655.92 711.755,688.407 731.071,719.218 745.642,748.359 756.05,775.875 762.844,801.815 766.501,826.211 767.399,849.077 765.813,870.4 761.911,890.133 755.763,908.186 747.341,924.419 736.529,938.616 723.131,950.467 706.875,959.537 687.43,965.221 664.426,966.707 637.49,962.923 606.311,952.515 570.737,933.855 530.922,905.149 487.533,864.724 441.996,811.545 396.724,746.02 355.226,670.922 321.893,591.999 301.347,517.625 297.363,457.028 311.709,417.522 343.453,402.129 389.136,409.033 443.738,433.018 501.951,467.8 559.211,507.89 612.237,549.421 659.093,590.127 698.978,628.927 731.904,665.458 758.386,699.725 779.204,731.884 795.222,762.127 807.285,790.632 816.154,817.55 822.481,843.005 826.801,867.098 829.534,889.912 831.002,911.519 831.437,931.981 830.997,951.352 829.779,969.679 827.822,987.004 825.122,1003.36 821.629,1018.76 817.252,1033.22 811.856,1046.73 805.26,1059.25 797.233,1070.72 787.485,1081 775.655,1089.9 761.309,1097.13 743.922,1102.21 722.875,1104.46 697.459,1102.9 666.889,1096.11 630.364,1082.08 587.176,1058.17 536.927,1021.01 479.876,966.809 417.466,892.165 352.959,795.699 291.962,680.548 242.355,556.696 213.041,440.948 211.368,352.431 240.201,304.705 296.44,299.777 372.094,328.742 457.203,377.838 542.759,434.662 622.347,491.099 692.407,543.204 751.688,589.801 800.489,631.111 839.973,667.857 871.69,700.798 897.271,730.551 918.258,757.553 936.032,782.071 951.783,804.235 966.521,824.06 981.099,841.459 996.236,856.245 1012.55,868.127 1030.56,876.697 1050.7,881.416 1073.35,881.604 1098.73,876.441 1126.92,865.001 1157.76,846.335 1190.76,819.632 1224.98,784.479 1258.95,741.223 1290.64,691.361 1317.51,637.811 1336.86,584.856 1346.25,537.561 1344.03,500.722 1329.86,477.684 1304.82,469.569 1271.21,475.257 1232.08,492.07 1190.6,516.727 1149.57,546.151 1111.16,577.906 1076.79,610.3 1047.24,642.277 1022.76,673.236 1003.25,702.87 988.401,731.032 977.802,757.655 971.025,782.699 967.681,806.126 967.451,827.876 970.102,847.86 975.491,865.944 983.569,881.934 994.369,895.561 1008,906.456 1024.64,914.124 1044.49,917.918 1067.77,917.01 1094.64,910.379 1125.16,896.834 1159.14,875.096 1196.03,843.99 1234.75,802.782 1273.55,751.674 1309.9,692.386 1340.62,628.594 1362.25,565.879 1371.67,510.882 1366.91,469.721 1347.73,446.279 1315.83,441.232 1274.43,452.296 1227.49,475.439 1178.91,506.288 1131.93,541.132 1088.84,577.317 1050.98,613.201 1018.94,647.9 992.71,681.021 971.934,712.436 956.073,742.15 944.525,770.215 936.71,796.69 932.114,821.624 930.322,845.044 931.022,866.955 934.008,887.33 939.177,906.109 946.524,923.183 956.134,938.383 968.176,951.458 982.899,962.049 1000.62,969.649 1021.71,973.563 1046.57,972.858 1075.57,966.319 1109.02,952.423 1146.96,929.387 1189.1,895.333 1234.46,848.675 1281.22,788.787 1326.43,716.939 1366.01,637.225 1395.21,556.892 1409.41,485.371 1405.45,431.823 1382.64,402.152 1343.18,397.186 1291.55,413.11 1233.25,443.629 1173.56,482.369 1116.6,524.355 1065.11,566.41 1020.47,606.861 983.057,645.033 952.558,680.799 928.265,714.285 909.302,745.697 894.763,775.241 883.801,803.098 875.673,829.414 869.751,854.308 865.526,877.877 862.596,900.205 860.652,921.363 859.462,941.416 858.857,960.423 858.72,978.439 858.973,995.514 859.572,1011.7 860.499,1027.03 861.762,1041.55 863.386,1055.29 865.419,1068.3 867.928,1080.59 871.006,1092.18 874.768,1103.09 879.363,1113.3 884.976,1122.8 891.837,1131.55 900.23,1139.44 910.506,1146.33 923.095,1151.99 938.521,1156.06 957.416,1157.98 980.531,1156.92 1008.73,1151.64 1042.98,1140.33 1084.26,1120.44 1133.4,1088.5 1190.8,1040.16 1255.89,970.625 1326.42,876.02 1397.56,756.039 1461.42,617.535 1507.55,476.942 1525.48,357.834 1508.53,281.904 1457.12,258.324 1378.84,280.274 1285.36,331.164 1188.29,394.022 1096.35,457.11 1014.65,514.597 945.208,564.748 887.939,607.907 841.596,645.143 804.4,677.564 774.454,706.056 749.956,731.231 729.306,753.458 711.139,772.908 694.317,789.598 677.911,803.42 661.176,814.154 643.525,821.483 624.521,824.999 603.872,824.215 581.449,818.599 557.309,807.622 531.741,790.852 505.313,768.085 478.909,739.516 453.747,705.93 431.334,668.85 413.348,630.562 401.431,593.944 396.913,562.06 400.542,537.614 412.288,522.413 431.31,517.063 456.089,521 484.695,532.793 515.098,550.59 545.431,572.515 574.166,596.933 600.189,622.557 622.787,648.449 641.588,673.959 656.478,698.641 667.514,722.186 674.853,744.364 678.692,764.977 679.227,783.835 676.624,800.725 671.011,815.401 662.468,827.561 651.035,836.836 636.725,842.777 619.552,844.849 599.557,842.435 576.861,834.863 551.724,821.465 524.616,801.682 496.29,775.228 467.854,742.309 440.792,703.863 416.921,661.746 398.24,618.752 386.663,578.359 383.672,544.172 389.989,519.204 405.369,505.231 428.602,502.511 457.744,509.939 490.47,525.533 524.458,547.005 557.683,572.221 588.58,599.441 616.088,627.39 639.6,655.194 658.872,682.291 673.915,708.323 684.896,733.054 692.062,756.316 695.673,777.961 695.969,797.838 693.139,815.769 687.316,831.535 678.566,844.853 666.902,855.366 652.295,862.623 634.692,866.064 614.059,865.018 590.419,858.711 563.92,846.313 534.916,827.032 504.063,800.279 472.411,765.918 441.475,724.576 413.233,677.94 389.997,628.919 374.138,581.469 367.675,540.015 371.814,508.528 386.62,489.609 410.937,483.95 442.608,490.423 478.918,506.671 517.085,529.88 554.661,557.413 589.758,587.161 621.113,617.616 648.026,647.803 670.241,677.134 687.815,705.271 700.992,732.025 710.103,757.283 715.499,780.956 717.497,802.955 716.356,823.169 712.256,841.449 705.3,857.596 695.51,871.336 682.839,882.311 667.186,890.049 648.416,893.946 626.397,893.247 601.047,887.049 572.406,874.327 540.728,854.027 506.6,825.242 471.077,787.503 435.789,741.189 402.984,687.968 375.419,631.099 356.041,575.338 347.461,526.238 351.338,488.92 367.891,466.751 395.758,460.56 432.289,468.752 474.135,488.174 517.912,515.203 560.715,546.595 600.387,579.888 635.566,613.445 665.578,646.293 690.276,677.918 709.854,708.082 724.708,736.694 735.309,763.728 742.131,789.177 745.597,813.031 746.05,835.258 743.738,855.796 738.812,874.541 731.328,891.337 721.248,905.956 708.455,918.08 692.758,927.27 673.916,932.938 651.658,934.31 625.728,930.4 595.948,920.001 562.313,901.728 525.125,874.145 485.167,836.048 443.89,786.927 403.574,727.61 367.343,660.918 338.932,591.993 322.107,527.84 319.813,475.865 333.309,441.805 361.692,428.053 402.064,433.287 450.274,453.514 501.888,483.757 553.006,519.478 600.72,557.297 643.212,595.073 679.617,631.648 709.788,666.508 734.04,699.503 752.949,730.658 767.195,760.063 777.458,787.822 784.355,814.027 788.409,838.751 790.035,862.045 789.536,883.94 787.112,904.445 782.863,923.539 776.797,941.172 768.836,957.246 758.822,971.606 746.518,984.015 731.608,994.124 713.708,1001.43 692.369,1005.24 667.099,1004.59 637.406,998.18 602.866,984.345 563.25,961.047 518.714,926.017 470.07,877.13 419.118,813.146 368.954,734.845 324.072,646.295 290.009,555.545 272.326,473.724 275.08,412.083 299.372,378.062 342.788,372.741 400.098,391.328 464.821,426.023 530.845,469.137 593.464,514.917 649.709,559.905 698.171,602.455 738.608,642.047 771.524,678.731 797.829,712.782 818.592,744.512 834.889,774.202 847.717,802.073 857.951,828.296 866.339,852.999 873.506,876.277 879.975,898.199 886.184,918.814 892.513,938.147 899.302,956.202 906.873,972.952 915.546,988.336 925.658,1002.24 937.576,1014.48 951.713,1024.77 968.534,1032.7 988.563,1037.67 1012.38,1038.82 1040.6,1034.96 1073.82,1024.49 1112.53,1005.34 1156.96,974.975 1206.78,930.649 1260.79,869.976 1316.45,792.037 1369.58,698.959 1414.34,597.444 1444.03,498.997 1452.67,417.604 1437,364.987 1397.89,346.016 1340.18,357.449 1271.1,390.651 1198.12,435.868 1127.38,485.305 1062.94,534.12 1006.89,579.977 959.793,622.145 921.21,660.709 890.143,696.063 865.358,728.647 845.584,758.839 829.625,786.929 816.419,813.117 805.048,837.536 794.728,860.258 784.791,881.306 774.659,900.653 763.816,918.218 751.786,933.853 738.11,947.326 722.327,958.296 703.969,966.279 682.558,970.601 657.62,970.36 628.719,964.372 595.526,951.155 557.931,928.966 516.208,895.955 471.245,850.535 424.797,792.02 379.702,721.531 339.9,642.913 310.077,563.119 294.811,491.353 297.374,436.755 318.63,405.462 356.611,398.69 407.038,412.992 464.504,442.288 523.757,480.239 580.593,521.798 632.199,563.678 677.09,604.105 714.818,642.333 745.642,678.192 770.229,711.786 789.434,743.307 804.15,772.957 815.217,800.916 823.38,827.328 829.263,852.312 833.376,875.967 836.119,898.374 837.798,919.604 838.638,939.722 838.799,958.786 838.386,976.846 837.458,993.952 836.038,1010.15 834.116,1025.47 831.649,1039.94 828.569,1053.6 824.774,1066.46 820.131,1078.51 814.468,1089.74 807.568,1100.1 799.164,1109.5 788.923,1117.82 776.439,1124.81 761.219,1130.13 742.671,1133.25 720.096,1133.38 692.69,1129.36 659.569,1119.5 619.841,1101.47 572.748,1072.09 517.939,1027.43 455.925,963.15 388.728,875.705 320.637,764.589 258.712,635.435 212.357,502.302 191.327,386.081 202.362,307.229 246.117,276.275 316.566,289.481 403.384,333.019 495.633,391.14 584.574,451.99 664.735,509.04 733.624,559.849 790.895,604.263 837.485,643.06 874.962,677.205 905.101,707.529 929.636,734.635 950.14,758.908 967.979,780.546 984.308,799.604 1000.09,816.008 1016.11,829.579 1033.04,840.029 1051.38,846.961 1071.54,849.87 1093.82,848.149 1118.32,841.114 1144.99,828.061 1173.49,808.376 1203.18,781.698 1233.02,748.157 1261.52,708.634 1286.84,664.987 1306.89,620.095 1319.63,577.623 1323.44,541.435 1317.49,514.811 1301.98,499.723 1278.14,496.502 1248.01,503.986 1214.06,520.055 1178.73,542.259 1144.17,568.32 1112.03,596.404 1083.43,625.177 1058.97,653.749 1038.9,681.556 1023.18,708.251 1011.63,733.618 1003.96,757.505 999.893,779.783 999.163,800.322 1001.56,818.962 1006.95,835.506 1015.25,849.694 1026.45,861.191 1040.59,869.567 1057.75,874.281 1078,874.667 1101.37,869.94 1127.78,859.22 1156.98,841.616 1188.43,816.367 1221.19,783.084 1253.86,742.071 1284.49,694.682 1310.73,643.574 1330.01,592.674 1339.98,546.684 1339.03,510.154 1326.68,486.404 1303.81,476.763 1272.47,480.464 1235.45,495.191 1195.75,517.931 1156.11,545.747 1118.67,576.233 1084.91,607.66 1055.69,638.906 1031.34,669.308 1011.84,698.5 996.932,726.29 986.264,752.577 979.444,777.297 976.108,800.387 975.952,821.769 978.752,841.334 984.372,858.925 992.759,874.324 1003.94,887.236 1018.02,897.262 1035.14,903.877 1055.48,906.405 1079.21,904.002 1106.43,895.655 1137.07,880.223 1170.84,856.553 1207.02,823.699 1244.36,781.28 1280.97,729.968 1314.25,671.978 1341.12,611.333 1358.39,553.6 1363.46,504.894 1354.96,470.368 1333.18,452.823 1300.16,452.131 1259.11,465.728 1213.77,489.773 1167.64,520.353 1123.58,554.241 1083.53,589.166 1048.61,623.726 1019.26,657.16 995.422,689.112 976.754,719.456 962.753,748.172 952.878,775.281 946.614,800.812 943.52,824.779 943.244,847.175 945.539,867.96 950.26,887.062 957.361,904.354 966.888,919.65 978.976,932.677 993.834,943.052 1011.74,950.247 1033.01,953.549 1057.98,952.021 1086.94,944.472 1120.08,929.455 1157.31,905.348 1198.16,870.554 1241.5,823.908 1285.36,765.332 1326.78,696.641 1361.91,622.234 1386.42,549.112 1396.41,485.749 1389.47,439.835 1365.49,415.879 1326.81,413.982 1277.66,430.476 1223,459.805 1167.46,496.464 1114.7,536.161 1067.08,576.115 1025.85,614.807 991.334,651.573 963.275,686.234 941.057,718.846 923.915,749.549 911.055,778.498 901.738,805.831 895.322,831.663 891.273,856.09 889.175,879.184 888.717,901.006 889.687,921.601 891.959,941 895.486,959.218 900.289,976.25 906.46,992.066 914.151,1006.6 923.583,1019.73 935.043,1031.28 948.894,1040.96 965.575,1048.36 985.601,1052.85 1009.56,1053.56 1038.09,1049.27 1071.84,1038.3 1111.33,1018.48 1156.83,987.111 1208.08,941.228 1263.84,878.194 1321.51,796.894 1376.66,699.483 1423.1,593.096 1453.66,490.147 1461.94,405.732 1444.56,352.319 1402.63,334.705 1341.5,348.838 1268.97,385.061 1192.97,432.878 1119.81,484.189 1053.58,534.159 996.288,580.604 948.343,622.962 909.168,661.453 877.645,696.564 852.441,728.787 832.21,758.527 815.7,786.078 801.804,811.637 789.567,835.318 778.172,857.165 766.923,877.162 755.21,895.227 742.489,911.207 728.257,924.861 712.031,935.836 693.339,943.635 671.723,947.586 646.753,946.798 618.063,940.136 585.424,926.219 548.851,903.491 508.762,870.405 466.18,825.799 422.939,769.501 381.826,703.097 346.516,630.607 321.175,558.587 309.663,495.161 314.522,447.96 336.128,421.792 372.455,417.294 419.591,431.329 472.753,458.679 527.338,493.944 579.651,532.773 627.192,572.25 668.602,610.724 703.431,647.428 731.854,682.111 754.418,714.786 771.847,745.568 784.906,774.599 794.318,802.008 800.717,827.905 804.63,852.379 806.468,875.498 806.535,897.314 805.033,917.861 802.075,937.158 797.692,955.203 791.838,971.964 784.395,987.378 775.175,1001.33 763.919,1013.64 750.295,1024.02 733.892,1032.08 714.228,1037.21 690.753,1038.59 662.873,1035.03 629.998,1024.96 591.638,1006.33 547.563,976.646 498.055,933.156 444.269,873.439 388.657,796.467 335.316,704.163 289.989,602.953 259.36,504.101 249.491,421.542 263.821,367.23 301.723,346.467 358.542,356.419 427.137,388.653 500.002,433.393 570.926,482.708 635.726,531.604 692.216,577.63 739.761,619.989 778.759,658.735 810.182,694.251 835.257,726.978 855.255,757.299 871.375,785.504 884.686,811.802 896.114,836.328 906.447,859.157 916.358,880.316 926.43,899.781 937.178,917.476 949.08,933.259 962.596,946.907 978.185,958.088 996.313,966.329 1017.46,970.977 1042.1,971.147 1070.68,965.678 1103.53,953.11 1140.81,931.71 1182.26,899.624 1227.07,855.212 1273.57,797.674 1318.99,727.94 1359.49,649.608 1390.38,569.402 1407.04,496.443 1406.02,440.02 1386.22,406.637 1349.39,397.938 1299.68,410.781 1242.46,439.179 1183.07,476.718 1125.81,518.202 1073.62,560.196 1028.08,600.823 989.719,639.272 958.311,675.344 933.211,709.13 913.571,740.822 898.492,770.626 887.125,798.721 878.714,825.259 872.624,850.36 868.332,874.123 865.428,896.632 863.598,917.96 862.606,938.172 862.286,957.325 862.524,975.474 863.254,992.667 864.444,1008.95 866.096,1024.36 868.24,1038.93 870.934,1052.7 874.264,1065.68 878.345,1077.87 883.329,1089.28 889.405,1099.88 896.809,1109.6 905.837,1118.35 916.849,1125.95 930.285,1132.13 946.681,1136.5 966.675,1138.42 991.016,1136.98 1020.55,1130.82 1056.2,1118.03 1098.84,1095.92 1149.14,1060.97 1207.2,1008.93 1272.04,935.484 1340.84,837.822 1408.21,717.372 1465.95,582.974 1504.02,452.125 1513.24,347.111 1488.86,285.893 1432.98,273.515 1353.86,301.159 1262.7,352.93 1169.97,413.898 1083.24,474.217 1006.74,529.178 942.004,577.483 888.748,619.518 845.688,656.235 811.108,688.595 783.205,717.357 760.282,743.042 740.834,765.96 723.572,786.246 707.416,803.899 691.474,818.797 675.016,830.713 657.45,839.31 638.311,844.148 617.261,844.684 594.104,840.291 568.814,830.298 541.595,814.071 512.934,791.152 483.675,761.448 455.061,725.48 428.726,684.614 406.604,641.193 390.71,598.439 382.824,560.05 384.124,529.515 394.895,509.379 414.406,500.729 441.027,503.114 472.544,514.899 506.547,533.839 540.789,557.63 573.426,584.277 603.122,612.245 629.037,640.456 650.753,668.198 668.168,695.023 681.387,720.644 690.634,744.872 696.176,767.557 698.275,788.559 697.154,807.722 692.98,824.856 685.855,839.719 675.819,852.002 662.86,861.31 646.928,867.145 627.966,868.896 605.946,865.837 580.924,857.149 553.111,841.981 522.964,819.571 491.286,789.45 459.316,751.726 428.782,707.413 401.853,658.704 380.957,609.03 368.43,562.719 366.063,524.24 374.658,497.197 393.774,483.491 421.775,483.021 456.165,494.012 494.087,513.757 532.805,539.386 570.045,568.402 604.153,598.919 634.101,629.651 659.392,659.799 679.923,688.9 695.854,716.697 707.488,743.047 715.184,767.859 719.295,791.054 720.124,812.544 717.907,832.213 712.798,849.901 704.868,865.391 694.111,878.388 680.452,888.5 663.768,895.216 643.91,897.883 620.74,895.691 594.191,887.676 564.34,872.765 531.512,849.887 496.412,818.184 460.254,777.347 424.872,728.058 392.725,672.442 366.731,614.294 349.884,558.828 344.654,511.776 352.367,478.018 372.776,460.295 404.052,458.658 443.19,470.852 486.678,493.359 531.156,522.493 573.87,555.148 612.875,589.081 647.023,622.864 675.824,655.688 699.267,687.153 717.64,717.086 731.391,745.437 741.018,772.198 746.999,797.377 749.751,820.964 749.599,842.932 746.774,863.219 741.405,881.719 733.526,898.275 723.08,912.654 709.929,924.53 693.863,933.452 674.619,938.815 651.909,939.82 625.46,935.445 595.081,924.437 560.76,905.355 522.809,876.706 482.042,837.241 439.977,786.45 398.994,725.244 362.355,656.642 333.942,586.095 317.633,520.952 316.395,468.864 331.393,435.586 361.526,423.28 403.658,430.253 453.429,452.161 506.279,483.803 558.267,520.567 606.517,559.1 649.277,597.335 685.763,634.189 715.902,669.214 740.073,702.306 758.899,733.52 773.096,762.967 783.367,790.765 790.349,817.015 794.577,841.8 796.477,865.18 796.363,887.198 794.445,907.874 790.837,927.207 785.562,945.17 778.561,961.697 769.697,976.674 758.754,989.924 745.443,1001.17 729.398,1010.03 710.181,1015.91 687.297,1018.03 660.209,1015.28 628.396,1006.2 591.438,988.896 549.164,961.103 501.884,920.37 450.705,864.576 397.9,792.865 "/>
</svg>
