<?xml version="1.0" encoding="utf-8"?>
<svg xmlns="http://www.w3.org/2000/svg" xmlns:xlink="http://www.w3.org/1999/xlink" width="420" height="360" viewBox="0 0 1680 1440">
<defs>
  <clipPath id="clip270">
    <rect x="0" y="0" width="1680" height="1440"/>
  </clipPath>
</defs>
<path clip-path="url(#clip270)" d="M0 1440 L1680 1440 L1680 0 L0 0  Z" fill="#ffffff" fill-rule="evenodd" fill-opacity="1"/>
<defs>
  <clipPath id="clip271">
    <rect x="133" y="140" width="1500" height="1178"/>
  </clipPath>
</defs>
<path clip-path="url(#clip270)" d="M171.667 1318.17 L1632.76 1318.17 L1632.76 140.752 L171.667 140.752  Z" fill="#ffffff" fill-rule="evenodd" fill-opacity="1"/>
<defs>
  <clipPath id="clip272">
    <rect x="171" y="140" width="1462" height="1178"/>
  </clipPath>
</defs>
<polyline clip-path="url(#clip272)" style="stroke:#000000; stroke-linecap:round; stroke-linejoin:round; stroke-width:2; stroke-opacity:0.1; fill:none" points="488.218,1318.17 488.218,140.752 "/>
<polyline clip-path="url(#clip272)" style="stroke:#000000; stroke-linecap:round; stroke-linejoin:round; stroke-width:2; stroke-opacity:0.1; fill:none" points="824.032,1318.17 824.032,140.752 "/>
<polyline clip-path="url(#clip272)" style="stroke:#000000; stroke-linecap:round; stroke-linejoin:round; stroke-width:2; stroke-opacity:0.1; fill:none" points="1159.85,1318.17 1159.85,140.752 "/>
<polyline clip-path="url(#clip272)" style="stroke:#000000; stroke-linecap:round; stroke-linejoin:round; stroke-width:2; stroke-opacity:0.1; fill:none" points="1495.66,1318.17 1495.66,140.752 "/>
<polyline clip-path="url(#clip272)" style="stroke:#000000; stroke-linecap:round; stroke-linejoin:round; stroke-width:2; stroke-opacity:0.1; fill:none" points="171.667,1238.24 1632.76,1238.24 "/>
<polyline clip-path="url(#clip272)" style="stroke:#000000; stroke-linecap:round; stroke-linejoin:round; stroke-width:2; stroke-opacity:0.1; fill:none" points="171.667,939.879 1632.76,939.879 "/>
<polyline clip-path="url(#clip272)" style="stroke:#000000; stroke-linecap:round; stroke-linejoin:round; stroke-width:2; stroke-opacity:0.1; fill:none" points="171.667,641.515 1632.76,641.515 "/>
<polyline clip-path="url(#clip272)" style="stroke:#000000; stroke-linecap:round; stroke-linejoin:round; stroke-width:2; stroke-opacity:0.1; fill:none" points="171.667,343.15 1632.76,343.15 "/>
<polyline clip-path="url(#clip270)" style="stroke:#000000; stroke-linecap:round; stroke-linejoin:round; stroke-width:4; stroke-opacity:1; fill:none" points="171.667,1318.17 1632.76,1318.17 "/>
<polyline clip-path="url(#clip270)" style="stroke:#000000; stroke-linecap:round; stroke-linejoin:round; stroke-width:4; stroke-opacity:1; fill:none" points="488.218,1318.17 488.218,1299.28 "/>
<polyline clip-path="url(#clip270)" style="stroke:#000000; stroke-linecap:round; stroke-linejoin:round; stroke-width:4; stroke-opacity:1; fill:none" points="824.032,1318.17 824.032,1299.28 "/>
<polyline clip-path="url(#clip270)" style="stroke:#000000; stroke-linecap:round; stroke-linejoin:round; stroke-width:4; stroke-opacity:1; fill:none" points="1159.85,1318.17 1159.85,1299.28 "/>
<polyline clip-path="url(#clip270)" style="stroke:#000000; stroke-linecap:round; stroke-linejoin:round; stroke-width:4; stroke-opacity:1; fill:none" points="1495.66,1318.17 1495.66,1299.28 "/>
<path clip-path="url(#clip270)" d="M457.859 1357.98 L487.535 1357.98 L487.535 1361.92 L457.859 1361.92 L457.859 1357.98 Z" fill="#000000" fill-rule="nonzero" fill-opacity="1" /><path clip-path="url(#clip270)" d="M497.674 1340.25 L516.03 1340.25 L516.03 1344.19 L501.956 1344.19 L501.956 1352.66 Q502.975 1352.31 503.993 1352.15 Q505.012 1351.97 506.03 1351.97 Q511.817 1351.97 515.197 1355.14 Q518.576 1358.31 518.576 1363.73 Q518.576 1369.3 515.104 1372.41 Q511.632 1375.48 505.313 1375.48 Q503.137 1375.48 500.868 1375.11 Q498.623 1374.74 496.215 1374 L496.215 1369.3 Q498.299 1370.44 500.521 1370.99 Q502.743 1371.55 505.22 1371.55 Q509.225 1371.55 511.562 1369.44 Q513.9 1367.34 513.9 1363.73 Q513.9 1360.11 511.562 1358.01 Q509.225 1355.9 505.22 1355.9 Q503.345 1355.9 501.47 1356.32 Q499.618 1356.73 497.674 1357.61 L497.674 1340.25 Z" fill="#000000" fill-rule="nonzero" fill-opacity="1" /><path clip-path="url(#clip270)" d="M824.032 1343.33 Q820.421 1343.33 818.593 1346.9 Q816.787 1350.44 816.787 1357.57 Q816.787 1364.67 818.593 1368.24 Q820.421 1371.78 824.032 1371.78 Q827.667 1371.78 829.472 1368.24 Q831.301 1364.67 831.301 1357.57 Q831.301 1350.44 829.472 1346.9 Q827.667 1343.33 824.032 1343.33 M824.032 1339.63 Q829.843 1339.63 832.898 1344.24 Q835.977 1348.82 835.977 1357.57 Q835.977 1366.3 832.898 1370.9 Q829.843 1375.48 824.032 1375.48 Q818.222 1375.48 815.144 1370.9 Q812.088 1366.3 812.088 1357.57 Q812.088 1348.82 815.144 1344.24 Q818.222 1339.63 824.032 1339.63 Z" fill="#000000" fill-rule="nonzero" fill-opacity="1" /><path clip-path="url(#clip270)" d="M1150.12 1340.25 L1168.48 1340.25 L1168.48 1344.19 L1154.41 1344.19 L1154.41 1352.66 Q1155.43 1352.31 1156.44 1352.15 Q1157.46 1351.97 1158.48 1351.97 Q1164.27 1351.97 1167.65 1355.14 Q1171.03 1358.31 1171.03 1363.73 Q1171.03 1369.3 1167.56 1372.41 Q1164.08 1375.48 1157.76 1375.48 Q1155.59 1375.48 1153.32 1375.11 Q1151.07 1374.74 1148.67 1374 L1148.67 1369.3 Q1150.75 1370.44 1152.97 1370.99 Q1155.19 1371.55 1157.67 1371.55 Q1161.68 1371.55 1164.01 1369.44 Q1166.35 1367.34 1166.35 1363.73 Q1166.35 1360.11 1164.01 1358.01 Q1161.68 1355.9 1157.67 1355.9 Q1155.8 1355.9 1153.92 1356.32 Q1152.07 1356.73 1150.12 1357.61 L1150.12 1340.25 Z" fill="#000000" fill-rule="nonzero" fill-opacity="1" /><path clip-path="url(#clip270)" d="M1470.35 1370.88 L1477.99 1370.88 L1477.99 1344.51 L1469.68 1346.18 L1469.68 1341.92 L1477.94 1340.25 L1482.62 1340.25 L1482.62 1370.88 L1490.26 1370.88 L1490.26 1374.81 L1470.35 1374.81 L1470.35 1370.88 Z" fill="#000000" fill-rule="nonzero" fill-opacity="1" /><path clip-path="url(#clip270)" d="M1509.7 1343.33 Q1506.09 1343.33 1504.26 1346.9 Q1502.46 1350.44 1502.46 1357.57 Q1502.46 1364.67 1504.26 1368.24 Q1506.09 1371.78 1509.7 1371.78 Q1513.34 1371.78 1515.14 1368.24 Q1516.97 1364.67 1516.97 1357.57 Q1516.97 1350.44 1515.14 1346.9 Q1513.34 1343.33 1509.7 1343.33 M1509.7 1339.63 Q1515.51 1339.63 1518.57 1344.24 Q1521.65 1348.82 1521.65 1357.57 Q1521.65 1366.3 1518.57 1370.9 Q1515.51 1375.48 1509.7 1375.48 Q1503.89 1375.48 1500.81 1370.9 Q1497.76 1366.3 1497.76 1357.57 Q1497.76 1348.82 1500.81 1344.24 Q1503.89 1339.63 1509.7 1339.63 Z" fill="#000000" fill-rule="nonzero" fill-opacity="1" /><polyline clip-path="url(#clip270)" style="stroke:#000000; stroke-linecap:round; stroke-linejoin:round; stroke-width:4; stroke-opacity:1; fill:none" points="171.667,1318.17 171.667,140.752 "/>
<polyline clip-path="url(#clip270)" style="stroke:#000000; stroke-linecap:round; stroke-linejoin:round; stroke-width:4; stroke-opacity:1; fill:none" points="171.667,1238.24 190.564,1238.24 "/>
<polyline clip-path="url(#clip270)" style="stroke:#000000; stroke-linecap:round; stroke-linejoin:round; stroke-width:4; stroke-opacity:1; fill:none" points="171.667,939.879 190.564,939.879 "/>
<polyline clip-path="url(#clip270)" style="stroke:#000000; stroke-linecap:round; stroke-linejoin:round; stroke-width:4; stroke-opacity:1; fill:none" points="171.667,641.515 190.564,641.515 "/>
<polyline clip-path="url(#clip270)" style="stroke:#000000; stroke-linecap:round; stroke-linejoin:round; stroke-width:4; stroke-opacity:1; fill:none" points="171.667,343.15 190.564,343.15 "/>
<path clip-path="url(#clip270)" d="M54.5921 1238.7 L84.2679 1238.7 L84.2679 1242.63 L54.5921 1242.63 L54.5921 1238.7 Z" fill="#000000" fill-rule="nonzero" fill-opacity="1" /><path clip-path="url(#clip270)" d="M95.1706 1251.59 L102.809 1251.59 L102.809 1225.22 L94.4993 1226.89 L94.4993 1222.63 L102.763 1220.96 L107.439 1220.96 L107.439 1251.59 L115.078 1251.59 L115.078 1255.52 L95.1706 1255.52 L95.1706 1251.59 Z" fill="#000000" fill-rule="nonzero" fill-opacity="1" /><path clip-path="url(#clip270)" d="M134.522 1224.04 Q130.911 1224.04 129.082 1227.61 Q127.277 1231.15 127.277 1238.28 Q127.277 1245.39 129.082 1248.95 Q130.911 1252.49 134.522 1252.49 Q138.156 1252.49 139.962 1248.95 Q141.791 1245.39 141.791 1238.28 Q141.791 1231.15 139.962 1227.61 Q138.156 1224.04 134.522 1224.04 M134.522 1220.34 Q140.332 1220.34 143.388 1224.95 Q146.467 1229.53 146.467 1238.28 Q146.467 1247.01 143.388 1251.61 Q140.332 1256.2 134.522 1256.2 Q128.712 1256.2 125.633 1251.61 Q122.578 1247.01 122.578 1238.28 Q122.578 1229.53 125.633 1224.95 Q128.712 1220.34 134.522 1220.34 Z" fill="#000000" fill-rule="nonzero" fill-opacity="1" /><path clip-path="url(#clip270)" d="M85.7494 940.331 L115.425 940.331 L115.425 944.266 L85.7494 944.266 L85.7494 940.331 Z" fill="#000000" fill-rule="nonzero" fill-opacity="1" /><path clip-path="url(#clip270)" d="M125.564 922.599 L143.92 922.599 L143.92 926.535 L129.846 926.535 L129.846 935.007 Q130.865 934.66 131.883 934.498 Q132.902 934.312 133.92 934.312 Q139.707 934.312 143.087 937.484 Q146.467 940.655 146.467 946.072 Q146.467 951.65 142.994 954.752 Q139.522 957.831 133.203 957.831 Q131.027 957.831 128.758 957.46 Q126.513 957.09 124.106 956.349 L124.106 951.65 Q126.189 952.784 128.411 953.34 Q130.633 953.896 133.11 953.896 Q137.115 953.896 139.453 951.789 Q141.791 949.683 141.791 946.072 Q141.791 942.46 139.453 940.354 Q137.115 938.248 133.11 938.248 Q131.235 938.248 129.36 938.664 Q127.508 939.081 125.564 939.96 L125.564 922.599 Z" fill="#000000" fill-rule="nonzero" fill-opacity="1" /><path clip-path="url(#clip270)" d="M134.522 627.314 Q130.911 627.314 129.082 630.878 Q127.277 634.42 127.277 641.55 Q127.277 648.656 129.082 652.221 Q130.911 655.762 134.522 655.762 Q138.156 655.762 139.962 652.221 Q141.791 648.656 141.791 641.55 Q141.791 634.42 139.962 630.878 Q138.156 627.314 134.522 627.314 M134.522 623.61 Q140.332 623.61 143.388 628.216 Q146.467 632.8 146.467 641.55 Q146.467 650.276 143.388 654.883 Q140.332 659.466 134.522 659.466 Q128.712 659.466 125.633 654.883 Q122.578 650.276 122.578 641.55 Q122.578 632.8 125.633 628.216 Q128.712 623.61 134.522 623.61 Z" fill="#000000" fill-rule="nonzero" fill-opacity="1" /><path clip-path="url(#clip270)" d="M125.564 325.87 L143.92 325.87 L143.92 329.806 L129.846 329.806 L129.846 338.278 Q130.865 337.93 131.883 337.768 Q132.902 337.583 133.92 337.583 Q139.707 337.583 143.087 340.755 Q146.467 343.926 146.467 349.342 Q146.467 354.921 142.994 358.023 Q139.522 361.102 133.203 361.102 Q131.027 361.102 128.758 360.731 Q126.513 360.361 124.106 359.62 L124.106 354.921 Q126.189 356.055 128.411 356.611 Q130.633 357.166 133.11 357.166 Q137.115 357.166 139.453 355.06 Q141.791 352.954 141.791 349.342 Q141.791 345.731 139.453 343.625 Q137.115 341.518 133.11 341.518 Q131.235 341.518 129.36 341.935 Q127.508 342.352 125.564 343.231 L125.564 325.87 Z" fill="#000000" fill-rule="nonzero" fill-opacity="1" /><path clip-path="url(#clip270)" d="M877.946 27.2059 L861.54 49.2833 L878.797 72.576 L870.007 72.576 L856.801 54.752 L843.595 72.576 L834.804 72.576 L852.426 48.8377 L836.303 27.2059 L845.094 27.2059 L857.125 43.369 L869.156 27.2059 L877.946 27.2059 Z" fill="#000000" fill-rule="nonzero" fill-opacity="1" /><path clip-path="url(#clip270)" d="M885.562 46.9338 L918.942 46.9338 L918.942 52.7671 L885.562 52.7671 L885.562 46.9338 Z" fill="#000000" fill-rule="nonzero" fill-opacity="1" /><path clip-path="url(#clip270)" d="M949.688 76.7889 Q946.528 84.8907 943.53 87.3618 Q940.533 89.8329 935.51 89.8329 L929.555 89.8329 L929.555 83.5945 L933.93 83.5945 Q937.009 83.5945 938.71 82.1361 Q940.411 80.6778 942.477 75.2496 L943.814 71.8468 L925.463 27.2059 L933.363 27.2059 L947.541 62.6918 L961.719 27.2059 L969.618 27.2059 L949.688 76.7889 Z" fill="#000000" fill-rule="nonzero" fill-opacity="1" /><polyline clip-path="url(#clip272)" style="stroke:#009af9; stroke-linecap:round; stroke-linejoin:round; stroke-width:1.6; stroke-opacity:1; fill:none" points="891.195,581.842 888.552,580.431 885.988,579.06 883.495,577.729 881.066,576.436 878.694,575.181 876.372,573.963 874.094,572.78 871.855,571.633 869.65,570.521 867.474,569.444 865.324,568.401 863.196,567.392 861.085,566.416 858.991,565.474 856.909,564.565 854.837,563.69 852.774,562.848 850.718,562.039 848.666,561.264 846.618,560.522 844.572,559.813 842.527,559.138 840.483,558.497 838.438,557.889 836.393,557.316 834.347,556.777 832.298,556.271 830.248,555.801 828.196,555.365 826.143,554.964 824.087,554.598 822.029,554.267 819.97,553.971 817.909,553.711 815.848,553.486 813.785,553.297 811.723,553.145 809.661,553.028 807.599,552.947 805.539,552.903 803.48,552.896 801.424,552.925 799.371,552.991 797.321,553.093 795.276,553.233 793.236,553.409 791.201,553.622 789.173,553.873 787.152,554.16 785.139,554.484 783.135,554.846 781.14,555.245 779.155,555.68 777.18,556.153 775.218,556.662 773.268,557.209 771.331,557.792 769.409,558.412 767.501,559.068 765.609,559.761 763.733,560.491 761.874,561.256 760.033,562.058 758.211,562.895 756.409,563.768 754.627,564.676 752.866,565.62 751.127,566.598 749.411,567.611 747.718,568.659 746.049,569.74 744.405,570.856 742.787,572.005 741.195,573.187 739.631,574.402 738.094,575.65 736.586,576.929 735.108,578.241 733.659,579.583 732.241,580.957 730.855,582.361 729.5,583.795 728.179,585.258 726.891,586.751 725.637,588.273 724.417,589.822 723.233,591.399 722.085,593.003 720.973,594.634 719.899,596.291 718.862,597.973 717.863,599.68 716.903,601.411 715.983,603.166 715.102,604.944 714.262,606.745 713.462,608.567 712.704,610.41 711.988,612.274 711.314,614.158 710.683,616.061 710.095,617.983 709.55,619.922 709.049,621.878 708.593,623.851 708.181,625.839 707.814,627.843 707.493,629.86 707.217,631.891 706.987,633.934 706.803,635.99 706.665,638.056 706.575,640.133 706.531,642.219 706.534,644.314 706.584,646.417 706.682,648.527 706.828,650.643 707.021,652.765 707.262,654.892 707.551,657.022 707.888,659.155 708.273,661.29 708.706,663.427 709.187,665.564 709.716,667.701 710.294,669.836 710.919,671.969 711.592,674.099 712.313,676.225 713.082,678.347 713.899,680.463 714.763,682.572 715.674,684.674 716.633,686.768 717.639,688.853 718.691,690.928 719.79,692.992 720.935,695.044 722.127,697.084 723.364,699.11 724.646,701.122 725.973,703.119 727.345,705.099 728.762,707.063 730.222,709.009 731.726,710.937 733.272,712.845 734.862,714.733 736.494,716.599 738.167,718.444 739.881,720.266 741.636,722.065 743.432,723.839 745.266,725.587 747.14,727.31 749.052,729.006 751.002,730.675 752.989,732.315 755.012,733.926 757.071,735.507 759.166,737.057 761.294,738.576 763.456,740.063 765.652,741.517 767.879,742.938 770.138,744.324 772.427,745.675 774.747,746.991 777.095,748.27 779.472,749.513 781.876,750.718 784.306,751.884 786.762,753.012 789.243,754.101 791.747,755.149 794.275,756.157 796.824,757.124 799.395,758.049 801.986,758.931 804.596,759.771 807.224,760.568 809.869,761.321 812.53,762.03 815.207,762.694 817.898,763.313 820.602,763.886 823.318,764.413 826.045,764.894 828.783,765.329 831.529,765.716 834.283,766.056 837.044,766.348 839.81,766.592 842.582,766.788 845.356,766.935 848.134,767.033 850.912,767.082 853.691,767.082 856.469,767.033 859.245,766.934 862.018,766.785 864.787,766.586 867.55,766.337 870.306,766.038 873.056,765.689 875.796,765.289 878.526,764.839 881.245,764.339 883.952,763.788 886.646,763.188 889.325,762.537 891.989,761.835 894.636,761.084 897.265,760.283 899.874,759.432 902.464,758.531 905.033,757.58 907.579,756.581 910.102,755.532 912.6,754.434 915.072,753.288 917.518,752.093 919.936,750.85 922.325,749.559 924.683,748.221 927.011,746.836 929.307,745.404 931.569,743.926 933.797,742.402 935.99,740.832 938.146,739.218 940.265,737.559 942.346,735.855 944.388,734.109 946.389,732.319 948.349,730.487 950.267,728.613 952.142,726.698 953.972,724.742 955.758,722.746 957.498,720.71 959.191,718.636 960.837,716.524 962.434,714.375 963.982,712.188 965.48,709.966 966.927,707.709 968.322,705.418 969.665,703.093 970.954,700.735 972.19,698.345 973.372,695.925 974.498,693.474 975.568,690.993 976.581,688.484 977.537,685.948 978.436,683.385 979.276,680.796 980.057,678.182 980.779,675.544 981.44,672.884 982.042,670.202 982.582,667.498 983.06,664.775 983.477,662.033 983.832,659.273 984.124,656.496 984.353,653.704 984.519,650.896 984.621,648.076 984.659,645.242 984.633,642.397 984.543,639.542 984.388,636.677 984.169,633.805 983.884,630.925 983.535,628.039 983.12,625.149 982.64,622.255 982.095,619.358 981.484,616.461 980.808,613.563 980.067,610.666 979.261,607.771 978.39,604.879 977.453,601.992 976.452,599.111 975.386,596.237 974.255,593.37 973.061,590.513 971.802,587.666 970.479,584.831 969.092,582.009 967.643,579.2 966.131,576.407 964.556,573.63 962.919,570.87 961.22,568.129 959.461,565.408 957.64,562.708 955.759,560.029 953.819,557.375 951.819,554.744 949.761,552.139 947.645,549.561 945.472,547.011 943.242,544.49 940.956,541.999 938.615,539.539 936.219,537.111 933.769,534.717 931.267,532.357 928.712,530.033 926.106,527.745 923.449,525.495 920.743,523.284 917.987,521.113 915.184,518.982 912.334,516.893 909.439,514.847 906.498,512.845 903.513,510.888 900.485,508.976 897.415,507.111 894.304,505.293 891.154,503.524 887.965,501.804 884.738,500.134 881.476,498.516 878.177,496.949 874.845,495.435 871.48,493.975 868.083,492.569 864.656,491.218 861.2,489.923 857.715,488.685 854.204,487.503 850.668,486.38 847.108,485.316 843.525,484.311 839.921,483.366 836.297,482.481 832.654,481.658 828.993,480.896 825.317,480.197 821.627,479.56 817.923,478.987 814.208,478.477 810.482,478.032 806.748,477.651 803.007,477.335 799.259,477.085 795.507,476.9 791.753,476.782 787.996,476.73 784.24,476.744 780.486,476.826 776.734,476.975 772.988,477.191 769.247,477.474 765.514,477.825 761.789,478.244 758.076,478.731 754.375,479.286 750.687,479.909 747.014,480.6 743.359,481.359 739.721,482.186 736.103,483.081 732.507,484.043 728.933,485.074 725.384,486.171 721.86,487.337 718.364,488.569 714.897,489.868 711.459,491.234 708.054,492.667 704.682,494.165 701.345,495.729 698.044,497.359 694.781,499.054 691.557,500.813 688.373,502.636 685.232,504.523 682.134,506.473 679.08,508.485 676.073,510.56 673.114,512.696 670.204,514.892 667.344,517.149 664.536,519.466 661.78,521.841 659.079,524.275 656.434,526.765 653.846,529.313 651.315,531.916 648.845,534.574 646.434,537.286 644.086,540.051 641.801,542.869 639.58,545.738 637.424,548.658 635.334,551.627 633.312,554.645 631.359,557.71 629.475,560.821 627.663,563.978 625.921,567.179 624.253,570.424 622.658,573.71 621.137,577.038 619.692,580.405 618.324,583.811 617.032,587.254 615.819,590.733 614.684,594.247 613.629,597.794 612.654,601.374 611.761,604.985 610.949,608.625 610.219,612.294 609.572,615.99 609.009,619.711 608.53,623.457 608.135,627.225 607.826,631.015 607.602,634.824 607.464,638.652 607.413,642.498 607.448,646.358 607.57,650.233 607.78,654.12 608.078,658.019 608.463,661.927 608.936,665.843 609.498,669.765 610.148,673.693 610.886,677.623 611.713,681.556 612.628,685.489 613.632,689.42 614.725,693.349 615.905,697.273 617.174,701.191 618.531,705.102 619.976,709.003 621.509,712.893 623.128,716.771 624.835,720.634 626.629,724.482 628.509,728.313 630.475,732.125 632.527,735.916 634.663,739.686 636.884,743.431 639.189,747.152 641.577,750.845 644.048,754.51 646.602,758.145 649.236,761.748 651.951,765.318 654.746,768.854 657.62,772.353 660.572,775.814 663.601,779.236 666.707,782.617 669.889,785.956 673.145,789.25 676.474,792.499 679.876,795.702 683.349,798.856 686.892,801.96 690.505,805.013 694.186,808.013 697.933,810.959 701.745,813.849 705.622,816.683 709.562,819.458 713.564,822.174 717.625,824.829 721.746,827.422 725.923,829.951 730.157,832.416 734.446,834.814 738.787,837.146 743.179,839.408 747.622,841.602 752.113,843.724 756.65,845.775 761.233,847.753 765.859,849.656 770.526,851.485 775.234,853.237 779.979,854.913 784.761,856.51 789.578,858.028 794.428,859.466 799.309,860.823 804.219,862.099 809.156,863.292 814.119,864.402 819.106,865.427 824.114,866.368 829.142,867.223 834.188,867.992 839.25,868.673 844.325,869.268 849.412,869.774 854.51,870.192 859.615,870.52 864.726,870.759 869.84,870.908 874.957,870.966 880.073,870.934 885.187,870.81 890.296,870.594 895.399,870.287 900.493,869.888 905.577,869.397 910.648,868.813 915.704,868.137 920.742,867.368 925.762,866.507 930.761,865.553 935.736,864.506 940.686,863.367 945.608,862.135 950.501,860.811 955.362,859.395 960.19,857.887 964.981,856.287 969.735,854.596 974.448,852.814 979.119,850.941 983.746,848.978 988.327,846.925 992.86,844.782 997.343,842.551 1001.77,840.231 1006.15,837.824 1010.47,835.33 1014.73,832.749 1018.93,830.083 1023.07,827.331 1027.14,824.496 1031.15,821.577 1035.09,818.576 1038.96,815.493 1042.76,812.33 1046.49,809.086 1050.14,805.764 1053.71,802.365 1057.21,798.889 1060.62,795.338 1063.95,791.712 1067.2,788.013 1070.36,784.242 1073.44,780.401 1076.43,776.49 1079.32,772.511 1082.13,768.466 1084.84,764.355 1087.45,760.18 1089.97,755.943 1092.39,751.645 1094.71,747.287 1096.94,742.872 1099.06,738.4 1101.07,733.873 1102.99,729.293 1104.79,724.662 1106.49,719.981 1108.09,715.252 1109.57,710.476 1110.94,705.656 1112.21,700.794 1113.36,695.89 1114.4,690.947 1115.32,685.966 1116.14,680.951 1116.83,675.901 1117.41,670.821 1117.88,665.71 1118.22,660.572 1118.45,655.408 1118.56,650.22 1118.56,645.011 1118.43,639.782 1118.18,634.535 1117.82,629.273 1117.33,623.997 1116.73,618.709 1116,613.413 1115.16,608.109 1114.19,602.8 1113.1,597.488 1111.89,592.175 1110.56,586.864 1109.11,581.556 1107.54,576.253 1105.85,570.959 1104.05,565.674 1102.12,560.401 1100.07,555.143 1097.9,549.901 1095.62,544.677 1093.22,539.475 1090.7,534.295 1088.07,529.14 1085.32,524.013 1082.46,518.915 1079.48,513.849 1076.39,508.816 1073.19,503.819 1069.87,498.861 1066.45,493.942 1062.92,489.065 1059.28,484.233 1055.53,479.447 1051.68,474.71 1047.72,470.023 1043.66,465.389 1039.49,460.81 1035.23,456.287 1030.87,451.823 1026.41,447.419 1021.85,443.079 1017.2,438.802 1012.45,434.593 1007.62,430.451 1002.69,426.38 997.677,422.381 992.575,418.457 987.388,414.608 982.119,410.836 976.767,407.144 971.336,403.534 965.828,400.006 960.243,396.563 954.584,393.206 948.854,389.937 943.053,386.758 937.184,383.67 931.25,380.675 925.251,377.773 919.19,374.968 913.07,372.26 906.893,369.65 900.66,367.14 894.374,364.732 888.037,362.427 881.651,360.225 875.22,358.129 868.744,356.139 862.226,354.257 855.67,352.484 849.077,350.821 842.449,349.269 835.789,347.829 829.1,346.502 822.384,345.289 815.643,344.191 808.881,343.209 802.099,342.344 795.3,341.595 788.488,340.966 781.663,340.454 774.83,340.063 767.991,339.792 761.148,339.641 754.304,339.612 747.461,339.704 740.624,339.919 733.793,340.256 726.972,340.716 720.164,341.299 713.371,342.005 706.597,342.836 699.843,343.79 693.113,344.867 686.409,346.069 679.734,347.395 673.091,348.845 666.483,350.418 659.913,352.115 653.382,353.935 646.894,355.879 640.453,357.945 634.059,360.135 627.717,362.446 621.428,364.879 615.196,367.433 609.024,370.108 602.913,372.903 596.867,375.817 590.889,378.85 584.98,382.001 579.144,385.269 573.383,388.654 567.7,392.154 562.098,395.769 556.578,399.497 551.144,403.337 545.798,407.289 540.542,411.351 535.38,415.522 530.313,419.801 525.343,424.187 520.474,428.678 515.707,433.272 511.045,437.969 506.49,442.766 502.044,447.663 497.71,452.658 493.49,457.749 489.385,462.935 485.399,468.213 481.532,473.583 477.788,479.041 474.167,484.587 470.673,490.219 467.306,495.935 464.069,501.732 460.964,507.608 457.991,513.563 455.154,519.593 452.454,525.696 449.892,531.871 447.47,538.115 445.189,544.426 443.051,550.801 441.057,557.239 439.209,563.737 437.508,570.293 435.956,576.903 434.553,583.567 433.3,590.281 432.199,597.042 431.251,603.849 430.457,610.699 429.817,617.589 429.333,624.517 429.006,631.48 428.835,638.475 428.822,645.5 428.968,652.551 429.273,659.627 429.737,666.725 430.361,673.841 431.146,680.973 432.092,688.119 433.198,695.274 434.465,702.438 435.894,709.606 437.484,716.776 439.236,723.944 441.149,731.109 443.223,738.268 445.457,745.416 447.853,752.552 450.409,759.673 453.125,766.775 456.001,773.855 459.036,780.912 462.229,787.941 465.58,794.941 469.088,801.907 472.753,808.837 476.573,815.729 480.547,822.578 484.675,829.383 488.956,836.141 493.388,842.848 497.97,849.501 502.702,856.099 507.581,862.637 512.606,869.113 517.776,875.525 523.09,881.868 528.545,888.142 534.141,894.342 539.875,900.466 545.747,906.511 551.753,912.475 557.892,918.355 564.162,924.147 570.562,929.85 577.088,935.461 583.74,940.977 590.514,946.396 597.409,951.714 604.423,956.931 611.552,962.042 618.795,967.045 626.149,971.939 633.611,976.721 641.18,981.387 648.852,985.937 656.625,990.368 664.495,994.677 672.461,998.862 680.52,1002.92 688.668,1006.85 696.902,1010.65 705.22,1014.32 713.619,1017.86 722.096,1021.26 730.647,1024.52 739.269,1027.64 747.959,1030.62 756.715,1033.46 765.532,1036.15 774.407,1038.69 783.338,1041.09 792.32,1043.33 801.35,1045.43 810.425,1047.37 819.541,1049.16 828.696,1050.79 837.884,1052.27 847.103,1053.58 856.349,1054.74 865.619,1055.74 874.908,1056.58 884.213,1057.25 893.531,1057.77 902.858,1058.11 912.189,1058.3 921.522,1058.31 930.852,1058.17 940.176,1057.85 949.49,1057.37 958.789,1056.72 968.071,1055.9 977.331,1054.92 986.566,1053.76 995.771,1052.44 1004.94,1050.94 1014.08,1049.28 1023.17,1047.45 1032.22,1045.45 1041.22,1043.28 1050.17,1040.95 1059.06,1038.44 1067.89,1035.77 1076.66,1032.93 1085.35,1029.92 1093.98,1026.75 1102.53,1023.41 1111,1019.91 1119.39,1016.24 1127.69,1012.41 1135.9,1008.42 1144.01,1004.26 1152.02,999.948 1159.94,995.474 1167.74,990.843 1175.44,986.054 1183.02,981.111 1190.48,976.013 1197.83,970.764 1205.05,965.364 1212.13,959.814 1219.09,954.118 1225.91,948.276 1232.6,942.29 1239.14,936.163 1245.53,929.895 1251.77,923.491 1257.86,916.95 1263.79,910.277 1269.56,903.473 1275.17,896.54 1280.61,889.481 1285.88,882.298 1290.98,874.994 1295.9,867.572 1300.64,860.033 1305.19,852.382 1309.56,844.621 1313.73,836.753 1317.72,828.781 1321.5,820.707 1325.09,812.536 1328.47,804.269 1331.65,795.911 1334.62,787.465 1337.37,778.934 1339.91,770.322 1342.23,761.632 1344.33,752.868 1346.2,744.034 1347.84,735.132 1349.26,726.168 1350.44,717.145 1351.39,708.066 1352.09,698.937 1352.55,689.76 1352.77,680.541 1352.75,671.283 1352.47,661.99 1351.94,652.668 1351.15,643.32 1350.11,633.95 1348.81,624.564 1347.24,615.166 1345.42,605.761 1343.33,596.352 1340.97,586.946 1338.34,577.546 1335.45,568.157 1332.29,558.785 1328.86,549.434 1325.16,540.109 1321.18,530.815 1316.94,521.557 1312.43,512.339 1307.66,503.168 1302.62,494.047 1297.31,484.981 1291.75,475.976 1285.93,467.036 1279.86,458.166 1273.53,449.371 1266.96,440.656 1260.16,432.024 1253.12,423.482 1245.85,415.032 1238.36,406.68 1230.65,398.43 1222.75,390.286 1214.64,382.252 1206.34,374.331 1197.86,366.529 1189.2,358.847 1180.38,351.291 1171.41,343.862 1162.29,336.565 1153.03,329.402 1143.65,322.376 1134.14,315.491 1124.53,308.748 1114.81,302.15 1105,295.7 1095.1,289.399 1085.12,283.25 1075.07,277.255 1064.96,271.415 1054.79,265.732 1044.57,260.208 1034.29,254.845 1023.98,249.643 1013.63,244.604 1003.24,239.73 992.823,235.021 982.377,230.48 971.907,226.106 961.413,221.901 950.899,217.867 940.365,214.004 929.815,210.313 919.248,206.795 908.666,203.452 898.07,200.283 887.461,197.291 876.839,194.476 866.207,191.838 855.564,189.38 844.911,187.101 834.25,185.003 823.582,183.086 812.907,181.351 802.227,179.8 791.544,178.433 780.859,177.25 770.174,176.253 759.491,175.443 748.811,174.819 738.138,174.383 727.473,174.135 716.819,174.075 706.179,174.206 695.555,174.525 684.951,175.036 674.37,175.737 663.814,176.628 653.288,177.712 642.794,178.986 632.337,180.452 621.92,182.11 611.546,183.96 601.22,186.002 590.945,188.235 580.725,190.659 570.565,193.275 560.467,196.081 550.437,199.078 540.478,202.265 530.594,205.641 520.79,209.206 511.069,212.959 501.436,216.9 491.895,221.027 482.449,225.339 473.103,229.837 463.861,234.517 454.727,239.381 445.705,244.425 436.8,249.649 428.014,255.051 419.352,260.631 410.818,266.386 402.417,272.314 394.15,278.415 386.024,284.687 378.041,291.127 370.204,297.733 362.519,304.504 354.988,311.438 347.616,318.532 340.405,325.785 333.359,333.194 326.482,340.756 319.778,348.469 313.248,356.331 306.898,364.34 300.729,372.492 294.746,380.784 288.951,389.215 283.348,397.781 277.939,406.48 272.728,415.308 267.716,424.262 262.908,433.34 258.306,442.538 253.912,451.852 249.73,461.281 245.76,470.82 242.007,480.465 238.473,490.215 235.159,500.064 232.067,510.01 229.201,520.049 226.562,530.177 224.152,540.391 221.973,550.686 220.027,561.059 218.314,571.507 216.838,582.025 215.6,592.609 214.6,603.255 213.841,613.96 213.324,624.719 213.049,635.528 213.018,646.384 213.232,657.281 213.692,668.216 214.398,679.184 215.352,690.182 216.553,701.204 218.003,712.247 219.701,723.306 221.649,734.377 223.845,745.456 226.292,756.538 228.987,767.618 231.932,778.692 235.126,789.757 238.569,800.806 242.261,811.836 246.2,822.843 250.387,833.821 254.82,844.767 259.5,855.675 264.424,866.541 269.592,877.362 275.004,888.131 280.657,898.845 286.55,909.499 292.683,920.089 299.053,930.61 305.659,941.058 312.499,951.428 319.571,961.715 326.874,971.916 334.405,982.025 342.163,992.039 350.145,1001.95 358.349,1011.76 366.772,1021.46 375.412,1031.05 384.266,1040.52 393.332,1049.87 402.607,1059.09 412.088,1068.19 421.772,1077.15 431.655,1085.97 441.736,1094.65 452.01,1103.18 462.474,1111.56 473.124,1119.79 483.958,1127.86 494.971,1135.76 506.16,1143.5 517.521,1151.07 529.051,1158.47 540.744,1165.69 552.598,1172.73 564.607,1179.59 576.769,1186.25 589.077,1192.73 601.53,1199.01 614.12,1205.1 626.845,1210.98 639.7,1216.66 652.68,1222.13 665.78,1227.39 678.995,1232.44 692.321,1237.27 705.753,1241.89 719.286,1246.28 732.914,1250.45 746.632,1254.39 760.436,1258.1 774.321,1261.58 788.28,1264.83 802.309,1267.84 816.401,1270.61 830.553,1273.14 844.758,1275.43 859.011,1277.47 873.305,1279.27 887.637,1280.83 901.999,1282.13 916.386,1283.18 930.793,1283.98 945.213,1284.52 959.642,1284.81 974.072,1284.85 988.498,1284.63 1002.92,1284.15 1017.32,1283.41 1031.7,1282.42 1046.05,1281.16 1060.37,1279.64 1074.64,1277.87 1088.88,1275.83 1103.06,1273.53 1117.18,1270.97 1131.24,1268.14 1145.23,1265.06 1159.15,1261.72 1172.98,1258.11 1186.72,1254.25 1200.37,1250.13 1213.91,1245.74 1227.35,1241.1 1240.68,1236.21 1253.89,1231.05 1266.97,1225.65 1279.92,1219.99 1292.73,1214.07 1305.39,1207.91 1317.9,1201.5 1330.26,1194.84 1342.45,1187.94 1354.47,1180.79 1366.31,1173.4 1377.96,1165.77 1389.43,1157.91 1400.69,1149.81 1411.75,1141.48 1422.59,1132.92 1433.21,1124.14 1443.61,1115.14 1453.76,1105.91 1463.67,1096.47 1473.32,1086.82 1482.71,1076.96 1491.82,1066.9 1500.65,1056.63 1509.18,1046.17 1517.41,1035.52 1525.31,1024.68 1532.87,1013.67 1540.09,1002.47 1546.93,991.108 1553.39,979.579 1559.45,967.893 1565.07,956.057 1570.24,944.076 1574.94,931.96 1579.12,919.716 1582.76,907.353 1585.83,894.881 1588.27,882.31 1590.05,869.651 1591.11,856.916 1591.4,844.118 1590.87,831.27 1589.44,818.388 1587.04,805.489 1583.6,792.589 1579.04,779.71 1573.26,766.87 1566.18,754.093 1557.71,741.403 1547.76,728.827 1536.23,716.391 1523.03,704.125 1508.11,692.06 1491.39,680.229 1472.84,668.664 1452.44,657.399 1430.2,646.469 1406.17,635.907 1380.43,625.746 1353.11,616.017 1324.38,606.748 1294.44,597.965 1263.54,589.688 1231.95,581.935 1199.95,574.718 1167.86,568.042 1135.97,561.91 1104.57,556.317 1073.93,551.255 1044.29,546.709 1015.85,542.662 988.767,539.093 963.163,535.98 939.114,533.296 916.661,531.015 895.81,529.111 876.535,527.556 858.79,526.325 842.508,525.391 827.608,524.731 814.001,524.322 801.594,524.143 790.289,524.175 779.993,524.398 770.612,524.798 762.059,525.358 754.251,526.067 747.111,526.911 740.568,527.88 734.559,528.965 729.024,530.157 723.912,531.448 719.177,532.833 714.775,534.304 710.671,535.856 706.833,537.486 703.232,539.188 699.842,540.959 696.644,542.796 693.617,544.696 690.745,546.655 688.015,548.673 685.415,550.746 682.934,552.872 680.562,555.051 678.294,557.279 676.122,559.556 674.04,561.88 672.045,564.249 670.133,566.662 668.3,569.119 666.544,571.617 664.862,574.157 663.254,576.735 661.717,579.352 660.251,582.006 658.854,584.696 657.527,587.421 656.268,590.18 655.078,592.972 653.956,595.796 652.902,598.651 651.916,601.535 650.999,604.447 650.15,607.387 649.371,610.354 648.66,613.345 648.018,616.361 647.446,619.399 646.944,622.459 646.512,625.54 646.15,628.64 645.859,631.758 645.639,634.893 645.49,638.045 645.413,641.21 645.408,644.39 645.474,647.581 645.613,650.784 645.825,653.996 646.109,657.216 646.465,660.444 646.895,663.678 647.398,666.916 647.973,670.158 648.622,673.402 649.343,676.647 650.138,679.891 651.006,683.134 651.947,686.373 652.96,689.608 654.047,692.837 655.206,696.059 656.437,699.273 657.741,702.477 659.116,705.67 660.564,708.851 662.082,712.018 663.672,715.17 665.333,718.306 667.063,721.424 668.864,724.523 670.734,727.602 672.673,730.659 674.681,733.694 676.757,736.704 678.9,739.689 681.109,742.647 683.385,745.577 685.727,748.478 688.133,751.348 690.603,754.186 693.137,756.99 695.733,759.761 698.391,762.496 701.111,765.193 703.89,767.853 706.728,770.474 709.625,773.053 712.58,775.591 715.591,778.087 718.657,780.538 721.778,782.943 724.952,785.303 728.179,787.614 731.457,789.878 734.785,792.091 738.162,794.254 741.587,796.364 745.059,798.422 748.576,800.426 752.137,802.375 755.742,804.268 759.388,806.103 763.075,807.881 766.8,809.6 770.564,811.26 774.364,812.858 778.198,814.395 782.067,815.87 785.967,817.281 789.899,818.629 793.859,819.911 797.848,821.128 801.862,822.278 805.902,823.362 809.965,824.377 814.049,825.324 818.154,826.202 822.277,827.011 826.418,827.748 830.573,828.415 834.743,829.011 838.924,829.535 843.117,829.986 847.318,830.364 851.526,830.669 855.74,830.9 859.958,831.057 864.178,831.139 868.399,831.147 872.618,831.08 876.835,830.937 881.047,830.718 885.252,830.424 889.45,830.054 893.638,829.608 897.814,829.085 901.978,828.486 906.126,827.811 910.258,827.059 914.371,826.231 918.464,825.326 922.535,824.345 926.583,823.288 930.605,822.155 934.601,820.946 938.567,819.661 942.503,818.3 946.407,816.865 950.277,815.354 954.112,813.769 957.909,812.109 961.667,810.376 965.385,808.569 969.06,806.689 972.692,804.736 976.277,802.712 979.816,800.615 983.306,798.448 986.745,796.211 990.132,793.903 993.466,791.527 996.745,789.082 999.966,786.57 1003.13,783.99 1006.23,781.345 1009.28,778.634 1012.26,775.859 1015.17,773.02 1018.02,770.118 1020.81,767.155 1023.52,764.13 1026.17,761.046 1028.74,757.903 1031.24,754.703 1033.67,751.445 1036.02,748.132 1038.3,744.764 1040.5,741.344 1042.62,737.871 1044.66,734.347 1046.62,730.773 1048.5,727.151 1050.29,723.481 1052,719.766 1053.63,716.006 1055.16,712.203 1056.62,708.357 1057.98,704.472 1059.25,700.547 1060.44,696.585 1061.53,692.587 1062.54,688.554 1063.45,684.487 1064.27,680.389 1064.99,676.261 1065.62,672.104 1066.16,667.92 1066.6,663.711 1066.94,659.478 1067.19,655.223 1067.34,650.947 1067.39,646.652 1067.35,642.34 1067.21,638.012 1066.97,633.67 1066.63,629.316 1066.19,624.951 1065.65,620.578 1065.02,616.198 1064.28,611.812 1063.45,607.422 1062.51,603.031 1061.48,598.639 1060.35,594.25 1059.12,589.863 1057.79,585.482 1056.36,581.108 1054.83,576.743 1053.21,572.388 1051.49,568.046 1049.67,563.717 1047.75,559.405 1045.74,555.11 1043.62,550.835 1041.42,546.581 1039.12,542.351 1036.72,538.145 1034.23,533.966 1031.65,529.815 1028.97,525.694 1026.21,521.605 1023.35,517.55 1020.4,513.53 1017.36,509.548 1014.24,505.604 1011.03,501.702 1007.73,497.841 1004.34,494.024 1000.87,490.254 997.32,486.53 993.686,482.856 989.971,479.232 986.176,475.661 982.302,472.143 978.351,468.681 974.324,465.277 970.223,461.931 966.048,458.645 961.802,455.421 957.485,452.261 953.099,449.165 948.645,446.135 944.126,443.174 939.542,440.281 934.895,437.459 930.187,434.709 925.419,432.033 920.593,429.431 915.712,426.905 910.775,424.456 905.786,422.086 900.745,419.795 895.656,417.586 890.519,415.459 885.336,413.415 880.11,411.456 874.842,409.582 869.534,407.795 864.188,406.096 858.806,404.485 853.39,402.964 847.942,401.534 842.464,400.195 836.958,398.948 831.426,397.795 825.87,396.736 820.293,395.772 814.696,394.903 809.081,394.131 803.452,393.456 797.809,392.878 792.155,392.399 786.493,392.018 780.823,391.737 775.15,391.556 769.474,391.475 763.799,391.495 758.126,391.615 752.457,391.838 746.795,392.162 741.143,392.588 735.502,393.116 729.875,393.747 724.263,394.48 718.67,395.317 713.098,396.255 707.548,397.297 702.024,398.441 696.527,399.688 691.06,401.038 685.624,402.49 680.224,404.045 674.859,405.701 669.534,407.46 664.25,409.32 659.009,411.281 653.814,413.342 648.667,415.504 643.571,417.766 638.526,420.128 633.536,422.588 628.604,425.146 623.73,427.802 618.917,430.555 614.168,433.404 609.484,436.348 604.868,439.387 600.321,442.52 595.847,445.745 591.446,449.063 587.122,452.471 582.875,455.97 578.709,459.557 574.624,463.232 570.623,466.994 566.708,470.842 562.881,474.774 559.144,478.788 555.498,482.885 551.946,487.062 548.488,491.319 545.128,495.653 541.866,500.064 538.704,504.549 535.644,509.108 532.688,513.738 529.837,518.439 527.093,523.209 524.457,528.045 521.931,532.947 519.516,537.912 517.213,542.94 515.025,548.027 512.952,553.173 510.995,558.375 509.156,563.632 507.436,568.942 505.837,574.303 504.359,579.712 503.003,585.169 501.77,590.67 500.662,596.214 499.679,601.799 498.823,607.423 498.093,613.083 497.492,618.778 497.019,624.506 496.675,630.263 496.461,636.049 496.378,641.861 496.426,647.696 496.605,653.552 496.917,659.428 497.361,665.32 497.938,671.227 498.648,677.146 499.491,683.075 500.468,689.012 501.579,694.954 502.823,700.898 504.201,706.843 505.713,712.787 507.359,718.726 509.138,724.658 511.051,730.581 513.096,736.493 515.275,742.39 517.586,748.272 520.029,754.135 522.604,759.976 525.31,765.794 528.147,771.586 531.114,777.349 534.21,783.082 537.434,788.781 540.787,794.445 544.266,800.07 547.871,805.655 551.602,811.197 555.456,816.694 559.434,822.142 563.534,827.541 567.754,832.888 572.094,838.18 576.552,843.414 581.128,848.589 585.819,853.703 590.624,858.752 595.542,863.735 600.571,868.649 605.71,873.493 610.956,878.263 616.31,882.959 621.767,887.576 627.328,892.115 632.989,896.571 638.75,900.944 644.608,905.231 650.561,909.43 656.607,913.538 662.745,917.555 668.971,921.478 675.285,925.305 681.683,929.034 688.164,932.664 694.725,936.191 701.364,939.616 708.078,942.935 714.866,946.148 721.724,949.251 728.651,952.245 735.643,955.126 742.698,957.895 749.814,960.548 756.988,963.084 764.218,965.502 771.499,967.801 778.831,969.979 786.21,972.035 793.633,973.967 801.098,975.774 808.601,977.456 816.141,979.01 823.713,980.436 831.315,981.732 838.944,982.898 846.598,983.933 854.272,984.836 861.965,985.605 869.672,986.24 877.392,986.74 885.121,987.105 892.855,987.334 900.592,987.426 908.329,987.38 916.062,987.196 923.789,986.875 931.506,986.414 939.209,985.814 946.897,985.075 954.566,984.196 962.211,983.177 969.832,982.019 977.423,980.72 984.982,979.281 992.506,977.702 999.991,975.983 1007.44,974.124 1014.83,972.126 1022.18,969.988 1029.48,967.712 1036.73,965.296 1043.92,962.743 1051.04,960.052 1058.1,957.224 1065.1,954.259 1072.03,951.159 1078.88,947.923 1085.65,944.553 1092.35,941.05 1098.96,937.414 1105.49,933.647 1111.92,929.749 1118.27,925.722 1124.52,921.566 1130.68,917.283 1136.73,912.875 1142.68,908.342 1148.52,903.685 1154.25,898.907 1159.87,894.009 1165.38,888.992 1170.76,883.859 1176.03,878.609 1181.17,873.246 1186.19,867.771 1191.07,862.186 1195.83,856.493 1200.45,850.693 1204.94,844.789 1209.28,838.783 1213.48,832.677 1217.54,826.472 1221.45,820.172 1225.22,813.778 1228.83,807.293 1232.29,800.719 1235.59,794.059 1238.73,787.314 1241.72,780.488 1244.54,773.583 1247.2,766.601 1249.69,759.545 1252.01,752.418 1254.16,745.223 1256.14,737.963 1257.95,730.639 1259.58,723.255 1261.04,715.815 1262.32,708.32 1263.41,700.774 1264.33,693.18 1265.06,685.54 1265.61,677.859 1265.98,670.139 1266.15,662.383 1266.14,654.594 1265.95,646.776 1265.56,638.932 1264.99,631.065 1264.22,623.178 1263.26,615.276 1262.12,607.36 1260.78,599.434 1259.25,591.503 1257.52,583.568 1255.61,575.634 1253.5,567.704 1251.21,559.782 1248.72,551.87 1246.04,543.973 1243.17,536.093 1240.11,528.235 1236.87,520.401 1233.44,512.595 1229.82,504.821 1226.02,497.081 1222.03,489.38 1217.87,481.721 1213.52,474.107 1209,466.541 1204.3,459.027 1199.43,451.567 1194.39,444.167 1189.17,436.828 1183.8,429.554 1178.25,422.347 1172.55,415.212 1166.69,408.152 1160.68,401.169 1154.51,394.266 1148.19,387.447 1141.73,380.714 1135.12,374.071 1128.37,367.52 1121.49,361.064 1114.47,354.706 1107.33,348.448 1100.05,342.294 1092.66,336.246 1085.14,330.306 1077.5,324.477 1069.76,318.762 1061.9,313.163 1053.93,307.683 1045.86,302.323 1037.69,297.087 1029.42,291.975 1021.05,286.992 1012.59,282.138 1004.04,277.416 995.41,272.829 986.693,268.377 977.896,264.063 969.02,259.89 960.07,255.858 951.048,251.97 941.956,248.228 932.798,244.634 923.577,241.188 914.294,237.894 904.953,234.752 895.557,231.765 886.109,228.933 876.611,226.258 867.066,223.743 857.478,221.387 847.849,219.193 838.182,217.163 828.481,215.296 818.747,213.595 808.986,212.061 799.199,210.695 789.39,209.497 779.562,208.47 769.719,207.614 759.864,206.929 750.001,206.418 740.132,206.08 730.262,205.916 720.394,205.928 710.531,206.115 700.678,206.479 690.838,207.019 681.014,207.736 671.212,208.631 661.433,209.705 651.682,210.956 641.964,212.385 632.281,213.993 622.638,215.78 613.038,217.745 603.486,219.888 593.985,222.21 584.54,224.709 575.154,227.387 565.83,230.241 556.574,233.272 547.389,236.48 538.279,239.864 529.248,243.422 520.299,247.155 511.436,251.061 502.665,255.141 493.987,259.391 485.407,263.813 476.93,268.404 468.558,273.163 460.295,278.09 452.146,283.182 444.113,288.439 436.201,293.859 428.413,299.441 420.753,305.182 413.224,311.082 405.83,317.138 398.574,323.349 391.46,329.712 384.491,336.227 377.671,342.89 371.003,349.7 364.49,356.655 358.135,363.753 351.941,370.99 345.913,378.365 340.052,385.876 334.362,393.52 328.845,401.294 323.506,409.196 318.345,417.223 313.367,425.372 308.574,433.641 303.968,442.027 299.553,450.527 295.33,459.138 291.302,467.857 287.472,476.68 283.842,485.606 280.414,494.63 277.19,503.749 274.173,512.961 271.364,522.261 268.766,531.647 266.379,541.115 264.207,550.661 262.251,560.283 260.512,569.976 258.992,579.736 257.693,589.561 256.615,599.447 255.761,609.389 255.131,619.384 254.727,629.429 254.549,639.519 254.599,649.651 254.878,659.82 255.386,670.023 256.124,680.256 257.092,690.515 258.292,700.795 259.723,711.093 261.387,721.406 263.282,731.727 265.41,742.054 267.77,752.383 270.363,762.709 273.188,773.028 276.245,783.336 279.535,793.629 283.055,803.903 286.807,814.153 290.788,824.375 295,834.565 299.44,844.72 304.109,854.833 309.004,864.902 314.126,874.923 319.473,884.89 325.043,894.8 330.835,904.648 336.848,914.431 343.081,924.145 349.531,933.784 356.197,943.345 363.078,952.823 370.17,962.216 377.473,971.518 384.984,980.725 392.702,989.833 400.622,998.839 408.744,1007.74 417.066,1016.53 425.583,1025.2 434.294,1033.76 443.196,1042.19 452.286,1050.49 461.562,1058.67 471.02,1066.71 480.657,1074.62 490.47,1082.38 500.456,1090 510.611,1097.47 520.933,1104.78 531.417,1111.94 542.061,1118.94 552.859,1125.78 563.81,1132.45 574.908,1138.96 586.151,1145.29 597.533,1151.44 609.052,1157.41 620.703,1163.21 632.481,1168.81 644.383,1174.23 656.405,1179.46 668.541,1184.49 680.788,1189.33 693.141,1193.96 705.595,1198.4 718.147,1202.63 730.791,1206.65 743.522,1210.46 756.336,1214.06 769.227,1217.45 782.192,1220.61 795.225,1223.56 808.321,1226.29 821.475,1228.8 834.682,1231.08 847.937,1233.14 861.234,1234.97 874.569,1236.56 887.936,1237.93 901.33,1239.06 914.746,1239.96 928.178,1240.63 941.621,1241.05 955.069,1241.24 968.517,1241.19 981.96,1240.91 995.392,1240.38 1008.81,1239.61 1022.2,1238.59 1035.57,1237.34 1048.9,1235.84 1062.19,1234.1 1075.44,1232.12 1088.64,1229.89 1101.79,1227.42 1114.87,1224.71 1127.88,1221.75 1140.83,1218.55 1153.69,1215.11 1166.47,1211.43 1179.16,1207.5 1191.76,1203.33 1204.25,1198.93 1216.63,1194.28 1228.91,1189.4 1241.06,1184.27 1253.09,1178.92 1264.99,1173.33 1276.75,1167.5 1288.37,1161.44 1299.84,1155.16 1311.16,1148.64 1322.32,1141.9 1333.31,1134.94 1344.13,1127.75 1354.78,1120.35 1365.23,1112.72 1375.5,1104.88 1385.57,1096.83 1395.43,1088.57 1405.09,1080.1 1414.52,1071.43 1423.73,1062.56 1432.71,1053.49 1441.45,1044.22 1449.95,1034.77 1458.19,1025.12 1466.16,1015.3 1473.86,1005.29 1481.28,995.116 1488.4,984.767 1495.22,974.252 1501.73,963.577 1507.91,952.746 1513.75,941.764 1519.24,930.637 1524.36,919.372 1529.09,907.973 1533.41,896.449 1537.32,884.804 1540.77,873.048 1543.76,861.187 1546.25,849.23 1548.23,837.185 1549.65,825.061 1550.48,812.869 1550.69,800.618 1550.24,788.32 1549.09,775.988 1547.2,763.632 1544.51,751.268 1540.98,738.91 1536.54,726.573 1531.16,714.274 1524.77,702.031 1517.32,689.861 1508.75,677.785 1499,665.824 1488.04,653.999 1475.81,642.334 1462.29,630.85 1447.44,619.573 1431.26,608.527 1413.76,597.737 1394.96,587.227 1374.9,577.02 1353.64,567.141 1331.29,557.61 1307.94,548.449 1283.74,539.674 1258.82,531.301 1233.37,523.344 1207.56,515.811 1181.57,508.709 1155.59,502.042 1129.81,495.81 1104.4,490.008 1079.53,484.631 1055.32,479.669 1031.92,475.112 1009.41,470.945 987.867,467.154 967.356,463.722 947.905,460.632 929.526,457.867 912.213,455.408 895.948,453.238 880.696,451.34 866.416,449.698 853.059,448.294 840.569,447.116 828.889,446.147 817.961,445.376 807.725,444.79 798.125,444.378 789.103,444.13 780.609,444.037 772.592,444.091 765.005,444.284 757.807,444.609 750.959,445.06 744.424,445.633 738.171,446.321 732.17,447.121 726.397,448.029 720.828,449.042 715.443,450.156 710.224,451.37 705.156,452.679 700.224,454.083 695.418,455.579 690.727,457.166 686.142,458.841 681.656,460.604 677.262,462.454 672.957,464.388 668.734,466.405 664.591,468.506 660.524,470.687 656.532,472.949 652.613,475.291 648.766,477.711 644.989,480.209 641.283,482.784 637.646,485.434 634.08,488.159 630.584,490.958 627.158,493.829 623.804,496.772 620.522,499.787 617.314,502.871 614.178,506.024 611.118,509.245 608.134,512.532 605.226,515.885 602.397,519.303 599.647,522.784 596.977,526.327 594.389,529.931 591.884,533.595 589.463,537.318 587.127,541.098 584.877,544.934 582.715,548.824 580.642,552.768 578.658,556.764 576.765,560.81 574.965,564.905 573.257,569.048 571.643,573.237 570.124,577.471 568.701,581.748 567.375,586.067 566.147,590.425 565.018,594.822 563.988,599.256 563.058,603.726 562.23,608.228 561.503,612.763 560.879,617.328 560.358,621.921 559.941,626.541 559.628,631.186 559.42,635.855 559.317,640.545 559.32,645.254 559.429,649.982 559.645,654.725 559.968,659.483 560.398,664.253 560.936,669.033 561.582,673.823 562.335,678.619 563.196,683.419 564.165,688.223 565.243,693.028 566.429,697.832 567.722,702.633 569.124,707.429 570.634,712.219 572.251,717 573.976,721.77 575.807,726.528 577.746,731.271 579.792,735.998 581.943,740.707 584.2,745.395 586.562,750.06 589.029,754.702 591.601,759.317 594.275,763.904 597.053,768.461 599.932,772.986 602.913,777.476 605.994,781.931 609.176,786.348 612.456,790.725 615.834,795.06 619.309,799.352 622.879,803.598 626.545,807.797 630.305,811.946 634.157,816.044 638.101,820.09 642.135,824.08 646.258,828.014 650.469,831.89 654.766,835.705 659.148,839.458 663.614,843.148 668.161,846.772 672.79,850.329 677.497,853.817 682.282,857.234 687.143,860.58 692.078,863.851 697.085,867.047 702.164,870.167 707.311,873.207 712.526,876.168 717.806,879.047 723.15,881.843 728.555,884.554 734.02,887.18 739.543,889.718 745.121,892.168 750.754,894.527 756.438,896.796 762.172,898.971 767.953,901.053 773.78,903.04 779.649,904.931 785.56,906.725 791.51,908.42 797.496,910.015 803.517,911.51 809.57,912.904 815.652,914.195 821.762,915.383 827.897,916.467 834.054,917.445 840.232,918.318 846.427,919.084 852.638,919.742 858.862,920.293 865.097,920.734 871.34,921.067 877.588,921.289 883.839,921.401 890.091,921.403 896.341,921.293 902.586,921.071 908.824,920.737 915.053,920.291 921.27,919.733 927.471,919.061 933.656,918.277 939.821,917.379 945.963,916.369 952.081,915.245 958.17,914.008 964.23,912.658 970.257,911.194 976.249,909.618 982.203,907.93 988.116,906.129 993.986,904.215 999.811,902.19 1005.59,900.054 1011.31,897.806 1016.99,895.449 1022.6,892.981 1028.16,890.403 1033.66,887.717 1039.1,884.923 1044.47,882.022 1049.77,879.013 1055,875.899 1060.16,872.681 1065.24,869.357 1070.24,865.931 1075.17,862.403 1080.01,858.774 1084.77,855.044 1089.44,851.216 1094.02,847.29 1098.51,843.267 1102.9,839.15 1107.2,834.938 1111.4,830.634 1115.5,826.239 1119.5,821.754 1123.4,817.18 1127.19,812.52 1130.86,807.775 1134.43,802.946 1137.89,798.036 1141.23,793.045 1144.46,787.975 1147.57,782.829 1150.55,777.608 1153.42,772.314 1156.16,766.949 1158.78,761.515 1161.28,756.013 1163.64,750.446 1165.88,744.816 1167.98,739.124 1169.95,733.374 1171.79,727.566 1173.49,721.704 1175.06,715.789 1176.49,709.824 1177.78,703.81 1178.93,697.751 1179.94,691.648 1180.81,685.504 1181.54,679.321 1182.12,673.102 1182.56,666.848 1182.85,660.563 1183,654.249 1183,647.909 1182.86,641.544 1182.56,635.157 1182.12,628.752 1181.53,622.33 1180.8,615.894 1179.91,609.447 1178.88,602.991 1177.7,596.528 1176.36,590.063 1174.88,583.596 1173.25,577.131 1171.48,570.671 1169.55,564.217 1167.48,557.774 1165.26,551.343 1162.89,544.926 1160.38,538.528 1157.72,532.15 1154.92,525.795 1151.97,519.466 1148.88,513.165 1145.65,506.895 1142.27,500.659 1138.76,494.459 1135.11,488.298 1131.32,482.179 1127.39,476.103 1123.33,470.075 1119.13,464.096 1114.8,458.169 1110.35,452.296 1105.76,446.481 1101.04,440.725 1096.2,435.03 1091.23,429.401 1086.14,423.838 1080.93,418.345 1075.6,412.924 1070.16,407.577 1064.6,402.306 1058.92,397.114 1053.14,392.004 1047.24,386.977 1041.24,382.035 1035.13,377.182 1028.92,372.419 1022.61,367.749 1016.2,363.173 1009.69,358.693 1003.09,354.312 996.403,350.032 989.621,345.855 982.753,341.783 975.799,337.817 968.763,333.96 961.647,330.214 954.453,326.58 947.184,323.06 939.843,319.656 932.431,316.37 924.951,313.203 917.407,310.157 909.8,307.234 902.133,304.436 894.409,301.763 886.631,299.217 878.8,296.8 870.921,294.513 862.996,292.358 855.027,290.336 847.018,288.447 838.971,286.695 830.889,285.078 822.775,283.6 814.633,282.26 806.464,281.06 798.273,280.001 790.062,279.084 781.834,278.309 773.593,277.678 765.34,277.191 757.081,276.85 748.817,276.654 740.552,276.604 732.289,276.701 724.032,276.946 715.783,277.339 707.546,277.88 699.324,278.57 691.12,279.409 682.938,280.397 674.782,281.534 666.653,282.821 658.556,284.258 650.493,285.844 642.469,287.58 634.487,289.465 626.549,291.5 618.66,293.683 610.822,296.016 603.039,298.496 595.314,301.125 587.65,303.902 580.051,306.825 572.52,309.895 565.06,313.11 557.675,316.471 550.368,319.976 543.141,323.624 535.998,327.415 528.943,331.348 521.979,335.421 515.108,339.633 508.333,343.984 501.659,348.472 495.087,353.096 488.621,357.855 482.264,362.747 476.02,367.77 469.889,372.924 463.877,378.207 457.985,383.617 452.217,389.152 446.575,394.811 441.062,400.593 435.68,406.494 430.433,412.514 425.323,418.649 420.353,424.9 415.524,431.262 410.841,437.735 406.304,444.316 401.917,451.002 397.682,457.793 393.601,464.684 389.676,471.674 385.91,478.761 382.304,485.942 378.862,493.214 375.584,500.576 372.473,508.024 369.531,515.555 366.759,523.168 364.159,530.858 361.734,538.625 359.484,546.464 357.412,554.373 355.519,562.349 353.806,570.39 352.274,578.491 350.926,586.65 349.762,594.865 348.784,603.131 347.992,611.447 347.388,619.808 346.973,628.211 346.747,636.654 346.712,645.134 346.868,653.646 347.216,662.188 347.757,670.756 348.491,679.347 349.419,687.958 350.54,696.585 351.856,705.225 353.366,713.874 355.071,722.529 356.971,731.188 359.066,739.845 361.356,748.498 363.84,757.143 366.519,765.776 369.392,774.395 372.459,782.996 375.719,791.574 379.171,800.128 382.816,808.652 386.653,817.144 390.68,825.6 394.896,834.017 399.302,842.39 403.896,850.717 408.676,858.994 413.642,867.217 418.793,875.383 424.126,883.489 429.641,891.53 435.336,899.504 441.21,907.407 447.26,915.235 453.486,922.986 459.885,930.655 466.456,938.239 473.196,945.735 480.104,953.14 487.177,960.45 494.414,967.662 501.811,974.773 509.367,981.779 517.08,988.677 524.946,995.464 532.963,1002.14 541.129,1008.69 549.442,1015.13 557.897,1021.44 566.492,1027.62 575.225,1033.68 584.093,1039.6 593.092,1045.39 602.22,1051.04 611.472,1056.55 620.847,1061.91 630.341,1067.13 639.95,1072.2 649.671,1077.12 659.5,1081.88 669.434,1086.49 679.47,1090.94 689.604,1095.22 699.832,1099.34 710.15,1103.3 720.555,1107.08 731.043,1110.7 741.609,1114.14 752.25,1117.41 762.963,1120.5 773.742,1123.41 784.584,1126.14 795.485,1128.69 806.44,1131.05 817.445,1133.23 828.497,1135.22 839.59,1137.02 850.721,1138.63 861.886,1140.05 873.078,1141.27 884.296,1142.3 895.533,1143.14 906.786,1143.77 918.049,1144.21 929.319,1144.45 940.591,1144.49 951.86,1144.33 963.122,1143.97 974.372,1143.41 985.606,1142.64 996.819,1141.68 1008.01,1140.51 1019.16,1139.13 1030.28,1137.55 1041.36,1135.77 1052.4,1133.78 1063.39,1131.59 1074.32,1129.2 1085.2,1126.6 1096.01,1123.8 1106.75,1120.79 1117.42,1117.58 1128.01,1114.17 1138.52,1110.56 1148.95,1106.75 1159.28,1102.74 1169.51,1098.52 1179.65,1094.11 1189.67,1089.51 1199.59,1084.7 1209.39,1079.71 1219.07,1074.51 1228.63,1069.13 1238.06,1063.56 1247.35,1057.79 1256.5,1051.84 1265.51,1045.71 1274.37,1039.39 1283.08,1032.89 1291.63,1026.2 1300.02,1019.35 1308.24,1012.31 1316.29,1005.1 1324.16,997.726 1331.85,990.18 1339.36,982.469 1346.67,974.595 1353.79,966.56 1360.7,958.369 1367.41,950.024 1373.91,941.527 1380.19,932.883 1386.25,924.094 1392.08,915.164 1397.68,906.096 1403.04,896.895 1408.16,887.563 1413.03,878.105 1417.65,868.524 1422,858.826 1426.08,849.013 1429.89,839.091 1433.42,829.064 1436.66,818.936 1439.6,808.712 1442.24,798.398 1444.57,787.999 1446.57,777.519 1448.25,766.964 1449.59,756.34 1450.58,745.653 1451.22,734.908 1451.48,724.112 1451.37,713.272 1450.87,702.394 1449.96,691.484 1448.65,680.551 1446.9,669.601 1444.73,658.642 1442.1,647.682 1439.01,636.728 1435.44,625.79 1431.39,614.876 1426.84,603.995 1421.79,593.156 1416.21,582.368 1410.1,571.64 1403.46,560.984 1396.28,550.407 1388.55,539.921 1380.26,529.535 1371.43,519.26 1362.06,509.107 1352.14,499.084 1341.69,489.202 1330.72,479.471 1319.26,469.901 1307.31,460.502 1294.9,451.281 1282.06,442.248 1268.83,433.412 1255.23,424.778 1241.31,416.355 1227.1,408.149 1212.65,400.166 1198.01,392.409 1183.2,384.883 1168.3,377.592 1153.32,370.538 1138.33,363.722 1123.36,357.146 1108.45,350.809 1093.64,344.712 1078.96,338.852 1064.45,333.23 1050.12,327.841 1036,322.685 1022.11,317.756 1008.46,313.054 995.064,308.573 981.929,304.311 969.058,300.263 956.45,296.425 944.104,292.795 932.014,289.367 920.174,286.139 908.576,283.106 897.21,280.266 886.064,277.614 875.127,275.149 864.387,272.867 853.832,270.765 843.449,268.841 833.227,267.093 823.152,265.518 813.215,264.115 803.405,262.883 793.71,261.819 784.123,260.923 774.634,260.192 765.236,259.627 755.921,259.226 746.684,258.989 737.519,258.915 728.421,259.003 719.386,259.253 710.412,259.664 701.495,260.236 692.633,260.968 683.825,261.861 675.071,262.914 666.369,264.126 657.72,265.498 649.125,267.028 640.583,268.718 632.096,270.566 623.666,272.571 615.294,274.735 606.983,277.055 598.733,279.533 590.549,282.166 582.431,284.956 574.384,287.9 566.408,290.999 558.508,294.251 550.686,297.657 542.946,301.215 535.289,304.924 527.72,308.783 520.24,312.792 512.854,316.95 505.565,321.254 498.375,325.705 491.288,330.301 484.307,335.041 477.435,339.922 470.675,344.945 464.031,350.107 457.504,355.408 451.099,360.844 444.818,366.415 438.664,372.12 432.641,377.955 426.75,383.92 420.996,390.013 415.38,396.231 409.906,402.573 404.577,409.037 399.394,415.62 394.361,422.32 389.481,429.136 384.755,436.064 380.187,443.103 375.778,450.25 371.532,457.502 367.45,464.858 363.536,472.315 359.79,479.87 356.215,487.52 352.814,495.263 349.588,503.095 346.54,511.016 343.671,519.02 340.984,527.106 338.479,535.271 336.159,543.512 334.025,551.825 332.079,560.208 330.323,568.657 328.758,577.17 327.385,585.743 326.206,594.373 325.222,603.057 324.434,611.791 323.843,620.573 323.45,629.399 323.257,638.265 323.263,647.169 323.471,656.106 323.88,665.074 324.491,674.069 325.305,683.087 326.322,692.125 327.542,701.179 328.967,710.246 330.596,719.322 332.429,728.403 334.466,737.487 336.708,746.568 339.155,755.645 341.805,764.712 344.66,773.767 347.718,782.806 350.979,791.824 354.443,800.819 358.109,809.786 361.976,818.722 366.045,827.624 370.313,836.487 374.78,845.307 379.445,854.082 384.306,862.807 389.364,871.478 394.616,880.093 400.061,888.647 405.698,897.136 411.525,905.558 417.54,913.908 423.743,922.182 430.131,930.378 436.702,938.491 443.455,946.518 450.387,954.455 457.497,962.299 464.782,970.047 472.24,977.694 479.869,985.237 487.666,992.674 495.629,1000 503.756,1007.21 512.043,1014.31 520.489,1021.28 529.09,1028.13 537.843,1034.85 546.746,1041.45 555.796,1047.91 564.989,1054.23 574.322,1060.41 583.793,1066.46 593.398,1072.35 603.134,1078.1 612.997,1083.69 622.983,1089.13 633.091,1094.42 643.314,1099.54 653.651,1104.5 664.097,1109.3 674.649,1113.93 685.303,1118.39 696.055,1122.67 706.9,1126.78 717.836,1130.72 728.857,1134.47 739.961,1138.04 751.142,1141.43 762.396,1144.63 773.72,1147.65 785.109,1150.47 796.558,1153.1 808.064,1155.54 819.622,1157.78 831.227,1159.82 842.875,1161.67 854.561,1163.32 866.281,1164.76 878.03,1166 889.804,1167.04 901.598,1167.87 913.407,1168.49 925.226,1168.9 937.051,1169.11 948.877,1169.11 960.699,1168.9 972.513,1168.47 984.313,1167.83 996.095,1166.98 1007.85,1165.92 1019.58,1164.65 1031.28,1163.16 1042.94,1161.45 1054.56,1159.54 1066.12,1157.41 1077.64,1155.06 1089.1,1152.5 1100.49,1149.73 1111.82,1146.74 1123.07,1143.54 1134.25,1140.13 1145.35,1136.51 1156.35,1132.67 1167.27,1128.63 1178.08,1124.37 1188.8,1119.91 1199.4,1115.23 1209.89,1110.36 1220.27,1105.27 1230.52,1099.99 1240.65,1094.49 1250.64,1088.8 1260.5,1082.91 1270.21,1076.82 1279.78,1070.54 1289.19,1064.06 1298.44,1057.39 1307.53,1050.53 1316.46,1043.48 1325.21,1036.24 1333.78,1028.83 1342.17,1021.23 1350.37,1013.45 1358.38,1005.5 1366.19,997.372 1373.79,989.077 1381.18,980.615 1388.36,971.99 1395.32,963.205 1402.05,954.262 1408.54,945.166 1414.8,935.919 1420.81,926.527 1426.57,916.992 1432.06,907.318 1437.3,897.511 1442.26,887.573 1446.94,877.509 1451.33,867.325 1455.42,857.024 1459.21,846.612 1462.68,836.093 1465.83,825.473 1468.64,814.758 1471.1,803.952 1473.21,793.063 1474.95,782.095 1476.31,771.056 1477.27,759.952 1477.83,748.791 1477.96,737.578 1477.64,726.322 1476.88,715.03 1475.64,703.711 1473.9,692.373 1471.66,681.025 1468.89,669.676 1465.57,658.336 1461.69,647.014 1457.22,635.722 1452.14,624.469 1446.44,613.267 1440.1,602.127 1433.1,591.061 1425.43,580.081 1417.08,569.2 1408.04,558.431 1398.31,547.785 1387.87,537.276 1376.74,526.917 1364.92,516.721 1352.44,506.7 1339.29,496.867 1325.53,487.235 1311.16,477.814 1296.25,468.616 1280.82,459.652 1264.94,450.931 1248.65,442.461 1232.02,434.25 1215.11,426.305 1197.99,418.631 1180.73,411.233 1163.4,404.113 1146.05,397.273 1128.77,390.715 1111.6,384.437 1094.61,378.438 1077.85,372.715 1061.36,367.265 1045.19,362.085 1029.37,357.168 1013.92,352.511 998.867,348.106 984.221,343.948 969.992,340.03 956.182,336.346 942.788,332.89 929.804,329.655 917.22,326.634 905.021,323.822 893.193,321.212 881.717,318.8 870.575,316.579 859.747,314.545 849.213,312.692 838.952,311.018 828.946,309.517 819.173,308.186 809.617,307.022 800.258,306.021 791.081,305.182 782.07,304.501 773.21,303.977 764.489,303.606 755.894,303.389 747.414,303.323 739.041,303.406 730.765,303.638 722.58,304.017 714.478,304.543 706.453,305.215 698.503,306.031 690.622,306.992 682.808,308.096 675.058,309.343 667.37,310.733 659.744,312.264 652.179,313.937 644.674,315.751 637.23,317.705 629.848,319.799 622.527,322.033 615.27,324.405 608.078,326.915 600.952,329.562 593.895,332.347 586.908,335.268 579.993,338.324 573.154,341.515 566.391,344.84 559.708,348.298 553.107,351.888 546.591,355.609 540.161,359.46 533.822,363.44 527.575,367.549 521.424,371.784 515.37,376.145 509.416,380.63 503.566,385.239 497.821,389.969 492.185,394.819 486.66,399.788 481.249,404.875 475.954,410.077 470.778,415.393 465.723,420.822 460.791,426.361 455.986,432.009 451.31,437.764 446.764,443.625 442.352,449.588 438.075,455.653 433.936,461.818 429.938,468.079 426.081,474.435 422.369,480.884 418.803,487.424 415.385,494.052 412.118,500.767 409.003,507.565 406.042,514.444 403.236,521.402 400.589,528.437 398.101,535.546 395.773,542.726 393.608,549.975 391.607,557.289 389.772,564.668 388.103,572.107 386.603,579.604 385.272,587.157 384.112,594.762 383.123,602.416 382.308,610.117 381.666,617.863 381.199,625.649 380.908,633.473 380.794,641.331 380.856,649.222 381.097,657.142 381.516,665.088 382.115,673.056 382.893,681.045 383.851,689.049 384.989,697.068 386.308,705.096 387.808,713.132 389.488,721.171 391.35,729.211 393.392,737.249 395.616,745.28 398.02,753.303 400.604,761.314 403.369,769.309 406.313,777.285 409.437,785.239 412.739,793.168 416.219,801.069 419.877,808.937 423.711,816.77 427.721,824.565 431.906,832.318 436.265,840.026 440.797,847.686 445.501,855.294 450.375,862.848 455.418,870.343 460.63,877.778 466.008,885.147 471.55,892.45 477.257,899.681 483.125,906.838 489.153,913.918 495.339,920.917 501.682,927.834 508.179,934.663 514.829,941.403 521.63,948.05 528.578,954.601 535.673,961.054 542.912,967.405 550.292,973.651 557.812,979.789 565.468,985.817 573.258,991.732 581.18,997.53 589.231,1003.21 597.408,1008.77 605.708,1014.2 614.129,1019.51 622.668,1024.68 631.321,1029.73 640.086,1034.64 648.959,1039.41 657.938,1044.04 667.019,1048.53 676.2,1052.88 685.476,1057.08 694.844,1061.13 704.301,1065.02 713.844,1068.77 723.469,1072.36 733.173,1075.79 742.951,1079.06 752.801,1082.17 762.718,1085.12 772.699,1087.9 782.74,1090.51 792.837,1092.96 802.987,1095.23 813.185,1097.33 823.428,1099.26 833.712,1101.02 844.032,1102.59 854.385,1103.99 864.766,1105.21 875.172,1106.25 885.599,1107.11 896.041,1107.79 906.496,1108.28 916.959,1108.59 927.425,1108.72 937.891,1108.66 948.353,1108.41 958.805,1107.97 969.244,1107.35 979.665,1106.54 990.064,1105.54 1000.44,1104.35 1010.78,1102.97 1021.09,1101.41 1031.36,1099.65 1041.58,1097.7 1051.76,1095.57 1061.88,1093.24 1071.95,1090.73 1081.96,1088.03 1091.9,1085.13 1101.77,1082.05 1111.57,1078.79 1121.28,1075.33 1130.92,1071.69 1140.47,1067.87 1149.92,1063.86 1159.28,1059.67 1168.54,1055.29 1177.7,1050.73 1186.75,1046 1195.68,1041.08 1204.49,1035.98 1213.19,1030.71 1221.75,1025.27 1230.19,1019.65 1238.49,1013.86 1246.65,1007.9 1254.67,1001.77 1262.55,995.478 1270.27,989.02 1277.83,982.4 1285.23,975.62 1292.47,968.683 1299.54,961.59 1306.44,954.345 1313.16,946.949 1319.7,939.406 1326.06,931.717 1332.22,923.887 1338.19,915.917 1343.97,907.81 1349.54,899.57 1354.9,891.2 1360.05,882.702 1364.99,874.081 1369.7,865.339 1374.2,856.48 1378.46,847.507 1382.49,838.425 1386.28,829.237 1389.82,819.946 1393.12,810.558 1396.17,801.075 1398.96,791.502 1401.49,781.844 1403.74,772.104 1405.73,762.288 1407.44,752.399 1408.86,742.443 1409.99,732.424 1410.82,722.347 1411.36,712.218 1411.58,702.042 1411.5,691.823 1411.09,681.568 1410.35,671.282 1409.29,660.971 1407.88,650.64 1406.14,640.296 1404.04,629.945 1401.58,619.593 1398.76,609.246 1395.57,598.911 1392.01,588.595 1388.07,578.305 1383.75,568.047 1379.04,557.827 1373.94,547.655 1368.45,537.536 1362.57,527.477 1356.29,517.487 1349.62,507.571 1342.56,497.738 1335.11,487.995 1327.28,478.349 1319.07,468.808 1310.49,459.377 1301.55,450.065 1292.26,440.877 1282.63,431.821 1272.68,422.904 1262.43,414.13 1251.89,405.506 1241.08,397.038 1230.02,388.731 1218.73,380.589 1207.23,372.618 1195.55,364.821 1183.71,357.202 1171.74,349.764 1159.65,342.512 1147.47,335.446 1135.22,328.569 1122.92,321.883 1110.6,315.39 1098.28,309.09 1085.96,302.984 1073.67,297.073 1061.43,291.357 1049.24,285.835 1037.12,280.508 1025.07,275.374 1013.11,270.434 1001.24,265.685 989.466,261.129 977.791,256.763 966.216,252.586 954.743,248.598 943.37,244.797 932.096,241.183 920.918,237.754 909.834,234.509 898.839,231.448 887.93,228.57 877.102,225.873 866.35,223.358 855.671,221.024 845.059,218.87 834.51,216.895 824.02,215.1 813.585,213.484 803.2,212.047 792.863,210.789 782.571,209.709 772.321,208.808 762.11,208.085 751.937,207.541 741.801,207.176 731.701,206.989 721.636,206.981 711.606,207.152 701.61,207.502 691.651,208.03 681.729,208.738 671.844,209.626 661.999,210.692 652.195,211.938 642.434,213.362 632.719,214.966 623.052,216.749 613.436,218.711 603.873,220.851 594.367,223.17 584.921,225.666 575.538,228.34 566.22,231.192 556.973,234.22 547.799,237.424 538.701,240.804 529.683,244.359 520.75,248.088 511.904,251.99 503.149,256.064 494.489,260.31 485.927,264.726 477.468,269.311 469.115,274.064 460.871,278.984 452.741,284.07 444.727,289.32 436.834,294.732 429.065,300.306 421.424,306.039 413.914,311.93 406.538,317.977 399.301,324.178 392.206,330.532 385.255,337.036 378.453,343.689 371.802,350.489 365.307,357.432 358.969,364.518 352.793,371.744 346.781,379.107 340.937,386.605 335.263,394.235 329.762,401.996 324.438,409.884 319.293,417.897 314.33,426.032 309.551,434.287 304.96,442.658 300.558,451.142 296.349,459.738 292.335,468.441 288.518,477.248 284.9,486.157 281.484,495.165 278.272,504.267 275.267,513.461 272.469,522.744 269.881,532.112 267.505,541.562 265.343,551.09 263.396,560.693 261.666,570.367 260.155,580.108 258.863,589.914 257.794,599.78 256.947,609.703 256.324,619.678 255.926,629.703 255.754,639.772 255.809,649.883 256.093,660.032 256.605,670.214 257.347,680.426 258.319,690.664 259.522,700.923 260.956,711.2 262.622,721.491 264.519,731.791 266.648,742.096 269.009,752.403 271.602,762.707 274.427,773.004 277.483,783.29 280.771,793.561 284.289,803.812 288.039,814.04 292.018,824.24 296.226,834.407 300.662,844.539 305.327,854.63 310.217,864.677 315.334,874.675 320.674,884.62 326.238,894.507 332.023,904.333 338.029,914.094 344.254,923.785 350.696,933.402 357.353,942.941 364.224,952.397 371.307,961.767 378.6,971.047 386.1,980.233 393.806,989.319 401.715,998.304 409.824,1007.18 418.133,1015.95 426.637,1024.6 435.334,1033.13 444.222,1041.55 453.298,1049.83 462.558,1057.99 472,1066.01 481.621,1073.89 491.418,1081.64 501.387,1089.23 511.525,1096.68 521.829,1103.98 532.295,1111.12 542.919,1118.1 553.699,1124.92 564.63,1131.58 575.708,1138.06 586.93,1144.37 598.292,1150.51 609.79,1156.47 621.419,1162.24 633.175,1167.83 645.055,1173.24 657.054,1178.45 669.167,1183.46 681.391,1188.29 693.72,1192.91 706.151,1197.33 718.678,1201.54 731.297,1205.55 744.003,1209.35 756.792,1212.94 769.658,1216.31 782.597,1219.47 795.604,1222.4 808.674,1225.12 821.801,1227.62 834.981,1229.89 848.209,1231.94 861.48,1233.75 874.787,1235.34 888.127,1236.7 901.493,1237.83 914.881,1238.72 928.285,1239.37 941.699,1239.8 955.119,1239.98 968.539,1239.92 981.953,1239.63 995.356,1239.1 1008.74,1238.32 1022.11,1237.31 1035.44,1236.05 1048.75,1234.55 1062.01,1232.81 1075.23,1230.82 1088.4,1228.59 1101.52,1226.12 1114.57,1223.41 1127.56,1220.45 1140.47,1217.25 1153.31,1213.81 1166.06,1210.13 1178.72,1206.21 1191.28,1202.04 1203.75,1197.64 1216.1,1193 1228.35,1188.12 1240.47,1183 1252.47,1177.65 1264.34,1172.06 1276.08,1166.25 1287.67,1160.2 1299.12,1153.92 1310.41,1147.41 1321.54,1140.68 1332.5,1133.73 1343.3,1126.55 1353.91,1119.15 1364.34,1111.54 1374.58,1103.71 1384.63,1095.67 1394.47,1087.42 1404.1,1078.97 1413.51,1070.31 1422.7,1061.45 1431.65,1052.39 1440.37,1043.14 1448.84,1033.7 1457.06,1024.08 1465.01,1014.27 1472.69,1004.28 1480.09,994.118 1487.2,983.786 1494.01,973.289 1500.5,962.632 1506.66,951.819 1512.49,940.856 1517.97,929.748 1523.07,918.502 1527.8,907.123 1532.12,895.618 1536.02,883.993 1539.48,872.257 1542.47,860.415 1544.97,848.478 1546.95,836.453 1548.39,824.349 1549.24,812.176 1549.48,799.944 1549.06,787.665 1547.95,775.35 1546.1,763.013 1543.47,750.665 1540,738.323 1535.65,726 1530.35,713.714 1524.06,701.482 1516.72,689.322 1508.27,677.253 1498.67,665.297 1487.86,653.475 1475.81,641.808 1462.47,630.321 1447.82,619.037 1431.86,607.981 1414.59,597.175 1396.02,586.646 1376.21,576.416 1355.2,566.509 1333.1,556.946 1310.01,547.747 1286.05,538.93 1261.37,530.511 1236.14,522.503 1210.52,514.916 1184.72,507.757 1158.9,501.028 1133.25,494.732 1107.94,488.864 1083.14,483.418 1058.98,478.387 1035.6,473.759 1013.08,469.521 991.522,465.659 970.965,462.157 951.451,458.997 932.994,456.162 915.592,453.636 899.227,451.4 883.87,449.437 869.479,447.731 856.007,446.266 843.401,445.028 831.606,444.001 820.562,443.174 810.212,442.534 800.499,442.07 791.368,441.772 782.767,441.63 774.646,441.637 766.959,441.784 759.663,442.065 752.72,442.474 746.092,443.005 739.749,443.654 733.661,444.416 727.803,445.288 722.15,446.265 716.683,447.346 711.384,448.526 706.236,449.805 701.227,451.178 696.344,452.646 691.576,454.205 686.916,455.854 682.355,457.592 677.887,459.417 673.507,461.329 669.21,463.325 664.993,465.405 660.853,467.568 656.788,469.813 652.795,472.138 648.875,474.543 645.025,477.027 641.245,479.588 637.535,482.227 633.895,484.942 630.326,487.732 626.827,490.595 623.399,493.532 620.044,496.542 616.761,499.622 613.553,502.772 610.419,505.992 607.361,509.279 604.38,512.634 601.478,516.054 598.654,519.539 595.912,523.088 593.251,526.699 590.673,530.371 588.179,534.102 585.771,537.893 583.449,541.741 581.216,545.644 579.071,549.603 577.016,553.614 575.053,557.678 573.182,561.792 571.404,565.955 569.721,570.165 568.133,574.421 566.642,578.722 565.248,583.066 563.953,587.451 562.757,591.876 561.661,596.339 560.666,600.838 559.773,605.373 558.983,609.94 558.296,614.539 557.712,619.168 557.233,623.825 556.86,628.508 556.592,633.215 556.43,637.945 556.376,642.696 556.428,647.466 556.588,652.254 556.856,657.056 557.232,661.873 557.717,666.701 558.31,671.538 559.013,676.384 559.825,681.235 560.746,686.091 561.776,690.948 562.915,695.806 564.164,700.662 565.522,705.514 566.99,710.36 568.566,715.199 570.251,720.028 572.044,724.846 573.946,729.65 575.956,734.438 578.073,739.209 580.297,743.96 582.628,748.69 585.065,753.396 587.608,758.077 590.255,762.73 593.007,767.354 595.863,771.947 598.821,776.506 601.882,781.03 605.044,785.516 608.306,789.964 611.668,794.37 615.128,798.733 618.686,803.052 622.341,807.323 626.091,811.545 629.935,815.717 633.872,819.836 637.902,823.901 642.022,827.91 646.231,831.86 650.529,835.751 654.913,839.58 659.382,843.345 663.936,847.045 668.571,850.679 673.288,854.243 678.083,857.737 682.957,861.159 687.906,864.507 692.929,867.78 698.025,870.976 703.192,874.094 708.428,877.131 713.731,880.087 719.099,882.959 724.53,885.747 730.023,888.449 735.576,891.063 741.186,893.588 746.851,896.023 752.57,898.367 758.341,900.618 764.16,902.774 770.027,904.835 775.938,906.799 781.892,908.666 787.887,910.434 793.919,912.102 799.988,913.669 806.09,915.133 812.224,916.495 818.387,917.752 824.576,918.905 830.79,919.952 837.025,920.892 843.279,921.725 849.551,922.45 855.837,923.065 862.135,923.571 868.443,923.967 874.757,924.253 881.076,924.426 887.397,924.488 893.717,924.438 900.035,924.275 906.346,923.999 912.649,923.609 918.942,923.106 925.22,922.489 931.483,921.758 937.727,920.912 943.95,919.952 950.149,918.878 956.322,917.689 962.465,916.386 968.577,914.968 974.655,913.437 980.695,911.791 986.696,910.031 992.656,908.158 998.57,906.172 1004.44,904.073 1010.25,901.861 1016.02,899.537 1021.73,897.102 1027.38,894.556 1032.97,891.9 1038.5,889.134 1043.97,886.259 1049.37,883.276 1054.69,880.185 1059.95,876.988 1065.13,873.685 1070.23,870.277 1075.25,866.766 1080.2,863.151 1085.05,859.435 1089.82,855.619 1094.5,851.703 1099.09,847.688 1103.59,843.577 1107.99,839.37 1112.29,835.069 1116.49,830.675 1120.59,826.189 1124.58,821.613 1128.47,816.949 1132.25,812.198 1135.91,807.361 1139.47,802.441 1142.91,797.439 1146.24,792.356 1149.44,787.195 1152.53,781.958 1155.49,776.645 1158.33,771.26 1161.05,765.803 1163.64,760.277 1166.1,754.685 1168.42,749.027 1170.62,743.306 1172.69,737.524 1174.62,731.684 1176.41,725.787 1178.07,719.835 1179.59,713.832 1180.97,707.779 1182.2,701.678 1183.3,695.532 1184.25,689.343 1185.06,683.113 1185.73,676.845 1186.25,670.542 1186.62,664.206 1186.85,657.838 1186.92,651.443 1186.85,645.022 1186.64,638.577 1186.27,632.112 1185.75,625.63 1185.08,619.131 1184.26,612.62 1183.29,606.099 1182.17,599.57 1180.9,593.036 1179.48,586.5 1177.91,579.964 1176.19,573.432 1174.32,566.905 1172.3,560.387 1170.13,553.88 1167.81,547.386 1165.35,540.91 1162.73,534.452 1159.97,528.017 1157.06,521.606 1154.01,515.223 1150.82,508.87 1147.48,502.549 1143.99,496.264 1140.37,490.017 1136.61,483.81 1132.7,477.647 1128.67,471.53 1124.49,465.462 1120.18,459.445 1115.74,453.481 1111.16,447.574 1106.46,441.726 1101.63,435.94 1096.67,430.217 1091.58,424.561 1086.38,418.974 1081.05,413.458 1075.6,408.016 1070.04,402.65 1064.36,397.363 1058.57,392.157 1052.66,387.034 1046.65,381.996 1040.53,377.047 1034.3,372.187 1027.98,367.42 1021.55,362.747 1015.02,358.171 1008.4,353.693 1001.68,349.317 994.875,345.043 987.978,340.874 980.994,336.812 973.926,332.859 966.776,329.016 959.547,325.286 952.24,321.671 944.859,318.172 937.406,314.791 929.884,311.529 922.295,308.39 914.641,305.373 906.926,302.481 899.152,299.715 891.322,297.077 883.438,294.569 875.504,292.191 867.521,289.945 859.494,287.833 851.424,285.856 843.314,284.015 835.168,282.311 826.989,280.746 818.778,279.32 810.541,278.035 802.278,276.892 793.994,275.892 785.692,275.035 777.374,274.323 769.044,273.756 760.704,273.335 752.359,273.061 744.012,272.935 735.664,272.957 727.321,273.127 718.984,273.447 710.658,273.916 702.345,274.536 694.049,275.305 685.774,276.225 677.522,277.297 669.296,278.519 661.101,279.892 652.94,281.416 644.815,283.092 636.73,284.918 628.689,286.895 620.695,289.023 612.752,291.302 604.862,293.73 597.028,296.308 589.256,299.036 581.546,301.912 573.904,304.937 566.332,308.109 558.834,311.428 551.412,314.893 544.071,318.503 536.812,322.258 529.641,326.156 522.559,330.197 515.569,334.379 508.677,338.702 501.883,343.164 495.191,347.764 488.605,352.5 482.128,357.372 475.761,362.378 469.51,367.516 463.375,372.785 457.362,378.183 451.471,383.709 445.706,389.36 440.07,395.136 434.566,401.034 429.196,407.053 423.963,413.19 418.87,419.444 413.919,425.812 409.112,432.293 404.453,438.884 399.944,445.582 395.587,452.387 391.385,459.295 387.339,466.304 383.452,473.412 379.727,480.617 376.164,487.915 372.768,495.304 369.538,502.782 366.479,510.345 363.59,517.993 360.875,525.72 358.334,533.526 355.97,541.406 353.785,549.358 351.779,557.38 349.955,565.468 348.313,573.619 346.856,581.83 345.584,590.099 344.499,598.421 343.602,606.795 342.894,615.217 342.376,623.683 342.05,632.191 341.915,640.737 341.973,649.317 342.225,657.93 342.671,666.571 343.311,675.236 344.147,683.924 345.179,692.629 346.407,701.35 347.831,710.081 349.452,718.821 351.269,727.565 353.284,736.31 355.495,745.052 357.903,753.788 360.507,762.515 363.308,771.228 366.305,779.925 369.497,788.602 372.884,797.254 376.465,805.88 380.241,814.474 384.209,823.034 388.369,831.556 392.721,840.037 397.263,848.472 401.994,856.858 "/>
</svg>
