<?xml version="1.0" encoding="utf-8"?>
<svg xmlns="http://www.w3.org/2000/svg" xmlns:xlink="http://www.w3.org/1999/xlink" width="420" height="360" viewBox="0 0 1680 1440">
<defs>
  <clipPath id="clip240">
    <rect x="0" y="0" width="1680" height="1440"/>
  </clipPath>
</defs>
<path clip-path="url(#clip240)" d="M0 1440 L1680 1440 L1680 0 L0 0  Z" fill="#ffffff" fill-rule="evenodd" fill-opacity="1"/>
<defs>
  <clipPath id="clip241">
    <rect x="171" y="140" width="1462" height="1178"/>
  </clipPath>
</defs>
<defs>
  <clipPath id="clip242">
    <rect x="133" y="140" width="1500" height="1178"/>
  </clipPath>
</defs>
<path clip-path="url(#clip242)" d="M760.219 677.657 L760.219 617.984 L791.467 588.147 L845.59 605.373 L845.59 665.046 L814.342 694.883 L760.219 677.657  Z" fill="#ffffff" fill-rule="evenodd" fill-opacity="1"/>
<polyline clip-path="url(#clip242)" style="stroke:#000000; stroke-linecap:round; stroke-linejoin:round; stroke-width:2; stroke-opacity:0.1; fill:none" points="546.371,1122.84 886.263,828.487 886.263,239.776 "/>
<polyline clip-path="url(#clip242)" style="stroke:#000000; stroke-linecap:round; stroke-linejoin:round; stroke-width:2; stroke-opacity:0.1; fill:none" points="681.679,1161.9 1021.57,867.547 1021.57,278.836 "/>
<polyline clip-path="url(#clip242)" style="stroke:#000000; stroke-linecap:round; stroke-linejoin:round; stroke-width:2; stroke-opacity:0.1; fill:none" points="816.988,1200.96 1156.88,906.607 1156.88,317.897 "/>
<polyline clip-path="url(#clip242)" style="stroke:#000000; stroke-linecap:round; stroke-linejoin:round; stroke-width:2; stroke-opacity:0.1; fill:none" points="952.296,1240.02 1292.19,945.668 1292.19,356.957 "/>
<polyline clip-path="url(#clip242)" style="stroke:#000000; stroke-linecap:round; stroke-linejoin:round; stroke-width:2; stroke-opacity:0.1; fill:none" points="1030.61,1235.99 441.898,1066.04 441.898,477.33 "/>
<polyline clip-path="url(#clip242)" style="stroke:#000000; stroke-linecap:round; stroke-linejoin:round; stroke-width:2; stroke-opacity:0.1; fill:none" points="1116.74,1161.4 528.028,991.449 528.028,402.739 "/>
<polyline clip-path="url(#clip242)" style="stroke:#000000; stroke-linecap:round; stroke-linejoin:round; stroke-width:2; stroke-opacity:0.1; fill:none" points="1202.87,1086.8 614.159,916.858 614.159,328.147 "/>
<polyline clip-path="url(#clip242)" style="stroke:#000000; stroke-linecap:round; stroke-linejoin:round; stroke-width:2; stroke-opacity:0.1; fill:none" points="1289,1012.21 700.289,842.267 700.289,253.556 "/>
<polyline clip-path="url(#clip242)" style="stroke:#000000; stroke-linecap:round; stroke-linejoin:round; stroke-width:2; stroke-opacity:0.1; fill:none" points="418.824,1069.69 758.717,775.336 1347.43,945.282 "/>
<polyline clip-path="url(#clip242)" style="stroke:#000000; stroke-linecap:round; stroke-linejoin:round; stroke-width:2; stroke-opacity:0.1; fill:none" points="418.824,947.681 758.717,653.326 1347.43,823.272 "/>
<polyline clip-path="url(#clip242)" style="stroke:#000000; stroke-linecap:round; stroke-linejoin:round; stroke-width:2; stroke-opacity:0.1; fill:none" points="418.824,825.671 758.717,531.316 1347.43,701.262 "/>
<polyline clip-path="url(#clip242)" style="stroke:#000000; stroke-linecap:round; stroke-linejoin:round; stroke-width:2; stroke-opacity:0.1; fill:none" points="418.824,703.661 758.717,409.305 1347.43,579.252 "/>
<polyline clip-path="url(#clip242)" style="stroke:#000000; stroke-linecap:round; stroke-linejoin:round; stroke-width:2; stroke-opacity:0.1; fill:none" points="418.824,581.651 758.717,287.295 1347.43,457.241 "/>
<polyline clip-path="url(#clip240)" style="stroke:#000000; stroke-linecap:round; stroke-linejoin:round; stroke-width:4; stroke-opacity:1; fill:none" points="418.824,1086.02 1007.53,1255.97 "/>
<polyline clip-path="url(#clip240)" style="stroke:#000000; stroke-linecap:round; stroke-linejoin:round; stroke-width:4; stroke-opacity:1; fill:none" points="546.371,1122.84 550.45,1119.31 "/>
<polyline clip-path="url(#clip240)" style="stroke:#000000; stroke-linecap:round; stroke-linejoin:round; stroke-width:4; stroke-opacity:1; fill:none" points="681.679,1161.9 685.758,1158.37 "/>
<polyline clip-path="url(#clip240)" style="stroke:#000000; stroke-linecap:round; stroke-linejoin:round; stroke-width:4; stroke-opacity:1; fill:none" points="816.988,1200.96 821.066,1197.43 "/>
<polyline clip-path="url(#clip240)" style="stroke:#000000; stroke-linecap:round; stroke-linejoin:round; stroke-width:4; stroke-opacity:1; fill:none" points="952.296,1240.02 956.375,1236.49 "/>
<path clip-path="url(#clip240)" d="M479.539 1142.5 L509.215 1142.5 L509.215 1146.44 L479.539 1146.44 L479.539 1142.5 Z" fill="#000000" fill-rule="nonzero" fill-opacity="1" /><path clip-path="url(#clip240)" d="M519.354 1124.77 L537.71 1124.77 L537.71 1128.71 L523.636 1128.71 L523.636 1137.18 Q524.655 1136.83 525.673 1136.67 Q526.692 1136.49 527.71 1136.49 Q533.497 1136.49 536.877 1139.66 Q540.257 1142.83 540.257 1148.24 Q540.257 1153.82 536.784 1156.93 Q533.312 1160 526.993 1160 Q524.817 1160 522.548 1159.63 Q520.303 1159.26 517.896 1158.52 L517.896 1153.82 Q519.979 1154.96 522.201 1155.51 Q524.423 1156.07 526.9 1156.07 Q530.905 1156.07 533.243 1153.96 Q535.581 1151.86 535.581 1148.24 Q535.581 1144.63 533.243 1142.53 Q530.905 1140.42 526.9 1140.42 Q525.025 1140.42 523.15 1140.84 Q521.298 1141.25 519.354 1142.13 L519.354 1124.77 Z" fill="#000000" fill-rule="nonzero" fill-opacity="1" /><path clip-path="url(#clip240)" d="M663.621 1166.91 Q660.01 1166.91 658.181 1170.48 Q656.375 1174.02 656.375 1181.15 Q656.375 1188.25 658.181 1191.82 Q660.01 1195.36 663.621 1195.36 Q667.255 1195.36 669.06 1191.82 Q670.889 1188.25 670.889 1181.15 Q670.889 1174.02 669.06 1170.48 Q667.255 1166.91 663.621 1166.91 M663.621 1163.21 Q669.431 1163.21 672.486 1167.81 Q675.565 1172.4 675.565 1181.15 Q675.565 1189.87 672.486 1194.48 Q669.431 1199.06 663.621 1199.06 Q657.811 1199.06 654.732 1194.48 Q651.676 1189.87 651.676 1181.15 Q651.676 1172.4 654.732 1167.81 Q657.811 1163.21 663.621 1163.21 Z" fill="#000000" fill-rule="nonzero" fill-opacity="1" /><path clip-path="url(#clip240)" d="M789.971 1202.89 L808.327 1202.89 L808.327 1206.83 L794.253 1206.83 L794.253 1215.3 Q795.272 1214.95 796.29 1214.79 Q797.309 1214.61 798.327 1214.61 Q804.114 1214.61 807.494 1217.78 Q810.874 1220.95 810.874 1226.37 Q810.874 1231.94 807.401 1235.05 Q803.929 1238.12 797.61 1238.12 Q795.434 1238.12 793.165 1237.75 Q790.92 1237.38 788.513 1236.64 L788.513 1231.94 Q790.596 1233.08 792.818 1233.63 Q795.04 1234.19 797.517 1234.19 Q801.522 1234.19 803.86 1232.08 Q806.198 1229.98 806.198 1226.37 Q806.198 1222.75 803.86 1220.65 Q801.522 1218.54 797.517 1218.54 Q795.642 1218.54 793.767 1218.96 Q791.915 1219.37 789.971 1220.25 L789.971 1202.89 Z" fill="#000000" fill-rule="nonzero" fill-opacity="1" /><path clip-path="url(#clip240)" d="M894.886 1272.58 L902.525 1272.58 L902.525 1246.21 L894.215 1247.88 L894.215 1243.62 L902.479 1241.95 L907.154 1241.95 L907.154 1272.58 L914.793 1272.58 L914.793 1276.51 L894.886 1276.51 L894.886 1272.58 Z" fill="#000000" fill-rule="nonzero" fill-opacity="1" /><path clip-path="url(#clip240)" d="M934.238 1245.03 Q930.627 1245.03 928.798 1248.6 Q926.992 1252.14 926.992 1259.27 Q926.992 1266.37 928.798 1269.94 Q930.627 1273.48 934.238 1273.48 Q937.872 1273.48 939.677 1269.94 Q941.506 1266.37 941.506 1259.27 Q941.506 1252.14 939.677 1248.6 Q937.872 1245.03 934.238 1245.03 M934.238 1241.33 Q940.048 1241.33 943.103 1245.93 Q946.182 1250.52 946.182 1259.27 Q946.182 1267.99 943.103 1272.6 Q940.048 1277.18 934.238 1277.18 Q928.427 1277.18 925.349 1272.6 Q922.293 1267.99 922.293 1259.27 Q922.293 1250.52 925.349 1245.93 Q928.427 1241.33 934.238 1241.33 Z" fill="#000000" fill-rule="nonzero" fill-opacity="1" /><polyline clip-path="url(#clip240)" style="stroke:#000000; stroke-linecap:round; stroke-linejoin:round; stroke-width:4; stroke-opacity:1; fill:none" points="1007.53,1255.97 1347.43,961.614 "/>
<polyline clip-path="url(#clip240)" style="stroke:#000000; stroke-linecap:round; stroke-linejoin:round; stroke-width:4; stroke-opacity:1; fill:none" points="1030.61,1235.99 1023.54,1233.95 "/>
<polyline clip-path="url(#clip240)" style="stroke:#000000; stroke-linecap:round; stroke-linejoin:round; stroke-width:4; stroke-opacity:1; fill:none" points="1116.74,1161.4 1109.67,1159.36 "/>
<polyline clip-path="url(#clip240)" style="stroke:#000000; stroke-linecap:round; stroke-linejoin:round; stroke-width:4; stroke-opacity:1; fill:none" points="1202.87,1086.8 1195.8,1084.76 "/>
<polyline clip-path="url(#clip240)" style="stroke:#000000; stroke-linecap:round; stroke-linejoin:round; stroke-width:4; stroke-opacity:1; fill:none" points="1289,1012.21 1281.94,1010.17 "/>
<path clip-path="url(#clip240)" d="M1044.53 1251.02 L1074.21 1251.02 L1074.21 1254.95 L1044.53 1254.95 L1044.53 1251.02 Z" fill="#000000" fill-rule="nonzero" fill-opacity="1" /><path clip-path="url(#clip240)" d="M1085.11 1263.91 L1092.75 1263.91 L1092.75 1237.55 L1084.44 1239.21 L1084.44 1234.95 L1092.7 1233.29 L1097.38 1233.29 L1097.38 1263.91 L1105.02 1263.91 L1105.02 1267.85 L1085.11 1267.85 L1085.11 1263.91 Z" fill="#000000" fill-rule="nonzero" fill-opacity="1" /><path clip-path="url(#clip240)" d="M1124.46 1236.37 Q1120.85 1236.37 1119.02 1239.93 Q1117.22 1243.47 1117.22 1250.6 Q1117.22 1257.71 1119.02 1261.27 Q1120.85 1264.82 1124.46 1264.82 Q1128.1 1264.82 1129.9 1261.27 Q1131.73 1257.71 1131.73 1250.6 Q1131.73 1243.47 1129.9 1239.93 Q1128.1 1236.37 1124.46 1236.37 M1124.46 1232.66 Q1130.27 1232.66 1133.33 1237.27 Q1136.41 1241.85 1136.41 1250.6 Q1136.41 1259.33 1133.33 1263.94 Q1130.27 1268.52 1124.46 1268.52 Q1118.65 1268.52 1115.57 1263.94 Q1112.52 1259.33 1112.52 1250.6 Q1112.52 1241.85 1115.57 1237.27 Q1118.65 1232.66 1124.46 1232.66 Z" fill="#000000" fill-rule="nonzero" fill-opacity="1" /><path clip-path="url(#clip240)" d="M1130.66 1176.43 L1160.34 1176.43 L1160.34 1180.36 L1130.66 1180.36 L1130.66 1176.43 Z" fill="#000000" fill-rule="nonzero" fill-opacity="1" /><path clip-path="url(#clip240)" d="M1170.48 1158.7 L1188.83 1158.7 L1188.83 1162.63 L1174.76 1162.63 L1174.76 1171.1 Q1175.78 1170.76 1176.8 1170.59 Q1177.81 1170.41 1178.83 1170.41 Q1184.62 1170.41 1188 1173.58 Q1191.38 1176.75 1191.38 1182.17 Q1191.38 1187.75 1187.91 1190.85 Q1184.43 1193.93 1178.11 1193.93 Q1175.94 1193.93 1173.67 1193.56 Q1171.42 1193.19 1169.02 1192.45 L1169.02 1187.75 Q1171.1 1188.88 1173.32 1189.44 Q1175.55 1189.99 1178.02 1189.99 Q1182.03 1189.99 1184.36 1187.89 Q1186.7 1185.78 1186.7 1182.17 Q1186.7 1178.56 1184.36 1176.45 Q1182.03 1174.34 1178.02 1174.34 Q1176.15 1174.34 1174.27 1174.76 Q1172.42 1175.18 1170.48 1176.06 L1170.48 1158.7 Z" fill="#000000" fill-rule="nonzero" fill-opacity="1" /><path clip-path="url(#clip240)" d="M1228.74 1087.18 Q1225.12 1087.18 1223.3 1090.75 Q1221.49 1094.29 1221.49 1101.42 Q1221.49 1108.53 1223.3 1112.09 Q1225.12 1115.63 1228.74 1115.63 Q1232.37 1115.63 1234.18 1112.09 Q1236 1108.53 1236 1101.42 Q1236 1094.29 1234.18 1090.75 Q1232.37 1087.18 1228.74 1087.18 M1228.74 1083.48 Q1234.55 1083.48 1237.6 1088.09 Q1240.68 1092.67 1240.68 1101.42 Q1240.68 1110.15 1237.6 1114.75 Q1234.55 1119.34 1228.74 1119.34 Q1222.93 1119.34 1219.85 1114.75 Q1216.79 1110.15 1216.79 1101.42 Q1216.79 1092.67 1219.85 1088.09 Q1222.93 1083.48 1228.74 1083.48 Z" fill="#000000" fill-rule="nonzero" fill-opacity="1" /><path clip-path="url(#clip240)" d="M1304.38 1009.51 L1322.74 1009.51 L1322.74 1013.45 L1308.66 1013.45 L1308.66 1021.92 Q1309.68 1021.57 1310.7 1021.41 Q1311.72 1021.23 1312.74 1021.23 Q1318.52 1021.23 1321.9 1024.4 Q1325.28 1027.57 1325.28 1032.99 Q1325.28 1038.56 1321.81 1041.67 Q1318.34 1044.75 1312.02 1044.75 Q1309.84 1044.75 1307.57 1044.37 Q1305.33 1044 1302.92 1043.26 L1302.92 1038.56 Q1305.01 1039.7 1307.23 1040.25 Q1309.45 1040.81 1311.93 1040.81 Q1315.93 1040.81 1318.27 1038.7 Q1320.61 1036.6 1320.61 1032.99 Q1320.61 1029.37 1318.27 1027.27 Q1315.93 1025.16 1311.93 1025.16 Q1310.05 1025.16 1308.18 1025.58 Q1306.32 1026 1304.38 1026.88 L1304.38 1009.51 Z" fill="#000000" fill-rule="nonzero" fill-opacity="1" /><polyline clip-path="url(#clip240)" style="stroke:#000000; stroke-linecap:round; stroke-linejoin:round; stroke-width:4; stroke-opacity:1; fill:none" points="418.824,1086.02 418.824,497.312 "/>
<polyline clip-path="url(#clip240)" style="stroke:#000000; stroke-linecap:round; stroke-linejoin:round; stroke-width:4; stroke-opacity:1; fill:none" points="418.824,1069.69 422.903,1066.16 "/>
<polyline clip-path="url(#clip240)" style="stroke:#000000; stroke-linecap:round; stroke-linejoin:round; stroke-width:4; stroke-opacity:1; fill:none" points="418.824,947.681 422.903,944.149 "/>
<polyline clip-path="url(#clip240)" style="stroke:#000000; stroke-linecap:round; stroke-linejoin:round; stroke-width:4; stroke-opacity:1; fill:none" points="418.824,825.671 422.903,822.139 "/>
<polyline clip-path="url(#clip240)" style="stroke:#000000; stroke-linecap:round; stroke-linejoin:round; stroke-width:4; stroke-opacity:1; fill:none" points="418.824,703.661 422.903,700.129 "/>
<polyline clip-path="url(#clip240)" style="stroke:#000000; stroke-linecap:round; stroke-linejoin:round; stroke-width:4; stroke-opacity:1; fill:none" points="418.824,581.651 422.903,578.118 "/>
<path clip-path="url(#clip240)" d="M386.72 1055.49 Q383.109 1055.49 381.28 1059.05 Q379.474 1062.6 379.474 1069.73 Q379.474 1076.83 381.28 1080.4 Q383.109 1083.94 386.72 1083.94 Q390.354 1083.94 392.16 1080.4 Q393.988 1076.83 393.988 1069.73 Q393.988 1062.6 392.16 1059.05 Q390.354 1055.49 386.72 1055.49 M386.72 1051.79 Q392.53 1051.79 395.586 1056.39 Q398.664 1060.98 398.664 1069.73 Q398.664 1078.45 395.586 1083.06 Q392.53 1087.64 386.72 1087.64 Q380.91 1087.64 377.831 1083.06 Q374.775 1078.45 374.775 1069.73 Q374.775 1060.98 377.831 1056.39 Q380.91 1051.79 386.72 1051.79 Z" fill="#000000" fill-rule="nonzero" fill-opacity="1" /><path clip-path="url(#clip240)" d="M377.762 930.401 L396.118 930.401 L396.118 934.336 L382.044 934.336 L382.044 942.809 Q383.062 942.461 384.081 942.299 Q385.099 942.114 386.118 942.114 Q391.905 942.114 395.285 945.285 Q398.664 948.457 398.664 953.873 Q398.664 959.452 395.192 962.554 Q391.72 965.633 385.4 965.633 Q383.224 965.633 380.956 965.262 Q378.711 964.892 376.303 964.151 L376.303 959.452 Q378.387 960.586 380.609 961.142 Q382.831 961.697 385.308 961.697 Q389.312 961.697 391.65 959.591 Q393.988 957.484 393.988 953.873 Q393.988 950.262 391.65 948.156 Q389.312 946.049 385.308 946.049 Q383.433 946.049 381.558 946.466 Q379.706 946.883 377.762 947.762 L377.762 930.401 Z" fill="#000000" fill-rule="nonzero" fill-opacity="1" /><path clip-path="url(#clip240)" d="M347.368 839.016 L355.007 839.016 L355.007 812.65 L346.697 814.317 L346.697 810.058 L354.961 808.391 L359.637 808.391 L359.637 839.016 L367.275 839.016 L367.275 842.951 L347.368 842.951 L347.368 839.016 Z" fill="#000000" fill-rule="nonzero" fill-opacity="1" /><path clip-path="url(#clip240)" d="M386.72 811.47 Q383.109 811.47 381.28 815.035 Q379.474 818.576 379.474 825.706 Q379.474 832.812 381.28 836.377 Q383.109 839.919 386.72 839.919 Q390.354 839.919 392.16 836.377 Q393.988 832.812 393.988 825.706 Q393.988 818.576 392.16 815.035 Q390.354 811.47 386.72 811.47 M386.72 807.766 Q392.53 807.766 395.586 812.372 Q398.664 816.956 398.664 825.706 Q398.664 834.433 395.586 839.039 Q392.53 843.622 386.72 843.622 Q380.91 843.622 377.831 839.039 Q374.775 834.433 374.775 825.706 Q374.775 816.956 377.831 812.372 Q380.91 807.766 386.72 807.766 Z" fill="#000000" fill-rule="nonzero" fill-opacity="1" /><path clip-path="url(#clip240)" d="M348.364 717.006 L356.002 717.006 L356.002 690.64 L347.692 692.307 L347.692 688.047 L355.956 686.381 L360.632 686.381 L360.632 717.006 L368.271 717.006 L368.271 720.941 L348.364 720.941 L348.364 717.006 Z" fill="#000000" fill-rule="nonzero" fill-opacity="1" /><path clip-path="url(#clip240)" d="M377.762 686.381 L396.118 686.381 L396.118 690.316 L382.044 690.316 L382.044 698.788 Q383.062 698.441 384.081 698.279 Q385.099 698.094 386.118 698.094 Q391.905 698.094 395.285 701.265 Q398.664 704.436 398.664 709.853 Q398.664 715.432 395.192 718.533 Q391.72 721.612 385.4 721.612 Q383.224 721.612 380.956 721.242 Q378.711 720.871 376.303 720.131 L376.303 715.432 Q378.387 716.566 380.609 717.121 Q382.831 717.677 385.308 717.677 Q389.312 717.677 391.65 715.57 Q393.988 713.464 393.988 709.853 Q393.988 706.242 391.65 704.135 Q389.312 702.029 385.308 702.029 Q383.433 702.029 381.558 702.446 Q379.706 702.862 377.762 703.742 L377.762 686.381 Z" fill="#000000" fill-rule="nonzero" fill-opacity="1" /><path clip-path="url(#clip240)" d="M350.586 594.995 L366.905 594.995 L366.905 598.931 L344.961 598.931 L344.961 594.995 Q347.623 592.241 352.206 587.611 Q356.813 582.958 357.993 581.616 Q360.238 579.093 361.118 577.357 Q362.021 575.597 362.021 573.908 Q362.021 571.153 360.076 569.417 Q358.155 567.681 355.053 567.681 Q352.854 567.681 350.401 568.445 Q347.97 569.209 345.192 570.759 L345.192 566.037 Q348.016 564.903 350.47 564.324 Q352.924 563.746 354.961 563.746 Q360.331 563.746 363.526 566.431 Q366.72 569.116 366.72 573.607 Q366.72 575.736 365.91 577.658 Q365.123 579.556 363.016 582.148 Q362.438 582.82 359.336 586.037 Q356.234 589.232 350.586 594.995 Z" fill="#000000" fill-rule="nonzero" fill-opacity="1" /><path clip-path="url(#clip240)" d="M386.72 567.449 Q383.109 567.449 381.28 571.014 Q379.474 574.556 379.474 581.685 Q379.474 588.792 381.28 592.357 Q383.109 595.898 386.72 595.898 Q390.354 595.898 392.16 592.357 Q393.988 588.792 393.988 581.685 Q393.988 574.556 392.16 571.014 Q390.354 567.449 386.72 567.449 M386.72 563.746 Q392.53 563.746 395.586 568.352 Q398.664 572.935 398.664 581.685 Q398.664 590.412 395.586 595.019 Q392.53 599.602 386.72 599.602 Q380.91 599.602 377.831 595.019 Q374.775 590.412 374.775 581.685 Q374.775 572.935 377.831 568.352 Q380.91 563.746 386.72 563.746 Z" fill="#000000" fill-rule="nonzero" fill-opacity="1" /><path clip-path="url(#clip240)" d="M682.181 44.2197 Q684.814 45.1109 687.285 48.0275 Q689.796 50.9442 692.308 56.0483 L700.612 72.576 L691.822 72.576 L684.085 57.061 Q681.087 50.9847 678.251 48.9997 Q675.456 47.0148 670.595 47.0148 L661.683 47.0148 L661.683 72.576 L653.5 72.576 L653.5 12.096 L671.972 12.096 Q682.343 12.096 687.447 16.4305 Q692.551 20.7649 692.551 29.5149 Q692.551 35.2267 689.877 38.994 Q687.244 42.7613 682.181 44.2197 M661.683 18.8205 L661.683 40.2903 L671.972 40.2903 Q677.887 40.2903 680.884 37.5762 Q683.923 34.8216 683.923 29.5149 Q683.923 24.2082 680.884 21.5346 Q677.887 18.8205 671.972 18.8205 L661.683 18.8205 Z" fill="#000000" fill-rule="nonzero" fill-opacity="1" /><path clip-path="url(#clip240)" d="M724.675 32.4315 Q718.679 32.4315 715.195 37.1306 Q711.712 41.7891 711.712 49.9314 Q711.712 58.0738 715.155 62.7728 Q718.639 67.4314 724.675 67.4314 Q730.629 67.4314 734.113 62.7323 Q737.597 58.0333 737.597 49.9314 Q737.597 41.8701 734.113 37.1711 Q730.629 32.4315 724.675 32.4315 M724.675 26.1121 Q734.397 26.1121 739.947 32.4315 Q745.496 38.7509 745.496 49.9314 Q745.496 61.0714 739.947 67.4314 Q734.397 73.7508 724.675 73.7508 Q714.912 73.7508 709.362 67.4314 Q703.853 61.0714 703.853 49.9314 Q703.853 38.7509 709.362 32.4315 Q714.912 26.1121 724.675 26.1121 M728.482 9.70597 L736.706 9.70597 L736.706 17.8888 L728.482 17.8888 L728.482 9.70597 M712.643 9.70597 L720.867 9.70597 L720.867 17.8888 L712.643 17.8888 L712.643 9.70597 Z" fill="#000000" fill-rule="nonzero" fill-opacity="1" /><path clip-path="url(#clip240)" d="M786.775 28.5427 L786.775 35.5912 Q783.615 33.9709 780.213 33.1607 Q776.81 32.3505 773.164 32.3505 Q767.614 32.3505 764.819 34.0519 Q762.064 35.7533 762.064 39.156 Q762.064 41.7486 764.049 43.2475 Q766.034 44.7058 772.03 46.0426 L774.582 46.6097 Q782.522 48.3111 785.843 51.4303 Q789.206 54.509 789.206 60.0587 Q789.206 66.3781 784.182 70.0644 Q779.2 73.7508 770.45 73.7508 Q766.804 73.7508 762.834 73.0216 Q758.905 72.3329 754.53 70.9151 L754.53 63.2184 Q758.662 65.3654 762.672 66.4591 Q766.682 67.5124 770.612 67.5124 Q775.878 67.5124 778.714 65.73 Q781.549 63.9071 781.549 60.6258 Q781.549 57.5877 779.483 55.9673 Q777.458 54.3469 770.531 52.8481 L767.938 52.2405 Q761.011 50.7821 757.933 47.7845 Q754.854 44.7463 754.854 39.4801 Q754.854 33.0797 759.391 29.5959 Q763.928 26.1121 772.273 26.1121 Q776.405 26.1121 780.05 26.7198 Q783.696 27.3274 786.775 28.5427 Z" fill="#000000" fill-rule="nonzero" fill-opacity="1" /><path clip-path="url(#clip240)" d="M829.998 28.5427 L829.998 35.5912 Q826.838 33.9709 823.436 33.1607 Q820.033 32.3505 816.387 32.3505 Q810.837 32.3505 808.042 34.0519 Q805.288 35.7533 805.288 39.156 Q805.288 41.7486 807.273 43.2475 Q809.257 44.7058 815.253 46.0426 L817.805 46.6097 Q825.745 48.3111 829.066 51.4303 Q832.429 54.509 832.429 60.0587 Q832.429 66.3781 827.406 70.0644 Q822.423 73.7508 813.673 73.7508 Q810.027 73.7508 806.057 73.0216 Q802.128 72.3329 797.753 70.9151 L797.753 63.2184 Q801.885 65.3654 805.895 66.4591 Q809.906 67.5124 813.835 67.5124 Q819.101 67.5124 821.937 65.73 Q824.772 63.9071 824.772 60.6258 Q824.772 57.5877 822.706 55.9673 Q820.681 54.3469 813.754 52.8481 L811.161 52.2405 Q804.234 50.7821 801.156 47.7845 Q798.077 44.7463 798.077 39.4801 Q798.077 33.0797 802.614 29.5959 Q807.151 26.1121 815.496 26.1121 Q819.628 26.1121 823.274 26.7198 Q826.919 27.3274 829.998 28.5427 Z" fill="#000000" fill-rule="nonzero" fill-opacity="1" /><path clip-path="url(#clip240)" d="M844.298 9.54393 L851.751 9.54393 L851.751 72.576 L844.298 72.576 L844.298 9.54393 Z" fill="#000000" fill-rule="nonzero" fill-opacity="1" /><path clip-path="url(#clip240)" d="M906.155 48.0275 L906.155 51.6733 L871.884 51.6733 Q872.371 59.3701 876.502 63.421 Q880.675 67.4314 888.088 67.4314 Q892.382 67.4314 896.392 66.3781 Q900.443 65.3249 904.413 63.2184 L904.413 70.267 Q900.403 71.9684 896.19 72.8596 Q891.977 73.7508 887.642 73.7508 Q876.786 73.7508 870.426 67.4314 Q864.107 61.1119 864.107 50.3365 Q864.107 39.1965 870.102 32.6746 Q876.138 26.1121 886.346 26.1121 Q895.501 26.1121 900.808 32.0264 Q906.155 37.9003 906.155 48.0275 M898.701 45.84 Q898.62 39.7232 895.258 36.0774 Q891.936 32.4315 886.427 32.4315 Q880.189 32.4315 876.421 35.9558 Q872.695 39.4801 872.128 45.8805 L898.701 45.84 Z" fill="#000000" fill-rule="nonzero" fill-opacity="1" /><path clip-path="url(#clip240)" d="M944.679 34.1734 Q943.423 33.4443 941.925 33.1202 Q940.466 32.7556 938.684 32.7556 Q932.364 32.7556 928.962 36.8875 Q925.599 40.9789 925.599 48.6757 L925.599 72.576 L918.105 72.576 L918.105 27.2059 L925.599 27.2059 L925.599 34.2544 Q927.949 30.1225 931.716 28.1376 Q935.484 26.1121 940.871 26.1121 Q941.641 26.1121 942.573 26.2337 Q943.504 26.3147 944.639 26.5172 L944.679 34.1734 Z" fill="#000000" fill-rule="nonzero" fill-opacity="1" /><path clip-path="url(#clip240)" d="M1004.71 39.9662 Q1010.59 41.222 1013.87 45.1919 Q1017.19 49.1618 1017.19 54.9951 Q1017.19 63.9476 1011.03 68.8492 Q1004.88 73.7508 993.533 73.7508 Q989.725 73.7508 985.674 72.9811 Q981.664 72.2519 977.37 70.7531 L977.37 62.8538 Q980.773 64.8388 984.824 65.8515 Q988.875 66.8642 993.29 66.8642 Q1000.99 66.8642 1005 63.826 Q1009.05 60.7879 1009.05 54.9951 Q1009.05 49.6479 1005.28 46.6502 Q1001.55 43.612 994.87 43.612 L987.821 43.612 L987.821 36.8875 L995.194 36.8875 Q1001.23 36.8875 1004.43 34.4975 Q1007.63 32.067 1007.63 27.5299 Q1007.63 22.8714 1004.31 20.4004 Q1001.03 17.8888 994.87 17.8888 Q991.508 17.8888 987.659 18.618 Q983.811 19.3471 979.193 20.8865 L979.193 13.5948 Q983.851 12.2985 987.902 11.6504 Q991.994 11.0023 995.599 11.0023 Q1004.92 11.0023 1010.34 15.2557 Q1015.77 19.4686 1015.77 26.6793 Q1015.77 31.7024 1012.9 35.1862 Q1010.02 38.6294 1004.71 39.9662 Z" fill="#000000" fill-rule="nonzero" fill-opacity="1" /><path clip-path="url(#clip240)" d="M1027.88 46.5287 L1049.72 46.5287 L1049.72 53.1722 L1027.88 53.1722 L1027.88 46.5287 Z" fill="#000000" fill-rule="nonzero" fill-opacity="1" /><path clip-path="url(#clip240)" d="M1070.1 18.8205 L1070.1 65.8515 L1079.98 65.8515 Q1092.5 65.8515 1098.29 60.1802 Q1104.12 54.509 1104.12 42.2752 Q1104.12 30.1225 1098.29 24.4918 Q1092.5 18.8205 1079.98 18.8205 L1070.1 18.8205 M1061.91 12.096 L1078.72 12.096 Q1096.3 12.096 1104.53 19.4281 Q1112.75 26.7198 1112.75 42.2752 Q1112.75 57.9117 1104.49 65.2439 Q1096.22 72.576 1078.72 72.576 L1061.91 72.576 L1061.91 12.096 Z" fill="#000000" fill-rule="nonzero" fill-opacity="1" /><polyline clip-path="url(#clip242)" style="stroke:#009af9; stroke-linecap:round; stroke-linejoin:round; stroke-width:1.6; stroke-opacity:1; fill:none" points="921.302,944.898 920.644,946.343 920.006,947.633 919.386,948.78 918.781,949.795 918.187,950.687 917.603,951.467 917.027,952.143 916.456,952.724 915.888,953.218 915.323,953.633 914.758,953.975 914.191,954.251 913.623,954.467 913.051,954.628 912.474,954.741 911.892,954.809 911.304,954.837 910.709,954.829 910.106,954.79 909.495,954.722 908.875,954.629 908.246,954.513 907.607,954.378 906.959,954.226 906.3,954.06 905.632,953.881 904.952,953.692 904.262,953.494 903.561,953.288 902.849,953.078 902.127,952.863 901.393,952.645 900.649,952.426 899.894,952.206 899.128,951.986 898.351,951.768 897.564,951.552 896.767,951.339 895.96,951.13 895.142,950.924 894.315,950.724 893.478,950.529 892.632,950.34 891.776,950.158 890.912,949.982 890.039,949.814 889.158,949.653 888.268,949.5 887.371,949.355 886.466,949.219 885.554,949.092 884.635,948.974 883.71,948.865 882.778,948.765 881.84,948.675 880.897,948.595 879.948,948.525 878.994,948.464 878.036,948.415 877.074,948.375 876.107,948.346 875.137,948.328 874.164,948.32 873.188,948.323 872.21,948.337 871.23,948.362 870.248,948.398 869.265,948.445 868.281,948.503 867.296,948.572 866.312,948.653 865.327,948.744 864.344,948.847 863.361,948.961 862.38,949.086 861.401,949.222 860.424,949.37 859.45,949.529 858.478,949.699 857.51,949.88 856.546,950.073 855.587,950.276 854.632,950.491 853.682,950.717 852.737,950.954 851.799,951.201 850.866,951.46 849.941,951.73 849.022,952.01 848.111,952.301 847.207,952.603 846.312,952.916 845.426,953.239 844.548,953.572 843.68,953.916 842.822,954.27 841.974,954.634 841.136,955.008 840.309,955.392 839.494,955.786 838.69,956.19 837.899,956.603 837.119,957.026 836.353,957.458 835.599,957.899 834.859,958.349 834.133,958.808 833.421,959.276 832.724,959.752 832.041,960.237 831.374,960.73 830.722,961.231 830.086,961.74 829.466,962.257 828.863,962.782 828.276,963.314 827.706,963.853 827.154,964.399 826.619,964.952 826.102,965.512 825.604,966.078 825.124,966.651 824.663,967.229 824.22,967.814 823.797,968.404 823.394,968.999 823.01,969.6 822.646,970.205 822.302,970.816 821.979,971.431 821.677,972.05 821.395,972.673 821.134,973.3 820.895,973.931 820.676,974.565 820.48,975.202 820.305,975.843 820.152,976.485 820.021,977.13 819.912,977.778 819.825,978.427 819.761,979.078 819.72,979.73 819.701,980.383 819.705,981.038 819.731,981.692 819.781,982.347 819.853,983.003 819.949,983.658 820.067,984.312 820.209,984.966 820.374,985.619 820.562,986.271 820.773,986.921 821.007,987.569 821.265,988.216 821.546,988.86 821.85,989.501 822.177,990.14 822.527,990.775 822.9,991.407 823.297,992.036 823.716,992.66 824.158,993.281 824.623,993.897 825.11,994.508 825.62,995.114 826.152,995.715 826.707,996.31 827.284,996.9 827.883,997.483 828.504,998.061 829.146,998.632 829.81,999.195 830.495,999.752 831.202,1000.3 831.929,1000.84 832.678,1001.38 833.446,1001.9 834.235,1002.42 835.045,1002.93 835.873,1003.43 836.722,1003.92 837.59,1004.41 838.477,1004.88 839.382,1005.34 840.306,1005.79 841.248,1006.24 842.208,1006.67 843.186,1007.09 844.18,1007.5 845.192,1007.9 846.22,1008.29 847.264,1008.67 848.325,1009.03 849.4,1009.39 850.491,1009.73 851.596,1010.06 852.716,1010.38 853.85,1010.68 854.997,1010.97 856.157,1011.25 857.33,1011.52 858.515,1011.77 859.712,1012.01 860.921,1012.24 862.14,1012.45 863.37,1012.65 864.61,1012.83 865.86,1013 867.119,1013.16 868.386,1013.3 869.662,1013.43 870.945,1013.54 872.236,1013.64 873.533,1013.72 874.836,1013.79 876.146,1013.84 877.46,1013.88 878.78,1013.91 880.103,1013.91 881.43,1013.91 882.76,1013.88 884.093,1013.85 885.429,1013.79 886.765,1013.73 888.103,1013.64 889.441,1013.54 890.78,1013.43 892.117,1013.3 893.454,1013.15 894.789,1012.99 896.122,1012.81 897.452,1012.62 898.779,1012.41 900.102,1012.19 901.42,1011.95 902.734,1011.7 904.042,1011.43 905.345,1011.14 906.64,1010.84 907.929,1010.53 909.21,1010.2 910.483,1009.85 911.747,1009.49 913.001,1009.12 914.246,1008.73 915.481,1008.33 916.705,1007.91 917.917,1007.47 919.117,1007.03 920.305,1006.56 921.48,1006.09 922.641,1005.6 923.788,1005.1 924.921,1004.58 926.038,1004.05 927.14,1003.5 928.226,1002.95 929.295,1002.38 930.347,1001.8 931.382,1001.2 932.399,1000.59 933.397,999.975 934.376,999.344 935.335,998.701 936.275,998.047 937.194,997.381 938.093,996.704 938.97,996.017 939.825,995.319 940.659,994.611 941.469,993.892 942.257,993.164 943.022,992.426 943.763,991.679 944.479,990.924 945.171,990.159 945.839,989.386 946.481,988.605 947.097,987.815 947.688,987.019 948.252,986.215 948.79,985.404 949.301,984.586 949.784,983.762 950.24,982.932 950.669,982.096 951.069,981.255 951.441,980.408 951.784,979.557 952.099,978.701 952.384,977.841 952.64,976.977 952.867,976.11 953.064,975.24 953.231,974.367 953.368,973.491 953.475,972.613 953.552,971.733 953.598,970.852 953.613,969.97 953.597,969.087 953.551,968.203 953.474,967.319 953.365,966.436 953.226,965.553 953.055,964.671 952.853,963.791 952.62,962.912 952.356,962.035 952.06,961.16 951.733,960.288 951.374,959.419 950.984,958.554 950.563,957.692 950.111,956.834 949.628,955.981 949.113,955.133 948.568,954.29 947.992,953.452 947.385,952.62 946.747,951.794 946.079,950.975 945.381,950.162 944.652,949.357 943.894,948.559 943.105,947.77 942.287,946.988 941.439,946.215 940.563,945.451 939.657,944.696 938.723,943.951 937.76,943.216 936.769,942.49 935.75,941.776 934.704,941.072 933.63,940.379 932.53,939.698 931.402,939.029 930.249,938.372 929.069,937.727 927.864,937.095 926.634,936.475 925.379,935.87 924.1,935.278 922.797,934.699 921.47,934.135 920.12,933.586 918.748,933.051 917.353,932.531 915.936,932.026 914.499,931.537 913.04,931.064 911.562,930.606 910.063,930.165 908.546,929.741 907.009,929.333 905.455,928.942 903.883,928.569 902.294,928.213 900.688,927.874 899.067,927.554 897.43,927.251 895.778,926.967 894.113,926.701 892.433,926.454 890.741,926.226 889.037,926.016 887.321,925.826 885.594,925.655 883.857,925.504 882.11,925.372 880.353,925.259 878.589,925.167 876.817,925.094 875.037,925.042 873.252,925.01 871.461,924.997 869.664,925.006 867.864,925.035 866.06,925.084 864.253,925.154 862.444,925.244 860.634,925.355 858.822,925.487 857.011,925.639 855.201,925.813 853.392,926.007 851.585,926.222 849.781,926.457 847.981,926.714 846.185,926.991 844.394,927.289 842.609,927.608 840.831,927.947 839.06,928.307 837.297,928.687 835.543,929.088 833.799,929.509 832.065,929.951 830.341,930.413 828.63,930.895 826.931,931.397 825.245,931.919 823.573,932.46 821.916,933.022 820.274,933.602 818.649,934.202 817.04,934.822 815.448,935.46 813.875,936.117 812.321,936.792 810.786,937.486 809.272,938.199 807.779,938.929 806.307,939.677 804.858,940.443 803.432,941.226 802.029,942.026 800.651,942.843 799.298,943.676 797.971,944.526 796.669,945.392 795.395,946.273 794.148,947.17 792.93,948.082 791.74,949.009 790.579,949.951 789.448,950.907 788.348,951.876 787.279,952.86 786.241,953.856 785.236,954.866 784.263,955.888 783.323,956.922 782.417,957.967 781.545,959.025 780.708,960.093 779.906,961.172 779.14,962.261 778.409,963.361 777.715,964.469 777.058,965.587 776.438,966.713 775.856,967.848 775.312,968.991 774.807,970.14 774.34,971.297 773.912,972.461 773.524,973.63 773.176,974.805 772.868,975.985 772.6,977.17 772.373,978.359 772.186,979.553 772.041,980.749 771.937,981.948 771.875,983.15 771.854,984.354 771.875,985.559 771.939,986.765 772.044,987.971 772.192,989.178 772.383,990.384 772.615,991.59 772.891,992.793 773.209,993.995 773.57,995.195 773.973,996.391 774.42,997.584 774.909,998.773 775.44,999.958 776.014,1001.14 776.631,1002.31 777.291,1003.48 777.993,1004.64 778.737,1005.8 779.523,1006.95 780.351,1008.09 781.221,1009.22 782.133,1010.34 783.086,1011.46 784.081,1012.56 785.116,1013.65 786.192,1014.74 787.309,1015.81 788.466,1016.87 789.663,1017.91 790.899,1018.95 792.174,1019.97 793.489,1020.98 794.842,1021.97 796.232,1022.95 797.661,1023.92 799.127,1024.86 800.629,1025.8 802.168,1026.71 803.743,1027.61 805.353,1028.5 806.998,1029.36 808.678,1030.21 810.391,1031.04 812.137,1031.85 813.916,1032.64 815.728,1033.41 817.57,1034.16 819.444,1034.89 821.347,1035.6 823.281,1036.28 825.243,1036.95 827.233,1037.59 829.251,1038.22 831.296,1038.81 833.367,1039.39 835.463,1039.94 837.584,1040.47 839.728,1040.98 841.896,1041.46 844.086,1041.91 846.298,1042.34 848.53,1042.75 850.783,1043.13 853.054,1043.49 855.343,1043.82 857.65,1044.12 859.973,1044.39 862.312,1044.64 864.666,1044.87 867.033,1045.06 869.414,1045.23 871.806,1045.37 874.21,1045.48 876.623,1045.57 879.046,1045.63 881.477,1045.66 883.916,1045.66 886.361,1045.63 888.811,1045.57 891.265,1045.49 893.723,1045.38 896.184,1045.23 898.646,1045.06 901.108,1044.86 903.57,1044.64 906.031,1044.38 908.488,1044.09 910.943,1043.78 913.392,1043.43 915.836,1043.06 918.274,1042.66 920.704,1042.23 923.125,1041.77 925.536,1041.28 927.937,1040.76 930.326,1040.21 932.703,1039.64 935.066,1039.04 937.414,1038.4 939.746,1037.74 942.061,1037.06 944.359,1036.34 946.638,1035.6 948.897,1034.83 951.135,1034.03 953.351,1033.21 955.545,1032.36 957.715,1031.48 959.86,1030.58 961.979,1029.65 964.072,1028.69 966.137,1027.71 968.173,1026.71 970.18,1025.68 972.157,1024.62 974.102,1023.55 976.015,1022.44 977.895,1021.32 979.74,1020.17 981.551,1019 983.326,1017.81 985.064,1016.6 986.764,1015.36 988.427,1014.11 990.05,1012.83 991.633,1011.54 993.175,1010.23 994.676,1008.9 996.135,1007.55 997.55,1006.18 998.922,1004.79 1000.25,1003.39 1001.53,1001.98 1002.77,1000.55 1003.96,999.101 1005.1,997.641 1006.2,996.168 1007.24,994.682 1008.24,993.184 1009.19,991.675 1010.09,990.154 1010.94,988.623 1011.73,987.083 1012.48,985.534 1013.17,983.976 1013.81,982.411 1014.4,980.838 1014.93,979.26 1015.41,977.675 1015.84,976.085 1016.21,974.491 1016.53,972.893 1016.79,971.292 1017,969.688 1017.15,968.083 1017.25,966.476 1017.29,964.868 1017.27,963.26 1017.2,961.653 1017.07,960.047 1016.89,958.442 1016.65,956.84 1016.35,955.241 1015.99,953.646 1015.58,952.054 1015.11,950.467 1014.59,948.885 1014,947.31 1013.36,945.74 1012.67,944.177 1011.91,942.622 1011.1,941.075 1010.24,939.536 1009.32,938.007 1008.34,936.487 1007.3,934.977 1006.21,933.478 1005.07,931.99 1003.86,930.514 1002.61,929.05 1001.3,927.599 999.932,926.161 998.512,924.738 997.039,923.328 995.512,921.934 993.933,920.555 992.301,919.193 990.617,917.847 988.881,916.518 987.094,915.207 985.256,913.914 983.369,912.64 981.431,911.386 979.445,910.151 977.41,908.937 975.327,907.744 973.197,906.572 971.021,905.423 968.798,904.296 966.531,903.192 964.219,902.113 961.863,901.057 959.464,900.027 957.022,899.021 954.54,898.042 952.016,897.089 949.453,896.163 946.851,895.265 944.211,894.394 941.533,893.552 938.819,892.739 936.07,891.955 933.287,891.2 930.47,890.477 927.62,889.784 924.739,889.122 921.827,888.491 918.886,887.893 915.917,887.327 912.92,886.794 909.898,886.294 906.85,885.827 903.777,885.394 900.682,884.996 897.566,884.632 894.428,884.303 891.271,884.009 888.096,883.75 884.904,883.527 881.696,883.34 878.473,883.189 875.237,883.074 871.989,882.996 868.73,882.954 865.461,882.95 862.183,882.983 858.899,883.052 855.609,883.16 852.314,883.305 849.015,883.487 845.715,883.707 842.414,883.965 839.114,884.26 835.816,884.594 832.521,884.965 829.231,885.375 825.947,885.822 822.67,886.307 819.401,886.83 816.143,887.39 812.896,887.989 809.662,888.625 806.441,889.298 803.237,890.009 800.048,890.757 796.878,891.543 793.727,892.365 790.597,893.224 787.489,894.12 784.405,895.052 781.345,896.02 778.311,897.024 775.305,898.064 772.327,899.139 769.379,900.25 766.463,901.395 763.579,902.575 760.729,903.788 757.914,905.036 755.136,906.317 752.395,907.631 749.693,908.978 747.031,910.357 744.411,911.768 741.833,913.211 739.299,914.684 736.81,916.188 734.368,917.722 731.972,919.285 729.625,920.878 727.328,922.498 725.081,924.147 722.886,925.824 720.744,927.527 718.656,929.256 716.623,931.011 714.646,932.791 712.726,934.596 710.865,936.425 709.062,938.276 707.319,940.151 705.637,942.047 704.017,943.964 702.46,945.902 700.967,947.86 699.538,949.837 698.174,951.832 696.876,953.845 695.646,955.875 694.482,957.921 693.388,959.983 692.362,962.06 691.406,964.15 690.521,966.253 689.707,968.369 688.964,970.496 688.294,972.635 687.696,974.783 687.172,976.94 686.722,979.105 686.346,981.278 686.045,983.457 685.819,985.642 685.669,987.832 685.594,990.026 685.596,992.224 685.675,994.423 685.83,996.624 686.063,998.825 686.372,1001.03 686.759,1003.23 687.224,1005.42 687.767,1007.62 688.387,1009.81 689.086,1012 689.862,1014.18 690.716,1016.35 691.649,1018.51 692.659,1020.67 693.746,1022.82 694.912,1024.96 696.155,1027.09 697.475,1029.2 698.872,1031.3 700.346,1033.39 701.896,1035.46 703.523,1037.52 705.225,1039.56 707.003,1041.59 708.856,1043.59 710.783,1045.58 712.785,1047.54 714.86,1049.49 717.008,1051.41 719.228,1053.31 721.521,1055.19 723.884,1057.04 726.319,1058.87 728.823,1060.67 731.396,1062.44 734.037,1064.19 736.746,1065.91 739.522,1067.6 742.364,1069.25 745.27,1070.88 748.241,1072.48 751.275,1074.04 754.371,1075.57 757.528,1077.06 760.745,1078.52 764.021,1079.95 767.355,1081.33 770.746,1082.68 774.193,1084 777.694,1085.27 781.249,1086.5 784.856,1087.7 788.513,1088.85 792.22,1089.96 795.975,1091.03 799.778,1092.06 803.625,1093.05 807.517,1093.99 811.452,1094.88 815.428,1095.73 819.444,1096.54 823.498,1097.3 827.589,1098.01 831.715,1098.67 835.876,1099.29 840.068,1099.86 844.292,1100.38 848.544,1100.85 852.823,1101.27 857.129,1101.64 861.459,1101.96 865.81,1102.23 870.183,1102.44 874.575,1102.61 878.984,1102.72 883.408,1102.78 887.846,1102.78 892.296,1102.74 896.756,1102.63 901.225,1102.48 905.7,1102.27 910.179,1102 914.661,1101.68 919.144,1101.3 923.626,1100.87 928.105,1100.38 932.579,1099.83 937.047,1099.22 941.505,1098.56 945.953,1097.84 950.388,1097.07 954.808,1096.23 959.212,1095.34 963.597,1094.38 967.961,1093.37 972.303,1092.3 976.62,1091.16 980.909,1089.97 985.17,1088.72 989.4,1087.4 993.597,1086.03 997.759,1084.59 1001.88,1083.09 1005.97,1081.53 1010.01,1079.9 1014.01,1078.21 1017.97,1076.46 1021.87,1074.64 1025.73,1072.76 1029.53,1070.81 1033.28,1068.8 1036.98,1066.72 1040.61,1064.57 1044.18,1062.36 1047.69,1060.08 1051.13,1057.73 1054.51,1055.31 1057.81,1052.82 1061.05,1050.26 1064.2,1047.63 1067.29,1044.94 1070.29,1042.17 1073.21,1039.33 1076.04,1036.42 1078.79,1033.44 1081.45,1030.39 1084.02,1027.27 1086.5,1024.09 1088.88,1020.83 1091.17,1017.51 1093.35,1014.12 1095.43,1010.67 1097.41,1007.16 1099.29,1003.59 1101.05,999.961 1102.71,996.282 1104.25,992.552 1105.69,988.778 1107,984.964 1108.2,981.114 1109.29,977.234 1110.25,973.33 1111.09,969.41 1111.82,965.479 1112.42,961.545 1112.9,957.616 1113.26,953.7 1113.49,949.807 1113.61,945.943 1113.6,942.119 1113.47,938.343 1113.21,934.625 1112.84,930.972 1112.35,927.394 1111.75,923.899 1111.03,920.496 1110.19,917.19 1109.24,913.989 1108.18,910.9 1107.02,907.926 1105.75,905.073 1104.38,902.343 1102.91,899.739 1101.34,897.262 1099.68,894.912 1097.92,892.688 1096.08,890.588 1094.15,888.609 1092.14,886.747 1090.05,884.996 1087.88,883.352 1085.64,881.807 1083.32,880.355 1080.93,878.988 1078.47,877.699 1075.95,876.478 1073.36,875.319 1070.7,874.212 1067.98,873.15 1065.21,872.125 1062.37,871.13 1059.47,870.157 1056.51,869.2 1053.5,868.253 1050.43,867.31 1047.3,866.368 1044.11,865.422 1040.87,864.469 1037.57,863.506 1034.22,862.531 1030.81,861.543 1027.34,860.542 1023.82,859.527 1020.24,858.498 1016.6,857.458 1012.91,856.406 1009.17,855.345 1005.37,854.277 1001.51,853.205 997.604,852.131 993.64,851.057 989.622,849.987 985.552,848.924 981.429,847.87 977.254,846.83 973.029,845.805 968.753,844.8 964.428,843.816 960.055,842.857 955.635,841.926 951.169,841.025 946.659,840.156 942.105,839.322 937.509,838.526 932.872,837.768 928.196,837.052 923.482,836.379 918.732,835.75 913.948,835.167 909.13,834.632 904.281,834.145 899.402,833.709 894.496,833.323 889.563,832.989 884.606,832.708 879.626,832.481 874.626,832.307 869.607,832.189 864.571,832.126 859.52,832.119 854.457,832.169 849.382,832.275 844.297,832.438 839.206,832.659 834.11,832.938 829.01,833.275 823.909,833.669 818.81,834.122 813.713,834.633 808.621,835.203 803.536,835.831 798.461,836.518 793.396,837.263 788.345,838.067 783.309,838.929 778.29,839.849 773.291,840.827 768.314,841.864 763.36,842.958 758.431,844.11 753.531,845.32 748.66,846.586 743.822,847.91 739.017,849.29 734.248,850.727 729.518,852.219 724.827,853.767 720.179,855.37 715.575,857.028 711.017,858.741 706.508,860.507 702.049,862.327 697.641,864.199 693.289,866.124 688.992,868.101 684.753,870.128 680.575,872.207 676.458,874.335 672.405,876.513 668.418,878.739 664.499,881.013 660.649,883.335 656.87,885.703 653.164,888.116 649.533,890.575 645.979,893.077 642.503,895.623 639.106,898.212 635.792,900.842 632.561,903.513 629.415,906.223 626.355,908.973 623.384,911.76 620.502,914.584 617.712,917.444 615.014,920.34 612.41,923.269 609.902,926.231 607.491,929.225 605.178,932.249 602.964,935.304 600.852,938.387 598.842,941.497 596.935,944.634 595.132,947.796 593.435,950.982 591.845,954.191 590.363,957.421 588.99,960.672 587.726,963.942 586.574,967.23 585.533,970.535 584.604,973.855 583.789,977.189 583.088,980.536 582.502,983.895 582.031,987.264 581.677,990.642 581.44,994.028 581.319,997.42 581.317,1000.82 581.433,1004.22 581.668,1007.62 582.023,1011.03 582.496,1014.43 583.09,1017.83 583.803,1021.23 584.637,1024.62 585.591,1028.01 586.666,1031.39 587.861,1034.76 589.176,1038.13 590.613,1041.48 592.169,1044.81 593.846,1048.14 595.642,1051.45 597.559,1054.74 599.595,1058.01 601.75,1061.26 604.024,1064.49 606.416,1067.7 608.926,1070.88 611.553,1074.04 614.297,1077.17 617.157,1080.28 620.132,1083.35 623.222,1086.39 626.426,1089.41 629.743,1092.38 633.172,1095.32 636.712,1098.23 640.362,1101.1 644.121,1103.93 647.989,1106.72 651.963,1109.46 656.043,1112.17 660.228,1114.83 664.516,1117.44 668.906,1120.01 673.396,1122.53 677.986,1125 682.673,1127.42 687.457,1129.79 692.335,1132.1 697.307,1134.36 702.369,1136.57 707.522,1138.72 712.762,1140.81 718.089,1142.84 723.5,1144.82 728.993,1146.73 734.567,1148.58 740.22,1150.36 745.95,1152.09 751.754,1153.74 757.63,1155.33 763.578,1156.85 769.593,1158.31 775.675,1159.69 781.82,1161.01 788.027,1162.25 794.294,1163.42 800.617,1164.51 806.995,1165.53 813.425,1166.48 819.904,1167.34 826.431,1168.13 833.002,1168.84 839.616,1169.47 846.268,1170.02 852.958,1170.49 859.681,1170.87 866.436,1171.17 873.219,1171.38 880.028,1171.5 886.859,1171.54 893.71,1171.48 900.579,1171.33 907.461,1171.09 914.353,1170.75 921.254,1170.31 928.159,1169.77 935.065,1169.13 941.968,1168.39 948.866,1167.53 955.755,1166.56 962.632,1165.47 969.492,1164.27 976.331,1162.93 983.146,1161.47 989.934,1159.86 996.688,1158.11 1003.41,1156.21 1010.08,1154.14 1016.71,1151.9 1023.29,1149.47 1029.81,1146.85 1036.26,1144 1042.65,1140.93 1048.96,1137.6 1055.19,1133.99 1061.33,1130.09 1067.37,1125.85 1073.3,1121.24 1079.11,1116.23 1084.8,1110.77 1090.34,1104.82 1095.73,1098.32 1100.95,1091.21 1105.99,1083.42 1110.82,1074.88 1115.43,1065.51 1119.8,1055.21 1123.91,1043.9 1127.72,1031.46 1131.21,1017.79 1134.36,1002.79 1137.11,986.323 1139.45,968.296 1141.33,948.604 1142.71,927.158 1143.55,903.892 1143.8,878.769 1143.42,851.796 1142.36,823.03 1140.59,792.596 1138.06,760.694 1134.74,727.613 1130.6,693.736 1125.63,659.546 1119.82,625.621 1113.19,592.622 1105.75,561.274 1097.55,532.336 1088.65,506.564 1079.13,484.668 1069.06,467.266 1058.57,454.844 1047.77,447.715 1036.76,446.002 1025.68,449.626 1014.65,458.314 1003.76,471.62 993.131,488.962 982.839,509.658 972.956,532.976 963.538,558.177 954.623,584.548 946.235,611.434 938.383,638.262 931.066,664.548 924.271,689.904 917.98,714.035 912.167,736.733 906.803,757.865 901.855,777.363 897.291,795.212 893.078,811.441 889.183,826.106 885.575,839.288 882.224,851.084 879.103,861.596 876.187,870.932 873.453,879.199 870.879,886.501 868.446,892.939 866.139,898.605 863.94,903.587 861.839,907.965 859.822,911.811 857.879,915.192 856.002,918.165 854.183,920.784 852.415,923.095 850.693,925.141 849.01,926.958 847.364,928.578 845.75,930.03 844.166,931.338 842.609,932.524 841.076,933.607 839.567,934.604 838.079,935.527 836.612,936.391 835.164,937.205 833.735,937.979 832.325,938.72 830.932,939.436 829.558,940.131 828.201,940.813 826.861,941.483 825.54,942.147 824.236,942.807 822.951,943.466 821.683,944.127 820.435,944.79 819.205,945.458 817.995,946.132 816.804,946.813 815.634,947.502 814.484,948.199 813.355,948.906 812.247,949.622 811.161,950.349 810.098,951.086 809.057,951.833 808.04,952.591 807.046,953.36 806.076,954.139 805.131,954.929 804.211,955.73 803.317,956.541 802.449,957.362 801.606,958.194 800.791,959.035 800.003,959.886 799.243,960.747 798.51,961.616 797.806,962.495 797.131,963.383 796.485,964.279 795.869,965.183 795.283,966.095 794.727,967.014 794.201,967.941 793.707,968.874 793.244,969.814 792.812,970.76 792.412,971.712 792.045,972.67 791.71,973.632 791.408,974.6 791.138,975.572 790.902,976.548 790.699,977.527 790.53,978.51 790.395,979.496 790.294,980.484 790.227,981.474 790.194,982.467 790.196,983.46 790.232,984.455 790.303,985.45 790.409,986.445 790.55,987.44 790.726,988.435 790.938,989.428 791.184,990.421 791.466,991.411 791.782,992.399 792.135,993.384 792.522,994.367 792.944,995.345 793.402,996.32 793.895,997.291 794.423,998.257 794.986,999.218 795.584,1000.17 796.217,1001.12 796.884,1002.07 797.586,1003 798.323,1003.93 799.093,1004.85 799.898,1005.77 800.737,1006.67 801.609,1007.57 802.515,1008.46 803.454,1009.34 804.427,1010.21 805.431,1011.06 806.469,1011.91 807.538,1012.75 808.64,1013.57 809.773,1014.39 810.937,1015.19 812.132,1015.98 813.358,1016.75 814.614,1017.51 815.899,1018.26 817.214,1019 818.558,1019.72 819.93,1020.42 821.331,1021.11 822.759,1021.79 824.214,1022.44 825.696,1023.09 827.204,1023.71 828.738,1024.32 830.297,1024.92 831.88,1025.49 833.488,1026.05 835.119,1026.59 836.773,1027.11 838.45,1027.61 840.148,1028.1 841.868,1028.56 843.608,1029.01 845.368,1029.43 847.148,1029.84 848.946,1030.22 850.762,1030.59 852.596,1030.93 854.446,1031.26 856.313,1031.56 858.194,1031.84 860.091,1032.1 862.001,1032.34 863.925,1032.56 865.861,1032.75 867.809,1032.92 869.768,1033.07 871.737,1033.2 873.715,1033.31 875.703,1033.39 877.698,1033.45 879.701,1033.48 881.71,1033.5 883.725,1033.49 885.744,1033.45 887.768,1033.4 889.795,1033.32 891.824,1033.21 893.855,1033.08 895.886,1032.93 897.918,1032.76 899.949,1032.56 901.978,1032.34 904.005,1032.09 906.028,1031.82 908.048,1031.53 910.062,1031.21 912.071,1030.87 914.072,1030.5 916.067,1030.12 918.053,1029.7 920.03,1029.27 921.997,1028.81 923.953,1028.33 925.897,1027.82 927.829,1027.3 929.747,1026.75 931.652,1026.17 933.541,1025.58 935.415,1024.96 937.272,1024.32 939.111,1023.65 940.933,1022.97 942.735,1022.26 944.517,1021.53 946.279,1020.79 948.019,1020.02 949.737,1019.22 951.432,1018.41 953.103,1017.58 954.75,1016.73 956.371,1015.86 957.966,1014.97 959.534,1014.06 961.075,1013.13 962.588,1012.18 964.071,1011.22 965.525,1010.23 966.949,1009.23 968.341,1008.22 969.702,1007.18 971.03,1006.13 972.325,1005.07 973.587,1003.98 974.814,1002.89 976.006,1001.78 977.162,1000.65 978.283,999.51 979.366,998.357 980.413,997.191 981.421,996.012 982.391,994.821 983.322,993.619 984.214,992.406 985.065,991.182 985.877,989.948 986.647,988.704 987.376,987.45 988.063,986.189 988.708,984.918 989.31,983.641 989.87,982.355 990.386,981.064 990.858,979.765 991.286,978.462 991.67,977.153 992.009,975.839 992.303,974.521 992.552,973.199 992.756,971.874 992.913,970.547 993.025,969.217 993.09,967.886 993.109,966.553 993.082,965.22 993.008,963.887 992.887,962.554 992.719,961.222 992.504,959.891 992.242,958.563 991.933,957.237 991.576,955.913 991.173,954.593 990.722,953.278 990.224,951.966 989.678,950.66 989.086,949.358 988.446,948.063 987.759,946.775 987.026,945.493 986.245,944.218 985.418,942.952 984.545,941.694 983.625,940.445 982.659,939.205 981.647,937.975 980.589,936.755 979.486,935.547 978.338,934.35 977.144,933.164 975.906,931.991 974.624,930.831 973.298,929.683 971.928,928.55 970.515,927.431 969.06,926.327 967.561,925.238 966.021,924.164 964.439,923.107 962.817,922.066 961.153,921.042 959.45,920.036 957.706,919.048 955.924,918.079 954.103,917.128 952.245,916.196 950.349,915.285 948.416,914.394 946.447,913.523 944.443,912.674 942.403,911.846 940.33,911.04 938.223,910.256 936.083,909.496 933.912,908.758 931.708,908.044 929.475,907.354 927.211,906.689 924.919,906.048 922.598,905.432 920.25,904.842 917.875,904.278 915.475,903.739 913.049,903.228 910.6,902.743 908.127,902.285 905.632,901.855 903.116,901.452 900.579,901.077 898.023,900.731 895.448,900.413 892.855,900.124 890.246,899.864 887.621,899.634 884.982,899.433 882.328,899.261 879.662,899.119 876.985,899.008 874.296,898.927 871.598,898.876 868.892,898.856 866.178,898.866 863.457,898.907 860.731,898.98 858,899.083 855.266,899.217 852.53,899.383 849.793,899.58 847.056,899.808 844.32,900.068 841.586,900.359 838.855,900.681 836.129,901.035 833.408,901.42 830.693,901.837 827.986,902.285 825.288,902.764 822.6,903.275 819.923,903.817 817.258,904.389 814.607,904.993 811.97,905.628 809.348,906.293 806.743,906.989 804.155,907.715 801.586,908.472 799.037,909.258 796.51,910.075 794.004,910.921 791.521,911.797 789.063,912.702 786.63,913.636 784.224,914.599 781.845,915.59 779.494,916.609 777.173,917.656 774.883,918.731 772.625,919.833 770.399,920.962 768.207,922.118 766.05,923.3 763.928,924.508 761.844,925.741 759.797,926.999 757.788,928.282 755.82,929.589 753.892,930.921 752.006,932.275 750.162,933.653 748.361,935.053 746.605,936.475 744.894,937.919 743.228,939.383 741.61,940.869 740.04,942.374 738.518,943.899 737.045,945.443 735.622,947.005 734.25,948.585 732.93,950.183 731.662,951.797 730.448,953.428 729.287,955.074 728.18,956.735 727.129,958.41 726.133,960.099 725.194,961.802 724.312,963.517 723.487,965.244 722.721,966.982 722.013,968.73 721.364,970.489 720.775,972.257 720.246,974.033 719.777,975.817 719.37,977.609 719.024,979.407 718.74,981.211 718.518,983.02 718.358,984.834 718.261,986.651 718.228,988.471 718.258,990.293 718.351,992.117 718.508,993.942 718.729,995.767 719.014,997.591 719.364,999.414 719.778,1001.24 720.257,1003.05 720.8,1004.87 721.407,1006.68 722.08,1008.48 722.817,1010.28 723.618,1012.07 724.484,1013.86 725.414,1015.64 726.409,1017.4 727.468,1019.16 728.591,1020.91 729.777,1022.65 731.027,1024.37 732.341,1026.09 733.717,1027.79 735.156,1029.47 736.658,1031.14 738.222,1032.8 739.847,1034.44 741.533,1036.06 743.28,1037.66 745.088,1039.25 746.955,1040.82 748.882,1042.36 750.868,1043.89 752.911,1045.39 755.013,1046.88 757.171,1048.34 759.386,1049.77 761.656,1051.19 763.982,1052.57 766.361,1053.94 768.795,1055.27 771.281,1056.58 773.819,1057.86 776.408,1059.12 779.047,1060.35 781.736,1061.54 784.473,1062.71 787.258,1063.84 790.09,1064.95 792.968,1066.02 795.89,1067.07 798.856,1068.07 801.865,1069.05 804.915,1069.99 808.006,1070.9 811.136,1071.77 814.305,1072.61 817.512,1073.41 820.754,1074.17 824.031,1074.9 827.342,1075.59 830.685,1076.24 834.06,1076.85 837.465,1077.43 840.899,1077.96 844.36,1078.46 847.847,1078.91 851.36,1079.33 854.895,1079.7 858.453,1080.04 862.032,1080.33 865.631,1080.58 869.247,1080.79 872.88,1080.95 876.528,1081.08 880.19,1081.15 883.865,1081.19 887.55,1081.18 891.245,1081.13 894.947,1081.04 898.657,1080.9 902.37,1080.72 906.088,1080.49 909.807,1080.21 913.527,1079.9 917.245,1079.53 920.961,1079.12 924.672,1078.67 928.378,1078.17 932.076,1077.63 935.765,1077.03 939.443,1076.4 943.11,1075.72 946.762,1074.99 950.399,1074.21 954.019,1073.39 957.621,1072.53 961.202,1071.62 964.762,1070.66 968.298,1069.66 971.809,1068.61 975.294,1067.52 978.75,1066.38 982.176,1065.19 985.571,1063.96 988.933,1062.69 992.261,1061.37 995.552,1060 998.805,1058.59 1002.02,1057.14 1005.19,1055.64 1008.32,1054.1 1011.41,1052.52 1014.45,1050.89 1017.44,1049.22 1020.39,1047.51 1023.28,1045.76 1026.12,1043.96 1028.91,1042.13 1031.65,1040.25 1034.32,1038.34 1036.95,1036.38 1039.51,1034.39 1042.01,1032.36 1044.45,1030.29 1046.82,1028.19 1049.13,1026.05 1051.38,1023.88 1053.55,1021.68 1055.66,1019.44 1057.7,1017.17 1059.67,1014.88 1061.57,1012.55 1063.39,1010.2 1065.14,1007.83 1066.81,1005.42 1068.41,1003 1069.93,1000.56 1071.37,998.095 1072.73,995.615 1074.01,993.119 1075.21,990.611 1076.33,988.09 1077.36,985.56 1078.32,983.023 1079.19,980.48 1079.98,977.934 1080.68,975.387 1081.3,972.84 1081.83,970.297 1082.28,967.758 1082.64,965.227 1082.91,962.705 1083.1,960.195 1083.21,957.697 1083.23,955.215 1083.16,952.749 1083.01,950.301 1082.77,947.874 1082.45,945.468 1082.04,943.084 1081.55,940.725 1080.97,938.39 1080.31,936.081 1079.56,933.799 1078.74,931.544 1077.83,929.316 1076.83,927.117 1075.76,924.945 1074.61,922.802 1073.37,920.686 1072.06,918.598 1070.67,916.538 1069.19,914.505 1067.64,912.498 1066.01,910.518 1064.31,908.562 1062.53,906.632 1060.67,904.725 1058.74,902.842 1056.73,900.982 1054.65,899.144 1052.5,897.327 1050.27,895.532 1047.97,893.757 1045.6,892.002 1043.16,890.267 1040.64,888.552 1038.06,886.856 1035.41,885.18 1032.69,883.523 1029.9,881.886 1027.04,880.269 1024.12,878.673 1021.13,877.098 1018.07,875.544 1014.95,874.012 1011.77,872.504 1008.52,871.019 1005.22,869.559 1001.84,868.125 998.414,866.717 994.924,865.338 991.375,863.987 987.768,862.666 984.105,861.376 980.386,860.118 976.613,858.894 972.786,857.704 968.907,856.55 964.978,855.432 960.998,854.352 956.97,853.311 952.895,852.31 948.775,851.35 944.609,850.431 940.401,849.555 936.151,848.723 931.861,847.936 927.533,847.193 923.167,846.497 918.766,845.847 914.331,845.245 909.863,844.691 905.365,844.186 900.837,843.73 896.283,843.324 891.702,842.968 887.097,842.663 882.471,842.41 877.823,842.208 873.157,842.058 868.474,841.961 863.775,841.917 859.063,841.925 854.34,841.987 849.606,842.103 844.865,842.272 840.118,842.496 835.366,842.773 830.613,843.105 825.859,843.491 821.106,843.932 816.357,844.427 811.613,844.976 806.876,845.581 802.149,846.24 797.432,846.953 792.729,847.721 788.04,848.544 783.369,849.42 778.716,850.351 774.084,851.336 769.475,852.375 764.89,853.467 760.332,854.613 755.802,855.813 751.303,857.065 746.836,858.369 742.403,859.727 738.007,861.136 733.649,862.597 729.33,864.109 725.054,865.672 720.821,867.286 716.634,868.949 712.494,870.662 708.403,872.425 704.364,874.236 700.378,876.095 696.446,878.001 692.572,879.955 688.755,881.954 684.999,884 681.304,886.091 677.673,888.226 674.107,890.404 670.609,892.626 667.178,894.891 663.819,897.197 660.531,899.543 657.317,901.93 654.177,904.356 651.115,906.821 648.131,909.323 645.226,911.862 642.403,914.437 639.662,917.047 637.005,919.691 634.434,922.368 631.95,925.078 629.553,927.819 627.247,930.59 625.031,933.39 622.907,936.219 620.876,939.075 618.94,941.958 617.1,944.865 615.356,947.797 613.71,950.752 612.163,953.729 610.715,956.727 609.369,959.744 608.124,962.78 606.982,965.834 605.943,968.904 605.009,971.989 604.18,975.088 603.457,978.2 602.841,981.324 602.332,984.458 601.93,987.601 601.638,990.752 601.454,993.909 601.38,997.072 601.416,1000.24 601.563,1003.41 601.82,1006.58 602.189,1009.75 602.669,1012.93 603.26,1016.1 603.964,1019.26 604.78,1022.42 605.708,1025.58 606.748,1028.73 607.901,1031.87 609.166,1035 610.543,1038.11 612.032,1041.22 613.633,1044.31 615.346,1047.39 617.171,1050.45 619.107,1053.49 621.154,1056.52 623.311,1059.52 625.578,1062.5 627.956,1065.46 630.442,1068.4 633.036,1071.31 635.739,1074.19 638.549,1077.05 641.466,1079.87 644.488,1082.67 647.615,1085.43 650.847,1088.16 654.182,1090.86 657.619,1093.52 661.157,1096.14 664.796,1098.73 668.535,1101.27 672.371,1103.78 676.304,1106.24 680.334,1108.66 684.457,1111.04 688.675,1113.37 692.984,1115.66 697.383,1117.9 701.872,1120.09 706.448,1122.23 711.111,1124.32 715.858,1126.35 720.689,1128.34 725.601,1130.27 730.592,1132.14 735.662,1133.96 740.808,1135.72 746.028,1137.43 751.321,1139.07 756.685,1140.66 762.118,1142.18 767.618,1143.64 773.183,1145.04 778.811,1146.37 784.499,1147.64 790.247,1148.84 796.051,1149.98 801.91,1151.04 807.821,1152.04 813.782,1152.97 819.791,1153.83 825.846,1154.61 831.944,1155.33 838.082,1155.97 844.259,1156.54 850.472,1157.03 856.719,1157.44 862.996,1157.78 869.302,1158.04 875.634,1158.22 881.989,1158.31 888.364,1158.33 894.758,1158.27 901.166,1158.12 907.587,1157.88 914.018,1157.56 920.455,1157.15 926.896,1156.65 933.338,1156.05 939.777,1155.37 946.212,1154.58 952.637,1153.7 959.052,1152.72 965.451,1151.63 971.833,1150.44 978.192,1149.13 984.527,1147.71 990.832,1146.17 997.105,1144.5 1003.34,1142.71 1009.54,1140.78 1015.69,1138.7 1021.79,1136.47 1027.84,1134.09 1033.83,1131.53 1039.76,1128.79 1045.62,1125.85 1051.4,1122.7 1057.11,1119.33 1062.72,1115.72 1068.25,1111.84 1073.67,1107.68 1078.98,1103.2 1084.18,1098.39 1089.25,1093.21 1094.18,1087.62 1098.97,1081.59 1103.6,1075.08 1108.05,1068.05 1112.33,1060.44 1116.4,1052.2 1120.25,1043.28 1123.87,1033.63 1127.24,1023.17 1130.34,1011.85 1133.14,999.612 1135.63,986.391 1137.77,972.134 1139.55,956.793 1140.93,940.33 1141.89,922.721 1142.4,903.963 1142.43,884.072 1141.96,863.099 1140.96,841.124 1139.4,818.27 1137.26,794.703 1134.54,770.634 1131.21,746.324 1127.27,722.082 1122.73,698.259 1117.59,675.239 1111.88,653.432 1105.62,633.259 1098.86,615.129 1091.64,599.426 1084.02,586.486 1076.06,576.58 1067.83,569.898 1059.41,566.535 1050.87,566.492 1042.28,569.669 1033.72,575.875 1025.25,584.842 1016.93,596.236 1008.81,609.681 1000.94,624.775 993.361,641.109 986.087,658.285 979.142,675.932 972.534,693.71 966.269,711.327 960.341,728.532 954.744,745.124 949.464,760.947 944.487,775.887 939.795,789.869 935.369,802.849 931.188,814.813 927.233,825.769 923.483,835.742 919.92,844.772 916.524,852.907 913.278,860.204 910.166,866.723 907.172,872.523 904.282,877.667 901.484,882.215 898.766,886.224 896.117,889.75 893.529,892.843 890.992,895.553 888.501,897.922 886.048,899.992 883.628,901.799 881.235,903.378 878.867,904.758 876.519,905.966 874.187,907.027 871.871,907.962 869.567,908.791 867.274,909.529 864.99,910.193 862.714,910.796 860.446,911.349 858.184,911.862 855.929,912.345 853.68,912.804 851.438,913.247 849.201,913.68 846.971,914.108 844.747,914.534 842.53,914.964 840.321,915.4 838.12,915.844 835.928,916.3 833.745,916.77 831.571,917.254 829.408,917.755 827.257,918.274 825.117,918.811 822.991,919.369 820.878,919.946 818.779,920.545 816.696,921.164 814.629,921.806 812.579,922.469 810.546,923.155 808.533,923.863 806.538,924.594 804.565,925.346 802.612,926.122 800.681,926.919 798.773,927.739 796.889,928.58 795.03,929.444 793.195,930.33 791.387,931.237 789.607,932.165 787.854,933.114 786.129,934.084 784.434,935.075 782.769,936.086 781.136,937.117 779.534,938.168 777.965,939.237 776.429,940.326 774.927,941.434 773.46,942.56 772.028,943.703 770.633,944.864 769.275,946.043 767.954,947.238 766.672,948.449 765.429,949.676 764.225,950.919 763.062,952.177 761.939,953.449 760.858,954.736 759.819,956.036 758.823,957.349 757.87,958.675 756.961,960.014 756.097,961.364 755.277,962.725 754.502,964.097 753.774,965.48 753.092,966.872 752.456,968.274 751.868,969.684 751.328,971.102 750.836,972.528 750.392,973.962 749.997,975.401 749.651,976.847 749.354,978.298 749.108,979.754 748.912,981.215 748.766,982.679 748.67,984.146 748.626,985.616 748.633,987.088 748.691,988.562 748.8,990.036 748.962,991.511 749.175,992.985 749.44,994.458 749.757,995.93 750.126,997.399 750.547,998.866 751.021,1000.33 751.546,1001.79 752.124,1003.24 752.754,1004.69 753.436,1006.14 754.171,1007.58 754.957,1009.01 755.795,1010.43 756.685,1011.85 757.626,1013.25 758.619,1014.65 759.663,1016.04 760.758,1017.41 761.904,1018.78 763.1,1020.13 764.346,1021.47 765.643,1022.8 766.989,1024.12 768.384,1025.42 769.828,1026.7 771.321,1027.97 772.861,1029.23 774.45,1030.47 776.085,1031.69 777.767,1032.89 779.496,1034.08 781.27,1035.25 783.089,1036.39 784.953,1037.52 786.861,1038.63 788.812,1039.72 790.807,1040.78 792.843,1041.82 794.921,1042.84 797.04,1043.84 799.199,1044.82 801.398,1045.77 803.635,1046.69 805.91,1047.6 808.223,1048.47 810.572,1049.32 812.956,1050.15 815.375,1050.94 817.829,1051.71 820.315,1052.46 822.834,1053.17 825.384,1053.86 827.964,1054.51 830.574,1055.14 833.213,1055.74 835.879,1056.31 838.571,1056.84 841.29,1057.35 844.033,1057.83 846.799,1058.27 849.589,1058.68 852.4,1059.06 855.231,1059.41 858.082,1059.73 860.951,1060.01 863.837,1060.26 866.74,1060.48 869.658,1060.66 872.589,1060.81 875.533,1060.92 878.489,1061 881.456,1061.05 884.432,1061.06 887.415,1061.04 890.406,1060.98 893.403,1060.88 896.404,1060.75 899.408,1060.59 902.415,1060.39 905.422,1060.15 908.429,1059.88 911.435,1059.57 914.438,1059.23 917.437,1058.85 920.43,1058.44 923.417,1057.99 926.396,1057.5 929.366,1056.98 932.326,1056.42 935.274,1055.82 938.209,1055.19 941.13,1054.53 944.036,1053.83 946.926,1053.09 949.797,1052.32 952.649,1051.51 955.481,1050.67 958.291,1049.79 961.079,1048.88 963.842,1047.94 966.58,1046.96 969.291,1045.95 971.975,1044.9 974.629,1043.82 977.253,1042.7 979.845,1041.56 982.405,1040.38 984.931,1039.17 987.422,1037.93 989.877,1036.66 992.294,1035.35 994.672,1034.02 997.011,1032.65 999.309,1031.26 1001.57,1029.84 1003.78,1028.39 1005.95,1026.91 1008.07,1025.41 1010.15,1023.87 1012.18,1022.32 1014.16,1020.73 1016.09,1019.12 1017.98,1017.49 1019.81,1015.84 1021.59,1014.16 1023.31,1012.46 1024.98,1010.74 1026.6,1009 1028.16,1007.24 1029.66,1005.46 1031.11,1003.66 1032.5,1001.85 1033.83,1000.02 1035.1,998.178 1036.31,996.32 1037.46,994.448 1038.55,992.564 1039.57,990.668 1040.53,988.762 1041.43,986.846 1042.27,984.922 1043.04,982.99 1043.74,981.051 1044.38,979.107 1044.96,977.158 1045.46,975.204 1045.9,973.248 1046.28,971.29 1046.58,969.33 1046.82,967.371 1047,965.411 1047.1,963.454 1047.13,961.498 1047.1,959.545 1047,957.596 1046.83,955.652 1046.59,953.713 1046.28,951.78 1045.91,949.853 1045.46,947.934 1044.95,946.022 1044.37,944.119 1043.72,942.226 1043,940.341 1042.21,938.467 1041.35,936.604 1040.43,934.752 1039.44,932.911 1038.38,931.083 1037.25,929.267 1036.06,927.465 1034.79,925.676 1033.47,923.9 1032.07,922.14 1030.61,920.394 1029.08,918.663 1027.49,916.948 1025.83,915.249 1024.11,913.567 1022.33,911.902 1020.48,910.254 1018.56,908.625 1016.59,907.014 1014.55,905.422 1012.45,903.85 1010.29,902.299 1008.07,900.768 1005.79,899.258 1003.45,897.771 1001.05,896.306 998.592,894.864 996.077,893.446 993.506,892.053 990.879,890.685 988.197,889.342 985.461,888.027 982.671,886.738 979.829,885.478 976.934,884.246 973.99,883.043 970.995,881.871 967.951,880.729 964.859,879.618 961.721,878.54 958.536,877.494 955.307,876.481 952.034,875.502 948.718,874.558 945.361,873.65 941.963,872.777 938.526,871.94 935.051,871.141 931.539,870.379 927.991,869.655 924.409,868.969 920.794,868.323 917.147,867.717 913.47,867.15 909.764,866.624 906.03,866.14 902.269,865.696 898.484,865.295 894.674,864.935 890.843,864.618 886.991,864.344 883.119,864.113 879.23,863.926 875.324,863.783 871.404,863.683 867.47,863.628 863.524,863.617 859.567,863.652 855.603,863.731 851.63,863.855 847.652,864.024 843.67,864.239 839.686,864.499 835.7,864.805 831.715,865.157 827.733,865.554 823.754,865.997 819.78,866.486 815.814,867.02 811.856,867.601 807.908,868.227 803.973,868.898 800.051,869.615 796.143,870.378 792.253,871.186 788.381,872.039 784.529,872.937 780.699,873.88 776.892,874.868 773.11,875.9 769.354,876.977 765.627,878.097 761.929,879.262 758.262,880.469 754.628,881.72 751.029,883.013 747.466,884.349 743.94,885.727 740.454,887.147 737.008,888.608 733.604,890.11 730.245,891.653 726.93,893.235 723.663,894.857 720.444,896.518 717.274,898.218 714.156,899.955 711.091,901.73 708.079,903.542 705.124,905.391 702.225,907.275 699.385,909.194 696.604,911.147 693.885,913.135 691.228,915.155 688.635,917.209 686.106,919.294 683.644,921.41 681.25,923.556 678.925,925.732 676.669,927.937 674.485,930.17 672.373,932.431 670.334,934.718 668.37,937.031 666.482,939.368 664.67,941.73 662.937,944.115 661.282,946.523 659.706,948.951 658.212,951.401 656.799,953.87 655.468,956.358 654.221,958.864 653.058,961.386 651.98,963.925 650.988,966.479 650.082,969.047 649.264,971.627 648.533,974.22 647.891,976.824 647.338,979.439 646.875,982.062 646.502,984.693 646.22,987.332 646.029,989.976 645.93,992.626 645.923,995.279 646.008,997.935 646.186,1000.59 646.457,1003.25 646.822,1005.91 647.28,1008.57 647.832,1011.22 648.478,1013.87 649.217,1016.52 650.051,1019.16 650.979,1021.8 652.001,1024.42 653.118,1027.04 654.328,1029.65 655.632,1032.24 657.03,1034.83 658.521,1037.4 660.106,1039.95 661.784,1042.49 663.555,1045.02 665.418,1047.53 667.373,1050.01 669.42,1052.48 671.558,1054.93 673.787,1057.35 676.105,1059.75 678.514,1062.13 681.011,1064.48 683.596,1066.81 686.27,1069.11 689.03,1071.38 691.876,1073.62 694.807,1075.83 697.823,1078.01 700.922,1080.16 704.104,1082.27 707.368,1084.35 710.713,1086.39 714.137,1088.4 717.64,1090.37 721.22,1092.3 724.877,1094.19 728.609,1096.04 732.414,1097.85 736.293,1099.62 740.243,1101.35 744.263,1103.03 748.352,1104.66 752.509,1106.25 756.731,1107.8 761.018,1109.29 765.368,1110.74 769.779,1112.14 774.251,1113.49 778.781,1114.78 783.368,1116.03 788.01,1117.22 792.705,1118.36 797.452,1119.45 802.25,1120.48 807.095,1121.46 811.987,1122.38 816.924,1123.24 821.904,1124.05 826.924,1124.8 831.984,1125.48 837.08,1126.11 842.212,1126.68 847.377,1127.19 852.574,1127.64 857.799,1128.02 863.051,1128.34 868.329,1128.6 873.629,1128.79 878.95,1128.92 884.29,1128.98 889.646,1128.98 895.017,1128.91 900.399,1128.77 905.791,1128.57 911.19,1128.29 916.595,1127.95 922.002,1127.53 927.41,1127.05 932.816,1126.49 938.218,1125.86 943.613,1125.16 948.998,1124.38 954.372,1123.53 959.732,1122.6 965.075,1121.59 970.398,1120.5 975.7,1119.33 980.977,1118.08 986.226,1116.75 991.446,1115.33 996.632,1113.83 1001.78,1112.23 1006.9,1110.55 1011.97,1108.77 1016.99,1106.9 1021.97,1104.93 1026.9,1102.85 1031.77,1100.67 1036.59,1098.39 1041.35,1095.99 1046.04,1093.47 1050.66,1090.83 1055.22,1088.07 1059.7,1085.17 1064.09,1082.14 1068.41,1078.97 1072.64,1075.64 1076.78,1072.16 1080.82,1068.51 1084.76,1064.69 1088.59,1060.69 1092.31,1056.51 1095.92,1052.12 1099.4,1047.53 1102.76,1042.72 1105.99,1037.68 1109.07,1032.42 1112.01,1026.9 1114.79,1021.14 1117.42,1015.11 1119.88,1008.82 1122.16,1002.25 1124.27,995.413 1126.18,988.291 1127.91,980.89 1129.42,973.212 1130.73,965.264 1131.82,957.056 1132.69,948.601 1133.33,939.919 1133.73,931.032 1133.89,921.97 1133.8,912.768 1133.46,903.465 1132.87,894.109 1132.02,884.751 1130.92,875.448 1129.56,866.261 1127.95,857.258 1126.09,848.505 1123.99,840.073 1121.65,832.032 1119.09,824.451 1116.31,817.395 1113.32,810.927 1110.14,805.099 1106.79,799.959 1103.27,795.543 1099.61,791.877 1095.82,788.977 1091.91,786.845 1087.92,785.471 1083.84,784.835 1079.71,784.905 1075.53,785.639 1071.33,786.985 1067.1,788.887 1062.88,791.28 1058.66,794.097 1054.46,797.269 1050.28,800.726 1046.14,804.4 1042.04,808.224 1037.98,812.137 1033.96,816.081 1029.99,820.004 1026.06,823.859 1022.18,827.605 1018.34,831.209 1014.54,834.642 1010.78,837.882 1007.06,840.912 1003.36,843.721 999.693,846.301 996.047,848.65 992.419,850.767 988.805,852.659 985.2,854.329 981.601,855.788 978.004,857.046 974.405,858.114 970.801,859.005 967.188,859.732 963.565,860.309 959.927,860.75 956.274,861.068 952.602,861.276 948.911,861.389 945.199,861.417 941.464,861.373 937.706,861.269 933.924,861.115 930.117,860.92 926.286,860.695 922.43,860.447 918.549,860.184 914.644,859.913 910.714,859.642 906.762,859.375 902.786,859.118 898.788,858.876 894.769,858.653 890.73,858.453 886.672,858.279 882.596,858.134 878.504,858.021 874.396,857.942 870.274,857.899 866.139,857.895 861.993,857.93 857.837,858.005 853.673,858.123 849.502,858.284 845.326,858.489 841.146,858.738 836.965,859.033 832.782,859.373 828.601,859.76 824.423,860.193 820.249,860.673 816.082,861.2 811.922,861.774 807.772,862.396 803.633,863.065 799.507,863.781 795.395,864.545 791.3,865.357 787.222,866.215 783.165,867.121 779.128,868.074 775.115,869.074 771.126,870.12 767.164,871.214 763.23,872.353 759.326,873.538 755.454,874.77 751.614,876.046 747.81,877.368 744.041,878.735 740.312,880.146 736.621,881.601 732.973,883.1 729.367,884.642 725.806,886.227 722.292,887.855 718.825,889.524 715.408,891.234 712.042,892.986 708.728,894.777 705.469,896.609 702.265,898.479 699.118,900.388 696.03,902.336 693.002,904.32 690.036,906.341 687.132,908.399 684.293,910.491 681.52,912.619 678.814,914.78 676.176,916.974 673.609,919.201 671.112,921.46 668.688,923.75 666.338,926.069 664.063,928.419 661.863,930.796 659.742,933.201 657.698,935.634 655.735,938.092 653.852,940.575 652.05,943.082 650.332,945.613 648.698,948.166 647.148,950.74 645.684,953.335 644.307,955.949 643.018,958.582 641.817,961.233 640.705,963.9 639.684,966.582 638.754,969.279 637.915,971.99 637.168,974.713 636.515,977.447 635.955,980.192 635.49,982.946 635.119,985.709 634.844,988.479 634.664,991.254 634.581,994.035 634.595,996.82 634.705,999.607 634.913,1002.4 635.219,1005.19 635.622,1007.97 636.124,1010.76 636.725,1013.55 637.424,1016.33 638.221,1019.1 639.117,1021.87 640.112,1024.63 641.206,1027.39 642.399,1030.13 643.69,1032.87 645.079,1035.59 646.567,1038.3 648.153,1040.99 649.837,1043.67 651.619,1046.33 653.498,1048.97 655.473,1051.6 657.546,1054.21 659.714,1056.79 661.977,1059.35 664.336,1061.89 666.789,1064.41 669.336,1066.9 671.977,1069.36 674.709,1071.79 677.534,1074.2 680.449,1076.57 683.455,1078.92 686.55,1081.23 689.733,1083.51 693.004,1085.76 696.361,1087.97 699.804,1090.14 703.331,1092.28 706.941,1094.37 710.634,1096.43 714.408,1098.45 718.262,1100.42 722.194,1102.36 726.204,1104.25 730.29,1106.09 734.45,1107.89 738.684,1109.65 742.989,1111.35 747.365,1113.01 751.81,1114.62 756.323,1116.18 760.901,1117.68 765.543,1119.14 770.248,1120.54 775.014,1121.89 779.839,1123.19 784.722,1124.43 789.66,1125.61 794.652,1126.74 799.696,1127.81 804.791,1128.82 809.934,1129.77 815.123,1130.66 820.357,1131.49 825.634,1132.26 830.951,1132.97 836.306,1133.62 841.698,1134.2 847.124,1134.71 852.582,1135.17 858.071,1135.55 863.587,1135.87 869.129,1136.12 874.694,1136.31 880.281,1136.42 885.887,1136.47 891.509,1136.44 897.145,1136.35 902.793,1136.18 908.451,1135.94 914.116,1135.63 919.785,1135.24 925.457,1134.78 931.128,1134.24 936.796,1133.62 942.459,1132.93 948.114,1132.15 953.758,1131.3 959.388,1130.36 965.003,1129.34 970.598,1128.23 976.172,1127.03 981.722,1125.75 987.244,1124.38 992.735,1122.91 998.193,1121.34 1003.61,1119.68 1009,1117.92 1014.34,1116.05 1019.63,1114.07 1024.87,1111.98 1030.06,1109.77 1035.19,1107.44 1040.27,1104.98 1045.27,1102.39 1050.21,1099.66 1055.08,1096.78 1059.87,1093.75 1064.58,1090.56 1069.2,1087.2 1073.74,1083.65 1078.17,1079.92 1082.5,1075.98 1086.73,1071.83 1090.84,1067.45 1094.84,1062.83 1098.7,1057.96 1102.44,1052.81 1106.03,1047.38 1109.48,1041.64 1112.77,1035.59 1115.89,1029.2 1118.84,1022.46 1121.61,1015.35 1124.18,1007.87 1126.55,999.98 1128.71,991.689 1130.65,982.984 1132.35,973.858 1133.81,964.312 1135.02,954.349 1135.95,943.982 1136.61,933.227 1136.99,922.109 1137.07,910.665 1136.85,898.937 1136.31,886.981 1135.46,874.861 1134.29,862.654 1132.8,850.446 1130.98,838.333 1128.84,826.421 1126.38,814.82 1123.62,803.647 1120.55,793.021 1117.19,783.058 1113.57,773.874 1109.68,765.572 1105.56,758.247 1101.23,751.978 1096.72,746.829 1092.03,742.841 1087.21,740.036 1082.28,738.413 1077.27,737.95 1072.2,738.601 1067.09,740.304 1061.98,742.979 1056.88,746.53 1051.81,750.853 1046.79,755.835 1041.83,761.361 1036.95,767.313 1032.16,773.577 1027.46,780.045 1022.86,786.616 1018.35,793.196 1013.96,799.704 1009.66,806.067 1005.46,812.225 1001.36,818.129 997.344,823.738 993.416,829.024 989.568,833.966 985.792,838.551 982.083,842.774 978.432,846.635 974.833,850.142 971.28,853.303 967.765,856.133 964.283,858.648 960.828,860.865 957.393,862.805 953.975,864.487 950.568,865.933 947.168,867.163 943.77,868.197 940.372,869.055 936.971,869.755 933.563,870.317 930.147,870.757 926.72,871.092 923.281,871.335 919.828,871.502 916.361,871.605 912.878,871.655 909.379,871.664 905.864,871.641 902.333,871.595 898.786,871.534 895.222,871.466 891.643,871.396 888.049,871.33 884.44,871.273 880.817,871.23 877.182,871.205 873.535,871.201 869.876,871.222 866.208,871.269 862.531,871.345 858.846,871.453 855.155,871.594 851.459,871.769 847.759,871.981 844.057,872.229 840.354,872.515 836.651,872.84 832.949,873.204 829.251,873.608 825.558,874.052 821.87,874.537 818.19,875.063 814.519,875.63 810.858,876.239 807.21,876.889 803.574,877.581 799.954,878.314 796.35,879.089 792.764,879.906 789.198,880.764 785.652,881.663 782.129,882.603 778.629,883.585 775.155,884.607 771.708,885.67 768.29,886.774 764.901,887.917 761.543,889.1 758.218,890.323 754.928,891.585 751.673,892.886 748.456,894.225 745.277,895.603 742.138,897.018 739.04,898.47 735.986,899.96 732.975,901.486 730.01,903.048 727.092,904.645 724.223,906.278 721.403,907.944 718.634,909.645 715.918,911.38 713.255,913.147 710.647,914.946 708.095,916.778 705.601,918.64 703.165,920.533 700.789,922.455 698.474,924.407 696.222,926.388 694.032,928.396 691.908,930.431 689.848,932.493 687.856,934.58 685.931,936.693 684.075,938.83 682.289,940.99 680.574,943.173 678.93,945.378 677.359,947.604 675.862,949.85 674.439,952.116 673.092,954.4 671.821,956.703 670.627,959.022 669.51,961.358 668.473,963.708 667.514,966.073 666.636,968.452 665.838,970.843 665.122,973.246 664.488,975.659 663.936,978.082 663.467,980.514 663.082,982.955 662.781,985.402 662.564,987.855 662.433,990.313 662.386,992.775 662.426,995.241 662.551,997.708 662.763,1000.18 663.061,1002.65 663.446,1005.11 663.918,1007.58 664.477,1010.04 665.124,1012.5 665.858,1014.96 666.679,1017.41 667.587,1019.85 668.583,1022.28 669.667,1024.71 670.837,1027.12 672.095,1029.53 673.44,1031.92 674.871,1034.3 676.389,1036.67 677.994,1039.02 679.684,1041.35 681.46,1043.67 683.321,1045.97 685.267,1048.25 687.298,1050.51 689.412,1052.75 691.61,1054.97 693.891,1057.17 696.254,1059.34 698.698,1061.48 701.224,1063.61 703.829,1065.7 706.515,1067.76 709.279,1069.8 712.121,1071.81 715.04,1073.79 718.036,1075.73 721.107,1077.64 724.252,1079.52 727.471,1081.37 730.762,1083.18 734.125,1084.95 737.558,1086.69 741.06,1088.38 744.63,1090.04 748.267,1091.66 751.97,1093.24 755.738,1094.78 759.568,1096.28 763.461,1097.73 767.414,1099.14 771.426,1100.51 775.496,1101.82 779.622,1103.1 783.804,1104.33 788.038,1105.51 792.325,1106.64 796.662,1107.72 801.048,1108.75 805.481,1109.73 809.96,1110.66 814.483,1111.54 819.048,1112.37 823.654,1113.15 828.298,1113.87 832.98,1114.53 837.697,1115.14 842.447,1115.7 847.23,1116.2 852.042,1116.64 856.882,1117.03 861.748,1117.36 866.639,1117.63 871.551,1117.84 876.484,1117.99 881.436,1118.08 886.403,1118.12 891.385,1118.09 896.38,1118 901.384,1117.85 906.397,1117.63 911.415,1117.35 916.438,1117.01 921.462,1116.61 926.486,1116.14 931.507,1115.6 936.524,1115 941.533,1114.33 946.533,1113.6 951.522,1112.79 956.497,1111.92 961.456,1110.98 966.396,1109.97 971.316,1108.89 976.212,1107.74 981.083,1106.52 985.926,1105.22 990.739,1103.85 995.519,1102.4 1000.26,1100.88 1004.97,1099.28 1009.64,1097.6 1014.26,1095.84 1018.84,1093.99 1023.36,1092.07 1027.84,1090.05 1032.27,1087.95 1036.63,1085.76 1040.94,1083.48 1045.19,1081.11 1049.37,1078.64 1053.48,1076.07 1057.52,1073.4 1061.48,1070.62 1065.37,1067.74 1069.18,1064.74 1072.9,1061.63 1076.53,1058.41 1080.07,1055.06 1083.52,1051.59 1086.87,1048 1090.11,1044.27 1093.25,1040.4 1096.28,1036.4 1099.2,1032.26 1101.99,1027.98 1104.67,1023.55 1107.21,1018.97 1109.63,1014.24 1111.91,1009.37 1114.05,1004.34 1116.05,999.163 1117.9,993.84 1119.6,988.374 1121.14,982.769 1122.53,977.032 1123.75,971.171 1124.8,965.195 1125.68,959.117 1126.39,952.95 1126.92,946.71 1127.28,940.415 1127.45,934.085 1127.45,927.743 1127.26,921.413 1126.89,915.122 1126.33,908.896 1125.6,902.766 1124.68,896.76 1123.59,890.91 1122.33,885.246 1120.89,879.798 1119.3,874.596 1117.54,869.667 1115.63,865.037 1113.57,860.727 1111.37,856.759 1109.04,853.148 1106.58,849.906 1104.01,847.041 1101.33,844.556 1098.56,842.45 1095.69,840.717 1092.74,839.347 1089.71,838.325 1086.62,837.632 1083.48,837.248 1080.28,837.148 1077.03,837.304 1073.75,837.688 1070.43,838.271 1067.08,839.022 1063.71,839.91 1060.32,840.905 1056.91,841.98 1053.48,843.105 1050.04,844.256 1046.58,845.408 1043.11,846.542 1039.62,847.636 1036.12,848.675 1032.61,849.646 1029.08,850.535 1025.53,851.336 1021.97,852.04 1018.38,852.643 1014.78,853.143 1011.15,853.538 1007.49,853.831 1003.81,854.023 1000.1,854.117 996.366,854.119 992.597,854.033 988.795,853.867 984.96,853.626 981.09,853.318 977.184,852.95 973.242,852.529 969.264,852.064 965.248,851.56 961.195,851.026 957.104,850.468 952.976,849.894 948.81,849.308 944.608,848.718 940.369,848.13 936.094,847.548 931.784,846.977 927.44,846.422 923.063,845.888 918.653,845.377 914.212,844.895 909.741,844.443 905.242,844.024 900.715,843.642 896.162,843.299 891.585,842.996 886.984,842.736 882.363,842.52 877.722,842.35 873.062,842.227 868.386,842.152 863.695,842.126 858.992,842.15 854.277,842.224 849.552,842.35 844.82,842.528 840.082,842.759 835.34,843.042 830.596,843.379 825.852,843.769 821.109,844.212 816.37,844.71 811.636,845.262 806.909,845.867 802.192,846.527 797.486,847.241 792.793,848.01 788.114,848.832 783.453,849.709 778.811,850.64 774.189,851.624 769.59,852.662 765.015,853.754 760.468,854.899 755.948,856.097 751.459,857.348 747.003,858.651 742.58,860.007 738.194,861.414 733.846,862.873 729.538,864.384 725.271,865.945 721.048,867.556 716.871,869.217 712.741,870.928 708.661,872.688 704.631,874.496 700.655,876.352 696.733,878.256 692.868,880.207 689.061,882.203 685.314,884.246 681.628,886.333 678.007,888.464 674.45,890.64 670.96,892.858 667.539,895.118 664.188,897.42 660.909,899.763 657.704,902.146 654.573,904.568 651.519,907.028 648.543,909.526 645.646,912.061 642.831,914.631 640.098,917.236 637.449,919.875 634.885,922.548 632.408,925.252 630.019,927.988 627.72,930.754 625.511,933.55 623.394,936.373 621.37,939.224 619.44,942.101 617.606,945.003 615.868,947.929 614.228,950.878 612.686,953.849 611.244,956.841 609.903,959.853 608.664,962.883 607.526,965.931 606.493,968.994 605.563,972.073 604.738,975.166 604.019,978.272 603.407,981.389 602.901,984.516 602.504,987.653 602.214,990.798 602.034,993.949 601.963,997.105 602.001,1000.27 602.15,1003.43 602.41,1006.6 602.78,1009.76 603.262,1012.93 603.855,1016.09 604.56,1019.25 605.377,1022.4 606.305,1025.55 607.346,1028.69 608.499,1031.83 609.764,1034.95 611.141,1038.06 612.63,1041.16 614.231,1044.24 615.943,1047.31 617.766,1050.37 619.701,1053.4 621.746,1056.42 623.901,1059.42 626.167,1062.39 628.541,1065.35 631.025,1068.27 633.617,1071.18 636.316,1074.05 639.123,1076.9 642.036,1079.72 645.054,1082.51 648.178,1085.27 651.405,1087.99 654.735,1090.68 658.167,1093.33 661.701,1095.95 665.335,1098.53 669.067,1101.07 672.898,1103.57 676.825,1106.03 680.848,1108.44 684.966,1110.81 689.176,1113.14 693.478,1115.42 697.871,1117.65 702.352,1119.83 706.921,1121.97 711.576,1124.05 716.315,1126.08 721.138,1128.06 726.041,1129.99 731.024,1131.86 736.085,1133.67 741.221,1135.43 746.433,1137.13 751.716,1138.77 757.07,1140.35 762.493,1141.86 767.983,1143.32 773.538,1144.71 779.155,1146.04 784.833,1147.31 790.57,1148.5 796.363,1149.63 802.211,1150.7 808.111,1151.69 814.061,1152.62 820.058,1153.47 826.101,1154.26 832.187,1154.97 838.313,1155.6 844.478,1156.17 850.679,1156.65 856.913,1157.07 863.178,1157.4 869.471,1157.66 875.79,1157.84 882.132,1157.93 888.495,1157.95 894.875,1157.88 901.271,1157.73 907.678,1157.49 914.095,1157.17 920.519,1156.76 926.947,1156.26 933.375,1155.66 939.801,1154.98 946.222,1154.2 952.634,1153.31 959.035,1152.33 965.421,1151.25 971.788,1150.05 978.134,1148.75 984.455,1147.33 990.747,1145.8 997.007,1144.14 1003.23,1142.35 1009.41,1140.42 1015.55,1138.35 1021.64,1136.13 1027.68,1133.75 1033.65,1131.2 1039.57,1128.48 1045.42,1125.55 1051.19,1122.42 1056.88,1119.07 1062.49,1115.48 1068,1111.62 1073.41,1107.48 1078.72,1103.04 1083.9,1098.26 1088.97,1093.12 1093.89,1087.58 1098.68,1081.6 1103.3,1075.15 1107.75,1068.18 1112.02,1060.65 1116.1,1052.49 1119.95,1043.67 1123.58,1034.12 1126.96,1023.79 1130.07,1012.6 1132.88,1000.51 1135.39,987.462 1137.55,973.391 1139.35,958.253 1140.77,942.013 1141.76,924.645 1142.31,906.143 1142.4,886.526 1141.98,865.838 1141.04,844.158 1139.55,821.602 1137.49,798.33 1134.84,774.547 1131.6,750.505 1127.76,726.502 1123.32,702.881 1118.29,680.015 1112.69,658.306 1106.54,638.165 1099.89,619.996 1092.78,604.179 1085.27,591.051 1077.42,580.883 1069.29,573.873 1060.96,570.126 1052.49,569.652 1043.98,572.366 1035.48,578.092 1027.05,586.575 1018.77,597.496 1010.69,610.49 1002.84,625.165 995.265,641.119 987.993,657.961 981.043,675.32 974.424,692.859 968.142,710.282 962.193,727.336 956.572,743.817 951.266,759.564 946.261,774.457 941.539,788.418 937.082,801.398 932.871,813.378 928.886,824.362 925.106,834.373 921.514,843.446 918.089,851.629 914.815,858.975 911.675,865.542 908.654,871.391 905.738,876.581 902.915,881.171 900.171,885.22 897.498,888.781 894.886,891.907 892.326,894.645 889.812,897.039 887.336,899.13 884.893,900.956 882.478,902.549 880.087,903.941 877.716,905.158 875.362,906.225 873.022,907.165 870.695,907.996 868.378,908.735 866.071,909.398 863.771,909.999 861.479,910.548 859.193,911.057 856.913,911.535 854.639,911.988 852.371,912.425 850.108,912.851 847.852,913.271 845.601,913.69 843.358,914.112 841.121,914.54 838.892,914.976 836.672,915.424 834.46,915.886 832.258,916.362 830.066,916.856 827.884,917.367 825.715,917.897 823.558,918.447 821.415,919.018 819.285,919.609 817.171,920.223 815.072,920.858 812.99,921.516 810.925,922.196 808.879,922.899 806.852,923.625 804.845,924.373 802.859,925.144 800.895,925.938 798.954,926.754 797.036,927.593 795.142,928.454 793.274,929.337 791.431,930.242 789.616,931.169 787.828,932.117 786.069,933.086 784.339,934.077 782.639,935.088 780.97,936.119 779.333,937.17 777.729,938.242 776.158,939.332 774.62,940.442 773.118,941.57 771.651,942.716 770.221,943.881 768.827,945.063 767.471,946.262 766.153,947.478 764.875,948.71 763.636,949.958 762.438,951.221 761.281,952.5 760.165,953.793 759.091,955.1 758.061,956.421 757.074,957.754 756.131,959.101 755.232,960.46 754.379,961.83 753.571,963.212 752.809,964.604 752.094,966.006 751.426,967.418 750.805,968.839 750.233,970.269 749.709,971.707 749.233,973.152 748.807,974.604 748.43,976.063 748.104,977.527 747.827,978.997 747.601,980.471 747.426,981.949 747.302,983.431 747.229,984.916 747.208,986.403 747.239,987.892 747.321,989.382 747.456,990.873 747.643,992.364 747.882,993.854 748.174,995.343 748.519,996.83 748.916,998.315 749.367,999.797 749.869,1001.27 750.425,1002.75 751.034,1004.22 751.695,1005.68 752.409,1007.14 753.175,1008.59 753.994,1010.03 754.866,1011.47 755.789,1012.89 756.765,1014.31 757.792,1015.72 758.872,1017.12 760.002,1018.5 761.184,1019.88 762.417,1021.24 763.701,1022.59 765.034,1023.93 766.418,1025.25 767.851,1026.56 769.334,1027.85 770.865,1029.13 772.445,1030.39 774.073,1031.64 775.748,1032.86 777.471,1034.07 779.239,1035.26 781.054,1036.43 782.914,1037.59 784.819,1038.72 786.769,1039.83 788.762,1040.92 790.798,1041.98 792.876,1043.03 794.996,1044.05 797.157,1045.05 799.359,1046.02 801.6,1046.97 803.879,1047.9 806.197,1048.8 808.552,1049.67 810.944,1050.52 813.371,1051.34 815.833,1052.13 818.329,1052.9 820.858,1053.63 823.419,1054.34 826.011,1055.02 828.634,1055.67 831.286,1056.3 833.967,1056.89 836.675,1057.45 839.409,1057.98 842.169,1058.47 844.954,1058.94 847.762,1059.38 850.592,1059.78 853.444,1060.15 856.315,1060.48 859.206,1060.79 862.115,1061.06 865.041,1061.3 867.983,1061.5 870.94,1061.67 873.91,1061.8 876.892,1061.9 879.886,1061.97 882.889,1062 885.902,1061.99 888.922,1061.95 891.949,1061.87 894.981,1061.76 898.017,1061.62 901.055,1061.43 904.096,1061.21 907.136,1060.96 910.176,1060.67 913.214,1060.34 916.248,1059.97 919.277,1059.57 922.301,1059.14 925.317,1058.66 928.325,1058.15 931.323,1057.61 934.31,1057.03 937.285,1056.41 940.246,1055.75 943.192,1055.06 946.122,1054.34 949.035,1053.58 951.929,1052.78 954.804,1051.94 957.657,1051.08 960.487,1050.17 963.294,1049.23 966.075,1048.26 968.831,1047.25 971.559,1046.21 974.258,1045.14 976.927,1044.03 979.565,1042.89 982.171,1041.71 984.742,1040.5 987.279,1039.26 989.78,1037.99 992.244,1036.69 994.669,1035.35 997.055,1033.99 999.4,1032.59 1001.7,1031.17 1003.96,1029.71 1006.18,1028.23 1008.35,1026.72 1010.47,1025.18 1012.55,1023.62 1014.58,1022.03 1016.56,1020.42 1018.49,1018.78 1020.37,1017.11 1022.19,1015.42 1023.96,1013.72 1025.68,1011.98 1027.34,1010.23 1028.95,1008.46 1030.5,1006.67 1031.99,1004.86 1033.43,1003.03 1034.8,1001.19 1036.12,999.325 1037.37,997.451 1038.56,995.562 1039.69,993.66 1040.76,991.747 1041.76,989.822 1042.7,987.887 1043.58,985.944 1044.39,983.992 1045.14,982.033 1045.82,980.067 1046.43,978.097 1046.97,976.122 1047.45,974.144 1047.86,972.164 1048.21,970.182 1048.48,968.2 1048.69,966.218 1048.83,964.238 1048.9,962.259 1048.9,960.283 1048.83,958.311 1048.69,956.344 1048.48,954.382 1048.21,952.425 1047.86,950.476 1047.45,948.533 1046.96,946.599 1046.41,944.673 1045.78,942.757 1045.09,940.85 1044.33,938.953 1043.5,937.068 1042.6,935.193 1041.63,933.331 1040.59,931.48 1039.49,929.642 1038.31,927.818 1037.07,926.007 1035.76,924.21 1034.39,922.427 1032.94,920.659 1031.43,918.907 1029.86,917.17 1028.22,915.449 1026.51,913.745 1024.74,912.058 1022.9,910.388 1021,908.737 1019.04,907.104 1017.01,905.489 1014.92,903.895 1012.77,902.32 1010.56,900.766 1008.28,899.233 1005.95,897.722 1003.56,896.233 1001.1,894.768 998.594,893.326 996.026,891.908 993.401,890.515 990.72,889.148 987.984,887.807 985.194,886.494 982.35,885.208 979.453,883.95 976.505,882.721 973.506,881.523 970.457,880.354 967.359,879.217 964.213,878.112 961.02,877.039 957.782,876 954.498,874.995 951.171,874.024 947.802,873.088 944.391,872.188 940.939,871.324 937.449,870.498 933.921,869.709 930.356,868.958 926.756,868.246 923.122,867.573 919.455,866.94 915.756,866.347 912.028,865.795 908.27,865.284 904.486,864.814 900.675,864.387 896.84,864.002 892.981,863.66 889.101,863.361 885.201,863.105 881.281,862.893 877.345,862.725 873.392,862.602 869.426,862.523 865.446,862.489 861.456,862.5 857.455,862.557 853.447,862.659 849.432,862.806 845.412,863 841.388,863.239 837.363,863.524 833.338,863.855 829.314,864.233 825.293,864.656 821.276,865.126 817.266,865.642 813.264,866.204 809.272,866.813 805.29,867.467 801.321,868.168 797.367,868.914 793.429,869.707 789.508,870.545 785.607,871.429 781.727,872.358 777.87,873.332 774.036,874.352 770.229,875.416 766.449,876.525 762.699,877.678 758.979,878.875 755.291,880.116 751.638,881.4 748.02,882.727 744.439,884.097 740.897,885.51 737.395,886.964 733.935,888.46 730.519,889.997 727.147,891.574 723.823,893.192 720.546,894.849 717.318,896.546 714.142,898.281 711.018,900.055 707.948,901.866 704.934,903.713 701.976,905.598 699.077,907.518 696.237,909.473 693.459,911.463 690.742,913.487 688.09,915.544 685.502,917.633 682.981,919.754 680.527,921.907 678.142,924.089 675.828,926.301 673.584,928.542 671.413,930.811 669.316,933.108 667.293,935.43 665.346,937.779 663.477,940.152 661.685,942.549 659.972,944.969 658.339,947.411 656.788,949.874 655.318,952.358 653.931,954.861 652.628,957.383 651.409,959.922 650.276,962.478 649.229,965.05 648.27,967.636 647.397,970.236 646.614,972.849 645.919,975.474 645.314,978.109 644.799,980.754 "/>
</svg>
