<?xml version="1.0" encoding="utf-8"?>
<svg xmlns="http://www.w3.org/2000/svg" xmlns:xlink="http://www.w3.org/1999/xlink" width="420" height="360" viewBox="0 0 1680 1440">
<defs>
  <clipPath id="clip300">
    <rect x="0" y="0" width="1680" height="1440"/>
  </clipPath>
</defs>
<path clip-path="url(#clip300)" d="M0 1440 L1680 1440 L1680 0 L0 0  Z" fill="#ffffff" fill-rule="evenodd" fill-opacity="1"/>
<defs>
  <clipPath id="clip301">
    <rect x="171" y="140" width="1462" height="1178"/>
  </clipPath>
</defs>
<path clip-path="url(#clip300)" d="M133.496 1318.17 L1632.76 1318.17 L1632.76 140.752 L133.496 140.752  Z" fill="#ffffff" fill-rule="evenodd" fill-opacity="1"/>
<defs>
  <clipPath id="clip302">
    <rect x="133" y="140" width="1500" height="1178"/>
  </clipPath>
</defs>
<polyline clip-path="url(#clip302)" style="stroke:#000000; stroke-linecap:round; stroke-linejoin:round; stroke-width:2; stroke-opacity:0.1; fill:none" points="235.273,1318.17 235.273,140.752 "/>
<polyline clip-path="url(#clip302)" style="stroke:#000000; stroke-linecap:round; stroke-linejoin:round; stroke-width:2; stroke-opacity:0.1; fill:none" points="615.193,1318.17 615.193,140.752 "/>
<polyline clip-path="url(#clip302)" style="stroke:#000000; stroke-linecap:round; stroke-linejoin:round; stroke-width:2; stroke-opacity:0.1; fill:none" points="995.114,1318.17 995.114,140.752 "/>
<polyline clip-path="url(#clip302)" style="stroke:#000000; stroke-linecap:round; stroke-linejoin:round; stroke-width:2; stroke-opacity:0.1; fill:none" points="1375.03,1318.17 1375.03,140.752 "/>
<polyline clip-path="url(#clip302)" style="stroke:#000000; stroke-linecap:round; stroke-linejoin:round; stroke-width:2; stroke-opacity:0.1; fill:none" points="133.496,1285.51 1632.76,1285.51 "/>
<polyline clip-path="url(#clip302)" style="stroke:#000000; stroke-linecap:round; stroke-linejoin:round; stroke-width:2; stroke-opacity:0.1; fill:none" points="133.496,1041.49 1632.76,1041.49 "/>
<polyline clip-path="url(#clip302)" style="stroke:#000000; stroke-linecap:round; stroke-linejoin:round; stroke-width:2; stroke-opacity:0.1; fill:none" points="133.496,797.47 1632.76,797.47 "/>
<polyline clip-path="url(#clip302)" style="stroke:#000000; stroke-linecap:round; stroke-linejoin:round; stroke-width:2; stroke-opacity:0.1; fill:none" points="133.496,553.45 1632.76,553.45 "/>
<polyline clip-path="url(#clip302)" style="stroke:#000000; stroke-linecap:round; stroke-linejoin:round; stroke-width:2; stroke-opacity:0.1; fill:none" points="133.496,309.429 1632.76,309.429 "/>
<polyline clip-path="url(#clip300)" style="stroke:#000000; stroke-linecap:round; stroke-linejoin:round; stroke-width:4; stroke-opacity:1; fill:none" points="133.496,1318.17 1632.76,1318.17 "/>
<polyline clip-path="url(#clip300)" style="stroke:#000000; stroke-linecap:round; stroke-linejoin:round; stroke-width:4; stroke-opacity:1; fill:none" points="235.273,1318.17 235.273,1299.28 "/>
<polyline clip-path="url(#clip300)" style="stroke:#000000; stroke-linecap:round; stroke-linejoin:round; stroke-width:4; stroke-opacity:1; fill:none" points="615.193,1318.17 615.193,1299.28 "/>
<polyline clip-path="url(#clip300)" style="stroke:#000000; stroke-linecap:round; stroke-linejoin:round; stroke-width:4; stroke-opacity:1; fill:none" points="995.114,1318.17 995.114,1299.28 "/>
<polyline clip-path="url(#clip300)" style="stroke:#000000; stroke-linecap:round; stroke-linejoin:round; stroke-width:4; stroke-opacity:1; fill:none" points="1375.03,1318.17 1375.03,1299.28 "/>
<path clip-path="url(#clip300)" d="M189.336 1357.98 L219.012 1357.98 L219.012 1361.92 L189.336 1361.92 L189.336 1357.98 Z" fill="#000000" fill-rule="nonzero" fill-opacity="1" /><path clip-path="url(#clip300)" d="M229.914 1370.88 L237.553 1370.88 L237.553 1344.51 L229.243 1346.18 L229.243 1341.92 L237.507 1340.25 L242.183 1340.25 L242.183 1370.88 L249.822 1370.88 L249.822 1374.81 L229.914 1374.81 L229.914 1370.88 Z" fill="#000000" fill-rule="nonzero" fill-opacity="1" /><path clip-path="url(#clip300)" d="M269.266 1343.33 Q265.655 1343.33 263.826 1346.9 Q262.021 1350.44 262.021 1357.57 Q262.021 1364.67 263.826 1368.24 Q265.655 1371.78 269.266 1371.78 Q272.9 1371.78 274.706 1368.24 Q276.535 1364.67 276.535 1357.57 Q276.535 1350.44 274.706 1346.9 Q272.9 1343.33 269.266 1343.33 M269.266 1339.63 Q275.076 1339.63 278.132 1344.24 Q281.211 1348.82 281.211 1357.57 Q281.211 1366.3 278.132 1370.9 Q275.076 1375.48 269.266 1375.48 Q263.456 1375.48 260.377 1370.9 Q257.322 1366.3 257.322 1357.57 Q257.322 1348.82 260.377 1344.24 Q263.456 1339.63 269.266 1339.63 Z" fill="#000000" fill-rule="nonzero" fill-opacity="1" /><path clip-path="url(#clip300)" d="M584.835 1357.98 L614.511 1357.98 L614.511 1361.92 L584.835 1361.92 L584.835 1357.98 Z" fill="#000000" fill-rule="nonzero" fill-opacity="1" /><path clip-path="url(#clip300)" d="M624.649 1340.25 L643.006 1340.25 L643.006 1344.19 L628.932 1344.19 L628.932 1352.66 Q629.95 1352.31 630.969 1352.15 Q631.987 1351.97 633.006 1351.97 Q638.793 1351.97 642.172 1355.14 Q645.552 1358.31 645.552 1363.73 Q645.552 1369.3 642.08 1372.41 Q638.608 1375.48 632.288 1375.48 Q630.112 1375.48 627.844 1375.11 Q625.598 1374.74 623.191 1374 L623.191 1369.3 Q625.274 1370.44 627.497 1370.99 Q629.719 1371.55 632.196 1371.55 Q636.2 1371.55 638.538 1369.44 Q640.876 1367.34 640.876 1363.73 Q640.876 1360.11 638.538 1358.01 Q636.2 1355.9 632.196 1355.9 Q630.321 1355.9 628.446 1356.32 Q626.594 1356.73 624.649 1357.61 L624.649 1340.25 Z" fill="#000000" fill-rule="nonzero" fill-opacity="1" /><path clip-path="url(#clip300)" d="M995.114 1343.33 Q991.502 1343.33 989.674 1346.9 Q987.868 1350.44 987.868 1357.57 Q987.868 1364.67 989.674 1368.24 Q991.502 1371.78 995.114 1371.78 Q998.748 1371.78 1000.55 1368.24 Q1002.38 1364.67 1002.38 1357.57 Q1002.38 1350.44 1000.55 1346.9 Q998.748 1343.33 995.114 1343.33 M995.114 1339.63 Q1000.92 1339.63 1003.98 1344.24 Q1007.06 1348.82 1007.06 1357.57 Q1007.06 1366.3 1003.98 1370.9 Q1000.92 1375.48 995.114 1375.48 Q989.303 1375.48 986.225 1370.9 Q983.169 1366.3 983.169 1357.57 Q983.169 1348.82 986.225 1344.24 Q989.303 1339.63 995.114 1339.63 Z" fill="#000000" fill-rule="nonzero" fill-opacity="1" /><path clip-path="url(#clip300)" d="M1365.31 1340.25 L1383.67 1340.25 L1383.67 1344.19 L1369.59 1344.19 L1369.59 1352.66 Q1370.61 1352.31 1371.63 1352.15 Q1372.65 1351.97 1373.67 1351.97 Q1379.46 1351.97 1382.83 1355.14 Q1386.21 1358.31 1386.21 1363.73 Q1386.21 1369.3 1382.74 1372.41 Q1379.27 1375.48 1372.95 1375.48 Q1370.77 1375.48 1368.51 1375.11 Q1366.26 1374.74 1363.85 1374 L1363.85 1369.3 Q1365.94 1370.44 1368.16 1370.99 Q1370.38 1371.55 1372.86 1371.55 Q1376.86 1371.55 1379.2 1369.44 Q1381.54 1367.34 1381.54 1363.73 Q1381.54 1360.11 1379.2 1358.01 Q1376.86 1355.9 1372.86 1355.9 Q1370.98 1355.9 1369.11 1356.32 Q1367.26 1356.73 1365.31 1357.61 L1365.31 1340.25 Z" fill="#000000" fill-rule="nonzero" fill-opacity="1" /><polyline clip-path="url(#clip300)" style="stroke:#000000; stroke-linecap:round; stroke-linejoin:round; stroke-width:4; stroke-opacity:1; fill:none" points="133.496,1318.17 133.496,140.752 "/>
<polyline clip-path="url(#clip300)" style="stroke:#000000; stroke-linecap:round; stroke-linejoin:round; stroke-width:4; stroke-opacity:1; fill:none" points="133.496,1285.51 152.393,1285.51 "/>
<polyline clip-path="url(#clip300)" style="stroke:#000000; stroke-linecap:round; stroke-linejoin:round; stroke-width:4; stroke-opacity:1; fill:none" points="133.496,1041.49 152.393,1041.49 "/>
<polyline clip-path="url(#clip300)" style="stroke:#000000; stroke-linecap:round; stroke-linejoin:round; stroke-width:4; stroke-opacity:1; fill:none" points="133.496,797.47 152.393,797.47 "/>
<polyline clip-path="url(#clip300)" style="stroke:#000000; stroke-linecap:round; stroke-linejoin:round; stroke-width:4; stroke-opacity:1; fill:none" points="133.496,553.45 152.393,553.45 "/>
<polyline clip-path="url(#clip300)" style="stroke:#000000; stroke-linecap:round; stroke-linejoin:round; stroke-width:4; stroke-opacity:1; fill:none" points="133.496,309.429 152.393,309.429 "/>
<path clip-path="url(#clip300)" d="M96.3512 1271.31 Q92.7401 1271.31 90.9114 1274.87 Q89.1058 1278.42 89.1058 1285.55 Q89.1058 1292.65 90.9114 1296.22 Q92.7401 1299.76 96.3512 1299.76 Q99.9854 1299.76 101.791 1296.22 Q103.62 1292.65 103.62 1285.55 Q103.62 1278.42 101.791 1274.87 Q99.9854 1271.31 96.3512 1271.31 M96.3512 1267.61 Q102.161 1267.61 105.217 1272.21 Q108.296 1276.8 108.296 1285.55 Q108.296 1294.27 105.217 1298.88 Q102.161 1303.46 96.3512 1303.46 Q90.541 1303.46 87.4623 1298.88 Q84.4068 1294.27 84.4068 1285.55 Q84.4068 1276.8 87.4623 1272.21 Q90.541 1267.61 96.3512 1267.61 Z" fill="#000000" fill-rule="nonzero" fill-opacity="1" /><path clip-path="url(#clip300)" d="M87.3929 1024.21 L105.749 1024.21 L105.749 1028.15 L91.6753 1028.15 L91.6753 1036.62 Q92.6938 1036.27 93.7123 1036.11 Q94.7308 1035.92 95.7493 1035.92 Q101.536 1035.92 104.916 1039.09 Q108.296 1042.27 108.296 1047.68 Q108.296 1053.26 104.823 1056.36 Q101.351 1059.44 95.0317 1059.44 Q92.8558 1059.44 90.5873 1059.07 Q88.3419 1058.7 85.9346 1057.96 L85.9346 1053.26 Q88.0179 1054.4 90.2401 1054.95 Q92.4623 1055.51 94.9391 1055.51 Q98.9437 1055.51 101.282 1053.4 Q103.62 1051.29 103.62 1047.68 Q103.62 1044.07 101.282 1041.96 Q98.9437 1039.86 94.9391 1039.86 Q93.0641 1039.86 91.1892 1040.28 Q89.3373 1040.69 87.3929 1041.57 L87.3929 1024.21 Z" fill="#000000" fill-rule="nonzero" fill-opacity="1" /><path clip-path="url(#clip300)" d="M56.9995 810.815 L64.6384 810.815 L64.6384 784.449 L56.3282 786.116 L56.3282 781.857 L64.5921 780.19 L69.268 780.19 L69.268 810.815 L76.9068 810.815 L76.9068 814.75 L56.9995 814.75 L56.9995 810.815 Z" fill="#000000" fill-rule="nonzero" fill-opacity="1" /><path clip-path="url(#clip300)" d="M96.3512 783.269 Q92.7401 783.269 90.9114 786.833 Q89.1058 790.375 89.1058 797.505 Q89.1058 804.611 90.9114 808.176 Q92.7401 811.718 96.3512 811.718 Q99.9854 811.718 101.791 808.176 Q103.62 804.611 103.62 797.505 Q103.62 790.375 101.791 786.833 Q99.9854 783.269 96.3512 783.269 M96.3512 779.565 Q102.161 779.565 105.217 784.171 Q108.296 788.755 108.296 797.505 Q108.296 806.232 105.217 810.838 Q102.161 815.421 96.3512 815.421 Q90.541 815.421 87.4623 810.838 Q84.4068 806.232 84.4068 797.505 Q84.4068 788.755 87.4623 784.171 Q90.541 779.565 96.3512 779.565 Z" fill="#000000" fill-rule="nonzero" fill-opacity="1" /><path clip-path="url(#clip300)" d="M57.9949 566.794 L65.6337 566.794 L65.6337 540.429 L57.3236 542.095 L57.3236 537.836 L65.5874 536.17 L70.2633 536.17 L70.2633 566.794 L77.9022 566.794 L77.9022 570.73 L57.9949 570.73 L57.9949 566.794 Z" fill="#000000" fill-rule="nonzero" fill-opacity="1" /><path clip-path="url(#clip300)" d="M87.3929 536.17 L105.749 536.17 L105.749 540.105 L91.6753 540.105 L91.6753 548.577 Q92.6938 548.23 93.7123 548.068 Q94.7308 547.882 95.7493 547.882 Q101.536 547.882 104.916 551.054 Q108.296 554.225 108.296 559.642 Q108.296 565.22 104.823 568.322 Q101.351 571.401 95.0317 571.401 Q92.8558 571.401 90.5873 571.03 Q88.3419 570.66 85.9346 569.919 L85.9346 565.22 Q88.0179 566.355 90.2401 566.91 Q92.4623 567.466 94.9391 567.466 Q98.9437 567.466 101.282 565.359 Q103.62 563.253 103.62 559.642 Q103.62 556.031 101.282 553.924 Q98.9437 551.818 94.9391 551.818 Q93.0641 551.818 91.1892 552.234 Q89.3373 552.651 87.3929 553.531 L87.3929 536.17 Z" fill="#000000" fill-rule="nonzero" fill-opacity="1" /><path clip-path="url(#clip300)" d="M60.2171 322.774 L76.5365 322.774 L76.5365 326.709 L54.5921 326.709 L54.5921 322.774 Q57.2541 320.019 61.8375 315.39 Q66.4439 310.737 67.6245 309.394 Q69.8698 306.871 70.7494 305.135 Q71.6522 303.376 71.6522 301.686 Q71.6522 298.931 69.7078 297.195 Q67.7865 295.459 64.6847 295.459 Q62.4856 295.459 60.0319 296.223 Q57.6014 296.987 54.8236 298.538 L54.8236 293.816 Q57.6477 292.682 60.1014 292.103 Q62.555 291.524 64.5921 291.524 Q69.9624 291.524 73.1568 294.209 Q76.3513 296.894 76.3513 301.385 Q76.3513 303.515 75.5411 305.436 Q74.7541 307.334 72.6476 309.927 Q72.0689 310.598 68.967 313.816 Q65.8652 317.01 60.2171 322.774 Z" fill="#000000" fill-rule="nonzero" fill-opacity="1" /><path clip-path="url(#clip300)" d="M96.3512 295.228 Q92.7401 295.228 90.9114 298.793 Q89.1058 302.334 89.1058 309.464 Q89.1058 316.57 90.9114 320.135 Q92.7401 323.677 96.3512 323.677 Q99.9854 323.677 101.791 320.135 Q103.62 316.57 103.62 309.464 Q103.62 302.334 101.791 298.793 Q99.9854 295.228 96.3512 295.228 M96.3512 291.524 Q102.161 291.524 105.217 296.131 Q108.296 300.714 108.296 309.464 Q108.296 318.191 105.217 322.797 Q102.161 327.38 96.3512 327.38 Q90.541 327.38 87.4623 322.797 Q84.4068 318.191 84.4068 309.464 Q84.4068 300.714 87.4623 296.131 Q90.541 291.524 96.3512 291.524 Z" fill="#000000" fill-rule="nonzero" fill-opacity="1" /><path clip-path="url(#clip300)" d="M843.305 76.7889 Q840.146 84.8907 837.148 87.3618 Q834.15 89.8329 829.127 89.8329 L823.172 89.8329 L823.172 83.5945 L827.547 83.5945 Q830.626 83.5945 832.327 82.1361 Q834.029 80.6778 836.095 75.2496 L837.432 71.8468 L819.081 27.2059 L826.98 27.2059 L841.158 62.6918 L855.337 27.2059 L863.236 27.2059 L843.305 76.7889 Z" fill="#000000" fill-rule="nonzero" fill-opacity="1" /><path clip-path="url(#clip300)" d="M869.758 46.9338 L903.137 46.9338 L903.137 52.7671 L869.758 52.7671 L869.758 46.9338 Z" fill="#000000" fill-rule="nonzero" fill-opacity="1" /><path clip-path="url(#clip300)" d="M911.766 27.2059 L947.171 27.2059 L947.171 34.0114 L919.138 66.6212 L947.171 66.6212 L947.171 72.576 L910.753 72.576 L910.753 65.7705 L938.785 33.1607 L911.766 33.1607 L911.766 27.2059 Z" fill="#000000" fill-rule="nonzero" fill-opacity="1" /><polyline clip-path="url(#clip302)" style="stroke:#009af9; stroke-linecap:round; stroke-linejoin:round; stroke-width:1.6; stroke-opacity:1; fill:none" points="1071.1,1236.71 1072.89,1240.92 1074.64,1244.78 1076.34,1248.32 1077.98,1251.56 1079.58,1254.52 1081.13,1257.23 1082.64,1259.71 1084.1,1261.96 1085.51,1264.02 1086.88,1265.89 1088.21,1267.6 1089.5,1269.15 1090.74,1270.56 1091.94,1271.84 1093.1,1273.01 1094.21,1274.06 1095.28,1275.02 1096.31,1275.89 1097.3,1276.67 1098.25,1277.38 1099.15,1278.03 1100.01,1278.61 1100.82,1279.14 1101.6,1279.61 1102.33,1280.04 1103.01,1280.43 1103.66,1280.78 1104.26,1281.1 1104.81,1281.38 1105.32,1281.64 1105.79,1281.87 1106.21,1282.08 1106.59,1282.27 1106.92,1282.44 1107.2,1282.59 1107.44,1282.73 1107.64,1282.85 1107.79,1282.96 1107.89,1283.06 1107.95,1283.15 1107.96,1283.24 1107.92,1283.31 1107.84,1283.38 1107.7,1283.44 1107.53,1283.49 1107.3,1283.54 1107.03,1283.59 1106.71,1283.63 1106.35,1283.67 1105.93,1283.7 1105.47,1283.73 1104.97,1283.76 1104.41,1283.78 1103.81,1283.81 1103.16,1283.83 1102.46,1283.85 1101.72,1283.87 1100.93,1283.89 1100.1,1283.9 1099.21,1283.92 1098.29,1283.93 1097.31,1283.94 1096.29,1283.96 1095.22,1283.97 1094.11,1283.98 1092.96,1283.99 1091.75,1284 1090.51,1284.01 1089.22,1284.02 1087.88,1284.02 1086.51,1284.03 1085.09,1284.04 1083.62,1284.05 1082.12,1284.05 1080.57,1284.06 1078.98,1284.07 1077.35,1284.07 1075.68,1284.08 1073.97,1284.08 1072.22,1284.09 1070.44,1284.1 1068.61,1284.1 1066.75,1284.11 1064.85,1284.11 1062.91,1284.12 1060.94,1284.12 1058.93,1284.12 1056.89,1284.13 1054.81,1284.13 1052.7,1284.14 1050.56,1284.14 1048.38,1284.15 1046.18,1284.15 1043.94,1284.15 1041.68,1284.16 1039.39,1284.16 1037.07,1284.16 1034.72,1284.16 1032.35,1284.17 1029.95,1284.17 1027.52,1284.17 1025.08,1284.18 1022.61,1284.18 1020.12,1284.18 1017.61,1284.18 1015.07,1284.18 1012.52,1284.19 1009.95,1284.19 1007.37,1284.19 1004.77,1284.19 1002.15,1284.19 999.518,1284.19 996.873,1284.19 994.217,1284.19 991.549,1284.2 988.871,1284.2 986.185,1284.2 983.49,1284.2 980.788,1284.2 978.08,1284.2 975.368,1284.2 972.652,1284.2 969.933,1284.2 967.212,1284.2 964.491,1284.2 961.77,1284.2 959.051,1284.2 956.335,1284.19 953.623,1284.19 950.915,1284.19 948.214,1284.19 945.519,1284.19 942.833,1284.19 940.157,1284.19 937.49,1284.19 934.836,1284.18 932.194,1284.18 929.566,1284.18 926.953,1284.18 924.355,1284.18 921.775,1284.17 919.213,1284.17 916.671,1284.17 914.149,1284.16 911.648,1284.16 909.17,1284.16 906.716,1284.15 904.286,1284.15 901.882,1284.15 899.505,1284.14 897.156,1284.14 894.836,1284.14 892.546,1284.13 890.287,1284.13 888.06,1284.12 885.867,1284.12 883.707,1284.11 881.583,1284.11 879.494,1284.1 877.443,1284.1 875.43,1284.09 873.456,1284.09 871.521,1284.08 869.628,1284.08 867.777,1284.07 865.968,1284.06 864.203,1284.06 862.482,1284.05 860.807,1284.05 859.177,1284.04 857.595,1284.03 856.061,1284.02 854.575,1284.02 853.139,1284.01 851.753,1284 850.418,1283.99 849.135,1283.99 847.904,1283.98 846.726,1283.97 845.602,1283.96 844.533,1283.95 843.518,1283.94 842.559,1283.94 841.657,1283.93 840.811,1283.92 840.023,1283.91 839.293,1283.9 838.622,1283.89 838.009,1283.88 837.456,1283.87 836.963,1283.86 836.53,1283.85 836.158,1283.84 835.848,1283.83 835.598,1283.81 835.411,1283.8 835.286,1283.79 835.223,1283.78 835.223,1283.77 835.286,1283.76 835.412,1283.74 835.602,1283.73 835.855,1283.72 836.172,1283.71 836.553,1283.69 836.998,1283.68 837.507,1283.67 838.08,1283.65 838.717,1283.64 839.418,1283.63 840.183,1283.61 841.012,1283.6 841.904,1283.58 842.861,1283.57 843.881,1283.55 844.965,1283.54 846.112,1283.52 847.322,1283.51 848.595,1283.49 849.931,1283.48 851.329,1283.46 852.789,1283.45 854.31,1283.43 855.893,1283.41 857.536,1283.4 859.24,1283.38 861.004,1283.37 862.827,1283.35 864.709,1283.33 866.65,1283.32 868.649,1283.3 870.705,1283.28 872.817,1283.27 874.986,1283.25 877.21,1283.23 879.489,1283.21 881.822,1283.2 884.208,1283.18 886.647,1283.16 889.138,1283.15 891.679,1283.13 894.271,1283.11 896.912,1283.09 899.601,1283.08 902.338,1283.06 905.122,1283.04 907.951,1283.03 910.825,1283.01 913.743,1282.99 916.704,1282.98 919.706,1282.96 922.749,1282.95 925.831,1282.93 928.952,1282.91 932.111,1282.9 935.305,1282.88 938.535,1282.87 941.799,1282.85 945.096,1282.84 948.424,1282.83 951.782,1282.81 955.17,1282.8 958.586,1282.79 962.028,1282.77 965.495,1282.76 968.987,1282.75 972.501,1282.74 976.037,1282.73 979.593,1282.72 983.168,1282.71 986.76,1282.7 990.368,1282.69 993.99,1282.68 997.626,1282.67 1001.27,1282.67 1004.93,1282.66 1008.6,1282.65 1012.27,1282.65 1015.95,1282.64 1019.64,1282.64 1023.33,1282.64 1027.02,1282.63 1030.71,1282.63 1034.4,1282.63 1038.08,1282.63 1041.76,1282.63 1045.44,1282.63 1049.11,1282.63 1052.77,1282.64 1056.42,1282.64 1060.06,1282.64 1063.68,1282.65 1067.29,1282.65 1070.89,1282.66 1074.46,1282.67 1078.02,1282.68 1081.55,1282.68 1085.07,1282.69 1088.56,1282.7 1092.02,1282.71 1095.46,1282.72 1098.87,1282.74 1102.25,1282.75 1105.6,1282.76 1108.92,1282.78 1112.2,1282.79 1115.45,1282.81 1118.66,1282.82 1121.83,1282.84 1124.96,1282.85 1128.06,1282.87 1131.1,1282.89 1134.11,1282.91 1137.07,1282.93 1139.98,1282.95 1142.85,1282.96 1145.66,1282.98 1148.43,1283 1151.14,1283.03 1153.8,1283.05 1156.4,1283.07 1158.95,1283.09 1161.45,1283.11 1163.88,1283.13 1166.26,1283.15 1168.57,1283.18 1170.82,1283.2 1173.01,1283.22 1175.14,1283.24 1177.2,1283.26 1179.2,1283.29 1181.12,1283.31 1182.98,1283.33 1184.77,1283.35 1186.49,1283.38 1188.14,1283.4 1189.72,1283.42 1191.22,1283.44 1192.65,1283.46 1194.01,1283.49 1195.29,1283.51 1196.49,1283.53 1197.62,1283.55 1198.67,1283.57 1199.64,1283.59 1200.53,1283.61 1201.34,1283.63 1202.07,1283.65 1202.72,1283.67 1203.28,1283.69 1203.77,1283.71 1204.17,1283.73 1204.49,1283.75 1204.72,1283.77 1204.87,1283.79 1204.94,1283.8 1204.92,1283.82 1204.82,1283.84 1204.63,1283.86 1204.35,1283.87 1203.99,1283.89 1203.55,1283.9 1203.01,1283.92 1202.39,1283.94 1201.69,1283.95 1200.89,1283.97 1200.01,1283.98 1199.05,1283.99 1197.99,1284.01 1196.85,1284.02 1195.63,1284.04 1194.32,1284.05 1192.92,1284.06 1191.44,1284.07 1189.87,1284.09 1188.21,1284.1 1186.47,1284.11 1184.65,1284.12 1182.74,1284.13 1180.75,1284.14 1178.67,1284.15 1176.52,1284.16 1174.28,1284.17 1171.95,1284.18 1169.55,1284.19 1167.07,1284.2 1164.51,1284.21 1161.86,1284.22 1159.14,1284.23 1156.35,1284.24 1153.47,1284.25 1150.52,1284.25 1147.5,1284.26 1144.4,1284.27 1141.23,1284.28 1137.99,1284.28 1134.67,1284.29 1131.29,1284.3 1127.83,1284.3 1124.31,1284.31 1120.72,1284.32 1117.07,1284.32 1113.35,1284.33 1109.57,1284.33 1105.73,1284.34 1101.83,1284.34 1097.86,1284.35 1093.84,1284.35 1089.77,1284.36 1085.64,1284.36 1081.45,1284.37 1077.22,1284.37 1072.93,1284.37 1068.59,1284.38 1064.21,1284.38 1059.78,1284.38 1055.3,1284.39 1050.79,1284.39 1046.23,1284.39 1041.63,1284.39 1036.99,1284.4 1032.32,1284.4 1027.62,1284.4 1022.88,1284.4 1018.11,1284.41 1013.31,1284.41 1008.48,1284.41 1003.63,1284.41 998.759,1284.41 993.862,1284.41 988.946,1284.41 984.012,1284.41 979.062,1284.41 974.098,1284.41 969.122,1284.41 964.136,1284.41 959.141,1284.41 954.14,1284.41 949.135,1284.41 944.128,1284.41 939.12,1284.41 934.113,1284.41 929.111,1284.41 924.114,1284.41 919.125,1284.41 914.146,1284.41 909.178,1284.4 904.225,1284.4 899.287,1284.4 894.367,1284.4 889.467,1284.4 884.59,1284.39 879.736,1284.39 874.908,1284.39 870.109,1284.38 865.339,1284.38 860.602,1284.38 855.899,1284.37 851.232,1284.37 846.604,1284.37 842.015,1284.36 837.469,1284.36 832.968,1284.35 828.512,1284.35 824.105,1284.34 819.747,1284.34 815.442,1284.33 811.191,1284.33 806.996,1284.32 802.859,1284.31 798.781,1284.31 794.765,1284.3 790.812,1284.29 786.925,1284.29 783.105,1284.28 779.354,1284.27 775.673,1284.27 772.065,1284.26 768.531,1284.25 765.072,1284.24 761.692,1284.23 758.39,1284.22 755.17,1284.21 752.032,1284.2 748.977,1284.19 746.009,1284.18 743.127,1284.17 740.335,1284.16 737.632,1284.15 735.021,1284.14 732.502,1284.13 730.078,1284.12 727.75,1284.1 725.518,1284.09 723.385,1284.08 721.351,1284.07 719.418,1284.05 717.587,1284.04 715.859,1284.02 714.235,1284.01 712.715,1283.99 711.303,1283.98 709.997,1283.96 708.799,1283.94 707.71,1283.93 706.731,1283.91 705.863,1283.89 705.106,1283.87 704.461,1283.86 703.93,1283.84 703.511,1283.82 703.207,1283.8 703.018,1283.78 702.944,1283.75 702.985,1283.73 703.143,1283.71 703.417,1283.69 703.808,1283.66 704.316,1283.64 704.942,1283.61 705.685,1283.59 706.546,1283.56 707.525,1283.54 708.622,1283.51 709.837,1283.48 711.169,1283.45 712.62,1283.42 714.188,1283.39 715.874,1283.36 717.678,1283.33 719.598,1283.3 721.635,1283.27 723.788,1283.23 726.058,1283.2 728.443,1283.16 730.942,1283.12 733.557,1283.09 736.285,1283.05 739.126,1283.01 742.079,1282.97 745.145,1282.93 748.321,1282.89 751.607,1282.85 755.002,1282.8 758.506,1282.76 762.116,1282.71 765.833,1282.67 769.654,1282.62 773.58,1282.57 777.608,1282.52 781.738,1282.47 785.968,1282.42 790.296,1282.37 794.723,1282.32 799.245,1282.27 803.862,1282.21 808.572,1282.16 813.373,1282.1 818.264,1282.04 823.244,1281.99 828.311,1281.93 833.462,1281.87 838.696,1281.81 844.012,1281.75 849.408,1281.68 854.881,1281.62 860.429,1281.56 866.052,1281.5 871.746,1281.43 877.51,1281.37 883.342,1281.3 889.239,1281.24 895.199,1281.17 901.221,1281.11 907.302,1281.04 913.439,1280.97 919.632,1280.91 925.876,1280.84 932.17,1280.78 938.512,1280.71 944.898,1280.65 951.328,1280.59 957.797,1280.52 964.305,1280.46 970.848,1280.4 977.423,1280.34 984.029,1280.28 990.662,1280.23 997.321,1280.17 1004,1280.12 1010.7,1280.06 1017.42,1280.01 1024.15,1279.97 1030.9,1279.92 1037.65,1279.88 1044.41,1279.84 1051.17,1279.8 1057.94,1279.77 1064.7,1279.74 1071.46,1279.71 1078.21,1279.68 1084.96,1279.66 1091.69,1279.65 1098.4,1279.63 1105.09,1279.62 1111.77,1279.62 1118.42,1279.61 1125.05,1279.62 1131.64,1279.62 1138.2,1279.63 1144.73,1279.65 1151.22,1279.67 1157.68,1279.69 1164.08,1279.72 1170.45,1279.75 1176.76,1279.79 1183.02,1279.83 1189.23,1279.87 1195.39,1279.92 1201.48,1279.97 1207.51,1280.03 1213.48,1280.09 1219.38,1280.15 1225.21,1280.22 1230.97,1280.29 1236.66,1280.36 1242.26,1280.44 1247.79,1280.52 1253.24,1280.6 1258.6,1280.68 1263.87,1280.77 1269.05,1280.85 1274.15,1280.94 1279.14,1281.03 1284.04,1281.12 1288.85,1281.22 1293.55,1281.31 1298.14,1281.4 1302.64,1281.49 1307.02,1281.59 1311.3,1281.68 1315.46,1281.77 1319.51,1281.86 1323.44,1281.95 1327.25,1282.04 1330.95,1282.13 1334.52,1282.22 1337.97,1282.31 1341.29,1282.39 1344.49,1282.47 1347.55,1282.55 1350.49,1282.63 1353.29,1282.71 1355.96,1282.79 1358.49,1282.86 1360.89,1282.93 1363.15,1283 1365.27,1283.06 1367.24,1283.13 1369.08,1283.19 1370.77,1283.25 1372.31,1283.31 1373.71,1283.36 1374.96,1283.42 1376.06,1283.47 1377.01,1283.52 1377.82,1283.57 1378.47,1283.61 1378.96,1283.66 1379.31,1283.7 1379.5,1283.74 1379.54,1283.78 1379.42,1283.82 1379.15,1283.85 1378.72,1283.89 1378.13,1283.92 1377.39,1283.95 1376.49,1283.98 1375.43,1284.01 1374.22,1284.04 1372.85,1284.06 1371.32,1284.09 1369.63,1284.11 1367.78,1284.14 1365.78,1284.16 1363.62,1284.18 1361.3,1284.2 1358.83,1284.22 1356.19,1284.24 1353.41,1284.26 1350.46,1284.28 1347.37,1284.3 1344.11,1284.31 1340.71,1284.33 1337.15,1284.34 1333.44,1284.36 1329.58,1284.37 1325.56,1284.38 1321.4,1284.4 1317.09,1284.41 1312.64,1284.42 1308.03,1284.43 1303.29,1284.45 1298.4,1284.46 1293.36,1284.47 1288.19,1284.48 1282.88,1284.49 1277.43,1284.5 1271.85,1284.51 1266.13,1284.51 1260.28,1284.52 1254.3,1284.53 1248.19,1284.54 1241.95,1284.55 1235.59,1284.55 1229.11,1284.56 1222.51,1284.57 1215.79,1284.57 1208.95,1284.58 1202,1284.59 1194.94,1284.59 1187.76,1284.6 1180.49,1284.6 1173.11,1284.61 1165.62,1284.61 1158.04,1284.62 1150.36,1284.62 1142.59,1284.62 1134.73,1284.63 1126.78,1284.63 1118.74,1284.64 1110.62,1284.64 1102.43,1284.64 1094.15,1284.64 1085.8,1284.65 1077.39,1284.65 1068.9,1284.65 1060.35,1284.65 1051.74,1284.66 1043.07,1284.66 1034.35,1284.66 1025.58,1284.66 1016.76,1284.66 1007.89,1284.66 998.984,1284.66 990.04,1284.67 981.06,1284.67 972.05,1284.67 963.013,1284.67 953.951,1284.67 944.87,1284.67 935.771,1284.67 926.659,1284.67 917.538,1284.67 908.411,1284.66 899.281,1284.66 890.153,1284.66 881.029,1284.66 871.914,1284.66 862.812,1284.66 853.725,1284.66 844.658,1284.65 835.615,1284.65 826.599,1284.65 817.613,1284.65 808.663,1284.64 799.75,1284.64 790.88,1284.64 782.055,1284.63 773.28,1284.63 764.558,1284.63 755.893,1284.62 747.288,1284.62 738.748,1284.61 730.276,1284.61 721.875,1284.6 713.55,1284.6 705.303,1284.59 697.139,1284.59 689.061,1284.58 681.073,1284.58 673.178,1284.57 665.38,1284.56 657.683,1284.56 650.089,1284.55 642.602,1284.54 635.226,1284.53 627.964,1284.52 620.819,1284.52 613.796,1284.51 606.896,1284.5 600.123,1284.49 593.481,1284.48 586.973,1284.47 580.602,1284.46 574.37,1284.45 568.282,1284.44 562.34,1284.42 556.546,1284.41 550.904,1284.4 545.418,1284.39 540.088,1284.37 534.919,1284.36 529.913,1284.34 525.073,1284.33 520.4,1284.31 515.899,1284.3 511.571,1284.28 507.419,1284.26 503.444,1284.24 499.65,1284.22 496.039,1284.2 492.612,1284.18 489.372,1284.16 486.321,1284.14 483.461,1284.12 480.793,1284.09 478.32,1284.07 476.044,1284.04 473.965,1284.02 472.086,1283.99 470.408,1283.96 468.933,1283.93 467.662,1283.9 466.596,1283.87 465.736,1283.83 465.084,1283.8 464.641,1283.76 464.408,1283.73 464.385,1283.69 464.574,1283.65 464.975,1283.6 465.589,1283.56 466.417,1283.51 467.458,1283.46 468.714,1283.41 470.184,1283.36 471.87,1283.3 473.77,1283.25 475.886,1283.19 478.217,1283.12 480.762,1283.06 483.523,1282.99 486.498,1282.92 489.687,1282.84 493.09,1282.76 496.706,1282.68 500.535,1282.59 504.575,1282.5 508.826,1282.4 513.288,1282.3 517.958,1282.19 522.836,1282.08 527.921,1281.97 533.211,1281.84 538.705,1281.71 544.402,1281.58 550.3,1281.43 556.397,1281.28 562.692,1281.12 569.182,1280.95 575.867,1280.77 582.743,1280.59 589.809,1280.39 597.063,1280.18 604.502,1279.96 612.124,1279.73 619.926,1279.48 627.907,1279.22 636.062,1278.94 644.39,1278.65 652.887,1278.34 661.552,1278.02 670.38,1277.67 679.369,1277.31 688.515,1276.92 697.815,1276.51 707.266,1276.08 716.865,1275.62 726.607,1275.14 736.489,1274.62 746.508,1274.08 756.66,1273.51 766.941,1272.9 777.346,1272.25 787.872,1271.57 798.514,1270.85 809.269,1270.09 820.132,1269.29 831.098,1268.44 842.163,1267.55 853.323,1266.6 864.572,1265.61 875.907,1264.56 887.321,1263.46 898.811,1262.3 910.371,1261.08 921.996,1259.8 933.681,1258.47 945.42,1257.07 957.209,1255.6 969.041,1254.08 980.912,1252.49 992.815,1250.83 1004.75,1249.12 1016.7,1247.34 1028.66,1245.5 1040.64,1243.6 1052.62,1241.65 1064.6,1239.65 1076.57,1237.6 1088.52,1235.51 1100.46,1233.38 1112.36,1231.23 1124.24,1229.05 1136.07,1226.86 1147.86,1224.67 1159.6,1222.49 1171.28,1220.32 1182.89,1218.19 1194.43,1216.1 1205.9,1214.06 1217.28,1212.1 1228.58,1210.22 1239.78,1208.44 1250.88,1206.77 1261.87,1205.24 1272.74,1203.84 1283.5,1202.6 1294.14,1201.53 1304.64,1200.64 1315.01,1199.94 1325.24,1199.44 1335.33,1199.15 1345.27,1199.08 1355.05,1199.23 1364.67,1199.6 1374.13,1200.19 1383.42,1201.01 1392.54,1202.04 1401.49,1203.29 1410.25,1204.75 1418.84,1206.4 1427.24,1208.23 1435.45,1210.24 1443.48,1212.4 1451.31,1214.71 1458.94,1217.14 1466.38,1219.68 1473.61,1222.31 1480.65,1225.01 1487.48,1227.76 1494.1,1230.54 1500.52,1233.35 1506.72,1236.15 1512.72,1238.94 1518.5,1241.69 1524.07,1244.4 1529.42,1247.05 1534.56,1249.63 1539.48,1252.13 1544.18,1254.53 1548.66,1256.85 1552.92,1259.05 1556.95,1261.15 1560.76,1263.14 1564.35,1265.02 1567.71,1266.78 1570.84,1268.43 1573.74,1269.96 1576.41,1271.39 1578.85,1272.71 1581.06,1273.92 1583.03,1275.04 1584.78,1276.06 1586.28,1276.99 1587.55,1277.83 1588.58,1278.6 1589.38,1279.29 1589.93,1279.91 1590.25,1280.46 1590.32,1280.96 1590.16,1281.4 1589.75,1281.79 1589.1,1282.14 1588.21,1282.45 1587.07,1282.72 1585.69,1282.96 1584.07,1283.17 1582.2,1283.36 1580.09,1283.52 1577.74,1283.66 1575.14,1283.79 1572.29,1283.9 1569.21,1283.99 1565.88,1284.07 1562.3,1284.14 1558.49,1284.21 1554.43,1284.26 1550.13,1284.31 1545.59,1284.36 1540.81,1284.39 1535.79,1284.43 1530.54,1284.46 1525.05,1284.49 1519.32,1284.51 1513.36,1284.53 1507.17,1284.55 1500.75,1284.57 1494.09,1284.59 1487.21,1284.6 1480.11,1284.62 1472.78,1284.63 1465.23,1284.64 1457.46,1284.66 1449.48,1284.67 1441.28,1284.68 1432.87,1284.69 1424.24,1284.7 1415.41,1284.71 1406.38,1284.72 1397.15,1284.72 1387.71,1284.73 1378.08,1284.74 1368.26,1284.75 1358.25,1284.75 1348.05,1284.76 1337.67,1284.77 1327.11,1284.77 1316.38,1284.78 1305.47,1284.78 1294.39,1284.79 1283.15,1284.79 1271.75,1284.8 1260.19,1284.8 1248.48,1284.81 1236.62,1284.81 1224.61,1284.81 1212.47,1284.82 1200.18,1284.82 1187.77,1284.82 1175.23,1284.83 1162.56,1284.83 1149.78,1284.83 1136.88,1284.83 1123.88,1284.84 1110.77,1284.84 1097.56,1284.84 1084.26,1284.84 1070.86,1284.84 1057.39,1284.85 1043.83,1284.85 1030.2,1284.85 1016.5,1284.85 1002.74,1284.85 988.914,1284.85 975.038,1284.85 961.114,1284.85 947.148,1284.85 933.144,1284.85 919.109,1284.85 905.047,1284.85 890.965,1284.85 876.868,1284.85 862.761,1284.85 848.65,1284.85 834.541,1284.85 820.44,1284.84 806.351,1284.84 792.281,1284.84 778.236,1284.84 764.221,1284.84 750.242,1284.83 736.305,1284.83 722.415,1284.83 708.578,1284.83 694.8,1284.82 681.087,1284.82 667.444,1284.82 653.878,1284.81 640.393,1284.81 626.996,1284.8 613.693,1284.8 600.489,1284.8 587.389,1284.79 574.4,1284.79 561.527,1284.78 548.776,1284.77 536.152,1284.77 523.661,1284.76 511.308,1284.76 499.1,1284.75 487.04,1284.74 475.136,1284.74 463.392,1284.73 451.813,1284.72 440.405,1284.71 429.173,1284.7 418.123,1284.69 407.259,1284.68 396.586,1284.68 386.11,1284.67 375.836,1284.65 365.768,1284.64 355.912,1284.63 346.271,1284.62 336.852,1284.61 327.658,1284.59 318.694,1284.58 309.965,1284.57 301.474,1284.55 293.227,1284.54 285.228,1284.52 277.481,1284.5 269.989,1284.49 262.758,1284.47 255.79,1284.45 249.09,1284.43 242.661,1284.41 236.508,1284.38 230.633,1284.36 225.041,1284.34 219.734,1284.31 214.715,1284.28 209.989,1284.26 205.557,1284.23 201.424,1284.2 197.591,1284.16 194.061,1284.13 190.838,1284.1 187.923,1284.06 185.319,1284.02 183.028,1283.98 181.053,1283.93 179.395,1283.89 178.056,1283.84 177.038,1283.79 176.343,1283.73 175.973,1283.67 175.927,1283.61 176.209,1283.55 176.819,1283.48 177.758,1283.4 179.027,1283.32 180.627,1283.24 182.559,1283.15 184.822,1283.05 187.418,1282.95 190.346,1282.84 193.606,1282.73 197.2,1282.6 201.125,1282.47 205.383,1282.32 209.972,1282.17 214.893,1282 220.143,1281.82 225.723,1281.62 231.631,1281.41 237.866,1281.18 244.427,1280.93 251.313,1280.66 258.521,1280.37 266.05,1280.05 273.898,1279.7 282.062,1279.31 290.542,1278.9 299.334,1278.44 308.435,1277.93 317.843,1277.38 327.556,1276.77 337.569,1276.09 347.88,1275.35 358.486,1274.53 369.382,1273.62 380.565,1272.61 392.032,1271.48 403.777,1270.23 415.797,1268.84 428.087,1267.29 440.642,1265.55 453.457,1263.61 466.527,1261.43 479.846,1258.99 493.408,1256.25 507.208,1253.18 521.238,1249.71 535.492,1245.82 549.963,1241.43 564.642,1236.48 579.522,1230.89 594.594,1224.59 609.849,1217.47 625.278,1209.43 640.868,1200.36 656.61,1190.12 672.491,1178.56 688.499,1165.53 704.618,1150.86 720.834,1134.35 737.131,1115.81 753.49,1095.02 769.893,1071.78 786.319,1045.86 802.744,1017.06 819.145,985.172 835.494,950.044 851.763,911.546 867.921,869.616 883.936,824.274 899.771,775.643 915.389,723.977 930.752,669.677 945.818,613.319 960.544,555.664 974.887,497.663 988.805,440.451 1002.25,385.324 1015.19,333.696 1027.58,287.039 1039.38,246.813 1050.57,214.377 1061.11,190.901 1070.98,177.282 1080.17,174.075 1088.67,181.453 1096.48,199.186 1103.6,226.663 1110.05,262.934 1115.83,306.785 1120.99,356.817 1125.53,411.539 1129.5,469.454 1132.91,529.131 1135.82,589.268 1138.24,648.727 1140.22,706.56 1141.79,762.016 1142.98,814.533 1143.82,863.724 1144.34,909.357 1144.57,951.329 1144.53,989.642 1144.24,1024.38 1143.73,1055.69 1143.02,1083.77 1142.12,1108.82 1141.04,1131.09 1139.81,1150.79 1138.43,1168.18 1136.91,1183.48 1135.27,1196.9 1133.5,1208.64 1131.63,1218.89 1129.65,1227.83 1127.58,1235.6 1125.41,1242.35 1123.16,1248.2 1120.82,1253.26 1118.4,1257.64 1115.9,1261.42 1113.33,1264.68 1110.69,1267.49 1107.99,1269.9 1105.21,1271.98 1102.37,1273.77 1099.48,1275.3 1096.52,1276.62 1093.5,1277.74 1090.43,1278.71 1087.3,1279.53 1084.12,1280.24 1080.88,1280.84 1077.6,1281.36 1074.27,1281.8 1070.89,1282.18 1067.46,1282.5 1063.99,1282.77 1060.48,1283.01 1056.92,1283.21 1053.33,1283.38 1049.69,1283.52 1046.02,1283.64 1042.31,1283.75 1038.57,1283.84 1034.79,1283.91 1030.98,1283.98 1027.14,1284.03 1023.27,1284.08 1019.38,1284.12 1015.46,1284.15 1011.51,1284.18 1007.54,1284.21 1003.55,1284.23 999.532,1284.25 995.501,1284.26 991.453,1284.27 987.389,1284.28 983.311,1284.29 979.221,1284.3 975.12,1284.31 971.01,1284.31 966.892,1284.32 962.769,1284.32 958.641,1284.32 954.51,1284.33 950.378,1284.33 946.247,1284.33 942.119,1284.33 937.994,1284.33 933.875,1284.33 929.763,1284.33 925.66,1284.33 921.568,1284.33 917.488,1284.33 913.422,1284.32 909.372,1284.32 905.339,1284.32 901.326,1284.32 897.333,1284.32 893.362,1284.31 889.416,1284.31 885.495,1284.31 881.602,1284.3 877.738,1284.3 873.905,1284.3 870.104,1284.29 866.338,1284.29 862.607,1284.29 858.914,1284.28 855.259,1284.28 851.645,1284.27 848.074,1284.27 844.546,1284.26 841.064,1284.26 837.628,1284.25 834.242,1284.25 830.905,1284.24 827.62,1284.23 824.388,1284.23 821.211,1284.22 818.09,1284.21 815.027,1284.21 812.023,1284.2 809.079,1284.19 806.197,1284.19 803.379,1284.18 800.625,1284.17 797.937,1284.16 795.317,1284.15 792.765,1284.14 790.284,1284.14 787.874,1284.13 785.536,1284.12 783.272,1284.11 781.083,1284.1 778.97,1284.09 776.935,1284.08 774.978,1284.07 773.1,1284.06 771.303,1284.04 769.587,1284.03 767.954,1284.02 766.405,1284.01 764.94,1284 763.56,1283.98 762.267,1283.97 761.061,1283.96 759.943,1283.94 758.914,1283.93 757.975,1283.92 757.125,1283.9 756.367,1283.89 755.7,1283.87 755.126,1283.85 754.644,1283.84 754.256,1283.82 753.962,1283.81 753.762,1283.79 753.657,1283.77 753.647,1283.75 753.733,1283.73 753.915,1283.72 754.193,1283.7 754.567,1283.68 755.039,1283.66 755.607,1283.64 756.273,1283.62 757.035,1283.6 757.895,1283.57 758.853,1283.55 759.907,1283.53 761.059,1283.51 762.308,1283.48 763.654,1283.46 765.097,1283.44 766.637,1283.41 768.273,1283.39 770.005,1283.36 771.833,1283.33 773.757,1283.31 775.775,1283.28 777.888,1283.25 780.096,1283.22 782.397,1283.2 784.791,1283.17 787.277,1283.14 789.855,1283.11 792.524,1283.08 795.284,1283.05 798.133,1283.01 801.071,1282.98 804.097,1282.95 807.21,1282.92 810.409,1282.88 813.694,1282.85 817.062,1282.82 820.514,1282.78 824.048,1282.75 827.663,1282.71 831.358,1282.68 835.131,1282.64 838.982,1282.6 842.909,1282.57 846.911,1282.53 850.987,1282.49 855.135,1282.46 859.353,1282.42 863.642,1282.38 867.997,1282.34 872.42,1282.3 876.907,1282.27 881.458,1282.23 886.07,1282.19 890.743,1282.15 895.474,1282.11 900.261,1282.07 905.104,1282.03 910,1282 914.948,1281.96 919.945,1281.92 924.99,1281.88 930.082,1281.85 935.217,1281.81 940.395,1281.77 945.613,1281.74 950.87,1281.7 956.163,1281.67 961.49,1281.64 966.85,1281.6 972.24,1281.57 977.659,1281.54 983.104,1281.51 988.572,1281.48 994.063,1281.46 999.574,1281.43 1005.1,1281.41 1010.65,1281.38 1016.2,1281.36 1021.77,1281.34 1027.35,1281.32 1032.94,1281.3 1038.53,1281.29 1044.12,1281.27 1049.71,1281.26 1055.3,1281.25 1060.88,1281.24 1066.46,1281.24 1072.03,1281.23 1077.59,1281.23 1083.14,1281.23 1088.66,1281.23 1094.18,1281.23 1099.67,1281.24 1105.14,1281.25 1110.58,1281.26 1116,1281.27 1121.38,1281.29 1126.74,1281.3 1132.06,1281.32 1137.35,1281.34 1142.59,1281.37 1147.8,1281.39 1152.96,1281.42 1158.08,1281.45 1163.15,1281.48 1168.17,1281.51 1173.14,1281.55 1178.06,1281.59 1182.92,1281.62 1187.72,1281.66 1192.46,1281.7 1197.14,1281.75 1201.76,1281.79 1206.3,1281.84 1210.78,1281.88 1215.19,1281.93 1219.52,1281.98 1223.79,1282.03 1227.97,1282.08 1232.07,1282.13 1236.1,1282.18 1240.04,1282.24 1243.9,1282.29 1247.67,1282.34 1251.35,1282.39 1254.95,1282.45 1258.45,1282.5 1261.86,1282.55 1265.17,1282.61 1268.39,1282.66 1271.5,1282.71 1274.52,1282.76 1277.44,1282.81 1280.25,1282.86 1282.96,1282.91 1285.56,1282.96 1288.06,1283.01 1290.44,1283.06 1292.72,1283.1 1294.88,1283.15 1296.93,1283.2 1298.87,1283.24 1300.69,1283.28 1302.4,1283.33 1303.98,1283.37 1305.45,1283.41 1306.8,1283.45 1308.03,1283.49 1309.13,1283.52 1310.12,1283.56 1310.98,1283.59 1311.71,1283.63 1312.32,1283.66 1312.81,1283.7 1313.17,1283.73 1313.4,1283.76 1313.5,1283.79 1313.48,1283.82 1313.32,1283.84 1313.04,1283.87 1312.63,1283.9 1312.08,1283.92 1311.41,1283.95 1310.61,1283.97 1309.67,1283.99 1308.61,1284.02 1307.41,1284.04 1306.09,1284.06 1304.63,1284.08 1303.04,1284.1 1301.32,1284.12 1299.47,1284.14 1297.49,1284.15 1295.38,1284.17 1293.15,1284.19 1290.78,1284.2 1288.28,1284.22 1285.66,1284.24 1282.9,1284.25 1280.02,1284.26 1277.02,1284.28 1273.88,1284.29 1270.62,1284.3 1267.24,1284.32 1263.74,1284.33 1260.11,1284.34 1256.36,1284.35 1252.49,1284.36 1248.5,1284.37 1244.4,1284.38 1240.17,1284.39 1235.83,1284.4 1231.38,1284.41 1226.81,1284.42 1222.13,1284.43 1217.34,1284.44 1212.44,1284.45 1207.43,1284.45 1202.32,1284.46 1197.1,1284.47 1191.78,1284.47 1186.36,1284.48 1180.85,1284.49 1175.23,1284.49 1169.52,1284.5 1163.71,1284.51 1157.82,1284.51 1151.83,1284.52 1145.76,1284.52 1139.6,1284.53 1133.36,1284.53 1127.04,1284.54 1120.63,1284.54 1114.16,1284.54 1107.6,1284.55 1100.98,1284.55 1094.28,1284.56 1087.52,1284.56 1080.7,1284.56 1073.81,1284.56 1066.86,1284.57 1059.86,1284.57 1052.8,1284.57 1045.69,1284.57 1038.52,1284.58 1031.32,1284.58 1024.06,1284.58 1016.77,1284.58 1009.44,1284.58 1002.07,1284.58 994.673,1284.58 987.243,1284.58 979.786,1284.59 972.304,1284.59 964.801,1284.59 957.28,1284.59 949.743,1284.59 942.193,1284.59 934.634,1284.59 927.068,1284.58 919.498,1284.58 911.928,1284.58 904.36,1284.58 896.798,1284.58 889.244,1284.58 881.702,1284.58 874.174,1284.58 866.664,1284.57 859.175,1284.57 851.71,1284.57 844.272,1284.57 836.864,1284.56 829.489,1284.56 822.15,1284.56 814.85,1284.55 807.593,1284.55 800.382,1284.55 793.219,1284.54 786.107,1284.54 779.05,1284.53 772.051,1284.53 765.113,1284.52 758.238,1284.52 751.43,1284.51 744.692,1284.51 738.027,1284.5 731.437,1284.5 724.926,1284.49 718.497,1284.48 712.152,1284.48 705.894,1284.47 699.726,1284.46 693.652,1284.45 687.673,1284.45 681.793,1284.44 676.014,1284.43 670.34,1284.42 664.772,1284.41 659.313,1284.4 653.966,1284.39 648.734,1284.38 643.62,1284.37 638.625,1284.36 633.752,1284.35 629.003,1284.34 624.382,1284.33 619.889,1284.31 615.529,1284.3 611.302,1284.29 607.212,1284.27 603.26,1284.26 599.448,1284.24 595.779,1284.23 592.254,1284.21 588.876,1284.2 585.646,1284.18 582.567,1284.16 579.64,1284.15 576.866,1284.13 574.249,1284.11 571.788,1284.09 569.487,1284.07 567.346,1284.05 565.367,1284.02 563.551,1284 561.9,1283.98 560.416,1283.95 559.098,1283.93 557.949,1283.9 556.969,1283.88 556.161,1283.85 555.524,1283.82 555.059,1283.79 554.768,1283.76 554.651,1283.73 554.709,1283.69 554.943,1283.66 555.352,1283.62 555.939,1283.59 556.703,1283.55 557.644,1283.51 558.763,1283.47 560.06,1283.43 561.536,1283.38 563.19,1283.34 565.022,1283.29 567.033,1283.24 569.221,1283.19 571.588,1283.14 574.133,1283.08 576.855,1283.02 579.753,1282.96 582.829,1282.9 586.08,1282.84 589.507,1282.77 593.108,1282.7 596.883,1282.63 600.831,1282.55 604.951,1282.48 609.242,1282.39 613.703,1282.31 618.333,1282.22 623.13,1282.13 628.093,1282.04 633.221,1281.94 638.513,1281.83 643.966,1281.73 649.58,1281.62 655.352,1281.5 661.281,1281.38 667.365,1281.25 673.602,1281.12 679.99,1280.98 686.527,1280.84 693.211,1280.69 700.04,1280.54 707.012,1280.38 714.124,1280.21 721.373,1280.04 728.758,1279.86 736.276,1279.67 743.924,1279.47 751.699,1279.27 759.599,1279.06 767.622,1278.84 775.763,1278.61 784.021,1278.37 792.392,1278.13 800.873,1277.87 809.461,1277.61 818.153,1277.33 826.946,1277.05 835.836,1276.75 844.821,1276.44 853.895,1276.13 863.057,1275.8 872.303,1275.46 881.628,1275.12 891.03,1274.76 900.505,1274.39 910.048,1274.01 919.657,1273.62 929.327,1273.22 939.054,1272.81 948.835,1272.39 958.666,1271.96 968.542,1271.52 978.459,1271.07 988.414,1270.62 998.402,1270.16 1008.42,1269.69 1018.46,1269.22 1028.53,1268.75 1038.6,1268.27 1048.7,1267.79 1058.8,1267.31 1068.9,1266.83 1079,1266.36 1089.1,1265.89 1099.19,1265.42 1109.26,1264.96 1119.32,1264.52 1129.35,1264.09 1139.36,1263.67 1149.33,1263.26 1159.27,1262.88 1169.17,1262.51 1179.03,1262.17 1188.83,1261.86 1198.59,1261.57 1208.28,1261.31 1217.92,1261.09 1227.48,1260.89 1236.98,1260.73 1246.41,1260.61 1255.75,1260.53 1265.01,1260.48 1274.19,1260.48 1283.27,1260.52 1292.26,1260.6 1301.16,1260.73 1309.95,1260.89 1318.63,1261.1 1327.2,1261.36 1335.66,1261.65 1344,1261.98 1352.22,1262.36 1360.32,1262.77 1368.29,1263.22 1376.12,1263.7 1383.83,1264.21 1391.39,1264.76 1398.81,1265.33 1406.09,1265.92 1413.22,1266.54 1420.2,1267.17 1427.02,1267.82 1433.69,1268.47 1440.2,1269.14 1446.54,1269.81 1452.72,1270.49 1458.74,1271.16 1464.58,1271.83 1470.25,1272.49 1475.74,1273.14 1481.05,1273.79 1486.19,1274.41 1491.14,1275.03 1495.9,1275.62 1500.48,1276.2 1504.87,1276.75 1509.06,1277.28 1513.06,1277.79 1516.87,1278.28 1520.47,1278.74 1523.88,1279.18 1527.08,1279.6 1530.08,1279.99 1532.87,1280.36 1535.46,1280.7 1537.84,1281.02 1540,1281.32 1541.96,1281.6 1543.7,1281.86 1545.22,1282.1 1546.53,1282.32 1547.62,1282.52 1548.49,1282.71 1549.14,1282.88 1549.57,1283.03 1549.78,1283.18 1549.76,1283.31 1549.53,1283.42 1549.06,1283.53 1548.38,1283.63 1547.46,1283.72 1546.32,1283.8 1544.96,1283.88 1543.36,1283.94 1541.54,1284 1539.49,1284.06 1537.22,1284.11 1534.72,1284.16 1531.99,1284.2 1529.03,1284.24 1525.85,1284.27 1522.44,1284.31 1518.81,1284.34 1514.95,1284.36 1510.86,1284.39 1506.55,1284.41 1502.02,1284.44 1497.27,1284.46 1492.29,1284.48 1487.1,1284.5 1481.69,1284.51 1476.06,1284.53 1470.21,1284.54 1464.15,1284.56 1457.88,1284.57 1451.39,1284.59 1444.7,1284.6 1437.8,1284.61 1430.69,1284.62 1423.38,1284.63 1415.87,1284.64 1408.16,1284.65 1400.25,1284.66 1392.14,1284.67 1383.85,1284.68 1375.36,1284.69 1366.69,1284.7 1357.84,1284.7 1348.8,1284.71 1339.58,1284.72 1330.19,1284.72 1320.63,1284.73 1310.9,1284.74 1301,1284.74 1290.94,1284.75 1280.71,1284.75 1270.34,1284.76 1259.81,1284.76 1249.13,1284.77 1238.31,1284.77 1227.34,1284.78 1216.24,1284.78 1205,1284.78 1193.64,1284.79 1182.15,1284.79 1170.54,1284.79 1158.81,1284.8 1146.96,1284.8 1135.01,1284.8 1122.96,1284.81 1110.8,1284.81 1098.55,1284.81 1086.21,1284.81 1073.78,1284.81 1061.27,1284.81 1048.68,1284.82 1036.02,1284.82 1023.29,1284.82 1010.5,1284.82 997.655,1284.82 984.754,1284.82 971.805,1284.82 958.813,1284.82 945.783,1284.82 932.72,1284.82 919.63,1284.82 906.516,1284.82 893.385,1284.82 880.242,1284.82 867.092,1284.82 853.94,1284.82 840.792,1284.82 827.652,1284.81 814.526,1284.81 801.42,1284.81 788.338,1284.81 775.286,1284.81 762.27,1284.8 749.294,1284.8 736.364,1284.8 723.486,1284.8 710.665,1284.79 697.906,1284.79 685.214,1284.79 672.595,1284.78 660.054,1284.78 647.597,1284.77 635.229,1284.77 622.955,1284.76 610.781,1284.76 598.711,1284.75 586.752,1284.75 574.907,1284.74 563.183,1284.74 551.585,1284.73 540.118,1284.73 528.786,1284.72 517.595,1284.71 506.551,1284.7 495.657,1284.7 484.92,1284.69 474.343,1284.68 463.932,1284.67 453.692,1284.66 443.628,1284.65 433.743,1284.64 424.043,1284.63 414.533,1284.62 405.217,1284.61 396.099,1284.6 387.184,1284.59 378.477,1284.57 369.981,1284.56 361.701,1284.55 353.641,1284.53 345.806,1284.52 338.198,1284.5 330.823,1284.49 323.684,1284.47 316.784,1284.45 310.129,1284.43 303.72,1284.42 297.562,1284.4 291.658,1284.37 286.012,1284.35 280.627,1284.33 275.506,1284.31 270.652,1284.28 266.068,1284.25 261.757,1284.23 257.722,1284.2 253.965,1284.17 250.49,1284.14 247.298,1284.1 244.392,1284.07 241.775,1284.03 239.448,1284 237.414,1283.95 235.674,1283.91 234.231,1283.87 233.085,1283.82 232.24,1283.77 231.696,1283.72 231.454,1283.66 231.517,1283.61 231.884,1283.54 232.558,1283.48 233.539,1283.41 234.828,1283.34 236.425,1283.26 238.331,1283.18 240.547,1283.09 243.072,1282.99 245.907,1282.89 249.053,1282.79 252.508,1282.67 256.273,1282.55 260.348,1282.42 264.731,1282.28 269.423,1282.13 274.422,1281.97 279.728,1281.8 285.339,1281.62 291.255,1281.42 297.475,1281.2 303.996,1280.97 310.817,1280.72 317.937,1280.45 325.354,1280.15 333.065,1279.83 341.07,1279.48 349.365,1279.11 357.947,1278.69 366.816,1278.25 375.967,1277.76 385.398,1277.22 395.106,1276.63 405.088,1275.99 415.341,1275.28 425.86,1274.51 436.643,1273.66 447.686,1272.72 458.984,1271.68 470.534,1270.53 482.331,1269.27 494.371,1267.87 506.648,1266.32 519.159,1264.6 531.898,1262.69 544.859,1260.57 558.036,1258.22 571.425,1255.6 585.019,1252.68 598.81,1249.43 612.794,1245.8 626.962,1241.76 641.307,1237.26 655.821,1232.23 670.496,1226.62 685.323,1220.36 700.293,1213.38 715.396,1205.6 730.622,1196.93 745.959,1187.27 761.397,1176.53 776.922,1164.6 792.521,1151.36 808.18,1136.7 823.884,1120.49 839.616,1102.63 855.36,1083 871.096,1061.49 886.805,1038 902.466,1012.48 918.056,984.87 933.552,955.171 948.929,923.423 964.159,889.723 979.217,854.237 994.071,817.206 1008.69,778.959 1023.05,739.913 1037.12,700.58 1050.86,661.563 1064.24,623.545 1077.24,587.275 1089.82,553.546 1101.95,523.165 1113.62,496.917 1124.79,475.529 1135.45,459.631 1145.59,449.719 1155.18,446.126 1164.22,448.998 1172.71,458.287 1180.65,473.754 1188.03,494.978 1194.88,521.388 1201.2,552.288 1207,586.902 1212.31,624.41 1217.13,663.983 1221.5,704.823 1225.44,746.186 1228.96,787.402 1232.09,827.891 1234.85,867.171 1237.27,904.852 1239.36,940.641 1241.15,974.33 1242.65,1005.79 1243.88,1034.95 1244.87,1061.81 1245.61,1086.39 1246.14,1108.78 1246.45,1129.06 1246.57,1147.35 1246.5,1163.79 1246.26,1178.49 1245.84,1191.6 1245.27,1203.26 1244.54,1213.59 1243.66,1222.72 1242.64,1230.76 1241.49,1237.84 1240.2,1244.05 1238.78,1249.48 1237.23,1254.23 1235.57,1258.37 1233.78,1261.97 1231.87,1265.1 1229.85,1267.82 1227.72,1270.17 1225.47,1272.2 1223.12,1273.95 1220.66,1275.46 1218.09,1276.77 1215.41,1277.89 1212.64,1278.85 1209.75,1279.67 1206.77,1280.38 1203.69,1280.98 1200.51,1281.5 1197.23,1281.94 1193.86,1282.31 1190.39,1282.63 1186.82,1282.91 1183.17,1283.14 1179.42,1283.34 1175.58,1283.51 1171.65,1283.65 1167.64,1283.77 1163.54,1283.87 1159.35,1283.96 1155.08,1284.04 1150.73,1284.1 1146.3,1284.15 1141.79,1284.2 1137.2,1284.24 1132.53,1284.27 1127.79,1284.3 1122.98,1284.33 1118.09,1284.35 1113.14,1284.37 1108.12,1284.38 1103.03,1284.4 1097.88,1284.41 1092.66,1284.42 1087.39,1284.43 1082.05,1284.44 1076.66,1284.45 1071.22,1284.45 1065.72,1284.46 1060.17,1284.46 1054.57,1284.47 1048.92,1284.47 1043.23,1284.47 1037.5,1284.48 1031.72,1284.48 1025.91,1284.48 1020.06,1284.49 1014.18,1284.49 1008.27,1284.49 1002.32,1284.49 996.349,1284.49 990.352,1284.49 984.332,1284.49 978.292,1284.49 972.234,1284.5 966.16,1284.5 960.073,1284.5 953.975,1284.5 947.868,1284.5 941.755,1284.5 935.638,1284.49 929.52,1284.49 923.403,1284.49 917.29,1284.49 911.182,1284.49 905.083,1284.49 898.996,1284.49 892.921,1284.49 886.863,1284.48 880.823,1284.48 874.804,1284.48 868.809,1284.48 862.839,1284.47 856.898,1284.47 850.988,1284.47 845.111,1284.46 839.27,1284.46 833.468,1284.46 827.706,1284.45 821.988,1284.45 816.316,1284.44 810.692,1284.44 805.118,1284.44 799.598,1284.43 794.133,1284.43 788.726,1284.42 783.38,1284.41 778.096,1284.41 772.878,1284.4 767.727,1284.4 762.645,1284.39 757.636,1284.38 752.701,1284.38 747.843,1284.37 743.064,1284.36 738.366,1284.35 733.751,1284.35 729.222,1284.34 724.781,1284.33 720.429,1284.32 716.169,1284.31 712.003,1284.3 707.933,1284.29 703.962,1284.28 700.09,1284.27 696.32,1284.26 692.654,1284.25 689.094,1284.24 685.641,1284.22 682.298,1284.21 679.066,1284.2 675.947,1284.19 672.942,1284.17 670.054,1284.16 667.283,1284.15 664.632,1284.13 662.102,1284.12 659.695,1284.1 657.411,1284.08 655.252,1284.07 653.221,1284.05 651.317,1284.03 649.542,1284.02 647.898,1284 646.386,1283.98 645.006,1283.96 643.76,1283.94 642.649,1283.92 641.674,1283.9 640.835,1283.87 640.134,1283.85 639.572,1283.83 639.149,1283.8 638.865,1283.78 638.722,1283.75 638.721,1283.73 638.861,1283.7 639.143,1283.67 639.568,1283.64 640.136,1283.61 640.847,1283.58 641.702,1283.55 642.701,1283.52 643.844,1283.48 645.131,1283.45 646.562,1283.41 648.137,1283.38 649.856,1283.34 651.719,1283.3 653.726,1283.26 655.876,1283.22 658.17,1283.18 660.606,1283.13 663.185,1283.09 665.905,1283.04 668.767,1282.99 671.769,1282.94 674.912,1282.89 678.193,1282.84 681.614,1282.79 685.172,1282.73 688.866,1282.67 692.697,1282.62 696.662,1282.55 700.761,1282.49 704.992,1282.43 709.355,1282.36 713.847,1282.29 718.469,1282.22 723.218,1282.15 728.092,1282.08 733.092,1282 738.213,1281.92 743.457,1281.84 748.82,1281.76 754.3,1281.67 759.897,1281.59 765.608,1281.5 771.431,1281.41 777.365,1281.31 783.408,1281.21 789.556,1281.12 795.809,1281.01 802.164,1280.91 808.619,1280.8 815.172,1280.69 821.82,1280.58 828.561,1280.47 835.393,1280.35 842.313,1280.23 849.318,1280.11 856.407,1279.99 863.576,1279.87 870.823,1279.74 878.146,1279.61 885.541,1279.48 893.006,1279.34 900.537,1279.21 908.133,1279.07 915.79,1278.94 923.506,1278.8 931.277,1278.66 939.101,1278.52 946.974,1278.37 954.893,1278.23 962.856,1278.09 970.858,1277.95 978.898,1277.81 986.972,1277.67 995.077,1277.53 1003.21,1277.39 1011.37,1277.26 1019.54,1277.12 1027.74,1276.99 1035.95,1276.87 1044.17,1276.74 1052.4,1276.62 1060.63,1276.51 1068.86,1276.4 1077.1,1276.29 1085.32,1276.19 1093.54,1276.1 1101.74,1276.01 1109.93,1275.93 1118.1,1275.86 1126.25,1275.79 1134.37,1275.73 1142.46,1275.69 1150.52,1275.65 1158.55,1275.62 1166.53,1275.6 1174.47,1275.59 1182.37,1275.59 1190.21,1275.6 1198,1275.62 1205.74,1275.66 1213.42,1275.7 1221.03,1275.75 1228.58,1275.82 1236.05,1275.89 1243.46,1275.98 1250.79,1276.08 1258.04,1276.19 1265.21,1276.3 1272.29,1276.43 1279.29,1276.56 1286.19,1276.71 1293,1276.86 1299.71,1277.02 1306.32,1277.19 1312.83,1277.37 1319.23,1277.55 1325.52,1277.73 1331.7,1277.92 1337.76,1278.12 1343.71,1278.32 1349.54,1278.52 1355.24,1278.72 1360.82,1278.92 1366.27,1279.13 1371.59,1279.33 1376.77,1279.54 1381.82,1279.74 1386.74,1279.94 1391.51,1280.14 1396.13,1280.33 1400.62,1280.53 1404.95,1280.71 1409.13,1280.9 1413.17,1281.08 1417.05,1281.25 1420.77,1281.42 1424.33,1281.59 1427.73,1281.74 1430.98,1281.9 1434.05,1282.04 1436.97,1282.18 1439.71,1282.32 1442.28,1282.45 1444.69,1282.57 1446.92,1282.69 1448.98,1282.8 1450.86,1282.9 1452.57,1283 1454.1,1283.1 1455.44,1283.19 1456.61,1283.27 1457.6,1283.35 1458.4,1283.43 1459.02,1283.5 1459.46,1283.57 1459.71,1283.63 1459.77,1283.69 1459.65,1283.75 1459.33,1283.8 1458.83,1283.85 1458.15,1283.89 1457.27,1283.94 1456.2,1283.98 1454.94,1284.02 1453.49,1284.05 1451.85,1284.09 1450.02,1284.12 1448,1284.15 1445.79,1284.18 1443.39,1284.21 1440.8,1284.23 1438.02,1284.26 1435.05,1284.28 1431.89,1284.31 1428.55,1284.33 1425.01,1284.35 1421.29,1284.37 1417.38,1284.38 1413.28,1284.4 1409.01,1284.42 1404.54,1284.43 1399.9,1284.45 1395.07,1284.46 1390.06,1284.48 1384.88,1284.49 1379.51,1284.5 1373.97,1284.51 1368.26,1284.53 1362.37,1284.54 1356.31,1284.55 1350.08,1284.56 1343.68,1284.57 1337.12,1284.58 1330.39,1284.59 1323.51,1284.6 1316.46,1284.61 1309.25,1284.61 1301.89,1284.62 1294.38,1284.63 1286.71,1284.64 1278.9,1284.64 1270.94,1284.65 1262.84,1284.66 1254.59,1284.66 1246.22,1284.67 1237.7,1284.67 1229.05,1284.68 1220.28,1284.68 1211.38,1284.69 1202.35,1284.69 1193.21,1284.7 1183.95,1284.7 1174.58,1284.71 1165.09,1284.71 1155.5,1284.71 1145.81,1284.72 1136.02,1284.72 1126.13,1284.72 1116.15,1284.73 1106.07,1284.73 1095.92,1284.73 1085.68,1284.73 1075.36,1284.74 1064.98,1284.74 1054.52,1284.74 1043.99,1284.74 1033.4,1284.74 1022.75,1284.74 1012.05,1284.74 1001.3,1284.75 990.506,1284.75 979.667,1284.75 968.79,1284.75 957.88,1284.75 946.94,1284.75 935.976,1284.75 924.991,1284.75 913.989,1284.75 902.976,1284.75 891.954,1284.74 880.93,1284.74 869.906,1284.74 858.888,1284.74 847.88,1284.74 836.886,1284.74 825.912,1284.74 814.96,1284.73 804.037,1284.73 793.145,1284.73 782.291,1284.73 771.478,1284.72 760.71,1284.72 749.993,1284.72 739.331,1284.71 728.728,1284.71 718.189,1284.71 707.718,1284.7 697.319,1284.7 686.998,1284.69 676.759,1284.69 666.605,1284.68 656.542,1284.68 646.574,1284.67 636.705,1284.67 626.94,1284.66 617.282,1284.65 607.737,1284.65 598.308,1284.64 589,1284.63 579.817,1284.63 570.762,1284.62 561.841,1284.61 553.058,1284.6 544.416,1284.59 535.919,1284.58 527.571,1284.57 519.377,1284.57 511.341,1284.55 503.465,1284.54 495.754,1284.53 488.212,1284.52 480.842,1284.51 473.648,1284.5 466.634,1284.48 459.802,1284.47 453.157,1284.46 446.703,1284.44 440.441,1284.43 434.376,1284.41 428.51,1284.4 422.848,1284.38 417.391,1284.36 412.144,1284.34 407.108,1284.32 402.287,1284.3 397.684,1284.28 393.3,1284.26 389.14,1284.24 385.205,1284.21 381.498,1284.19 378.021,1284.17 374.777,1284.14 371.767,1284.11 368.995,1284.08 366.461,1284.05 364.168,1284.02 362.118,1283.99 360.312,1283.95 358.753,1283.92 357.442,1283.88 356.379,1283.84 355.568,1283.8 355.008,1283.76 354.702,1283.71 354.65,1283.66 354.853,1283.61 355.313,1283.56 356.029,1283.51 357.004,1283.45 358.236,1283.39 359.728,1283.32 361.479,1283.26 363.489,1283.18 365.759,1283.11 368.289,1283.03 371.079,1282.95 374.129,1282.86 377.438,1282.77 381.006,1282.67 384.833,1282.56 388.917,1282.45 393.26,1282.34 397.859,1282.21 402.713,1282.08 407.823,1281.94 413.186,1281.79 418.801,1281.63 424.667,1281.46 430.783,1281.28 437.148,1281.09 443.758,1280.88 450.613,1280.67 457.711,1280.43 465.049,1280.18 472.626,1279.91 480.439,1279.62 488.487,1279.31 496.765,1278.98 505.273,1278.63 514.006,1278.24 522.963,1277.83 532.14,1277.39 541.535,1276.91 551.143,1276.4 560.962,1275.84 570.989,1275.24 581.219,1274.6 591.65,1273.9 602.276,1273.14 613.095,1272.32 624.103,1271.43 635.294,1270.47 646.665,1269.44 658.211,1268.31 669.928,1267.09 681.81,1265.76 693.854,1264.33 706.053,1262.77 718.402,1261.08 730.897,1259.24 743.532,1257.25 756.3,1255.09 769.196,1252.75 782.214,1250.22 795.347,1247.47 808.59,1244.49 821.934,1241.26 835.374,1237.77 848.902,1234 862.511,1229.93 876.192,1225.54 889.939,1220.8 903.742,1215.71 917.594,1210.24 931.486,1204.38 945.408,1198.1 959.351,1191.4 973.305,1184.25 987.261,1176.66 1001.21,1168.61 1015.14,1160.11 1029.03,1151.15 1042.89,1141.75 1056.69,1131.93 1070.43,1121.72 1084.09,1111.13 1097.66,1100.23 1111.13,1089.07 1124.48,1077.71 1137.7,1066.22 1150.79,1054.7 1163.71,1043.24 1176.48,1031.96 1189.06,1020.95 1201.45,1010.36 1213.64,1000.31 1225.61,990.926 1237.35,982.341 1248.85,974.681 1260.1,968.068 1271.09,962.61 1281.82,958.405 1292.27,955.533 1302.43,954.054 1312.31,954.008 1321.89,955.413 1331.18,958.263 1340.16,962.525 1348.84,968.149 1357.21,975.06 1365.28,983.164 1373.05,992.351 1380.51,1002.5 1387.67,1013.47 1394.53,1025.13 1401.09,1037.34 1407.37,1049.95 1413.36,1062.82 1419.06,1075.83 1424.49,1088.84 1429.64,1101.75 1434.53,1114.45 1439.15,1126.84 1443.52,1138.86 1447.63,1150.44 1451.49,1161.52 1455.11,1172.06 1458.48,1182.04 1461.62,1191.44 1464.53,1200.24 1467.21,1208.44 1469.66,1216.05 1471.88,1223.09 1473.89,1229.56 1475.67,1235.49 1477.24,1240.9 1478.6,1245.83 1479.74,1250.29 1480.67,1254.31 1481.39,1257.94 1481.9,1261.19 1482.2,1264.09 1482.29,1266.68 1482.18,1268.97 1481.86,1271.01 1481.34,1272.8 1480.61,1274.38 1479.68,1275.77 1478.54,1276.98 1477.2,1278.04 1475.66,1278.96 1473.91,1279.76 1471.96,1280.46 1469.81,1281.06 1467.46,1281.57 1464.9,1282.02 1462.15,1282.4 1459.2,1282.73 1456.04,1283.01 1452.69,1283.24 1449.14,1283.45 1445.39,1283.62 1441.44,1283.77 1437.3,1283.9 1432.96,1284 1428.43,1284.1 1423.71,1284.17 1418.79,1284.24 1413.69,1284.3 1408.4,1284.35 1402.91,1284.39 1397.25,1284.43 1391.4,1284.46 1385.36,1284.48 1379.14,1284.51 1372.75,1284.53 1366.18,1284.55 1359.43,1284.57 1352.5,1284.58 1345.41,1284.59 1338.15,1284.61 1330.72,1284.62 1323.12,1284.63 1315.36,1284.64 1307.44,1284.65 1299.37,1284.65 1291.14,1284.66 1282.76,1284.67 1274.22,1284.68 1265.54,1284.68 1256.72,1284.69 1247.76,1284.69 1238.66,1284.7 1229.42,1284.71 1220.06,1284.71 1210.56,1284.72 1200.94,1284.72 1191.2,1284.72 1181.34,1284.73 1171.37,1284.73 1161.28,1284.74 1151.09,1284.74 1140.79,1284.74 1130.4,1284.74 1119.91,1284.75 1109.32,1284.75 1098.65,1284.75 1087.89,1284.75 1077.05,1284.76 1066.13,1284.76 1055.14,1284.76 1044.08,1284.76 1032.96,1284.76 1021.78,1284.76 1010.54,1284.77 999.251,1284.77 987.914,1284.77 976.534,1284.77 965.115,1284.77 953.661,1284.77 942.178,1284.77 930.67,1284.77 919.141,1284.77 907.596,1284.77 896.039,1284.77 884.475,1284.76 872.909,1284.76 861.344,1284.76 849.787,1284.76 838.241,1284.76 826.711,1284.76 815.202,1284.76 803.718,1284.75 792.265,1284.75 780.847,1284.75 769.468,1284.75 758.133,1284.74 746.848,1284.74 735.616,1284.74 724.443,1284.73 713.333,1284.73 702.291,1284.73 691.322,1284.72 680.43,1284.72 669.62,1284.71 658.897,1284.71 648.264,1284.7 637.728,1284.7 627.292,1284.69 616.962,1284.69 606.74,1284.68 596.634,1284.67 586.645,1284.67 576.78,1284.66 567.043,1284.65 557.437,1284.64 547.968,1284.64 538.64,1284.63 529.456,1284.62 520.422,1284.61 511.542,1284.6 502.819,1284.59 494.258,1284.58 485.862,1284.57 477.637,1284.56 469.585,1284.55 461.711,1284.54 454.019,1284.53 446.512,1284.51 439.194,1284.5 432.069,1284.49 425.141,1284.47 418.413,1284.46 411.888,1284.44 405.57,1284.43 399.462,1284.41 393.568,1284.39 387.891,1284.37 382.433,1284.35 377.199,1284.33 372.19,1284.31 367.411,1284.29 362.863,1284.27 358.549,1284.25 354.472,1284.22 350.635,1284.2 347.04,1284.17 343.69,1284.14 340.587,1284.11 337.732,1284.08 335.129,1284.05 332.778,1284.02 330.683,1283.99 328.845,1283.95 327.266,1283.91 325.946,1283.87 324.889,1283.83 324.095,1283.79 323.566,1283.74 323.303,1283.69 323.306,1283.64 323.578,1283.59 324.119,1283.53 324.93,1283.48 326.011,1283.41 327.363,1283.35 328.988,1283.28 330.884,1283.21 333.053,1283.13 335.494,1283.05 338.208,1282.96 341.194,1282.87 344.453,1282.78 347.984,1282.67 351.786,1282.56 355.86,1282.45 360.205,1282.33 364.819,1282.2 369.703,1282.06 374.854,1281.91 380.273,1281.75 385.957,1281.58 391.906,1281.4 398.118,1281.21 404.591,1281 411.324,1280.78 418.315,1280.55 425.562,1280.29 433.064,1280.02 440.817,1279.73 448.82,1279.41 457.07,1279.07 465.564,1278.7 474.301,1278.31 483.277,1277.88 492.49,1277.42 501.935,1276.92 511.611,1276.38 521.514,1275.79 531.64,1275.15 541.986,1274.46 552.548,1273.71 563.323,1272.9 574.305,1272.01 585.493,1271.05 596.88,1270 608.462,1268.85 620.236,1267.6 632.196,1266.24 644.337,1264.75 656.655,1263.13 669.143,1261.35 681.798,1259.42 694.612,1257.3 707.58,1254.99 720.697,1252.46 733.955,1249.7 747.349,1246.68 760.872,1243.38 774.516,1239.78 788.275,1235.85 802.141,1231.57 816.107,1226.9 830.163,1221.81 844.302,1216.27 858.515,1210.25 872.793,1203.72 887.125,1196.65 901.504,1188.99 915.917,1180.73 930.354,1171.82 944.804,1162.25 959.255,1151.98 973.695,1141.01 988.111,1129.33 1002.49,1116.92 1016.82,1103.8 1031.08,1090 1045.27,1075.53 1059.36,1060.46 1073.34,1044.84 1087.19,1028.77 1100.91,1012.34 1114.46,995.692 1127.85,978.96 1141.04,962.313 1154.02,945.934 1166.78,930.025 1179.3,914.796 1191.57,900.47 1203.56,887.268 1215.27,875.413 1226.69,865.114 1237.79,856.566 1248.58,849.94 1259.03,845.377 1269.15,842.984 1278.92,842.827 1288.34,844.932 1297.41,849.279 1306.12,855.807 1314.47,864.41 1322.46,874.949 1330.1,887.25 1337.39,901.113 1344.33,916.319 1350.92,932.635 1357.18,949.825 1363.11,967.651 1368.72,985.885 1374.02,1004.31 1379.01,1022.72 1383.7,1040.93 1388.1,1058.79 1392.22,1076.16 1396.06,1092.91 1399.65,1108.96 1402.97,1124.24 1406.04,1138.68 1408.87,1152.27 1411.46,1164.98 1413.82,1176.8 1415.95,1187.75 1417.86,1197.84 1419.56,1207.1 1421.04,1215.56 1422.31,1223.27 1423.38,1230.26 1424.25,1236.58 1424.92,1242.26 1425.39,1247.37 1425.66,1251.94 1425.75,1256.01 1425.64,1259.63 1425.35,1262.84 1424.86,1265.68 1424.19,1268.18 1423.34,1270.38 1422.3,1272.31 1421.08,1274 1419.67,1275.47 1418.08,1276.75 1416.31,1277.86 1414.36,1278.82 1412.23,1279.66 1409.92,1280.37 1407.43,1280.99 1404.77,1281.52 1401.92,1281.97 1398.9,1282.36 1395.71,1282.7 1392.34,1282.98 1388.79,1283.22 1385.07,1283.43 1381.18,1283.6 1377.12,1283.75 1372.88,1283.88 1368.48,1283.98 1363.91,1284.08 1359.17,1284.15 1354.27,1284.22 1349.2,1284.28 1343.97,1284.32 1338.57,1284.37 1333.02,1284.4 1327.31,1284.43 1321.44,1284.46 1315.42,1284.48 1309.24,1284.5 1302.91,1284.52 1296.44,1284.54 1289.81,1284.55 1283.04,1284.56 1276.13,1284.58 1269.08,1284.59 1261.89,1284.6 1254.56,1284.61 1247.1,1284.61 1239.5,1284.62 1231.78,1284.63 1223.93,1284.63 1215.96,1284.64 1207.86,1284.65 1199.65,1284.65 1191.32,1284.66 1182.88,1284.66 1174.33,1284.67 1165.68,1284.67 1156.92,1284.68 1148.06,1284.68 1139.1,1284.68 1130.05,1284.69 1120.91,1284.69 1111.68,1284.69 1102.36,1284.7 1092.97,1284.7 1083.49,1284.7 1073.95,1284.7 1064.33,1284.7 1054.65,1284.71 1044.9,1284.71 1035.09,1284.71 1025.23,1284.71 1015.32,1284.71 1005.35,1284.71 995.347,1284.71 985.299,1284.71 975.215,1284.72 965.097,1284.72 954.95,1284.72 944.779,1284.72 934.586,1284.72 924.376,1284.72 914.153,1284.71 903.921,1284.71 893.684,1284.71 883.446,1284.71 873.212,1284.71 862.985,1284.71 852.769,1284.71 842.569,1284.71 832.388,1284.7 822.232,1284.7 812.103,1284.7 802.007,1284.7 791.947,1284.69 781.928,1284.69 771.954,1284.69 762.028,1284.68 752.156,1284.68 742.341,1284.68 732.587,1284.67 722.899,1284.67 713.281,1284.66 703.737,1284.66 694.27,1284.65 684.886,1284.65 675.588,1284.64 666.38,1284.64 657.267,1284.63 648.251,1284.63 639.339,1284.62 630.532,1284.61 621.836,1284.61 613.254,1284.6 604.79,1284.59 596.447,1284.58 588.231,1284.58 580.144,1284.57 572.191,1284.56 564.375,1284.55 556.699,1284.54 549.167,1284.53 541.784,1284.52 534.552,1284.51 527.475,1284.5 520.557,1284.49 513.8,1284.47 507.208,1284.46 500.785,1284.45 494.534,1284.44 488.457,1284.42 482.559,1284.41 476.842,1284.39 471.308,1284.38 465.962,1284.36 460.806,1284.34 455.842,1284.33 451.074,1284.31 446.505,1284.29 442.136,1284.27 437.97,1284.25 434.01,1284.23 430.258,1284.21 426.717,1284.18 423.389,1284.16 420.275,1284.13 417.379,1284.11 414.702,1284.08 412.246,1284.05 410.012,1284.02 408.003,1283.99 406.221,1283.96 404.666,1283.93 403.341,1283.89 402.247,1283.86 401.385,1283.82 400.756,1283.78 400.362,1283.74 400.204,1283.7 400.282,1283.65 400.598,1283.6 401.152,1283.55 401.945,1283.5 402.978,1283.45 404.251,1283.39 405.765,1283.33 407.519,1283.27 409.515,1283.2 411.752,1283.13 414.23,1283.06 416.95,1282.98 419.91,1282.9 423.112,1282.82 426.553,1282.73 430.235,1282.63 434.156,1282.54 438.316,1282.43 442.713,1282.32 447.348,1282.2 452.219,1282.08 457.324,1281.95 462.664,1281.81 468.235,1281.66 474.038,1281.51 480.071,1281.34 486.332,1281.17 492.818,1280.98 499.53,1280.78 506.464,1280.57 513.618,1280.35 520.991,1280.11 528.58,1279.85 536.383,1279.58 544.398,1279.29 552.621,1278.99 561.05,1278.66 569.683,1278.31 578.517,1277.93 587.548,1277.53 596.774,1277.1 606.191,1276.64 615.797,1276.14 625.586,1275.62 635.558,1275.05 645.706,1274.44 656.029,1273.79 666.521,1273.1 677.179,1272.35 688,1271.54 698.978,1270.68 710.109,1269.75 721.39,1268.76 732.815,1267.69 744.38,1266.55 756.079,1265.32 767.909,1264 779.864,1262.58 791.939,1261.06 804.128,1259.43 816.427,1257.68 828.829,1255.81 841.329,1253.81 853.92,1251.66 866.598,1249.37 879.356,1246.92 892.186,1244.31 905.084,1241.53 918.042,1238.56 931.054,1235.41 944.112,1232.06 957.21,1228.52 970.34,1224.76 983.494,1220.8 996.666,1216.63 1009.85,1212.23 1023.03,1207.63 1036.2,1202.81 1049.36,1197.79 1062.5,1192.57 1075.6,1187.16 1088.66,1181.57 1101.68,1175.82 1114.63,1169.94 1127.51,1163.94 1140.32,1157.86 1153.04,1151.72 1165.67,1145.57 1178.19,1139.45 1190.6,1133.39 1202.88,1127.45 1215.03,1121.68 1227.04,1116.13 1238.9,1110.86 1250.59,1105.91 1262.13,1101.35 1273.48,1097.23 1284.65,1093.6 1295.63,1090.5 1306.42,1087.99 1316.99,1086.1 1327.36,1084.86 1337.51,1084.3 1347.44,1084.43 1357.14,1085.26 1366.61,1086.8 1375.85,1089.03 1384.84,1091.93 1393.6,1095.47 1402.11,1099.63 1410.38,1104.36 1418.4,1109.61 1426.18,1115.33 1433.71,1121.45 1440.98,1127.93 1448.02,1134.69 1454.8,1141.68 1461.34,1148.82 1467.63,1156.06 1473.67,1163.35 1479.48,1170.62 1485.03,1177.82 1490.35,1184.9 1495.43,1191.83 1500.27,1198.57 1504.87,1205.08 1509.24,1211.33 1513.37,1217.31 1517.27,1223 1520.93,1228.39 1524.37,1233.46 1527.57,1238.22 1530.54,1242.66 1533.29,1246.79 1535.8,1250.62 1538.09,1254.14 1540.14,1257.38 1541.97,1260.34 1543.58,1263.05 1544.95,1265.5 1546.1,1267.72 1547.02,1269.72 1547.71,1271.51 1548.18,1273.12 1548.41,1274.56 1548.42,1275.84 1548.21,1276.97 1547.76,1277.97 1547.09,1278.85 1546.19,1279.63 1545.06,1280.31 1543.7,1280.9 1542.11,1281.41 1540.3,1281.86 1538.26,1282.25 1535.99,1282.59 1533.49,1282.88 1530.76,1283.13 1527.81,1283.35 1524.63,1283.53 1521.23,1283.69 1517.6,1283.83 1513.74,1283.94 1509.66,1284.04 1505.36,1284.13 1500.83,1284.2 1496.08,1284.27 1491.11,1284.32 1485.92,1284.37 1480.52,1284.41 1474.9,1284.45 1469.06,1284.48 1463,1284.5 1456.74,1284.53 1450.26,1284.55 1443.58,1284.57 1436.69,1284.59 1429.59,1284.6 1422.29,1284.62 1414.79,1284.63 1407.09,1284.64 1399.19,1284.65 1391.1,1284.66 1382.82,1284.67 1374.35,1284.68 1365.69,1284.69 1356.85,1284.7 1347.83,1284.71 1338.62,1284.72 1329.25,1284.72 1319.7,1284.73 1309.99,1284.74 1300.1,1284.74 1290.06,1284.75 1279.86,1284.75 1269.5,1284.76 1258.99,1284.76 1248.33,1284.77 1237.52,1284.77 1226.58,1284.78 1215.5,1284.78 1204.28,1284.78 1192.94,1284.79 1181.47,1284.79 1169.88,1284.79 1158.17,1284.8 1146.35,1284.8 1134.42,1284.8 1122.39,1284.8 1110.26,1284.81 1098.03,1284.81 1085.71,1284.81 1073.31,1284.81 1060.82,1284.81 1048.26,1284.82 1035.62,1284.82 1022.92,1284.82 1010.15,1284.82 997.332,1284.82 984.457,1284.82 971.535,1284.82 958.569,1284.82 945.566,1284.82 932.53,1284.82 919.467,1284.82 906.381,1284.82 893.277,1284.82 880.162,1284.82 867.039,1284.82 853.915,1284.82 840.795,1284.81 827.683,1284.81 814.585,1284.81 801.507,1284.81 788.454,1284.81 775.43,1284.81 762.443,1284.8 749.495,1284.8 736.594,1284.8 723.745,1284.8 710.952,1284.79 698.221,1284.79 685.558,1284.79 672.968,1284.78 660.456,1284.78 648.027,1284.77 635.687,1284.77 623.442,1284.76 611.296,1284.76 599.254,1284.75 587.323,1284.75 575.506,1284.74 563.81,1284.74 552.239,1284.73 540.799,1284.72 529.495,1284.72 518.332,1284.71 507.314,1284.7 496.447,1284.7 485.737,1284.69 475.186,1284.68 464.802,1284.67 454.587,1284.66 444.548,1284.65 434.689,1284.64 425.014,1284.63 415.529,1284.62 406.237,1284.61 397.144,1284.6 388.253,1284.59 379.569,1284.57 371.096,1284.56 362.839,1284.55 354.802,1284.53 346.988,1284.52 339.403,1284.5 332.049,1284.49 324.93,1284.47 318.052,1284.45 311.416,1284.43 305.027,1284.41 298.888,1284.39 293.003,1284.37 287.375,1284.35 282.008,1284.33 276.904,1284.3 272.066,1284.28 267.499,1284.25 263.204,1284.23 259.184,1284.2 255.442,1284.17 251.981,1284.14 248.803,1284.1 245.91,1284.07 243.305,1284.03 240.99,1283.99 238.968,1283.95 237.239,1283.91 235.806,1283.87 234.67,1283.82 233.834,1283.77 233.298,1283.72 233.065,1283.66 233.134,1283.6 233.509,1283.54 234.188,1283.48 235.174,1283.41 236.468,1283.34 238.069,1283.26 239.979,1283.17 242.197,1283.09 244.725,1282.99 247.562,1282.89 250.708,1282.79 254.164,1282.67 257.928,1282.55 262.002,1282.42 266.383,1282.28 271.073,1282.14 276.069,1281.98 281.371,1281.8 286.978,1281.62 292.888,1281.42 299.102,1281.21 305.617,1280.97 312.431,1280.72 319.543,1280.45 326.951,1280.16 334.654,1279.84 342.648,1279.5 350.932,1279.12 359.504,1278.71 368.361,1278.26 377.499,1277.78 386.917,1277.24 396.612,1276.66 406.579,1276.02 416.817,1275.32 427.321,1274.55 438.087,1273.7 449.113,1272.77 460.394,1271.74 471.925,1270.6 483.704,1269.35 495.724,1267.96 507.982,1266.42 520.472,1264.72 533.19,1262.83 546.129,1260.73 559.285,1258.39 572.651,1255.8 586.222,1252.91 599.99,1249.7 613.95,1246.11 628.094,1242.12 642.414,1237.67 656.904,1232.7 671.554,1227.16 686.356,1220.98 701.3,1214.1 716.378,1206.42 731.579,1197.87 746.891,1188.35 762.304,1177.76 777.804,1166 793.379,1152.97 809.014,1138.53 824.695,1122.58 840.405,1105 856.128,1085.68 871.844,1064.52 887.535,1041.42 903.18,1016.31 918.755,989.157 934.239,959.942 949.607,928.706 964.831,895.542 979.885,860.607 994.74,824.133 1009.37,786.435 1023.74,747.918 1037.81,709.075 1051.57,670.492 1064.98,632.832 1078.01,596.825 1090.62,563.247 1102.8,532.887 1114.51,506.522 1125.74,484.871 1136.46,468.564 1146.66,458.103 1156.32,453.834 1165.43,455.923 1174,464.345 1182.02,478.888 1189.49,499.161 1196.42,524.619 1202.83,554.597 1208.72,588.339 1214.12,625.045 1219.04,663.902 1223.5,704.119 1227.52,744.956 1231.13,785.745 1234.35,825.901 1237.2,864.935 1239.69,902.451 1241.87,938.145 1243.73,971.799 1245.31,1003.27 1246.62,1032.49 1247.67,1059.43 1248.48,1084.13 1249.07,1106.64 1249.45,1127.06 1249.64,1145.5 1249.63,1162.08 1249.44,1176.93 1249.08,1190.18 1248.56,1201.97 1247.88,1212.43 1247.06,1221.67 1246.09,1229.83 1244.98,1237.01 1243.73,1243.31 1242.36,1248.83 1240.85,1253.66 1239.23,1257.87 1237.48,1261.53 1235.61,1264.72 1233.62,1267.48 1231.52,1269.88 1229.31,1271.95 1226.99,1273.74 1224.55,1275.28 1222.01,1276.61 1219.36,1277.75 1216.61,1278.73 1213.75,1279.57 1210.79,1280.29 1207.73,1280.91 1204.56,1281.43 1201.3,1281.88 1197.94,1282.27 1194.48,1282.6 1190.93,1282.88 1187.29,1283.11 1183.55,1283.32 1179.71,1283.49 1175.79,1283.63 1171.78,1283.76 1167.68,1283.86 1163.49,1283.95 1159.22,1284.03 1154.87,1284.09 1150.43,1284.15 1145.91,1284.2 1141.31,1284.24 1136.64,1284.27 1131.89,1284.3 1127.06,1284.33 1122.16,1284.35 1117.19,1284.37 1112.15,1284.39 1107.04,1284.4 1101.87,1284.41 1096.63,1284.42 1091.33,1284.43 1085.97,1284.44 1080.55,1284.45 1075.07,1284.45 1069.54,1284.46 1063.96,1284.47 1058.32,1284.47 1052.64,1284.47 1046.91,1284.48 1041.13,1284.48 1035.32,1284.48 1029.46,1284.49 1023.57,1284.49 1017.64,1284.49 1011.68,1284.49 1005.68,1284.5 999.659,1284.5 993.609,1284.5 987.535,1284.5 981.439,1284.5 975.324,1284.5 969.191,1284.5 963.044,1284.5 956.884,1284.5 950.714,1284.5 944.536,1284.5 938.354,1284.5 932.168,1284.5 925.983,1284.5 919.8,1284.5 913.621,1284.5 907.45,1284.49 901.289,1284.49 895.139,1284.49 889.005,1284.49 882.888,1284.49 876.791,1284.48 870.716,1284.48 864.666,1284.48 858.643,1284.48 852.651,1284.47 846.69,1284.47 840.765,1284.47 834.877,1284.46 829.029,1284.46 823.224,1284.46 817.463,1284.45 811.75,1284.45 806.087,1284.44 800.477,1284.44 794.921,1284.43 789.422,1284.43 783.983,1284.42 778.607,1284.42 773.295,1284.41 768.049,1284.4 762.873,1284.4 757.769,1284.39 752.739,1284.38 747.785,1284.38 742.909,1284.37 738.115,1284.36 733.403,1284.35 728.777,1284.35 724.238,1284.34 719.789,1284.33 715.431,1284.32 711.168,1284.31 707,1284.3 702.931,1284.29 698.961,1284.28 695.094,1284.27 691.33,1284.26 687.672,1284.25 684.123,1284.23 680.682,1284.22 677.353,1284.21 674.138,1284.2 671.037,1284.18 668.053,1284.17 665.187,1284.16 662.441,1284.14 659.817,1284.13 657.316,1284.11 654.939,1284.1 652.688,1284.08 650.564,1284.06 648.569,1284.04 646.704,1284.03 644.97,1284.01 643.369,1283.99 641.901,1283.97 640.568,1283.95 639.371,1283.93 638.31,1283.91 637.388,1283.89 636.604,1283.86 635.959,1283.84 635.455,1283.82 635.092,1283.79 634.87,1283.77 634.792,1283.74 634.856,1283.71 635.063,1283.68 635.415,1283.66 635.911,1283.63 636.551,1283.6 637.337,1283.56 638.268,1283.53 639.345,1283.5 640.567,1283.46 641.935,1283.43 643.449,1283.39 645.109,1283.35 646.914,1283.32 648.864,1283.28 650.96,1283.23 653.2,1283.19 655.585,1283.15 658.115,1283.1 660.788,1283.06 663.604,1283.01 666.563,1282.96 669.663,1282.91 672.905,1282.86 676.288,1282.8 679.81,1282.75 683.471,1282.69 687.269,1282.63 691.205,1282.57 695.276,1282.51 699.482,1282.44 703.821,1282.37 708.292,1282.31 712.895,1282.23 717.626,1282.16 722.486,1282.09 727.473,1282.01 732.584,1281.93 737.819,1281.85 743.176,1281.77 748.653,1281.68 754.248,1281.59 759.96,1281.5 765.787,1281.41 771.726,1281.31 777.776,1281.21 783.934,1281.11 790.199,1281.01 796.569,1280.9 803.041,1280.79 809.612,1280.68 816.282,1280.57 823.047,1280.45 829.904,1280.33 836.852,1280.21 843.888,1280.09 851.01,1279.96 858.214,1279.83 865.499,1279.7 872.861,1279.57 880.298,1279.43 887.807,1279.29 895.385,1279.15 903.029,1279.01 910.737,1278.87 918.506,1278.72 926.332,1278.58 934.213,1278.43 942.145,1278.28 950.126,1278.13 958.152,1277.98 966.221,1277.84 974.328,1277.69 982.472,1277.54 990.648,1277.39 998.854,1277.24 1007.09,1277.1 1015.34,1276.96 1023.62,1276.82 1031.91,1276.68 1040.21,1276.55 1048.52,1276.42 1056.84,1276.29 1065.17,1276.17 1073.49,1276.05 1081.81,1275.94 1090.12,1275.84 1098.42,1275.74 1106.7,1275.65 1114.97,1275.56 1123.22,1275.49 1131.44,1275.42 1139.64,1275.36 1147.8,1275.31 1155.93,1275.27 1164.02,1275.25 1172.06,1275.23 1180.07,1275.22 1188.02,1275.22 1195.93,1275.24 1203.77,1275.26 1211.56,1275.3 1219.29,1275.35 1226.95,1275.41 1234.54,1275.48 1242.07,1275.56 1249.51,1275.65 1256.88,1275.76 1264.17,1275.88 1271.37,1276 1278.48,1276.14 1285.51,1276.28 1292.44,1276.44 1299.27,1276.6 1306,1276.77 1312.63,1276.95 1319.16,1277.14 1325.57,1277.33 1331.87,1277.53 1338.06,1277.73 1344.13,1277.94 1350.08,1278.15 1355.91,1278.36 1361.61,1278.57 1367.18,1278.79 1372.62,1279 1377.93,1279.22 1383.1,1279.43 1388.14,1279.65 1393.03,1279.86 1397.78,1280.06 1402.38,1280.27 1406.84,1280.47 1411.15,1280.66 1415.3,1280.86 1419.3,1281.04 1423.14,1281.22 1426.82,1281.4 1430.34,1281.57 1433.7,1281.73 1436.89,1281.89 1439.92,1282.04 1442.78,1282.18 1445.47,1282.32 1447.99,1282.45 1450.33,1282.58 1452.5,1282.7 1454.5,1282.81 1456.31,1282.92 1457.95,1283.02 1459.4,1283.12 1460.68,1283.21 1461.77,1283.29 1462.67,1283.37 1463.4,1283.45 1463.93,1283.52 1464.28,1283.59 1464.44,1283.65 1464.41,1283.71 1464.2,1283.77 1463.79,1283.82 1463.19,1283.87 1462.4,1283.91 1461.42,1283.96 1460.25,1284 1458.89,1284.04 1457.33,1284.07 1455.58,1284.11 1453.64,1284.14 1451.51,1284.17 1449.18,1284.2 1446.67,1284.22 1443.96,1284.25 1441.05,1284.27 1437.96,1284.3 1434.68,1284.32 1431.21,1284.34 1427.54,1284.36 1423.69,1284.38 1419.65,1284.4 1415.43,1284.41 1411.02,1284.43 1406.42,1284.44 1401.64,1284.46 1396.67,1284.47 1391.53,1284.49 1386.2,1284.5 1380.7,1284.51 1375.02,1284.53 1369.16,1284.54 1363.13,1284.55 1356.92,1284.56 1350.55,1284.57 1344.01,1284.58 1337.3,1284.59 1330.43,1284.6 1323.39,1284.61 1316.19,1284.61 1308.84,1284.62 1301.33,1284.63 1293.66,1284.64 1285.85,1284.64 1277.89,1284.65 1269.78,1284.66 1261.52,1284.66 1253.13,1284.67 1244.6,1284.68 1235.94,1284.68 1227.14,1284.69 1218.22,1284.69 1209.17,1284.7 1199.99,1284.7 1190.7,1284.7 1181.29,1284.71 1171.77,1284.71 1162.14,1284.72 1152.4,1284.72 1142.56,1284.72 1132.62,1284.73 1122.59,1284.73 1112.46,1284.73 1102.25,1284.73 1091.95,1284.74 1081.57,1284.74 1071.11,1284.74 1060.58,1284.74 1049.99,1284.74 1039.32,1284.75 1028.6,1284.75 1017.82,1284.75 1006.99,1284.75 996.105,1284.75 985.178,1284.75 974.212,1284.75 963.209,1284.75 952.175,1284.75 941.113,1284.75 930.027,1284.75 918.923,1284.75 907.805,1284.75 896.677,1284.75 885.543,1284.75 874.407,1284.75 863.275,1284.75 852.151,1284.74 841.039,1284.74 829.944,1284.74 818.87,1284.74 807.822,1284.74 796.804,1284.73 785.821,1284.73 774.877,1284.73 763.977,1284.73 753.126,1284.72 742.327,1284.72 731.587,1284.72 720.908,1284.71 "/>
</svg>
