<?xml version="1.0" encoding="utf-8"?>
<svg xmlns="http://www.w3.org/2000/svg" xmlns:xlink="http://www.w3.org/1999/xlink" width="480" height="380" viewBox="0 0 1920 1520">
<defs>
  <clipPath id="clip400">
    <rect x="0" y="0" width="1920" height="1520"/>
  </clipPath>
</defs>
<path clip-path="url(#clip400)" d="M0 1520 L1920 1520 L1920 0 L0 0  Z" fill="#ffffff" fill-rule="evenodd" fill-opacity="1"/>
<defs>
  <clipPath id="clip401">
    <rect x="384" y="0" width="1345" height="1345"/>
  </clipPath>
</defs>
<path clip-path="url(#clip400)" d="M209.231 1328.59 L1872.76 1328.59 L1872.76 134.812 L209.231 134.812  Z" fill="#ffffff" fill-rule="evenodd" fill-opacity="1"/>
<defs>
  <clipPath id="clip402">
    <rect x="209" y="134" width="1665" height="1195"/>
  </clipPath>
</defs>
<polyline clip-path="url(#clip402)" style="stroke:#000000; stroke-linecap:round; stroke-linejoin:round; stroke-width:2; stroke-opacity:0.1; fill:none" points="583.529,1328.59 583.529,134.812 "/>
<polyline clip-path="url(#clip402)" style="stroke:#000000; stroke-linecap:round; stroke-linejoin:round; stroke-width:2; stroke-opacity:0.1; fill:none" points="1004.73,1328.59 1004.73,134.812 "/>
<polyline clip-path="url(#clip402)" style="stroke:#000000; stroke-linecap:round; stroke-linejoin:round; stroke-width:2; stroke-opacity:0.1; fill:none" points="1425.92,1328.59 1425.92,134.812 "/>
<polyline clip-path="url(#clip402)" style="stroke:#000000; stroke-linecap:round; stroke-linejoin:round; stroke-width:2; stroke-opacity:0.1; fill:none" points="1847.12,1328.59 1847.12,134.812 "/>
<polyline clip-path="url(#clip402)" style="stroke:#000000; stroke-linecap:round; stroke-linejoin:round; stroke-width:2; stroke-opacity:0.1; fill:none" points="209.231,1317.91 1872.76,1317.91 "/>
<polyline clip-path="url(#clip402)" style="stroke:#000000; stroke-linecap:round; stroke-linejoin:round; stroke-width:2; stroke-opacity:0.1; fill:none" points="209.231,1077.63 1872.76,1077.63 "/>
<polyline clip-path="url(#clip402)" style="stroke:#000000; stroke-linecap:round; stroke-linejoin:round; stroke-width:2; stroke-opacity:0.1; fill:none" points="209.231,837.343 1872.76,837.343 "/>
<polyline clip-path="url(#clip402)" style="stroke:#000000; stroke-linecap:round; stroke-linejoin:round; stroke-width:2; stroke-opacity:0.1; fill:none" points="209.231,597.059 1872.76,597.059 "/>
<polyline clip-path="url(#clip402)" style="stroke:#000000; stroke-linecap:round; stroke-linejoin:round; stroke-width:2; stroke-opacity:0.1; fill:none" points="209.231,356.774 1872.76,356.774 "/>
<polyline clip-path="url(#clip400)" style="stroke:#000000; stroke-linecap:round; stroke-linejoin:round; stroke-width:4; stroke-opacity:1; fill:none" points="209.231,1328.59 1872.76,1328.59 "/>
<polyline clip-path="url(#clip400)" style="stroke:#000000; stroke-linecap:round; stroke-linejoin:round; stroke-width:4; stroke-opacity:1; fill:none" points="583.529,1328.59 583.529,1309.69 "/>
<polyline clip-path="url(#clip400)" style="stroke:#000000; stroke-linecap:round; stroke-linejoin:round; stroke-width:4; stroke-opacity:1; fill:none" points="1004.73,1328.59 1004.73,1309.69 "/>
<polyline clip-path="url(#clip400)" style="stroke:#000000; stroke-linecap:round; stroke-linejoin:round; stroke-width:4; stroke-opacity:1; fill:none" points="1425.92,1328.59 1425.92,1309.69 "/>
<polyline clip-path="url(#clip400)" style="stroke:#000000; stroke-linecap:round; stroke-linejoin:round; stroke-width:4; stroke-opacity:1; fill:none" points="1847.12,1328.59 1847.12,1309.69 "/>
<path clip-path="url(#clip400)" d="M537.592 1370.32 L567.268 1370.32 L567.268 1374.26 L537.592 1374.26 L537.592 1370.32 Z" fill="#000000" fill-rule="nonzero" fill-opacity="1" /><path clip-path="url(#clip400)" d="M578.171 1383.21 L585.809 1383.21 L585.809 1356.85 L577.499 1358.52 L577.499 1354.26 L585.763 1352.59 L590.439 1352.59 L590.439 1383.21 L598.078 1383.21 L598.078 1387.15 L578.171 1387.15 L578.171 1383.21 Z" fill="#000000" fill-rule="nonzero" fill-opacity="1" /><path clip-path="url(#clip400)" d="M617.522 1355.67 Q613.911 1355.67 612.082 1359.23 Q610.277 1362.77 610.277 1369.9 Q610.277 1377.01 612.082 1380.58 Q613.911 1384.12 617.522 1384.12 Q621.156 1384.12 622.962 1380.58 Q624.791 1377.01 624.791 1369.9 Q624.791 1362.77 622.962 1359.23 Q621.156 1355.67 617.522 1355.67 M617.522 1351.96 Q623.332 1351.96 626.388 1356.57 Q629.467 1361.15 629.467 1369.9 Q629.467 1378.63 626.388 1383.24 Q623.332 1387.82 617.522 1387.82 Q611.712 1387.82 608.633 1383.24 Q605.578 1378.63 605.578 1369.9 Q605.578 1361.15 608.633 1356.57 Q611.712 1351.96 617.522 1351.96 Z" fill="#000000" fill-rule="nonzero" fill-opacity="1" /><path clip-path="url(#clip400)" d="M1004.73 1355.67 Q1001.12 1355.67 999.287 1359.23 Q997.482 1362.77 997.482 1369.9 Q997.482 1377.01 999.287 1380.58 Q1001.12 1384.12 1004.73 1384.12 Q1008.36 1384.12 1010.17 1380.58 Q1012 1377.01 1012 1369.9 Q1012 1362.77 1010.17 1359.23 Q1008.36 1355.67 1004.73 1355.67 M1004.73 1351.96 Q1010.54 1351.96 1013.59 1356.57 Q1016.67 1361.15 1016.67 1369.9 Q1016.67 1378.63 1013.59 1383.24 Q1010.54 1387.82 1004.73 1387.82 Q998.917 1387.82 995.838 1383.24 Q992.783 1378.63 992.783 1369.9 Q992.783 1361.15 995.838 1356.57 Q998.917 1351.96 1004.73 1351.96 Z" fill="#000000" fill-rule="nonzero" fill-opacity="1" /><path clip-path="url(#clip400)" d="M1400.61 1383.21 L1408.25 1383.21 L1408.25 1356.85 L1399.94 1358.52 L1399.94 1354.26 L1408.2 1352.59 L1412.88 1352.59 L1412.88 1383.21 L1420.52 1383.21 L1420.52 1387.15 L1400.61 1387.15 L1400.61 1383.21 Z" fill="#000000" fill-rule="nonzero" fill-opacity="1" /><path clip-path="url(#clip400)" d="M1439.96 1355.67 Q1436.35 1355.67 1434.52 1359.23 Q1432.72 1362.77 1432.72 1369.9 Q1432.72 1377.01 1434.52 1380.58 Q1436.35 1384.12 1439.96 1384.12 Q1443.6 1384.12 1445.4 1380.58 Q1447.23 1377.01 1447.23 1369.9 Q1447.23 1362.77 1445.4 1359.23 Q1443.6 1355.67 1439.96 1355.67 M1439.96 1351.96 Q1445.77 1351.96 1448.83 1356.57 Q1451.91 1361.15 1451.91 1369.9 Q1451.91 1378.63 1448.83 1383.24 Q1445.77 1387.82 1439.96 1387.82 Q1434.15 1387.82 1431.08 1383.24 Q1428.02 1378.63 1428.02 1369.9 Q1428.02 1361.15 1431.08 1356.57 Q1434.15 1351.96 1439.96 1351.96 Z" fill="#000000" fill-rule="nonzero" fill-opacity="1" /><path clip-path="url(#clip400)" d="M1825.9 1383.21 L1842.22 1383.21 L1842.22 1387.15 L1820.27 1387.15 L1820.27 1383.21 Q1822.93 1380.46 1827.52 1375.83 Q1832.12 1371.18 1833.3 1369.84 Q1835.55 1367.31 1836.43 1365.58 Q1837.33 1363.82 1837.33 1362.13 Q1837.33 1359.37 1835.39 1357.64 Q1833.47 1355.9 1830.36 1355.9 Q1828.16 1355.9 1825.71 1356.66 Q1823.28 1357.43 1820.5 1358.98 L1820.5 1354.26 Q1823.33 1353.12 1825.78 1352.54 Q1828.23 1351.96 1830.27 1351.96 Q1835.64 1351.96 1838.84 1354.65 Q1842.03 1357.34 1842.03 1361.83 Q1842.03 1363.96 1841.22 1365.88 Q1840.43 1367.77 1838.33 1370.37 Q1837.75 1371.04 1834.65 1374.26 Q1831.54 1377.45 1825.9 1383.21 Z" fill="#000000" fill-rule="nonzero" fill-opacity="1" /><path clip-path="url(#clip400)" d="M1862.03 1355.67 Q1858.42 1355.67 1856.59 1359.23 Q1854.78 1362.77 1854.78 1369.9 Q1854.78 1377.01 1856.59 1380.58 Q1858.42 1384.12 1862.03 1384.12 Q1865.66 1384.12 1867.47 1380.58 Q1869.3 1377.01 1869.3 1369.9 Q1869.3 1362.77 1867.47 1359.23 Q1865.66 1355.67 1862.03 1355.67 M1862.03 1351.96 Q1867.84 1351.96 1870.9 1356.57 Q1873.97 1361.15 1873.97 1369.9 Q1873.97 1378.63 1870.9 1383.24 Q1867.84 1387.82 1862.03 1387.82 Q1856.22 1387.82 1853.14 1383.24 Q1850.09 1378.63 1850.09 1369.9 Q1850.09 1361.15 1853.14 1356.57 Q1856.22 1351.96 1862.03 1351.96 Z" fill="#000000" fill-rule="nonzero" fill-opacity="1" /><path clip-path="url(#clip400)" d="M1057.61 1430.61 L1044.72 1447.95 L1058.28 1466.25 L1051.37 1466.25 L1040.99 1452.25 L1030.62 1466.25 L1023.71 1466.25 L1037.56 1447.6 L1024.89 1430.61 L1031.79 1430.61 L1041.25 1443.31 L1050.7 1430.61 L1057.61 1430.61 Z" fill="#000000" fill-rule="nonzero" fill-opacity="1" /><polyline clip-path="url(#clip400)" style="stroke:#000000; stroke-linecap:round; stroke-linejoin:round; stroke-width:4; stroke-opacity:1; fill:none" points="209.231,1328.59 209.231,134.812 "/>
<polyline clip-path="url(#clip400)" style="stroke:#000000; stroke-linecap:round; stroke-linejoin:round; stroke-width:4; stroke-opacity:1; fill:none" points="209.231,1317.91 228.129,1317.91 "/>
<polyline clip-path="url(#clip400)" style="stroke:#000000; stroke-linecap:round; stroke-linejoin:round; stroke-width:4; stroke-opacity:1; fill:none" points="209.231,1077.63 228.129,1077.63 "/>
<polyline clip-path="url(#clip400)" style="stroke:#000000; stroke-linecap:round; stroke-linejoin:round; stroke-width:4; stroke-opacity:1; fill:none" points="209.231,837.343 228.129,837.343 "/>
<polyline clip-path="url(#clip400)" style="stroke:#000000; stroke-linecap:round; stroke-linejoin:round; stroke-width:4; stroke-opacity:1; fill:none" points="209.231,597.059 228.129,597.059 "/>
<polyline clip-path="url(#clip400)" style="stroke:#000000; stroke-linecap:round; stroke-linejoin:round; stroke-width:4; stroke-opacity:1; fill:none" points="209.231,356.774 228.129,356.774 "/>
<path clip-path="url(#clip400)" d="M168.487 1303.71 Q164.876 1303.71 163.047 1307.28 Q161.241 1310.82 161.241 1317.95 Q161.241 1325.05 163.047 1328.62 Q164.876 1332.16 168.487 1332.16 Q172.121 1332.16 173.926 1328.62 Q175.755 1325.05 175.755 1317.95 Q175.755 1310.82 173.926 1307.28 Q172.121 1303.71 168.487 1303.71 M168.487 1300.01 Q174.297 1300.01 177.352 1304.61 Q180.431 1309.2 180.431 1317.95 Q180.431 1326.67 177.352 1331.28 Q174.297 1335.86 168.487 1335.86 Q162.676 1335.86 159.598 1331.28 Q156.542 1326.67 156.542 1317.95 Q156.542 1309.2 159.598 1304.61 Q162.676 1300.01 168.487 1300.01 Z" fill="#000000" fill-rule="nonzero" fill-opacity="1" /><path clip-path="url(#clip400)" d="M129.135 1090.97 L136.774 1090.97 L136.774 1064.61 L128.464 1066.27 L128.464 1062.01 L136.728 1060.35 L141.403 1060.35 L141.403 1090.97 L149.042 1090.97 L149.042 1094.91 L129.135 1094.91 L129.135 1090.97 Z" fill="#000000" fill-rule="nonzero" fill-opacity="1" /><path clip-path="url(#clip400)" d="M168.487 1063.43 Q164.876 1063.43 163.047 1066.99 Q161.241 1070.53 161.241 1077.66 Q161.241 1084.77 163.047 1088.33 Q164.876 1091.88 168.487 1091.88 Q172.121 1091.88 173.926 1088.33 Q175.755 1084.77 175.755 1077.66 Q175.755 1070.53 173.926 1066.99 Q172.121 1063.43 168.487 1063.43 M168.487 1059.72 Q174.297 1059.72 177.352 1064.33 Q180.431 1068.91 180.431 1077.66 Q180.431 1086.39 177.352 1091 Q174.297 1095.58 168.487 1095.58 Q162.676 1095.58 159.598 1091 Q156.542 1086.39 156.542 1077.66 Q156.542 1068.91 159.598 1064.33 Q162.676 1059.72 168.487 1059.72 Z" fill="#000000" fill-rule="nonzero" fill-opacity="1" /><path clip-path="url(#clip400)" d="M132.353 850.688 L148.672 850.688 L148.672 854.623 L126.728 854.623 L126.728 850.688 Q129.39 847.934 133.973 843.304 Q138.579 838.651 139.76 837.309 Q142.005 834.785 142.885 833.049 Q143.788 831.29 143.788 829.6 Q143.788 826.846 141.843 825.11 Q139.922 823.373 136.82 823.373 Q134.621 823.373 132.167 824.137 Q129.737 824.901 126.959 826.452 L126.959 821.73 Q129.783 820.596 132.237 820.017 Q134.69 819.438 136.728 819.438 Q142.098 819.438 145.292 822.123 Q148.487 824.809 148.487 829.299 Q148.487 831.429 147.677 833.35 Q146.889 835.248 144.783 837.841 Q144.204 838.512 141.102 841.73 Q138.001 844.924 132.353 850.688 Z" fill="#000000" fill-rule="nonzero" fill-opacity="1" /><path clip-path="url(#clip400)" d="M168.487 823.142 Q164.876 823.142 163.047 826.707 Q161.241 830.248 161.241 837.378 Q161.241 844.484 163.047 848.049 Q164.876 851.591 168.487 851.591 Q172.121 851.591 173.926 848.049 Q175.755 844.484 175.755 837.378 Q175.755 830.248 173.926 826.707 Q172.121 823.142 168.487 823.142 M168.487 819.438 Q174.297 819.438 177.352 824.045 Q180.431 828.628 180.431 837.378 Q180.431 846.105 177.352 850.711 Q174.297 855.295 168.487 855.295 Q162.676 855.295 159.598 850.711 Q156.542 846.105 156.542 837.378 Q156.542 828.628 159.598 824.045 Q162.676 819.438 168.487 819.438 Z" fill="#000000" fill-rule="nonzero" fill-opacity="1" /><path clip-path="url(#clip400)" d="M142.491 595.704 Q145.848 596.422 147.723 598.691 Q149.621 600.959 149.621 604.292 Q149.621 609.408 146.102 612.209 Q142.584 615.01 136.103 615.01 Q133.927 615.01 131.612 614.57 Q129.32 614.153 126.866 613.297 L126.866 608.783 Q128.811 609.917 131.126 610.496 Q133.44 611.075 135.964 611.075 Q140.362 611.075 142.653 609.339 Q144.968 607.603 144.968 604.292 Q144.968 601.237 142.815 599.524 Q140.686 597.788 136.866 597.788 L132.839 597.788 L132.839 593.945 L137.052 593.945 Q140.501 593.945 142.329 592.579 Q144.158 591.191 144.158 588.598 Q144.158 585.936 142.26 584.524 Q140.385 583.089 136.866 583.089 Q134.945 583.089 132.746 583.505 Q130.547 583.922 127.908 584.802 L127.908 580.635 Q130.57 579.894 132.885 579.524 Q135.223 579.154 137.283 579.154 Q142.607 579.154 145.709 581.584 Q148.811 583.992 148.811 588.112 Q148.811 590.982 147.167 592.973 Q145.524 594.941 142.491 595.704 Z" fill="#000000" fill-rule="nonzero" fill-opacity="1" /><path clip-path="url(#clip400)" d="M168.487 582.857 Q164.876 582.857 163.047 586.422 Q161.241 589.964 161.241 597.093 Q161.241 604.2 163.047 607.765 Q164.876 611.306 168.487 611.306 Q172.121 611.306 173.926 607.765 Q175.755 604.2 175.755 597.093 Q175.755 589.964 173.926 586.422 Q172.121 582.857 168.487 582.857 M168.487 579.154 Q174.297 579.154 177.352 583.76 Q180.431 588.343 180.431 597.093 Q180.431 605.82 177.352 610.427 Q174.297 615.01 168.487 615.01 Q162.676 615.01 159.598 610.427 Q156.542 605.82 156.542 597.093 Q156.542 588.343 159.598 583.76 Q162.676 579.154 168.487 579.154 Z" fill="#000000" fill-rule="nonzero" fill-opacity="1" /><path clip-path="url(#clip400)" d="M141.172 343.568 L129.366 362.017 L141.172 362.017 L141.172 343.568 M139.945 339.494 L145.825 339.494 L145.825 362.017 L150.755 362.017 L150.755 365.906 L145.825 365.906 L145.825 374.054 L141.172 374.054 L141.172 365.906 L125.57 365.906 L125.57 361.392 L139.945 339.494 Z" fill="#000000" fill-rule="nonzero" fill-opacity="1" /><path clip-path="url(#clip400)" d="M168.487 342.573 Q164.876 342.573 163.047 346.137 Q161.241 349.679 161.241 356.809 Q161.241 363.915 163.047 367.48 Q164.876 371.022 168.487 371.022 Q172.121 371.022 173.926 367.48 Q175.755 363.915 175.755 356.809 Q175.755 349.679 173.926 346.137 Q172.121 342.573 168.487 342.573 M168.487 338.869 Q174.297 338.869 177.352 343.475 Q180.431 348.059 180.431 356.809 Q180.431 365.535 177.352 370.142 Q174.297 374.725 168.487 374.725 Q162.676 374.725 159.598 370.142 Q156.542 365.535 156.542 356.809 Q156.542 348.059 159.598 343.475 Q162.676 338.869 168.487 338.869 Z" fill="#000000" fill-rule="nonzero" fill-opacity="1" /><path clip-path="url(#clip400)" d="M46.8662 745.212 L46.8662 717.394 L52.2134 717.394 L77.8354 739.419 L77.8354 717.394 L82.5142 717.394 L82.5142 746.008 L77.167 746.008 L51.545 723.983 L51.545 745.212 L46.8662 745.212 Z" fill="#000000" fill-rule="nonzero" fill-opacity="1" /><path clip-path="url(#clip400)" d="M829.111 12.096 L837.294 12.096 L837.294 65.6895 L866.744 65.6895 L866.744 72.576 L829.111 72.576 L829.111 12.096 Z" fill="#000000" fill-rule="nonzero" fill-opacity="1" /><path clip-path="url(#clip400)" d="M891.13 32.4315 Q885.135 32.4315 881.651 37.1306 Q878.167 41.7891 878.167 49.9314 Q878.167 58.0738 881.611 62.7728 Q885.094 67.4314 891.13 67.4314 Q897.085 67.4314 900.569 62.7323 Q904.053 58.0333 904.053 49.9314 Q904.053 41.8701 900.569 37.1711 Q897.085 32.4315 891.13 32.4315 M891.13 26.1121 Q900.852 26.1121 906.402 32.4315 Q911.952 38.7509 911.952 49.9314 Q911.952 61.0714 906.402 67.4314 Q900.852 73.7508 891.13 73.7508 Q881.368 73.7508 875.818 67.4314 Q870.309 61.0714 870.309 49.9314 Q870.309 38.7509 875.818 32.4315 Q881.368 26.1121 891.13 26.1121 Z" fill="#000000" fill-rule="nonzero" fill-opacity="1" /><path clip-path="url(#clip400)" d="M950.598 34.1734 Q949.342 33.4443 947.843 33.1202 Q946.385 32.7556 944.602 32.7556 Q938.283 32.7556 934.88 36.8875 Q931.518 40.9789 931.518 48.6757 L931.518 72.576 L924.024 72.576 L924.024 27.2059 L931.518 27.2059 L931.518 34.2544 Q933.867 30.1225 937.635 28.1376 Q941.402 26.1121 946.79 26.1121 Q947.559 26.1121 948.491 26.2337 Q949.423 26.3147 950.557 26.5172 L950.598 34.1734 Z" fill="#000000" fill-rule="nonzero" fill-opacity="1" /><path clip-path="url(#clip400)" d="M995.401 48.0275 L995.401 51.6733 L961.13 51.6733 Q961.616 59.3701 965.748 63.421 Q969.92 67.4314 977.333 67.4314 Q981.627 67.4314 985.638 66.3781 Q989.689 65.3249 993.659 63.2184 L993.659 70.267 Q989.648 71.9684 985.435 72.8596 Q981.222 73.7508 976.888 73.7508 Q966.031 73.7508 959.672 67.4314 Q953.352 61.1119 953.352 50.3365 Q953.352 39.1965 959.347 32.6746 Q965.383 26.1121 975.592 26.1121 Q984.747 26.1121 990.053 32.0264 Q995.401 37.9003 995.401 48.0275 M987.947 45.84 Q987.866 39.7232 984.504 36.0774 Q981.182 32.4315 975.673 32.4315 Q969.434 32.4315 965.667 35.9558 Q961.94 39.4801 961.373 45.8805 L987.947 45.84 Z" fill="#000000" fill-rule="nonzero" fill-opacity="1" /><path clip-path="url(#clip400)" d="M1045.35 45.1919 L1045.35 72.576 L1037.89 72.576 L1037.89 45.4349 Q1037.89 38.994 1035.38 35.7938 Q1032.87 32.5936 1027.85 32.5936 Q1021.81 32.5936 1018.33 36.4419 Q1014.84 40.2903 1014.84 46.9338 L1014.84 72.576 L1007.35 72.576 L1007.35 27.2059 L1014.84 27.2059 L1014.84 34.2544 Q1017.52 30.163 1021.12 28.1376 Q1024.77 26.1121 1029.51 26.1121 Q1037.33 26.1121 1041.34 30.9732 Q1045.35 35.7938 1045.35 45.1919 Z" fill="#000000" fill-rule="nonzero" fill-opacity="1" /><path clip-path="url(#clip400)" d="M1056.97 27.2059 L1092.38 27.2059 L1092.38 34.0114 L1064.35 66.6212 L1092.38 66.6212 L1092.38 72.576 L1055.96 72.576 L1055.96 65.7705 L1083.99 33.1607 L1056.97 33.1607 L1056.97 27.2059 Z" fill="#000000" fill-rule="nonzero" fill-opacity="1" /><path clip-path="url(#clip400)" d="M1167.85 27.2059 L1151.44 49.2833 L1168.7 72.576 L1159.91 72.576 L1146.7 54.752 L1133.5 72.576 L1124.71 72.576 L1142.33 48.8377 L1126.2 27.2059 L1134.99 27.2059 L1147.03 43.369 L1159.06 27.2059 L1167.85 27.2059 Z" fill="#000000" fill-rule="nonzero" fill-opacity="1" /><path clip-path="url(#clip400)" d="M1175.46 46.9338 L1208.84 46.9338 L1208.84 52.7671 L1175.46 52.7671 L1175.46 46.9338 Z" fill="#000000" fill-rule="nonzero" fill-opacity="1" /><path clip-path="url(#clip400)" d="M1217.47 27.2059 L1252.88 27.2059 L1252.88 34.0114 L1224.84 66.6212 L1252.88 66.6212 L1252.88 72.576 L1216.46 72.576 L1216.46 65.7705 L1244.49 33.1607 L1217.47 33.1607 L1217.47 27.2059 Z" fill="#000000" fill-rule="nonzero" fill-opacity="1" /><polyline clip-path="url(#clip402)" style="stroke:#009af9; stroke-linecap:round; stroke-linejoin:round; stroke-width:1.6; stroke-opacity:1; fill:none" points="1046.85,1293.88 1048.91,1294.53 1054.72,1294.8 1064.1,1294.54 1077.22,1293.47 1094.57,1291.15 1116.91,1286.87 1145.28,1279.54 1180.95,1267.47 1225.43,1248.05 1280.29,1217.47 1346.92,1170.35 1425.94,1099.73 1516.17,998.047 1613.14,860.02 1707.46,688.267 1784.23,499.991 1825.68,328.346 1817.51,210.868 1756.36,168.598 1652.12,194.365 1523.11,261.682 1388.12,342.867 1260.97,419.96 1149.22,485.375 1055.43,538.016 979.068,579.587 918.069,612.439 869.81,638.663 831.671,659.833 801.287,677.031 776.653,690.956 756.132,702.028 738.439,710.482 722.594,716.431 707.886,719.922 693.835,720.97 680.159,719.592 666.748,715.84 653.641,709.82 641.006,701.727 629.114,691.857 618.315,680.619 609.006,668.538 601.588,656.23 596.426,644.368 593.802,633.629 593.878,624.632 596.668,617.881 602.022,613.718 609.641,612.301 619.094,613.601 629.865,617.433 641.389,623.486 653.101,631.371 664.472,640.66 675.035,650.92 684.4,661.733 692.263,672.71 698.399,683.497 702.661,693.771 704.966,703.24 705.284,711.634 703.635,718.706 700.081,724.228 694.721,727.991 687.696,729.808 679.19,729.526 669.435,727.039 658.716,722.298 647.381,715.343 635.836,706.313 624.542,695.473 614.003,683.223 604.745,670.094 597.277,656.729 592.054,643.844 589.431,632.165 589.622,622.365 592.672,614.991 598.443,610.414 606.625,608.801 616.763,610.118 628.303,614.153 640.64,620.566 653.168,628.928 665.32,638.778 676.601,649.649 686.601,661.098 695,672.717 701.569,684.135 706.155,695.019 708.676,705.066 709.106,714 707.467,721.565 703.821,727.522 698.271,731.651 690.956,733.751 682.061,733.654 671.821,731.233 660.526,726.423 648.53,719.244 636.256,709.825 624.187,698.427 612.86,685.457 602.837,671.472 594.675,657.157 588.874,643.285 585.836,630.649 585.81,619.989 588.86,611.914 594.852,606.839 603.461,604.954 614.2,606.224 626.469,610.42 639.617,617.166 652.987,626 665.97,636.419 678.033,647.924 688.74,660.044 697.754,672.348 704.834,684.449 709.824,696.002 712.64,706.695 713.256,716.244 711.696,724.383 708.023,730.865 702.338,735.456 694.781,737.942 685.535,738.134 674.832,735.885 662.964,731.105 650.291,723.793 637.246,714.055 624.335,702.143 612.122,688.463 601.213,673.591 592.213,658.252 585.68,643.277 582.068,629.535 581.674,617.847 584.595,608.894 590.71,603.152 599.681,600.844 610.995,601.944 624.006,606.208 638.008,613.228 652.291,622.501 666.195,633.483 679.144,645.636 690.669,658.456 700.411,671.488 708.116,684.328 713.619,696.616 716.836,708.031 717.739,718.28 716.353,727.089 712.742,734.201 707.003,739.37 699.275,742.365 689.735,742.978 678.611,741.035 666.191,736.419 652.837,729.097 638.988,719.148 625.165,706.798 611.963,692.446 600.028,676.676 590.021,660.245 582.562,644.046 578.173,629.026 577.213,616.101 579.826,606.046 585.916,599.414 595.148,596.479 606.982,597.238 620.729,601.437 635.624,608.64 650.896,618.298 665.823,629.821 679.781,642.626 692.259,656.175 702.87,669.982 711.34,683.621 717.496,696.718 721.247,708.941 722.567,719.988 721.477,729.578 718.042,737.444 712.357,743.327 704.555,746.982 694.804,748.176 683.326,746.709 670.4,742.431 656.38,735.269 641.708,725.262 626.915,712.599 612.618,697.655 599.505,681.008 588.292,663.439 579.672,645.892 574.248,629.403 572.459,614.993 574.517,603.554 580.373,595.74 589.706,591.906 601.961,592.085 616.409,596.029 632.222,603.275 648.557,613.23 664.625,625.249 679.736,638.701 693.33,653 704.981,667.627 714.391,682.13 721.374,696.118 725.829,709.246 727.727,721.202 727.091,731.7 723.982,740.463 718.492,747.221 710.745,751.712 700.903,753.684 689.172,752.906 675.818,749.187 661.181,742.409 645.695,732.559 629.89,719.775 614.401,704.383 599.948,686.938 587.306,668.221 577.247,649.222 570.467,631.06 567.508,614.877 568.678,601.704 573.998,592.334 583.191,587.232 595.701,586.501 610.763,589.918 627.488,597.001 644.954,607.112 662.286,619.549 678.717,633.617 693.622,648.677 706.526,664.166 717.095,679.601 725.12,694.567 730.493,708.706 733.177,721.697 733.194,733.245 730.601,743.067 725.489,750.884 717.973,756.421 708.203,759.403 696.366,759.569 682.708,756.689 667.548,750.588 651.298,741.19 634.479,728.56 617.724,712.957 601.781,694.878 587.473,675.081 575.653,654.573 567.129,634.547 562.565,616.273 562.399,600.949 566.762,589.544 575.452,582.682 587.943,580.584 603.452,583.08 621.029,589.692 639.664,599.741 658.383,612.457 676.321,627.073 692.769,642.883 707.183,659.266 719.181,675.699 728.523,691.736 735.081,707.001 738.813,721.163 739.735,733.919 737.904,744.982 733.406,754.067 726.35,760.886 716.87,765.149 705.135,766.565 691.361,764.861 675.837,759.808 658.94,751.251 641.163,739.166 623.124,723.715 605.573,705.3 589.371,684.613 575.448,662.638 564.725,640.617 558.017,619.938 555.927,601.984 558.747,587.95 566.401,578.683 578.438,574.582 594.088,575.592 612.355,581.27 632.135,590.91 652.341,603.674 671.984,618.706 690.241,635.213 706.476,652.501 720.238,669.988 731.239,687.189 739.324,703.702 744.435,719.181 746.585,733.317 745.828,745.818 742.249,756.399 735.95,764.764 727.051,770.611 715.698,773.628 702.078,773.505 686.437,769.951 669.104,762.734 650.523,751.721 631.272,736.949 612.076,718.684 593.807,697.493 577.45,674.279 564.037,650.271 554.546,626.945 549.786,605.871 550.267,588.509 556.112,576.004 567.017,569.032 582.28,567.737 600.892,571.78 621.668,580.463 643.388,592.883 664.913,608.086 685.271,625.163 703.696,643.322 719.634,661.897 732.727,680.346 742.772,698.229 749.688,715.178 753.478,730.875 754.196,745.026 751.924,757.344 746.763,767.539 738.823,775.302 728.229,780.309 715.135,782.221 699.738,780.699 682.308,775.43 663.218,766.169 642.974,752.803 622.241,735.421 601.859,714.4 582.827,690.474 566.257,664.769 553.289,638.767 544.961,614.18 542.064,592.751 545.012,576 553.751,564.997 567.743,560.225 586.042,561.566 607.416,568.41 630.513,579.824 654.016,594.745 676.756,612.125 697.784,631.03 716.398,650.677 732.123,670.434 744.685,689.8 753.957,708.373 759.921,725.816 762.628,741.834 762.164,756.142 758.63,768.458 752.136,778.481 742.791,785.886 730.719,790.324 716.069,791.422 699.043,788.802 679.926,782.118 659.123,771.098 637.194,755.625 614.889,735.825 593.154,712.164 573.122,685.533 556.043,657.273 543.177,629.121 535.64,603.041 534.231,580.961 539.284,564.476 550.582,554.596 567.377,551.627 588.486,555.208 612.469,564.474 637.815,578.282 663.11,595.421 687.154,614.765 709.017,635.355 728.048,656.418 743.84,677.352 756.187,697.691 765.031,717.066 770.405,735.166 772.399,751.715 771.125,766.441 766.697,779.061 759.227,789.268 748.818,796.721 735.582,801.041 719.655,801.817 701.226,798.628 680.578,791.068 658.124,778.817 634.46,761.713 610.394,739.873 586.97,713.802 565.448,684.498 547.229,653.488 533.727,622.76 526.185,594.555 525.469,571.043 531.897,553.968 545.149,544.355 564.3,542.4 587.955,547.54 614.463,558.682 642.141,574.476 669.456,593.556 695.146,614.706 718.269,636.923 738.199,659.43 754.574,681.642 767.243,703.117 776.2,723.514 781.524,742.546 783.341,759.956 781.787,775.487 776.988,788.861 769.053,799.772 758.077,807.867 744.149,812.745 727.377,813.959 707.919,811.03 686.022,803.48 662.075,790.897 636.659,773.02 610.599,749.869 584.995,721.888 561.21,690.078 540.805,656.065 525.395,622.052 516.438,590.588 514.986,564.198 521.474,544.934 535.601,534.015 556.347,531.673 582.143,537.238 611.121,549.419 641.376,566.645 671.194,587.355 699.182,610.187 724.325,634.053 745.967,658.133 763.757,681.833 777.573,704.719 787.448,726.47 793.506,746.823 795.908,765.543 794.819,782.394 790.382,797.119 782.712,809.424 771.892,818.961 757.987,825.325 741.064,828.042 721.221,826.586 698.634,820.396 673.608,808.932 646.64,791.764 618.486,768.698 590.212,739.948 563.214,706.319 539.179,669.338 519.952,631.28 507.317,594.983 502.708,563.451 506.917,539.321 519.899,524.347 540.736,519.114 567.786,523.063 598.966,534.796 632.084,552.498 665.125,574.326 696.433,598.666 724.795,624.239 749.429,650.108 769.922,675.614 786.139,700.303 798.132,723.856 806.063,746.03 810.138,766.619 810.565,785.421 807.523,802.214 801.149,816.741 791.531,828.689 778.717,837.68 762.731,843.256 743.599,844.874 721.387,841.92 696.254,833.732 668.521,819.666 638.741,799.209 607.79,772.146 576.92,738.775 547.789,700.136 522.393,658.178 502.885,615.741 491.285,576.278 489.107,543.286 497.017,519.607 514.634,506.842 540.569,505.114 572.675,513.256 608.436,529.295 645.369,550.996 681.326,576.292 714.655,603.505 744.242,631.4 769.455,659.129 790.04,686.139 806.015,712.072 817.557,736.688 824.926,759.806 828.396,781.27 828.217,800.913 824.586,818.543 817.637,833.92 807.439,846.744 794.004,856.635 777.304,863.118 757.299,865.611 733.974,863.427 707.4,855.79 677.799,841.894 645.642,821.007 611.748,792.66 577.38,756.899 544.304,714.592 514.75,667.693 491.245,619.322 476.275,573.508 471.829,534.539 478.937,506.046 497.367,490.179 525.616,487.219 561.207,495.782 601.179,513.44 642.592,537.458 682.924,565.35 720.27,595.158 753.385,625.502 781.601,655.485 804.703,684.565 822.785,712.426 836.118,738.882 845.058,763.811 849.967,787.111 851.17,808.676 848.923,828.373 843.398,846.026 834.683,861.403 822.787,874.193 807.647,883.991 789.152,890.272 767.171,892.378 741.597,889.504 712.41,880.711 679.763,864.985 644.093,841.354 606.259,809.113 567.664,768.152 530.357,719.376 497.001,665.081 470.671,609.104 454.416,556.485 450.645,512.565 460.516,481.718 483.557,466.248 517.71,465.981 559.78,478.695 606.117,501.078 653.262,529.709 698.397,561.708 739.534,594.977 775.49,628.163 805.758,660.478 830.314,691.509 849.442,721.062 863.59,749.057 873.257,775.461 878.921,800.249 880.994,823.386 879.796,844.81 875.541,864.422 868.34,882.074 858.203,897.55 845.046,910.55 828.704,920.664 808.95,927.341 785.522,929.861 758.164,927.305 726.689,918.548 691.078,902.292 651.609,877.176 609.031,842.01 564.757,796.188 521.033,740.254 480.992,676.526 448.458,609.479 427.429,545.484 421.242,491.643 431.665,453.939 458.292,435.512 498.55,435.99 548.335,452.151 602.981,479.409 658.174,513.25 710.524,550.1 757.776,587.556 798.722,624.22 832.981,659.402 860.739,692.835 882.515,724.471 898.986,754.36 910.861,782.579 918.798,809.204 923.366,834.293 925.017,857.883 924.085,879.989 920.785,900.594 915.219,919.653 907.384,937.074 897.179,952.71 884.408,966.338 868.789,977.63 849.958,986.122 827.483,991.165 800.886,991.873 769.683,987.07 733.46,975.244 691.987,954.558 645.407,922.964 594.491,878.517 540.957,819.995 487.771,747.846 439.283,665.303 400.949,579.1 378.457,498.97 376.309,435.386 396.343,396.189 436.954,383.929 493.475,395.598 559.546,424.69 628.738,464.013 695.769,507.684 757.033,551.829 810.571,594.359 855.739,634.409 892.788,671.805 922.499,706.686 945.897,739.3 964.07,769.892 978.05,798.676 988.76,825.824 996.985,851.472 1003.38,875.729 1008.47,898.685 1012.69,920.416 1016.38,940.987 1019.82,960.455 1023.24,978.869 1026.84,996.272 1030.83,1012.7 1035.37,1028.17 1040.68,1042.69 1046.95,1056.26 1054.45,1068.83 1063.45,1080.35 1074.31,1090.68 1087.44,1099.64 1103.33,1106.91 1122.57,1112.03 1145.86,1114.32 1173.99,1112.78 1207.84,1105.97 1248.31,1091.89 1296.2,1067.84 1351.98,1030.39 1415.4,975.681 1484.89,900.167 1556.89,802.34 1625.18,685.237 1680.99,558.877 1714.35,440.344 1716.93,349.272 1685.39,299.753 1623.07,294.075 1538.84,323.239 1443.88,373.148 1348.3,431.039 1259.32,488.548 1180.97,541.606 1114.66,589.003 1060.07,630.97 1015.9,668.254 980.419,701.638 951.799,731.76 928.314,759.066 908.422,783.832 890.791,806.191 874.292,826.155 857.973,843.633 841.033,858.433 822.79,870.254 802.665,878.678 780.171,883.155 754.928,882.993 726.684,877.366 695.377,865.35 661.213,846.011 624.772,818.573 587.128,782.693 549.948,738.81 515.51,688.537 486.588,634.899 466.131,582.239 456.752,535.602 460.129,499.676 476.538,477.641 504.694,470.457 542.009,476.903 585.145,494.27 630.661,519.304 675.528,548.98 717.433,580.915 754.85,613.453 786.964,645.56 813.509,676.644 834.603,706.398 850.587,734.671 861.904,761.389 869.014,786.504 872.333,809.969 872.2,831.715 868.862,851.639 862.462,869.593 853.047,885.365 840.571,898.663 824.906,909.089 805.866,916.116 783.227,919.059 756.771,917.05 726.348,909.036 691.964,893.809 653.905,870.114 612.895,836.865 570.272,793.517 528.14,740.578 489.414,680.166 457.655,616.359 436.599,554.991 429.422,502.642 437.905,465.013 461.855,445.336 499.059,443.654 545.801,457.292 597.734,482.127 650.727,513.92 701.446,549.183 747.586,585.476 787.841,621.315 821.71,655.912 849.265,688.918 870.928,720.226 887.297,749.838 899.018,777.8 906.707,804.162 910.895,828.96 912.007,852.206 910.353,873.89 906.126,893.965 899.404,912.343 890.163,928.884 878.279,943.375 863.535,955.505 845.634,964.839 824.208,970.774 798.849,972.496 769.14,968.932 734.731,958.72 695.438,940.219 651.413,911.612 603.363,871.183 552.827,817.836 502.431,751.892 456.02,676.035 418.442,595.956 394.848,520.062 389.508,457.739 404.514,416.565 438.971,399.837 489.145,405.914 549.502,429.607 614.128,464.536 677.896,505.066 737.088,547.192 789.489,588.552 834.162,628.004 871.086,665.159 900.819,700.011 924.215,732.715 942.237,763.466 955.825,792.447 965.834,819.813 972.991,845.689 977.899,870.18 981.03,893.371 982.747,915.335 983.313,936.136 982.909,955.83 981.645,974.465 979.572,992.084 976.687,1008.72 972.939,1024.39 968.234,1039.12 962.427,1052.89 955.325,1065.67 946.679,1077.39 936.176,1087.95 923.428,1097.16 907.964,1104.71 889.216,1110.19 866.511,1112.93 839.073,1111.99 806.039,1105.99 766.51,1093.01 719.67,1070.46 664.994,1035.01 602.624,982.838 533.915,910.321 462.14,815.582 393.128,700.924 335.329,575.354 298.651,455.106 291.778,359.792 318.833,304.599 377.351,293.475 459.059,318.685 552.947,366.473 648.655,423.715 738.558,481.456 818.245,535.137 886.003,583.252 941.964,625.897 987.326,663.773 1023.78,697.669 1053.14,728.241 1077.15,755.959 1097.38,781.12 1115.19,803.873 1131.71,824.249 1147.94,842.17 1164.68,857.462 1182.63,869.842 1202.39,878.912 1224.46,884.142 1249.25,884.863 1277.02,880.265 1307.9,869.425 1341.72,851.388 1377.99,825.32 1415.73,790.759 1453.38,747.966 1488.74,698.315 1519.09,644.594 1541.45,590.977 1553.07,542.51 1552.04,504.09 1537.79,479.279 1511.36,469.463 1475.16,473.748 1432.49,489.581 1386.84,513.696 1341.36,542.952 1298.54,574.818 1260.03,607.506 1226.77,639.883 1199.1,671.297 1176.95,701.405 1160,730.041 1147.81,757.126 1139.92,782.616 1135.88,806.467 1135.34,828.621 1138.03,848.986 1143.79,867.427 1152.54,883.751 1164.33,897.687 1179.27,908.866 1197.52,916.796 1219.33,920.828 1244.92,920.137 1274.48,913.705 1308.05,900.342 1345.44,878.771 1386.06,847.811 1428.75,806.713 1471.57,755.649 1511.81,696.288 1545.98,632.241 1570.28,569.034 1581.27,513.295 1576.71,471.203 1556.26,446.771 1521.7,440.83 1476.5,451.227 1424.97,473.987 1371.44,504.729 1319.49,539.686 1271.72,576.138 1229.66,612.382 1193.99,647.488 1164.73,681.031 1141.53,712.867 1123.79,742.987 1110.87,771.439 1102.12,798.278 1096.99,823.548 1095,847.276 1095.82,869.461 1099.22,890.073 1105.08,909.044 1113.39,926.257 1124.26,941.533 1137.88,954.606 1154.51,965.096 1174.51,972.473 1198.29,976.012 1226.27,974.745 1258.87,967.416 1296.36,952.471 1338.77,928.11 1385.67,892.483 1435.91,844.098 1487.31,782.532 1536.51,709.363 1578.94,629.054 1609.35,549.151 1622.84,479.14 1616.2,427.902 1589.05,400.814 1544.09,398.167 1486.39,415.829 1421.99,447.457 1356.55,486.809 1294.46,529.101 1238.55,571.315 1190.23,611.877 1149.84,650.163 1116.99,686.065 1090.9,719.709 1070.6,751.296 1055.1,781.026 1043.51,809.071 1035.01,835.573 1028.94,860.648 1024.76,884.39 1022.05,906.881 1020.5,928.191 1019.86,948.382 1019.98,967.511 1020.77,985.629 1022.16,1002.78 1024.15,1019.01 1026.77,1034.35 1030.08,1048.83 1034.19,1062.45 1039.23,1075.24 1045.38,1087.17 1052.87,1098.19 1061.99,1108.24 1073.09,1117.17 1086.61,1124.76 1103.08,1130.7 1123.11,1134.46 1147.48,1135.29 1177.03,1132.09 1212.72,1123.25 1255.53,1106.51 1306.3,1078.86 1365.48,1036.46 1432.65,975.041 1505.87,890.915 1580.82,783.043 1650.24,656.015 1704.19,522.548 1731.92,402.624 1725.42,317.131 1682.83,278.471 1609.68,285.139 1516.68,324.613 1415.86,381.172 1317.27,442.237 1227.48,500.459 1149.72,552.808 1084.72,598.802 1031.66,639.088 988.912,674.6 954.561,706.184 926.692,734.475 903.543,759.889 883.576,782.656 865.48,802.855 848.159,820.439 830.703,835.25 812.359,847.024 792.51,855.382 770.662,859.833 746.452,859.771 719.667,854.489 690.29,843.226 658.565,825.254 625.082,800.032 590.863,767.435 557.422,728.034 526.761,683.374 501.248,636.128 483.341,589.966 475.174,549.053 478.1,517.233 492.331,497.17 516.818,489.797 549.44,494.315 587.425,508.671 627.854,530.257 668.083,556.527 706.016,585.369 740.191,615.223 769.749,645.04 794.32,674.16 813.882,702.189 828.639,728.892 838.907,754.118 845.036,777.753 847.355,799.685 846.136,819.783 841.574,837.877 833.784,853.746 822.8,867.099 808.586,877.554 791.054,884.62 770.088,887.677 745.59,885.968 717.533,878.606 686.042,864.619 651.497,843.056 614.656,813.179 576.79,774.765 539.77,728.488 506.076,676.299 478.635,621.622 460.441,569.138 454,524.028 460.724,490.81 480.51,472.216 511.681,468.622 551.345,478.296 596.011,498.222 642.237,525.064 687.11,555.877 728.489,588.432 765.031,621.234 796.08,653.378 821.495,684.367 841.479,713.952 856.426,742.017 866.805,768.507 873.082,793.386 875.668,816.608 874.888,838.106 870.972,857.776 864.043,875.465 854.126,890.954 841.155,903.941 824.985,914.015 805.409,920.629 782.188,923.069 755.093,920.436 723.969,911.636 688.83,895.419 649.987,870.494 608.214,835.765 564.934,790.726 522.365,736.007 483.563,673.945 452.219,608.916 432.149,547.055 426.507,495.125 436.931,458.782 462.987,440.989 502.188,441.397 550.599,456.97 603.746,483.368 657.476,516.288 708.511,552.287 754.643,589.018 794.673,625.091 828.195,659.796 855.356,692.837 876.634,724.141 892.662,753.734 904.11,781.674 911.604,808.02 915.68,832.815 916.766,856.079 915.171,877.808 911.085,897.966 904.588,916.476 895.655,933.212 884.161,947.978 869.887,960.489 852.535,970.338 831.73,976.956 807.045,979.57 778.039,977.147 744.308,968.356 705.593,951.563 661.928,924.902 613.856,886.506 562.713,834.984 510.911,770.193 462.129,694.233 421.198,612.271 393.492,532.533 383.777,464.822 394.819,417.699 426.358,395.635 475.043,397.835 535.379,419.363 601.193,453.576 666.96,494.349 728.561,537.211 783.465,579.469 830.52,619.799 869.594,657.735 901.205,693.254 926.217,726.522 945.628,757.756 960.432,787.156 971.537,814.896 979.729,841.113 985.663,865.922 989.865,889.415 992.748,911.673 994.627,932.767 995.736,952.76 996.244,971.711 996.266,989.673 995.876,1006.7 995.114,1022.83 993.991,1038.11 992.495,1052.59 990.588,1066.29 988.213,1079.25 985.289,1091.49 981.706,1103.03 977.328,1113.87 971.98,1124.02 965.447,1133.44 957.458,1142.07 947.683,1149.81 935.711,1156.5 921.042,1161.87 903.064,1165.51 881.045,1166.8 854.119,1164.82 821.292,1158.18 781.481,1144.88 733.613,1122.13 676.835,1086.19 610.9,1032.43 536.795,956.062 457.624,853.699 379.543,726.424 312.146,583.415 267.377,443.592 256.312,331.488 284.713,266.947 350.068,255.298 442.414,286.368 548.392,342.394 655.668,407.102 755.497,470.1 843.125,526.674 916.979,575.747 977.543,617.944 1026.41,654.407 1065.61,686.223 1097.25,714.223 1123.3,738.968 1145.45,760.778 1165.17,779.786 1183.67,795.977 1201.91,809.212 1220.7,819.245 1240.63,825.73 1262.14,828.234 1285.53,826.251 1310.88,819.239 1338.07,806.681 1366.71,788.187 1396.07,763.64 1425.09,733.374 1452.34,698.365 1476.07,660.352 1494.42,621.819 1505.64,585.764 1508.39,555.24 1502.06,532.787 1486.9,519.937 1464.06,516.991 1435.37,523.122 1403.01,536.741 1369.2,555.942 1335.94,578.875 1304.79,603.973 1276.88,630.027 1252.9,656.169 1233.17,681.797 1217.77,706.501 1206.61,729.991 1199.49,752.044 1196.2,772.463 1196.52,791.048 1200.28,807.578 1207.36,821.788 1217.68,833.355 1231.19,841.885 1247.9,846.901 1267.77,847.838 1290.74,844.057 1316.64,834.872 1345.12,819.629 1375.6,797.823 1407.12,769.28 1438.35,734.388 1467.54,694.334 1492.62,651.256 1511.35,608.195 1521.73,568.757 1522.3,536.487 1512.55,514.137 1493.04,503.099 1465.36,503.234 1431.82,513.142 1395.01,530.69 1357.43,553.58 1321.21,579.748 1287.93,607.565 1258.62,635.855 1233.83,663.828 1213.76,690.978 1198.33,716.98 1187.34,741.616 1180.5,764.722 1177.53,786.148 1178.17,805.735 1182.24,823.291 1189.61,838.574 1200.23,851.281 1214.08,861.022 1231.21,867.31 1251.68,869.547 1275.51,867.024 1302.63,858.938 1332.83,844.452 1365.62,822.809 1400.16,793.526 1435.13,756.662 1468.72,713.138 1498.6,665.015 1522.17,615.567 1536.87,568.995 1540.7,529.722 1532.65,501.431 1513.05,486.212 1483.54,484.203 1446.74,493.838 1405.7,512.538 1363.44,537.471 1322.49,566.11 1284.74,596.501 1251.42,627.287 1223.12,657.608 1200.04,686.95 1182.03,715.023 1168.79,741.661 1159.95,766.755 1155.12,790.216 1153.98,811.948 1156.26,831.826 1161.78,849.682 1170.47,865.293 1182.32,878.355 1197.4,888.47 1215.84,895.12 1237.78,897.647 1263.36,895.24 1292.62,886.943 1325.46,871.703 1361.48,848.485 1399.89,816.49 1439.3,775.482 1477.71,726.232 1512.41,670.926 1540.26,613.376 1558.05,558.735 1563.18,512.593 1554.3,479.656 1531.74,462.529 1497.5,461.207 1454.85,473.474 1407.55,495.9 1359.22,524.895 1312.81,557.421 1270.43,591.273 1233.33,625.031 1202.03,657.881 1176.57,689.404 1156.66,719.415 1141.81,747.844 1131.52,774.673 1125.25,799.894 1122.59,823.484 1123.18,845.402 1126.79,865.567 1133.28,883.856 1142.64,900.082 1154.92,913.982 1170.3,925.19 1189,933.205 1211.31,937.366 1237.5,936.81 1267.85,930.457 1302.48,917.014 1341.28,895.051 1383.71,863.182 1428.66,820.416 1474.15,766.701 1517.32,703.597 1554.41,634.857 1581.2,566.482 1593.79,505.874 1589.57,460.051 1568.07,433.602 1531.18,427.447 1482.74,439.059 1427.57,463.864 1370.39,496.914 1315.12,534.058 1264.5,572.388 1220.1,610.161 1182.55,646.489 1151.8,681.013 1127.37,713.661 1108.58,744.486 1094.66,773.584 1084.89,801.054 1078.63,826.978 1075.35,851.418 1074.65,874.414 1076.25,895.985 1079.96,916.123 1085.74,934.79 1093.6,951.907 1103.69,967.342 1116.22,980.892 1131.5,992.254 1149.91,1000.99 1171.92,1006.48 1198.04,1007.87 1228.83,1004.01 1264.77,993.374 1306.21,974.072 1353.18,943.911 1405.09,900.662 1460.45,842.642 1516.46,769.693 1568.81,684.43 1611.82,593.27 1639.26,506.274 1645.82,435.03 1628.85,388.929 1589.4,371.806 1532.07,381.119 1463.57,409.991 1390.95,450.437 1320.07,495.799 1255,541.672 1197.98,585.705 1149.77,626.951 1110.14,665.253 1078.24,700.805 1052.98,733.906 1033.15,764.85 1017.64,793.881 1005.42,821.191 995.621,846.927 987.511,871.199 980.475,894.091 974.006,915.667 967.674,935.97 961.105,955.027 953.958,972.84 945.903,989.387 936.607,1004.61 925.71,1018.39 912.817,1030.57 897.476,1040.86 879.174,1048.87 857.323,1053.99 831.268,1055.4 800.305,1051.9 763.729,1041.88 720.932,1023.23 671.585,993.327 615.912,949.254 555.112,888.328 491.848,809.219 430.692,713.61 378.181,607.93 342.057,503.895 329.49,416.345 344.698,358.281 387.169,335.669 451.629,345.648 529.82,379.21 613.02,425.862 694.011,477.123 767.96,527.708 832.363,575.08 886.521,618.462 930.92,657.968 966.708,694.043 995.312,727.175 1018.2,757.778 1036.77,786.161 1052.25,812.537 1065.7,837.036 1078.03,859.721 1090.04,880.596 1102.38,899.607 1115.67,916.631 1130.46,931.467 1147.28,943.812 1166.66,953.235 1189.12,959.136 1215.15,960.708 1245.23,956.9 1279.73,946.387 1318.8,927.604 1362.24,898.858 1409.29,858.619 1458.36,806.031 1506.82,741.675 1550.93,668.403 1586.05,591.856 1607.39,520.055 1611.09,461.702 1595.41,423.633 1561.37,408.668 1512.62,415.133 1454.39,438.175 1392.24,471.891 1330.98,511.055 1274.11,551.916 1223.73,592.219 1180.76,630.837 1145.25,667.348 1116.69,701.704 1094.3,734.018 1077.2,764.449 1064.5,793.156 1055.41,820.273 1049.26,845.911 1045.5,870.16 1043.72,893.091 1043.6,914.764 1044.93,935.222 1047.61,954.497 1051.6,972.605 1056.94,989.544 1063.73,1005.29 1072.17,1019.76 1082.5,1032.87 1095.04,1044.42 1110.2,1054.14 1128.47,1061.61 1150.43,1066.24 1176.74,1067.14 1208.13,1063.09 1245.33,1052.43 1288.99,1032.92 1339.47,1001.82 1396.54,956.026 1458.99,892.672 1524,810.336 1586.76,710.832 1640.34,601.093 1676.59,493.707 1688.02,404.455 1670.42,346.817 1624.65,326.441 1556.59,339.546 1475.07,376.156 1389.17,425.185 1306.22,477.993 1231,529.408 1165.85,577.096 1111.3,620.463 1066.7,659.752 1030.79,695.489 1002.05,728.203 978.937,758.325 960.03,786.164 944.06,811.926 929.935,835.721 916.722,857.589 903.625,877.498 889.948,895.345 875.071,910.95 858.426,924.032 839.471,934.191 817.689,940.873 792.59,943.337 763.736,940.624 730.795,931.538 693.626,914.676 652.421,888.536 607.878,851.764 561.428,803.598 515.417,744.511 473.186,676.923 438.872,605.675 416.832,537.756 410.707,480.981 422.389,441.864 451.354,423.664 494.692,425.681 547.856,444.117 605.778,473.815 663.856,509.878 718.567,548.552 767.642,587.415 809.939,625.13 845.184,661.093 873.677,695.12 896.046,727.231 913.062,757.524 925.51,786.118 934.117,813.116 939.502,838.607 942.168,862.654 942.491,885.304 940.731,906.579 937.037,926.481 931.456,944.985 923.94,962.027 914.353,977.499 902.472,991.225 887.988,1002.94 870.511,1012.25 849.569,1018.61 824.624,1021.23 795.094,1019.03 760.406,1010.57 720.088,994.004 673.929,967.09 622.222,927.386 566.097,872.724 507.93,802.107 451.673,717.017 402.892,622.749 368.17,528.866 353.73,447.673 363.546,390.52 397.815,363.636 452.683,366.165 521.446,391.614 596.528,431.332 671.244,477.6 740.764,525.087 802.274,570.843 854.654,613.631 897.97,653.199 933.017,689.745 960.944,723.613 983.017,755.144 1000.47,784.62 1014.41,812.26 1025.81,838.222 1035.5,862.622 1044.18,885.537 1052.43,907.015 1060.76,927.073 1069.62,945.7 1079.42,962.842 1090.59,978.4 1103.54,992.205 1118.74,1004 1136.66,1013.41 1157.87,1019.88 1182.96,1022.63 1212.54,1020.6 1247.22,1012.37 1287.51,996.074 1333.64,969.481 1385.36,930.127 1441.58,875.801 1499.97,805.425 1556.63,720.365 1605.99,625.8 1641.45,531.23 1656.7,449.02 1647.63,390.716 1613.9,362.801 1559.29,364.606 1490.5,389.693 1415.15,429.339 1340.03,475.712 1270.03,523.38 1208.04,569.325 1155.22,612.28 1111.51,651.981 1076.13,688.629 1047.93,722.573 1025.62,754.159 1007.97,783.674 993.843,811.339 982.269,837.315 972.407,861.717 963.553,884.62 955.111,906.072 946.568,926.085 937.464,944.643 927.372,961.686 915.871,977.104 902.529,990.715 886.884,1002.25 868.431,1011.29 846.62,1017.26 820.855,1019.35 790.521,1016.44 755.033,1007.04 713.935,989.26 667.063,960.829 614.801,919.335 558.426,862.737 500.5,790.322 445.183,704.032 398.188,609.724 366.094,517.398 354.87,439.363 368.01,386.389 405.145,363.742 461.977,369.69 531.626,397.321 606.61,438.052 680.498,484.498 748.759,531.697 808.835,576.975 859.786,619.255 901.792,658.358 935.696,694.507 962.664,728.043 983.953,759.295 1000.77,788.536 1014.21,815.973 1025.21,841.76 1034.57,866.008 1042.97,888.791 1050.98,910.158 1059.09,930.128 1067.73,948.689 1077.3,965.795 1088.23,981.351 1100.92,995.198 1115.81,1007.09 1133.4,1016.66 1154.24,1023.38 1178.91,1026.5 1208.05,1024.98 1242.27,1017.42 1282.12,1002 1327.89,976.469 1379.4,938.336 1435.7,885.258 1494.58,815.913 1552.29,731.299 1603.35,636.176 1641.1,539.765 1658.98,454.52 1652.46,392.545 1620.76,361.147 1567.32,360.346 1498.75,383.962 1422.84,423.128 1346.6,469.666 1275.21,517.807 1211.77,564.306 1157.57,607.774 1112.63,647.901 1076.19,684.885 1047.09,719.086 1024.04,750.867 1005.76,780.528 991.097,808.298 979.035,834.344 968.711,858.782 959.395,881.687 950.467,903.099 941.393,923.024 931.693,941.433 920.919,958.247 908.631,973.334 894.377,986.478 877.676,997.36 858.011,1005.51 834.821,1010.29 807.514,1010.76 775.501,1005.71 738.26,993.541 695.458,972.259 647.139,939.599 594.006,893.333 537.777,831.925 481.545,755.605 429.96,667.665 388.973,575.372 364.875,489.491 362.684,421.72 384.441,380.746 428.314,369.16 489.065,383.238 559.653,415.466 633.083,457.823 703.733,503.975 767.885,549.93 823.625,593.671 870.437,634.471 908.732,672.289 939.444,707.373 963.736,740.038 982.811,770.577 997.798,799.23 1009.7,826.18 1019.37,851.564 1027.54,875.487 1034.81,898.024 1041.68,919.229 1048.59,939.135 1055.91,957.751 1064.01,975.061 1073.24,991.012 1083.95,1005.51 1096.56,1018.38 1111.5,1029.38 1129.27,1038.12 1150.43,1044.07 1175.62,1046.42 1205.51,1044.08 1240.78,1035.55 1282.04,1018.86 1329.62,991.55 1383.41,950.851 1442.38,894.133 1504.19,819.876 1564.72,729.172 1617.96,627.397 1656.55,524.981 1673.38,435.865 1663.73,373.199 1627.2,344.243 1568.05,347.896 1493.84,376.469 1413.04,419.934 1333.03,469.601 1259,519.701 1193.87,567.233 1138.67,611.095 1093.17,651.209 1056.38,687.929 1026.98,721.709 1003.54,752.957 984.697,781.993 969.225,809.046 956.053,834.267 944.268,857.744 933.093,879.514 921.859,899.559 909.972,917.81 896.892,934.133 882.102,948.313 865.092,960.03 845.344,968.825 822.328,974.063 795.519,974.882 764.422,970.149 728.645,958.432 688.008,938.021 642.715,907.061 593.591,863.867 542.36,807.509 491.902,738.675 446.33,660.627 410.696,579.74 390.163,504.943 388.741,445.673 407.996,408.935 446.4,397.046 499.677,407.41 562.013,434.278 627.485,471.174 691.16,512.676 749.603,555.1 800.876,596.366 844.269,635.534 879.923,672.332 908.497,706.817 930.9,739.169 948.117,769.591 961.09,798.268 970.663,825.352 977.553,850.966 982.344,875.214 985.499,898.179 987.372,919.936 988.222,940.549 988.232,960.077 987.519,978.571 986.147,996.079 984.133,1012.64 981.453,1028.29 978.045,1043.06 973.809,1056.95 968.606,1069.98 962.252,1082.12 954.514,1093.33 945.1,1103.51 933.648,1112.53 919.716,1120.16 902.767,1126.03 882.16,1129.62 857.138,1130.13 826.834,1126.39 790.305,1116.73 746.603,1098.83 694.94,1069.57 634.982,1025.1 567.331,961.253 494.22,874.656 420.298,764.942 353.139,637.678 302.773,506.508 279.589,391.609 290.809,312.828 337.269,280.667 412.72,291.989 506.251,333.75 606.145,390.705 702.902,451.111 790.458,508.311 865.956,559.673 928.886,604.878 980.172,644.594 1021.46,679.726 1054.65,711.076 1081.63,739.238 1104.1,764.599 1123.57,787.368 1141.32,807.611 1158.4,825.273 1175.71,840.19 1193.99,852.093 1213.84,860.596 1235.77,865.199 1260.15,865.277 1287.2,860.099 1316.96,848.866 1349.19,830.801 1383.33,805.301 1418.35,772.173 1452.73,731.933 1484.4,686.11 1510.91,637.419 1529.7,589.653 1538.51,547.17 1535.87,514.03 1521.52,493.066 1496.51,485.286 1463.03,489.853 1423.98,504.602 1382.4,526.787 1341.04,553.741 1302.06,583.265 1266.96,613.756 1236.63,644.149 1211.42,673.787 1191.32,702.288 1176.12,729.431 1165.47,755.082 1158.98,779.141 1156.33,801.512 1157.2,822.078 1161.4,840.687 1168.81,857.137 1179.37,871.154 1193.14,882.378 1210.22,890.339 1230.73,894.437 1254.81,893.926 1282.54,887.912 1313.87,875.388 1348.51,855.32 1385.82,826.82 1424.65,789.436 1463.23,743.54 1499.15,690.763 1529.43,634.288 1550.89,578.764 1560.69,529.645 1556.99,492.001 1539.52,469.236 1509.65,462.293 1470.22,469.724 1424.8,488.501 1377.09,515.074 1330.26,546.212 1286.7,579.427 1247.97,613.041 1214.84,646.038 1187.51,677.867 1165.82,708.262 1149.34,737.11 1137.59,764.371 1130.05,790.027 1126.28,814.057 1125.89,836.418 1128.61,857.038 1134.29,875.799 1142.87,892.53 1154.39,906.984 1168.97,918.816 1186.82,927.562 1208.21,932.598 1233.4,933.115 1262.65,928.096 1296.11,916.315 1333.7,896.394 1374.99,866.965 1418.98,826.974 1463.91,776.173 1507.14,715.756 1545.14,648.954 1573.83,581.218 1589.3,519.582 1588.68,471.104 1571.03,440.873 1537.73,430.584 1492.19,438.442 1438.99,460.323 1382.82,491.389 1327.73,527.366 1276.69,565.13 1231.48,602.722 1192.94,639.089 1161.14,673.766 1135.72,706.615 1116.04,737.656 1101.39,766.966 1091.04,794.634 1084.35,820.737 1080.8,845.334 1079.95,868.46 1081.52,890.128 1085.33,910.321 1091.31,928.992 1099.49,946.049 1109.99,961.342 1123.04,974.643 1138.94,985.62 1158.08,993.797 1180.91,998.508 1207.94,998.841 1239.67,993.58 1276.54,981.158 1318.8,959.664 1366.31,926.962 1418.26,881.021 1472.88,820.572 1527.06,746.121 1576.27,661.121 1614.81,572.718 1636.81,491.149 1637.68,427.277 1615.72,388.992 1572.82,378.507 1513.99,392.273 1445.89,423.304 1375.12,464.141 1307,508.848 1245.07,553.621 1191.18,596.484 1145.88,636.674 1108.81,674.093 1079.12,708.93 1055.71,741.458 1037.47,771.942 1023.32,800.602 1012.32,827.612 1003.67,853.109 996.699,877.2 990.846,899.971 985.665,921.492 980.782,941.819 975.881,960.997 970.681,979.056 964.921,996.014 958.342,1011.87 950.67,1026.59 941.608,1040.11 930.815,1052.33 917.893,1063.05 902.381,1071.99 883.734,1078.72 861.321,1082.63 834.428,1082.79 802.272,1077.93 764.058,1066.27 719.084,1045.45 666.943,1012.51 607.844,964.085 543.098,897.091 475.709,810.008 410.897,704.922 356.139,589.596 320.207,477.954 310.944,387.086 332.453,330.962 383.215,314.504 456.453,332.438 542.546,373.407 631.963,425.604 717.298,480.306 793.947,532.599 859.824,580.476 914.667,623.612 959.337,662.427 995.265,697.546 1024.08,729.546 1047.41,758.873 1066.71,785.832 1083.31,810.609 1098.3,833.287 1112.64,853.864 1127.15,872.255 1142.52,888.291 1159.4,901.704 1178.33,912.111 1199.86,918.984 1224.44,921.626 1252.47,919.152 1284.22,910.48 1319.77,894.374 1358.87,869.555 1400.77,834.941 1444.1,790.041 1486.66,735.493 1525.41,673.636 1556.69,608.838 1576.7,547.207 1582.33,495.474 1571.93,459.266 1545.96,441.53 1506.89,441.921 1458.63,457.429 1405.64,483.735 1352.07,516.558 1301.17,552.47 1255.15,589.128 1215.21,625.141 1181.76,659.798 1154.65,692.801 1133.42,724.072 1117.44,753.635 1106.03,781.548 1098.58,807.866 1094.55,832.631 1093.51,855.862 1095.17,877.553 1099.33,897.665 1105.92,916.118 1114.96,932.784 1126.58,947.46 1140.99,959.857 1158.51,969.558 1179.5,975.985 1204.39,978.353 1233.62,975.615 1267.57,966.43 1306.5,949.153 1350.33,921.924 1398.49,882.905 1449.58,830.771 1501.13,765.497 1549.4,689.34 1589.53,607.635 1616.19,528.699 1624.71,462.278 1612.52,416.701 1580.05,396.125 1530.78,399.493 1470.24,421.754 1404.57,456.301 1339.2,497.12 1278.14,539.865 1223.83,581.935 1177.37,622.063 1138.83,659.81 1107.7,695.163 1083.1,728.288 1064.04,759.398 1049.54,788.69 1038.69,816.333 1030.73,842.462 1025.02,867.189 1021.03,890.607 1018.37,912.793 1016.74,933.818 1015.9,953.744 1015.71,972.628 1016.05,990.524 1016.87,1007.48 1018.15,1023.54 1019.89,1038.74 1022.13,1053.12 1024.94,1066.71 1028.4,1079.53 1032.63,1091.59 1037.81,1102.89 1044.12,1113.41 1051.82,1123.1 1061.21,1131.87 1072.69,1139.57 1086.71,1145.96 1103.84,1150.68 1124.77,1153.18 1150.3,1152.61 1181.37,1147.74 1218.99,1136.8 1264.21,1117.27 1317.89,1085.77 1380.43,1038.08 1451.18,969.583 1527.7,876.601 1604.84,758.88 1674.21,622.988 1724.77,484.614 1745.35,366.359 1728.69,289.365 1674.87,263.196 1591.66,282.131 1491.3,330.616 1386.26,392.144 1286.14,454.92 1196.69,512.824 1120.33,563.83 1057.16,608.073 1005.93,646.503 964.77,680.166 931.643,709.925 904.589,736.389 881.852,759.932 861.92,780.736 843.528,798.83 825.629,814.119 807.37,826.393 788.067,835.337 767.185,840.532 744.338,841.464 719.299,837.539 692.035,828.126 662.753,812.634 631.967,790.64 600.558,762.069 569.823,727.422 541.466,687.985 517.499,645.958 500.028,604.372 490.931,566.721 491.487,536.357 502.066,515.794 521.995,506.22 549.652,507.373 582.767,517.83 618.822,535.525 655.421,558.259 690.556,584.078 722.736,611.437 750.988,639.222 774.795,666.676 793.985,693.308 808.623,718.794 818.912,742.915 825.115,765.496 827.499,786.376 826.298,805.381 821.688,822.305 813.786,836.891 802.644,848.814 788.262,857.668 770.608,862.946 749.651,864.039 725.401,860.234 697.973,850.745 667.66,834.786 635.035,811.7 601.047,781.161 567.106,743.451 535.121,699.757 507.418,652.387 486.528,604.762 474.803,561.028 473.952,525.316 484.618,500.826 506.162,489.12 536.755,489.924 573.742,501.478 614.151,521.226 655.168,546.495 694.468,574.971 730.365,604.89 761.807,635.04 788.28,664.648 809.674,693.252 826.141,720.579 837.982,746.465 845.553,770.792 849.205,793.458 849.237,814.344 845.876,833.303 839.268,850.139 829.473,864.591 816.476,876.317 800.2,884.872 780.528,889.686 757.339,890.053 730.558,885.123 700.223,873.933 666.586,855.481 630.227,828.883 592.192,793.63 554.107,749.953 518.238,699.234 487.407,644.318 464.699,589.504 452.959,540.001 454.166,500.866 468.89,475.755 496.061,466.05 533.168,470.765 576.815,487.213 623.402,511.998 669.704,541.889 713.218,574.309 752.27,607.458 785.944,640.214 813.921,671.94 836.299,702.313 853.427,731.184 865.77,758.488 873.818,784.194 878.02,808.269 878.748,830.665 876.281,851.302 870.789,870.058 862.344,886.754 850.917,901.139 836.393,912.863 818.583,921.456 797.25,926.296 772.137,926.578 743.024,921.298 709.8,909.258 672.577,889.137 631.838,859.645 588.622,819.841 544.706,769.609 502.73,710.262 466.144,645.081 438.874,579.43 424.651,520.094 426.126,473.761 444.075,445.164 477.065,435.792 521.764,443.856 573.762,465.403 628.532,495.827 682.195,531.054 731.912,568.088 775.941,605.034 813.482,640.855 844.433,675.073 869.142,707.533 888.201,738.232 902.297,767.229 912.108,794.597 918.243,820.397 921.207,844.672 921.386,867.443 919.05,888.701 914.35,908.409 907.331,926.488 897.934,942.807 886.003,957.165 871.292,969.265 853.474,978.685 832.147,984.835 806.86,986.907 777.143,983.821 742.573,974.184 702.88,956.28 658.105,928.153 608.833,887.856 556.494,833.97 503.659,766.44 454.232,687.639 413.304,603.212 386.464,521.974 378.549,454.185 392.165,408.477 426.695,388.918 478.337,394.036 541.213,418.259 608.932,454.576 675.929,496.778 738.169,540.492 793.269,583.187 840.235,623.687 879.072,661.636 910.404,697.085 935.171,730.24 954.425,761.34 969.193,790.598 980.405,818.192 988.866,844.264 995.243,868.927 1000.08,892.277 1003.81,914.395 1006.77,935.349 1009.23,955.204 1011.4,974.018 1013.44,991.842 1015.51,1008.72 1017.72,1024.71 1020.19,1039.84 1023.03,1054.14 1026.37,1067.65 1030.35,1080.37 1035.13,1092.33 1040.9,1103.5 1047.89,1113.85 1056.4,1123.33 1066.75,1131.8 1079.38,1139.1 1094.79,1144.92 1113.61,1148.83 1136.56,1150.14 1164.52,1147.87 1198.45,1140.55 1239.37,1126.09 1288.28,1101.62 1345.85,1063.37 1412.06,1006.91 1485.54,927.878 1562.71,823.864 1637.01,697.354 1698.74,558.931 1736.49,427.894 1740.48,327.192 1706.59,273.493 1638.56,269.24 1546.6,303.357 1443.43,359.092 1340.34,421.86 1245.14,482.607 1161.95,537.322 1092,585.142 1034.71,626.666 988.494,662.916 951.384,694.86 921.371,723.235 896.59,748.533 875.4,771.036 856.41,790.853 838.457,807.956 820.585,822.2 802.017,833.328 782.13,840.98 760.445,844.691 736.631,843.9 710.524,837.975 682.166,826.263 651.869,808.19 620.277,783.409 588.433,752.004 557.815,714.735 530.298,673.24 508.017,630.101 493.1,588.669 487.304,552.577 491.641,525.044 506.103,508.196 529.613,502.678 560.208,507.705 595.409,521.475 632.635,541.739 669.559,566.295 704.326,593.291 735.624,621.327 762.662,649.428 785.074,676.951 802.804,703.486 815.995,728.765 824.895,752.599 829.788,774.832 830.944,795.308 828.584,813.852 822.868,830.248 813.888,844.225 801.673,855.436 786.203,863.446 767.43,867.713 745.315,867.585 719.873,862.306 691.245,851.055 659.778,833.028 626.129,807.595 591.369,774.524 557.066,734.287 525.298,688.367 498.542,639.44 479.407,591.286 470.204,548.284 472.453,514.55 486.479,492.995 511.27,484.702 544.653,488.885 583.743,503.391 625.475,525.46 667.07,552.393 706.324,581.962 741.709,612.535 772.333,643.028 797.819,672.774 818.163,701.384 833.592,728.638 844.45,754.402 851.118,778.576 853.949,801.067 853.238,821.763 849.2,840.514 841.961,857.123 831.563,871.322 817.968,882.757 801.077,890.967 780.754,895.357 756.86,895.189 729.307,889.576 698.13,877.507 663.592,857.937 626.305,829.949 587.375,793.036 548.527,747.493 512.154,694.85 481.218,638.196 458.927,582.125 448.188,532.112 450.936,493.343 467.588,469.398 496.846,461.398 535.952,468.019 581.315,486.273 629.219,512.581 676.412,543.649 720.431,576.921 759.678,610.662 793.323,643.818 821.133,675.818 843.274,706.384 860.149,735.401 872.26,762.829 880.122,788.653 884.2,812.854 884.876,835.397 882.429,856.212 877.031,875.191 868.751,892.17 857.554,906.912 843.318,919.089 825.84,928.249 804.864,933.792 780.105,934.93 751.298,930.666 718.272,919.79 681.055,900.926 640.024,872.671 596.09,833.889 550.905,784.174 507.018,724.492 467.877,657.803 437.549,589.33 420.073,526.051 418.538,475.209 434.173,442.303 465.874,429.511 510.42,435.4 563.286,455.991 619.683,486.394 675.418,522.177 727.372,560.038 773.6,597.879 813.177,634.556 845.946,669.551 872.247,702.706 892.699,734.032 908.031,763.611 918.973,791.533 926.185,817.883 930.222,842.724 931.523,866.099 930.404,888.027 927.064,908.5 921.591,927.483 913.973,944.897 904.099,960.612 891.77,974.426 876.695,986.043 858.504,995.031 836.751,1000.78 810.937,1002.46 780.537,998.944 745.069,988.748 704.202,970.036 657.922,940.682 606.789,898.528 552.264,841.94 497.047,770.736 445.31,687.392 402.547,598.025 374.821,512.294 367.355,441.438 382.879,394.746 420.545,376.278 476.043,383.918 542.897,411.204 614.236,450.396 684.219,494.901 748.741,540.261 805.484,584.031 853.591,625.179 893.223,663.481 925.147,699.089 950.429,732.28 970.22,763.334 985.628,792.49 997.649,819.939 1007.14,845.827 1014.83,870.269 1021.31,893.355 1027.07,915.156 1032.53,935.726 1038.02,955.107 1043.86,973.324 1050.33,990.385 1057.73,1006.27 1066.36,1020.94 1076.54,1034.29 1088.66,1046.18 1103.14,1056.36 1120.48,1064.47 1141.28,1069.97 1166.2,1072.09 1195.96,1069.73 1231.34,1061.35 1273.04,1044.9 1321.57,1017.75 1376.97,976.806 1438.42,918.944 1503.69,842.008 1568.6,746.469 1626.8,637.466 1670.21,526.04 1690.67,427.767 1682.51,357.926 1644.84,325.304 1582.17,328.912 1502.85,359.937 1416.35,406.851 1330.82,459.817 1251.95,512.5 1182.81,561.779 1124.41,606.656 1076.38,647.225 1037.56,683.992 1006.45,717.524 981.478,748.301 961.142,776.675 944.106,802.882 929.208,827.058 915.455,849.255 901.998,869.453 888.107,887.556 873.132,903.388 856.487,916.678 837.622,927.033 816.018,933.914 791.192,936.599 762.716,934.158 730.272,925.438 693.732,909.094 653.293,883.691 609.647,847.952 564.184,801.17 519.174,743.821 477.83,678.23 444.123,609.011 422.238,542.819 415.693,487.128 426.368,448.247 453.85,429.465 495.437,430.323 546.82,447.356 603.124,475.693 659.867,510.603 713.56,548.388 761.913,586.605 803.728,623.866 838.664,659.512 866.954,693.312 889.171,725.251 906.039,755.404 918.307,783.87 926.67,810.74 931.728,836.089 933.96,859.969 933.725,882.412 931.264,903.424 926.704,922.987 920.07,941.045 911.287,957.498 900.191,972.186 886.527,984.866 869.956,995.181 850.059,1002.62 826.35,1006.47 798.298,1005.76 765.373,999.188 727.13,985.07 683.343,961.378 634.22,925.871 580.696,876.481 524.793,812.063 469.941,733.516 421.076,645.015 384.224,554.64 365.387,473.428 368.89,412.435 395.843,378.898 443.567,373.81 506.36,392.426 577.193,427.068 649.433,470.16 717.969,516.012 779.559,561.178 832.656,603.996 876.978,643.919 913.057,680.975 941.872,715.418 964.579,747.551 982.344,777.646 996.247,805.923 1007.24,832.551 1016.13,857.662 1023.59,881.354 1030.18,903.702 1036.37,924.765 1042.56,944.58 1049.09,963.169 1056.3,980.53 1064.49,996.632 1074.01,1011.41 1085.22,1024.74 1098.51,1036.44 1114.36,1046.2 1133.29,1053.6 1155.91,1057.99 1182.89,1058.47 1214.95,1053.79 1252.8,1042.21 1297.01,1021.5 1347.87,988.925 1404.99,941.502 1466.95,876.641 1530.73,793.398 1591.31,694.241 1641.75,586.725 1674.13,483.63 1681.55,400.141 1660.56,348.431 1612.71,332.762 1544.13,348.608 1463.5,386.092 1379.5,434.741 1298.95,486.589 1226.25,536.94 1163.47,583.701 1111.01,626.36 1068.19,665.156 1033.76,700.577 1006.24,733.115 984.145,763.17 966.112,791.031 950.922,816.894 937.531,840.871 925.045,863.007 912.701,883.284 899.833,901.624 885.842,917.874 870.172,931.793 852.292,943.03 831.677,951.087 807.816,955.289 780.224,954.739 748.482,948.289 712.318,934.537 671.721,911.885 627.121,878.726 579.609,833.815 531.182,776.876 484.904,709.395 444.86,635.341 415.732,561.328 401.92,495.684 406.4,446.365 429.736,418.512 469.771,412.981 522.174,426.667 581.573,454.23 642.761,490.078 701.53,529.676 755.022,569.978 801.671,609.259 840.947,646.717 873.036,682.093 898.548,715.402 918.299,746.77 933.153,776.344 943.931,804.264 951.354,830.646 956.02,855.585 958.405,879.154 958.86,901.412 957.625,922.4 954.843,942.146 950.564,960.656 944.757,977.916 937.313,993.88 928.049,1008.46 916.703,1021.51 902.936,1032.81 886.323,1042.01 866.358,1048.61 842.449,1051.89 813.939,1050.85 780.137,1044.08 740.4,1029.71 694.264,1005.39 641.681,968.309 583.362,915.648 521.245,845.348 458.973,757.538 402.162,656.301 358.068,550.91 334.28,455.035 336.55,382.98 366.619,344.265 421.319,339.999 493.575,363.615 574.708,404.947 656.734,454.456 733.741,505.443 802.217,554.229 860.699,599.333 909.18,640.52 948.532,678.108 980.065,712.574 1005.23,744.361 1025.45,773.822 1042.02,801.212 1056.06,826.698 1068.56,850.378 1080.32,872.289 1092.08,892.413 1104.44,910.675 1117.98,926.93 1133.24,940.947 1150.72,952.389 1170.96,960.776 1194.48,965.445 1221.78,965.511 1253.32,959.823 1289.43,946.952 1330.22,925.227 1375.36,892.903 1423.87,848.504 1473.88,791.435 1522.37,722.823 1565.19,646.36 1597.45,568.646 1614.34,498.406 1612.39,444.364 1590.59,412.53 1550.87,404.364 1497.61,416.886 1436.44,444.477 1372.94,481.092 1311.65,521.776 1255.7,563.201 1206.8,603.496 1165.55,641.81 1131.77,677.891 1104.81,711.783 1083.79,743.64 1067.8,773.64 1055.95,801.945 1047.45,828.691 1041.65,853.989 1038.01,877.929 1036.14,900.587 1035.72,922.023 1036.56,942.29 1038.55,961.429 1041.62,979.471 1045.81,996.433 1051.2,1012.31 1057.92,1027.09 1066.17,1040.7 1076.23,1053.05 1088.43,1063.97 1103.19,1073.2 1121.02,1080.34 1142.52,1084.82 1168.37,1085.79 1199.36,1082.06 1236.28,1071.95 1279.87,1053.22 1330.64,1022.99 1388.56,977.924 1452.61,914.743 1520.17,831.391 1586.49,728.979 1644.48,613.986 1685.4,499.286 1700.87,401.957 1685.74,337.398 1640.29,312.784 1570.44,324.671 1485.58,362.312 1395.55,413.443 1308.38,468.476 1229.26,521.724 1160.76,570.697 1103.43,614.834 1056.57,654.481 1018.82,690.265 988.538,722.795 964.086,752.55 943.938,779.865 926.746,804.949 911.351,827.9 896.764,848.728 882.144,867.359 866.761,883.633 849.974,897.292 831.204,907.964 809.927,915.138 785.67,918.138 758.039,916.103 726.755,907.985 691.739,892.581 653.224,868.644 611.906,835.109 569.116,791.464 526.964,738.271 488.374,677.718 456.91,613.955 436.291,552.861 429.647,501.012 438.688,464.035 463.144,445.051 500.734,443.99 547.705,458.103 599.709,483.247 652.638,515.204 703.194,550.525 749.112,586.809 789.119,622.602 822.738,657.137 850.057,690.075 871.506,721.314 887.686,750.86 899.243,778.758 906.788,805.058 910.848,829.793 911.846,852.977 910.084,874.596 905.752,894.603 898.924,912.907 889.572,929.365 877.567,943.759 862.689,955.776 844.638,964.971 823.046,970.734 797.502,972.24 767.592,968.405 732.971,957.852 693.468,938.932 649.257,909.828 601.077,868.841 550.511,814.923 500.24,748.488 454.16,672.347 417.146,592.327 394.331,516.92 389.908,455.482 405.838,415.426 441.087,399.82 491.814,406.819 552.446,431.138 617.086,466.403 680.67,507.05 739.55,549.158 791.58,590.43 835.869,629.768 872.431,666.807 901.838,701.55 924.954,734.156 942.741,764.819 956.135,793.72 965.984,821.012 973.01,846.821 977.807,871.248 980.842,894.379 982.472,916.286 982.954,937.032 982.466,956.672 981.113,975.255 978.941,992.82 975.943,1009.4 972.064,1025.02 967.203,1039.68 961.211,1053.38 953.887,1066.07 944.974,1077.7 934.149,1088.12 921.014,1097.15 905.083,1104.47 885.776,1109.62 862.406,1111.91 834.182,1110.33 800.237,1103.44 759.678,1089.22 711.722,1064.97 655.924,1027.29 592.574,972.344 523.272,896.663 451.642,798.857 383.91,682.107 328.826,556.534 296.275,439.178 294.417,349.431 326.434,301.043 388.883,296.046 472.891,325.414 567.397,375.192 662.401,432.805 750.777,490.026 828.572,542.855 894.4,590.099 948.589,631.983 992.434,669.24 1027.65,702.638 1056.06,732.805 1079.36,760.181 1099.1,785.04 1116.59,807.512 1132.95,827.613 1149.14,845.253 1165.95,860.244 1184.06,872.291 1204.06,880.98 1226.43,885.765 1251.58,885.956 1279.76,880.721 1311.06,869.122 1345.31,850.197 1381.95,823.123 1419.95,787.481 1457.68,743.625 1492.86,693.07 1522.7,638.776 1544.19,585.085 1554.61,537.133 1552.15,499.782 1536.42,476.425 1508.61,468.197 1471.29,473.964 1427.84,491.01 1381.78,516.01 1336.22,545.843 1293.56,578.039 1255.4,610.883 1222.59,643.304 1195.4,674.693 1173.74,704.739 1157.25,733.292 1145.48,760.285 1137.96,785.677 1134.24,809.429 1133.99,831.481 1136.93,851.743 1142.92,870.078 1151.88,886.29 1163.88,900.106 1179.02,911.153 1197.49,918.928 1219.53,922.774 1245.38,921.853 1275.22,915.13 1309.11,901.397 1346.84,879.357 1387.8,847.819 1430.8,806.038 1473.88,754.22 1514.25,694.109 1548.36,629.431 1572.38,565.845 1582.84,510.084 1577.55,468.351 1556.26,444.583 1520.84,439.466 1474.86,450.684 1422.74,474.148 1368.8,505.426 1316.63,540.754 1268.77,577.442 1226.74,613.824 1191.16,649.005 1162.04,682.586 1138.96,714.438 1121.35,744.564 1108.53,773.019 1099.85,799.862 1094.75,825.142 1092.76,848.888 1093.54,871.103 1096.85,891.761 1102.59,910.801 1110.75,928.112 1121.42,943.523 1134.79,956.78 1151.14,967.518 1170.82,975.223 1194.24,979.192 1221.84,978.478 1254.05,971.847 1291.18,957.758 1333.32,934.402 1380.11,899.876 1430.49,852.57 1482.41,791.85 1532.6,719.004 1576.56,638.182 1608.98,556.733 1624.75,484.218 1620.35,429.927 1595.02,399.844 1551.21,394.809 1493.87,410.953 1429.14,441.897 1362.85,481.174 1299.61,523.743 1242.43,566.383 1192.86,607.396 1151.32,646.098 1117.45,682.361 1090.47,716.312 1069.42,748.16 1053.27,778.115 1041.1,806.359 1032.07,833.041 1025.5,858.28 1020.81,882.177 1017.55,904.815 1015.4,926.267 1014.07,946.599 1013.4,965.87 1013.25,984.136 1013.53,1001.45 1014.2,1017.85 1015.23,1033.4 1016.63,1048.12 1018.43,1062.06 1020.69,1075.25 1023.48,1087.71 1026.89,1099.46 1031.07,1110.52 1036.17,1120.87 1042.41,1130.51 1050.02,1139.37 1059.34,1147.37 1070.75,1154.36 1084.73,1160.1 1101.86,1164.23 1122.84,1166.17 1148.51,1165.1 1179.83,1159.74 1217.86,1148.27 1263.69,1128.11 1318.26,1095.73 1381.99,1046.72 1454.27,976.214 1532.59,880.294 1611.59,758.646 1682.5,618.218 1733.73,475.673 1753.63,354.91 1734.82,277.925 1677.72,254.017 1590.8,276.272 1487,327.869 1379.21,391.6 1277.12,455.565 1186.4,513.85 1109.29,564.698 1045.7,608.457 994.235,646.21 952.932,679.082 919.679,707.969 892.476,733.494 869.546,756.03 849.373,775.75 830.693,792.672 812.477,806.685 793.893,817.568 774.294,824.999 753.191,828.564 730.262,827.769 705.362,822.075 678.557,810.946 650.166,793.943 620.819,770.859 591.5,741.893 563.559,707.841 538.672,670.246 518.7,631.426 505.467,594.299 500.45,561.973 504.48,537.187 517.523,521.775 538.645,516.351 566.16,520.342 597.925,532.299 631.686,550.343 665.368,572.573 697.276,597.33 726.172,623.31 751.265,649.562 772.142,675.426 788.676,700.45 800.931,724.323 809.081,746.809 813.344,767.709 813.937,786.828 811.047,803.953 804.814,818.833 795.328,831.162 782.632,840.566 766.743,846.59 747.673,848.69 725.47,846.242 700.268,838.565 672.356,824.981 642.254,804.923 610.801,778.102 579.224,744.725 549.174,705.745 522.668,663.043 501.924,619.452 489.068,578.498 485.747,543.837 492.762,518.521 509.839,504.354 535.638,501.596 567.998,509.128 604.337,524.938 642.078,546.709 678.972,572.274 713.281,599.873 743.826,628.21 769.934,656.401 791.334,683.874 808.038,710.267 820.233,735.342 828.19,758.927 832.2,780.873 832.528,801.026 829.386,819.207 822.919,835.191 813.203,848.694 800.252,859.353 784.031,866.711 764.485,870.2 741.574,869.139 715.323,862.744 685.898,850.174 653.691,830.625 619.431,803.501 584.284,768.663 549.933,726.746 518.572,679.463 492.77,629.76 475.161,581.652 467.983,539.621 472.579,507.697 489.021,488.515 516.023,482.778 551.191,489.341 591.51,505.814 633.891,529.345 675.616,557.261 714.589,587.422 749.407,618.301 779.291,648.907 803.959,678.645 823.474,707.173 838.105,734.299 848.223,759.908 854.214,783.91 856.433,806.214 855.166,826.709 850.614,845.243 842.89,861.614 832.019,875.545 817.949,886.673 800.567,894.518 779.724,898.469 755.274,897.76 727.125,891.476 695.321,878.578 660.145,857.996 622.249,828.81 582.804,790.547 543.619,743.59 507.191,689.63 476.582,631.971 455.065,575.435 445.537,525.653 449.843,487.816 468.223,465.34 499.168,459.063 539.732,467.369 586.199,487.06 634.81,514.465 682.339,546.293 726.392,580.049 765.455,614.071 798.782,647.375 826.206,679.44 847.947,710.023 864.44,739.032 876.212,766.442 883.787,792.245 887.636,816.43 888.139,838.966 885.572,859.789 880.102,878.795 871.791,895.824 860.599,910.646 846.392,922.939 828.963,932.256 808.04,938.003 783.324,939.394 754.531,935.43 721.463,924.886 684.114,906.359 642.82,878.393 598.449,839.767 552.614,789.964 507.846,729.822 467.615,662.204 436.066,592.322 417.384,527.277 414.837,474.58 429.823,440.047 461.34,426.104 506.17,431.411 559.703,451.919 617.017,482.582 673.779,518.799 726.762,557.143 773.945,595.444 814.371,632.528 847.873,667.872 874.803,701.325 895.8,732.912 911.619,762.726 923.015,790.871 930.673,817.44 935.175,842.507 936.98,866.125 936.427,888.324 933.736,909.114 929.017,928.474 922.281,946.351 913.441,962.648 902.322,977.208 888.658,989.789 872.102,1000.04 852.226,1007.45 828.53,1011.31 800.47,1010.65 767.498,1004.15 729.144,990.123 685.154,966.502 635.701,930.985 581.686,881.419 525.107,816.547 469.404,737.158 419.566,647.378 381.742,555.367 362.106,472.409 365.164,409.913 392.139,375.419 440.349,370.023 503.986,388.869 575.856,424.046 649.171,467.758 718.705,514.175 781.16,559.788 834.973,602.929 879.875,643.071 916.426,680.265 945.636,714.788 968.691,746.96 986.788,777.061 1001.03,805.319 1012.4,831.907 1021.71,856.953 1029.67,880.554 1036.85,902.781 1043.75,923.682 1050.78,943.284 1058.31,961.59 1066.72,978.573 1076.35,994.17 1087.58,1008.27 1100.81,1020.67 1116.51,1031.11 1135.19,1039.15 1157.43,1044.19 1183.88,1045.35 1215.21,1041.44 1252.1,1030.83 1295.09,1011.41 1344.42,980.624 1399.75,935.682 1459.72,874.166 1521.53,795.144 1580.52,700.774 1630.22,597.848 1663.19,498.034 1672.78,415.51 1655.39,362.162 1611.95,342.927 1547.87,354.519 1471.16,388.183 1390.13,434.028 1311.58,484.152 1240.02,533.645 1177.78,580.139 1125.48,622.893 1082.64,661.992 1048.14,697.837 1020.62,730.873 998.663,761.485 980.942,789.965 966.279,816.517 953.652,841.275 942.192,864.313 931.158,885.654 919.907,905.27 907.867,923.078 894.509,938.93 879.322,952.591 861.797,963.713 841.412,971.806 817.637,976.189 789.944,975.945 757.852,969.874 720.994,956.473 679.248,933.975 632.918,900.506 582.99,854.455 531.413,795.128 481.338,723.659 437.142,643.949 404.025,563.046 387.074,490.283 389.92,434.927 413.522,403.199 455.698,396.333 511.693,410.834 575.504,440.537 641.301,479.015 704.412,521.152 761.717,563.613 811.564,604.602 853.458,643.36 887.686,679.718 914.988,713.778 936.314,745.737 952.654,775.8 964.944,804.147 974.008,830.925 980.541,856.257 985.108,880.24 988.154,902.958 990.018,924.484 990.951,944.881 991.13,964.209 990.671,982.521 989.641,999.864 988.064,1016.28 985.929,1031.82 983.19,1046.49 979.77,1060.34 975.556,1073.38 970.4,1085.6 964.112,1096.98 956.45,1107.48 947.118,1117.02 935.746,1125.45 921.883,1132.54 904.983,1137.93 884.387,1141.1 859.319,1141.23 828.887,1137.15 792.109,1127.16 747.994,1108.88 695.701,1079.09 634.84,1033.81 565.979,968.635 491.361,879.975 415.752,767.315 346.989,636.367 295.515,501.385 272.163,383.549 284.416,303.602 333.003,272.218 411.231,285.607 507.636,329.749 610.07,388.679 708.833,450.374 797.845,508.216 874.341,559.731 937.936,604.762 989.67,644.098 1031.29,678.718 1064.75,709.463 1092,736.945 1114.76,761.555 1134.57,783.494 1152.71,802.816 1170.23,819.449 1188.02,833.208 1206.81,843.803 1227.18,850.831 1249.58,853.78 1274.31,852.036 1301.51,844.903 1331.13,831.669 1362.78,811.71 1395.75,784.662 1428.88,750.654 1460.53,710.583 1488.65,666.329 1510.91,620.814 1525.06,577.751 1529.29,541.061 1522.68,514.067 1505.46,498.77 1478.98,495.504 1445.53,503.092 1407.82,519.384 1368.59,541.897 1330.22,568.32 1294.54,596.793 1262.77,625.966 1235.61,654.935 1213.32,683.128 1195.87,710.195 1183.04,735.914 1174.53,760.132 1170.01,782.72 1169.2,803.544 1171.87,822.444 1177.85,839.217 1187.06,853.602 1199.5,865.259 1215.2,873.751 1234.26,878.531 1256.74,878.922 1282.69,874.129 1312.02,863.261 1344.45,845.412 1379.37,819.813 1415.75,786.067 1452.02,744.484 1486.04,696.437 1515.17,644.619 1536.58,593.012 1547.65,546.383 1546.6,509.345 1532.89,485.266 1507.49,475.491 1472.69,479.243 1431.58,494.174 1387.5,517.231 1343.48,545.433 1301.9,576.342 1264.42,608.206 1231.97,639.886 1204.93,670.711 1183.28,700.308 1166.72,728.484 1154.88,755.136 1147.3,780.199 1143.6,803.61 1143.43,825.29 1146.54,845.126 1152.78,862.961 1162.09,878.575 1174.51,891.666 1190.14,901.831 1209.15,908.538 1231.74,911.101 1258.09,908.665 1288.31,900.201 1322.34,884.555 1359.83,860.557 1400.01,827.246 1441.48,784.238 1482.13,732.213 1519.08,673.417 1548.91,611.93 1568.1,553.395 1573.73,504.013 1564.28,469.007 1540.1,451.218 1503.43,450.517 1457.85,464.302 1407.5,488.682 1356.29,519.686 1307.35,554.045 1262.88,589.455 1224.11,624.495 1191.51,658.394 1165.05,690.79 1144.32,721.555 1128.77,750.67 1117.81,778.156 1110.85,804.042 1107.41,828.342 1107.11,851.048 1109.66,872.122 1114.9,891.489 1122.78,909.022 1133.36,924.53 1146.78,937.738 1163.28,948.258 1183.16,955.552 1206.78,958.9 1234.51,957.351 1266.67,949.697 1303.47,934.472 1344.81,910.03 1390.17,874.752 1438.29,827.458 1487,768.068 1533,698.424 1572,622.982 1599.22,548.845 1610.32,484.601 1602.61,438.05 1575.97,413.761 1533.03,411.838 1478.45,428.561 1417.75,458.297 1356.08,495.465 1297.49,535.714 1244.62,576.223 1198.83,615.452 1160.51,652.729 1129.35,687.872 1104.68,720.937 1085.64,752.067 1071.36,781.417 1061.02,809.13 1053.89,835.321 1049.4,860.087 1047.07,883.502 1046.56,905.628 1047.64,926.509 1050.16,946.177 1054.08,964.648 1059.41,981.917 1066.26,997.952 1074.8,1012.69 1085.28,1026 1098,1037.71 1113.38,1047.53 1131.9,1055.03 1154.14,1059.58 1180.75,1060.3 1212.43,1055.95 1249.9,1044.83 1293.75,1024.73 1344.28,992.929 1401.18,946.408 1463.11,882.498 1527.14,800.069 1588.39,701.305 1639.95,593.44 1673.88,489.061 1683.08,403.473 1663.78,349.318 1617.22,331.459 1549.34,345.788 1468.81,382.514 1384.41,430.996 1303.17,483.02 1229.63,533.684 1166.01,580.774 1112.77,623.72 1069.27,662.747 1034.26,698.345 1006.28,731.016 983.813,761.169 965.48,789.103 950.05,815.017 936.461,839.027 923.808,861.177 911.316,881.452 898.31,899.768 884.185,915.97 868.382,929.814 850.363,940.941 829.608,948.849 805.605,952.854 777.878,952.055 746.02,945.301 709.777,931.191 669.165,908.147 624.65,874.601 577.366,829.375 529.35,772.295 483.697,704.969 444.488,631.472 416.349,558.452 403.566,494.144 408.962,446.288 432.953,419.756 473.292,415.196 525.633,429.425 584.664,457.155 645.276,492.91 703.366,532.279 756.157,572.304 802.14,611.313 840.814,648.526 872.375,683.691 897.431,716.82 916.784,748.03 931.285,777.464 941.736,805.254 948.843,831.511 953.188,856.325 955.228,879.765 955.302,901.883 953.635,922.716 950.351,942.282 945.483,960.577 938.983,977.571 930.718,993.199 920.48,1007.34 907.982,1019.82 892.852,1030.35 874.639,1038.52 852.804,1043.73 826.737,1045.12 795.777,1041.51 759.272,1031.3 716.677,1012.42 667.734,982.318 612.76,938.224 553.035,877.677 491.282,799.636 432.051,706.05 381.72,603.433 347.708,503.209 336.749,419.502 352.662,364.436 394.749,343.384 457.842,353.475 534.011,386.156 614.923,431.518 693.678,481.518 765.633,531.093 828.36,577.759 881.156,620.707 924.46,659.991 959.353,696 987.196,729.182 1009.4,759.923 1027.3,788.521 1042.08,815.184 1054.77,840.05 1066.25,863.197 1077.25,884.649 1088.44,904.385 1100.37,922.326 1113.59,938.328 1128.6,952.166 1145.91,963.502 1166.04,971.858 1189.52,976.571 1216.88,976.743 1248.61,971.198 1285.1,958.455 1326.48,936.758 1372.52,904.226 1422.28,859.197 1473.9,800.86 1524.35,730.157 1569.31,650.736 1603.62,569.417 1622.12,495.444 1620.98,438.238 1598.99,404.391 1558.1,395.571 1502.9,408.592 1439.37,437.384 1373.41,475.445 1309.83,517.505 1251.88,560.083 1201.31,601.274 1158.71,640.257 1123.84,676.83 1095.97,711.085 1074.16,743.218 1057.41,773.435 1044.79,801.922 1035.45,828.828 1028.69,854.277 1023.92,878.371 1020.7,901.193 1018.67,922.817 1017.57,943.309 1017.21,962.729 1017.47,981.13 1018.28,998.561 1019.61,1015.07 1021.44,1030.69 1023.82,1045.47 1026.81,1059.43 1030.51,1072.58 1035.04,1084.95 1040.58,1096.52 1047.32,1107.26 1055.55,1117.12 1065.57,1125.99 1077.8,1133.69 1092.72,1139.97 1110.92,1144.39 1133.13,1146.34 1160.15,1144.88 1192.95,1138.64 1232.54,1125.67 1279.89,1103.25 1335.74,1067.81 1400.21,1015.05 1472.21,940.584 1548.6,841.565 1623.41,719.442 1687.53,583.177 1729.81,450.51 1740.04,344.038 1712.97,281.969 1650.92,269.419 1563.07,297.448 1461.84,349.938 1358.87,411.753 1262.56,472.91 1177.61,528.634 1105.73,577.61 1046.59,620.229 998.779,657.456 960.381,690.265 929.397,719.427 903.943,745.469 882.348,768.705 863.179,789.273 845.239,807.171 827.537,822.276 809.261,834.357 789.755,843.074 768.503,847.979 745.13,848.523 719.415,844.069 691.333,833.936 661.108,817.485 629.282,794.247 596.793,764.13 565.018,727.663 535.776,686.229 511.211,642.205 493.562,598.857 484.805,559.935 486.249,528.975 498.21,508.56 519.874,499.79 549.435,502.208 584.432,514.156 622.19,533.359 660.213,557.481 696.454,584.498 729.429,612.855 758.205,641.458 782.319,669.585 801.657,696.782 816.336,722.76 826.604,747.324 832.758,770.324 835.089,791.618 833.844,811.047 829.209,828.419 821.297,843.489 810.153,855.942 795.763,865.379 778.072,871.295 757.016,873.071 732.564,869.97 704.779,861.161 673.895,845.782 640.42,823.061 605.243,792.522 569.744,754.274 535.838,709.344 505.936,659.959 482.732,609.595 468.822,562.641 466.194,523.627 475.737,496.208 496.964,482.312 528.057,481.835 566.245,492.979 608.354,512.999 651.348,538.983 692.699,568.403 730.574,599.343 763.829,630.502 791.912,661.07 814.711,690.575 832.401,718.758 845.319,745.474 853.865,770.63 858.429,794.147 859.35,815.936 856.889,835.878 851.216,853.812 842.41,869.517 830.465,882.695 815.298,892.947 796.772,899.757 774.72,902.461 748.993,900.238 719.512,892.112 686.364,876.994 649.912,853.798 610.936,821.655 570.786,780.25 531.497,730.277 495.799,673.888 466.936,614.932 448.228,558.696 442.421,510.991 450.985,476.763 473.648,458.794 508.377,457.134 551.837,469.498 600.127,492.317 649.517,521.856 696.947,554.965 740.259,589.369 778.178,623.621 810.159,656.902 836.19,688.803 856.592,719.152 871.861,747.897 882.551,775.03 889.193,800.558 892.248,824.474 892.08,846.747 888.943,867.315 882.981,886.073 874.232,902.858 862.633,917.437 848.029,929.477 830.189,938.524 808.821,943.962 783.603,944.981 754.234,940.545 720.5,929.384 682.389,910.037 640.248,880.989 594.98,840.976 548.269,789.48 502.76,727.424 462.076,657.869 430.525,586.342 412.416,520.294 411.041,467.482 427.695,433.742 461.156,421.265 507.94,428.335 563.207,450.547 621.892,482.628 679.621,519.903 733.199,558.972 780.68,597.737 821.196,635.104 854.662,670.616 881.502,704.167 902.407,735.814 918.172,765.671 929.577,793.855 937.33,820.47 942.025,845.599 944.134,869.304 944.008,891.627 941.878,912.59 937.872,932.192 932.014,950.404 924.24,967.161 914.397,982.347 902.246,995.78 887.465,1007.19 869.648,1016.16 848.31,1022.13 822.898,1024.28 792.819,1021.49 757.494,1012.28 716.455,994.738 669.513,966.559 617.012,925.26 560.181,868.691 501.546,795.984 "/>
</svg>
