<?xml version="1.0" encoding="utf-8"?>
<svg xmlns="http://www.w3.org/2000/svg" xmlns:xlink="http://www.w3.org/1999/xlink" width="480" height="380" viewBox="0 0 1920 1520">
<defs>
  <clipPath id="clip430">
    <rect x="0" y="0" width="1920" height="1520"/>
  </clipPath>
</defs>
<path clip-path="url(#clip430)" d="M0 1520 L1920 1520 L1920 0 L0 0  Z" fill="#ffffff" fill-rule="evenodd" fill-opacity="1"/>
<defs>
  <clipPath id="clip431">
    <rect x="209" y="134" width="1665" height="1195"/>
  </clipPath>
</defs>
<path clip-path="url(#clip430)" d="M246.245 1328.59 L1872.76 1328.59 L1872.76 134.812 L246.245 134.812  Z" fill="#ffffff" fill-rule="evenodd" fill-opacity="1"/>
<defs>
  <clipPath id="clip432">
    <rect x="246" y="134" width="1628" height="1195"/>
  </clipPath>
</defs>
<polyline clip-path="url(#clip432)" style="stroke:#000000; stroke-linecap:round; stroke-linejoin:round; stroke-width:2; stroke-opacity:0.1; fill:none" points="612.215,1328.59 612.215,134.812 "/>
<polyline clip-path="url(#clip432)" style="stroke:#000000; stroke-linecap:round; stroke-linejoin:round; stroke-width:2; stroke-opacity:0.1; fill:none" points="1024.04,1328.59 1024.04,134.812 "/>
<polyline clip-path="url(#clip432)" style="stroke:#000000; stroke-linecap:round; stroke-linejoin:round; stroke-width:2; stroke-opacity:0.1; fill:none" points="1435.87,1328.59 1435.87,134.812 "/>
<polyline clip-path="url(#clip432)" style="stroke:#000000; stroke-linecap:round; stroke-linejoin:round; stroke-width:2; stroke-opacity:0.1; fill:none" points="1847.69,1328.59 1847.69,134.812 "/>
<polyline clip-path="url(#clip432)" style="stroke:#000000; stroke-linecap:round; stroke-linejoin:round; stroke-width:2; stroke-opacity:0.1; fill:none" points="246.245,1212.9 1872.76,1212.9 "/>
<polyline clip-path="url(#clip432)" style="stroke:#000000; stroke-linecap:round; stroke-linejoin:round; stroke-width:2; stroke-opacity:0.1; fill:none" points="246.245,991.571 1872.76,991.571 "/>
<polyline clip-path="url(#clip432)" style="stroke:#000000; stroke-linecap:round; stroke-linejoin:round; stroke-width:2; stroke-opacity:0.1; fill:none" points="246.245,770.24 1872.76,770.24 "/>
<polyline clip-path="url(#clip432)" style="stroke:#000000; stroke-linecap:round; stroke-linejoin:round; stroke-width:2; stroke-opacity:0.1; fill:none" points="246.245,548.909 1872.76,548.909 "/>
<polyline clip-path="url(#clip432)" style="stroke:#000000; stroke-linecap:round; stroke-linejoin:round; stroke-width:2; stroke-opacity:0.1; fill:none" points="246.245,327.579 1872.76,327.579 "/>
<polyline clip-path="url(#clip430)" style="stroke:#000000; stroke-linecap:round; stroke-linejoin:round; stroke-width:4; stroke-opacity:1; fill:none" points="246.245,1328.59 1872.76,1328.59 "/>
<polyline clip-path="url(#clip430)" style="stroke:#000000; stroke-linecap:round; stroke-linejoin:round; stroke-width:4; stroke-opacity:1; fill:none" points="612.215,1328.59 612.215,1309.69 "/>
<polyline clip-path="url(#clip430)" style="stroke:#000000; stroke-linecap:round; stroke-linejoin:round; stroke-width:4; stroke-opacity:1; fill:none" points="1024.04,1328.59 1024.04,1309.69 "/>
<polyline clip-path="url(#clip430)" style="stroke:#000000; stroke-linecap:round; stroke-linejoin:round; stroke-width:4; stroke-opacity:1; fill:none" points="1435.87,1328.59 1435.87,1309.69 "/>
<polyline clip-path="url(#clip430)" style="stroke:#000000; stroke-linecap:round; stroke-linejoin:round; stroke-width:4; stroke-opacity:1; fill:none" points="1847.69,1328.59 1847.69,1309.69 "/>
<path clip-path="url(#clip430)" d="M566.278 1370.32 L595.953 1370.32 L595.953 1374.26 L566.278 1374.26 L566.278 1370.32 Z" fill="#000000" fill-rule="nonzero" fill-opacity="1" /><path clip-path="url(#clip430)" d="M606.856 1383.21 L614.495 1383.21 L614.495 1356.85 L606.185 1358.52 L606.185 1354.26 L614.449 1352.59 L619.124 1352.59 L619.124 1383.21 L626.763 1383.21 L626.763 1387.15 L606.856 1387.15 L606.856 1383.21 Z" fill="#000000" fill-rule="nonzero" fill-opacity="1" /><path clip-path="url(#clip430)" d="M646.208 1355.67 Q642.597 1355.67 640.768 1359.23 Q638.962 1362.77 638.962 1369.9 Q638.962 1377.01 640.768 1380.58 Q642.597 1384.12 646.208 1384.12 Q649.842 1384.12 651.647 1380.58 Q653.476 1377.01 653.476 1369.9 Q653.476 1362.77 651.647 1359.23 Q649.842 1355.67 646.208 1355.67 M646.208 1351.96 Q652.018 1351.96 655.073 1356.57 Q658.152 1361.15 658.152 1369.9 Q658.152 1378.63 655.073 1383.24 Q652.018 1387.82 646.208 1387.82 Q640.397 1387.82 637.319 1383.24 Q634.263 1378.63 634.263 1369.9 Q634.263 1361.15 637.319 1356.57 Q640.397 1351.96 646.208 1351.96 Z" fill="#000000" fill-rule="nonzero" fill-opacity="1" /><path clip-path="url(#clip430)" d="M1024.04 1355.67 Q1020.43 1355.67 1018.6 1359.23 Q1016.8 1362.77 1016.8 1369.9 Q1016.8 1377.01 1018.6 1380.58 Q1020.43 1384.12 1024.04 1384.12 Q1027.68 1384.12 1029.48 1380.58 Q1031.31 1377.01 1031.31 1369.9 Q1031.31 1362.77 1029.48 1359.23 Q1027.68 1355.67 1024.04 1355.67 M1024.04 1351.96 Q1029.85 1351.96 1032.91 1356.57 Q1035.99 1361.15 1035.99 1369.9 Q1035.99 1378.63 1032.91 1383.24 Q1029.85 1387.82 1024.04 1387.82 Q1018.23 1387.82 1015.15 1383.24 Q1012.1 1378.63 1012.1 1369.9 Q1012.1 1361.15 1015.15 1356.57 Q1018.23 1351.96 1024.04 1351.96 Z" fill="#000000" fill-rule="nonzero" fill-opacity="1" /><path clip-path="url(#clip430)" d="M1410.55 1383.21 L1418.19 1383.21 L1418.19 1356.85 L1409.88 1358.52 L1409.88 1354.26 L1418.15 1352.59 L1422.82 1352.59 L1422.82 1383.21 L1430.46 1383.21 L1430.46 1387.15 L1410.55 1387.15 L1410.55 1383.21 Z" fill="#000000" fill-rule="nonzero" fill-opacity="1" /><path clip-path="url(#clip430)" d="M1449.91 1355.67 Q1446.29 1355.67 1444.47 1359.23 Q1442.66 1362.77 1442.66 1369.9 Q1442.66 1377.01 1444.47 1380.58 Q1446.29 1384.12 1449.91 1384.12 Q1453.54 1384.12 1455.35 1380.58 Q1457.17 1377.01 1457.17 1369.9 Q1457.17 1362.77 1455.35 1359.23 Q1453.54 1355.67 1449.91 1355.67 M1449.91 1351.96 Q1455.72 1351.96 1458.77 1356.57 Q1461.85 1361.15 1461.85 1369.9 Q1461.85 1378.63 1458.77 1383.24 Q1455.72 1387.82 1449.91 1387.82 Q1444.1 1387.82 1441.02 1383.24 Q1437.96 1378.63 1437.96 1369.9 Q1437.96 1361.15 1441.02 1356.57 Q1444.1 1351.96 1449.91 1351.96 Z" fill="#000000" fill-rule="nonzero" fill-opacity="1" /><path clip-path="url(#clip430)" d="M1826.47 1383.21 L1842.79 1383.21 L1842.79 1387.15 L1820.84 1387.15 L1820.84 1383.21 Q1823.5 1380.46 1828.09 1375.83 Q1832.69 1371.18 1833.87 1369.84 Q1836.12 1367.31 1837 1365.58 Q1837.9 1363.82 1837.9 1362.13 Q1837.9 1359.37 1835.96 1357.64 Q1834.04 1355.9 1830.93 1355.9 Q1828.73 1355.9 1826.28 1356.66 Q1823.85 1357.43 1821.07 1358.98 L1821.07 1354.26 Q1823.9 1353.12 1826.35 1352.54 Q1828.8 1351.96 1830.84 1351.96 Q1836.21 1351.96 1839.41 1354.65 Q1842.6 1357.34 1842.6 1361.83 Q1842.6 1363.96 1841.79 1365.88 Q1841 1367.77 1838.9 1370.37 Q1838.32 1371.04 1835.22 1374.26 Q1832.11 1377.45 1826.47 1383.21 Z" fill="#000000" fill-rule="nonzero" fill-opacity="1" /><path clip-path="url(#clip430)" d="M1862.6 1355.67 Q1858.99 1355.67 1857.16 1359.23 Q1855.35 1362.77 1855.35 1369.9 Q1855.35 1377.01 1857.16 1380.58 Q1858.99 1384.12 1862.6 1384.12 Q1866.23 1384.12 1868.04 1380.58 Q1869.87 1377.01 1869.87 1369.9 Q1869.87 1362.77 1868.04 1359.23 Q1866.23 1355.67 1862.6 1355.67 M1862.6 1351.96 Q1868.41 1351.96 1871.47 1356.57 Q1874.54 1361.15 1874.54 1369.9 Q1874.54 1378.63 1871.47 1383.24 Q1868.41 1387.82 1862.6 1387.82 Q1856.79 1387.82 1853.71 1383.24 Q1850.66 1378.63 1850.66 1369.9 Q1850.66 1361.15 1853.71 1356.57 Q1856.79 1351.96 1862.6 1351.96 Z" fill="#000000" fill-rule="nonzero" fill-opacity="1" /><path clip-path="url(#clip430)" d="M1076.11 1430.61 L1063.22 1447.95 L1076.78 1466.25 L1069.88 1466.25 L1059.5 1452.25 L1049.12 1466.25 L1042.22 1466.25 L1056.06 1447.6 L1043.4 1430.61 L1050.3 1430.61 L1059.75 1443.31 L1069.21 1430.61 L1076.11 1430.61 Z" fill="#000000" fill-rule="nonzero" fill-opacity="1" /><polyline clip-path="url(#clip430)" style="stroke:#000000; stroke-linecap:round; stroke-linejoin:round; stroke-width:4; stroke-opacity:1; fill:none" points="246.245,1328.59 246.245,134.812 "/>
<polyline clip-path="url(#clip430)" style="stroke:#000000; stroke-linecap:round; stroke-linejoin:round; stroke-width:4; stroke-opacity:1; fill:none" points="246.245,1212.9 265.142,1212.9 "/>
<polyline clip-path="url(#clip430)" style="stroke:#000000; stroke-linecap:round; stroke-linejoin:round; stroke-width:4; stroke-opacity:1; fill:none" points="246.245,991.571 265.142,991.571 "/>
<polyline clip-path="url(#clip430)" style="stroke:#000000; stroke-linecap:round; stroke-linejoin:round; stroke-width:4; stroke-opacity:1; fill:none" points="246.245,770.24 265.142,770.24 "/>
<polyline clip-path="url(#clip430)" style="stroke:#000000; stroke-linecap:round; stroke-linejoin:round; stroke-width:4; stroke-opacity:1; fill:none" points="246.245,548.909 265.142,548.909 "/>
<polyline clip-path="url(#clip430)" style="stroke:#000000; stroke-linecap:round; stroke-linejoin:round; stroke-width:4; stroke-opacity:1; fill:none" points="246.245,327.579 265.142,327.579 "/>
<path clip-path="url(#clip430)" d="M125.57 1213.35 L155.246 1213.35 L155.246 1217.29 L125.57 1217.29 L125.57 1213.35 Z" fill="#000000" fill-rule="nonzero" fill-opacity="1" /><path clip-path="url(#clip430)" d="M169.366 1226.25 L185.686 1226.25 L185.686 1230.18 L163.741 1230.18 L163.741 1226.25 Q166.403 1223.49 170.987 1218.86 Q175.593 1214.21 176.774 1212.87 Q179.019 1210.34 179.899 1208.61 Q180.801 1206.85 180.801 1205.16 Q180.801 1202.4 178.857 1200.67 Q176.936 1198.93 173.834 1198.93 Q171.635 1198.93 169.181 1199.7 Q166.75 1200.46 163.973 1202.01 L163.973 1197.29 Q166.797 1196.15 169.25 1195.57 Q171.704 1195 173.741 1195 Q179.112 1195 182.306 1197.68 Q185.5 1200.37 185.5 1204.86 Q185.5 1206.99 184.69 1208.91 Q183.903 1210.81 181.797 1213.4 Q181.218 1214.07 178.116 1217.29 Q175.014 1220.48 169.366 1226.25 Z" fill="#000000" fill-rule="nonzero" fill-opacity="1" /><path clip-path="url(#clip430)" d="M205.5 1198.7 Q201.889 1198.7 200.06 1202.26 Q198.255 1205.81 198.255 1212.94 Q198.255 1220.04 200.06 1223.61 Q201.889 1227.15 205.5 1227.15 Q209.135 1227.15 210.94 1223.61 Q212.769 1220.04 212.769 1212.94 Q212.769 1205.81 210.94 1202.26 Q209.135 1198.7 205.5 1198.7 M205.5 1195 Q211.31 1195 214.366 1199.6 Q217.445 1204.19 217.445 1212.94 Q217.445 1221.66 214.366 1226.27 Q211.31 1230.85 205.5 1230.85 Q199.69 1230.85 196.611 1226.27 Q193.556 1221.66 193.556 1212.94 Q193.556 1204.19 196.611 1199.6 Q199.69 1195 205.5 1195 Z" fill="#000000" fill-rule="nonzero" fill-opacity="1" /><path clip-path="url(#clip430)" d="M125.57 992.022 L155.246 992.022 L155.246 995.957 L125.57 995.957 L125.57 992.022 Z" fill="#000000" fill-rule="nonzero" fill-opacity="1" /><path clip-path="url(#clip430)" d="M166.149 1004.92 L173.787 1004.92 L173.787 978.55 L165.477 980.216 L165.477 975.957 L173.741 974.291 L178.417 974.291 L178.417 1004.92 L186.056 1004.92 L186.056 1008.85 L166.149 1008.85 L166.149 1004.92 Z" fill="#000000" fill-rule="nonzero" fill-opacity="1" /><path clip-path="url(#clip430)" d="M205.5 977.369 Q201.889 977.369 200.06 980.934 Q198.255 984.476 198.255 991.605 Q198.255 998.712 200.06 1002.28 Q201.889 1005.82 205.5 1005.82 Q209.135 1005.82 210.94 1002.28 Q212.769 998.712 212.769 991.605 Q212.769 984.476 210.94 980.934 Q209.135 977.369 205.5 977.369 M205.5 973.666 Q211.31 973.666 214.366 978.272 Q217.445 982.855 217.445 991.605 Q217.445 1000.33 214.366 1004.94 Q211.31 1009.52 205.5 1009.52 Q199.69 1009.52 196.611 1004.94 Q193.556 1000.33 193.556 991.605 Q193.556 982.855 196.611 978.272 Q199.69 973.666 205.5 973.666 Z" fill="#000000" fill-rule="nonzero" fill-opacity="1" /><path clip-path="url(#clip430)" d="M205.5 756.039 Q201.889 756.039 200.06 759.603 Q198.255 763.145 198.255 770.275 Q198.255 777.381 200.06 780.946 Q201.889 784.488 205.5 784.488 Q209.135 784.488 210.94 780.946 Q212.769 777.381 212.769 770.275 Q212.769 763.145 210.94 759.603 Q209.135 756.039 205.5 756.039 M205.5 752.335 Q211.31 752.335 214.366 756.941 Q217.445 761.525 217.445 770.275 Q217.445 779.001 214.366 783.608 Q211.31 788.191 205.5 788.191 Q199.69 788.191 196.611 783.608 Q193.556 779.001 193.556 770.275 Q193.556 761.525 196.611 756.941 Q199.69 752.335 205.5 752.335 Z" fill="#000000" fill-rule="nonzero" fill-opacity="1" /><path clip-path="url(#clip430)" d="M166.149 562.254 L173.787 562.254 L173.787 535.889 L165.477 537.555 L165.477 533.296 L173.741 531.629 L178.417 531.629 L178.417 562.254 L186.056 562.254 L186.056 566.189 L166.149 566.189 L166.149 562.254 Z" fill="#000000" fill-rule="nonzero" fill-opacity="1" /><path clip-path="url(#clip430)" d="M205.5 534.708 Q201.889 534.708 200.06 538.273 Q198.255 541.814 198.255 548.944 Q198.255 556.051 200.06 559.615 Q201.889 563.157 205.5 563.157 Q209.135 563.157 210.94 559.615 Q212.769 556.051 212.769 548.944 Q212.769 541.814 210.94 538.273 Q209.135 534.708 205.5 534.708 M205.5 531.004 Q211.31 531.004 214.366 535.611 Q217.445 540.194 217.445 548.944 Q217.445 557.671 214.366 562.277 Q211.31 566.861 205.5 566.861 Q199.69 566.861 196.611 562.277 Q193.556 557.671 193.556 548.944 Q193.556 540.194 196.611 535.611 Q199.69 531.004 205.5 531.004 Z" fill="#000000" fill-rule="nonzero" fill-opacity="1" /><path clip-path="url(#clip430)" d="M169.366 340.924 L185.686 340.924 L185.686 344.859 L163.741 344.859 L163.741 340.924 Q166.403 338.169 170.987 333.539 Q175.593 328.887 176.774 327.544 Q179.019 325.021 179.899 323.285 Q180.801 321.526 180.801 319.836 Q180.801 317.081 178.857 315.345 Q176.936 313.609 173.834 313.609 Q171.635 313.609 169.181 314.373 Q166.75 315.137 163.973 316.688 L163.973 311.965 Q166.797 310.831 169.25 310.252 Q171.704 309.674 173.741 309.674 Q179.112 309.674 182.306 312.359 Q185.5 315.044 185.5 319.535 Q185.5 321.664 184.69 323.586 Q183.903 325.484 181.797 328.076 Q181.218 328.748 178.116 331.965 Q175.014 335.16 169.366 340.924 Z" fill="#000000" fill-rule="nonzero" fill-opacity="1" /><path clip-path="url(#clip430)" d="M205.5 313.377 Q201.889 313.377 200.06 316.942 Q198.255 320.484 198.255 327.613 Q198.255 334.72 200.06 338.285 Q201.889 341.826 205.5 341.826 Q209.135 341.826 210.94 338.285 Q212.769 334.72 212.769 327.613 Q212.769 320.484 210.94 316.942 Q209.135 313.377 205.5 313.377 M205.5 309.674 Q211.31 309.674 214.366 314.28 Q217.445 318.864 217.445 327.613 Q217.445 336.34 214.366 340.947 Q211.31 345.53 205.5 345.53 Q199.69 345.53 196.611 340.947 Q193.556 336.34 193.556 327.613 Q193.556 318.864 196.611 314.28 Q199.69 309.674 205.5 309.674 Z" fill="#000000" fill-rule="nonzero" fill-opacity="1" /><path clip-path="url(#clip430)" d="M85.8243 730.014 Q92.19 732.497 94.1316 734.852 Q96.0731 737.207 96.0731 741.154 L96.0731 745.833 L91.1715 745.833 L91.1715 742.395 Q91.1715 739.976 90.0257 738.64 Q88.8799 737.303 84.6148 735.68 L81.9412 734.629 L46.8662 749.048 L46.8662 742.841 L74.748 731.701 L46.8662 720.561 L46.8662 714.354 L85.8243 730.014 Z" fill="#000000" fill-rule="nonzero" fill-opacity="1" /><path clip-path="url(#clip430)" d="M844.296 12.096 L852.479 12.096 L852.479 65.6895 L881.929 65.6895 L881.929 72.576 L844.296 72.576 L844.296 12.096 Z" fill="#000000" fill-rule="nonzero" fill-opacity="1" /><path clip-path="url(#clip430)" d="M906.315 32.4315 Q900.32 32.4315 896.836 37.1306 Q893.352 41.7891 893.352 49.9314 Q893.352 58.0738 896.796 62.7728 Q900.279 67.4314 906.315 67.4314 Q912.27 67.4314 915.754 62.7323 Q919.238 58.0333 919.238 49.9314 Q919.238 41.8701 915.754 37.1711 Q912.27 32.4315 906.315 32.4315 M906.315 26.1121 Q916.038 26.1121 921.587 32.4315 Q927.137 38.7509 927.137 49.9314 Q927.137 61.0714 921.587 67.4314 Q916.038 73.7508 906.315 73.7508 Q896.553 73.7508 891.003 67.4314 Q885.494 61.0714 885.494 49.9314 Q885.494 38.7509 891.003 32.4315 Q896.553 26.1121 906.315 26.1121 Z" fill="#000000" fill-rule="nonzero" fill-opacity="1" /><path clip-path="url(#clip430)" d="M965.783 34.1734 Q964.527 33.4443 963.028 33.1202 Q961.57 32.7556 959.787 32.7556 Q953.468 32.7556 950.065 36.8875 Q946.703 40.9789 946.703 48.6757 L946.703 72.576 L939.209 72.576 L939.209 27.2059 L946.703 27.2059 L946.703 34.2544 Q949.052 30.1225 952.82 28.1376 Q956.587 26.1121 961.975 26.1121 Q962.744 26.1121 963.676 26.2337 Q964.608 26.3147 965.742 26.5172 L965.783 34.1734 Z" fill="#000000" fill-rule="nonzero" fill-opacity="1" /><path clip-path="url(#clip430)" d="M1010.59 48.0275 L1010.59 51.6733 L976.315 51.6733 Q976.801 59.3701 980.933 63.421 Q985.105 67.4314 992.519 67.4314 Q996.813 67.4314 1000.82 66.3781 Q1004.87 65.3249 1008.84 63.2184 L1008.84 70.267 Q1004.83 71.9684 1000.62 72.8596 Q996.407 73.7508 992.073 73.7508 Q981.217 73.7508 974.857 67.4314 Q968.537 61.1119 968.537 50.3365 Q968.537 39.1965 974.533 32.6746 Q980.568 26.1121 990.777 26.1121 Q999.932 26.1121 1005.24 32.0264 Q1010.59 37.9003 1010.59 48.0275 M1003.13 45.84 Q1003.05 39.7232 999.689 36.0774 Q996.367 32.4315 990.858 32.4315 Q984.619 32.4315 980.852 35.9558 Q977.125 39.4801 976.558 45.8805 L1003.13 45.84 Z" fill="#000000" fill-rule="nonzero" fill-opacity="1" /><path clip-path="url(#clip430)" d="M1060.53 45.1919 L1060.53 72.576 L1053.08 72.576 L1053.08 45.4349 Q1053.08 38.994 1050.57 35.7938 Q1048.06 32.5936 1043.03 32.5936 Q1037 32.5936 1033.51 36.4419 Q1030.03 40.2903 1030.03 46.9338 L1030.03 72.576 L1022.54 72.576 L1022.54 27.2059 L1030.03 27.2059 L1030.03 34.2544 Q1032.7 30.163 1036.31 28.1376 Q1039.95 26.1121 1044.69 26.1121 Q1052.51 26.1121 1056.52 30.9732 Q1060.53 35.7938 1060.53 45.1919 Z" fill="#000000" fill-rule="nonzero" fill-opacity="1" /><path clip-path="url(#clip430)" d="M1072.16 27.2059 L1107.56 27.2059 L1107.56 34.0114 L1079.53 66.6212 L1107.56 66.6212 L1107.56 72.576 L1071.15 72.576 L1071.15 65.7705 L1099.18 33.1607 L1072.16 33.1607 L1072.16 27.2059 Z" fill="#000000" fill-rule="nonzero" fill-opacity="1" /><path clip-path="url(#clip430)" d="M1183.03 27.2059 L1166.63 49.2833 L1183.88 72.576 L1175.09 72.576 L1161.89 54.752 L1148.68 72.576 L1139.89 72.576 L1157.51 48.8377 L1141.39 27.2059 L1150.18 27.2059 L1162.21 43.369 L1174.24 27.2059 L1183.03 27.2059 Z" fill="#000000" fill-rule="nonzero" fill-opacity="1" /><path clip-path="url(#clip430)" d="M1190.65 46.9338 L1224.03 46.9338 L1224.03 52.7671 L1190.65 52.7671 L1190.65 46.9338 Z" fill="#000000" fill-rule="nonzero" fill-opacity="1" /><path clip-path="url(#clip430)" d="M1254.77 76.7889 Q1251.61 84.8907 1248.62 87.3618 Q1245.62 89.8329 1240.6 89.8329 L1234.64 89.8329 L1234.64 83.5945 L1239.02 83.5945 Q1242.09 83.5945 1243.8 82.1361 Q1245.5 80.6778 1247.56 75.2496 L1248.9 71.8468 L1230.55 27.2059 L1238.45 27.2059 L1252.63 62.6918 L1266.81 27.2059 L1274.7 27.2059 L1254.77 76.7889 Z" fill="#000000" fill-rule="nonzero" fill-opacity="1" /><polyline clip-path="url(#clip432)" style="stroke:#009af9; stroke-linecap:round; stroke-linejoin:round; stroke-width:1.6; stroke-opacity:1; fill:none" points="1065.22,748.107 1067.24,736.511 1072.92,724.016 1082.09,709.63 1094.92,692.388 1111.89,671.277 1133.73,645.182 1161.47,612.872 1196.34,573.038 1239.83,524.455 1293.47,466.339 1358.62,399.075 1435.88,325.48 1524.11,252.654 1618.92,193.866 1711.13,168.598 1786.2,197.484 1826.72,290.622 1818.74,435.732 1758.95,599.475 1657.03,745.335 1530.89,852.123 1398.9,917.795 1274.58,951.477 1165.32,964.613 1073.61,966.441 998.952,963.08 939.311,958.131 892.126,953.535 854.835,950.239 825.127,948.628 801.041,948.774 780.977,950.582 763.678,953.864 748.185,958.377 733.804,963.841 720.066,969.95 706.694,976.365 693.582,982.725 680.767,988.645 668.412,993.729 656.785,997.593 646.227,999.886 637.125,1000.33 629.872,998.754 624.824,995.123 622.259,989.559 622.334,982.338 625.061,973.868 630.296,964.648 637.745,955.21 646.988,946.072 657.519,937.682 668.787,930.398 680.239,924.467 691.357,920.033 701.685,917.155 710.841,915.818 718.529,915.962 724.529,917.498 728.696,920.319 730.949,924.312 731.26,929.357 729.648,935.328 726.173,942.088 720.933,949.481 714.064,957.326 705.747,965.406 696.209,973.464 685.729,981.198 674.646,988.267 663.357,994.303 652.314,998.929 642.011,1001.79 632.959,1002.61 625.657,1001.2 620.55,997.527 617.985,991.723 618.172,984.091 621.154,975.078 626.797,965.233 634.797,955.141 644.709,945.369 655.992,936.406 668.055,928.636 680.304,922.319 692.186,917.606 703.216,914.546 712.993,913.118 721.206,913.249 727.628,914.839 732.112,917.773 734.577,921.931 734.998,927.19 733.395,933.423 729.83,940.494 724.403,948.248 717.251,956.505 708.554,965.046 698.542,973.608 687.498,981.877 675.769,989.496 663.768,996.069 651.968,1001.18 640.893,1004.45 631.093,1005.55 623.112,1004.26 617.441,1000.52 614.47,994.456 614.444,986.385 617.427,976.787 623.286,966.257 631.703,955.438 642.203,944.948 654.199,935.324 667.054,926.981 680.127,920.2 692.821,915.133 704.616,911.827 715.085,910.251 723.898,910.319 730.82,911.92 735.699,914.928 738.452,919.217 739.055,924.661 737.529,931.133 733.938,938.497 728.38,946.604 720.992,955.274 711.951,964.29 701.486,973.387 689.882,982.242 677.491,990.48 664.737,997.679 652.112,1003.39 640.171,1007.19 629.505,1008.69 620.705,1007.64 614.317,1003.94 610.786,997.691 610.401,989.221 613.257,979.038 619.235,967.788 628.007,956.175 639.069,944.881 651.791,934.497 665.481,925.48 679.447,918.135 693.041,912.625 705.702,908.994 716.971,907.198 726.496,907.141 734.029,908.698 739.41,911.732 742.555,916.109 743.439,921.699 742.084,928.375 738.552,936.007 732.942,944.446 725.385,953.522 716.057,963.021 705.181,972.678 693.037,982.167 679.98,991.099 666.439,999.027 652.924,1005.47 640.016,1009.94 628.347,1012.01 618.562,1011.36 611.269,1007.84 606.978,1001.53 606.039,992.731 608.594,981.987 614.548,969.991 623.575,957.515 635.145,945.316 648.587,934.052 663.151,924.234 678.082,916.2 692.678,910.13 706.325,906.067 718.525,903.96 728.9,903.697 737.181,905.138 743.201,908.134 746.868,912.542 748.158,918.226 747.094,925.06 743.735,932.917 738.176,941.658 730.547,951.118 721.014,961.094 709.791,971.328 697.152,981.493 683.445,991.193 669.099,999.961 654.635,1007.28 640.657,1012.61 627.835,1015.45 616.871,1015.41 608.443,1012.28 603.14,1006.07 601.391,997.072 603.403,985.828 609.128,973.08 618.254,959.675 630.237,946.456 644.363,934.167 659.824,923.387 675.796,914.504 691.506,907.722 706.281,903.091 719.572,900.551 730.964,899.976 740.165,901.209 746.992,904.085 751.348,908.448 753.204,914.157 752.583,921.086 749.542,929.111 744.174,938.101 736.6,947.906 726.977,958.336 715.507,969.144 702.45,980.015 688.139,990.549 672.997,1000.27 657.544,1008.62 642.4,1015.01 628.269,1018.88 615.908,1019.74 606.072,1017.27 599.443,1011.42 596.55,1002.42 597.694,990.792 602.896,977.327 611.884,962.942 624.115,948.581 638.843,935.094 655.196,923.154 672.273,913.216 689.219,905.524 705.285,900.143 719.858,897.011 732.474,895.986 742.808,896.889 750.656,899.537 755.908,903.759 758.533,909.404 758.549,916.342 756.014,924.454 751.016,933.62 743.667,943.705 734.114,954.537 722.541,965.891 709.187,977.47 694.364,988.886 678.476,999.656 662.03,1009.21 645.649,1016.9 630.06,1022.1 616.07,1024.19 604.514,1022.77 596.179,1017.63 591.717,1008.93 591.555,997.147 595.821,983.071 604.317,967.695 616.53,952.077 631.694,937.197 648.88,923.851 667.1,912.593 685.403,903.731 702.942,897.361 719.024,893.424 733.117,891.762 744.848,892.176 753.982,894.456 760.394,898.411 764.043,903.876 764.944,910.714 763.155,918.806 758.757,928.044 751.858,938.309 742.589,949.457 731.114,961.29 717.647,973.539 702.468,985.845 685.948,997.737 668.566,1008.64 650.928,1017.88 633.768,1024.73 617.927,1028.49 604.313,1028.59 593.829,1024.67 587.271,1016.74 585.227,1005.17 587.984,990.717 595.467,974.428 607.237,957.474 622.539,940.995 640.399,925.951 659.739,913.037 679.495,902.662 698.701,894.98 716.552,889.947 732.425,887.398 745.881,887.107 756.638,888.835 764.543,892.36 769.54,897.495 771.642,904.09 770.903,912.022 767.403,921.193 761.244,931.501 752.543,942.829 741.443,955.017 728.126,967.84 712.832,980.98 695.886,994.004 677.718,1006.35 658.895,1017.34 640.126,1026.2 622.264,1032.11 606.271,1034.33 593.156,1032.31 583.877,1025.82 579.222,1015.07 579.692,1000.7 585.408,983.746 596.07,965.484 610.993,947.232 629.191,930.163 649.505,915.175 670.742,902.836 691.788,893.4 711.693,886.87 729.708,883.085 745.292,881.793 758.093,882.716 767.914,885.595 774.677,890.207 778.382,896.376 779.084,903.972 776.863,912.893 771.816,923.057 764.053,934.374 753.695,946.727 740.892,959.944 725.838,973.768 708.796,987.83 690.13,1001.62 670.336,1014.49 650.065,1025.65 630.137,1034.19 611.528,1039.21 595.327,1039.94 582.648,1035.85 574.504,1026.86 571.672,1013.38 574.555,996.326 583.099,977.022 596.78,956.952 614.671,937.551 635.57,919.998 658.154,905.108 681.133,893.315 703.367,884.721 723.928,879.198 742.127,876.479 757.503,876.243 769.784,878.177 778.85,882.008 784.682,887.52 787.329,894.555 786.875,903 783.42,912.78 777.07,923.83 767.933,936.075 756.129,949.405 741.805,963.639 725.158,978.498 706.467,993.567 686.127,1008.27 664.686,1021.85 642.876,1033.41 621.625,1041.91 602.039,1046.36 585.34,1045.89 572.76,1040.01 565.391,1028.75 564.014,1012.72 568.954,993.123 580.001,971.54 596.422,949.671 617.062,929.063 640.511,910.906 665.292,895.937 690.024,884.467 713.534,876.464 734.911,871.679 753.518,869.754 768.958,870.31 781.031,873.002 789.678,877.548 794.932,883.738 796.882,891.429 795.636,900.532 791.307,910.996 784.003,922.779 773.826,935.829 760.884,950.051 745.311,965.273 727.293,981.207 707.104,997.414 685.15,1013.26 662.012,1027.92 638.482,1040.35 615.579,1049.4 594.536,1053.91 576.722,1052.92 563.521,1045.87 556.147,1032.82 555.447,1014.58 561.731,992.568 574.689,968.645 593.413,944.752 616.542,922.594 642.461,903.41 669.523,887.907 696.229,876.302 721.348,868.451 743.957,863.997 763.443,862.495 779.454,863.505 791.841,866.644 800.598,871.614 805.804,878.205 807.581,886.286 806.061,895.788 801.369,906.684 793.611,918.964 782.878,932.608 769.26,947.554 752.862,963.661 733.837,980.668 712.427,998.145 689.013,1015.45 664.163,1031.7 638.683,1045.76 613.648,1056.33 590.392,1062.06 570.441,1061.77 555.374,1054.7 546.616,1040.85 545.196,1021.01 551.541,996.799 565.352,970.356 585.637,943.931 610.86,919.491 639.192,898.447 668.775,881.565 697.929,869.036 725.295,860.636 749.878,855.91 771.038,854.314 788.432,855.331 801.941,858.521 811.596,863.55 817.519,870.192 819.868,878.314 818.803,887.858 814.465,898.821 806.965,911.226 796.386,925.097 782.791,940.429 766.244,957.145 746.843,975.056 724.759,993.804 700.289,1012.81 673.922,1031.22 646.394,1047.87 618.749,1061.35 592.352,1070.08 568.851,1072.53 550.052,1067.57 537.698,1054.79 533.191,1034.74 537.307,1009.03 550.001,979.995 570.374,950.302 596.821,922.38 627.308,898.044 659.69,878.325 691.995,863.528 722.606,853.421 750.337,847.463 774.423,844.998 794.46,845.389 810.316,848.097 822.042,852.713 829.797,858.956 833.781,866.664 834.198,875.772 831.225,886.285 824.992,898.254 815.588,911.752 803.06,926.846 787.429,943.555 768.723,961.816 747.005,981.424 722.432,1001.97 695.315,1022.77 666.198,1042.8 635.935,1060.68 605.753,1074.68 577.27,1082.92 552.438,1083.64 533.365,1075.62 522.023,1058.65 519.894,1033.73 527.627,1003.09 544.853,969.749 570.211,936.836 601.602,906.988 636.567,881.945 672.679,862.477 707.835,848.555 740.423,839.638 769.352,834.945 794.004,833.664 814.131,835.076 829.75,838.613 841.035,843.871 848.24,850.599 851.633,858.673 851.458,868.07 847.908,878.843 841.114,891.095 831.142,904.952 818.006,920.541 801.678,937.95 782.118,957.187 759.312,978.123 733.329,1000.42 704.387,1023.44 672.945,1046.15 639.805,1067.08 606.203,1084.29 573.862,1095.53 544.966,1098.56 521.984,1091.64 507.347,1074.14 503,1046.96 509.95,1012.59 527.97,974.612 555.59,936.892 590.39,902.695 629.471,874.156 669.963,852.164 709.398,836.607 745.913,826.743 778.291,821.565 805.879,820.056 828.468,821.335 846.147,824.722 859.183,829.742 867.924,836.102 872.725,843.661 873.901,852.397 871.703,862.38 866.301,873.741 857.781,886.656 846.149,901.323 831.346,917.932 813.262,936.638 791.77,957.51 766.765,980.469 738.227,1005.2 706.307,1031.02 671.431,1056.79 634.438,1080.78 596.703,1100.66 560.226,1113.63 527.612,1116.84 501.868,1108.08 485.974,1086.56 482.287,1053.56 491.938,1012.4 514.467,967.757 547.86,924.454 588.994,886.297 634.3,855.489 680.396,832.638 724.527,817.189 764.748,807.962 799.905,803.6 829.499,802.844 853.508,804.674 872.211,808.339 886.044,813.338 895.496,819.381 901.034,826.344 903.061,834.227 901.889,843.124 897.729,853.199 890.689,864.667 880.777,877.781 867.913,892.814 851.935,910.045 832.62,929.727 809.713,952.043 782.964,977.038 752.189,1004.52 717.371,1033.9 678.78,1064.04 637.149,1093.06 593.86,1118.22 551.109,1136.01 511.959,1142.58 480.149,1134.61 459.588,1110.55 453.538,1071.62 463.729,1022.01 489.764,967.964 529.127,915.916 577.804,870.83 631.234,835.328 685.198,809.827 736.384,793.247 782.585,783.818 822.62,779.674 856.117,779.19 883.256,781.105 904.548,784.525 920.653,788.87 932.263,793.808 940.024,799.189 944.49,804.995 946.105,811.299 945.193,818.244 941.967,826.018 936.524,834.856 928.864,845.025 918.886,856.833 906.399,870.619 891.127,886.754 872.715,905.63 850.741,927.629 824.735,953.081 794.227,982.174 758.809,1014.82 718.259,1050.43 672.715,1087.65 622.933,1124.03 570.59,1155.74 518.587,1177.66 471.178,1183.99 433.696,1169.81 411.705,1133.22 409.605,1077.04 429.194,1008.8 468.901,938.414 524.164,874.893 588.765,823.826 656.418,786.89 721.957,762.853 781.858,749.05 834.205,742.545 878.368,740.777 914.593,741.775 943.642,744.155 966.52,747.012 984.288,749.794 997.957,752.196 1008.43,754.068 1016.47,755.359 1022.72,756.065 1027.7,756.205 1031.83,755.802 1035.43,754.866 1038.79,753.396 1042.14,751.366 1045.67,748.726 1049.56,745.402 1054,741.286 1059.19,736.238 1065.33,730.077 1072.65,722.574 1081.46,713.451 1092.08,702.362 1104.91,688.894 1120.45,672.553 1139.26,652.768 1162.03,628.898 1189.54,600.272 1222.63,566.266 1262.2,526.47 1309.03,480.974 1363.57,430.838 1425.57,378.777 1493.52,329.946 1563.91,292.462 1630.69,276.846 1685.26,293.376 1717.88,347.271 1720.4,433.984 1689.56,538.803 1628.62,642.584 1546.27,729.899 1453.42,793.695 1359.97,834.592 1272.97,857.386 1196.36,867.829 1131.53,870.883 1078.15,870.197 1034.97,868.209 1000.27,866.439 972.29,865.785 949.328,866.75 929.879,869.606 912.64,874.498 896.508,881.515 880.552,890.727 863.989,902.204 846.152,916.017 826.474,932.217 804.481,950.81 779.8,971.697 752.184,994.601 721.574,1018.97 688.17,1043.86 652.539,1067.82 615.734,1088.84 579.381,1104.43 545.709,1111.84 517.431,1108.66 497.429,1093.45 488.258,1066.54 491.561,1030.2 507.604,988.357 535.134,945.628 571.618,906.155 613.795,872.801 658.297,846.88 702.166,828.394 743.139,816.5 779.724,809.982 811.123,807.593 837.078,808.249 857.702,811.108 873.33,815.575 884.396,821.278 891.347,828.021 894.592,835.753 894.463,844.525 891.198,854.468 884.941,865.772 875.736,878.664 863.537,893.398 848.221,910.23 829.605,929.391 807.469,951.043 781.602,975.217 751.856,1001.71 718.237,1029.96 681.025,1058.9 640.927,1086.75 599.252,1110.98 558.058,1128.35 520.194,1135.28 489.141,1128.7 468.554,1107.03 461.536,1071.22 469.83,1024.93 493.248,973.798 529.624,923.823 575.326,879.836 626.103,844.588 677.918,818.769 727.508,801.585 772.622,791.49 811.981,786.76 845.096,785.845 872.038,787.511 893.219,790.867 909.223,795.325 920.684,800.541 928.202,806.355 932.297,812.744 933.384,819.782 931.767,827.617 927.633,836.448 921.061,846.521 912.026,858.117 900.406,871.554 885.99,887.173 868.487,905.332 847.539,926.375 822.744,950.592 793.696,978.139 760.052,1008.92 721.633,1042.38 678.588,1077.32 631.607,1111.55 582.195,1141.72 532.921,1163.31 487.543,1171.2 450.801,1160.88 427.732,1130.24 422.511,1081.13 437.183,1019.58 470.873,954.192 519.93,893.319 578.945,842.75 642.133,804.85 704.482,779.162 762.356,763.618 813.592,755.639 857.271,752.82 893.374,753.228 922.444,755.457 945.32,758.56 962.941,761.946 976.227,765.284 986.013,768.416 993.011,771.299 997.809,773.958 1000.87,776.458 1002.55,778.886 1003.1,781.342 1002.71,783.93 1001.47,786.763 999.445,789.961 996.624,793.655 992.96,797.995 988.36,803.153 982.682,809.33 975.738,816.765 967.285,825.747 957.015,836.62 944.551,849.796 929.431,865.761 911.1,885.078 888.9,908.381 862.073,936.338 829.773,969.583 791.124,1008.56 745.326,1053.27 691.867,1102.79 630.885,1154.68 563.704,1204.14 493.527,1243.48 426.05,1262.43 369.537,1250.51 333.675,1201.61 326.955,1118.82 353.408,1015.68 410.624,911.114 490.514,821.327 582.313,754.507 675.892,710.887 763.794,686.049 841.708,674.268 907.958,670.451 962.674,670.785 1007.03,672.694 1042.67,674.556 1071.38,675.406 1094.86,674.697 1114.64,672.134 1132.04,667.558 1148.2,660.874 1164.06,652.01 1180.43,640.893 1197.99,627.448 1217.31,611.615 1238.89,593.372 1263.12,572.79 1290.28,550.102 1320.47,525.802 1353.54,500.756 1389,476.318 1425.9,454.409 1462.71,437.479 1497.29,428.284 1526.96,429.393 1548.82,442.483 1560.18,467.61 1559.17,502.811 1545.24,544.35 1519.4,587.598 1484.01,628.201 1442.28,663.003 1397.65,690.416 1353.19,710.25 1311.31,723.255 1273.66,730.629 1241.14,733.65 1214.09,733.45 1192.43,730.925 1175.86,726.716 1163.95,721.234 1156.22,714.703 1152.28,707.199 1151.75,698.686 1154.38,689.044 1160.01,678.093 1168.57,665.607 1180.1,651.334 1194.7,635.013 1212.55,616.398 1233.87,595.298 1258.89,571.638 1287.79,545.544 1320.61,517.468 1357.17,488.344 1396.89,459.758 1438.62,434.073 1480.5,414.419 1519.84,404.387 1553.25,407.34 1577.01,425.365 1587.75,458.222 1583.29,502.846 1563.31,553.887 1529.52,605.17 1485.31,651.385 1434.94,689.205 1382.59,717.477 1331.8,736.729 1285.09,748.417 1243.97,754.295 1209.09,755.997 1180.48,754.857 1157.8,751.857 1140.46,747.658 1127.82,742.663 1119.27,737.072 1114.25,730.939 1112.31,724.212 1113.11,716.763 1116.43,708.404 1122.16,698.905 1130.29,687.994 1140.92,675.363 1154.23,660.677 1170.49,643.576 1190.05,623.7 1213.29,600.72 1240.65,574.401 1272.52,544.707 1309.18,511.958 1350.65,477.053 1396.51,441.75 1445.63,408.932 1495.89,382.724 1543.99,368.208 1585.48,370.468 1615.21,392.938 1628.4,435.56 1621.91,493.841 1595.36,559.744 1551.4,624.262 1494.99,680.214 1432.02,723.799 1368.04,754.489 1307.33,773.92 1252.66,784.645 1205.42,789.25 1165.93,789.916 1133.81,788.28 1108.3,785.476 1088.44,782.234 1073.3,778.982 1061.96,775.943 1053.65,773.205 1047.71,770.772 1043.63,768.6 1040.98,766.62 1039.46,764.75 1038.84,762.906 1038.96,761 1039.72,758.943 1041.08,756.643 1043.03,753.999 1045.59,750.901 1048.83,747.223 1052.84,742.815 1057.77,737.5 1063.79,731.066 1071.11,723.254 1080.03,713.75 1090.89,702.176 1104.11,688.076 1120.2,670.91 1139.79,650.051 1163.62,624.798 1192.51,594.416 1227.41,558.234 1269.26,515.833 1318.9,467.389 1376.77,414.233 1442.45,359.645 1514.03,309.749 1587.32,273.99 1655.19,264.162 1707.94,290.873 1735.06,357.766 1728.7,456.864 1687.06,569.856 1615.53,676.012 1524.6,760.913 1426.03,819.854 1329.63,855.576 1241.83,874.075 1165.81,881.49 1102.25,882.709 1050.37,881.143 1008.58,878.977 974.991,877.529 947.742,877.546 925.108,879.431 905.585,883.384 887.892,889.504 870.957,897.84 853.889,908.42 835.953,921.259 816.545,936.345 795.184,953.613 771.513,972.896 745.324,993.857 716.6,1015.92 685.581,1038.15 652.843,1059.23 619.385,1077.38 586.688,1090.48 556.71,1096.29 531.765,1092.9 514.255,1079.28 506.27,1055.76 509.132,1024.24 523.046,987.904 546.988,950.483 578.884,915.432 616.024,885.257 655.553,861.263 694.888,843.677 731.976,831.978 765.391,825.263 794.291,822.534 818.315,822.878 837.442,825.562 851.87,830.047 861.91,835.986 867.903,843.189 870.17,851.594 868.978,861.239 864.518,872.231 856.901,884.728 846.162,898.911 832.264,914.966 815.122,933.046 794.622,953.23 770.67,975.465 743.237,999.482 712.447,1024.69 678.67,1050.07 642.649,1074.04 605.625,1094.45 569.429,1108.67 536.485,1113.93 509.654,1107.91 491.865,1089.53 485.567,1059.58 492.142,1020.87 511.488,977.712 541.965,934.805 580.747,896.121 624.419,864.178 669.617,839.925 713.491,823.073 753.95,812.608 789.678,807.244 820.036,805.732 844.886,807.025 864.425,810.331 879.04,815.109 889.187,821.029 895.325,827.936 897.853,835.806 897.091,844.713 893.262,854.806 886.487,866.287 876.791,879.396 864.109,894.396 848.298,911.55 829.158,931.093 806.453,953.189 779.961,977.859 749.53,1004.88 715.173,1033.65 677.194,1063.02 636.351,1091.12 594.033,1115.28 552.412,1132.12 514.473,1137.96 483.826,1129.73 464.203,1106.02 458.686,1068.1 468.878,1020.01 494.354,967.697 532.684,917.282 580.017,873.497 631.982,838.879 684.516,813.878 734.415,797.515 779.521,788.133 818.66,783.959 851.437,783.439 877.993,785.353 898.798,788.835 914.469,793.32 925.663,798.485 932.989,804.186 936.975,810.41 938.037,817.239 936.477,824.822 932.482,833.359 926.13,843.097 917.396,854.315 906.157,867.332 892.201,882.493 875.235,900.165 854.893,920.712 830.758,944.46 802.396,971.622 769.416,1002.19 731.563,1035.76 688.869,1071.27 641.867,1106.77 591.861,1139.07 541.212,1163.76 493.516,1175.54 453.496,1169.4 426.406,1142.38 416.907,1095.41 427.703,1033.96 458.54,966.701 506.143,902.653 565.135,848.481 629.485,807.273 693.789,778.953 754.02,761.53 807.702,752.321 853.71,748.749 891.914,748.716 922.822,750.676 947.277,753.58 966.257,756.765 980.732,759.851 991.589,762.644 999.599,765.074 1005.4,767.145 1009.51,768.899 1012.33,770.397 1014.17,771.708 1015.25,772.902 1015.75,774.042 1015.77,775.193 1015.39,776.414 1014.64,777.766 1013.54,779.311 1012.08,781.118 1010.22,783.264 1007.89,785.839 1005.03,788.95 1001.53,792.728 997.251,797.33 992.023,802.951 985.634,809.828 977.824,818.254 968.266,828.587 956.561,841.264 942.217,856.811 924.64,875.855 903.111,899.123 876.784,927.42 844.687,961.572 805.762,1002.29 758.959,1049.89 703.445,1103.84 638.976,1161.96 566.52,1219.44 489.111,1267.78 412.767,1294.8 346.869,1286.99 303.097,1235.19 292.278,1141.61 320.047,1022.42 383.948,901.492 474.24,799.186 577.859,725.128 682.749,678.668 780.356,653.661 866.034,642.882 938.245,640.291 997.462,641.609 1045.24,644.084 1083.57,646.071 1114.51,646.641 1139.97,645.311 1161.63,641.857 1180.92,636.196 1199,628.323 1216.84,618.276 1235.21,606.126 1254.69,591.992 1275.73,576.065 1298.6,558.652 1323.38,540.228 1349.97,521.498 1377.97,503.443 1406.68,487.341 1435.05,474.729 1461.69,467.258 1484.89,466.452 1502.84,473.362 1513.81,488.215 1516.5,510.192 1510.31,537.452 1495.49,567.454 1473.16,597.479 1445.1,625.156 1413.46,648.818 1380.41,667.616 1347.88,681.404 1317.43,690.535 1290.14,695.618 1266.69,697.338 1247.4,696.33 1232.34,693.116 1221.43,688.08 1214.47,681.477 1211.25,673.442 1211.57,664.022 1215.25,653.191 1222.17,640.885 1232.25,627.022 1245.47,611.532 1261.8,594.395 1281.23,575.689 1303.69,555.639 1329.01,534.692 1356.86,513.588 1386.66,493.423 1417.48,475.674 1448.02,462.144 1476.56,454.781 1501.07,455.35 1519.39,464.98 1529.54,483.726 1530.1,510.328 1520.56,542.317 1501.49,576.515 1474.43,609.732 1441.63,639.397 1405.64,663.909 1368.9,682.658 1333.49,695.808 1300.94,703.993 1272.28,708.047 1248.05,708.8 1228.42,706.967 1213.34,703.1 1202.59,697.583 1195.9,690.646 1193,682.393 1193.63,672.829 1197.61,661.888 1204.81,649.452 1215.19,635.383 1228.73,619.548 1245.49,601.85 1265.5,582.277 1288.8,560.96 1315.32,538.248 1344.84,514.801 1376.9,491.685 1410.67,470.442 1444.87,453.081 1477.71,441.936 1506.93,439.325 1529.97,447.007 1544.35,465.573 1548.08,493.992 1540.21,529.595 1521.05,568.609 1492.2,607.049 1456.21,641.613 1416.09,670.211 1374.77,692.041 1334.73,707.315 1297.83,716.854 1265.24,721.724 1237.58,722.972 1215,721.492 1197.4,717.965 1184.45,712.864 1175.81,706.472 1171.09,698.921 1169.97,690.223 1172.2,680.302 1177.6,669.016 1186.1,656.179 1197.69,641.585 1212.43,625.025 1230.46,606.329 1251.91,585.4 1276.91,562.288 1305.53,537.274 1337.64,510.987 1372.86,484.535 1410.41,459.625 1448.95,438.607 1486.5,424.346 1520.43,419.843 1547.66,427.534 1565.05,448.437 1570.07,481.46 1561.39,523.297 1539.32,569.137 1505.85,613.917 1464.15,653.56 1417.9,685.666 1370.64,709.533 1325.27,725.707 1283.84,735.416 1247.55,740.087 1216.95,741.044 1192.06,739.363 1172.59,735.839 1158.08,731.002 1148.01,725.162 1141.89,718.458 1139.28,710.9 1139.86,702.399 1143.39,692.797 1149.74,681.88 1158.88,669.394 1170.89,655.058 1185.93,638.578 1204.22,619.67 1226.02,598.096 1251.64,573.726 1281.31,546.627 1315.17,517.196 1353.1,486.333 1394.59,455.643 1438.54,427.607 1483.02,405.606 1525.23,393.647 1561.49,395.611 1587.69,414.061 1599.99,448.962 1595.87,497.025 1574.85,552.259 1538.78,607.687 1491.42,657.344 1437.48,697.588 1381.57,727.285 1327.53,747.183 1278.03,759.025 1234.62,764.816 1197.91,766.38 1167.84,765.174 1143.96,762.253 1125.58,758.323 1111.97,753.806 1102.42,748.918 1096.3,743.727 1093.09,738.197 1092.41,732.218 1093.97,725.631 1097.6,718.234 1103.25,709.79 1110.94,700.028 1120.8,688.638 1133.05,675.275 1147.99,659.555 1165.99,641.066 1187.51,619.387 1213.06,594.132 1243.15,565.024 1278.29,532.033 1318.82,495.575 1364.74,456.812 1415.5,418.016 1469.63,382.909 1524.39,356.754 1575.57,345.835 1617.62,355.981 1644.45,390.227 1650.87,446.617 1634.28,517.72 1595.71,592.808 1539.65,661.62 1472.68,717.448 1401.67,758.023 1332.36,784.49 1268.74,799.734 1212.99,807.004 1165.86,809.152 1127.1,808.367 1095.92,806.185 1071.22,803.61 1051.83,801.257 1036.66,799.476 1024.72,798.448 1015.14,798.259 1007.21,798.944 1000.33,800.523 994.003,803.027 987.812,806.504 981.389,811.037 974.401,816.746 966.526,823.795 957.436,832.4 946.782,842.83 934.176,855.418 919.176,870.555 901.281,888.694 879.916,910.332 854.441,935.979 824.167,966.087 788.405,1000.93 746.561,1040.36 698.311,1083.53 643.877,1128.36 584.43,1171.04 522.573,1205.66 462.779,1224.46 411.435,1219.41 376.115,1185.16 363.828,1122.52 378.697,1039.94 420.224,951.078 483.249,869.52 559.701,804.139 641.049,757.703 720.238,728.396 792.542,712.26 855.512,705.069 908.465,703.278 951.876,704.271 986.868,706.277 1014.83,708.167 1037.22,709.266 1055.37,709.183 1070.5,707.7 1083.65,704.69 1095.72,700.055 1107.45,693.699 1119.52,685.496 1132.52,675.287 1146.98,662.869 1163.43,648.001 1182.37,630.42 1204.33,609.865 1229.78,586.132 1259.2,559.148 1292.92,529.103 1331.12,496.623 1373.6,463.008 1419.6,430.474 1467.58,402.334 1514.96,382.912 1558.09,376.984 1592.43,388.573 1613.29,419.32 1616.91,467.162 1601.58,526.251 1568.3,588.556 1520.63,646.382 1463.7,694.445 1402.93,730.584 1343.04,755.209 1287.43,770.211 1238.17,777.97 1196.16,780.72 1161.43,780.271 1133.51,777.951 1111.62,774.657 1094.9,770.948 1082.48,767.135 1073.59,763.357 1067.58,759.639 1063.91,755.934 1062.17,752.147 1062.05,748.155 1063.35,743.811 1065.97,738.952 1069.87,733.392 1075.09,726.924 1081.73,719.31 1089.99,710.272 1100.08,699.489 1112.34,686.588 1127.17,671.135 1145.03,652.641 1166.5,630.571 1192.23,604.375 1222.92,573.56 1259.29,537.821 1301.98,497.266 1351.33,452.776 1407.14,406.505 1468.19,362.463 1531.76,326.92 1593.12,308.11 1645.52,314.549 1680.96,351.739 1692.13,418.451 1674.92,505.275 1630.17,597.495 1563.63,680.931 1483.92,746.77 1399.93,792.713 1318.83,821.11 1245.28,836.309 1181.58,842.743 1128.24,844.034 1084.64,842.804 1049.52,840.798 1021.42,839.113 998.824,838.4 980.338,839.032 964.724,841.216 950.913,845.081 937.994,850.726 925.188,858.258 911.815,867.807 897.27,879.541 880.995,893.657 862.461,910.374 841.164,929.907 816.623,952.417 788.412,977.943 756.203,1006.29 719.862,1036.85 679.573,1068.46 636.022,1099.13 590.605,1125.9 545.618,1144.96 504.326,1152.05 470.776,1143.47 449.227,1117.47 443.237,1075.42 454.66,1022.05 482.981,964.31 525.354,909.261 577.336,862.182 633.968,825.674 690.754,799.92 744.248,783.541 792.231,774.504 833.587,770.759 868.048,770.567 895.907,772.606 917.778,775.958 934.415,780.035 946.587,784.503 955.001,789.209 960.267,794.129 962.873,799.325 963.19,804.918 961.469,811.074 957.857,817.993 952.4,825.907 945.051,835.081 935.678,845.816 924.061,858.455 909.899,873.381 892.811,891.016 872.336,911.805 847.946,936.186 819.072,964.523 785.156,996.994 745.735,1033.41 700.604,1072.91 650.046,1113.63 595.171,1152.24 538.298,1183.72 483.293,1201.61 435.596,1199.17 401.648,1171.75 387.529,1119.42 397.126,1048.41 430.632,969.576 484.279,894.585 551.512,831.961 624.924,785.376 697.977,754.335 765.951,735.993 826.093,726.823 877.306,723.611 919.659,723.844 953.926,725.738 981.232,728.115 1002.81,730.245 1019.87,731.701 1033.5,732.251 1044.65,731.777 1054.13,730.211 1062.62,727.505 1070.68,723.599 1078.83,718.407 1087.49,711.803 1097.07,703.617 1107.99,693.624 1120.66,681.546 1135.51,667.048 1153.04,649.746 1173.78,629.219 1198.3,605.046 1227.23,576.87 1261.14,544.508 1300.53,508.142 1345.63,468.595 1396.2,427.71 1451.17,388.77 1508.27,356.769 1563.66,338.194 1611.93,339.848 1646.6,366.559 1661.51,418.443 1652.64,489.43 1619.66,568.642 1566.27,644.282 1499,707.629 1425.34,754.857 1351.88,786.386 1283.44,805.056 1222.83,814.425 1171.19,817.746 1128.45,817.569 1093.86,815.703 1066.28,813.346 1044.47,811.24 1027.21,809.819 1013.4,809.321 1002.08,809.868 992.44,811.53 983.783,814.359 975.529,818.417 967.175,823.794 958.274,830.62 948.407,839.07 937.162,849.374 924.117,861.814 908.82,876.728 890.778,894.504 869.452,915.556 844.26,940.29 814.601,969.032 779.902,1001.91 739.718,1038.63 693.89,1078.23 642.791,1118.66 587.67,1156.37 531.033,1186.16 476.946,1201.48 430.998,1195.79 399.617,1164.99 388.643,1109.98 401.491,1037.69 437.799,959.236 493.367,885.944 561.467,825.665 634.782,781.426 707.026,752.339 773.768,735.427 832.508,727.199 882.325,724.547 923.396,725.073 956.545,727.091 982.914,729.493 1003.73,731.6 1020.17,733.018 1033.31,733.536 1044.07,733.044 1053.22,731.484 1061.44,728.811 1069.27,724.965 1077.19,719.863 1085.64,713.378 1095,705.342 1105.69,695.531 1118.09,683.668 1132.65,669.417 1149.85,652.391 1170.22,632.164 1194.35,608.301 1222.84,580.421 1256.3,548.3 1295.26,512.054 1340.01,472.408 1390.38,431.077 1445.42,391.194 1502.99,357.633 1559.42,336.872 1609.34,335.93 1646.26,360.122 1663.74,410.22 1657.36,480.688 1626.37,560.756 1574.11,638.252 1507.08,703.839 1432.85,753.156 1358.3,786.332 1288.51,806.148 1226.48,816.234 1173.48,819.962 1129.54,819.993 1093.92,818.225 1065.47,815.918 1042.92,813.856 1025.05,812.5 1010.71,812.104 998.92,812.804 988.826,814.676 979.717,817.779 970.988,822.183 962.116,827.985 952.631,835.324 942.097,844.383 930.082,855.403 916.146,868.674 899.817,884.54 880.59,903.382 857.915,925.599 831.216,951.549 799.915,981.471 763.503,1015.33 721.653,1052.59 674.409,1091.92 622.459,1130.76 567.481,1165.05 512.499,1189.18 462.062,1196.69 421.988,1181.97 398.426,1142.7 396.283,1081.99 417.556,1008.31 460.453,932.811 519.853,865.426 588.87,812.065 660.666,774.19 729.744,750.111 792.469,736.705 846.969,730.7 892.739,729.327 930.182,730.509 960.21,732.815 983.962,735.323 1002.61,737.477 1017.27,738.965 1028.9,739.626 1038.36,739.385 1046.35,738.205 1053.46,736.057 1060.18,732.898 1066.93,728.66 1074.09,723.238 1082,716.485 1091.02,708.204 1101.51,698.144 1113.83,685.998 1128.44,671.395 1145.81,653.909 1166.51,633.069 1191.13,608.386 1220.36,579.421 1254.84,545.896 1295.18,507.884 1341.71,466.122 1394.3,422.427 1451.96,380.205 1512.39,344.828 1571.58,323.496 1623.63,323.998 1661.36,352.086 1677.82,408.183 1668.38,485.505 1632.66,571.633 1574.83,653.173 1502.27,720.499 1423.27,769.743 1345.04,801.833 1272.66,820.244 1208.98,829.05 1155.01,831.837 1110.52,831.334 1074.55,829.429 1045.8,827.349 1022.88,825.843 1004.46,825.344 989.328,826.096 976.449,828.237 964.927,831.859 954.001,837.049 943.016,843.916 931.394,852.602 918.605,863.295 904.145,876.228 887.513,891.676 868.204,909.939 845.701,931.315 819.487,956.046 789.082,984.23 754.101,1015.69 714.369,1049.76 670.084,1085.04 622.053,1119.11 571.962,1148.33 522.626,1167.93 478.069,1172.69 443.227,1158.33 423.151,1123.36 421.76,1070.53 440.588,1006.71 478.136,940.836 530.228,881.048 591.177,832.518 655.193,796.956 717.451,773.427 774.593,759.622 824.726,752.904 867.153,750.915 902.014,751.808 929.952,754.265 951.856,757.413 968.69,760.72 981.375,763.891 990.735,766.795 997.471,769.401 1002.16,771.739 1005.24,773.871 1007.07,775.878 1007.9,777.847 1007.91,779.869 1007.22,782.038 1005.87,784.45 1003.9,787.21 1001.28,790.433 997.952,794.251 993.811,798.816 988.723,804.312 982.511,810.958 974.945,819.017 965.74,828.811 954.543,840.725 940.921,855.222 924.35,872.849 904.201,894.234 879.735,920.076 850.106,951.093 814.39,987.914 771.66,1030.88 721.147,1079.67 662.522,1132.72 596.377,1186.44 524.893,1234.32 452.616,1266.66 386.95,1271.8 337.705,1239.97 315.037,1169.02 326.007,1068.35 371.434,956.71 445.206,854.004 536.656,773.215 634.327,717.9 728.932,684.82 814.54,667.982 888.358,661.475 949.887,660.663 1000.03,662.334 1040.4,664.441 1072.86,665.753 1099.23,665.571 1121.21,663.52 1140.24,659.409 1157.59,653.141 1174.29,644.662 1191.22,633.935 1209.09,620.931 1228.5,605.645 1249.95,588.126 1273.78,568.52 1300.23,547.143 1329.33,524.563 1360.84,501.693 1394.22,479.879 1428.46,460.935 1462.07,447.061 1493.04,440.608 1518.96,443.621 1537.34,457.257 1545.95,481.24 1543.37,513.636 1529.33,551.137 1504.88,589.813 1472.15,626.03 1433.97,657.158 1393.31,681.843 1352.87,699.873 1314.76,711.819 1280.44,718.65 1250.78,721.421 1226.13,721.089 1206.48,718.424 1191.62,713.981 1181.2,708.124 1174.87,701.045 1172.27,692.809 1173.12,683.375 1177.23,672.632 1184.47,660.414 1194.8,646.526 1208.27,630.764 1224.96,612.946 1245.01,592.95 1268.56,570.772 1295.67,546.604 1326.31,520.939 1360.17,494.695 1396.65,469.338 1434.62,446.96 1472.34,430.22 1507.47,422.068 1537.07,425.169 1558.05,441.098 1567.63,469.57 1564.02,508.094 1546.93,552.383 1517.73,597.424 1479.17,638.759 1434.77,673.388 1388.12,700.02 1342.33,718.779 1299.74,730.664 1261.87,737.034 1229.47,739.243 1202.76,738.446 1181.55,735.526 1165.44,731.1 1153.95,725.548 1146.58,719.066 1142.89,711.705 1142.5,703.411 1145.17,694.048 1150.72,683.42 1159.11,671.289 1170.37,657.386 1184.63,641.425 1202.09,623.126 1222.99,602.249 1247.63,578.648 1276.23,552.353 1308.94,523.69 1345.7,493.447 1386.07,463.057 1429.08,434.782 1473.01,411.762 1515.28,397.818 1552.43,396.814 1580.49,411.58 1595.61,442.656 1595,487.487 1577.74,540.701 1545.18,595.565 1500.66,645.935 1448.64,687.714 1393.72,719.271 1339.86,740.967 1289.95,754.329 1245.75,761.282 1208.06,763.662 1176.97,762.975 1152.12,760.342 1132.88,756.525 1118.55,751.996 1108.43,747.006 1101.9,741.646 1098.42,735.895 1097.59,729.653 1099.13,722.761 1102.85,715.019 1108.7,706.184 1116.69,695.982 1126.96,684.099 1139.72,670.187 1155.27,653.865 1173.98,634.729 1196.31,612.382 1222.73,586.48 1253.76,556.823 1289.81,523.497 1331.13,487.102 1377.57,449.043 1428.37,411.885 1481.78,379.624 1534.76,357.638 1582.87,351.967 1620.55,367.666 1642.06,406.537 1642.92,465.35 1621.44,536.011 1579.49,608.101 1521.97,672.435 1455.39,723.541 1386.19,760.027 1319.59,783.414 1259.03,796.577 1206.35,802.563 1162.05,803.982 1125.81,802.807 1096.78,800.41 1073.89,797.678 1056.05,795.148 1042.22,793.119 1031.47,791.735 1023.01,791.056 1016.19,791.095 1010.47,791.852 1005.4,793.329 1000.63,795.547 995.837,798.551 990.752,802.417 985.12,807.253 978.687,813.212 971.187,820.489 962.327,829.333 951.773,840.047 939.139,853.004 923.972,868.64 905.74,887.464 883.826,910.039 857.531,936.95 826.091,968.73 788.727,1005.72 744.754,1047.84 693.772,1094.16 635.988,1142.38 572.683,1188.17 506.794,1224.72 443.423,1243.08 389.884,1234.11 354.751,1192.21 345.695,1119.39 366.725,1026.6 416.357,930.045 487.966,844.573 572.143,778.695 659.571,733.906 743.007,707.069 817.951,693.319 882.362,687.983 935.985,687.376 979.661,688.905 1014.79,690.877 1042.97,692.25 1065.77,692.416 1084.65,691.032 1100.87,687.905 1115.53,682.915 1129.55,675.963 1143.74,666.941 1158.77,655.723 1175.27,642.156 1193.79,626.075 1214.83,607.33 1238.86,585.829 1266.27,561.605 1297.31,534.927 1332.07,506.429 1370.3,477.286 1411.27,449.377 1453.64,425.383 1495.25,408.685 1533.13,402.935 1563.72,411.206 1583.29,434.877 1588.79,472.697 1578.63,520.627 1553.23,572.766 1515.03,623.02 1467.84,666.68 1416.04,701.216 1363.65,726.174 1313.89,742.52 1268.89,751.904 1229.84,756.084 1197.13,756.612 1170.63,754.7 1149.87,751.214 1134.24,746.716 1123.09,741.53 1115.8,735.798 1111.86,729.533 1110.85,722.653 1112.47,715.009 1116.54,706.398 1122.98,696.574 1131.82,685.255 1143.18,672.124 1157.28,656.833 1174.4,639.02 1194.93,618.32 1219.26,594.419 1247.84,567.113 1281.04,536.435 1319.1,502.824 1361.96,467.374 1409.04,432.118 1459,400.286 1509.4,376.346 1556.59,365.57 1595.83,372.871 1621.9,400.989 1630.23,448.734 1618.31,510.442 1586.56,577.415 1538.39,640.763 1479.2,694.048 1414.99,734.388 1351.07,761.984 1291.37,778.87 1238.27,787.715 1192.84,791.058 1155.16,790.957 1124.73,788.921 1100.67,785.972 1082.04,782.752 1067.85,779.629 1057.25,776.786 1049.47,774.287 1043.88,772.124 1039.98,770.251 1037.38,768.599 1035.78,767.096 1034.97,765.667 1034.78,764.239 1035.11,762.738 1035.92,761.093 1037.17,759.228 1038.87,757.061 1041.06,754.5 1043.8,751.44 1047.18,747.753 1051.33,743.289 1056.39,737.865 1062.56,731.255 1070.08,723.187 1079.27,713.325 1090.49,701.263 1104.2,686.51 1120.95,668.484 1141.41,646.507 1166.37,619.822 1196.75,587.641 1233.54,549.259 1277.75,504.276 1330.24,453.006 1391.38,397.124 1460.56,340.59 1535.37,290.618 1610.8,258.022 1678.63,255.674 1728.06,293.942 1748.18,374.095 1731.89,484.254 1679.28,602.914 1597.91,708.803 1499.79,789.412 1397.09,842.641 1299.19,873.109 1211.73,887.639 1137.07,892.465 1075.31,892.247 1025.22,890.096 984.973,887.937 952.583,886.887 926.131,887.558 903.9,890.258 884.412,895.127 866.428,902.213 848.927,911.52 831.075,923.028 812.201,936.681 791.784,952.375 769.445,969.917 744.963,988.97 718.306,1008.99 689.676,1029.15 659.574,1048.3 628.864,1064.92 598.813,1077.23 571.087,1083.34 547.653,1081.61 530.571,1071.08 521.676,1051.84 522.22,1025.24 532.564,993.775 552.05,960.503 579.091,928.447 611.47,899.994 646.722,876.597 682.506,858.783 716.86,846.362 748.324,838.713 775.948,835.043 799.225,834.565 817.988,836.607 832.3,840.649 842.36,846.336 848.425,853.453 850.756,861.907 849.581,871.699 845.075,882.894 837.349,895.604 826.454,909.953 812.392,926.056 795.131,943.978 774.64,963.686 750.93,984.992 724.112,1007.47 694.474,1030.37 662.575,1052.53 629.342,1072.33 596.157,1087.75 564.883,1096.51 537.797,1096.51 517.372,1086.33 505.908,1065.78 505.076,1036.27 515.504,1000.67 536.569,962.705 566.481,926.086 602.645,893.73 642.155,867.361 682.259,847.528 720.685,833.893 755.783,825.617 786.526,821.682 812.41,821.116 833.327,823.107 849.428,827.045 861.006,832.517 868.409,839.282 871.979,847.241 872.01,856.401 868.724,866.853 862.263,878.743 852.686,892.251 839.979,907.573 824.065,924.884 804.83,944.31 782.157,965.868 755.972,989.398 726.312,1014.46 693.424,1040.22 657.874,1065.34 620.684,1087.87 583.447,1105.32 548.377,1114.84 518.232,1113.77 496.028,1100.39 484.549,1074.62 485.73,1038.51 500.126,995.951 526.692,951.733 562.974,910.349 605.65,875.015 651.201,847.313 696.472,827.38 739.018,814.399 777.201,807.108 810.125,804.184 837.48,804.463 859.361,807.033 876.107,811.244 888.176,816.68 896.045,823.12 900.153,830.487 900.865,838.821 898.452,848.244 893.083,858.938 884.826,871.133 873.653,885.088 859.452,901.077 842.039,919.365 821.18,940.171 796.626,963.617 768.161,989.641 735.676,1017.88 699.281,1047.51 659.448,1077.08 617.194,1104.32 574.255,1126.16 533.213,1138.9 497.441,1138.9 470.778,1123.58 456.871,1092.62 458.314,1048.62 475.864,996.828 508.12,943.665 551.824,894.95 602.664,854.544 656.216,823.98 708.685,802.916 757.296,789.908 800.346,783.129 837.051,780.831 867.314,781.573 891.472,784.281 910.107,788.221 923.89,792.942 933.483,798.204 939.481,803.928 942.379,810.142 942.554,816.959 940.27,824.546 935.675,833.121 928.812,842.938 919.624,854.288 907.958,867.5 893.575,882.93 876.153,900.956 855.301,921.958 830.576,946.273 801.52,974.121 767.72,1005.49 728.91,1039.93 685.131,1076.34 636.956,1112.61 585.781,1145.36 534.121,1169.89 485.794,1180.65 445.777,1172.48 419.535,1142.55 411.795,1092.29 425.109,1027.85 458.87,958.515 509.363,893.562 570.84,839.521 637.053,799.105 702.558,771.844 763.414,755.454 817.288,747.093 863.209,744.126 901.182,744.453 931.816,746.558 956.033,749.421 974.858,752.41 989.297,755.162 1000.26,757.497 1008.53,759.344 1014.77,760.701 1019.5,761.594 1023.14,762.064 1026.04,762.149 1028.44,761.877 1030.56,761.265 1032.56,760.314 1034.58,759.01 1036.74,757.32 1039.16,755.193 1041.93,752.556 1045.2,749.316 1049.09,745.348 1053.76,740.499 1059.41,734.574 1066.25,727.333 1074.56,718.482 1084.68,707.657 1097.03,694.419 1112.1,678.24 1130.5,658.498 1152.95,634.483 1180.28,605.424 1213.45,570.563 1253.47,529.313 1301.28,481.556 1357.57,428.146 1422.31,371.688 1494.15,317.505 1569.61,274.427 1642.26,254.434 1702.61,269.82 1739.52,327.456 1743.42,422.738 1710.29,538.668 1643.77,652.81 1553.86,747.412 1452.98,814.962 1352.19,856.941 1259.11,879.341 1177.76,888.853 1109.37,890.989 1053.36,889.647 1008.17,887.344 971.885,885.594 942.54,885.258 918.309,886.795 897.592,890.427 879.024,896.252 861.47,904.3 843.996,914.571 825.841,927.039 806.397,941.645 785.194,958.266 761.91,976.671 736.383,996.46 708.657,1017 679.034,1037.33 648.145,1056.15 617.009,1071.79 587.072,1082.35 560.168,1085.93 538.383,1081.01 523.797,1066.94 518.131,1044.29 522.371,1014.92 536.511,981.678 559.498,947.811 589.412,916.242 623.83,889.078 660.228,867.424 696.331,851.488 730.323,840.852 760.925,834.767 787.362,832.394 809.276,832.956 826.611,835.819 839.508,840.516 848.21,846.741 852.995,854.329 854.124,863.226 851.817,873.464 846.228,885.134 837.448,898.365 825.505,913.292 810.379,930.032 792.024,948.64 770.4,969.059 745.525,991.054 717.534,1014.13 686.767,1037.42 653.866,1059.63 619.88,1078.98 586.34,1093.29 555.279,1100.2 529.118,1097.64 510.409,1084.4 501.411,1060.69 503.61,1028.41 517.324,990.845 541.563,951.959 574.204,915.435 612.424,883.964 653.228,858.952 693.897,840.64 732.278,828.47 766.875,821.47 796.817,818.576 821.737,818.818 841.628,821.414 856.713,825.799 867.33,831.603 873.849,838.624 876.617,846.797 875.922,856.157 871.974,866.816 864.896,878.939 854.729,892.723 841.437,908.373 824.922,926.077 805.051,945.966 781.689,968.056 754.749,992.176 724.266,1017.86 690.496,1044.22 654.038,1069.83 615.975,1092.63 577.991,1109.97 542.428,1118.9 512.18,1116.66 490.385,1101.56 479.884,1073.75 482.571,1035.56 498.854,991.249 527.46,945.85 565.697,903.935 610.05,868.638 656.888,841.361 703.031,822.049 746.071,809.728 784.444,803.035 817.341,800.597 844.532,801.231 866.18,804.032 882.679,808.363 894.521,813.828 902.208,820.218 906.196,827.474 906.856,835.645 904.464,844.862 899.187,855.316 891.09,867.244 880.143,880.915 866.223,896.618 849.134,914.636 828.625,935.221 804.416,958.541 776.251,984.599 743.959,1013.12 707.571,1043.38 667.452,1074.05 624.496,1102.96 580.316,1127.05 537.406,1142.54 499.136,1145.46 469.482,1132.74 452.396,1103.46 450.895,1059.79 466.181,1006.87 497.177,951.435 540.732,899.878 592.422,856.634 647.564,823.637 702.059,800.708 752.857,786.394 798.057,778.759 836.753,775.918 868.792,776.304 894.508,778.742 914.505,782.424 929.497,786.842 940.195,791.721 947.246,796.952 951.194,802.541 952.466,808.579 951.372,815.216 948.105,822.644 942.754,831.096 935.306,840.84 925.652,852.178 913.597,865.453 898.857,881.04 881.071,899.342 859.803,920.768 834.562,945.695 804.839,974.387 770.16,1006.87 730.202,1042.74 684.952,1080.86 634.957,1119.03 581.645,1153.67 527.657,1179.68 477.071,1190.99 435.259,1181.91 408.151,1149.37 400.85,1095.05 416.029,1025.93 452.857,952.298 507.12,884.226 572.486,828.485 642.238,787.568 710.664,760.572 773.75,744.793 829.231,737.084 876.268,734.633 915.017,735.255 946.231,737.404 970.951,740.06 990.302,742.594 1005.37,744.648 1017.12,746.038 1026.4,746.682 1033.92,746.551 1040.26,745.637 1045.89,743.928 1051.22,741.397 1056.59,737.992 1062.3,733.625 1068.63,728.174 1075.87,721.47 1084.3,713.298 1094.26,703.386 1106.1,691.403 1120.26,676.952 1137.22,659.569 1157.56,638.734 1181.92,613.892 1211.02,584.513 1245.61,550.194 1286.38,510.86 1333.83,467.073 1388.01,420.505 1448.09,374.522 1511.9,334.717 1575.37,308.935 1632.27,306.102 1674.71,333.34 1694.72,392.012 1686.74,475.116 1649.91,568.742 1588.64,657.516 1511.08,730.377 1426.5,783.028 1342.88,816.735 1265.76,835.603 1198.16,844.289 1141.06,846.789 1094.1,846.073 1056.14,844.159 1025.73,842.33 1001.31,841.359 981.426,841.693 964.769,843.579 950.202,847.165 936.755,852.555 923.598,859.851 910.015,869.176 895.374,880.683 879.099,894.555 860.654,910.994 839.531,930.195 815.257,952.302 787.415,977.336 755.692,1005.09 719.965,1034.97 680.426,1065.81 637.751,1095.7 593.3,1121.8 549.291,1140.44 508.867,1147.57 475.91,1139.64 454.512,1114.95 448.113,1074.7 458.551,1023.31 485.421,967.352 526.082,913.609 576.322,867.261 631.374,830.98 686.854,805.108 739.353,788.438 786.629,779.068 827.514,775.033 861.672,774.638 889.333,776.582 911.056,779.947 927.549,784.143 939.543,788.833 947.721,793.862 952.666,799.206 954.848,804.932 954.619,811.171 952.212,818.099 947.754,825.934 941.267,834.926 932.68,845.363 921.831,857.569 908.471,871.905 892.268,888.768 872.814,908.575 849.633,931.735 822.205,958.597 790.012,989.347 752.62,1023.85 709.808,1061.4 661.778,1100.39 609.445,1137.98 554.785,1169.78 501.154,1189.98 453.377,1192.32 417.344,1171.9 398.926,1127.66 402.351,1064 428.705,990.125 475.366,916.959 536.763,853.435 606.019,804.301 676.653,770.168 743.663,748.964 803.883,737.538 855.799,732.774 899.134,732.105 934.411,733.644 962.584,736.103 984.786,738.665 1002.16,740.844 1015.75,742.374 1026.5,743.123 1035.19,743.035 1042.48,742.085 1048.93,740.255 1054.98,737.511 1061.03,733.797 1067.42,729.021 1074.46,723.051 1082.48,715.71 1091.79,706.769 1102.74,695.943 1115.74,682.885 1131.24,667.186 1149.75,648.376 1171.86,625.945 1198.24,599.378 1229.59,568.234 1266.59,532.287 1309.82,491.767 1359.55,447.726 1415.4,402.536 1475.98,360.428 1538.34,327.8 1597.58,312.75 1646.89,323.22 1678.55,363.708 1685.8,431.906 1665.28,517.861 1618.49,607.22 1551.44,686.833 1472.61,748.958 1390.47,791.95 1311.72,818.327 1240.63,832.311 1179.25,838.099 1127.96,839.097 1086.09,837.758 1052.42,835.714 1025.52,833.992 1003.92,833.2 986.285,833.684 971.433,835.64 958.34,839.187 946.132,844.421 934.063,851.446 921.48,860.396 907.801,871.441 892.48,884.79 874.997,900.686 854.841,919.382 831.511,941.105 804.533,965.999 773.498,994.024 738.138,1024.81 698.444,1057.46 654.836,1090.33 608.382,1120.76 561.032,1145.08 515.783,1158.78 476.631,1157.41 448.151,1137.89 434.647,1100.11 439.026,1047.75 461.843,987.624 500.988,927.662 552.225,874.514 610.302,832.063 670.128,801.298 727.59,781.134 779.892,769.47 825.503,764.015 863.905,762.748 895.28,764.099 920.224,766.95 939.536,770.569 954.06,774.516 964.598,778.566 971.855,782.638 976.418,786.75 978.749,790.979 979.194,795.449 977.987,800.309 975.266,805.733 971.083,811.92 965.405,819.096 958.127,827.516 949.069,837.477 937.975,849.32 924.514,863.436 908.271,880.27 888.75,900.312 865.374,924.077 837.498,952.053 804.448,984.607 765.595,1021.81 720.486,1063.18 669.072,1107.24 612.052,1151.05 551.317,1189.73 490.43,1216.36 434.883,1222.86 391.77,1202.39 368.512,1152.64 370.731,1078.56 400.131,991.767 453.614,906.325 524.262,833.491 603.59,778.74 683.79,742.125 759.084,720.478 826.036,709.605 883.217,705.642 930.62,705.571 969.096,707.271 999.928,709.349 1024.54,710.944 1044.31,711.552 1060.5,710.888 1074.23,708.792 1086.45,705.161 1097.96,699.903 1109.45,692.911 1121.54,684.046 1134.78,673.126 1149.69,659.928 1166.79,644.191 1186.58,625.634 1209.57,603.991 1236.26,579.068 1267.1,550.836 1302.41,519.571 1342.29,486.061 1386.43,451.852 1433.86,419.505 1482.75,392.737 1530.16,376.225 1572.04,374.849 1603.58,392.27 1620.09,429.209 1618.18,482.329 1596.87,544.668 1558.03,607.727 1505.96,664.137 1446.15,709.445 1384.06,742.382 1324.14,764.015 1269.43,776.578 1221.62,782.543 1181.29,784.095 1148.26,782.935 1121.89,780.273 1101.35,776.904 1085.71,773.31 1074.12,769.747 1065.81,766.319 1060.14,763.034 1056.58,759.837 1054.75,756.637 1054.34,753.322 1055.17,749.762 1057.11,745.816 1060.12,741.326 1064.21,736.118 1069.48,729.993 1076.05,722.718 1084.12,714.022 1093.96,703.587 1105.89,691.036 1120.32,675.927 1137.75,657.755 1158.76,635.955 1184.04,609.928 1214.34,579.11 1250.44,543.088 1293.06,501.821 1342.71,456.002 1399.34,407.585 1461.95,360.438 1528.01,320.888 1592.86,297.621 1649.56,300.125 1689.57,335.225 1704.69,402.767 1689.9,493.422 1645.47,591.359 1577.17,680.724 1494.19,751.398 1406.17,800.584 1320.93,830.788 1243.58,846.792 1176.6,853.463 1120.55,854.745 1074.73,853.463 1037.82,851.479 1008.21,849.951 984.304,849.56 964.604,850.691 947.795,853.561 932.742,858.298 918.48,865.001 904.185,873.774 889.145,884.736 872.731,898.031 854.379,913.815 833.575,932.229 809.858,953.363 782.841,977.181 752.254,1003.43 718.017,1031.49 680.359,1060.25 639.961,1087.9 598.123,1111.84 556.908,1128.82 519.177,1135.26 488.412,1128.11 468.252,1105.89 461.756,1069.63 470.596,1023.09 494.509,971.925 531.261,922.126 577.188,878.446 628.035,843.558 679.786,818.082 729.216,801.189 774.113,791.318 813.23,786.751 846.101,785.947 872.812,787.688 893.784,791.093 909.604,795.585 920.904,800.827 928.281,806.667 932.251,813.084 933.226,820.157 931.504,828.035 927.268,836.919 920.592,847.057 911.448,858.732 899.71,872.261 885.163,887.988 867.514,906.269 846.402,927.448 821.426,951.809 792.182,979.499 758.331,1010.4 719.707,1043.95 676.48,1078.89 629.372,1112.99 579.931,1142.83 530.779,1163.88 485.724,1171 449.533,1159.77 427.227,1128.24 422.902,1078.44 438.477,1016.57 472.942,951.278 522.54,890.826 581.823,840.845 645.025,803.55 707.194,778.387 764.764,763.247 815.636,755.551 858.94,752.914 894.688,753.431 923.441,755.718 946.043,758.847 963.434,762.243 976.53,765.583 986.16,768.717 993.03,771.605 997.719,774.275 1000.69,776.795 1002.28,779.253 1002.75,781.748 1002.28,784.389 1000.95,787.288 998.828,790.569 995.897,794.365 992.105,798.83 987.352,804.14 981.493,810.501 974.332,818.16 965.617,827.412 955.033,838.612 942.19,852.181 926.614,868.615 907.737,888.489 884.886,912.44 857.291,941.136 824.101,975.189 784.445,1014.99 737.555,1060.43 682.999,1110.41 621.058,1162.16 553.299,1210.5 483.262,1247.3 417.037,1262.11 363.179,1244.83 331.352,1190.5 329.535,1103.86 360.84,999.625 421.9,896.729 504.038,810.315 596.442,747.239 689.331,706.819 775.741,684.293 851.806,673.974 916.169,670.962 969.152,671.649 1012.02,673.627 1046.46,675.39 1074.23,676.048 1097.02,675.1 1116.31,672.276 1133.41,667.43 1149.42,660.471 1165.24,651.325 1181.68,639.918 1199.39,626.173 1218.94,610.026 1240.82,591.46 1265.4,570.555 1292.95,547.563 1323.56,523.01 1357.04,497.807 1392.87,473.375 1430.03,451.705 1466.91,435.317 1501.31,427.003 1530.49,429.307 1551.5,443.789 1561.69,470.305 1559.29,506.658 1543.9,548.92 1516.71,592.386 1480.22,632.75 1437.74,666.995 1392.7,693.697 1348.16,712.804 1306.45,725.156 1269.14,731.995 1237.05,734.602 1210.47,734.1 1189.29,731.362 1173.17,727.006 1161.66,721.424 1154.3,714.821 1150.67,707.26 1150.43,698.694 1153.3,688.995 1159.15,677.977 1167.92,665.41 1179.65,651.036 1194.45,634.591 1212.52,615.825 1234.07,594.547 1259.34,570.682 1288.52,544.362 1321.65,516.052 1358.54,486.711 1398.59,457.961 1440.64,432.22 1482.76,412.678 1522.22,402.981 1555.58,406.516 1579.06,425.331 1589.29,459.075 1584.12,504.528 1563.3,556.189 1528.67,607.801 1483.72,654.058 1432.75,691.706 1380.01,719.689 1329,738.619 1282.21,750.011 1241.12,755.648 1206.33,757.174 1177.85,755.92 1155.29,752.859 1138.07,748.645 1125.53,743.671 1117.05,738.132 1112.06,732.076 1110.11,725.45 1110.87,718.123 1114.12,709.908 1119.73,700.576 1127.7,689.854 1138.14,677.437 1151.21,662.988 1167.2,646.144 1186.44,626.538 1209.33,603.825 1236.32,577.748 1267.82,548.231 1304.12,515.532 1345.32,480.468 1391.07,444.69 1440.33,410.97 1491.09,383.356 1540.17,366.947 1583.15,367.014 1614.85,387.372 1630.27,428.457 1625.97,486.18 1601.2,552.621 1558.36,618.536 1502.3,676.303 1439.01,721.693 1374.2,753.902 1312.36,774.467 1256.45,785.961 1207.99,791.05 1167.37,792.002 1134.26,790.534 1107.88,787.839 1087.29,784.688 1071.51,781.541 1059.61,778.642 1050.78,776.092 1044.35,773.908 1039.76,772.056 1036.58,770.479 1034.47,769.11 1033.18,767.878 1032.52,766.718 1032.37,765.564 1032.65,764.357 1033.3,763.035 1034.31,761.536 1035.68,759.794 1037.44,757.732 1039.65,755.265 1042.37,752.288 1045.71,748.679 1049.8,744.286 1054.79,738.924 1060.88,732.368 1068.33,724.338 1077.44,714.495 1088.6,702.42 1102.27,687.611 1119.01,669.466 1139.53,647.283 1164.63,620.272 1195.25,587.606 1232.43,548.532 1277.25,502.603 1330.6,450.098 1392.91,392.713 1463.59,334.539 1540.16,283.11 1617.4,249.799 1686.73,248.174 1736.82,289.073 1756.28,373.5 1737.89,488.433 1682.06,610.934 1597.07,718.901 1495.58,799.923 1390.19,852.54 1290.37,882.026 1201.67,895.621 1126.28,899.738 1064.1,899.07 1013.78,896.696 973.399,894.49 940.885,893.523 914.287,894.367 891.868,897.295 872.143,902.419 853.88,909.759 836.068,919.287 817.898,930.943 798.735,944.622 778.101,960.158 755.683,977.278 731.337,995.556 705.128,1014.35 677.369,1032.75 648.675,1049.56 620.008,1063.28 592.689,1072.26 568.355,1074.91 548.828,1070.01 535.889,1057.1 530.984,1036.71 534.924,1010.46 547.677,980.776 568.329,950.39 595.232,921.825 626.291,896.952 659.3,876.828 692.232,861.755 723.43,851.48 751.683,845.433 776.218,842.928 796.631,843.305 812.797,846.008 824.779,850.615 832.748,856.84 836.916,864.518 837.496,873.585 834.67,884.049 828.576,895.968 819.301,909.427 806.888,924.502 791.352,941.231 772.706,959.572 750.997,979.345 726.356,1000.17 699.065,1021.4 669.633,1042.02 638.879,1060.67 608.006,1075.6 578.624,1084.87 552.707,1086.61 532.425,1079.46 519.855,1063.03 516.608,1038.23 523.467,1007.25 540.165,973.165 565.39,939.253 597.029,908.314 632.56,882.233 669.461,861.872 705.534,847.241 739.079,837.792 768.945,832.716 794.472,831.16 815.396,832.368 831.729,835.739 843.652,840.843 851.431,847.41 855.352,855.306 855.673,864.502 852.601,875.049 846.278,887.054 836.779,900.653 824.115,915.989 808.255,933.173 789.144,952.25 766.743,973.141 741.076,995.57 712.305,1018.98 680.816,1042.42 647.318,1064.51 612.953,1083.33 579.366,1096.62 548.703,1101.98 523.475,1097.41 506.257,1081.91 499.239,1056.01 503.733,1021.96 519.809,983.316 546.211,944.132 580.596,908.008 620.018,877.427 661.456,853.546 702.253,836.402 740.359,825.295 774.401,819.189 803.621,817.001 827.74,817.78 846.82,820.775 861.126,825.455 871.019,831.483 876.877,838.686 879.047,847.022 877.807,856.544 873.357,867.379 865.804,879.703 855.175,893.721 841.418,909.646 824.423,927.669 804.044,947.918 780.138,970.404 752.615,994.934 721.519,1021.01 687.126,1047.69 650.073,1073.47 611.505,1096.19 573.192,1113.11 537.576,1121.18 507.648,1117.67 486.608,1100.97 477.293,1071.44 481.503,1031.73 499.474,986.336 529.73,940.426 569.392,898.547 614.825,863.691 662.354,837.077 708.826,818.485 751.899,806.83 790.092,800.693 822.678,798.679 849.492,799.617 870.749,802.616 886.875,807.061 898.385,812.576 905.792,818.97 909.555,826.196 910.047,834.313 907.537,843.46 902.189,853.834 894.063,865.678 883.119,879.267 869.229,894.894 852.187,912.856 831.73,933.417 807.564,956.764 779.412,982.924 747.08,1011.65 710.561,1042.27 670.186,1073.48 626.802,1103.13 581.988,1128.16 538.216,1144.72 498.879,1148.68 468.033,1136.78 449.767,1107.87 447.276,1063.98 461.928,1010.27 492.744,953.665 536.577,900.808 588.919,856.373 644.957,822.427 700.457,798.828 752.26,784.086 798.394,776.198 837.92,773.214 870.676,773.509 897.007,775.867 917.537,779.45 933.005,783.733 944.147,788.424 951.635,793.406 956.037,798.676 957.802,804.315 957.261,810.464 954.629,817.304 950.015,825.054 943.429,833.968 934.786,844.333 923.914,856.475 910.555,870.76 894.367,887.589 874.933,907.386 851.764,930.575 824.329,957.519 792.09,988.426 754.59,1023.19 711.579,1061.13 663.225,1100.68 610.412,1138.99 555.093,1171.63 500.628,1192.7 451.9,1195.74 414.917,1175.61 395.719,1131.09 398.709,1066.54 425.083,991.377 472.22,916.835 534.442,852.136 604.713,802.168 676.396,767.547 744.382,746.115 805.448,734.621 858.064,729.863 901.967,729.214 937.705,730.75 966.264,733.162 988.807,735.622 1006.5,737.636 1020.43,738.932 1031.54,739.375 1040.65,738.899 1048.43,737.472 1055.45,735.06 1062.19,731.617 1069.06,727.065 1076.44,721.288 1084.65,714.126 1094.07,705.37 1105.05,694.753 1117.99,681.951 1133.34,666.58 1151.6,648.198 1173.35,626.329 1199.2,600.493 1229.84,570.285 1265.91,535.505 1307.94,496.386 1356.18,453.924 1410.27,410.336 1468.91,369.555 1529.34,337.502 1587.02,321.701 1635.62,329.642 1667.86,365.852 1677.23,428.773 1660.22,509.734 1617.76,595.56 1555.1,673.588 1480.1,735.799 1400.87,779.869 1324.06,807.661 1254.1,822.957 1193.24,829.75 1142.11,831.384 1100.22,830.333 1066.49,828.277 1039.58,826.285 1018.11,825.004 1000.79,824.802 986.448,825.886 974.102,828.374 962.897,832.353 952.108,837.913 941.108,845.171 929.336,854.278 916.275,865.435 901.426,878.888 884.291,894.92 864.359,913.838 841.113,935.94 814.037,961.449 782.659,990.428 746.621,1022.62 705.803,1057.23 660.505,1092.69 611.687,1126.3 561.258,1154.16 512.297,1171.28 469.084,1172.43 436.705,1153.72 420.13,1114.44 422.913,1058.29 445.991,992.871 487.228,927.273 541.977,869.213 604.368,823.154 668.701,790.147 730.408,768.835 786.437,756.736 835.176,751.209 876.138,749.978 909.604,751.298 936.298,753.949 957.149,757.134 973.126,760.378 985.143,763.425 994.005,766.166 1000.39,768.585 1004.86,770.717 1007.84,772.625 1009.66,774.386 1010.57,776.081 1010.75,777.792 1010.3,779.602 1009.29,781.594 1007.75,783.86 1005.66,786.494 1002.98,789.607 999.639,793.327 995.519,797.804 990.478,803.219 984.329,809.792 976.838,817.789 967.713,827.534 956.594,839.422 943.04,853.923 926.516,871.599 906.379,893.098 881.868,919.146 852.113,950.493 816.154,987.814 773.02,1031.49 721.89,1081.26 662.384,1135.56 595.055,1190.74 522.098,1240.1 448.171,1273.52 380.937,1278.8 330.609,1245.64 307.777,1171.83 319.757,1067.42 367.263,952.263 443.751,847.129 538.01,765.234 638.165,709.825 734.73,677.182 821.762,660.929 896.556,654.94 958.736,654.491 1009.32,656.36 1050.01,658.515 1082.73,659.751 1109.37,659.395 1131.63,657.093 1151,652.674 1168.73,646.061 1185.86,637.22 1203.26,626.141 1221.63,612.832 1241.55,597.337 1263.44,579.771 1287.62,560.368 1314.23,539.55 1343.18,518.01 1374.13,496.786 1406.36,477.319 1438.75,461.437 1469.7,451.226 1497.19,448.728 1518.96,455.487 1532.79,472.041 1536.93,497.543 1530.47,529.732 1513.63,565.354 1487.75,600.893 1455.04,633.332 1418.17,660.645 1379.81,681.917 1342.29,697.157 1307.4,706.974 1276.34,712.251 1249.79,713.911 1228,712.766 1210.93,709.456 1198.39,704.437 1190.06,697.994 1185.65,690.27 1184.86,681.291 1187.46,671.003 1193.31,659.288 1202.32,645.992 1214.48,630.95 1229.84,614.013 1248.47,595.085 1270.45,574.18 1295.82,551.484 1324.5,527.451 1356.2,502.904 1390.35,479.142 1425.92,457.997 1461.38,441.795 1494.64,433.124 1523.13,434.374 1544.06,447.075 1554.89,471.236 1553.85,504.988 1540.45,544.817 1515.62,586.371 1481.59,625.536 1441.39,659.286 1398.3,686.049 1355.25,705.569 1314.6,718.492 1277.96,725.917 1246.23,729.038 1219.79,728.931 1198.62,726.454 1182.43,722.231 1170.85,716.662 1163.45,709.97 1159.82,702.231 1159.65,693.411 1162.7,683.394 1168.8,672.007 1177.9,659.034 1190.04,644.238 1205.33,627.381 1223.92,608.255 1246,586.729 1271.77,562.811 1301.31,536.749 1334.58,509.152 1371.24,481.144 1410.52,454.508 1451.07,431.754 1490.82,416.015 1526.95,410.636 1556.12,418.405 1574.88,440.561 1580.38,475.968 1571.14,520.97 1547.51,570.193 1511.65,618.015 1467.08,659.987 1417.85,693.597 1367.78,718.237 1319.93,734.658 1276.45,744.306 1238.54,748.789 1206.67,749.561 1180.79,747.779 1160.53,744.283 1145.32,739.625 1134.6,734.128 1127.8,727.933 1124.44,721.053 1124.14,713.401 1126.63,704.822 1131.76,695.103 1139.47,683.992 1149.81,671.198 1162.94,656.403 1179.07,639.277 1198.51,619.492 1221.6,596.77 1248.71,570.94 1280.16,542.044 1316.13,510.492 1356.56,477.265 1400.91,444.162 1447.96,414.011 1495.58,390.719 1540.56,378.919 1578.69,383.047 1605.3,405.856 1616.16,446.874 1608.62,501.75 1582.58,563.167 1540.59,623.1 1487.23,675.188 1427.88,716.024 1367.58,745.066 1310.29,763.693 1258.59,774.142 1213.83,778.726 1176.35,779.423 1145.89,777.745 1121.77,774.746 1103.16,771.11 1089.19,767.237 1079.08,763.326 1072.11,759.441 1067.72,755.558 1065.44,751.594 1064.94,747.43 1066,742.922 1068.46,737.902 1072.29,732.184 1077.51,725.556 1084.21,717.775 1092.56,708.562 1102.8,697.594 1115.24,684.496 1130.28,668.838 1148.39,650.134 1170.13,627.861 1196.15,601.487 1227.12,570.551 1263.76,534.798 1306.63,494.408 1356.04,450.36 1411.67,404.923 1472.22,362.212 1534.83,328.523 1594.71,311.944 1645.13,320.589 1678.31,359.345 1687.3,426.395 1668.43,512.133 1622.9,602.193 1556.53,683.088 1477.79,746.638 1395.27,790.875 1315.84,818.18 1243.94,832.773 1181.73,838.92 1129.68,840.102 1087.15,838.836 1052.92,836.806 1025.56,835.068 1003.59,834.253 985.667,834.719 970.58,836.668 957.294,840.223 944.922,845.481 932.709,852.546 919.992,861.55 906.181,872.662 890.729,886.089 873.112,902.067 852.818,920.842 829.349,942.634 802.239,967.569 771.09,995.584 735.653,1026.28 695.945,1058.73 652.42,1091.23 606.188,1121.12 559.241,1144.69 514.604,1157.49 476.267,1155.17 448.754,1134.85 436.256,1096.62 441.531,1044.28 464.989,984.65 504.43,925.508 555.606,873.299 613.324,831.725 672.588,801.667 729.385,782.014 781.001,770.689 825.961,765.442 863.775,764.302 894.634,765.735 919.132,768.653 938.055,772.344 952.233,776.384 962.452,780.556 969.4,784.789 973.648,789.106 975.644,793.593 975.716,798.38 974.085,803.626 970.874,809.518 966.115,816.265 959.759,824.11 951.678,833.328 941.669,844.235 929.448,857.192 914.655,872.614 896.847,890.959 875.498,912.721 850.011,938.392 819.74,968.392 784.048,1002.94 742.4,1041.84 694.546,1084.15 640.795,1127.72 582.399,1168.75 522.02,1201.41 464.107,1218.25 414.895,1211.73 381.641,1177.1 370.926,1115.52 386.484,1035.32 427.635,949.504 489.324,870.881 563.798,807.763 642.91,762.76 719.912,734.184 790.267,718.314 851.598,711.148 903.219,709.3 945.559,710.252 979.676,712.287 1006.9,714.306 1028.61,715.647 1046.11,715.927 1060.57,714.935 1072.97,712.549 1084.19,708.681 1094.95,703.242 1105.89,696.12 1117.56,687.164 1130.48,676.177 1145.15,662.916 1162.08,647.098 1181.76,628.417 1204.72,606.571 1231.47,581.324 1262.5,552.595 1298.17,520.606 1338.64,486.087 1383.65,450.55 1432.3,416.575 1482.78,387.989 1532.1,369.721 1576.06,367.041 1609.61,384.055 1627.69,421.802 1626.58,476.936 1605.09,542.097 1565.1,608.158 1511.13,667.172 1449.01,714.371 1384.52,748.458 1322.35,770.654 1265.69,783.402 1216.25,789.365 1174.6,790.867 1140.5,789.699 1113.25,787.126 1091.93,783.973 1075.56,780.741 1063.21,777.7 1054.08,774.968 1047.47,772.57 1042.81,770.475 1039.66,768.621 1037.67,766.936 1036.59,765.341 1036.25,763.757 1036.5,762.106 1037.3,760.309 1038.59,758.284 1040.38,755.941 1042.71,753.183 1045.64,749.896 1049.25,745.944 1053.68,741.168 1059.09,735.372 1065.69,728.32 1073.73,719.722 1083.53,709.229 1095.49,696.414 1110.07,680.768 1127.88,661.688 1149.58,638.485 1176.01,610.404 1208.08,576.69 1246.78,536.726 1293.08,490.302 1347.69,438.078 1410.73,382.296 1481.12,327.723 1555.81,282.487 1628.96,257.989 1691.65,266.604 1732.99,316.448 1743,405.187 1716.53,517.918 1655.85,632.771 1569.96,730.84 1470.99,802.813 1370.3,848.797 1276.13,874.183 1193.08,885.623 1122.8,888.836 1064.98,887.968 1018.23,885.745 980.681,883.831 950.387,883.186 925.499,884.332 904.384,887.528 885.642,892.896 868.101,900.481 850.793,910.296 832.924,922.332 813.852,936.552 793.073,952.864 770.219,971.084 745.077,990.877 717.62,1011.68 688.067,1032.64 656.95,1052.52 625.183,1069.73 594.116,1082.34 565.524,1088.34 541.506,1085.99 524.249,1074.3 515.687,1053.44 517.099,1024.97 528.794,991.633 549.976,956.749 578.88,923.508 613.098,894.353 650.015,870.689 687.192,852.935 722.627,840.777 754.868,833.485 783.004,830.185 806.581,830.039 825.489,832.348 839.842,836.586 849.881,842.398 855.898,849.58 858.177,858.051 856.96,867.825 852.428,878.988 844.692,891.667 833.796,906.011 819.726,922.162 802.429,940.219 781.841,960.191 757.934,981.936 730.767,1005.08 700.57,1028.93 667.839,1052.35 633.446,1073.73 598.736,1090.95 565.584,1101.6 536.348,1103.31 513.66,1094.35 500.06,1074.25 497.49,1044.25 506.821,1007.26 527.576,967.273 557.977,928.348 595.315,893.759 636.488,865.48 678.524,844.167 718.956,829.478 755.987,820.5 788.503,816.114 815.961,815.253 838.252,817.022 855.549,820.751 868.18,825.985 876.536,832.454 880.998,840.042 881.899,848.751 879.492,858.667 873.945,869.942 865.335,882.774 853.656,897.378 838.827,913.974 820.712,932.749 799.152,953.815 773.997,977.143 745.172,1002.48 712.762,1029.2 677.12,1056.23 639.011,1081.85 599.755,1103.68 561.34,1118.76 526.437,1123.98 498.215,1116.73 479.924,1095.86 474.246,1062.39 482.62,1019.67 504.779,972.676 538.735,926.683 581.227,885.957 628.444,853.003 676.734,828.552 723.109,812.02 765.457,802.119 802.532,797.356 833.802,796.353 859.254,797.995 879.202,801.459 894.131,806.198 904.583,811.891 911.078,818.392 914.065,825.688 913.9,833.863 910.833,843.074 905.004,853.533 896.45,865.494 885.109,879.244 870.83,895.087 853.386,913.328 832.493,934.243 807.837,958.025 779.121,984.707 746.138,1014.03 708.875,1045.3 667.671,1077.14 623.41,1107.32 577.739,1132.63 533.243,1149.03 493.464,1152.26 462.615,1138.98 444.908,1108.17 443.565,1062.17 459.848,1006.53 492.564,948.525 538.307,894.949 592.345,850.412 649.724,816.794 706.169,793.734 758.554,779.569 804.979,772.189 844.593,769.589 877.315,770.133 903.558,772.606 923.998,776.185 939.411,780.359 950.563,784.847 958.143,789.536 962.734,794.428 964.796,799.601 964.673,805.187 962.591,811.359 958.673,818.321 952.946,826.309 945.345,835.592 935.72,846.477 923.84,859.313 909.388,874.487 891.967,892.431 871.104,913.595 846.258,938.422 816.848,967.274 782.309,1000.31 742.183,1037.31 696.285,1077.33 644.952,1118.39 589.386,1156.97 532.056,1187.83 "/>
</svg>
